DBRep_DrawableShape

CASCADE Topology V1, (c) Matra-Datavision
Locations 0
Curve2ds 500
1 0 0 1 0 
1 0 0 1 0 
1 3 0 0 -1 
1 0 0 0 1 
1 0 -50 1 0 
1 0 0 1 0 
1 0 0 0 -1 
1 0 0 0 1 
1 0 0 0 1 
1 0 0 1 0 
8 -3.7999999999999998 -0.19999999999999996
1 -0.5 60 -1 0 
8 -3.7999999999999998 -0.19999999999999996
1 0.5 -1 -1 -0 
1 3 0 0 1 
1 0 0 1 0 
1 3 0 0 1 
1 0 50 1 0 
1 3 0 0 -1 
1 800 0 0 1 
8 -4.5 43.5
1 80 -0.5 0 1 
8 -4.5 43.5
1 4 -0.5 0 -1 
8 -4.5 43.5
1 60 -0.5 0 1 
8 -4.5 43.5
1 4 -0.5 0 -1 
8 -52 -28
1 30 39 -1 0 
8 -52 -28
1 4 -30 0 -1 
8 8 32
1 285 10 0 1 
8 8 32
1 4 10 0 -1 
8 -151.5 -133.5
1 135 20 -1 0 
8 -151.5 -133.5
1 4 -135 0 -1 
8 -151.5 -133.5
1 135 40 -1 0 
8 -151.5 -133.5
1 4 -135 0 -1 
8 8 32
1 270 10 0 1 
8 8 32
1 4 10 0 -1 
8 -136.5 -118.5
1 120 20 -1 0 
8 -136.5 -118.5
1 4 -120 0 -1 
8 8 32
1 255 10 0 1 
8 8 32
1 4 10 0 -1 
8 8 32
1 240 10 0 1 
8 8 32
1 4 10 0 -1 
8 -136.5 -118.5
1 120 40 -1 0 
8 -136.5 -118.5
1 4 -120 0 -1 
8 -107 -83
1 85 40 -1 0 
8 -107 -83
1 4 -85 0 -1 
8 8 32
1 190 10 0 1 
8 8 32
1 4 10 0 -1 
8 8 32
1 170 10 0 1 
8 8 32
1 4 10 0 -1 
8 -107 -83
1 85 20 -1 0 
8 -107 -83
1 4 -85 0 -1 
8 8 32
1 225 10 0 1 
8 8 32
1 4 10 0 -1 
8 -121.5 -103.5
1 105 20 -1 0 
8 -121.5 -103.5
1 4 -105 0 -1 
8 -121.5 -103.5
1 105 40 -1 0 
8 -121.5 -103.5
1 4 -105 0 -1 
8 8 32
1 210 10 0 1 
8 8 32
1 4 10 0 -1 
8 8 32
1 30 10 0 1 
8 8 32
1 4 10 0 -1 
8 -27 -3
1 5 20 -1 0 
8 -27 -3
1 4 -5 0 -1 
8 -27 -3
1 5 40 -1 0 
8 -27 -3
1 4 -5 0 -1 
8 8 32
1 10 10 0 1 
8 8 32
1 4 10 0 -1 
8 8 32
1 110 10 0 1 
8 8 32
1 4 10 0 -1 
8 -67 -43
1 45 20 -1 0 
8 -67 -43
1 4 -45 0 -1 
8 -67 -43
1 45 40 -1 0 
8 -67 -43
1 4 -45 0 -1 
8 8 32
1 90 10 0 1 
8 8 32
1 4 10 0 -1 
8 -87 -63
1 65 40 -1 0 
8 -87 -63
1 4 -65 0 -1 
8 8 32
1 150 10 0 1 
8 8 32
1 4 10 0 -1 
8 8 32
1 130 10 0 1 
8 8 32
1 4 10 0 -1 
8 -87 -63
1 65 20 -1 0 
8 -87 -63
1 4 -65 0 -1 
8 8 32
1 315 10 0 1 
8 8 32
1 4 10 0 -1 
8 -166.5 -148.5
1 150 20 -1 0 
8 -166.5 -148.5
1 4 -150 0 -1 
8 -166.5 -148.5
1 150 40 -1 0 
8 -166.5 -148.5
1 4 -150 0 -1 
8 8 32
1 300 10 0 1 
8 8 32
1 4 10 0 -1 
8 -323 -287
1 290 40 -1 0 
8 -323 -287
1 4 -290 0 -1 
8 8 32
1 610 10 0 1 
8 8 32
1 4 10 0 -1 
8 8 32
1 580 10 0 1 
8 8 32
1 4 10 0 -1 
8 -323 -287
1 290 20 -1 0 
8 -323 -287
1 4 -290 0 -1 
8 8 32
1 570 10 0 1 
8 8 32
1 4 10 0 -1 
8 -303 -267
1 270 20 -1 0 
8 -303 -267
1 4 -270 0 -1 
8 -303 -267
1 270 40 -1 0 
8 -303 -267
1 4 -270 0 -1 
8 8 32
1 540 10 0 1 
8 8 32
1 4 10 0 -1 
8 8 32
1 530 10 0 1 
8 8 32
1 4 10 0 -1 
8 -283 -247
1 250 20 -1 0 
8 -283 -247
1 4 -250 0 -1 
8 -283 -247
1 250 40 -1 0 
8 -283 -247
1 4 -250 0 -1 
8 8 32
1 500 10 0 1 
8 8 32
1 4 10 0 -1 
8 -263 -227
1 230 20 -1 0 
8 -263 -227
1 4 -230 0 -1 
8 8 32
1 490 10 0 1 
8 8 32
1 4 10 0 -1 
8 8 32
1 460 10 0 1 
8 8 32
1 4 10 0 -1 
8 -263 -227
1 230 40 -1 0 
8 -263 -227
1 4 -230 0 -1 
8 -203 -167
1 170 20 -1 0 
8 -203 -167
1 4 -170 0 -1 
8 8 32
1 370 10 0 1 
8 8 32
1 4 10 0 -1 
8 8 32
1 340 10 0 1 
8 8 32
1 4 10 0 -1 
8 -203 -167
1 170 40 -1 0 
8 -203 -167
1 4 -170 0 -1 
8 8 32
1 410 10 0 1 
8 8 32
1 4 10 0 -1 
8 -223 -187
1 190 20 -1 0 
8 -223 -187
1 4 -190 0 -1 
8 -223 -187
1 190 40 -1 0 
8 -223 -187
1 4 -190 0 -1 
8 8 32
1 380 10 0 1 
8 8 32
1 4 10 0 -1 
8 8 32
1 450 10 0 1 
8 8 32
1 4 10 0 -1 
8 -243 -207
1 210 20 -1 0 
8 -243 -207
1 4 -210 0 -1 
8 -243 -207
1 210 40 -1 0 
8 -243 -207
1 4 -210 0 -1 
8 8 32
1 420 10 0 1 
8 8 32
1 4 10 0 -1 
8 -397 -373
1 375 2.5 -1 0 
8 -397 -373
1 4 -375 0 -1 
8 -2.25 39.75
1 770 1.25 0 1 
8 -2.25 39.75
1 4 1.25 0 -1 
8 -397 -373
1 375 37.5 -1 0 
8 -397 -373
1 4 -375 0 -1 
8 -2.25 39.75
1 750 1.25 0 1 
8 -2.25 39.75
1 4 1.25 0 -1 
8 8 32
1 690 10 0 1 
8 8 32
1 4 10 0 -1 
8 -363 -327
1 330 20 -1 0 
8 -363 -327
1 4 -330 0 -1 
8 -363 -327
1 330 40 -1 0 
8 -363 -327
1 4 -330 0 -1 
8 8 32
1 660 10 0 1 
8 8 32
1 4 10 0 -1 
8 8 32
1 730 10 0 1 
8 8 32
1 4 10 0 -1 
8 -383 -347
1 350 20 -1 0 
8 -383 -347
1 4 -350 0 -1 
8 -383 -347
1 350 40 -1 0 
8 -383 -347
1 4 -350 0 -1 
8 8 32
1 700 10 0 1 
8 8 32
1 4 10 0 -1 
8 -343 -307
1 310 40 -1 0 
8 -343 -307
1 4 -310 0 -1 
8 8 32
1 650 10 0 1 
8 8 32
1 4 10 0 -1 
8 8 32
1 620 10 0 1 
8 8 32
1 4 10 0 -1 
8 -343 -307
1 310 20 -1 0 
8 -343 -307
1 4 -310 0 -1 
1 0 0 0 1 
1 0 50 1 0 
1 0 -50 1 0 
1 0 800 1 0 
1 0 0 0 -1 
1 800 0 0 1 
8 -4.5 43.5
1 80 -0.5 0 1 
8 -4.5 43.5
1 1 -0.5 0 -1 
8 -4.5 43.5
1 60 -0.5 0 1 
8 -4.5 43.5
1 1 -0.5 0 -1 
8 -52 -28
1 30 39 -1 0 
8 -52 -28
1 1 -30 0 -1 
8 8 32
1 285 10 0 1 
8 8 32
1 1 10 0 -1 
8 -151.5 -133.5
1 135 20 -1 0 
8 -151.5 -133.5
1 1 -135 0 -1 
8 -151.5 -133.5
1 135 40 -1 0 
8 -151.5 -133.5
1 1 -135 0 -1 
8 8 32
1 270 10 0 1 
8 8 32
1 1 10 0 -1 
8 -136.5 -118.5
1 120 20 -1 0 
8 -136.5 -118.5
1 1 -120 0 -1 
8 8 32
1 255 10 0 1 
8 8 32
1 1 10 0 -1 
8 8 32
1 240 10 0 1 
8 8 32
1 1 10 0 -1 
8 -136.5 -118.5
1 120 40 -1 0 
8 -136.5 -118.5
1 1 -120 0 -1 
8 -107 -83
1 85 40 -1 0 
8 -107 -83
1 1 -85 0 -1 
8 8 32
1 190 10 0 1 
8 8 32
1 1 10 0 -1 
8 8 32
1 170 10 0 1 
8 8 32
1 1 10 0 -1 
8 -107 -83
1 85 20 -1 0 
8 -107 -83
1 1 -85 0 -1 
8 8 32
1 225 10 0 1 
8 8 32
1 1 10 0 -1 
8 -121.5 -103.5
1 105 20 -1 0 
8 -121.5 -103.5
1 1 -105 0 -1 
8 -121.5 -103.5
1 105 40 -1 0 
8 -121.5 -103.5
1 1 -105 0 -1 
8 8 32
1 210 10 0 1 
8 8 32
1 1 10 0 -1 
8 8 32
1 30 10 0 1 
8 8 32
1 1 10 0 -1 
8 -27 -3
1 5 20 -1 0 
8 -27 -3
1 1 -5 0 -1 
8 -27 -3
1 5 40 -1 0 
8 -27 -3
1 1 -5 0 -1 
8 8 32
1 10 10 0 1 
8 8 32
1 1 10 0 -1 
8 8 32
1 110 10 0 1 
8 8 32
1 1 10 0 -1 
8 -67 -43
1 45 20 -1 0 
8 -67 -43
1 1 -45 0 -1 
8 -67 -43
1 45 40 -1 0 
8 -67 -43
1 1 -45 0 -1 
8 8 32
1 90 10 0 1 
8 8 32
1 1 10 0 -1 
8 -87 -63
1 65 40 -1 0 
8 -87 -63
1 1 -65 0 -1 
8 8 32
1 150 10 0 1 
8 8 32
1 1 10 0 -1 
8 8 32
1 130 10 0 1 
8 8 32
1 1 10 0 -1 
8 -87 -63
1 65 20 -1 0 
8 -87 -63
1 1 -65 0 -1 
8 8 32
1 315 10 0 1 
8 8 32
1 1 10 0 -1 
8 -166.5 -148.5
1 150 20 -1 0 
8 -166.5 -148.5
1 1 -150 0 -1 
8 -166.5 -148.5
1 150 40 -1 0 
8 -166.5 -148.5
1 1 -150 0 -1 
8 8 32
1 300 10 0 1 
8 8 32
1 1 10 0 -1 
8 -323 -287
1 290 40 -1 0 
8 -323 -287
1 1 -290 0 -1 
8 8 32
1 610 10 0 1 
8 8 32
1 1 10 0 -1 
8 8 32
1 580 10 0 1 
8 8 32
1 1 10 0 -1 
8 -323 -287
1 290 20 -1 0 
8 -323 -287
1 1 -290 0 -1 
8 8 32
1 570 10 0 1 
8 8 32
1 1 10 0 -1 
8 -303 -267
1 270 20 -1 0 
8 -303 -267
1 1 -270 0 -1 
8 -303 -267
1 270 40 -1 0 
8 -303 -267
1 1 -270 0 -1 
8 8 32
1 540 10 0 1 
8 8 32
1 1 10 0 -1 
8 8 32
1 530 10 0 1 
8 8 32
1 1 10 0 -1 
8 -283 -247
1 250 20 -1 0 
8 -283 -247
1 1 -250 0 -1 
8 -283 -247
1 250 40 -1 0 
8 -283 -247
1 1 -250 0 -1 
8 8 32
1 500 10 0 1 
8 8 32
1 1 10 0 -1 
8 -263 -227
1 230 20 -1 0 
8 -263 -227
1 1 -230 0 -1 
8 8 32
1 490 10 0 1 
8 8 32
1 1 10 0 -1 
8 8 32
1 460 10 0 1 
8 8 32
1 1 10 0 -1 
8 -263 -227
1 230 40 -1 0 
8 -263 -227
1 1 -230 0 -1 
8 -203 -167
1 170 20 -1 0 
8 -203 -167
1 1 -170 0 -1 
8 8 32
1 370 10 0 1 
8 8 32
1 1 10 0 -1 
8 8 32
1 340 10 0 1 
8 8 32
1 1 10 0 -1 
8 -203 -167
1 170 40 -1 0 
8 -203 -167
1 1 -170 0 -1 
8 8 32
1 410 10 0 1 
8 8 32
1 1 10 0 -1 
8 -223 -187
1 190 20 -1 0 
8 -223 -187
1 1 -190 0 -1 
8 -223 -187
1 190 40 -1 0 
8 -223 -187
1 1 -190 0 -1 
8 8 32
1 380 10 0 1 
8 8 32
1 1 10 0 -1 
8 8 32
1 450 10 0 1 
8 8 32
1 1 10 0 -1 
8 -243 -207
1 210 20 -1 0 
8 -243 -207
1 1 -210 0 -1 
8 -243 -207
1 210 40 -1 0 
8 -243 -207
1 1 -210 0 -1 
8 8 32
1 420 10 0 1 
8 8 32
1 1 10 0 -1 
8 -397 -373
1 375 2.5 -1 0 
8 -397 -373
1 1 -375 0 -1 
8 -2.25 39.75
1 770 1.25 0 1 
8 -2.25 39.75
1 1 1.25 0 -1 
8 -397 -373
1 375 37.5 -1 0 
8 -397 -373
1 1 -375 0 -1 
8 -2.25 39.75
1 750 1.25 0 1 
8 -2.25 39.75
1 1 1.25 0 -1 
8 8 32
1 690 10 0 1 
8 8 32
1 1 10 0 -1 
8 -363 -327
1 330 20 -1 0 
8 -363 -327
1 1 -330 0 -1 
8 -363 -327
1 330 40 -1 0 
8 -363 -327
1 1 -330 0 -1 
8 8 32
1 660 10 0 1 
8 8 32
1 1 10 0 -1 
8 8 32
1 730 10 0 1 
8 8 32
1 1 10 0 -1 
8 -383 -347
1 350 20 -1 0 
8 -383 -347
1 1 -350 0 -1 
8 -383 -347
1 350 40 -1 0 
8 -383 -347
1 1 -350 0 -1 
8 8 32
1 700 10 0 1 
8 8 32
1 1 10 0 -1 
8 -343 -307
1 310 40 -1 0 
8 -343 -307
1 1 -310 0 -1 
8 8 32
1 650 10 0 1 
8 8 32
1 1 10 0 -1 
8 8 32
1 620 10 0 1 
8 8 32
1 1 10 0 -1 
8 -343 -307
1 310 20 -1 0 
8 -343 -307
1 1 -310 0 -1 
1 0 -40 1 0 
1 0 0 1 0 
1 0 0 1 0 
1 0 800 1 0 
8 -3.7999999999999998 -0.19999999999999996
1 -0.5 80 -1 0 
8 -3.7999999999999998 -0.19999999999999996
1 0.5 -1 -1 -0 
1 0 -40 1 0 
1 0 20 1 0 
1 0 0 1 0 
1 0 15 1 0 
1 0 -20 1 0 
1 0 15 1 0 
1 0 0 1 0 
1 0 0 1 0 
1 0 -20 1 0 
1 0 0 1 0 
1 0 0 1 0 
1 0 15 1 0 
1 0 0 1 0 
1 0 0 1 0 
1 0 -20 1 0 
1 0 15 1 0 
1 0 -20 1 0 
1 0 0 1 0 
1 0 -20 1 0 
1 0 20 1 0 
1 0 -20 1 0 
1 0 0 1 0 
1 0 0 1 0 
1 0 20 1 0 
1 0 0 1 0 
1 0 0 1 0 
1 0 0 1 0 
1 0 15 1 0 
1 0 -20 1 0 
1 0 15 1 0 
1 0 0 1 0 
1 0 0 1 0 
1 0 -20 1 0 
1 0 0 1 0 
1 0 0 1 0 
1 0 20 1 0 
1 0 -20 1 0 
1 0 20 1 0 
1 0 0 1 0 
1 0 0 1 0 
1 0 -20 1 0 
1 0 0 1 0 
1 0 0 1 0 
1 0 20 1 0 
1 0 -20 1 0 
1 0 20 1 0 
1 0 0 1 0 
1 0 0 1 0 
1 0 -20 1 0 
1 0 0 1 0 
1 0 -20 1 0 
1 0 20 1 0 
1 0 -20 1 0 
1 0 0 1 0 
1 0 0 1 0 
1 0 20 1 0 
1 0 0 1 0 
1 0 0 1 0 
1 0 0 1 0 
1 0 15 1 0 
1 0 -20 1 0 
1 0 15 1 0 
1 0 0 1 0 
1 0 0 1 0 
1 0 -20 1 0 
1 0 0 1 0 
1 0 -20 1 0 
1 0 30 1 0 
1 0 -20 1 0 
1 0 0 1 0 
1 0 0 1 0 
1 0 30 1 0 
1 0 0 1 0 
1 0 0 1 0 
1 0 0 1 0 
1 0 30 1 0 
1 0 -20 1 0 
1 0 30 1 0 
1 0 0 1 0 
1 0 0 1 0 
1 0 -20 1 0 
1 0 0 1 0 
1 0 0 1 0 
1 0 30 1 0 
1 0 -20 1 0 
1 0 30 1 0 
1 0 0 1 0 
1 0 0 1 0 
1 0 -20 1 0 
1 0 0 1 0 
1 0 0 1 0 
1 0 30 1 0 
1 0 0 1 0 
1 0 0 1 0 
1 0 -20 1 0 
1 0 30 1 0 
1 0 -20 1 0 
1 0 0 1 0 
1 0 0 1 0 
1 0 30 1 0 
1 0 0 1 0 
1 0 0 1 0 
1 0 -20 1 0 
1 0 30 1 0 
1 0 -20 1 0 
1 0 0 1 0 
1 0 0 1 0 
1 0 30 1 0 
1 0 -20 1 0 
1 0 30 1 0 
1 0 0 1 0 
1 0 0 1 0 
1 0 -20 1 0 
1 0 0 1 0 
1 0 0 1 0 
1 0 30 1 0 
1 0 -20 1 0 
1 0 30 1 0 
1 0 0 1 0 
1 0 0 1 0 
1 0 -20 1 0 
1 0 0 1 0 
1 0 0 1 0 
1 0 20 1 0 
1 0 0 1 0 
1 0 0 1 0 
1 0 -35 1 0 
1 0 20 1 0 
1 0 -35 1 0 
1 0 0 1 0 
1 0 0 1 0 
1 0 30 1 0 
1 0 -20 1 0 
1 0 30 1 0 
1 0 0 1 0 
1 0 0 1 0 
1 0 -20 1 0 
1 0 0 1 0 
1 0 0 1 0 
1 0 30 1 0 
1 0 -20 1 0 
1 0 30 1 0 
1 0 0 1 0 
1 0 0 1 0 
1 0 -20 1 0 
1 0 0 1 0 
1 0 -20 1 0 
1 0 30 1 0 
1 0 -20 1 0 
1 0 0 1 0 
1 0 0 1 0 
1 0 30 1 0 
1 0 0 1 0 
1 0 0 1 0 
Curves 250
1 0 0 0 0 0 1 
1 0 0 3 -0 1 0 
1 0 50 0 0 0 1 
1 0 0 0 -0 1 0 
1 0 0 0 1 0 -0 
1 60 0 -0.5 -0 0 -1 
1 0 0 3 1 0 -0 
1 0 50 3 1 0 -0 
1 800 0 3 0 1 0 
1 80 -0.5 3 -0 1 0 
1 60 -0.5 3 -0 1 0 
1 30 39 3 -1 -0 0 
1 285 10 3 -0 1 0 
1 135 20 3 -1 -0 0 
1 135 40 3 -1 -0 0 
1 270 10 3 -0 1 0 
1 120 20 3 -1 -0 0 
1 255 10 3 -0 1 0 
1 240 10 3 -0 1 0 
1 120 40 3 -1 -0 0 
1 85 40 3 -1 -0 0 
1 190 10 3 -0 1 0 
1 170 10 3 -0 1 0 
1 85 20 3 -1 -0 0 
1 225 10 3 -0 1 0 
1 105 20 3 -1 -0 0 
1 105 40 3 -1 -0 0 
1 210 10 3 -0 1 0 
1 30 10 3 -0 1 0 
1 5 20 3 -1 -0 0 
1 5 40 3 -1 -0 0 
1 10 10 3 -0 1 0 
1 110 10 3 -0 1 0 
1 45 20 3 -1 -0 0 
1 45 40 3 -1 -0 0 
1 90 10 3 -0 1 0 
1 65 40 3 -1 -0 0 
1 150 10 3 -0 1 0 
1 130 10 3 -0 1 0 
1 65 20 3 -1 -0 0 
1 315 10 3 -0 1 0 
1 150 20 3 -1 -0 0 
1 150 40 3 -1 -0 0 
1 300 10 3 -0 1 0 
1 290 40 3 -1 -0 0 
1 610 10 3 -0 1 0 
1 580 10 3 -0 1 0 
1 290 20 3 -1 -0 0 
1 570 10 3 -0 1 0 
1 270 20 3 -1 -0 0 
1 270 40 3 -1 -0 0 
1 540 10 3 -0 1 0 
1 530 10 3 -0 1 0 
1 250 20 3 -1 -0 0 
1 250 40 3 -1 -0 0 
1 500 10 3 -0 1 0 
1 230 20 3 -1 -0 0 
1 490 10 3 -0 1 0 
1 460 10 3 -0 1 0 
1 230 40 3 -1 -0 0 
1 170 20 3 -1 -0 0 
1 370 10 3 -0 1 0 
1 340 10 3 -0 1 0 
1 170 40 3 -1 -0 0 
1 410 10 3 -0 1 0 
1 190 20 3 -1 -0 0 
1 190 40 3 -1 -0 0 
1 380 10 3 -0 1 0 
1 450 10 3 -0 1 0 
1 210 20 3 -1 -0 0 
1 210 40 3 -1 -0 0 
1 420 10 3 -0 1 0 
1 375 2.5 3 -1 -0 0 
1 770 1.25 3 -0 1 0 
1 375 37.5 3 -1 -0 0 
1 750 1.25 3 -0 1 0 
1 690 10 3 -0 1 0 
1 330 20 3 -1 -0 0 
1 330 40 3 -1 -0 0 
1 660 10 3 -0 1 0 
1 730 10 3 -0 1 0 
1 350 20 3 -1 -0 0 
1 350 40 3 -1 -0 0 
1 700 10 3 -0 1 0 
1 310 40 3 -1 -0 0 
1 650 10 3 -0 1 0 
1 620 10 3 -0 1 0 
1 310 20 3 -1 -0 0 
1 0 50 0 1 0 -0 
1 800 50 0 0 0 1 
1 800 0 0 -0 1 0 
1 80 -0.5 0 -0 1 0 
1 60 -0.5 0 -0 1 0 
1 30 39 0 -1 -0 0 
1 285 10 0 -0 1 0 
1 135 20 0 -1 -0 0 
1 135 40 0 -1 -0 0 
1 270 10 0 -0 1 0 
1 120 20 0 -1 -0 0 
1 255 10 0 -0 1 0 
1 240 10 0 -0 1 0 
1 120 40 0 -1 -0 0 
1 85 40 0 -1 -0 0 
1 190 10 0 -0 1 0 
1 170 10 0 -0 1 0 
1 85 20 0 -1 -0 0 
1 225 10 0 -0 1 0 
1 105 20 0 -1 -0 0 
1 105 40 0 -1 -0 0 
1 210 10 0 -0 1 0 
1 30 10 0 -0 1 0 
1 5 20 0 -1 -0 0 
1 5 40 0 -1 -0 0 
1 10 10 0 -0 1 0 
1 110 10 0 -0 1 0 
1 45 20 0 -1 -0 0 
1 45 40 0 -1 -0 0 
1 90 10 0 -0 1 0 
1 65 40 0 -1 -0 0 
1 150 10 0 -0 1 0 
1 130 10 0 -0 1 0 
1 65 20 0 -1 -0 0 
1 315 10 0 -0 1 0 
1 150 20 0 -1 -0 0 
1 150 40 0 -1 -0 0 
1 300 10 0 -0 1 0 
1 290 40 0 -1 -0 0 
1 610 10 0 -0 1 0 
1 580 10 0 -0 1 0 
1 290 20 0 -1 -0 0 
1 570 10 0 -0 1 0 
1 270 20 0 -1 -0 0 
1 270 40 0 -1 -0 0 
1 540 10 0 -0 1 0 
1 530 10 0 -0 1 0 
1 250 20 0 -1 -0 0 
1 250 40 0 -1 -0 0 
1 500 10 0 -0 1 0 
1 230 20 0 -1 -0 0 
1 490 10 0 -0 1 0 
1 460 10 0 -0 1 0 
1 230 40 0 -1 -0 0 
1 170 20 0 -1 -0 0 
1 370 10 0 -0 1 0 
1 340 10 0 -0 1 0 
1 170 40 0 -1 -0 0 
1 410 10 0 -0 1 0 
1 190 20 0 -1 -0 0 
1 190 40 0 -1 -0 0 
1 380 10 0 -0 1 0 
1 450 10 0 -0 1 0 
1 210 20 0 -1 -0 0 
1 210 40 0 -1 -0 0 
1 420 10 0 -0 1 0 
1 375 2.5 0 -1 -0 0 
1 770 1.25 0 -0 1 0 
1 375 37.5 0 -1 -0 0 
1 750 1.25 0 -0 1 0 
1 690 10 0 -0 1 0 
1 330 20 0 -1 -0 0 
1 330 40 0 -1 -0 0 
1 660 10 0 -0 1 0 
1 730 10 0 -0 1 0 
1 350 20 0 -1 -0 0 
1 350 40 0 -1 -0 0 
1 700 10 0 -0 1 0 
1 310 40 0 -1 -0 0 
1 650 10 0 -0 1 0 
1 620 10 0 -0 1 0 
1 310 20 0 -1 -0 0 
1 60 39 -1 0 0 1 
1 800 0 0 0 0 1 
1 80 0 -0.5 -0 0 -1 
1 80 39 -1 0 0 1 
1 285 20 -1 0 0 1 
1 285 40 -1 0 0 1 
1 270 20 -1 0 0 1 
1 270 40 -1 0 0 1 
1 255 20 -1 0 0 1 
1 240 20 -1 0 0 1 
1 255 40 -1 0 0 1 
1 240 40 -1 0 0 1 
1 190 40 -1 0 0 1 
1 170 40 -1 0 0 1 
1 190 20 -1 0 0 1 
1 170 20 -1 0 0 1 
1 225 20 -1 0 0 1 
1 225 40 -1 0 0 1 
1 210 20 -1 0 0 1 
1 210 40 -1 0 0 1 
1 30 20 -1 0 0 1 
1 30 40 -1 0 0 1 
1 10 20 -1 0 0 1 
1 10 40 -1 0 0 1 
1 110 20 -1 0 0 1 
1 110 40 -1 0 0 1 
1 90 20 -1 0 0 1 
1 90 40 -1 0 0 1 
1 150 40 -1 0 0 1 
1 130 40 -1 0 0 1 
1 150 20 -1 0 0 1 
1 130 20 -1 0 0 1 
1 315 20 -1 0 0 1 
1 315 40 -1 0 0 1 
1 300 20 -1 0 0 1 
1 300 40 -1 0 0 1 
1 610 40 -1 0 0 1 
1 580 40 -1 0 0 1 
1 610 20 -1 0 0 1 
1 580 20 -1 0 0 1 
1 570 20 -1 0 0 1 
1 570 40 -1 0 0 1 
1 540 20 -1 0 0 1 
1 540 40 -1 0 0 1 
1 530 20 -1 0 0 1 
1 530 40 -1 0 0 1 
1 500 20 -1 0 0 1 
1 500 40 -1 0 0 1 
1 490 20 -1 0 0 1 
1 460 20 -1 0 0 1 
1 490 40 -1 0 0 1 
1 460 40 -1 0 0 1 
1 370 20 -1 0 0 1 
1 340 20 -1 0 0 1 
1 370 40 -1 0 0 1 
1 340 40 -1 0 0 1 
1 410 20 -1 0 0 1 
1 410 40 -1 0 0 1 
1 380 20 -1 0 0 1 
1 380 40 -1 0 0 1 
1 450 20 -1 0 0 1 
1 450 40 -1 0 0 1 
1 420 20 -1 0 0 1 
1 420 40 -1 0 0 1 
1 770 2.5 -1 0 0 1 
1 750 2.5 -1 0 0 1 
1 770 37.5 -1 0 0 1 
1 750 37.5 -1 0 0 1 
1 690 20 -1 0 0 1 
1 690 40 -1 0 0 1 
1 660 20 -1 0 0 1 
1 660 40 -1 0 0 1 
1 730 20 -1 0 0 1 
1 730 40 -1 0 0 1 
1 700 20 -1 0 0 1 
1 700 40 -1 0 0 1 
1 650 40 -1 0 0 1 
1 620 40 -1 0 0 1 
1 650 20 -1 0 0 1 
1 620 20 -1 0 0 1 
Polygon3D 0
PolygonOnTriangulations 0
Surfaces 85
1 0 0 0 1 0 -0 0 0 1 0 -1 0 
1 0 0 0 -0 1 0 0 0 1 1 0 -0 
1 0 0 3 0 0 1 1 0 -0 -0 1 0 
1 0 50 0 -0 1 0 0 0 1 1 0 -0 
1 0 0 0 0 0 1 1 0 -0 -0 1 0 
1 60 -1 -1 1 0 -0 0 0 1 0 -1 0 
1 800 0 0 1 0 -0 0 0 1 0 -1 0 
1 80 -1 -1 1 0 -0 0 0 1 0 -1 0 
1 60 39 -1 -0 1 0 0 0 1 1 0 -0 
1 285 20 -1 1 0 -0 0 0 1 0 -1 0 
1 270 20 -1 -0 1 0 0 0 1 1 0 -0 
1 270 40 -1 -0 1 0 0 0 1 1 0 -0 
1 270 20 -1 1 0 -0 0 0 1 0 -1 0 
1 240 20 -1 -0 1 0 0 0 1 1 0 -0 
1 255 20 -1 1 0 -0 0 0 1 0 -1 0 
1 240 20 -1 1 0 -0 0 0 1 0 -1 0 
1 240 40 -1 -0 1 0 0 0 1 1 0 -0 
1 170 40 -1 -0 1 0 0 0 1 1 0 -0 
1 190 20 -1 1 0 -0 0 0 1 0 -1 0 
1 170 20 -1 1 0 -0 0 0 1 0 -1 0 
1 170 20 -1 -0 1 0 0 0 1 1 0 -0 
1 225 20 -1 1 0 -0 0 0 1 0 -1 0 
1 210 20 -1 -0 1 0 0 0 1 1 0 -0 
1 210 40 -1 -0 1 0 0 0 1 1 0 -0 
1 210 20 -1 1 0 -0 0 0 1 0 -1 0 
1 30 20 -1 1 0 -0 0 0 1 0 -1 0 
1 10 20 -1 -0 1 0 0 0 1 1 0 -0 
1 10 40 -1 -0 1 0 0 0 1 1 0 -0 
1 10 20 -1 1 0 -0 0 0 1 0 -1 0 
1 110 20 -1 1 0 -0 0 0 1 0 -1 0 
1 90 20 -1 -0 1 0 0 0 1 1 0 -0 
1 90 40 -1 -0 1 0 0 0 1 1 0 -0 
1 90 20 -1 1 0 -0 0 0 1 0 -1 0 
1 130 40 -1 -0 1 0 0 0 1 1 0 -0 
1 150 20 -1 1 0 -0 0 0 1 0 -1 0 
1 130 20 -1 1 0 -0 0 0 1 0 -1 0 
1 130 20 -1 -0 1 0 0 0 1 1 0 -0 
1 315 20 -1 1 0 -0 0 0 1 0 -1 0 
1 300 20 -1 -0 1 0 0 0 1 1 0 -0 
1 300 40 -1 -0 1 0 0 0 1 1 0 -0 
1 300 20 -1 1 0 -0 0 0 1 0 -1 0 
1 580 40 -1 -0 1 0 0 0 1 1 0 -0 
1 610 20 -1 1 0 -0 0 0 1 0 -1 0 
1 580 20 -1 1 0 -0 0 0 1 0 -1 0 
1 580 20 -1 -0 1 0 0 0 1 1 0 -0 
1 570 20 -1 1 0 -0 0 0 1 0 -1 0 
1 540 20 -1 -0 1 0 0 0 1 1 0 -0 
1 540 40 -1 -0 1 0 0 0 1 1 0 -0 
1 540 20 -1 1 0 -0 0 0 1 0 -1 0 
1 530 20 -1 1 0 -0 0 0 1 0 -1 0 
1 500 20 -1 -0 1 0 0 0 1 1 0 -0 
1 500 40 -1 -0 1 0 0 0 1 1 0 -0 
1 500 20 -1 1 0 -0 0 0 1 0 -1 0 
1 460 20 -1 -0 1 0 0 0 1 1 0 -0 
1 490 20 -1 1 0 -0 0 0 1 0 -1 0 
1 460 20 -1 1 0 -0 0 0 1 0 -1 0 
1 460 40 -1 -0 1 0 0 0 1 1 0 -0 
1 340 20 -1 -0 1 0 0 0 1 1 0 -0 
1 370 20 -1 1 0 -0 0 0 1 0 -1 0 
1 340 20 -1 1 0 -0 0 0 1 0 -1 0 
1 340 40 -1 -0 1 0 0 0 1 1 0 -0 
1 410 20 -1 1 0 -0 0 0 1 0 -1 0 
1 380 20 -1 -0 1 0 0 0 1 1 0 -0 
1 380 40 -1 -0 1 0 0 0 1 1 0 -0 
1 380 20 -1 1 0 -0 0 0 1 0 -1 0 
1 450 20 -1 1 0 -0 0 0 1 0 -1 0 
1 420 20 -1 -0 1 0 0 0 1 1 0 -0 
1 420 40 -1 -0 1 0 0 0 1 1 0 -0 
1 420 20 -1 1 0 -0 0 0 1 0 -1 0 
1 750 2.5 -1 -0 1 0 0 0 1 1 0 -0 
1 770 2.5 -1 1 0 -0 0 0 1 0 -1 0 
1 750 37.5 -1 -0 1 0 0 0 1 1 0 -0 
1 750 2.5 -1 1 0 -0 0 0 1 0 -1 0 
1 690 20 -1 1 0 -0 0 0 1 0 -1 0 
1 660 20 -1 -0 1 0 0 0 1 1 0 -0 
1 660 40 -1 -0 1 0 0 0 1 1 0 -0 
1 660 20 -1 1 0 -0 0 0 1 0 -1 0 
1 730 20 -1 1 0 -0 0 0 1 0 -1 0 
1 700 20 -1 -0 1 0 0 0 1 1 0 -0 
1 700 40 -1 -0 1 0 0 0 1 1 0 -0 
1 700 20 -1 1 0 -0 0 0 1 0 -1 0 
1 620 40 -1 -0 1 0 0 0 1 1 0 -0 
1 650 20 -1 1 0 -0 0 0 1 0 -1 0 
1 620 20 -1 1 0 -0 0 0 1 0 -1 0 
1 620 20 -1 -0 1 0 0 0 1 1 0 -0 
Triangulations 0

TShapes 633
Ve
1e-007
0 0 3
0 0

0101101
*
Ve
1e-007
0 0 0
0 0

0101101
*
Ed
 1e-007 1 1 0
1  1 0 0 3
2  1 1 0 0 3
2  2 2 0 0 3
0

0101000
-633 0 +632 0 *
Ve
1e-007
0 50 3
0 0

0101101
*
Ed
 1e-007 1 1 0
1  2 0 0 50
2  3 1 0 0 50
2  4 3 0 0 50
0

0101000
-630 0 +633 0 *
Ve
1e-007
0 50 0
0 0

0101101
*
Ed
 1e-007 1 1 0
1  3 0 0 3
2  5 1 0 0 3
2  6 4 0 0 3
0

0101000
-630 0 +628 0 *
Ed
 1e-007 1 1 0
1  4 0 0 50
2  7 1 0 0 50
2  8 5 0 0 50
0

0101000
-628 0 +632 0 *
Wi

0101100
-631 0 -629 0 +627 0 +626 0 *
Fa
0  1e-007 1 0

0111000
+625 0 *
Ve
1e-007
60 0 0
0 0

0101101
*
Ed
 1e-007 1 1 0
1  5 0 0 60
2  9 2 0 0 60
2  10 5 0 0 60
0

0101000
+632 0 -623 0 *
Ve
1e-007
60 0 3
0 0

0101101
*
Ed
 1e-007 1 1 0
1  6 0 -3.5 -0.5
2  11 2 0 -3.5 -0.5
2  12 6 0 -3.5 -0.5
0

0101000
+621 0 -623 0 *
Ed
 1e-007 1 1 0
1  7 0 0 60
2  13 2 0 0 60
2  14 3 0 0 60
0

0101000
+633 0 -621 0 *
Wi

0101100
-622 0 +620 0 +619 0 +631 0 *
Fa
0  1e-007 2 0

0111000
+618 0 *
Ve
1e-007
800 50 3
0 0

0101101
*
Ed
 1e-007 1 1 0
1  8 0 0 800
2  15 4 0 0 800
2  16 3 0 0 800
0

0101000
-616 0 +630 0 *
Ve
1e-007
800 0 3
0 0

0101101
*
Ed
 1e-007 1 1 0
1  9 0 0 50
2  17 7 0 0 50
2  18 3 0 0 50
0

0101000
-616 0 +614 0 *
Ve
1e-007
80 0 3
0 0

0101101
*
Ed
 1e-007 1 1 0
1  7 0 80 800
2  13 2 0 80 800
2  14 3 0 80 800
0

0101000
+612 0 -614 0 *
Ve
1e-007
80 39 3
0 0

0101101
*
Ed
 1e-007 1 1 0
1  10 0 0.5 39.5
2  19 3 0 0.5 39.5
2  20 8 0 0.5 39.5
0

0101000
+612 0 -610 0 *
Ve
1e-007
60 39 3
0 0

0101101
*
Ed
 1e-007 1 1 0
1  11 0 0.5 39.5
2  21 3 0 0.5 39.5
2  22 6 0 0.5 39.5
0

0101000
+621 0 -608 0 *
Ed
 1e-007 1 1 0
1  12 0 -50 -30
2  23 3 0 -50 -30
2  24 9 0 -50 -30
0

0101000
+610 0 -608 0 *
Wi

0101100
-615 0 +613 0 -629 0 +611 0 +619 0 -609 0 +607 0 -606 0 *
Ve
1e-007
285 20 3
0 0

0101101
*
Ve
1e-007
285 40 3
0 0

0101101
*
Ed
 1e-007 1 1 0
1  13 0 10 30
2  25 3 0 10 30
2  26 10 0 10 30
0

0101000
+604 0 -603 0 *
Ve
1e-007
270 20 3
0 0

0101101
*
Ed
 1e-007 1 1 0
1  14 0 -150 -135
2  27 3 0 -150 -135
2  28 11 0 -150 -135
0

0101000
+604 0 -601 0 *
Ve
1e-007
270 40 3
0 0

0101101
*
Ed
 1e-007 1 1 0
1  15 0 -150 -135
2  29 3 0 -150 -135
2  30 12 0 -150 -135
0

0101000
+603 0 -599 0 *
Ed
 1e-007 1 1 0
1  16 0 10 30
2  31 3 0 10 30
2  32 13 0 10 30
0

0101000
+601 0 -599 0 *
Wi

0101100
-602 0 +600 0 -598 0 +597 0 *
Ve
1e-007
255 20 3
0 0

0101101
*
Ve
1e-007
240 20 3
0 0

0101101
*
Ed
 1e-007 1 1 0
1  17 0 -135 -120
2  33 3 0 -135 -120
2  34 14 0 -135 -120
0

0101000
+595 0 -594 0 *
Ve
1e-007
255 40 3
0 0

0101101
*
Ed
 1e-007 1 1 0
1  18 0 10 30
2  35 3 0 10 30
2  36 15 0 10 30
0

0101000
+595 0 -592 0 *
Ve
1e-007
240 40 3
0 0

0101101
*
Ed
 1e-007 1 1 0
1  19 0 10 30
2  37 3 0 10 30
2  38 16 0 10 30
0

0101000
+594 0 -590 0 *
Ed
 1e-007 1 1 0
1  20 0 -135 -120
2  39 3 0 -135 -120
2  40 17 0 -135 -120
0

0101000
+592 0 -590 0 *
Wi

0101100
+593 0 -591 0 +589 0 -588 0 *
Ve
1e-007
190 40 3
0 0

0101101
*
Ve
1e-007
170 40 3
0 0

0101101
*
Ed
 1e-007 1 1 0
1  21 0 -105 -85
2  41 3 0 -105 -85
2  42 18 0 -105 -85
0

0101000
+586 0 -585 0 *
Ve
1e-007
190 20 3
0 0

0101101
*
Ed
 1e-007 1 1 0
1  22 0 10 30
2  43 3 0 10 30
2  44 19 0 10 30
0

0101000
+583 0 -586 0 *
Ve
1e-007
170 20 3
0 0

0101101
*
Ed
 1e-007 1 1 0
1  23 0 10 30
2  45 3 0 10 30
2  46 20 0 10 30
0

0101000
+581 0 -585 0 *
Ed
 1e-007 1 1 0
1  24 0 -105 -85
2  47 3 0 -105 -85
2  48 21 0 -105 -85
0

0101000
+583 0 -581 0 *
Wi

0101100
-584 0 -582 0 +580 0 +579 0 *
Ve
1e-007
225 20 3
0 0

0101101
*
Ve
1e-007
225 40 3
0 0

0101101
*
Ed
 1e-007 1 1 0
1  25 0 10 30
2  49 3 0 10 30
2  50 22 0 10 30
0

0101000
+577 0 -576 0 *
Ve
1e-007
210 20 3
0 0

0101101
*
Ed
 1e-007 1 1 0
1  26 0 -120 -105
2  51 3 0 -120 -105
2  52 23 0 -120 -105
0

0101000
+577 0 -574 0 *
Ve
1e-007
210 40 3
0 0

0101101
*
Ed
 1e-007 1 1 0
1  27 0 -120 -105
2  53 3 0 -120 -105
2  54 24 0 -120 -105
0

0101000
+576 0 -572 0 *
Ed
 1e-007 1 1 0
1  28 0 10 30
2  55 3 0 10 30
2  56 25 0 10 30
0

0101000
+574 0 -572 0 *
Wi

0101100
-575 0 +573 0 -571 0 +570 0 *
Ve
1e-007
30 20 3
0 0

0101101
*
Ve
1e-007
30 40 3
0 0

0101101
*
Ed
 1e-007 1 1 0
1  29 0 10 30
2  57 3 0 10 30
2  58 26 0 10 30
0

0101000
+568 0 -567 0 *
Ve
1e-007
10 20 3
0 0

0101101
*
Ed
 1e-007 1 1 0
1  30 0 -25 -5
2  59 3 0 -25 -5
2  60 27 0 -25 -5
0

0101000
+568 0 -565 0 *
Ve
1e-007
10 40 3
0 0

0101101
*
Ed
 1e-007 1 1 0
1  31 0 -25 -5
2  61 3 0 -25 -5
2  62 28 0 -25 -5
0

0101000
+567 0 -563 0 *
Ed
 1e-007 1 1 0
1  32 0 10 30
2  63 3 0 10 30
2  64 29 0 10 30
0

0101000
+565 0 -563 0 *
Wi

0101100
-566 0 +564 0 -562 0 +561 0 *
Ve
1e-007
110 20 3
0 0

0101101
*
Ve
1e-007
110 40 3
0 0

0101101
*
Ed
 1e-007 1 1 0
1  33 0 10 30
2  65 3 0 10 30
2  66 30 0 10 30
0

0101000
+559 0 -558 0 *
Ve
1e-007
90 20 3
0 0

0101101
*
Ed
 1e-007 1 1 0
1  34 0 -65 -45
2  67 3 0 -65 -45
2  68 31 0 -65 -45
0

0101000
+559 0 -556 0 *
Ve
1e-007
90 40 3
0 0

0101101
*
Ed
 1e-007 1 1 0
1  35 0 -65 -45
2  69 3 0 -65 -45
2  70 32 0 -65 -45
0

0101000
+558 0 -554 0 *
Ed
 1e-007 1 1 0
1  36 0 10 30
2  71 3 0 10 30
2  72 33 0 10 30
0

0101000
+556 0 -554 0 *
Wi

0101100
-557 0 +555 0 -553 0 +552 0 *
Ve
1e-007
150 40 3
0 0

0101101
*
Ve
1e-007
130 40 3
0 0

0101101
*
Ed
 1e-007 1 1 0
1  37 0 -85 -65
2  73 3 0 -85 -65
2  74 34 0 -85 -65
0

0101000
+550 0 -549 0 *
Ve
1e-007
150 20 3
0 0

0101101
*
Ed
 1e-007 1 1 0
1  38 0 10 30
2  75 3 0 10 30
2  76 35 0 10 30
0

0101000
+547 0 -550 0 *
Ve
1e-007
130 20 3
0 0

0101101
*
Ed
 1e-007 1 1 0
1  39 0 10 30
2  77 3 0 10 30
2  78 36 0 10 30
0

0101000
+545 0 -549 0 *
Ed
 1e-007 1 1 0
1  40 0 -85 -65
2  79 3 0 -85 -65
2  80 37 0 -85 -65
0

0101000
+547 0 -545 0 *
Wi

0101100
-548 0 -546 0 +544 0 +543 0 *
Ve
1e-007
315 20 3
0 0

0101101
*
Ve
1e-007
315 40 3
0 0

0101101
*
Ed
 1e-007 1 1 0
1  41 0 10 30
2  81 3 0 10 30
2  82 38 0 10 30
0

0101000
+541 0 -540 0 *
Ve
1e-007
300 20 3
0 0

0101101
*
Ed
 1e-007 1 1 0
1  42 0 -165 -150
2  83 3 0 -165 -150
2  84 39 0 -165 -150
0

0101000
+541 0 -538 0 *
Ve
1e-007
300 40 3
0 0

0101101
*
Ed
 1e-007 1 1 0
1  43 0 -165 -150
2  85 3 0 -165 -150
2  86 40 0 -165 -150
0

0101000
+540 0 -536 0 *
Ed
 1e-007 1 1 0
1  44 0 10 30
2  87 3 0 10 30
2  88 41 0 10 30
0

0101000
+538 0 -536 0 *
Wi

0101100
-539 0 +537 0 -535 0 +534 0 *
Ve
1e-007
610 40 3
0 0

0101101
*
Ve
1e-007
580 40 3
0 0

0101101
*
Ed
 1e-007 1 1 0
1  45 0 -320 -290
2  89 3 0 -320 -290
2  90 42 0 -320 -290
0

0101000
+532 0 -531 0 *
Ve
1e-007
610 20 3
0 0

0101101
*
Ed
 1e-007 1 1 0
1  46 0 10 30
2  91 3 0 10 30
2  92 43 0 10 30
0

0101000
+529 0 -532 0 *
Ve
1e-007
580 20 3
0 0

0101101
*
Ed
 1e-007 1 1 0
1  47 0 10 30
2  93 3 0 10 30
2  94 44 0 10 30
0

0101000
+527 0 -531 0 *
Ed
 1e-007 1 1 0
1  48 0 -320 -290
2  95 3 0 -320 -290
2  96 45 0 -320 -290
0

0101000
+529 0 -527 0 *
Wi

0101100
-530 0 -528 0 +526 0 +525 0 *
Ve
1e-007
570 20 3
0 0

0101101
*
Ve
1e-007
570 40 3
0 0

0101101
*
Ed
 1e-007 1 1 0
1  49 0 10 30
2  97 3 0 10 30
2  98 46 0 10 30
0

0101000
+523 0 -522 0 *
Ve
1e-007
540 20 3
0 0

0101101
*
Ed
 1e-007 1 1 0
1  50 0 -300 -270
2  99 3 0 -300 -270
2  100 47 0 -300 -270
0

0101000
+523 0 -520 0 *
Ve
1e-007
540 40 3
0 0

0101101
*
Ed
 1e-007 1 1 0
1  51 0 -300 -270
2  101 3 0 -300 -270
2  102 48 0 -300 -270
0

0101000
+522 0 -518 0 *
Ed
 1e-007 1 1 0
1  52 0 10 30
2  103 3 0 10 30
2  104 49 0 10 30
0

0101000
+520 0 -518 0 *
Wi

0101100
-521 0 +519 0 -517 0 +516 0 *
Ve
1e-007
530 20 3
0 0

0101101
*
Ve
1e-007
530 40 3
0 0

0101101
*
Ed
 1e-007 1 1 0
1  53 0 10 30
2  105 3 0 10 30
2  106 50 0 10 30
0

0101000
+514 0 -513 0 *
Ve
1e-007
500 20 3
0 0

0101101
*
Ed
 1e-007 1 1 0
1  54 0 -280 -250
2  107 3 0 -280 -250
2  108 51 0 -280 -250
0

0101000
+514 0 -511 0 *
Ve
1e-007
500 40 3
0 0

0101101
*
Ed
 1e-007 1 1 0
1  55 0 -280 -250
2  109 3 0 -280 -250
2  110 52 0 -280 -250
0

0101000
+513 0 -509 0 *
Ed
 1e-007 1 1 0
1  56 0 10 30
2  111 3 0 10 30
2  112 53 0 10 30
0

0101000
+511 0 -509 0 *
Wi

0101100
-512 0 +510 0 -508 0 +507 0 *
Ve
1e-007
490 20 3
0 0

0101101
*
Ve
1e-007
460 20 3
0 0

0101101
*
Ed
 1e-007 1 1 0
1  57 0 -260 -230
2  113 3 0 -260 -230
2  114 54 0 -260 -230
0

0101000
+505 0 -504 0 *
Ve
1e-007
490 40 3
0 0

0101101
*
Ed
 1e-007 1 1 0
1  58 0 10 30
2  115 3 0 10 30
2  116 55 0 10 30
0

0101000
+505 0 -502 0 *
Ve
1e-007
460 40 3
0 0

0101101
*
Ed
 1e-007 1 1 0
1  59 0 10 30
2  117 3 0 10 30
2  118 56 0 10 30
0

0101000
+504 0 -500 0 *
Ed
 1e-007 1 1 0
1  60 0 -260 -230
2  119 3 0 -260 -230
2  120 57 0 -260 -230
0

0101000
+502 0 -500 0 *
Wi

0101100
+503 0 -501 0 +499 0 -498 0 *
Ve
1e-007
370 20 3
0 0

0101101
*
Ve
1e-007
340 20 3
0 0

0101101
*
Ed
 1e-007 1 1 0
1  61 0 -200 -170
2  121 3 0 -200 -170
2  122 58 0 -200 -170
0

0101000
+496 0 -495 0 *
Ve
1e-007
370 40 3
0 0

0101101
*
Ed
 1e-007 1 1 0
1  62 0 10 30
2  123 3 0 10 30
2  124 59 0 10 30
0

0101000
+496 0 -493 0 *
Ve
1e-007
340 40 3
0 0

0101101
*
Ed
 1e-007 1 1 0
1  63 0 10 30
2  125 3 0 10 30
2  126 60 0 10 30
0

0101000
+495 0 -491 0 *
Ed
 1e-007 1 1 0
1  64 0 -200 -170
2  127 3 0 -200 -170
2  128 61 0 -200 -170
0

0101000
+493 0 -491 0 *
Wi

0101100
+494 0 -492 0 +490 0 -489 0 *
Ve
1e-007
410 20 3
0 0

0101101
*
Ve
1e-007
410 40 3
0 0

0101101
*
Ed
 1e-007 1 1 0
1  65 0 10 30
2  129 3 0 10 30
2  130 62 0 10 30
0

0101000
+487 0 -486 0 *
Ve
1e-007
380 20 3
0 0

0101101
*
Ed
 1e-007 1 1 0
1  66 0 -220 -190
2  131 3 0 -220 -190
2  132 63 0 -220 -190
0

0101000
+487 0 -484 0 *
Ve
1e-007
380 40 3
0 0

0101101
*
Ed
 1e-007 1 1 0
1  67 0 -220 -190
2  133 3 0 -220 -190
2  134 64 0 -220 -190
0

0101000
+486 0 -482 0 *
Ed
 1e-007 1 1 0
1  68 0 10 30
2  135 3 0 10 30
2  136 65 0 10 30
0

0101000
+484 0 -482 0 *
Wi

0101100
-485 0 +483 0 -481 0 +480 0 *
Ve
1e-007
450 20 3
0 0

0101101
*
Ve
1e-007
450 40 3
0 0

0101101
*
Ed
 1e-007 1 1 0
1  69 0 10 30
2  137 3 0 10 30
2  138 66 0 10 30
0

0101000
+478 0 -477 0 *
Ve
1e-007
420 20 3
0 0

0101101
*
Ed
 1e-007 1 1 0
1  70 0 -240 -210
2  139 3 0 -240 -210
2  140 67 0 -240 -210
0

0101000
+478 0 -475 0 *
Ve
1e-007
420 40 3
0 0

0101101
*
Ed
 1e-007 1 1 0
1  71 0 -240 -210
2  141 3 0 -240 -210
2  142 68 0 -240 -210
0

0101000
+477 0 -473 0 *
Ed
 1e-007 1 1 0
1  72 0 10 30
2  143 3 0 10 30
2  144 69 0 10 30
0

0101000
+475 0 -473 0 *
Wi

0101100
-476 0 +474 0 -472 0 +471 0 *
Ve
1e-007
770 2.5 3
0 0

0101101
*
Ve
1e-007
750 2.5 3
0 0

0101101
*
Ed
 1e-007 1 1 0
1  73 0 -395 -375
2  145 3 0 -395 -375
2  146 70 0 -395 -375
0

0101000
+469 0 -468 0 *
Ve
1e-007
770 37.5 3
0 0

0101101
*
Ed
 1e-007 1 1 0
1  74 0 1.25 36.25
2  147 3 0 1.25 36.25
2  148 71 0 1.25 36.25
0

0101000
+469 0 -466 0 *
Ve
1e-007
750 37.5 3
0 0

0101101
*
Ed
 1e-007 1 1 0
1  75 0 -395 -375
2  149 3 0 -395 -375
2  150 72 0 -395 -375
0

0101000
+466 0 -464 0 *
Ed
 1e-007 1 1 0
1  76 0 1.25 36.25
2  151 3 0 1.25 36.25
2  152 73 0 1.25 36.25
0

0101000
+468 0 -464 0 *
Wi

0101100
+467 0 -465 0 -463 0 +462 0 *
Ve
1e-007
690 20 3
0 0

0101101
*
Ve
1e-007
690 40 3
0 0

0101101
*
Ed
 1e-007 1 1 0
1  77 0 10 30
2  153 3 0 10 30
2  154 74 0 10 30
0

0101000
+460 0 -459 0 *
Ve
1e-007
660 20 3
0 0

0101101
*
Ed
 1e-007 1 1 0
1  78 0 -360 -330
2  155 3 0 -360 -330
2  156 75 0 -360 -330
0

0101000
+460 0 -457 0 *
Ve
1e-007
660 40 3
0 0

0101101
*
Ed
 1e-007 1 1 0
1  79 0 -360 -330
2  157 3 0 -360 -330
2  158 76 0 -360 -330
0

0101000
+459 0 -455 0 *
Ed
 1e-007 1 1 0
1  80 0 10 30
2  159 3 0 10 30
2  160 77 0 10 30
0

0101000
+457 0 -455 0 *
Wi

0101100
-458 0 +456 0 -454 0 +453 0 *
Ve
1e-007
730 20 3
0 0

0101101
*
Ve
1e-007
730 40 3
0 0

0101101
*
Ed
 1e-007 1 1 0
1  81 0 10 30
2  161 3 0 10 30
2  162 78 0 10 30
0

0101000
+451 0 -450 0 *
Ve
1e-007
700 20 3
0 0

0101101
*
Ed
 1e-007 1 1 0
1  82 0 -380 -350
2  163 3 0 -380 -350
2  164 79 0 -380 -350
0

0101000
+451 0 -448 0 *
Ve
1e-007
700 40 3
0 0

0101101
*
Ed
 1e-007 1 1 0
1  83 0 -380 -350
2  165 3 0 -380 -350
2  166 80 0 -380 -350
0

0101000
+450 0 -446 0 *
Ed
 1e-007 1 1 0
1  84 0 10 30
2  167 3 0 10 30
2  168 81 0 10 30
0

0101000
+448 0 -446 0 *
Wi

0101100
-449 0 +447 0 -445 0 +444 0 *
Ve
1e-007
650 40 3
0 0

0101101
*
Ve
1e-007
620 40 3
0 0

0101101
*
Ed
 1e-007 1 1 0
1  85 0 -340 -310
2  169 3 0 -340 -310
2  170 82 0 -340 -310
0

0101000
+442 0 -441 0 *
Ve
1e-007
650 20 3
0 0

0101101
*
Ed
 1e-007 1 1 0
1  86 0 10 30
2  171 3 0 10 30
2  172 83 0 10 30
0

0101000
+439 0 -442 0 *
Ve
1e-007
620 20 3
0 0

0101101
*
Ed
 1e-007 1 1 0
1  87 0 10 30
2  173 3 0 10 30
2  174 84 0 10 30
0

0101000
+437 0 -441 0 *
Ed
 1e-007 1 1 0
1  88 0 -340 -310
2  175 3 0 -340 -310
2  176 85 0 -340 -310
0

0101000
+439 0 -437 0 *
Wi

0101100
-440 0 -438 0 +436 0 +435 0 *
Fa
0  1e-007 3 0

0111000
+605 0 +596 0 +587 0 +578 0 +569 0 +560 0 +551 0 +542 0 +533 0 +524 0 
+515 0 +506 0 +497 0 +488 0 +479 0 +470 0 +461 0 +452 0 +443 0 +434 0 
*
Ve
1e-007
800 50 0
0 0

0101101
*
Ed
 1e-007 1 1 0
1  89 0 0 800
2  177 4 0 0 800
2  178 5 0 0 800
0

0101000
-432 0 +628 0 *
Ed
 1e-007 1 1 0
1  90 0 0 3
2  179 7 0 0 3
2  180 4 0 0 3
0

0101000
-616 0 +432 0 *
Wi

0101100
-431 0 -430 0 +615 0 +627 0 *
Fa
0  1e-007 4 0

0111000
+429 0 *
Ve
1e-007
800 0 0
0 0

0101101
*
Ed
 1e-007 1 1 0
1  91 0 0 50
2  181 7 0 0 50
2  182 5 0 0 50
0

0101000
-432 0 +427 0 *
Ve
1e-007
80 0 0
0 0

0101101
*
Ed
 1e-007 1 1 0
1  5 0 80 800
2  9 2 0 80 800
2  10 5 0 80 800
0

0101000
+425 0 -427 0 *
Ve
1e-007
80 39 0
0 0

0101101
*
Ed
 1e-007 1 1 0
1  92 0 0.5 39.5
2  183 5 0 0.5 39.5
2  184 8 0 0.5 39.5
0

0101000
+425 0 -423 0 *
Ve
1e-007
60 39 0
0 0

0101101
*
Ed
 1e-007 1 1 0
1  93 0 0.5 39.5
2  185 5 0 0.5 39.5
2  186 6 0 0.5 39.5
0

0101000
+623 0 -421 0 *
Ed
 1e-007 1 1 0
1  94 0 -50 -30
2  187 5 0 -50 -30
2  188 9 0 -50 -30
0

0101000
+423 0 -421 0 *
Wi

0101100
-431 0 +426 0 -626 0 +424 0 +622 0 -422 0 +420 0 -419 0 *
Ve
1e-007
285 20 0
0 0

0101101
*
Ve
1e-007
285 40 0
0 0

0101101
*
Ed
 1e-007 1 1 0
1  95 0 10 30
2  189 5 0 10 30
2  190 10 0 10 30
0

0101000
+417 0 -416 0 *
Ve
1e-007
270 20 0
0 0

0101101
*
Ed
 1e-007 1 1 0
1  96 0 -150 -135
2  191 5 0 -150 -135
2  192 11 0 -150 -135
0

0101000
+417 0 -414 0 *
Ve
1e-007
270 40 0
0 0

0101101
*
Ed
 1e-007 1 1 0
1  97 0 -150 -135
2  193 5 0 -150 -135
2  194 12 0 -150 -135
0

0101000
+416 0 -412 0 *
Ed
 1e-007 1 1 0
1  98 0 10 30
2  195 5 0 10 30
2  196 13 0 10 30
0

0101000
+414 0 -412 0 *
Wi

0101100
-415 0 +413 0 -411 0 +410 0 *
Ve
1e-007
255 20 0
0 0

0101101
*
Ve
1e-007
240 20 0
0 0

0101101
*
Ed
 1e-007 1 1 0
1  99 0 -135 -120
2  197 5 0 -135 -120
2  198 14 0 -135 -120
0

0101000
+408 0 -407 0 *
Ve
1e-007
255 40 0
0 0

0101101
*
Ed
 1e-007 1 1 0
1  100 0 10 30
2  199 5 0 10 30
2  200 15 0 10 30
0

0101000
+408 0 -405 0 *
Ve
1e-007
240 40 0
0 0

0101101
*
Ed
 1e-007 1 1 0
1  101 0 10 30
2  201 5 0 10 30
2  202 16 0 10 30
0

0101000
+407 0 -403 0 *
Ed
 1e-007 1 1 0
1  102 0 -135 -120
2  203 5 0 -135 -120
2  204 17 0 -135 -120
0

0101000
+405 0 -403 0 *
Wi

0101100
+406 0 -404 0 +402 0 -401 0 *
Ve
1e-007
190 40 0
0 0

0101101
*
Ve
1e-007
170 40 0
0 0

0101101
*
Ed
 1e-007 1 1 0
1  103 0 -105 -85
2  205 5 0 -105 -85
2  206 18 0 -105 -85
0

0101000
+399 0 -398 0 *
Ve
1e-007
190 20 0
0 0

0101101
*
Ed
 1e-007 1 1 0
1  104 0 10 30
2  207 5 0 10 30
2  208 19 0 10 30
0

0101000
+396 0 -399 0 *
Ve
1e-007
170 20 0
0 0

0101101
*
Ed
 1e-007 1 1 0
1  105 0 10 30
2  209 5 0 10 30
2  210 20 0 10 30
0

0101000
+394 0 -398 0 *
Ed
 1e-007 1 1 0
1  106 0 -105 -85
2  211 5 0 -105 -85
2  212 21 0 -105 -85
0

0101000
+396 0 -394 0 *
Wi

0101100
-397 0 -395 0 +393 0 +392 0 *
Ve
1e-007
225 20 0
0 0

0101101
*
Ve
1e-007
225 40 0
0 0

0101101
*
Ed
 1e-007 1 1 0
1  107 0 10 30
2  213 5 0 10 30
2  214 22 0 10 30
0

0101000
+390 0 -389 0 *
Ve
1e-007
210 20 0
0 0

0101101
*
Ed
 1e-007 1 1 0
1  108 0 -120 -105
2  215 5 0 -120 -105
2  216 23 0 -120 -105
0

0101000
+390 0 -387 0 *
Ve
1e-007
210 40 0
0 0

0101101
*
Ed
 1e-007 1 1 0
1  109 0 -120 -105
2  217 5 0 -120 -105
2  218 24 0 -120 -105
0

0101000
+389 0 -385 0 *
Ed
 1e-007 1 1 0
1  110 0 10 30
2  219 5 0 10 30
2  220 25 0 10 30
0

0101000
+387 0 -385 0 *
Wi

0101100
-388 0 +386 0 -384 0 +383 0 *
Ve
1e-007
30 20 0
0 0

0101101
*
Ve
1e-007
30 40 0
0 0

0101101
*
Ed
 1e-007 1 1 0
1  111 0 10 30
2  221 5 0 10 30
2  222 26 0 10 30
0

0101000
+381 0 -380 0 *
Ve
1e-007
10 20 0
0 0

0101101
*
Ed
 1e-007 1 1 0
1  112 0 -25 -5
2  223 5 0 -25 -5
2  224 27 0 -25 -5
0

0101000
+381 0 -378 0 *
Ve
1e-007
10 40 0
0 0

0101101
*
Ed
 1e-007 1 1 0
1  113 0 -25 -5
2  225 5 0 -25 -5
2  226 28 0 -25 -5
0

0101000
+380 0 -376 0 *
Ed
 1e-007 1 1 0
1  114 0 10 30
2  227 5 0 10 30
2  228 29 0 10 30
0

0101000
+378 0 -376 0 *
Wi

0101100
-379 0 +377 0 -375 0 +374 0 *
Ve
1e-007
110 20 0
0 0

0101101
*
Ve
1e-007
110 40 0
0 0

0101101
*
Ed
 1e-007 1 1 0
1  115 0 10 30
2  229 5 0 10 30
2  230 30 0 10 30
0

0101000
+372 0 -371 0 *
Ve
1e-007
90 20 0
0 0

0101101
*
Ed
 1e-007 1 1 0
1  116 0 -65 -45
2  231 5 0 -65 -45
2  232 31 0 -65 -45
0

0101000
+372 0 -369 0 *
Ve
1e-007
90 40 0
0 0

0101101
*
Ed
 1e-007 1 1 0
1  117 0 -65 -45
2  233 5 0 -65 -45
2  234 32 0 -65 -45
0

0101000
+371 0 -367 0 *
Ed
 1e-007 1 1 0
1  118 0 10 30
2  235 5 0 10 30
2  236 33 0 10 30
0

0101000
+369 0 -367 0 *
Wi

0101100
-370 0 +368 0 -366 0 +365 0 *
Ve
1e-007
150 40 0
0 0

0101101
*
Ve
1e-007
130 40 0
0 0

0101101
*
Ed
 1e-007 1 1 0
1  119 0 -85 -65
2  237 5 0 -85 -65
2  238 34 0 -85 -65
0

0101000
+363 0 -362 0 *
Ve
1e-007
150 20 0
0 0

0101101
*
Ed
 1e-007 1 1 0
1  120 0 10 30
2  239 5 0 10 30
2  240 35 0 10 30
0

0101000
+360 0 -363 0 *
Ve
1e-007
130 20 0
0 0

0101101
*
Ed
 1e-007 1 1 0
1  121 0 10 30
2  241 5 0 10 30
2  242 36 0 10 30
0

0101000
+358 0 -362 0 *
Ed
 1e-007 1 1 0
1  122 0 -85 -65
2  243 5 0 -85 -65
2  244 37 0 -85 -65
0

0101000
+360 0 -358 0 *
Wi

0101100
-361 0 -359 0 +357 0 +356 0 *
Ve
1e-007
315 20 0
0 0

0101101
*
Ve
1e-007
315 40 0
0 0

0101101
*
Ed
 1e-007 1 1 0
1  123 0 10 30
2  245 5 0 10 30
2  246 38 0 10 30
0

0101000
+354 0 -353 0 *
Ve
1e-007
300 20 0
0 0

0101101
*
Ed
 1e-007 1 1 0
1  124 0 -165 -150
2  247 5 0 -165 -150
2  248 39 0 -165 -150
0

0101000
+354 0 -351 0 *
Ve
1e-007
300 40 0
0 0

0101101
*
Ed
 1e-007 1 1 0
1  125 0 -165 -150
2  249 5 0 -165 -150
2  250 40 0 -165 -150
0

0101000
+353 0 -349 0 *
Ed
 1e-007 1 1 0
1  126 0 10 30
2  251 5 0 10 30
2  252 41 0 10 30
0

0101000
+351 0 -349 0 *
Wi

0101100
-352 0 +350 0 -348 0 +347 0 *
Ve
1e-007
610 40 0
0 0

0101101
*
Ve
1e-007
580 40 0
0 0

0101101
*
Ed
 1e-007 1 1 0
1  127 0 -320 -290
2  253 5 0 -320 -290
2  254 42 0 -320 -290
0

0101000
+345 0 -344 0 *
Ve
1e-007
610 20 0
0 0

0101101
*
Ed
 1e-007 1 1 0
1  128 0 10 30
2  255 5 0 10 30
2  256 43 0 10 30
0

0101000
+342 0 -345 0 *
Ve
1e-007
580 20 0
0 0

0101101
*
Ed
 1e-007 1 1 0
1  129 0 10 30
2  257 5 0 10 30
2  258 44 0 10 30
0

0101000
+340 0 -344 0 *
Ed
 1e-007 1 1 0
1  130 0 -320 -290
2  259 5 0 -320 -290
2  260 45 0 -320 -290
0

0101000
+342 0 -340 0 *
Wi

0101100
-343 0 -341 0 +339 0 +338 0 *
Ve
1e-007
570 20 0
0 0

0101101
*
Ve
1e-007
570 40 0
0 0

0101101
*
Ed
 1e-007 1 1 0
1  131 0 10 30
2  261 5 0 10 30
2  262 46 0 10 30
0

0101000
+336 0 -335 0 *
Ve
1e-007
540 20 0
0 0

0101101
*
Ed
 1e-007 1 1 0
1  132 0 -300 -270
2  263 5 0 -300 -270
2  264 47 0 -300 -270
0

0101000
+336 0 -333 0 *
Ve
1e-007
540 40 0
0 0

0101101
*
Ed
 1e-007 1 1 0
1  133 0 -300 -270
2  265 5 0 -300 -270
2  266 48 0 -300 -270
0

0101000
+335 0 -331 0 *
Ed
 1e-007 1 1 0
1  134 0 10 30
2  267 5 0 10 30
2  268 49 0 10 30
0

0101000
+333 0 -331 0 *
Wi

0101100
-334 0 +332 0 -330 0 +329 0 *
Ve
1e-007
530 20 0
0 0

0101101
*
Ve
1e-007
530 40 0
0 0

0101101
*
Ed
 1e-007 1 1 0
1  135 0 10 30
2  269 5 0 10 30
2  270 50 0 10 30
0

0101000
+327 0 -326 0 *
Ve
1e-007
500 20 0
0 0

0101101
*
Ed
 1e-007 1 1 0
1  136 0 -280 -250
2  271 5 0 -280 -250
2  272 51 0 -280 -250
0

0101000
+327 0 -324 0 *
Ve
1e-007
500 40 0
0 0

0101101
*
Ed
 1e-007 1 1 0
1  137 0 -280 -250
2  273 5 0 -280 -250
2  274 52 0 -280 -250
0

0101000
+326 0 -322 0 *
Ed
 1e-007 1 1 0
1  138 0 10 30
2  275 5 0 10 30
2  276 53 0 10 30
0

0101000
+324 0 -322 0 *
Wi

0101100
-325 0 +323 0 -321 0 +320 0 *
Ve
1e-007
490 20 0
0 0

0101101
*
Ve
1e-007
460 20 0
0 0

0101101
*
Ed
 1e-007 1 1 0
1  139 0 -260 -230
2  277 5 0 -260 -230
2  278 54 0 -260 -230
0

0101000
+318 0 -317 0 *
Ve
1e-007
490 40 0
0 0

0101101
*
Ed
 1e-007 1 1 0
1  140 0 10 30
2  279 5 0 10 30
2  280 55 0 10 30
0

0101000
+318 0 -315 0 *
Ve
1e-007
460 40 0
0 0

0101101
*
Ed
 1e-007 1 1 0
1  141 0 10 30
2  281 5 0 10 30
2  282 56 0 10 30
0

0101000
+317 0 -313 0 *
Ed
 1e-007 1 1 0
1  142 0 -260 -230
2  283 5 0 -260 -230
2  284 57 0 -260 -230
0

0101000
+315 0 -313 0 *
Wi

0101100
+316 0 -314 0 +312 0 -311 0 *
Ve
1e-007
370 20 0
0 0

0101101
*
Ve
1e-007
340 20 0
0 0

0101101
*
Ed
 1e-007 1 1 0
1  143 0 -200 -170
2  285 5 0 -200 -170
2  286 58 0 -200 -170
0

0101000
+309 0 -308 0 *
Ve
1e-007
370 40 0
0 0

0101101
*
Ed
 1e-007 1 1 0
1  144 0 10 30
2  287 5 0 10 30
2  288 59 0 10 30
0

0101000
+309 0 -306 0 *
Ve
1e-007
340 40 0
0 0

0101101
*
Ed
 1e-007 1 1 0
1  145 0 10 30
2  289 5 0 10 30
2  290 60 0 10 30
0

0101000
+308 0 -304 0 *
Ed
 1e-007 1 1 0
1  146 0 -200 -170
2  291 5 0 -200 -170
2  292 61 0 -200 -170
0

0101000
+306 0 -304 0 *
Wi

0101100
+307 0 -305 0 +303 0 -302 0 *
Ve
1e-007
410 20 0
0 0

0101101
*
Ve
1e-007
410 40 0
0 0

0101101
*
Ed
 1e-007 1 1 0
1  147 0 10 30
2  293 5 0 10 30
2  294 62 0 10 30
0

0101000
+300 0 -299 0 *
Ve
1e-007
380 20 0
0 0

0101101
*
Ed
 1e-007 1 1 0
1  148 0 -220 -190
2  295 5 0 -220 -190
2  296 63 0 -220 -190
0

0101000
+300 0 -297 0 *
Ve
1e-007
380 40 0
0 0

0101101
*
Ed
 1e-007 1 1 0
1  149 0 -220 -190
2  297 5 0 -220 -190
2  298 64 0 -220 -190
0

0101000
+299 0 -295 0 *
Ed
 1e-007 1 1 0
1  150 0 10 30
2  299 5 0 10 30
2  300 65 0 10 30
0

0101000
+297 0 -295 0 *
Wi

0101100
-298 0 +296 0 -294 0 +293 0 *
Ve
1e-007
450 20 0
0 0

0101101
*
Ve
1e-007
450 40 0
0 0

0101101
*
Ed
 1e-007 1 1 0
1  151 0 10 30
2  301 5 0 10 30
2  302 66 0 10 30
0

0101000
+291 0 -290 0 *
Ve
1e-007
420 20 0
0 0

0101101
*
Ed
 1e-007 1 1 0
1  152 0 -240 -210
2  303 5 0 -240 -210
2  304 67 0 -240 -210
0

0101000
+291 0 -288 0 *
Ve
1e-007
420 40 0
0 0

0101101
*
Ed
 1e-007 1 1 0
1  153 0 -240 -210
2  305 5 0 -240 -210
2  306 68 0 -240 -210
0

0101000
+290 0 -286 0 *
Ed
 1e-007 1 1 0
1  154 0 10 30
2  307 5 0 10 30
2  308 69 0 10 30
0

0101000
+288 0 -286 0 *
Wi

0101100
-289 0 +287 0 -285 0 +284 0 *
Ve
1e-007
770 2.5 0
0 0

0101101
*
Ve
1e-007
750 2.5 0
0 0

0101101
*
Ed
 1e-007 1 1 0
1  155 0 -395 -375
2  309 5 0 -395 -375
2  310 70 0 -395 -375
0

0101000
+282 0 -281 0 *
Ve
1e-007
770 37.5 0
0 0

0101101
*
Ed
 1e-007 1 1 0
1  156 0 1.25 36.25
2  311 5 0 1.25 36.25
2  312 71 0 1.25 36.25
0

0101000
+282 0 -279 0 *
Ve
1e-007
750 37.5 0
0 0

0101101
*
Ed
 1e-007 1 1 0
1  157 0 -395 -375
2  313 5 0 -395 -375
2  314 72 0 -395 -375
0

0101000
+279 0 -277 0 *
Ed
 1e-007 1 1 0
1  158 0 1.25 36.25
2  315 5 0 1.25 36.25
2  316 73 0 1.25 36.25
0

0101000
+281 0 -277 0 *
Wi

0101100
+280 0 -278 0 -276 0 +275 0 *
Ve
1e-007
690 20 0
0 0

0101101
*
Ve
1e-007
690 40 0
0 0

0101101
*
Ed
 1e-007 1 1 0
1  159 0 10 30
2  317 5 0 10 30
2  318 74 0 10 30
0

0101000
+273 0 -272 0 *
Ve
1e-007
660 20 0
0 0

0101101
*
Ed
 1e-007 1 1 0
1  160 0 -360 -330
2  319 5 0 -360 -330
2  320 75 0 -360 -330
0

0101000
+273 0 -270 0 *
Ve
1e-007
660 40 0
0 0

0101101
*
Ed
 1e-007 1 1 0
1  161 0 -360 -330
2  321 5 0 -360 -330
2  322 76 0 -360 -330
0

0101000
+272 0 -268 0 *
Ed
 1e-007 1 1 0
1  162 0 10 30
2  323 5 0 10 30
2  324 77 0 10 30
0

0101000
+270 0 -268 0 *
Wi

0101100
-271 0 +269 0 -267 0 +266 0 *
Ve
1e-007
730 20 0
0 0

0101101
*
Ve
1e-007
730 40 0
0 0

0101101
*
Ed
 1e-007 1 1 0
1  163 0 10 30
2  325 5 0 10 30
2  326 78 0 10 30
0

0101000
+264 0 -263 0 *
Ve
1e-007
700 20 0
0 0

0101101
*
Ed
 1e-007 1 1 0
1  164 0 -380 -350
2  327 5 0 -380 -350
2  328 79 0 -380 -350
0

0101000
+264 0 -261 0 *
Ve
1e-007
700 40 0
0 0

0101101
*
Ed
 1e-007 1 1 0
1  165 0 -380 -350
2  329 5 0 -380 -350
2  330 80 0 -380 -350
0

0101000
+263 0 -259 0 *
Ed
 1e-007 1 1 0
1  166 0 10 30
2  331 5 0 10 30
2  332 81 0 10 30
0

0101000
+261 0 -259 0 *
Wi

0101100
-262 0 +260 0 -258 0 +257 0 *
Ve
1e-007
650 40 0
0 0

0101101
*
Ve
1e-007
620 40 0
0 0

0101101
*
Ed
 1e-007 1 1 0
1  167 0 -340 -310
2  333 5 0 -340 -310
2  334 82 0 -340 -310
0

0101000
+255 0 -254 0 *
Ve
1e-007
650 20 0
0 0

0101101
*
Ed
 1e-007 1 1 0
1  168 0 10 30
2  335 5 0 10 30
2  336 83 0 10 30
0

0101000
+252 0 -255 0 *
Ve
1e-007
620 20 0
0 0

0101101
*
Ed
 1e-007 1 1 0
1  169 0 10 30
2  337 5 0 10 30
2  338 84 0 10 30
0

0101000
+250 0 -254 0 *
Ed
 1e-007 1 1 0
1  170 0 -340 -310
2  339 5 0 -340 -310
2  340 85 0 -340 -310
0

0101000
+252 0 -250 0 *
Wi

0101100
-253 0 -251 0 +249 0 +248 0 *
Fa
0  1e-007 5 0

0111000
+418 0 +409 0 +400 0 +391 0 +382 0 +373 0 +364 0 +355 0 +346 0 +337 0 
+328 0 +319 0 +310 0 +301 0 +292 0 +283 0 +274 0 +265 0 +256 0 +247 0 
*
Ed
 1e-007 1 1 0
1  171 0 1 4
2  341 6 0 1 4
2  342 9 0 1 4
0

0101000
+421 0 -608 0 *
Wi

0101100
+245 0 +420 0 +620 0 -607 0 *
Fa
0  1e-007 6 0

0111000
+244 0 *
Ed
 1e-007 1 1 0
1  172 0 0 3
2  343 7 0 0 3
2  344 2 0 0 3
0

0101000
-614 0 +427 0 *
Wi

0101100
-242 0 -613 0 +430 0 +426 0 *
Fa
0  1e-007 7 0

0111000
+241 0 *
Ed
 1e-007 1 1 0
1  173 0 -3.5 -0.5
2  345 2 0 -3.5 -0.5
2  346 8 0 -3.5 -0.5
0

0101000
+612 0 -425 0 *
Wi

0101100
-424 0 -242 0 +611 0 -239 0 *
Fa
0  1e-007 2 0

0111000
+238 0 *
Ed
 1e-007 1 1 0
1  174 0 1 4
2  347 8 0 1 4
2  348 9 0 1 4
0

0101000
+423 0 -610 0 *
Wi

0101100
+236 0 +422 0 +239 0 -609 0 *
Fa
0  1e-007 8 0

0111000
+235 0 *
Wi

0101100
-236 0 -606 0 +245 0 +419 0 *
Fa
0  1e-007 9 0

0111000
+233 0 *
Ed
 1e-007 1 1 0
1  175 0 1 4
2  349 10 0 1 4
2  350 11 0 1 4
0

0101000
+417 0 -604 0 *
Ed
 1e-007 1 1 0
1  176 0 1 4
2  351 10 0 1 4
2  352 12 0 1 4
0

0101000
+416 0 -603 0 *
Wi

0101100
-231 0 -602 0 +230 0 +415 0 *
Fa
0  1e-007 10 0

0111000
+229 0 *
Ed
 1e-007 1 1 0
1  177 0 1 4
2  353 13 0 1 4
2  354 11 0 1 4
0

0101000
+414 0 -601 0 *
Wi

0101100
-231 0 -600 0 +227 0 +413 0 *
Fa
0  1e-007 11 0

0111000
+226 0 *
Ed
 1e-007 1 1 0
1  178 0 1 4
2  355 13 0 1 4
2  356 12 0 1 4
0

0101000
+412 0 -599 0 *
Wi

0101100
-230 0 -598 0 +224 0 +411 0 *
Fa
0  1e-007 12 0

0111000
+223 0 *
Wi

0101100
-227 0 -597 0 +224 0 +410 0 *
Fa
0  1e-007 13 0

0111000
+221 0 *
Ed
 1e-007 1 1 0
1  179 0 1 4
2  357 15 0 1 4
2  358 14 0 1 4
0

0101000
+408 0 -595 0 *
Ed
 1e-007 1 1 0
1  180 0 1 4
2  359 16 0 1 4
2  360 14 0 1 4
0

0101000
+407 0 -594 0 *
Wi

0101100
-219 0 -593 0 +218 0 +406 0 *
Fa
0  1e-007 14 0

0111000
+217 0 *
Ed
 1e-007 1 1 0
1  181 0 1 4
2  361 15 0 1 4
2  362 17 0 1 4
0

0101000
+405 0 -592 0 *
Wi

0101100
-219 0 -591 0 +215 0 +404 0 *
Fa
0  1e-007 15 0

0111000
+214 0 *
Ed
 1e-007 1 1 0
1  182 0 1 4
2  363 16 0 1 4
2  364 17 0 1 4
0

0101000
+403 0 -590 0 *
Wi

0101100
-218 0 -589 0 +212 0 +402 0 *
Fa
0  1e-007 16 0

0111000
+211 0 *
Wi

0101100
-215 0 -588 0 +212 0 +401 0 *
Fa
0  1e-007 17 0

0111000
+209 0 *
Ed
 1e-007 1 1 0
1  183 0 1 4
2  365 19 0 1 4
2  366 18 0 1 4
0

0101000
+399 0 -586 0 *
Ed
 1e-007 1 1 0
1  184 0 1 4
2  367 20 0 1 4
2  368 18 0 1 4
0

0101000
+398 0 -585 0 *
Wi

0101100
-207 0 -584 0 +206 0 +397 0 *
Fa
0  1e-007 18 0

0111000
+205 0 *
Ed
 1e-007 1 1 0
1  185 0 1 4
2  369 19 0 1 4
2  370 21 0 1 4
0

0101000
+396 0 -583 0 *
Wi

0101100
-203 0 -582 0 +207 0 +395 0 *
Fa
0  1e-007 19 0

0111000
+202 0 *
Ed
 1e-007 1 1 0
1  186 0 1 4
2  371 20 0 1 4
2  372 21 0 1 4
0

0101000
+394 0 -581 0 *
Wi

0101100
-200 0 -580 0 +206 0 +393 0 *
Fa
0  1e-007 20 0

0111000
+199 0 *
Wi

0101100
-203 0 -579 0 +200 0 +392 0 *
Fa
0  1e-007 21 0

0111000
+197 0 *
Ed
 1e-007 1 1 0
1  187 0 1 4
2  373 22 0 1 4
2  374 23 0 1 4
0

0101000
+390 0 -577 0 *
Ed
 1e-007 1 1 0
1  188 0 1 4
2  375 22 0 1 4
2  376 24 0 1 4
0

0101000
+389 0 -576 0 *
Wi

0101100
-195 0 -575 0 +194 0 +388 0 *
Fa
0  1e-007 22 0

0111000
+193 0 *
Ed
 1e-007 1 1 0
1  189 0 1 4
2  377 25 0 1 4
2  378 23 0 1 4
0

0101000
+387 0 -574 0 *
Wi

0101100
-195 0 -573 0 +191 0 +386 0 *
Fa
0  1e-007 23 0

0111000
+190 0 *
Ed
 1e-007 1 1 0
1  190 0 1 4
2  379 25 0 1 4
2  380 24 0 1 4
0

0101000
+385 0 -572 0 *
Wi

0101100
-194 0 -571 0 +188 0 +384 0 *
Fa
0  1e-007 24 0

0111000
+187 0 *
Wi

0101100
-191 0 -570 0 +188 0 +383 0 *
Fa
0  1e-007 25 0

0111000
+185 0 *
Ed
 1e-007 1 1 0
1  191 0 1 4
2  381 26 0 1 4
2  382 27 0 1 4
0

0101000
+381 0 -568 0 *
Ed
 1e-007 1 1 0
1  192 0 1 4
2  383 26 0 1 4
2  384 28 0 1 4
0

0101000
+380 0 -567 0 *
Wi

0101100
-183 0 -566 0 +182 0 +379 0 *
Fa
0  1e-007 26 0

0111000
+181 0 *
Ed
 1e-007 1 1 0
1  193 0 1 4
2  385 29 0 1 4
2  386 27 0 1 4
0

0101000
+378 0 -565 0 *
Wi

0101100
-183 0 -564 0 +179 0 +377 0 *
Fa
0  1e-007 27 0

0111000
+178 0 *
Ed
 1e-007 1 1 0
1  194 0 1 4
2  387 29 0 1 4
2  388 28 0 1 4
0

0101000
+376 0 -563 0 *
Wi

0101100
-182 0 -562 0 +176 0 +375 0 *
Fa
0  1e-007 28 0

0111000
+175 0 *
Wi

0101100
-179 0 -561 0 +176 0 +374 0 *
Fa
0  1e-007 29 0

0111000
+173 0 *
Ed
 1e-007 1 1 0
1  195 0 1 4
2  389 30 0 1 4
2  390 31 0 1 4
0

0101000
+372 0 -559 0 *
Ed
 1e-007 1 1 0
1  196 0 1 4
2  391 30 0 1 4
2  392 32 0 1 4
0

0101000
+371 0 -558 0 *
Wi

0101100
-171 0 -557 0 +170 0 +370 0 *
Fa
0  1e-007 30 0

0111000
+169 0 *
Ed
 1e-007 1 1 0
1  197 0 1 4
2  393 33 0 1 4
2  394 31 0 1 4
0

0101000
+369 0 -556 0 *
Wi

0101100
-171 0 -555 0 +167 0 +368 0 *
Fa
0  1e-007 31 0

0111000
+166 0 *
Ed
 1e-007 1 1 0
1  198 0 1 4
2  395 33 0 1 4
2  396 32 0 1 4
0

0101000
+367 0 -554 0 *
Wi

0101100
-170 0 -553 0 +164 0 +366 0 *
Fa
0  1e-007 32 0

0111000
+163 0 *
Wi

0101100
-167 0 -552 0 +164 0 +365 0 *
Fa
0  1e-007 33 0

0111000
+161 0 *
Ed
 1e-007 1 1 0
1  199 0 1 4
2  397 35 0 1 4
2  398 34 0 1 4
0

0101000
+363 0 -550 0 *
Ed
 1e-007 1 1 0
1  200 0 1 4
2  399 36 0 1 4
2  400 34 0 1 4
0

0101000
+362 0 -549 0 *
Wi

0101100
-159 0 -548 0 +158 0 +361 0 *
Fa
0  1e-007 34 0

0111000
+157 0 *
Ed
 1e-007 1 1 0
1  201 0 1 4
2  401 35 0 1 4
2  402 37 0 1 4
0

0101000
+360 0 -547 0 *
Wi

0101100
-155 0 -546 0 +159 0 +359 0 *
Fa
0  1e-007 35 0

0111000
+154 0 *
Ed
 1e-007 1 1 0
1  202 0 1 4
2  403 36 0 1 4
2  404 37 0 1 4
0

0101000
+358 0 -545 0 *
Wi

0101100
-152 0 -544 0 +158 0 +357 0 *
Fa
0  1e-007 36 0

0111000
+151 0 *
Wi

0101100
-155 0 -543 0 +152 0 +356 0 *
Fa
0  1e-007 37 0

0111000
+149 0 *
Ed
 1e-007 1 1 0
1  203 0 1 4
2  405 38 0 1 4
2  406 39 0 1 4
0

0101000
+354 0 -541 0 *
Ed
 1e-007 1 1 0
1  204 0 1 4
2  407 38 0 1 4
2  408 40 0 1 4
0

0101000
+353 0 -540 0 *
Wi

0101100
-147 0 -539 0 +146 0 +352 0 *
Fa
0  1e-007 38 0

0111000
+145 0 *
Ed
 1e-007 1 1 0
1  205 0 1 4
2  409 41 0 1 4
2  410 39 0 1 4
0

0101000
+351 0 -538 0 *
Wi

0101100
-147 0 -537 0 +143 0 +350 0 *
Fa
0  1e-007 39 0

0111000
+142 0 *
Ed
 1e-007 1 1 0
1  206 0 1 4
2  411 41 0 1 4
2  412 40 0 1 4
0

0101000
+349 0 -536 0 *
Wi

0101100
-146 0 -535 0 +140 0 +348 0 *
Fa
0  1e-007 40 0

0111000
+139 0 *
Wi

0101100
-143 0 -534 0 +140 0 +347 0 *
Fa
0  1e-007 41 0

0111000
+137 0 *
Ed
 1e-007 1 1 0
1  207 0 1 4
2  413 43 0 1 4
2  414 42 0 1 4
0

0101000
+345 0 -532 0 *
Ed
 1e-007 1 1 0
1  208 0 1 4
2  415 44 0 1 4
2  416 42 0 1 4
0

0101000
+344 0 -531 0 *
Wi

0101100
-135 0 -530 0 +134 0 +343 0 *
Fa
0  1e-007 42 0

0111000
+133 0 *
Ed
 1e-007 1 1 0
1  209 0 1 4
2  417 43 0 1 4
2  418 45 0 1 4
0

0101000
+342 0 -529 0 *
Wi

0101100
-131 0 -528 0 +135 0 +341 0 *
Fa
0  1e-007 43 0

0111000
+130 0 *
Ed
 1e-007 1 1 0
1  210 0 1 4
2  419 44 0 1 4
2  420 45 0 1 4
0

0101000
+340 0 -527 0 *
Wi

0101100
-128 0 -526 0 +134 0 +339 0 *
Fa
0  1e-007 44 0

0111000
+127 0 *
Wi

0101100
-131 0 -525 0 +128 0 +338 0 *
Fa
0  1e-007 45 0

0111000
+125 0 *
Ed
 1e-007 1 1 0
1  211 0 1 4
2  421 46 0 1 4
2  422 47 0 1 4
0

0101000
+336 0 -523 0 *
Ed
 1e-007 1 1 0
1  212 0 1 4
2  423 46 0 1 4
2  424 48 0 1 4
0

0101000
+335 0 -522 0 *
Wi

0101100
-123 0 -521 0 +122 0 +334 0 *
Fa
0  1e-007 46 0

0111000
+121 0 *
Ed
 1e-007 1 1 0
1  213 0 1 4
2  425 49 0 1 4
2  426 47 0 1 4
0

0101000
+333 0 -520 0 *
Wi

0101100
-123 0 -519 0 +119 0 +332 0 *
Fa
0  1e-007 47 0

0111000
+118 0 *
Ed
 1e-007 1 1 0
1  214 0 1 4
2  427 49 0 1 4
2  428 48 0 1 4
0

0101000
+331 0 -518 0 *
Wi

0101100
-122 0 -517 0 +116 0 +330 0 *
Fa
0  1e-007 48 0

0111000
+115 0 *
Wi

0101100
-119 0 -516 0 +116 0 +329 0 *
Fa
0  1e-007 49 0

0111000
+113 0 *
Ed
 1e-007 1 1 0
1  215 0 1 4
2  429 50 0 1 4
2  430 51 0 1 4
0

0101000
+327 0 -514 0 *
Ed
 1e-007 1 1 0
1  216 0 1 4
2  431 50 0 1 4
2  432 52 0 1 4
0

0101000
+326 0 -513 0 *
Wi

0101100
-111 0 -512 0 +110 0 +325 0 *
Fa
0  1e-007 50 0

0111000
+109 0 *
Ed
 1e-007 1 1 0
1  217 0 1 4
2  433 53 0 1 4
2  434 51 0 1 4
0

0101000
+324 0 -511 0 *
Wi

0101100
-111 0 -510 0 +107 0 +323 0 *
Fa
0  1e-007 51 0

0111000
+106 0 *
Ed
 1e-007 1 1 0
1  218 0 1 4
2  435 53 0 1 4
2  436 52 0 1 4
0

0101000
+322 0 -509 0 *
Wi

0101100
-110 0 -508 0 +104 0 +321 0 *
Fa
0  1e-007 52 0

0111000
+103 0 *
Wi

0101100
-107 0 -507 0 +104 0 +320 0 *
Fa
0  1e-007 53 0

0111000
+101 0 *
Ed
 1e-007 1 1 0
1  219 0 1 4
2  437 55 0 1 4
2  438 54 0 1 4
0

0101000
+318 0 -505 0 *
Ed
 1e-007 1 1 0
1  220 0 1 4
2  439 56 0 1 4
2  440 54 0 1 4
0

0101000
+317 0 -504 0 *
Wi

0101100
-99 0 -503 0 +98 0 +316 0 *
Fa
0  1e-007 54 0

0111000
+97 0 *
Ed
 1e-007 1 1 0
1  221 0 1 4
2  441 55 0 1 4
2  442 57 0 1 4
0

0101000
+315 0 -502 0 *
Wi

0101100
-99 0 -501 0 +95 0 +314 0 *
Fa
0  1e-007 55 0

0111000
+94 0 *
Ed
 1e-007 1 1 0
1  222 0 1 4
2  443 56 0 1 4
2  444 57 0 1 4
0

0101000
+313 0 -500 0 *
Wi

0101100
-98 0 -499 0 +92 0 +312 0 *
Fa
0  1e-007 56 0

0111000
+91 0 *
Wi

0101100
-95 0 -498 0 +92 0 +311 0 *
Fa
0  1e-007 57 0

0111000
+89 0 *
Ed
 1e-007 1 1 0
1  223 0 1 4
2  445 59 0 1 4
2  446 58 0 1 4
0

0101000
+309 0 -496 0 *
Ed
 1e-007 1 1 0
1  224 0 1 4
2  447 60 0 1 4
2  448 58 0 1 4
0

0101000
+308 0 -495 0 *
Wi

0101100
-87 0 -494 0 +86 0 +307 0 *
Fa
0  1e-007 58 0

0111000
+85 0 *
Ed
 1e-007 1 1 0
1  225 0 1 4
2  449 59 0 1 4
2  450 61 0 1 4
0

0101000
+306 0 -493 0 *
Wi

0101100
-87 0 -492 0 +83 0 +305 0 *
Fa
0  1e-007 59 0

0111000
+82 0 *
Ed
 1e-007 1 1 0
1  226 0 1 4
2  451 60 0 1 4
2  452 61 0 1 4
0

0101000
+304 0 -491 0 *
Wi

0101100
-86 0 -490 0 +80 0 +303 0 *
Fa
0  1e-007 60 0

0111000
+79 0 *
Wi

0101100
-83 0 -489 0 +80 0 +302 0 *
Fa
0  1e-007 61 0

0111000
+77 0 *
Ed
 1e-007 1 1 0
1  227 0 1 4
2  453 62 0 1 4
2  454 63 0 1 4
0

0101000
+300 0 -487 0 *
Ed
 1e-007 1 1 0
1  228 0 1 4
2  455 62 0 1 4
2  456 64 0 1 4
0

0101000
+299 0 -486 0 *
Wi

0101100
-75 0 -485 0 +74 0 +298 0 *
Fa
0  1e-007 62 0

0111000
+73 0 *
Ed
 1e-007 1 1 0
1  229 0 1 4
2  457 65 0 1 4
2  458 63 0 1 4
0

0101000
+297 0 -484 0 *
Wi

0101100
-75 0 -483 0 +71 0 +296 0 *
Fa
0  1e-007 63 0

0111000
+70 0 *
Ed
 1e-007 1 1 0
1  230 0 1 4
2  459 65 0 1 4
2  460 64 0 1 4
0

0101000
+295 0 -482 0 *
Wi

0101100
-74 0 -481 0 +68 0 +294 0 *
Fa
0  1e-007 64 0

0111000
+67 0 *
Wi

0101100
-71 0 -480 0 +68 0 +293 0 *
Fa
0  1e-007 65 0

0111000
+65 0 *
Ed
 1e-007 1 1 0
1  231 0 1 4
2  461 66 0 1 4
2  462 67 0 1 4
0

0101000
+291 0 -478 0 *
Ed
 1e-007 1 1 0
1  232 0 1 4
2  463 66 0 1 4
2  464 68 0 1 4
0

0101000
+290 0 -477 0 *
Wi

0101100
-63 0 -476 0 +62 0 +289 0 *
Fa
0  1e-007 66 0

0111000
+61 0 *
Ed
 1e-007 1 1 0
1  233 0 1 4
2  465 69 0 1 4
2  466 67 0 1 4
0

0101000
+288 0 -475 0 *
Wi

0101100
-63 0 -474 0 +59 0 +287 0 *
Fa
0  1e-007 67 0

0111000
+58 0 *
Ed
 1e-007 1 1 0
1  234 0 1 4
2  467 69 0 1 4
2  468 68 0 1 4
0

0101000
+286 0 -473 0 *
Wi

0101100
-62 0 -472 0 +56 0 +285 0 *
Fa
0  1e-007 68 0

0111000
+55 0 *
Wi

0101100
-59 0 -471 0 +56 0 +284 0 *
Fa
0  1e-007 69 0

0111000
+53 0 *
Ed
 1e-007 1 1 0
1  235 0 1 4
2  469 71 0 1 4
2  470 70 0 1 4
0

0101000
+282 0 -469 0 *
Ed
 1e-007 1 1 0
1  236 0 1 4
2  471 73 0 1 4
2  472 70 0 1 4
0

0101000
+281 0 -468 0 *
Wi

0101100
-51 0 -467 0 +50 0 +280 0 *
Fa
0  1e-007 70 0

0111000
+49 0 *
Ed
 1e-007 1 1 0
1  237 0 1 4
2  473 71 0 1 4
2  474 72 0 1 4
0

0101000
+279 0 -466 0 *
Wi

0101100
-51 0 -465 0 +47 0 +278 0 *
Fa
0  1e-007 71 0

0111000
+46 0 *
Ed
 1e-007 1 1 0
1  238 0 1 4
2  475 73 0 1 4
2  476 72 0 1 4
0

0101000
+277 0 -464 0 *
Wi

0101100
-47 0 -463 0 +44 0 +276 0 *
Fa
0  1e-007 72 0

0111000
+43 0 *
Wi

0101100
-50 0 -462 0 +44 0 +275 0 *
Fa
0  1e-007 73 0

0111000
+41 0 *
Ed
 1e-007 1 1 0
1  239 0 1 4
2  477 74 0 1 4
2  478 75 0 1 4
0

0101000
+273 0 -460 0 *
Ed
 1e-007 1 1 0
1  240 0 1 4
2  479 74 0 1 4
2  480 76 0 1 4
0

0101000
+272 0 -459 0 *
Wi

0101100
-39 0 -458 0 +38 0 +271 0 *
Fa
0  1e-007 74 0

0111000
+37 0 *
Ed
 1e-007 1 1 0
1  241 0 1 4
2  481 77 0 1 4
2  482 75 0 1 4
0

0101000
+270 0 -457 0 *
Wi

0101100
-39 0 -456 0 +35 0 +269 0 *
Fa
0  1e-007 75 0

0111000
+34 0 *
Ed
 1e-007 1 1 0
1  242 0 1 4
2  483 77 0 1 4
2  484 76 0 1 4
0

0101000
+268 0 -455 0 *
Wi

0101100
-38 0 -454 0 +32 0 +267 0 *
Fa
0  1e-007 76 0

0111000
+31 0 *
Wi

0101100
-35 0 -453 0 +32 0 +266 0 *
Fa
0  1e-007 77 0

0111000
+29 0 *
Ed
 1e-007 1 1 0
1  243 0 1 4
2  485 78 0 1 4
2  486 79 0 1 4
0

0101000
+264 0 -451 0 *
Ed
 1e-007 1 1 0
1  244 0 1 4
2  487 78 0 1 4
2  488 80 0 1 4
0

0101000
+263 0 -450 0 *
Wi

0101100
-27 0 -449 0 +26 0 +262 0 *
Fa
0  1e-007 78 0

0111000
+25 0 *
Ed
 1e-007 1 1 0
1  245 0 1 4
2  489 81 0 1 4
2  490 79 0 1 4
0

0101000
+261 0 -448 0 *
Wi

0101100
-27 0 -447 0 +23 0 +260 0 *
Fa
0  1e-007 79 0

0111000
+22 0 *
Ed
 1e-007 1 1 0
1  246 0 1 4
2  491 81 0 1 4
2  492 80 0 1 4
0

0101000
+259 0 -446 0 *
Wi

0101100
-26 0 -445 0 +20 0 +258 0 *
Fa
0  1e-007 80 0

0111000
+19 0 *
Wi

0101100
-23 0 -444 0 +20 0 +257 0 *
Fa
0  1e-007 81 0

0111000
+17 0 *
Ed
 1e-007 1 1 0
1  247 0 1 4
2  493 83 0 1 4
2  494 82 0 1 4
0

0101000
+255 0 -442 0 *
Ed
 1e-007 1 1 0
1  248 0 1 4
2  495 84 0 1 4
2  496 82 0 1 4
0

0101000
+254 0 -441 0 *
Wi

0101100
-15 0 -440 0 +14 0 +253 0 *
Fa
0  1e-007 82 0

0111000
+13 0 *
Ed
 1e-007 1 1 0
1  249 0 1 4
2  497 83 0 1 4
2  498 85 0 1 4
0

0101000
+252 0 -439 0 *
Wi

0101100
-11 0 -438 0 +15 0 +251 0 *
Fa
0  1e-007 83 0

0111000
+10 0 *
Ed
 1e-007 1 1 0
1  250 0 1 4
2  499 84 0 1 4
2  500 85 0 1 4
0

0101000
+250 0 -437 0 *
Wi

0101100
-8 0 -436 0 +14 0 +249 0 *
Fa
0  1e-007 84 0

0111000
+7 0 *
Wi

0101100
-11 0 -435 0 +8 0 +248 0 *
Fa
0  1e-007 85 0

0111000
+5 0 *
Sh

0101100
-624 0 -617 0 +433 0 +428 0 -246 0 +243 0 +240 0 -237 0 -234 0 -232 0 
-228 0 +225 0 -222 0 +220 0 +216 0 -213 0 +210 0 -208 0 -204 0 -201 0 
+198 0 +196 0 -192 0 +189 0 -186 0 +184 0 -180 0 +177 0 -174 0 +172 0 
-168 0 +165 0 -162 0 +160 0 -156 0 -153 0 +150 0 +148 0 -144 0 +141 0 
-138 0 +136 0 -132 0 -129 0 +126 0 +124 0 -120 0 +117 0 -114 0 +112 0 
-108 0 +105 0 -102 0 +100 0 +96 0 -93 0 +90 0 -88 0 +84 0 -81 0 
+78 0 -76 0 -72 0 +69 0 -66 0 +64 0 -60 0 +57 0 -54 0 +52 0 
+48 0 -45 0 -42 0 +40 0 -36 0 +33 0 -30 0 +28 0 -24 0 +21 0 
-18 0 +16 0 -12 0 -9 0 +6 0 +4 0 *
So

0100000
+3 0 *
Co

1100000
+2 0 *

+1 0 
0

