DBRep_DrawableShape

CASCADE Topology V1, (c) Matra-Datavision
Locations 0
Curve2ds 68
1 0 0 1 0 
1 0 0 1 0 
1 3 0 0 -1 
1 0 0 0 1 
1 0 -50 1 0 
1 0 0 1 0 
1 0 0 0 -1 
1 0 0 0 1 
1 0 0 0 1 
1 0 0 1 0 
8 -3.7999999999999998 -0.19999999999999996
1 -0.5 60 -1 0 
8 -3.7999999999999998 -0.19999999999999996
1 0.5 -1 -1 -0 
1 3 0 0 1 
1 0 0 1 0 
1 3 0 0 1 
1 0 50 1 0 
1 3 0 0 -1 
1 100 0 0 1 
8 -4.5 43.5
1 80 -0.5 0 1 
8 -4.5 43.5
1 4 -0.5 0 -1 
8 -52 -28
1 30 39 -1 0 
8 -52 -28
1 4 -30 0 -1 
8 -4.5 43.5
1 60 -0.5 0 1 
8 -4.5 43.5
1 4 -0.5 0 -1 
8 8 32
1 30 10 0 1 
8 8 32
1 4 10 0 -1 
8 -27 -3
1 5 20 -1 0 
8 -27 -3
1 4 -5 0 -1 
8 -27 -3
1 5 40 -1 0 
8 -27 -3
1 4 -5 0 -1 
8 8 32
1 10 10 0 1 
8 8 32
1 4 10 0 -1 
1 0 0 0 1 
1 0 50 1 0 
1 0 -50 1 0 
1 0 100 1 0 
1 0 0 0 -1 
1 100 0 0 1 
8 -4.5 43.5
1 80 -0.5 0 1 
8 -4.5 43.5
1 1 -0.5 0 -1 
8 -52 -28
1 30 39 -1 0 
8 -52 -28
1 1 -30 0 -1 
8 -4.5 43.5
1 60 -0.5 0 1 
8 -4.5 43.5
1 1 -0.5 0 -1 
8 8 32
1 30 10 0 1 
8 8 32
1 1 10 0 -1 
8 -27 -3
1 5 20 -1 0 
8 -27 -3
1 1 -5 0 -1 
8 -27 -3
1 5 40 -1 0 
8 -27 -3
1 1 -5 0 -1 
8 8 32
1 10 10 0 1 
8 8 32
1 1 10 0 -1 
1 0 -40 1 0 
1 0 0 1 0 
1 0 0 1 0 
1 0 100 1 0 
8 -3.7999999999999998 -0.19999999999999996
1 -0.5 80 -1 0 
8 -3.7999999999999998 -0.19999999999999996
1 0.5 -1 -1 -0 
1 0 -40 1 0 
1 0 20 1 0 
1 0 0 1 0 
1 0 20 1 0 
1 0 -20 1 0 
1 0 20 1 0 
1 0 0 1 0 
1 0 0 1 0 
1 0 -20 1 0 
1 0 0 1 0 
Curves 34
1 0 0 0 0 0 1 
1 0 0 3 -0 1 0 
1 0 50 0 0 0 1 
1 0 0 0 -0 1 0 
1 0 0 0 1 0 -0 
1 60 0 -0.5 -0 0 -1 
1 0 0 3 1 0 -0 
1 0 50 3 1 0 -0 
1 100 0 3 0 1 0 
1 80 -0.5 3 -0 1 0 
1 30 39 3 -1 -0 0 
1 60 -0.5 3 -0 1 0 
1 30 10 3 -0 1 0 
1 5 20 3 -1 -0 0 
1 5 40 3 -1 -0 0 
1 10 10 3 -0 1 0 
1 0 50 0 1 0 -0 
1 100 50 0 0 0 1 
1 100 0 0 -0 1 0 
1 80 -0.5 0 -0 1 0 
1 30 39 0 -1 -0 0 
1 60 -0.5 0 -0 1 0 
1 30 10 0 -0 1 0 
1 5 20 0 -1 -0 0 
1 5 40 0 -1 -0 0 
1 10 10 0 -0 1 0 
1 60 39 -1 0 0 1 
1 100 0 0 0 0 1 
1 80 0 -0.5 -0 0 -1 
1 80 39 -1 0 0 1 
1 30 20 -1 0 0 1 
1 30 40 -1 0 0 1 
1 10 20 -1 0 0 1 
1 10 40 -1 0 0 1 
Polygon3D 0
PolygonOnTriangulations 0
Surfaces 13
1 0 0 0 1 0 -0 0 0 1 0 -1 0 
1 0 0 0 -0 1 0 0 0 1 1 0 -0 
1 0 0 3 0 0 1 1 0 -0 -0 1 0 
1 0 50 0 -0 1 0 0 0 1 1 0 -0 
1 0 0 0 0 0 1 1 0 -0 -0 1 0 
1 60 -1 -1 1 0 -0 0 0 1 0 -1 0 
1 100 0 0 1 0 -0 0 0 1 0 -1 0 
1 80 -1 -1 1 0 -0 0 0 1 0 -1 0 
1 60 39 -1 -0 1 0 0 0 1 1 0 -0 
1 30 20 -1 1 0 -0 0 0 1 0 -1 0 
1 10 20 -1 -0 1 0 0 0 1 1 0 -0 
1 10 40 -1 -0 1 0 0 0 1 1 0 -0 
1 10 20 -1 1 0 -0 0 0 1 0 -1 0 
Triangulations 0

TShapes 93
Ve
1e-007
0 0 3
0 0

0101101
*
Ve
1e-007
0 0 0
0 0

0101101
*
Ed
 1e-007 1 1 0
1  1 0 0 3
2  1 1 0 0 3
2  2 2 0 0 3
0

0101000
-93 0 +92 0 *
Ve
1e-007
0 50 3
0 0

0101101
*
Ed
 1e-007 1 1 0
1  2 0 0 50
2  3 1 0 0 50
2  4 3 0 0 50
0

0101000
-90 0 +93 0 *
Ve
1e-007
0 50 0
0 0

0101101
*
Ed
 1e-007 1 1 0
1  3 0 0 3
2  5 1 0 0 3
2  6 4 0 0 3
0

0101000
-90 0 +88 0 *
Ed
 1e-007 1 1 0
1  4 0 0 50
2  7 1 0 0 50
2  8 5 0 0 50
0

0101000
-88 0 +92 0 *
Wi

0101100
-91 0 -89 0 +87 0 +86 0 *
Fa
0  1e-007 1 0

0111000
+85 0 *
Ve
1e-007
60 0 0
0 0

0101101
*
Ed
 1e-007 1 1 0
1  5 0 0 60
2  9 2 0 0 60
2  10 5 0 0 60
0

0101000
+92 0 -83 0 *
Ve
1e-007
60 0 3
0 0

0101101
*
Ed
 1e-007 1 1 0
1  6 0 -3.5 -0.5
2  11 2 0 -3.5 -0.5
2  12 6 0 -3.5 -0.5
0

0101000
+81 0 -83 0 *
Ed
 1e-007 1 1 0
1  7 0 0 60
2  13 2 0 0 60
2  14 3 0 0 60
0

0101000
+93 0 -81 0 *
Wi

0101100
-82 0 +80 0 +79 0 +91 0 *
Fa
0  1e-007 2 0

0111000
+78 0 *
Ve
1e-007
100 50 3
0 0

0101101
*
Ed
 1e-007 1 1 0
1  8 0 0 100
2  15 4 0 0 100
2  16 3 0 0 100
0

0101000
-76 0 +90 0 *
Ve
1e-007
100 0 3
0 0

0101101
*
Ed
 1e-007 1 1 0
1  9 0 0 50
2  17 7 0 0 50
2  18 3 0 0 50
0

0101000
-76 0 +74 0 *
Ve
1e-007
80 0 3
0 0

0101101
*
Ed
 1e-007 1 1 0
1  7 0 80 100
2  13 2 0 80 100
2  14 3 0 80 100
0

0101000
+72 0 -74 0 *
Ve
1e-007
80 39 3
0 0

0101101
*
Ed
 1e-007 1 1 0
1  10 0 0.5 39.5
2  19 3 0 0.5 39.5
2  20 8 0 0.5 39.5
0

0101000
+72 0 -70 0 *
Ve
1e-007
60 39 3
0 0

0101101
*
Ed
 1e-007 1 1 0
1  11 0 -50 -30
2  21 3 0 -50 -30
2  22 9 0 -50 -30
0

0101000
+70 0 -68 0 *
Ed
 1e-007 1 1 0
1  12 0 0.5 39.5
2  23 3 0 0.5 39.5
2  24 6 0 0.5 39.5
0

0101000
+81 0 -68 0 *
Wi

0101100
-75 0 +73 0 +71 0 -69 0 -67 0 +66 0 +79 0 -89 0 *
Ve
1e-007
30 20 3
0 0

0101101
*
Ve
1e-007
30 40 3
0 0

0101101
*
Ed
 1e-007 1 1 0
1  13 0 10 30
2  25 3 0 10 30
2  26 10 0 10 30
0

0101000
+64 0 -63 0 *
Ve
1e-007
10 20 3
0 0

0101101
*
Ed
 1e-007 1 1 0
1  14 0 -25 -5
2  27 3 0 -25 -5
2  28 11 0 -25 -5
0

0101000
+64 0 -61 0 *
Ve
1e-007
10 40 3
0 0

0101101
*
Ed
 1e-007 1 1 0
1  15 0 -25 -5
2  29 3 0 -25 -5
2  30 12 0 -25 -5
0

0101000
+63 0 -59 0 *
Ed
 1e-007 1 1 0
1  16 0 10 30
2  31 3 0 10 30
2  32 13 0 10 30
0

0101000
+61 0 -59 0 *
Wi

0101100
-62 0 +60 0 -58 0 +57 0 *
Fa
0  1e-007 3 0

0111000
+65 0 +56 0 *
Ve
1e-007
100 50 0
0 0

0101101
*
Ed
 1e-007 1 1 0
1  17 0 0 100
2  33 4 0 0 100
2  34 5 0 0 100
0

0101000
-54 0 +88 0 *
Ed
 1e-007 1 1 0
1  18 0 0 3
2  35 7 0 0 3
2  36 4 0 0 3
0

0101000
-76 0 +54 0 *
Wi

0101100
-53 0 -52 0 +75 0 +87 0 *
Fa
0  1e-007 4 0

0111000
+51 0 *
Ve
1e-007
100 0 0
0 0

0101101
*
Ed
 1e-007 1 1 0
1  19 0 0 50
2  37 7 0 0 50
2  38 5 0 0 50
0

0101000
-54 0 +49 0 *
Ve
1e-007
80 0 0
0 0

0101101
*
Ed
 1e-007 1 1 0
1  5 0 80 100
2  9 2 0 80 100
2  10 5 0 80 100
0

0101000
+47 0 -49 0 *
Ve
1e-007
80 39 0
0 0

0101101
*
Ed
 1e-007 1 1 0
1  20 0 0.5 39.5
2  39 5 0 0.5 39.5
2  40 8 0 0.5 39.5
0

0101000
+47 0 -45 0 *
Ve
1e-007
60 39 0
0 0

0101101
*
Ed
 1e-007 1 1 0
1  21 0 -50 -30
2  41 5 0 -50 -30
2  42 9 0 -50 -30
0

0101000
+45 0 -43 0 *
Ed
 1e-007 1 1 0
1  22 0 0.5 39.5
2  43 5 0 0.5 39.5
2  44 6 0 0.5 39.5
0

0101000
+83 0 -43 0 *
Wi

0101100
-53 0 +48 0 +46 0 -44 0 -42 0 +41 0 +82 0 -86 0 *
Ve
1e-007
30 20 0
0 0

0101101
*
Ve
1e-007
30 40 0
0 0

0101101
*
Ed
 1e-007 1 1 0
1  23 0 10 30
2  45 5 0 10 30
2  46 10 0 10 30
0

0101000
+39 0 -38 0 *
Ve
1e-007
10 20 0
0 0

0101101
*
Ed
 1e-007 1 1 0
1  24 0 -25 -5
2  47 5 0 -25 -5
2  48 11 0 -25 -5
0

0101000
+39 0 -36 0 *
Ve
1e-007
10 40 0
0 0

0101101
*
Ed
 1e-007 1 1 0
1  25 0 -25 -5
2  49 5 0 -25 -5
2  50 12 0 -25 -5
0

0101000
+38 0 -34 0 *
Ed
 1e-007 1 1 0
1  26 0 10 30
2  51 5 0 10 30
2  52 13 0 10 30
0

0101000
+36 0 -34 0 *
Wi

0101100
-37 0 +35 0 -33 0 +32 0 *
Fa
0  1e-007 5 0

0111000
+40 0 +31 0 *
Ed
 1e-007 1 1 0
1  27 0 1 4
2  53 6 0 1 4
2  54 9 0 1 4
0

0101000
+43 0 -68 0 *
Wi

0101100
+29 0 +41 0 +80 0 -66 0 *
Fa
0  1e-007 6 0

0111000
+28 0 *
Ed
 1e-007 1 1 0
1  28 0 0 3
2  55 7 0 0 3
2  56 2 0 0 3
0

0101000
-74 0 +49 0 *
Wi

0101100
-26 0 -73 0 +52 0 +48 0 *
Fa
0  1e-007 7 0

0111000
+25 0 *
Ed
 1e-007 1 1 0
1  29 0 -3.5 -0.5
2  57 2 0 -3.5 -0.5
2  58 8 0 -3.5 -0.5
0

0101000
+72 0 -47 0 *
Wi

0101100
-46 0 -26 0 +71 0 -23 0 *
Fa
0  1e-007 2 0

0111000
+22 0 *
Ed
 1e-007 1 1 0
1  30 0 1 4
2  59 8 0 1 4
2  60 9 0 1 4
0

0101000
+45 0 -70 0 *
Wi

0101100
+20 0 +44 0 +23 0 -69 0 *
Fa
0  1e-007 8 0

0111000
+19 0 *
Wi

0101100
-20 0 -67 0 +29 0 +42 0 *
Fa
0  1e-007 9 0

0111000
+17 0 *
Ed
 1e-007 1 1 0
1  31 0 1 4
2  61 10 0 1 4
2  62 11 0 1 4
0

0101000
+39 0 -64 0 *
Ed
 1e-007 1 1 0
1  32 0 1 4
2  63 10 0 1 4
2  64 12 0 1 4
0

0101000
+38 0 -63 0 *
Wi

0101100
-15 0 -62 0 +14 0 +37 0 *
Fa
0  1e-007 10 0

0111000
+13 0 *
Ed
 1e-007 1 1 0
1  33 0 1 4
2  65 13 0 1 4
2  66 11 0 1 4
0

0101000
+36 0 -61 0 *
Wi

0101100
-15 0 -60 0 +11 0 +35 0 *
Fa
0  1e-007 11 0

0111000
+10 0 *
Ed
 1e-007 1 1 0
1  34 0 1 4
2  67 13 0 1 4
2  68 12 0 1 4
0

0101000
+34 0 -59 0 *
Wi

0101100
-14 0 -58 0 +8 0 +33 0 *
Fa
0  1e-007 12 0

0111000
+7 0 *
Wi

0101100
-11 0 -57 0 +8 0 +32 0 *
Fa
0  1e-007 13 0

0111000
+5 0 *
Sh

0101100
-84 0 -77 0 +55 0 +50 0 -30 0 +27 0 +24 0 -21 0 -18 0 -16 0 
-12 0 +9 0 -6 0 +4 0 *
So

0100000
+3 0 *
Co

1100000
+2 0 *

+1 0 
0

