DBRep_DrawableShape

CASCADE Topology V1, (c) Matra-Datavision
Locations 0
Curve2ds 21
1 3.5355339059327378 -3.5355339059327378 0 1 
1 -3.5355339059327378 3.5355339059327378 0 -1 
1 7.0710678118654755 -4.0824829046386295 -0.5 0.8660254037844386 
1 3.5355339059327378 -3.5355339059327378 -1 0 
1 -3.5355339059327378 3.5355339059327378 1 0 
8 -6.7322330470336311 5.2677669529663707
1 -1.4644660940672622 0.73223304703363112 0 -1 
8 -6.7322330470336311 5.2677669529663707
1 -0.73223304703363112 -5 -1 0 
1 3.5355339059327378 6.4644660940672622 -0.70710678118654757 -0.70710678118654757 
1 7.0710678118654755 -4.0824829046386295 -1 0 
8 -6.7322330470336311 5.2677669529663707
1 1.4644660940672622 -0.73223304703363112 0 1 
8 -6.7322330470336311 5.2677669529663707
1 -5 -0.73223304703363112 0 -1 
1 -3.5355339059327378 -6.4644660940672622 0.70710678118654757 0.70710678118654757 
1 -4.4408920985006262e-16 8.1649658092772608 -0.49999999999999989 -0.8660254037844386 
8 -12.020815280171309 4.9497474683058318
1 -1.7677669529663684 -1.0206207261596576 0.5 -0.86602540378443871 
8 -12.020815280171309 4.9497474683058318
1 -2.4999999999999996 -2.4999999999999996 0.70710678118654757 -0.70710678118654757 
1 3.5355339059327378 -3.5355339059327378 -1 0 
1 -3.5355339059327378 3.5355339059327378 1 0 
1 3.5355339059327378 6.4644660940672622 -0.70710678118654757 -0.70710678118654757 
1 7.0710678118654755 -4.0824829046386295 -1 0 
1 -3.5355339059327378 -6.4644660940672622 0.70710678118654757 0.70710678118654757 
1 -4.4408920985006262e-16 8.1649658092772608 -0.49999999999999989 -0.8660254037844386 
Curves 9
1 0 0 0 1 0 0 
1 0 0 0 0 1 0 
1 10 0 0 -0.70710678118654746 0.70710678118654746 0 
1 0 0 0 0 0 1 
1 4.2677669529663689 0 5 -1 0 0 
1 10 0 0 -0.70710678118654746 0 0.70710678118654746 
1 0 4.2677669529663689 5 0 -1 0 
1 0 10 0 0 -0.70710678118654746 0.70710678118654746 
1 2.5000000000000004 2.5000000000000004 5 0.70710678118654746 -0.70710678118654746 0 
Polygon3D 0
PolygonOnTriangulations 0
Surfaces 5
1 3.5355339059327378 3.5355339059327378 0 0 0 1 1 0 -0 -0 1 0 
1 3.5355339059327378 0 3.5355339059327378 -0 -1 -0 0 0 -1 1 -0 0 
1 0 3.5355339059327378 3.5355339059327378 1 0 0 -0 0 1 0 -1 0 
1 3.3333333333333335 3.3333333333333335 3.3333333333333335 0.57735026918962573 0.57735026918962573 0.57735026918962584 0.70710678118654757 0 -0.70710678118654746 -0.40824829046386302 0.81649658092772615 -0.40824829046386307 
1 5 5 5 0 0 1 1 0 -0 -0 1 0 
Triangulations 0

TShapes 40
Ve
1e-07
0 0 0
0 0

0101101
*
Ve
1e-07
10 0 0
0 0

0101101
*
Ed
 1e-07 1 1 0
1  1 0 0 10
2  1 2 0 0 10
0

0101000
+40 0 -39 0 *
Ve
1e-07
0 10 0
0 0

0101101
*
Ed
 1e-07 1 1 0
1  2 0 0 10
2  2 3 0 0 10
0

0101000
+40 0 -37 0 *
Ed
 1e-07 1 1 0
1  3 0 0 14.142135623731
2  3 4 0 0 14.142135623731
0

0101000
+39 0 -37 0 *
Wi

0101100
+38 0 -36 0 +35 0 *
Fa
0  1e-07 1 0

0111000
+34 0 *
Ve
1.5e-07
0 0 5
0 0

0101101
*
Ed
 1e-07 1 1 0
1  4 0 0 5
2  4 2 0 0 5
2  5 3 0 0 5
0

0101000
+40 0 -32 0 *
Ve
1.50000000888178e-07
5 0 5
0 0

0101101
*
Ed
 1.5e-07 1 1 0
1  5 0 -0.732233047033631 4.26776695296637
2  6 2 0 -0.732233047033631 4.26776695296637
2  7 5 0 -0.732233047033631 4.26776695296637
0

0101000
+30 0 -32 0 *
Ed
 1e-07 1 1 0
1  6 0 0 7.07106781186547
2  8 2 0 0 7.07106781186547
2  9 4 0 0 7.07106781186547
0

0101000
+39 0 -30 0 *
Wi

0101100
-31 0 +29 0 +28 0 +38 0 *
Fa
0  1e-07 2 0

0111000
+27 0 *
Ve
1.50000000888178e-07
0 5 5
0 0

0101101
*
Ed
 1.5e-07 1 1 0
1  7 0 -0.732233047033631 4.26776695296637
2  10 3 0 -0.732233047033631 4.26776695296637
2  11 5 0 -0.732233047033631 4.26776695296637
0

0101000
+25 0 -32 0 *
Ed
 1e-07 1 1 0
1  8 0 0 7.07106781186547
2  12 3 0 0 7.07106781186547
2  13 4 0 0 7.07106781186547
0

0101000
+37 0 -25 0 *
Wi

0101100
-31 0 +24 0 +23 0 +36 0 *
Fa
0  1e-07 3 0

0111000
+22 0 *
Ed
 1.5e-07 1 1 0
1  9 0 -3.53553390593274 3.53553390593274
2  14 4 0 -3.53553390593274 3.53553390593274
2  15 5 0 -3.53553390593274 3.53553390593274
0

0101000
+25 0 -30 0 *
Wi

0101100
-28 0 +20 0 +23 0 +35 0 *
Fa
0  1e-07 4 0

0111000
+19 0 *
Wi

0101100
-29 0 +24 0 -20 0 *
Fa
0  1e-07 5 0

0111000
+17 0 *
Sh

0101100
-33 0 +26 0 -21 0 +18 0 +16 0 *
So

0100000
+15 0 *
Ve
1e-07
0 0 10
0 0

0101101
*
Ed
 1e-07 1 1 0
1  4 0 5 10
2  16 2 0 5 10
2  17 3 0 5 10
0

0101000
+32 0 -13 0 *
Ed
 1e-07 1 1 0
1  6 0 7.07106781186547 14.142135623731
2  18 2 0 7.07106781186547 14.142135623731
2  19 4 0 7.07106781186547 14.142135623731
0

0101000
+30 0 -13 0 *
Wi

0101100
-12 0 +11 0 -29 0 *
Fa
0  1e-07 2 0

0111000
+10 0 *
Ed
 1e-07 1 1 0
1  8 0 7.07106781186547 14.142135623731
2  20 3 0 7.07106781186547 14.142135623731
2  21 4 0 7.07106781186547 14.142135623731
0

0101000
+25 0 -13 0 *
Wi

0101100
-12 0 +8 0 -24 0 *
Fa
0  1e-07 3 0

0111000
+7 0 *
Wi

0101100
-11 0 +8 0 -20 0 *
Fa
0  1e-07 4 0

0111000
+5 0 *
Sh

0101100
+9 0 -6 0 +4 0 -16 0 *
So

0100000
+3 0 *
CS

1101000
+14 0 +2 0 *

+1 0 