DBRep_DrawableShape

CASCADE Topology V1, (c) Matra-Datavision
Locations 0
Curve2ds 16
8 0 0.5
1 0 0 0 1 
8 0 0.5
1 0 0 1 0 
1 0.5 0 0 1 
1 0.5 0 0 1 
1 0 0.5 1 0 
1 0 0.5 1 0 
8 0.5 1
1 0 0 1 0 
8 0 0.5
1 1 0 0 1 
1 0 0.5 1 0 
1 0 0.5 1 0 
8 0.5 1
1 1 0 0 1 
8 0.5 1
1 0 1 1 0 
1 0.5 0 0 1 
1 0.5 0 0 1 
8 0 0.5
1 0 1 1 0 
8 0.5 1
1 0 0 0 1 
Curves 12
7 0 0  1 2 2  -10 -10 0  -10 0 0 
 0 2 0.5 2
7 0 0  1 2 2  -10 -10 0  0 -10 0 
 0 2 0.5 2
7 0 0  1 2 2  0 -10 0  0 0 10 
 0 2 0.5 2
7 0 0  1 2 2  -10 0 0  0 0 10 
 0 2 0.5 2
7 0 0  1 2 2  0 -10 0  10 -10 0 
 0.5 2 1 2
7 0 0  1 2 2  10 -10 0  10 0 0 
 0 2 0.5 2
7 0 0  1 2 2  0 0 10  10 0 0 
 0.5 2 1 2
7 0 0  1 2 2  10 0 0  10 10 0 
 0.5 2 1 2
7 0 0  1 2 2  0 10 0  10 10 0 
 0.5 2 1 2
7 0 0  1 2 2  0 0 10  0 10 0 
 0.5 2 1 2
7 0 0  1 2 2  -10 10 0  0 10 0 
 0 2 0.5 2
7 0 0  1 2 2  -10 0 0  -10 10 0 
 0.5 2 1 2
Polygon3D 0
PolygonOnTriangulations 0
Surfaces 4
9 0 0 0 0 1 1 2 2 2 2 -10 -10 0  -10 0 0  
0 -10 0  0 0 10  

0 2
0.5 2

0 2
0.5 2

9 0 0 0 0 1 1 2 2 2 2 0 -10 0  0 0 10  
10 -10 0  10 0 0  

0.5 2
1 2

0 2
0.5 2

9 0 0 0 0 1 1 2 2 2 2 -10 0 0  -10 10 0  
0 0 10  0 10 0  

0 2
0.5 2

0.5 2
1 2

9 0 0 0 0 1 1 2 2 2 2 0 0 10  0 10 0  
10 0 0  10 10 0  

0.5 2
1 2

0.5 2
1 2

Triangulations 0

TShapes 30
Ve
1e-07
-10 0 0
0 0

0101101
*
Ve
1e-07
-10 -10 0
0 0

0101101
*
Ed
 1e-07 1 1 0
1  1 0 0 0.5
2  1 1 0 0 0.5
0

0101000
-30 0 +29 0 *
Ve
1e-07
0 -10 0
0 0

0101101
*
Ed
 1e-07 1 1 0
1  2 0 0 0.5
2  2 1 0 0 0.5
0

0101000
+29 0 -27 0 *
Ve
1e-07
0 0 10
0 0

0101101
*
Ed
 1e-07 1 1 0
2  3 1 0 0 0.5
1  3 0 0 0.5
2  4 2 0 0 0.5
0

0101000
+27 0 -25 0 *
Ed
 1e-05 1 1 0
2  5 1 0 0 0.5
1  4 0 0 0.5
2  6 3 0 0 0.5
0

0101000
-25 0 +30 0 *
Wi

0101100
-28 0 +26 0 +24 0 -23 0 *
Fa
0  1e-07 1 0

0101000
+22 0 *
Ve
1e-07
10 -10 0
0 0

0101101
*
Ed
 1e-07 1 1 0
1  5 0 0.5 1
2  7 2 0 0.5 1
0

0101000
+27 0 -20 0 *
Ve
1e-07
10 0 0
0 0

0101101
*
Ed
 1e-07 1 1 0
1  6 0 0 0.5
2  8 2 0 0 0.5
0

0101000
+20 0 -18 0 *
Ed
 1e-05 1 1 0
2  9 2 0 0.5 1
1  7 0 0.5 1
2  10 4 0 0.5 1
0

0101000
-18 0 +25 0 *
Wi

0101100
+19 0 +17 0 -16 0 -24 0 *
Fa
0  1e-07 2 0

0101000
+15 0 *
Ve
1e-07
10 10 0
0 0

0101101
*
Ed
 1e-07 1 1 0
1  8 0 0.5 1
2  11 4 0 0.5 1
0

0101000
+18 0 -13 0 *
Ve
1e-07
0 10 0
0 0

0101101
*
Ed
 1e-07 1 1 0
1  9 0 0.5 1
2  12 4 0 0.5 1
0

0101000
-13 0 +11 0 *
Ed
 1e-07 1 1 0
2  13 4 0 0.5 1
1  10 0 0.5 1
2  14 3 0 0.5 1
0

0101000
-11 0 +25 0 *
Wi

0101100
+12 0 -10 0 -9 0 +16 0 *
Fa
0  1e-07 4 0

0101000
+8 0 *
Ve
1e-07
-10 10 0
0 0

0101101
*
Ed
 1e-07 1 1 0
1  11 0 0 0.5
2  15 3 0 0 0.5
0

0101000
-11 0 +6 0 *
Ed
 1e-07 1 1 0
1  12 0 0.5 1
2  16 3 0 0.5 1
0

0101000
-6 0 +30 0 *
Wi

0101100
-5 0 -4 0 +23 0 +9 0 *
Fa
0  1e-07 3 0

0101000
+3 0 *
Sh

1101000
+21 0 +14 0 +7 0 +2 0 *

+1 0 
0

