DBRep_DrawableShape

CASCADE Topology V1, (c) Matra-Datavision
Locations 0
Curve2ds 12
7 0 0  1 2 2  0 20.615528128088304  3.1415926535897931 20.615528128088304 
 0 2 3.1415926535897931 2
7 0 0  6 22 5  10 0  10.000000000000014 1.3089969389957508  9.7943840481854458 2.6179916916075574  9.3831467879003867 3.8866266572858565  8.7768750562430231 5.0744756997915754  7.996668423981812 6.1454671997491443  6.1454671997491417 7.9966684239818031  5.0744756997915816 8.7768750562430622  3.8866266572858463 9.3831467879003227  2.6179916916075667 9.7943840481855027  1.3089969389957523 9.9999999999999964  -1.3089969389957585 10.000000000000007  -2.6179916916075161 9.79438404818546  -3.8866266572859387 9.3831467879004098  -5.0744756997915026 8.776875056243  -6.145467199749171 7.9966684239818226  -7.9966684239817809 6.1454671997491426  -8.7768750562431315 5.0744756997915843  -9.3831467879002428 3.8866266572858357  -9.7943840481855595 2.6179916916075801  -9.9999999999999787 1.3089969389957448  -10 1.3322676295501878e-015 
 0 7 0.78539816339744828 5 1.5707963267948966 5 2.3561944901923448 5 3.1415926535897931 7
7 0 0  1 2 2  0 0  0 20.615528128088304 
 0 2 20.615528128088304 2
7 0 0  1 2 2  6.2831853071795862 0  6.2831853071795862 20.615528128088304 
 0 2 20.615528128088304 2
7 0 0  1 2 2  0 0  3.1415926535897931 0 
 0 2 3.1415926535897931 2
7 0 0  6 22 5  5 0  5.0000000000000071 0.65449846949787538  4.8971920240927229 1.3089958458037787  4.6915733939501933 1.9433133286429283  4.3884375281215116 2.5372378498957877  3.998334211990906 3.0727335998745722  3.0727335998745708 3.9983342119909016  2.5372378498957908 4.3884375281215311  1.9433133286429232 4.6915733939501614  1.3089958458037834 4.8971920240927513  0.65449846949787616 4.9999999999999982  -0.65449846949787926 5.0000000000000036  -1.3089958458037581 4.89719202409273  -1.9433133286429694 4.6915733939502049  -2.5372378498957513 4.3884375281215  -3.0727335998745855 3.9983342119909113  -3.9983342119908905 3.0727335998745713  -4.3884375281215657 2.5372378498957922  -4.6915733939501214 1.9433133286429178  -4.8971920240927798 1.30899584580379  -4.9999999999999893 0.65449846949787238  -5 6.6613381477509392e-016 
 0 7 0.78539816339744828 5 1.5707963267948966 5 2.3561944901923448 5 3.1415926535897931 7
7 0 0  1 2 2  3.1415926535897931 0  3.1415926535897931 20.615528128088304 
 0 2 20.615528128088304 2
7 0 0  1 2 2  3.1415926535897931 0  3.1415926535897931 20.615528128088304 
 0 2 20.615528128088304 2
7 0 0  1 2 2  3.1415926535897931 0  6.2831853071795862 0 
 3.1415926535897931 2 6.2831853071795862 2
7 0 0  6 22 5  -4.9999999999999991 6.6613381477509392e-016  -5.0000000000000266 -0.65449846949787882  -4.8971920240926901 -1.3089958458037674  -4.6915733939502262 -1.943313328642944  -4.3884375281214894 -2.5372378498957713  -3.9983342119909127 -3.0727335998745775  -3.0727335998745735 -3.9983342119909029  -2.5372378498957993 -4.3884375281215284  -1.9433133286429114 -4.6915733939501578  -1.3089958458037994 -4.8971920240927584  -0.65449846949787394 -4.9999999999999956  0.6544984694978716 -5.0000000000000062  1.3089958458037989 -4.8971920240927487  1.9433133286429107 -4.6915733939501614  2.5372378498957939 -4.3884375281215293  3.0727335998745748 -3.9983342119909007  3.9983342119908971 -3.0727335998745802  4.3884375281215453 -2.5372378498957877  4.691573393950125 -1.9433133286429236  4.8971920240927815 -1.3089958458037927  4.9999999999999858 -0.65449846949787549  4.9999999999999991 -1.1102230246251565e-015 
 3.1415926535897931 7 3.9269908169872414 5 4.7123889803846897 5 5.497787143782138 5 6.2831853071795862 7
7 0 0  1 2 2  3.1415926535897931 20.615528128088304  6.2831853071795862 20.615528128088304 
 3.1415926535897931 2 6.2831853071795862 2
7 0 0  6 22 5  -9.9999999999999982 1.3322676295501878e-015  -10.000000000000053 -1.3089969389957576  -9.7943840481853801 -2.6179916916075348  -9.3831467879004524 -3.8866266572858881  -8.7768750562429787 -5.0744756997915426  -7.9966684239818253 -6.145467199749155  -6.145467199749147 -7.9966684239818058  -5.0744756997915985 -8.7768750562430569  -3.8866266572858228 -9.3831467879003156  -2.6179916916075987 -9.7943840481855169  -1.3089969389957479 -9.9999999999999911  1.3089969389957432 -10.000000000000012  2.6179916916075978 -9.7943840481854973  3.8866266572858215 -9.3831467879003227  5.0744756997915879 -8.7768750562430586  6.1454671997491497 -7.9966684239818013  7.9966684239817942 -6.1454671997491603  8.7768750562430906 -5.0744756997915754  9.3831467879002499 -3.8866266572858472  9.7943840481855631 -2.6179916916075854  9.9999999999999716 -1.308996938995751  9.9999999999999982 -2.2204460492503131e-015 
 3.1415926535897931 7 3.9269908169872414 5 4.7123889803846897 5 5.497787143782138 5 6.2831853071795862 7
Curves 6
7 0 0  6 22 5  10 0 20  10.000000000000014 1.3089969389957508 20.000000000000036  9.7943840481854458 2.6179916916075574 19.999999999999872  9.3831467879003867 3.8866266572858565 20.000000000000149  8.7768750562430231 5.0744756997915754 19.999999999999908  7.996668423981812 6.1454671997491443 20.000000000000028  6.1454671997491417 7.9966684239818031 19.999999999999968  5.0744756997915816 8.7768750562430622 20.000000000000053  3.8866266572858463 9.3831467879003227 19.999999999999947  2.6179916916075667 9.7943840481855027 20.000000000000014  1.3089969389957523 9.9999999999999964 20.000000000000011  -1.3089969389957585 10.000000000000007 20.000000000000007  -2.6179916916075161 9.79438404818546 19.999999999999932  -3.8866266572859387 9.3831467879004098 20.000000000000156  -5.0744756997915026 8.776875056243 19.999999999999876  -6.145467199749171 7.9966684239818226 20.000000000000043  -7.9966684239817809 6.1454671997491426 19.999999999999975  -8.7768750562431315 5.0744756997915843 20.000000000000078  -9.3831467879002428 3.8866266572858357 19.999999999999901  -9.7943840481855595 2.6179916916075801 20.000000000000078  -9.9999999999999787 1.3089969389957448 19.999999999999968  -10 1.3322676295501878e-015 20 
 0 7 0.78539816339744828 5 1.5707963267948966 5 2.3561944901923448 5 3.1415926535897931 7
7 0 0  1 2 2  5 -1.2246467991473533e-015 0  10 -2.4492935982947065e-015 20 
 0 2 20.615528128088304 2
7 0 0  6 22 5  5 0 0  5.0000000000000071 0.65449846949787538 0  4.8971920240927229 1.3089958458037787 0  4.6915733939501933 1.9433133286429283 0  4.3884375281215116 2.5372378498957877 0  3.998334211990906 3.0727335998745722 0  3.0727335998745708 3.9983342119909016 0  2.5372378498957908 4.3884375281215311 0  1.9433133286429232 4.6915733939501614 0  1.3089958458037834 4.8971920240927513 0  0.65449846949787616 4.9999999999999982 0  -0.65449846949787926 5.0000000000000036 0  -1.3089958458037581 4.89719202409273 0  -1.9433133286429694 4.6915733939502049 0  -2.5372378498957513 4.3884375281215 0  -3.0727335998745855 3.9983342119909113 0  -3.9983342119908905 3.0727335998745713 0  -4.3884375281215657 2.5372378498957922 0  -4.6915733939501214 1.9433133286429178 0  -4.8971920240927798 1.30899584580379 0  -4.9999999999999893 0.65449846949787238 0  -5 6.6613381477509392e-016 0 
 0 7 0.78539816339744828 5 1.5707963267948966 5 2.3561944901923448 5 3.1415926535897931 7
7 0 0  1 2 2  -5 6.1232339957367673e-016 0  -10 1.2246467991473533e-015 20 
 0 2 20.615528128088304 2
7 0 0  6 22 5  -4.9999999999999991 6.6613381477509392e-016 0  -5.0000000000000266 -0.65449846949787882 0  -4.8971920240926901 -1.3089958458037674 0  -4.6915733939502262 -1.943313328642944 0  -4.3884375281214894 -2.5372378498957713 0  -3.9983342119909127 -3.0727335998745775 0  -3.0727335998745735 -3.9983342119909029 0  -2.5372378498957993 -4.3884375281215284 0  -1.9433133286429114 -4.6915733939501578 0  -1.3089958458037994 -4.8971920240927584 0  -0.65449846949787394 -4.9999999999999956 0  0.6544984694978716 -5.0000000000000062 0  1.3089958458037989 -4.8971920240927487 0  1.9433133286429107 -4.6915733939501614 0  2.5372378498957939 -4.3884375281215293 0  3.0727335998745748 -3.9983342119909007 0  3.9983342119908971 -3.0727335998745802 0  4.3884375281215453 -2.5372378498957877 0  4.691573393950125 -1.9433133286429236 0  4.8971920240927815 -1.3089958458037927 0  4.9999999999999858 -0.65449846949787549 0  4.9999999999999991 -1.1102230246251565e-015 0 
 3.1415926535897931 7 3.9269908169872414 5 4.7123889803846897 5 5.497787143782138 5 6.2831853071795862 7
7 0 0  6 22 5  -9.9999999999999982 1.3322676295501878e-015 20  -10.000000000000053 -1.3089969389957576 20.000000000000114  -9.7943840481853801 -2.6179916916075348 19.999999999999744  -9.3831467879004524 -3.8866266572858881 20.000000000000284  -8.7768750562429787 -5.0744756997915426 19.999999999999819  -7.9966684239818253 -6.145467199749155 20.000000000000053  -6.145467199749147 -7.9966684239818058 19.999999999999975  -5.0744756997915985 -8.7768750562430569 20.000000000000078  -3.8866266572858228 -9.3831467879003156 19.999999999999918  -2.6179916916075987 -9.7943840481855169 20.000000000000028  -1.3089969389957479 -9.9999999999999911 20.000000000000014  1.3089969389957432 -10.000000000000012 19.999999999999982  2.6179916916075978 -9.7943840481854973 20.000000000000107  3.8866266572858215 -9.3831467879003227 19.999999999999854  5.0744756997915879 -8.7768750562430586 20.000000000000099  6.1454671997491497 -7.9966684239818013 19.999999999999972  7.9966684239817942 -6.1454671997491603 20.000000000000028  8.7768750562430906 -5.0744756997915754 19.999999999999964  9.3831467879002499 -3.8866266572858472 20.000000000000007  9.7943840481855631 -2.6179916916075854 20.000000000000014  9.9999999999999716 -1.308996938995751 19.999999999999989  9.9999999999999982 -2.2204460492503131e-015 20 
 3.1415926535897931 7 3.9269908169872414 5 4.7123889803846897 5 5.497787143782138 5 6.2831853071795862 7
Polygon3D 0
PolygonOnTriangulations 0
Surfaces 4
9 0 0 0 0 10 3 11 4 2 2 4.9999999999999991 -4.0312059788362442e-015 -1.7763568394002505e-015  6.6666666666666634 -3.6663403252315049e-015 6.6666666666666661  8.3333333333333304 -3.4390870323694954e-015 13.333333333333332  9.9999999999999964 -3.0742213787647577e-015 20.000000000000007  
5.0000000000000853 1.5707963267950436 7.3718808835111101e-014  6.6666666666667691 2.0943951023932801 6.6666666666668739  8.3333333333334156 2.6179938779917435 13.333333333333716  10.000000000000128 3.1415926535901031 20.000000000000629  
4.4516901336586026 3.1415925171478052 -3.2983453319169174e-013  5.9355868448782196 4.1887948983905448 6.6666666666658392  7.4194835560978385 5.2359826530533127 13.333333333331906  8.9033802673173792 6.2831850342955535 19.999999999997584  
3.3550568161082741 4.4970686958495962 7.6370626460092995e-013  4.4734090881440318 5.996069654596484 6.6666666666683074  5.5917613601801941 7.4951364329513597 13.33333333333605  6.7101136322161441 8.994137391699411 20.000000000004746  
1.806797269407395 5.4218950728288249 -1.1835541738275148e-012  2.4090630258772148 7.229240444444212 6.6666666666645833  3.0113287823458887 9.036444774043634 13.333333333329957  3.613594538815462 10.843790145657197 19.999999999993999  
9.9786845453309433e-013 5.7513822530931487 1.2839615805243738e-012  3.7481129311345416e-013 7.6684499704663205 6.6666666666684806  1.6147083670148333e-012 9.5856967888117044 13.333333333336279  1.1439738045737653e-012 11.502764506186915 20.000000000005386  
-1.8067972694091321 5.4218950728291695 -1.0273978135308613e-012  -2.4090630258778813 7.2292404444445157 6.6666666666655523  -3.0113287823487243 9.0364447740441651 13.333333333331529  -3.613594538817436 10.843790145657849 19.999999999996451  
-3.3550568161071479 4.4970686958491504 6.0068623274227733e-013  -4.4734090881435637 5.9960696545960603 6.6666666666671386  -5.5917613601783041 7.4951364329506349 13.333333333334076  -6.7101136322148962 8.994137391698569 20.000000000001684  
-4.4516901336591097 3.1415925171480907 -2.506621208853481e-013  -5.9355868448784603 4.188794898390837 6.6666666666665382  -7.4194835560987276 5.2359826530537958 13.333333333333155  -8.9033802673179139 6.2831850342961069 19.999999999999499  
-4.9999999999999574 1.5707963267949618 5.8422402718051755e-014  -6.666666666666706 2.0943951023931984 6.6666666666666812  -8.3333333333331883 2.6179938779916001 13.333333333333336  -10.000000000000005 3.1415926535899397 20.000000000000085  
-4.9999999999999991 -2.8544129408204777e-015 -1.7763568394002505e-015  -6.6666666666666634 -3.0667765238470221e-015 6.6666666666666652  -8.3333333333333304 -2.2622939943537281e-015 13.333333333333334  -9.9999999999999964 -2.4746575773802737e-015 20  

0 11
3.1415926535897931 11

0 4
20.615528128088307 4

9 0 0 0 0 1 1 2 2 2 2 -10 -10 20  -10 10 20  
10 -10 20  10 10 20  

-10 2
10 2

-10 2
10 2

9 0 0 0 0 10 3 11 4 2 2 -5 -2.7998538546219337e-015 -1.7763568394002505e-015  -6.6666666666666607 -7.5285982417856664e-016 6.6666666666666652  -8.3333333333333393 7.5285982417856644e-016 13.333333333333329  -10 2.7998538546219337e-015 20  
-5.000000000000127 -1.5707963267950196 -9.5035090907914346e-014  -6.666666666666945 -2.0943951023933103 6.6666666666668233  -8.3333333333334174 -2.6179938779920291 13.333333333333536  -10.000000000000226 -3.1415926535900054 20.000000000000512  
-4.4516901336584294 -3.1415925171479118 3.6689992607871969e-013  -5.9355868448774993 -4.1887948983904097 6.6666666666660879  -7.4194835560978358 -5.2359826530521385 13.333333333332554  -8.9033802673170204 -6.2831850342959354 19.999999999998103  
-3.3550568161086907 -4.4970686958494452 -8.2682626177820533e-013  -4.4734090881457602 -5.9960696545968855 6.6666666666677248  -5.5917613601802048 -7.4951364329541423 13.333333333334716  -6.7101136322169381 -8.9941373916985423 20.000000000003482  
-1.8067972694067467 -5.4218950728289483 1.246036000227312e-012  -2.4090630258744223 -7.2292404444435405 6.6666666666653756  -3.0113287823459736 -9.0364447740390332 13.333333333331698  -3.6135945388142776 -10.843790145658609 19.999999999995751  
-1.7621459846850547e-012 -5.751382253093122 -1.3452539102272912e-012  -3.7108094375071361e-012 -7.6684499704670239 6.6666666666677878  -1.4299672557172067e-012 -9.5856967888172573 13.333333333334744  -2.497557716196761e-012 -11.50276450618516 20.000000000003688  
1.8067972694098335 -5.4218950728291633 1.0638556467279215e-012  2.4090630258809194 -7.229240444444077 6.6666666666659777  3.0113287823485315 -9.036444774039154 13.333333333332476  3.613594538818635 -10.843790145659471 19.999999999997797  
3.3550568161066567 -4.497068695849161 -6.2573882975009986e-013  4.4734090881414765 -5.9960696545961962 6.666666666666937  5.5917613601784062 -7.4951364329539469 13.333333333333632  6.7101136322140782 -8.9941373916974534 20.000000000000764  
4.4516901336593486 -3.1415925171481076 2.5552125573175017e-013  5.9355868448794711 -4.1887948983908556 6.6666666666666101  7.419483556098708 -5.2359826530522957 13.333333333333288  8.9033802673183171 -6.2831850342966309 19.999999999999922  
4.9999999999998934 -1.5707963267949632 -6.3948846218408146e-014  6.6666666666664307 -2.0943951023931833 6.6666666666666634  8.3333333333331776 -2.617993877991986 13.333333333333318  9.9999999999998845 -3.1415926535897998 19.999999999999979  
5 -2.7132599823582321e-015 -1.7763568394002505e-015  6.6666666666666607 -8.3945369644226827e-016 6.6666666666666652  8.3333333333333393 8.3945369644226787e-016 13.333333333333329  10 2.7132599823582321e-015 20  

3.1415926535897931 11
6.2831853071795862 11

0 4
20.615528128088307 4

9 0 0 0 0 1 1 2 2 2 2 -5 -5 0  -5 5 0  
5 -5 0  5 5 0  

-5 2
5 2

-5 2
5 2

Triangulations 0

TShapes 20
Ve
1e-005
-10 1.22464679914735e-015 20
0 0

0101100
*
Ve
1.47563687497118e-007
10 -2.44929359829471e-015 20
0 0

0101100
*
Ed
 1.47563686397079e-007 1 1 0
1  1 0 0 3.14159265358979
2  1 1 0 0 3.14159265358979
2  2 2 0 0 3.14159265358979
0

0101000
-20 0 +19 0 *
Ve
1.00005e-007
5 -1.22464679914735e-015 0
0 0

0101100
*
Ed
 1e-007 1 1 0
1  2 0 0 20.6155281280883
2  3 1 0 0 20.6155281280883
2  4 3 0 0 20.6155281280883
0

0101000
-19 0 +17 0 *
Ve
1e-005
-5 6.12323399573677e-016 0
0 0

0101100
*
Ed
 1.00005e-007 1 1 0
1  3 0 0 3.14159265358979
2  5 1 0 0 3.14159265358979
2  6 4 0 0 3.14159265358979
0

0101000
+17 0 -15 0 *
Ed
 1e-005 1 1 0
1  4 0 0 20.6155281280883
2  7 1 0 0 20.6155281280883
2  8 3 0 0 20.6155281280883
0

0101000
+15 0 -20 0 *
Wi

0101100
-18 0 -16 0 +14 0 +13 0 *
Fa
0  1e-007 1 0

0101000
+12 0 *
Ed
 1.00005e-007 1 1 0
1  5 0 3.14159265358979 6.28318530717959
2  9 3 0 3.14159265358979 6.28318530717959
2  10 4 0 3.14159265358979 6.28318530717959
0

0101000
+15 0 -17 0 *
Ed
 1.47563687497118e-007 1 1 0
1  6 0 3.14159265358979 6.28318530717959
2  11 3 0 3.14159265358979 6.28318530717959
2  12 2 0 3.14159265358979 6.28318530717959
0

0101000
-19 0 +20 0 *
Wi

0101100
+10 0 +16 0 -9 0 -13 0 *
Fa
0  1e-007 3 0

0101000
+8 0 *
Wi

0101000
+18 0 +9 0 *
Fa
0  1e-007 2 0

0101000
+6 0 *
Wi

0101000
-14 0 -10 0 *
Fa
0  1e-007 4 0

0101000
-4 0 *
Sh

0101000
+11 0 +7 0 +5 0 -3 0 *
So

1100000
+2 0 *

+1 0 