DBRep_DrawableShape

CASCADE Topology V1, (c) Matra-Datavision
Locations 0
Curve2ds 14
1 0 0 0 1 
1 0 1 1 0 
1 0 -1 1 0 
1 0 1 1 0 
1 1 0 0 1 
1 0 1 1 0 
1 0 -1 1 0 
1 0 0 1 0 
1 0 0 0 -1 
1 0 0 0 1 
1 0 0 0 -1 
1 1 0 0 1 
1 0 0 0 1 
1 0 0 1 0 
Curves 7
1 0 1 0 1 0 -0 
1 1 1 0 0 0 1 
1 0 1 1 1 0 -0 
1 0 1 0 0 0 1 
1 0 0 0 -0 1 0 
1 1 0 0 -0 1 0 
1 0 0 0 1 0 -0 
Polygon3D 0
PolygonOnTriangulations 6
2 4 3 
p 0.00173205115397904 1 0 1 
2 2 3 
p 0.00173205115397904 1 0 1 
2 4 3 
p 0.00173205115397904 1 0 1 
2 1 4 
p 0.00173205115397904 1 0 1 
2 1 4 
p 0.00173205115397904 1 0 1 
2 1 2 
p 0.00173205115397904 1 0 1 
Surfaces 6
1 0 1 0 -0 1 0 0 0 1 1 0 -0 
1 0 0 0 0 0 1 1 0 -0 -0 1 0 
1 1 0 0 1 0 -0 0 0 1 0 -1 0 
1 0 0 1 0 0 1 1 0 -0 -0 1 0 
1 0 0 0 1 0 -0 0 0 1 0 -1 0 
1 0 0 0 -0 1 0 0 0 1 1 0 -0 
Triangulations 4
4 2 1 0
1 0 0 1 0 1 1 1 1 1 1 0 0 0 1 0 1 -1 0 -1 2 4 3 2 1 4 
4 2 1 0
0 0 1 0 1 1 1 1 1 1 0 1 0 0 0 1 1 1 1 0 3 2 1 3 1 4 
4 2 1 0
0 0 0 0 0 1 0 1 1 0 1 0 0 0 1 0 1 -1 0 -1 2 4 3 2 1 4 
4 2 1 0
0 0 0 1 0 0 1 0 1 0 0 1 0 0 0 1 1 1 1 0 3 2 1 3 1 4 

TShapes 19
Ve
1e-007
1 1 0
0 0

0101101
*
Ve
1e-007
0 1 0
0 0

0101101
*
Ed
 1e-007 1 1 0
1  1 0 0 1
2  1 1 0 0 1
2  2 2 0 0 1
0

0101000
-19 0 +18 0 *
Ve
1e-007
1 1 1
0 0

0101101
*
Ed
 1e-007 1 1 0
1  2 0 0 1
2  3 3 0 0 1
2  4 1 0 0 1
6  1 1 0
0

0101000
-16 0 +19 0 *
Ve
1e-007
0 1 1
0 0

0101101
*
Ed
 1e-007 1 1 0
1  3 0 0 1
2  5 1 0 0 1
2  6 4 0 0 1
6  2 2 0
0

0101000
-16 0 +14 0 *
Ed
 1e-007 1 1 0
1  4 0 0 1
2  7 5 0 0 1
2  8 1 0 0 1
6  3 3 0
0

0101000
-14 0 +18 0 *
Wi

0101100
-17 0 -15 0 +13 0 +12 0 *
Fa
0  1e-007 1 0

0101000
+11 0 *
Ve
1e-007
0 0 0
0 0

0101101
*
Ed
 1e-007 1 1 0
1  5 0 0 1
2  9 5 0 0 1
2  10 2 0 0 1
6  4 3 0
0

0101000
-18 0 +9 0 *
Ve
1e-007
1 0 0
0 0

0101101
*
Ed
 1e-007 1 1 0
1  6 0 0 1
2  11 3 0 0 1
2  12 2 0 0 1
6  5 1 0
0

0101000
-19 0 +7 0 *
Ed
 1e-007 1 1 0
1  7 0 0 1
2  13 6 0 0 1
2  14 2 0 0 1
6  6 4 0
0

0101000
-7 0 +9 0 *
Wi

0101100
-8 0 -17 0 +6 0 +5 0 *
Fa
0  1e-007 2 0

0101000
+4 0 *
Sh

0101000
+10 0 -3 0 *
So

1100000
+2 0 *

+1 0 