DBRep_DrawableShape

CASCADE Topology V1, (c) Matra-Datavision
Locations 0
Curve2ds 5
7 0 0  1 2 2  0 22.360679774997898  6.2831853071795862 22.360679774997898 
 0 2 6.2831853071795862 2
7 0 0  6 42 9  10.000000000000004 0  10.000000000000018 1.3089969389957539  9.7943840481854458 2.6179916916075445  9.3831467879004027 3.8866266572858787  8.776875056243016 5.074475699791555  7.9966684239818182 6.1454671997491532  6.1454671997491372 7.9966684239817987  5.0744756997915896 8.7768750562430782  3.8866266572858437 9.3831467879003121  2.6179916916075667 9.794384048185508  1.3089969389957516 10  -1.3089969389957548 10.000000000000011  -2.6179916916075245 9.794384048185476  -3.8866266572859303 9.3831467879003956  -5.0744756997915061 8.7768750562430142  -6.1454671997491692 7.9966684239818244  -7.996668423981788 6.1454671997491426  -8.7768750562431244 5.0744756997915941  -9.383146787900241 3.886626657285829  -9.7943840481855684 2.6179916916075849  -9.9999999999999698 1.3089969389957481  -10.000000000000041 -1.3089969389957541  -9.7943840481854121 -2.6179916916075356  -9.3831467879004311 -3.8866266572858952  -8.776875056243 -5.0744756997915319  -7.996668423981828 -6.1454671997491648  -6.1454671997491399 -7.996668423981788  -5.0744756997916234 -8.7768750562431084  -3.8866266572857984 -9.3831467879002606  -2.6179916916076116 -9.7943840481855542  -1.308996938995745 -9.9999999999999858  1.3089969389957421 -10.000000000000009  2.6179916916076094 -9.7943840481855204  3.8866266572858015 -9.3831467879003014  5.0744756997916109 -8.7768750562430711  6.1454671997491417 -7.9966684239817987  7.9966684239818102 -6.1454671997491603  8.7768750562430604 -5.074475699791579  9.3831467879002979 -3.8866266572858419  9.7943840481855435 -2.6179916916075903  9.9999999999999787 -1.3089969389957501  10.000000000000002 -2.6645352591003757e-015 
 0 7 0.78539816339744828 5 1.5707963267948966 5 2.3561944901923448 5 3.1415926535897931 5 3.9269908169872414 5 4.7123889803846897 5 5.497787143782138 5 6.2831853071795862 7
7 0 0  1 2 2  6.2831853071795862 0  6.2831853071795862 22.360679774997898 
 0 2 22.360679774997898 2
7 0 0  1 2 2  0 0  0 22.360679774997898 
 0 2 22.360679774997898 2
7 0 0  1 2 2  0 0  6.2831853071795862 0 
 0 2 6.2831853071795862 2
Curves 2
7 0 0  6 42 9  10.000000000000004 0 20.000000000000004  10.000000000000018 1.3089969389957539 20.000000000000036  9.7943840481854458 2.6179916916075445 19.999999999999876  9.3831467879004027 3.8866266572858787 20.00000000000016  8.776875056243016 5.074475699791555 19.999999999999904  7.9966684239818182 6.1454671997491532 20.000000000000032  6.1454671997491372 7.9966684239817987 19.999999999999961  5.0744756997915896 8.7768750562430782 20.000000000000089  3.8866266572858437 9.3831467879003121 19.999999999999929  2.6179916916075667 9.794384048185508 20.000000000000028  1.3089969389957516 10 20.000000000000004  -1.3089969389957548 10.000000000000011 20.000000000000014  -2.6179916916075245 9.794384048185476 19.999999999999908  -3.8866266572859303 9.3831467879003956 20.000000000000213  -5.0744756997915061 8.7768750562430142 19.999999999999837  -6.1454671997491692 7.9966684239818244 20.00000000000006  -7.996668423981788 6.1454671997491426 19.999999999999968  -8.7768750562431244 5.0744756997915941 20.000000000000128  -9.383146787900241 3.886626657285829 19.999999999999833  -9.7943840481855684 2.6179916916075849 20.000000000000135  -9.9999999999999698 1.3089969389957481 19.999999999999943  -10.000000000000041 -1.3089969389957541 20.000000000000089  -9.7943840481854121 -2.6179916916075356 19.999999999999794  -9.3831467879004311 -3.8866266572858952 20.000000000000256  -8.776875056243 -5.0744756997915319 19.999999999999822  -7.996668423981828 -6.1454671997491648 20.000000000000057  -6.1454671997491399 -7.996668423981788 19.999999999999982  -5.0744756997916234 -8.7768750562431084 20.000000000000064  -3.8866266572857984 -9.3831467879002606 19.999999999999936  -2.6179916916076116 -9.7943840481855542 20.000000000000053  -1.308996938995745 -9.9999999999999858 19.999999999999982  1.3089969389957421 -10.000000000000009 20.000000000000025  2.6179916916076094 -9.7943840481855204 20.000000000000018  3.8866266572858015 -9.3831467879003014 19.999999999999975  5.0744756997916109 -8.7768750562430711 20.000000000000039  6.1454671997491417 -7.9966684239817987 19.999999999999975  7.9966684239818102 -6.1454671997491603 20.000000000000039  8.7768750562430604 -5.074475699791579 19.99999999999995  9.3831467879002979 -3.8866266572858419 20.00000000000005  9.7943840481855435 -2.6179916916075903 19.999999999999972  9.9999999999999787 -1.3089969389957501 20.000000000000011  10.000000000000002 -2.6645352591003757e-015 20.000000000000004 
 0 7 0.78539816339744828 5 1.5707963267948966 5 2.3561944901923448 5 3.1415926535897931 5 3.9269908169872414 5 4.7123889803846897 5 5.497787143782138 5 6.2831853071795862 7
7 0 0  1 2 2  0 0 0  10.000000000000002 -2.4492935982947065e-015 20.000000000000004 
 0 2 22.360679774997898 2
Polygon3D 0
PolygonOnTriangulations 0
Surfaces 2
9 0 0 0 0 13 3 14 4 2 2 -8.8817841970012523e-015 -8.5487805128267655e-016 0  3.3333333333333299 5.5881857804930055e-016 6.6666666666666652  6.6666666666666661 3.8820735204513252e-015 13.333333333333334  10.000000000000007 5.2957701497833027e-015 20  
5.9937131909413531e-014 -3.4425987466327703e-013 -2.9142045888471969e-013  3.3333333333339543 1.6110731556864777 6.6666666666668108  6.666666666667501 3.2221463113735105 13.333333333332131  10.000000000000243 4.8332194670608848 20.000000000000547  
-2.9463681767594932e-013 1.4692560523645407e-012 1.3252492649785027e-012  2.4897727727774712 3.2221469556228115 6.6666666666658605  4.979545545556701 6.4442939112429061 13.333333333338583  7.469318318339619 9.6664408668618034 19.99999999999724  
7.4705179974696923e-013 -3.6830372989866021e-012 -3.73243890394347e-012  0.80270187281083294 4.3513753308760679 6.6666666666694221  1.60540374561729 8.7027506617603727 13.333333333319008  2.4081056184136314 13.054125992646782 20.000000000007908  
-1.4619132432633561e-012 6.7643450469633169e-012 7.7557061426113001e-012  -1.4254039332873885 4.5169719815497045 6.6666666666593741  -2.8508078665666039 9.0339439630811729 13.333333333361638  -4.276211799826001 13.550915944610681 19.999999999982951  
2.2661508629704651e-012 -9.7889641503475555e-012 -1.2690324653158347e-011  -3.5880708085564677 3.4482289191200608 6.666666666682163  -7.1761416171250865 6.8964578382710009 13.33333333329176  -10.764212425723256 10.344686757422332 20.000000000030909  
-2.8942675033887293e-012 1.1672650528616097e-011 1.671995865282474e-011  -4.9456665987485673 1.2981589081250944 6.6666666666409515  -9.8913331974820444 2.5963178162090013 13.333333333379557  -14.836999796181377 3.8944767242944294 19.99999999995326  
3.0336739892853888e-012 -1.1658511172571111e-011 -1.7856121582305273e-011  -4.9456665987071728 -1.2981589081265468 6.6666666666994381  -9.8913331974298355 -2.5963178162093437 13.333333333293607  -14.8369997961836 -3.8944767242942659 20.000000000056694  
-2.638486932417433e-012 9.75384343419303e-012 1.5334904389080936e-011  -3.5880708085901269 -3.4482289191165392 6.6666666666347609  -7.1761416171672483 -6.8964578382699937 13.333333333359999  -10.76421242572189 -10.34468675742243 19.999999999946173  
1.8775391853011128e-012 -6.7047702739712976e-012 -1.0413980134126142e-011  -1.4254039332654842 -4.5169719815534703 6.6666666666902898  -2.8508078665395544 -9.0339439630825549 13.333333333319311  -4.2762117998267026 -13.550915944611148 20.000000000039247  
-1.0938309099099825e-012 3.6049692829985059e-012 5.4233553790674545e-012  0.80270187279977068 -4.3513753308734993 6.666666666653609  1.605403745603923 -8.7027506617592376 13.333333333339116  2.4081056184141016 -13.054125992646025 19.999999999978662  
4.7694021286144269e-013 -1.3953594979448655e-012 -2.040294956743239e-012  2.4897727727815346 -3.2221469556239195 6.6666666666717589  4.9795455455614821 -6.4442939112434345 13.333333333331513  7.4693183183393153 -9.666440866862267 20.000000000008153  
-1.3897757773484121e-013 3.1398018549643037e-013 4.5559453645617993e-013  3.333333333333063 -1.6110731556862223 6.6666666666654963  6.6666666666664698 -3.2221463113733875 13.333333333333702  10.00000000000035 -4.8332194670607596 19.999999999998163  
-7.1054273576013837e-015 8.9892738293081871e-016 -1.7763568393989303e-015  3.333333333333329 -1.108526615105002e-015 6.6666666666666661  6.6666666666666652 -1.2966279208232382e-015 13.333333333333336  10.000000000000004 -3.3040819188614681e-015 20.000000000000004  

0 14
6.2831853071795862 14

0 4
22.360679774997898 4

9 0 0 0 0 1 1 2 2 2 2 -10.000000000000002 -10.000000000000002 20.000000000000004  -10.000000000000002 10.000000000000002 20.000000000000004  
10.000000000000002 -10.000000000000002 20.000000000000004  10.000000000000002 10.000000000000002 20.000000000000004  

-10.000000000000002 2
10.000000000000002 2

-10.000000000000002 2
10.000000000000002 2

Triangulations 0

TShapes 11
Ve
1.9280081738263e-007
10 -2.44929359829471e-015 20
0 0

0101100
*
Ed
 1.9280081738263e-007 1 1 0
1  1 0 0 6.28318530717959
2  1 1 0 0 6.28318530717959
2  2 2 0 0 6.28318530717959
0

0101100
+11 0 -11 0 *
Ve
1e-007
0 0 0
0 0

0101100
*
Ed
 1e-007 1 1 0
1  2 0 0 22.3606797749979
3  3 4CN 1 0 0 22.3606797749979
0

0101000
-11 0 +9 0 *
Ed
 1e-007 1 1 1
2  5 1 0 0 6.28318530717959
0

0101100
+9 0 -9 0 *
Wi

0101100
-10 0 -8 0 +7 0 +8 0 *
Fa
0  1e-007 1 0

0101000
+6 0 *
Wi

0101000
+10 0 *
Fa
0  1e-007 2 0

0101000
+4 0 *
Sh

0101000
+5 0 +3 0 *
So

1100000
+2 0 *

+1 0 