DBRep_DrawableShape

CASCADE Topology V1, (c) Matra-Datavision
Locations 0
Curve2ds 24
7 0 0  1 2 2  3.1415926535897931 20  4.7123889803846897 20 
 3.1415926535897931 2 4.7123889803846897 2
7 0 0  6 12 3  -9.9999999999999982 1.3322676295501878e-015  -10.000000000000053 -1.3089969389957576  -9.7943840481853801 -2.6179916916075348  -9.3831467879004524 -3.8866266572858881  -8.7768750562429787 -5.0744756997915426  -7.9966684239818253 -6.1454671997491559  -6.145467199749147 -7.9966684239818022  -5.0744756997915985 -8.7768750562430604  -3.8866266572858228 -9.3831467879003085  -2.6179916916075987 -9.794384048185524  -1.3089969389957481 -9.999999999999984  -1.4943805815298629e-015 -10.000000000000002 
 3.1415926535897931 7 3.9269908169872414 5 4.7123889803846897 7
7 0 0  1 2 2  3.1415926535897931 0  3.1415926535897931 20 
 0 2 20 2
7 0 0  1 2 2  3.1415926535897931 0  3.1415926535897931 20 
 0 2 20 2
7 0 0  1 2 2  3.1415926535897931 0  4.7123889803846897 0 
 3.1415926535897931 2 4.7123889803846897 2
7 0 0  6 12 3  -9.9999999999999982 1.3322676295501878e-015  -10.000000000000053 -1.3089969389957576  -9.7943840481853801 -2.6179916916075348  -9.3831467879004524 -3.8866266572858881  -8.7768750562429787 -5.0744756997915426  -7.9966684239818253 -6.1454671997491559  -6.145467199749147 -7.9966684239818022  -5.0744756997915985 -8.7768750562430604  -3.8866266572858228 -9.3831467879003085  -2.6179916916075987 -9.794384048185524  -1.3089969389957481 -9.999999999999984  -1.4943805815298629e-015 -10.000000000000002 
 3.1415926535897931 7 3.9269908169872414 5 4.7123889803846897 7
7 0 0  1 2 2  4.7123889803846897 0  4.7123889803846897 20 
 0 2 20 2
7 0 0  1 2 2  4.7123889803846897 0  4.7123889803846897 20 
 0 2 20 2
7 0 0  1 2 2  1.5707963267948966 20  3.1415926535897931 20 
 1.5707963267948966 2 3.1415926535897931 2
7 0 0  6 12 3  4.4408920985006262e-016 10  -1.3089969389957565 10.000000000000004  -2.6179916916075325 9.7943840481854814  -3.8866266572859125 9.3831467879003707  -5.0744756997915212 8.7768750562430302  -6.1454671997491674 7.9966684239818138  -7.9966684239817782 6.1454671997491426  -8.7768750562431439 5.0744756997915887  -9.383146787900225 3.8866266572858277  -9.7943840481855649 2.617991691607588  -9.9999999999999769 1.3089969389957414  -10 1.3322676295501878e-015 
 1.5707963267948966 7 2.3561944901923448 5 3.1415926535897931 7
7 0 0  1 2 2  1.5707963267948966 0  1.5707963267948966 20 
 0 2 20 2
7 0 0  1 2 2  1.5707963267948966 0  1.5707963267948966 20 
 0 2 20 2
7 0 0  1 2 2  1.5707963267948966 0  3.1415926535897931 0 
 1.5707963267948966 2 3.1415926535897931 2
7 0 0  6 12 3  4.4408920985006262e-016 10  -1.3089969389957565 10.000000000000004  -2.6179916916075325 9.7943840481854814  -3.8866266572859125 9.3831467879003707  -5.0744756997915212 8.7768750562430302  -6.1454671997491674 7.9966684239818138  -7.9966684239817782 6.1454671997491426  -8.7768750562431439 5.0744756997915887  -9.383146787900225 3.8866266572858277  -9.7943840481855649 2.617991691607588  -9.9999999999999769 1.3089969389957414  -10 1.3322676295501878e-015 
 1.5707963267948966 7 2.3561944901923448 5 3.1415926535897931 7
7 0 0  1 2 2  0 20  1.5707963267948966 20 
 0 2 1.5707963267948966 2
7 0 0  6 12 3  10 0  10.000000000000014 1.3089969389957523  9.7943840481854458 2.6179916916075543  9.3831467879003867 3.8866266572858628  8.7768750562430231 5.0744756997915692  7.996668423981812 6.145467199749147  6.1454671997491426 7.9966684239817987  5.0744756997915825 8.7768750562430728  3.8866266572858419 9.3831467879003103  2.6179916916075729 9.7943840481855133  1.3089969389957465 9.9999999999999929  4.4408920985006262e-016 10 
 0 7 0.78539816339744828 5 1.5707963267948966 7
7 0 0  1 2 2  0 0  0 20 
 0 2 20 2
7 0 0  1 2 2  6.2831853071795862 0  6.2831853071795862 20 
 0 2 20 2
7 0 0  1 2 2  0 0  1.5707963267948966 0 
 0 2 1.5707963267948966 2
7 0 0  6 12 3  10 0  10.000000000000014 1.3089969389957523  9.7943840481854458 2.6179916916075543  9.3831467879003867 3.8866266572858628  8.7768750562430231 5.0744756997915692  7.996668423981812 6.145467199749147  6.1454671997491426 7.9966684239817987  5.0744756997915825 8.7768750562430728  3.8866266572858419 9.3831467879003103  2.6179916916075729 9.7943840481855133  1.3089969389957465 9.9999999999999929  4.4408920985006262e-016 10 
 0 7 0.78539816339744828 5 1.5707963267948966 7
7 0 0  1 2 2  4.7123889803846897 0  6.2831853071795862 0 
 4.7123889803846897 2 6.2831853071795862 2
7 0 0  6 12 3  -1.7763568394002418e-015 -10.000000000000002  1.3089969389957468 -10.00000000000003  2.6179916916075876 -9.7943840481854423  3.886626657285833 -9.3831467879003956  5.0744756997915825 -8.776875056243016  6.1454671997491479 -7.9966684239818093  7.9966684239818058 -6.1454671997491577  8.7768750562430462 -5.0744756997915701  9.3831467879003156 -3.8866266572858579  9.7943840481855098 -2.6179916916075783  9.9999999999999929 -1.3089969389957541  9.9999999999999982 -2.2204460492503131e-015 
 4.7123889803846897 7 5.497787143782138 5 6.2831853071795862 7
7 0 0  1 2 2  4.7123889803846897 20  6.2831853071795862 20 
 4.7123889803846897 2 6.2831853071795862 2
7 0 0  6 12 3  -1.7763568394002418e-015 -10.000000000000002  1.3089969389957468 -10.00000000000003  2.6179916916075876 -9.7943840481854423  3.886626657285833 -9.3831467879003956  5.0744756997915825 -8.776875056243016  6.1454671997491479 -7.9966684239818093  7.9966684239818058 -6.1454671997491577  8.7768750562430462 -5.0744756997915701  9.3831467879003156 -3.8866266572858579  9.7943840481855098 -2.6179916916075783  9.9999999999999929 -1.3089969389957541  9.9999999999999982 -2.2204460492503131e-015 
 4.7123889803846897 7 5.497787143782138 5 6.2831853071795862 7
Curves 12
7 0 0  6 12 3  -9.9999999999999982 1.3322676295501878e-015 20  -10.000000000000053 -1.3089969389957576 20.00000000000011  -9.7943840481853801 -2.6179916916075348 19.999999999999751  -9.3831467879004524 -3.8866266572858881 20.000000000000277  -8.7768750562429787 -5.0744756997915426 19.999999999999819  -7.9966684239818253 -6.1454671997491559 20.000000000000057  -6.145467199749147 -7.9966684239818022 19.999999999999964  -5.0744756997915985 -8.7768750562430604 20.000000000000089  -3.8866266572858228 -9.3831467879003085 19.999999999999897  -2.6179916916075987 -9.794384048185524 20.000000000000053  -1.3089969389957481 -9.999999999999984 19.999999999999996  -1.4943805815298629e-015 -10.000000000000002 20 
 3.1415926535897931 7 3.9269908169872414 5 4.7123889803846897 7
7 0 0  1 2 2  -10 1.2246467991473533e-015 0  -10 1.2246467991473533e-015 20 
 0 2 20 2
7 0 0  6 12 3  -9.9999999999999982 1.3322676295501878e-015 0  -10.000000000000053 -1.3089969389957576 0  -9.7943840481853801 -2.6179916916075348 0  -9.3831467879004524 -3.8866266572858881 0  -8.7768750562429787 -5.0744756997915426 0  -7.9966684239818253 -6.1454671997491559 0  -6.145467199749147 -7.9966684239818022 0  -5.0744756997915985 -8.7768750562430604 0  -3.8866266572858228 -9.3831467879003085 0  -2.6179916916075987 -9.794384048185524 0  -1.3089969389957481 -9.999999999999984 0  -1.4943805815298629e-015 -10.000000000000002 0 
 3.1415926535897931 7 3.9269908169872414 5 4.7123889803846897 7
7 0 0  1 2 2  -1.8369701987210296e-015 -10 0  -1.8369701987210296e-015 -10 20 
 0 2 20 2
7 0 0  6 12 3  4.4408920985006262e-016 10 20  -1.3089969389957565 10.000000000000004 20.000000000000018  -2.6179916916075325 9.7943840481854814 19.999999999999911  -3.8866266572859125 9.3831467879003707 20.000000000000206  -5.0744756997915212 8.7768750562430302 19.999999999999829  -6.1454671997491674 7.9966684239818138 20.000000000000064  -7.9966684239817782 6.1454671997491426 19.999999999999947  -8.7768750562431439 5.0744756997915887 20.000000000000146  -9.383146787900225 3.8866266572858277 19.999999999999829  -9.7943840481855649 2.617991691607588 20.000000000000103  -9.9999999999999769 1.3089969389957414 19.999999999999975  -10 1.3322676295501878e-015 20 
 1.5707963267948966 7 2.3561944901923448 5 3.1415926535897931 7
7 0 0  1 2 2  6.1232339957367663e-016 10 0  6.1232339957367663e-016 10 20 
 0 2 20 2
7 0 0  6 12 3  4.4408920985006262e-016 10 0  -1.3089969389957565 10.000000000000004 0  -2.6179916916075325 9.7943840481854814 0  -3.8866266572859125 9.3831467879003707 0  -5.0744756997915212 8.7768750562430302 0  -6.1454671997491674 7.9966684239818138 0  -7.9966684239817782 6.1454671997491426 0  -8.7768750562431439 5.0744756997915887 0  -9.383146787900225 3.8866266572858277 0  -9.7943840481855649 2.617991691607588 0  -9.9999999999999769 1.3089969389957414 0  -10 1.3322676295501878e-015 0 
 1.5707963267948966 7 2.3561944901923448 5 3.1415926535897931 7
7 0 0  6 12 3  10 0 20  10.000000000000014 1.3089969389957523 20.000000000000032  9.7943840481854458 2.6179916916075543 19.999999999999879  9.3831467879003867 3.8866266572858628 20.000000000000146  8.7768750562430231 5.0744756997915692 19.999999999999904  7.996668423981812 6.145467199749147 20.000000000000032  6.1454671997491426 7.9966684239817987 19.999999999999961  5.0744756997915825 8.7768750562430728 20.000000000000068  3.8866266572858419 9.3831467879003103 19.999999999999925  2.6179916916075729 9.7943840481855133 20.000000000000032  1.3089969389957465 9.9999999999999929 20.000000000000007  4.4408920985006262e-016 10 20 
 0 7 0.78539816339744828 5 1.5707963267948966 7
7 0 0  1 2 2  10 -2.4492935982947065e-015 0  10 -2.4492935982947065e-015 20 
 0 2 20 2
7 0 0  6 12 3  10 0 0  10.000000000000014 1.3089969389957523 0  9.7943840481854458 2.6179916916075543 0  9.3831467879003867 3.8866266572858628 0  8.7768750562430231 5.0744756997915692 0  7.996668423981812 6.145467199749147 0  6.1454671997491426 7.9966684239817987 0  5.0744756997915825 8.7768750562430728 0  3.8866266572858419 9.3831467879003103 0  2.6179916916075729 9.7943840481855133 0  1.3089969389957465 9.9999999999999929 0  4.4408920985006262e-016 10 0 
 0 7 0.78539816339744828 5 1.5707963267948966 7
7 0 0  6 12 3  -1.7763568394002418e-015 -10.000000000000002 0  1.3089969389957468 -10.00000000000003 0  2.6179916916075876 -9.7943840481854423 0  3.886626657285833 -9.3831467879003956 0  5.0744756997915825 -8.776875056243016 0  6.1454671997491479 -7.9966684239818093 0  7.9966684239818058 -6.1454671997491577 0  8.7768750562430462 -5.0744756997915701 0  9.3831467879003156 -3.8866266572858579 0  9.7943840481855098 -2.6179916916075783 0  9.9999999999999929 -1.3089969389957541 0  9.9999999999999982 -2.2204460492503131e-015 0 
 4.7123889803846897 7 5.497787143782138 5 6.2831853071795862 7
7 0 0  6 12 3  -1.7763568394002418e-015 -10.000000000000002 20  1.3089969389957468 -10.00000000000003 20.000000000000036  2.6179916916075876 -9.7943840481854423 19.999999999999964  3.886626657285833 -9.3831467879003956 20.000000000000043  5.0744756997915825 -8.776875056243016 19.999999999999961  6.1454671997491479 -7.9966684239818093 20.000000000000007  7.9966684239818058 -6.1454671997491577 20.000000000000021  8.7768750562430462 -5.0744756997915701 19.999999999999961  9.3831467879003156 -3.8866266572858579 20.000000000000021  9.7943840481855098 -2.6179916916075783 20  9.9999999999999929 -1.3089969389957541 20.000000000000004  9.9999999999999982 -2.2204460492503131e-015 20 
 4.7123889803846897 7 5.497787143782138 5 6.2831853071795862 7
Polygon3D 0
PolygonOnTriangulations 0
Surfaces 6
9 0 0 0 0 8 3 9 4 2 2 -9.9999999999999982 1.7763568394002505e-015 1.7763568394002505e-015  -9.9999999999999964 1.7763568394002495e-015 6.6666666666666634  -10 1.7763568394002505e-015 13.333333333333334  -10.000000000000002 1.7763568394002505e-015 20  
-9.9999999999998899 -1.9634954084935627 -2.7698478431505231e-014  -9.9999999999998828 -1.963495408493539 6.6666666666665879  -9.9999999999999378 -1.963495408493579 13.333333333333144  -9.9999999999998863 -1.9634954084935627 19.999999999999712  
-9.5593921103882966 -3.9269914350422948 7.9476460685991423e-014  -9.5593921103882895 -3.9269914350423796 6.6666666666669085  -9.5593921103881137 -3.9269914350422317 13.333333333333902  -9.5593921103882877 -3.9269914350422948 20.000000000000906  
-8.6781806587138046 -5.7751323433504167 -1.124983704076356e-013  -8.6781806587138224 -5.7751323433502231 6.666666666666254  -8.6781806587141297 -5.7751323433505455 13.333333333332432  -8.6781806587138455 -5.7751323433504167 19.999999999998511  
-7.3925875577994162 -7.3925875577990805 1.0459189070388603e-013  -7.3925875577993896 -7.3925875577993558 6.6666666666670888  -7.3925875577990467 -7.3925875577989189 13.333333333334224  -7.3925875577993363 -7.3925875577990805 20.000000000001585  
-5.7751323433502693 -8.6781806587142256 -6.7550903142748061e-014  -5.775132343350287 -8.6781806587139574 6.6666666666663712  -5.7751323433505579 -8.6781806587143446 13.333333333332748  -5.7751323433503527 -8.6781806587142256 19.999999999998828  
-3.9269914350423369 -9.5593921103880071 2.8616262798528755e-014  -3.9269914350423289 -9.5593921103881634 6.6666666666668091  -3.9269914350421908 -9.559392110387968 13.333333333333593  -3.9269914350422859 -9.5593921103880071 20.000000000000615  
-1.9634954084935674 -9.9999999999999805 -5.4601825706327231e-015  -1.9634954084935661 -9.9999999999999236 6.6666666666666234  -1.9634954084936083 -9.999999999999984 13.333333333333268  -1.9634954084935829 -9.9999999999999805 19.999999999999805  
-2.9376705135428143e-015 -10.000000000000002 -1.7763568394002343e-015  -2.7156259086177882e-015 -9.9999999999999982 6.6666666666666661  -2.9376705135426329e-015 -10.000000000000004 13.333333333333336  -2.715625908617714e-015 -10.000000000000002 20.000000000000004  

3.1415926535897931 9
4.7123889803846897 9

0 4
20 4

9 0 0 0 0 1 1 2 2 2 2 -10 -10 20  -10 10 20  
10 -10 20  10 10 20  

-10 2
10 2

-10 2
10 2

9 0 0 0 0 8 3 9 4 2 2 -1.7763568394002505e-015 10 -3.5527136788005009e-015  -1.7763568394002495e-015 9.9999999999999964 6.6666666666666607  -1.7763568394002505e-015 10.000000000000002 13.333333333333334  -1.7763568394002505e-015 10 20  
-1.9634954084936007 9.9999999999999769 3.1636069425509363e-014  -1.9634954084935541 10.000000000000027 6.6666666666666456  -1.9634954084936038 10.000000000000002 13.333333333333297  -1.9634954084936007 9.9999999999999769 19.999999999999954  
-3.926991435042213 9.5593921103880408 -1.2584984704645325e-013  -3.9269914350423676 9.559392110387849 6.6666666666667558  -3.9269914350421979 9.5593921103879307 13.333333333333423  -3.926991435042213 9.5593921103880408 20.000000000000199  
-5.7751323433505108 8.6781806587141723 2.1874243409296812e-013  -5.7751323433502408 8.6781806587145329 6.6666666666665177  -5.7751323433505632 8.6781806587143713 13.333333333333224  -5.7751323433505108 8.6781806587141723 19.999999999999705  
-7.3925875577990317 7.3925875577990761 -2.5169421598564718e-013  -7.3925875577993105 7.3925875577986266 6.6666666666667833  -7.3925875577989304 7.3925875577988611 13.333333333333371  -7.3925875577990317 7.3925875577990761 20.000000000000242  
-8.6781806587142452 5.775132343350502 1.8662139105416279e-013  -8.6781806587140515 5.7751323433508519 6.6666666666666252  -8.6781806587143748 5.775132343350653 13.333333333333368  -8.6781806587142452 5.775132343350502 19.999999999999932  
-9.5593921103879893 3.9269914350422144 -1.0563885367372193e-013  -9.5593921103880639 3.9269914350420363 6.6666666666666661  -9.5593921103878969 3.9269914350421482 13.33333333333325  -9.5593921103879893 3.9269914350422144 19.999999999999961  
-10.000000000000004 1.9634954084935996 3.0553337637684591e-014  -9.9999999999999822 1.9634954084936458 6.6666666666666696  -10.000000000000028 1.9634954084936174 13.333333333333378  -10.000000000000004 1.9634954084935996 20.000000000000043  
-10 1.7763568394002505e-015 -3.5527136788005009e-015  -9.9999999999999964 1.7763568394002495e-015 6.666666666666667  -10.000000000000002 1.7763568394002505e-015 13.333333333333329  -10 1.7763568394002505e-015 20.000000000000004  

1.5707963267948966 9
3.1415926535897931 9

0 4
20 4

9 0 0 0 0 1 1 2 2 2 2 -10 -10 0  -10 10 0  
10 -10 0  10 10 0  

-10 2
10 2

-10 2
10 2

9 0 0 0 0 8 3 9 4 2 2 -6.2172489379011496e-015 -9.9999999999999929 0  -6.217248937901077e-015 -9.9999999999999893 6.6666666666666599  -6.2172489379010817e-015 -9.9999999999999929 13.333333333333323  -6.2172489379011496e-015 -9.9999999999999929 19.999999999999982  
1.9634954084935516 -9.9999999999998952 0  1.9634954084935665 -9.9999999999998987 6.6666666666666075  1.9634954084935667 -9.9999999999998774 13.333333333333215  1.9634954084935516 -9.9999999999998952 19.999999999999705  
3.9269914350423587 -9.5593921103883339 0  3.9269914350423081 -9.5593921103882522 6.6666666666668633  3.9269914350422872 -9.5593921103884192 13.33333333333375  3.9269914350423587 -9.5593921103883339 20.000000000001016  
5.7751323433502639 -8.678180658713714 0  5.7751323433503341 -8.6781806587139041 6.666666666666325  5.7751323433504513 -8.6781806587135062 13.333333333332632  5.7751323433502639 -8.678180658713714 19.999999999998249  
7.3925875577992963 -7.392587557799561 0  7.3925875577992359 -7.3925875577992768 6.6666666666670373  7.3925875577989837 -7.3925875577998896 13.333333333334068  7.3925875577992963 -7.392587557799561 20.000000000001936  
8.6781806587140178 -5.7751323433501511 0  8.6781806587140249 -5.775132343350406 6.6666666666663819  8.6781806587143606 -5.7751323433498385 13.333333333332819  8.6781806587140178 -5.7751323433501511 19.999999999998526  
9.5593921103881243 -3.9269914350424022 0  9.559392110388135 -3.9269914350422561 6.6666666666668073  9.5593921103878934 -3.9269914350425847 13.333333333333572  9.5593921103881243 -3.9269914350424022 20.00000000000075  
9.9999999999999538 -1.9634954084935579 0  9.9999999999999432 -1.9634954084935987 6.666666666666627  10.000000000000028 -1.9634954084935037 13.333333333333275  9.9999999999999538 -1.9634954084935579 19.999999999999794  
10 -7.1054273576010019e-015 0  9.9999999999999964 -7.1054273576009979e-015 6.6666666666666652  10.000000000000002 -7.1054273576010019e-015 13.333333333333334  10 -7.1054273576010019e-015 20  

4.7123889803846897 9
6.2831853071795862 9

0 4
20 4

9 0 0 0 0 8 3 9 4 2 2 10 1.7763568394002505e-015 0  9.9999999999999964 1.7763568394002495e-015 6.6666666666666652  10.000000000000002 1.7763568394002505e-015 13.333333333333334  10 1.7763568394002505e-015 20  
10.000000000000005 1.9634954084936331 5.123943597460478e-015  9.9999999999999822 1.9634954084936163 6.666666666666627  10.000000000000043 1.9634954084936165 13.333333333333368  10.000000000000005 1.9634954084936331 20.000000000000039  
9.5593921103879609 3.926991435042086 -4.346857970573641e-014  9.5593921103879715 3.9269914350421526 6.6666666666667789  9.5593921103878579 3.9269914350421464 13.333333333333197  9.5593921103879609 3.926991435042086 19.999999999999865  
8.6781806587143215 5.7751323433507542 1.5701514162932039e-013  8.6781806587143393 5.7751323433505872 6.6666666666665106  8.678180658714437 5.7751323433506565 13.333333333333629  8.6781806587143215 5.7751323433507542 20.00000000000027  
7.3925875577989162 7.3925875577987705 -2.5566963008786263e-013  7.3925875577988682 7.392587557799037 6.66666666666677  7.3925875577988753 7.3925875577988363 13.333333333332929  7.3925875577989162 7.3925875577987705 19.999999999999655  
5.7751323433506201 8.6781806587144334 2.5121703659113436e-013  5.7751323433506592 8.6781806587141226 6.666666666666627  5.7751323433505917 8.6781806587144494 13.333333333333687  5.7751323433506201 8.6781806587144334 20.000000000000295  
3.9269914350421571 9.5593921103878969 -1.4895879943983431e-013  3.9269914350421318 9.5593921103881172 6.666666666666675  3.9269914350421948 9.5593921103878472 13.33333333333314  3.9269914350421562 9.5593921103878969 19.999999999999844  
1.9634954084936107 10.000000000000032 4.763385453272701e-014  1.9634954084936165 9.9999999999999432 6.6666666666666687  1.9634954084935965 10.000000000000057 13.333333333333391  1.9634954084936111 10.000000000000032 20.00000000000005  
1.1102230246251565e-016 10 1.7763568394002505e-015  -1.1102230246251564e-016 9.9999999999999964 6.6666666666666634  1.1102230246251565e-016 10.000000000000002 13.333333333333334  -1.1102230246251565e-016 10 20  

0 9
1.5707963267948966 9

0 4
20 4

Triangulations 0

TShapes 34
Ve
1e-005
-1.83697019872103e-015 -10 20
0 0

0101100
*
Ve
1e-005
-10 1.22464679914735e-015 20
0 0

0101100
*
Ed
 1.41080704839803e-007 1 1 0
1  1 0 3.14159265358979 4.71238898038469
2  1 1 0 3.14159265358979 4.71238898038469
2  2 2 0 3.14159265358979 4.71238898038469
0

0101000
-34 0 +33 0 *
Ve
1e-005
-10 1.22464679914735e-015 0
0 0

0101100
*
Ed
 1e-005 1 1 0
1  2 0 0 20
2  3 1 0 0 20
2  4 3 0 0 20
0

0101000
-33 0 +31 0 *
Ve
1e-005
-1.83697019872103e-015 -10 0
0 0

0101100
*
Ed
 1.41080704839801e-007 1 1 0
1  3 0 3.14159265358979 4.71238898038469
2  5 1 0 3.14159265358979 4.71238898038469
2  6 4 0 3.14159265358979 4.71238898038469
0

0101000
+31 0 -29 0 *
Ed
 1e-005 1 1 0
1  4 0 0 20
2  7 1 0 0 20
2  8 5 0 0 20
0

0101000
+29 0 -34 0 *
Wi

0101100
-32 0 -30 0 +28 0 +27 0 *
Fa
0  1e-007 1 0

0101000
+26 0 *
Ve
1e-005
6.12323399573677e-016 10 20
0 0

0101100
*
Ed
 1.41080704227265e-007 1 1 0
1  5 0 1.5707963267949 3.14159265358979
2  9 3 0 1.5707963267949 3.14159265358979
2  10 2 0 1.5707963267949 3.14159265358979
0

0101000
-33 0 +24 0 *
Ve
1e-005
6.12323399573677e-016 10 0
0 0

0101100
*
Ed
 1e-005 1 1 0
1  6 0 0 20
2  11 3 0 0 20
2  12 6 0 0 20
0

0101000
-24 0 +22 0 *
Ed
 1.41080704227265e-007 1 1 0
1  7 0 1.5707963267949 3.14159265358979
2  13 3 0 1.5707963267949 3.14159265358979
2  14 4 0 1.5707963267949 3.14159265358979
0

0101000
+22 0 -31 0 *
Wi

0101100
-23 0 -21 0 +20 0 +30 0 *
Fa
0  1e-007 3 0

0101000
+19 0 *
Ve
1.41080704624235e-007
10 -2.44929359829471e-015 20
0 0

0101100
*
Ed
 1.41080704624235e-007 1 1 0
1  8 0 0 1.5707963267949
2  15 6 0 0 1.5707963267949
2  16 2 0 0 1.5707963267949
0

0101000
-24 0 +17 0 *
Ve
1.41080704624234e-007
10 -2.44929359829471e-015 0
0 0

0101100
*
Ed
 1e-007 1 1 0
1  9 0 0 20
2  17 6 0 0 20
2  18 5 0 0 20
0

0101000
-17 0 +15 0 *
Ed
 1.41080704624234e-007 1 1 0
1  10 0 0 1.5707963267949
2  19 6 0 0 1.5707963267949
2  20 4 0 0 1.5707963267949
0

0101000
+15 0 -22 0 *
Wi

0101100
-16 0 -14 0 +13 0 +21 0 *
Fa
0  1e-007 6 0

0101000
+12 0 *
Ed
 1.41080703629371e-007 1 1 0
1  11 0 4.71238898038469 6.28318530717959
2  21 5 0 4.71238898038469 6.28318530717959
2  22 4 0 4.71238898038469 6.28318530717959
0

0101000
+29 0 -15 0 *
Ed
 1.41080703629372e-007 1 1 0
1  12 0 4.71238898038469 6.28318530717959
2  23 5 0 4.71238898038469 6.28318530717959
2  24 2 0 4.71238898038469 6.28318530717959
0

0101000
-17 0 +34 0 *
Wi

0101100
+10 0 +14 0 -9 0 -27 0 *
Fa
0  1e-007 5 0

0101000
+8 0 *
Wi

0101000
+16 0 +23 0 +32 0 +9 0 *
Fa
0  1e-007 2 0

0101000
+6 0 *
Wi

0101000
-13 0 -20 0 -28 0 -10 0 *
Fa
0  1e-007 4 0

0101000
-4 0 *
Sh

0101000
+25 0 +18 0 +11 0 +7 0 +5 0 -3 0 *
So

1100000
+2 0 *

+1 0 