DBRep_DrawableShape

CASCADE Topology V1, (c) Matra-Datavision
Locations 0
Curve2ds 16
7 0 0  1 2 2  4.7123889803846897 7.8539816339744828  6.2831853071795862 7.8539816339744828 
 4.7123889803846897 2 6.2831853071795862 2
7 0 0  1 2 2  4.7123889803846897 4.7123889803846897  4.7123889803846897 7.8539816339744828 
 -1.5707963267948966 2 1.5707963267948966 2
7 0 0  1 2 2  4.7123889803846897 4.7123889803846897  4.7123889803846897 7.8539816339744828 
 -1.5707963267948966 2 1.5707963267948966 2
7 0 0  1 2 2  4.7123889803846897 4.7123889803846897  6.2831853071795862 4.7123889803846897 
 4.7123889803846897 2 6.2831853071795862 2
7 0 0  1 2 2  6.2831853071795862 4.7123889803846897  6.2831853071795862 7.8539816339744828 
 4.7123889803846897 2 7.8539816339744828 2
7 0 0  1 2 2  0 4.7123889803846897  0 7.8539816339744828 
 4.7123889803846897 2 7.8539816339744828 2
7 0 0  1 2 2  3.1415926535897931 7.8539816339744828  4.7123889803846897 7.8539816339744828 
 3.1415926535897931 2 4.7123889803846897 2
7 0 0  1 2 2  3.1415926535897931 4.7123889803846897  3.1415926535897931 7.8539816339744828 
 -1.5707963267948966 2 1.5707963267948966 2
7 0 0  1 2 2  3.1415926535897931 4.7123889803846897  3.1415926535897931 7.8539816339744828 
 -1.5707963267948966 2 1.5707963267948966 2
7 0 0  1 2 2  3.1415926535897931 4.7123889803846897  4.7123889803846897 4.7123889803846897 
 3.1415926535897931 2 4.7123889803846897 2
7 0 0  1 2 2  1.5707963267948966 7.8539816339744828  3.1415926535897931 7.8539816339744828 
 1.5707963267948966 2 3.1415926535897931 2
7 0 0  1 2 2  1.5707963267948966 4.7123889803846897  1.5707963267948966 7.8539816339744828 
 -1.5707963267948966 2 1.5707963267948966 2
7 0 0  1 2 2  1.5707963267948966 4.7123889803846897  1.5707963267948966 7.8539816339744828 
 -1.5707963267948966 2 1.5707963267948966 2
7 0 0  1 2 2  1.5707963267948966 4.7123889803846897  3.1415926535897931 4.7123889803846897 
 1.5707963267948966 2 3.1415926535897931 2
7 0 0  1 2 2  0 7.8539816339744828  1.5707963267948966 7.8539816339744828 
 0 2 1.5707963267948966 2
7 0 0  1 2 2  0 4.7123889803846897  1.5707963267948966 4.7123889803846897 
 0 2 1.5707963267948966 2
Curves 4
7 0 0  9 10 2  -3.944304526105059e-031 -1.7763568394002505e-015 -10.000000000000002  -7.7508188844634645e-016 -3.4906585039885862 -9.9999999999999751  -1.5501718205349916e-015 -6.9813532333216317 -8.6292253341474101  -2.1885984397765338e-015 -9.8565711178412467 -5.8876371885299212  -2.5540472635138983e-015 -11.502406304247828 -2.0975661056745047  -2.5540472635137615e-015 -11.502406304247211 2.0975661056744523  -2.188598439776647e-015 -9.8565711178417565 5.8876371885300394  -1.5501718205349232e-015 -6.9813532333213235 8.6292253341473124  -7.7508188844636657e-016 -3.4906585039886768 10.000000000000002  -3.944304526105059e-031 -1.7763568394002505e-015 10 
 -1.5707963267948966 10 1.5707963267948966 10
7 0 0  6 22 5  -1.7763568394002418e-015 5.856034507585151e-031 -10.000000000000002  1.3089969389957468 -3.2061178228696449e-016 -10.00000000000003  2.6179916916075876 -6.4122302906432285e-016 -9.7943840481854423  3.886626657285833 -9.5194897906516828e-016 -9.3831467879003956  5.0744756997915825 -1.2428880846201626e-015 -8.776875056243016  6.1454671997491479 -1.5052053470875665e-015 -7.9966684239818093  7.9966684239818067 -1.9586188778544073e-015 -6.1454671997491586  8.7768750562430426 -2.1497143888288531e-015 -5.0744756997915665  9.3831467879003174 -2.298208135946392e-015 -3.8866266572858614  9.7943840481855133 -2.3989322148460413e-015 -2.6179916916075752  9.9999999999999858 -2.4492935982947097e-015 -1.3089969389957561  10.000000000000028 -2.4492935982947109e-015 1.3089969389957532  9.7943840481854423 -2.3989322148460433e-015 2.617991691607565  9.3831467879003956 -2.2982081359463947e-015 3.8866266572858645  8.7768750562430071 -2.1497143888288512e-015 5.0744756997915532  7.99666842398182 -1.9586188778544085e-015 6.1454671997491612  6.1454671997491417 -1.5052053470875663e-015 7.9966684239817933  5.0744756997916216 -1.2428880846201691e-015 8.7768750562430693  3.8866266572858037 -9.5194897906516374e-016 9.3831467879003174  2.6179916916076089 -6.4122302906432709e-016 9.7943840481855009  1.3089969389957454 -3.2061178228696424e-016 9.9999999999999893  3.1086244689504383e-015 -5.9164567891575885e-031 9.9999999999999982 
 4.7123889803846897 7 5.497787143782138 5 6.2831853071795862 5 7.0685834705770345 5 7.8539816339744828 7
7 0 0  9 10 2  -1.7763568394002505e-015 0 -10.000000000000002  -3.4906585039885862 4.274823763826099e-016 -9.9999999999999751  -6.9813532333216317 8.5496918909044487e-016 -8.6292253341474101  -9.8565711178412467 1.2070818270032243e-015 -5.8876371885299212  -11.502406304247828 1.4086385062989964e-015 -2.0975661056745047  -11.502406304247211 1.408638506298809e-015 2.0975661056744523  -9.8565711178417565 1.2070818270033594e-015 5.8876371885300394  -6.9813532333213235 8.5496918909037801e-016 8.6292253341473124  -3.4906585039886768 4.274823763826277e-016 10.000000000000002  -1.7763568394002505e-015 0 10 
 -1.5707963267948966 10 1.5707963267948966 10
7 0 0  9 10 2  1.9721522630525295e-031 1.7763568394002505e-015 -10.000000000000002  3.8754094422317323e-016 3.4906585039885862 -9.9999999999999751  7.7508591026749582e-016 6.9813532333216317 -8.6292253341474101  1.0942992198882669e-015 9.8565711178412467 -5.8876371885299212  1.2770236317569492e-015 11.502406304247828 -2.0975661056745047  1.2770236317568807e-015 11.502406304247211 2.0975661056744523  1.0942992198883235e-015 9.8565711178417565 5.8876371885300394  7.750859102674616e-016 6.9813532333213235 8.6292253341473124  3.8754094422318328e-016 3.4906585039886768 10.000000000000002  1.9721522630525295e-031 1.7763568394002505e-015 10 
 -1.5707963267948966 10 1.5707963267948966 10
Polygon3D 0
PolygonOnTriangulations 0
Surfaces 4
9 0 0 0 0 8 10 9 11 2 2 1.5399042040426105e-015 4.4791087725382997e-028 -9.9999999999999876  -2.7231274220806026e-016 -3.1415926535896701 -10.000000000000016  -2.0520889454291127e-015 -6.2831850342971975 -8.9033802673177114  -3.5974079287517757e-015 -8.994137391695828 -6.7101136322153954  -4.7134327577219717e-015 -10.843790145662521 -3.6135945388166553  -5.241347805397766e-015 -11.502764506181158 2.9665159217980452e-013  -5.0903630968803671e-015 -10.843790145662403 3.6135945388161272  -4.2539201268667055e-015 -8.9941373916958955 6.7101136322157569  -2.7934860421435002e-015 -6.2831850342971993 8.9033802673174964  -8.0654929694031521e-016 -3.141592653589679 10.00000000000011  1.6022221120378197e-015 -3.4230233172163528e-015 9.9999999999999876  
1.583230318203083e-014 2.2984092912575445e-014 -9.9999999999998028  0.61685027506882295 -3.141592653590791 -9.9999999999998952  1.2337004965523199 -6.2831850342931803 -8.9033802673174876  1.765994747203733 -8.994137391703795 -6.7101136322167525  2.1291732161542991 -10.843790145651136 -3.6135945388123045  2.2585625293025813 -11.502764506192239 -7.7850456240264199e-012  2.1291732161534913 -10.843790145655102 3.6135945388263657  1.7659947472049136 -8.9941373916983025 6.7101136322067312  1.2337004965514085 -6.2831850342970386 8.903380267322504  0.61685027506919743 -3.141592653589425 9.9999999999986411  3.0113792587633062e-014 3.0299879924010989e-014 9.9999999999999112  
-6.7381135793507652e-014 -6.7481629308216397e-014 -10.000000000000657  1.2337007443011225 -3.0031716026746675 -10.000000000000494  2.4674013814594846 -6.0063429445082432 -8.9033802673184947  3.5319900502489716 -8.5978486021693197 -6.7101136322109847  4.2583471025890107 -10.36600419654847 -3.6135945388312387  4.5171257694521731 -10.995943626770636 2.7650421836268536e-011  4.2583471025918627 -10.366004196537673 3.6135945387812907  3.5319900502446733 -8.5978486021842553 6.7101136322465083  2.4674013814628797 -6.0063429444977876 8.9033802673005802  1.2337007442997308 -3.0031716026784565 10.000000000005073  -1.1028397691163595e-013 -8.1454913714154176e-014 10.000000000000306  
1.5904374940279321e-013 1.3562836799959274e-013 -9.9999999999988542  1.8143113343431487 -2.72633086039948 -9.9999999999991669  3.6286225110578538 -5.4526614839560761 -8.9033802673168623  5.1942333751907537 -7.8052749154845662 -6.7101136322214607  6.2624323193762299 -9.4104369908635768 -3.613594538794187  6.6429987338711811 -9.9823068459902835 -4.4322443170929891e-011  6.2624323193709941 -9.4104369908807239 3.6135945388749815  5.1942333751988654 -7.805274915460525 6.7101136321626429  3.6286225110513 -5.4526614839730314 8.9033802673471563  1.8143113343458799 -2.7263308603933822 9.9999999999915072  2.3303597924174294e-013 1.1675378463523357e-013 9.9999999999994849  
-2.2618653874225071e-013 -1.5853554114638193e-013 -10.000000000001263  2.3224498762534922 -2.3224498762536046 -10.000000000001451  4.6448995508198481 -4.6448995508136797 -8.9033802673163169  6.6489948174254234 -6.6489948174467077 -6.7101136322135702  8.0163668111410953 -8.0163668110993864 -3.6135945388349833  8.5035193767275015 -8.5035193767861799 4.3920351034573129e-011  8.0163668111484689 -8.0163668110820367 3.6135945387542558  6.6489948174138416 -6.648994817471225 6.7101136322735329  4.6448995508291331 -4.6448995507963371 8.9033802672847209  2.3224498762497503 -2.322449876259852 10.000000000009534  -2.9313892205686627e-013 -1.1107188175773158e-013 10.000000000000531  
2.0782183267209514e-013 1.3652280059987301e-013 -9.9999999999990461  2.7263308603989995 -1.814311334343665 -9.9999999999981188  5.4526614839527303 -3.6286225110599708 -8.9033802673225644  7.8052749154998828 -5.1942333751812635 -6.7101136322087918  9.4104369908313803 -6.2624323193974059 -3.613594538814334  9.9823068460380675 -6.6429987338387422 -2.0430920900671421e-011  9.4104369908246355 -6.2624323194116238 3.6135945388527908  7.8052749155103447 -5.1942333751613052 6.7101136321785511  5.4526614839445342 -3.6286225110739427 8.9033802673393279  2.7263308604022449 -1.8143113343387733 9.9999999999938787  2.5474177551239628e-013 8.8419706473059355e-014 9.9999999999995861  
-1.2507995512349654e-013 -7.0286648491498834e-014 -10.000000000000464  3.0031716026759492 -1.2337007443004893 -10.000000000001625  6.0063429445063381 -2.4674013814599398 -8.9033802673124889  8.5978486021685736 -3.5319900502502009 -6.7101136322246049  10.366004196554687 -4.2583471025834614 -3.6135945388092692  10.99594362675659 -4.5171257694633358 1.2565604893206386e-012  10.366004196559075 -4.2583471025749748 3.6135945388060335  8.5978486021618838 -3.5319900502617951 6.7101136322286994  6.0063429445114203 -2.4674013814520079 8.9033802673093838  3.0031716026740281 -1.2337007443031909 10.000000000002453  -1.4196019541812153e-013 -4.4462346595154489e-014 10.000000000000218  
4.2260325725638032e-014 2.4213517855707419e-014 -9.9999999999998757  3.1415926535899215 -0.61685027506912959 -9.9999999999994529  6.2831850342955553 -1.2337004965516856 -8.903380267319756  8.9941373917001535 -1.7659947472045106 -6.7101136322115149  10.843790145655218 -2.1291732161542813 -3.6135945388208892  11.502764506189706 -2.2585625293010509 2.7410253960760614e-012  10.843790145654308 -2.1291732161570636 3.6135945388162849  8.9941373917015923 -1.7659947472007629 6.7101136322141013  6.2831850342944238 -1.233700496554214 8.903380267318818  3.141592653590394 -0.61685027506829115 9.9999999999997087  4.6790011750027706e-014 1.5663242461253108e-014 9.9999999999999289  
-1.2621774483536162e-028 2.9154077833524216e-015 -9.9999999999999982  3.14159265358975 1.1468568607807692e-015 -10.000000000000071  6.2831850342969062 -3.6078261598584799e-016 -8.9033802673175337  8.9941373916964871 -1.5132921229054984e-015 -6.710113632215851  10.843790145661529 -2.2167752988683965e-015 -3.6135945388158919  11.502764506182316 -2.4031831625549867e-015 -6.6169292267659209e-013  10.843790145661396 -2.0576566586572386e-015 3.6135945388170252  8.9941373916965759 -1.2324209668558496e-015 6.7101136322151413  6.2831850342968991 -3.2891192843733429e-017 8.9033802673178091  3.1415926535897594 1.4096701778966202e-015 10.00000000000003  3.4230233172166798e-015 2.963678496950227e-015 9.9999999999999964  

4.7123889803846897 9
6.2831853071795862 9

4.7123889803846897 11
7.8539816339744828 11

9 0 0 0 0 8 10 9 11 2 2 1.7763568394006015e-015 3.8369914884261008e-015 -10.000000000000004  -3.1415926535896688 3.4789635365225818e-015 -10.000000000000039  -6.283185034297202 3.3835516371730933e-015 -8.9033802673176989  -8.9941373916958565 3.4206827004912226e-015 -6.7101136322154318  -10.843790145662473 3.5029371826322764e-015 -3.6135945388166637  -11.502764506181265 3.5740806361376831e-015 3.5971225997855006e-013  -10.843790145662295 3.6106635104906332e-015 3.61359453881603  -8.9941373916960021 3.6253556761073637e-015 6.7101136322158448  -6.2831850342971514 3.6636119003479492e-015 8.9033802673174769  -3.1415926535896959 3.8020720469558176e-015 10.000000000000123  -1.6466664778162932e-015 4.1600295257183572e-015 10.000000000000004  
-2.6563912246682218e-014 -1.5880624630880852e-014 -9.9999999999998561  -3.1415926535900591 -0.6168502750670225 -10.00000000000181  -6.2831850342958733 -1.2337004965599729 -8.9033802673110536  -8.9941373916997058 -1.7659947471863795 -6.7101136322282411  -10.843790145653205 -2.129173216180448 -3.6135945387984392  -11.50276450619566 -2.2585625292747711 -1.9312982958906044e-011  -10.84379014564712 -2.1291732161753347 3.6135945388327619  -8.9941373917062464 -1.7659947471921607 6.7101136322047346  -6.2831850342924147 -1.2337004965569267 8.9033802673225395  -3.141592653590791 -0.61685027506775858 9.9999999999985505  -2.9409458021577303e-014 -1.652442794246755e-014 9.9999999999999254  
7.3498441373635447e-014 7.8523207443500516e-014 -10.000000000000467  -3.0031716026756508 -1.2337007443080523 -9.9999999999934293  -6.006342944505092 -2.4674013814301246 -8.9033802673417899  -8.5978486021696376 -3.5319900503151125 -6.7101136321695174  -10.366004196562553 -4.2583471024896262 -3.6135945388804749  -10.995943626734789 -4.5171257695575262 6.7676335686917641e-011  -10.366004196585388 -4.2583471025091386 3.6135945387598047  -8.59784860214417 -3.5319900502929387 6.7101136322526385  -6.00634294451923 -2.46740138144194 8.9033802673009319  -3.0031716026724022 -1.2337007443051653 10.000000000005105  9.0997599489487738e-014 8.3857408324842301e-014 10.000000000000192  
-8.9466112878619521e-014 -1.6289963049716296e-013 -9.999999999999222  -2.7263308603986141 -1.814311334328609 -10.000000000012687  -5.4526614839585577 -3.6286225111189707 -8.9033802672726896  -7.8052749154902168 -5.194233375053785 -6.7101136322999313  -9.4104369908302239 -6.2624323195812703 -3.6135945387020905  -9.9823068460620519 -6.6429987336544238 -1.1785932753810826e-010  -9.4104369907903003 -6.26243231954082 3.6135945389129707  -7.8052749155349517 -5.1942333750998273 6.7101136321534458  -5.4526614839335794 -3.6286225110942314 8.9033802673451117  -2.7263308604044587 -1.8143113343347732 9.9999999999920401  -1.5152160939731049e-013 -1.916110929991158e-013 9.9999999999997904  
5.7198650914746586e-014 2.2233048171952256e-013 -10.000000000000842  -2.3224498762547783 -2.3224498762726622 -9.9999999999847162  -4.6448995508096091 -4.6448995507398259 -8.903380267370812  -6.6489948174447857 -6.6489948176038869 -6.7101136321173538  -8.0163668111279058 -8.0163668108749988 -3.6135945389457396  -8.5035193767180139 -8.5035193770075459 1.2915787743927399e-010  -8.0163668111714763 -8.0163668109301316 3.6135945387138859  -6.6489948173957369 -6.6489948175408173 6.7101136322796187  -4.6448995508370956 -4.6448995507742001 8.9033802672899824  -2.3224498762482848 -2.3224498762639092 10.000000000008004  1.2917530053845674e-013 2.6883004420719955e-013 10.000000000000121  
6.7643087314631002e-015 -1.9537694464729682e-013 -9.9999999999993978  -1.8143113343418296 -2.7263308603826775 -10.000000000012237  -3.6286225110670762 -5.452661484020461 -8.9033802672762441  -5.1942333751727876 -7.8052749153496128 -6.7101136322908168  -6.2624323193921514 -9.4104369910542189 -3.6135945387203838  -6.6429987338708072 -9.9823068458053434 -9.1966374853152385e-011  -6.2624323193610589 -9.4104369910045591 3.6135945388859319  -5.1942333752075918 -7.8052749154064314 6.7101136321742079  -3.6286225110477353 -5.4526614839892726 8.9033802673345619  -1.814311334346423 -2.7263308603907945 9.9999999999952891  -5.2316034938403537e-014 -2.4448767614429833e-013 9.9999999999999716  
-1.5010008274053733e-014 1.1479290559321735e-013 -10.000000000000307  -1.2337007443017709 -3.0031716026846147 -9.9999999999940243  -2.4674013814549611 -6.0063429444703642 -8.9033802673378428  -3.5319900502577037 -8.5978486022484066 -6.7101136321793282  -4.2583471025812285 -10.366004196436668 -3.6135945388614781  -4.5171257694526101 -10.995943626878883 4.1346526102100715e-011  -4.2583471025960362 -10.366004196465598 3.6135945387869839  -3.5319900502411481 -8.5978486022151888 6.7101136322318462  -2.4674013814641547 -6.0063429444887975 8.9033802673115563  -1.2337007442995607 -3.0031716026797111 10.000000000001821  1.3162900269372528e-014 1.3070342351067052e-013 10.000000000000027  
1.1263828807719603e-014 -4.317139997630048e-014 -9.9999999999999165  -0.61685027506866008 -3.1415926535876628 -10.000000000001501  -1.2337004965534903 -6.2831850343050482 -8.9033802673127678  -1.7659947472015214 -8.9941373916789793 -6.7101136322241484  -2.1291732161562034 -10.84379014568643 -3.6135945388060944  -2.2585625293026252 -11.502764506157664 -8.8798894163726525e-012  -2.129173216152362 -10.843790145678554 3.613594538822086  -1.7659947472057831 -8.9941373916878824 6.7101136322128596  -1.2337004965511404 -6.2831850343001863 8.9033802673183935  -0.61685027506923207 -3.1415926535889809 9.9999999999998099  2.3163003497418426e-015 -4.9614430175224574e-014 9.9999999999999805  
3.6794043967212793e-015 -5.3290705182003877e-015 -10.000000000000005  5.0507555677027549e-016 -3.1415926535897305 -10.000000000000039  -2.1131818875722926e-015 -6.2831850342970164 -8.9033802673177096  -4.0648608507597174e-015 -8.9941373916962277 -6.7101136322154096  -5.2526182641107487e-015 -10.843790145661986 -3.6135945388167072  -5.61308039975505e-015 -11.502764506181725 4.2010839251819988e-013  -5.1361936984654885e-015 -10.843790145662014 3.6135945388159634  -3.8747166359864538e-015 -8.9941373916961069 6.710113632215907  -1.9347278568781344e-015 -6.2831850342971416 8.903380267317436  5.4372465371667352e-016 -3.1415926535896963 10.000000000000142  3.4074288936215642e-015 -5.1993801566165894e-015 10.000000000000005  

3.1415926535897931 9
4.7123889803846897 9

4.7123889803846897 11
7.8539816339744828 11

9 0 0 0 0 8 10 9 11 2 2 -9.9396474057847263e-029 -4.1103883128112719e-015 -9.9999999999999982  3.1415926535897594 -3.1010120144469449e-015 -9.9999999999999876  6.2831850342968627 -2.4040058063316889e-015 -8.9033802673178677  8.9941373916965812 -1.9511458150108478e-015 -6.7101136322150747  10.843790145661403 -1.6911258512162376e-015 -3.6135945388171455  11.502764506182388 -1.5895574098594027e-015 8.4732221239391796e-013  10.843790145661432 -1.6289696700449958e-015 3.6135945388156485  8.9941373916964693 -1.8088094950523046e-015 6.7101136322160793  6.2831850342969755 -2.1454414323547752e-015 8.903380267317365  3.1415926535897327 -2.672147713603806e-015 10.000000000000149  -1.296903615838716e-016 -3.4391282546397941e-015 9.9999999999999982  
5.148660500258722e-014 3.5866944736140653e-014 -10.000000000000002  3.1415926535909682 0.61685027506936663 -10.000000000001096  6.2831850342919013 1.233700496550642 -8.9033802673139135  8.9941373917083745 1.7659947472080164 -6.710113632225096  10.843790145641728 2.129173216146754 -3.6135945387992248  11.502764506206546 2.2585625293129401 -2.2712869680268328e-011  10.843790145640122 2.1291732161440913 3.6135945388388109  8.9941373917096623 1.7659947472109867 6.7101136321993939  6.2831850342917184 1.2337004965491434 8.9033802673255984  3.1415926535909939 0.61685027506979306 9.999999999997943  -1.5869957101382425e-015 6.8109376701058274e-014 9.9999999999999858  
-1.8297972028979306e-013 -1.3529448167766539e-013 -9.9999999999999822  3.0031716026724831 1.2337007442993329 -9.9999999999966303  6.0063429445189209 2.4674013814646862 -8.9033802673294868  8.597848602139333 3.5319900502357742 -6.7101136321850916  10.366004196603397 4.258347102612273 -3.6135945388718924  10.995943626695343 4.5171257694195202 7.388177195253742e-011  10.366004196611627 4.2583471026217383 3.6135945387431487  8.5978486021311475 3.5319900502252706 6.7101136322685635  6.0063429445222241 2.4674013814699665 8.9033802672914586  3.0031716026715669 1.2337007442978669 10.000000000007079  3.0158453238520736e-014 -2.4271267618587626e-013 10.000000000000005  
3.4433727975302319e-013 2.3459174348428071e-013 -10.000000000000078  2.7263308604034218 1.8143113343462547 -10.000000000006878  5.4526614839370069 3.6286225110494268 -8.9033802672935227  7.8052749155380159 5.1942333752115708 -6.7101136322775341  9.4104369907649783 6.2624323193394495 -3.6135945387043238  9.9823068461257947 6.6429987339244185 -1.481581316185486e-010  9.4104369907474243 6.2624323193215075 3.6135945389624582  7.8052749155557324 5.1942333752311587 6.7101136321103354  5.4526614839294538 3.628622511039798 8.9033802673693536  2.726330860405568 1.8143113343488642 9.9999999999862759  -4.0137479369876721e-014 4.4932270662637126e-013 10.000000000000036  
-4.1230816136079942e-013 -2.8739976394310557e-013 -9.999999999999817  2.3224498762502681 2.3224498762498693 -9.9999999999907754  4.6448995508306856 4.6448995508289199 -8.9033802673510749  6.6489948173963365 6.6489948174042839 -6.7101136321303061  8.0163668111966313 8.0163668111781945 -3.6135945389685928  8.5035193766474393 8.5035193766720845 1.9895543667573812e-010  8.0163668112220865 8.0163668112006192 3.613594538621554  6.6489948173698279 6.6489948173800704 6.7101136323556796  4.644899550842891 4.644899550840603 8.9033802672486733  2.3224498762468038 2.3224498762468522 10.000000000018479  3.0540703422204845e-014 -5.5763319958669146e-013 9.9999999999998987  
3.1871852733096082e-013 2.1462703230464858e-013 -10.000000000000242  1.8143113343443704 2.726330860402316 -10.000000000008788  3.6286225110542523 5.4526614839441603 -8.9033802672854172  5.1942333752041359 7.8052749155189236 -6.7101136322968493  6.2624323193454581 9.4104369907987646 -3.6135945386738952  6.6429987339218659 9.9823068460854856 -1.834992493051967e-010  6.262432319321694 9.4104369907811805 3.613594538994445  5.1942333752292313 7.8052749155372299 6.7101136320878023  3.628622511042241 5.4526614839359029 8.9033802673807134  1.8143113343478177 2.7263308604042935 9.9999999999831708  -1.7034605649431986e-014 4.5461569885826364e-013 10.000000000000133  
-1.6262972608571628e-013 -1.1127911686543591e-013 -9.9999999999998224  1.2337007443009855 3.0031716026737341 -9.9999999999946461  2.4674013814595157 6.0063429445124239 -8.9033802673378339  3.5319900502456512 8.5978486021552811 -6.7101136321652461  4.2583471025997524 10.366004196577137 -3.6135945389031612  4.5171257694313285 10.995943626725456 1.1011256738864648e-010  4.2583471026132012 10.366004196586641 3.613594538710573  3.5319900502312271 8.5978486021456924 6.710113632291268  2.4674013814666482 6.00634294451649 8.903380267280113  1.2337007442989247 3.0031716026728992 10.000000000010157  5.6101988376751493e-015 -2.372872821339286e-013 9.9999999999999076  
4.1291296340878883e-014 2.9804653994499618e-014 -10.00000000000006  0.61685027506878831 3.1415926535905228 -10.000000000001855  1.2337004965525538 6.2831850342940898 -8.9033802673108173  1.7659947472042272 8.9941373917032141 -6.7101136322321926  2.1291732161518682 10.843790145649852 -3.6135945387883557  2.2585625293078633 11.502764506197583 -3.5020237503553197e-011  2.129173216147882 10.843790145647407 3.6135945388497155  1.7659947472085313 8.9941373917053653 6.7101136321918089  1.2337004965503848 6.2831850342934503 8.9033802673294176  0.61685027506942602 3.1415926535905716 9.9999999999968949  -3.2187778754703755e-015 6.610576272793473e-014 10.000000000000032  
-6.7469054160795611e-016 -3.5527136788006098e-015 -10  -1.106164042741926e-016 3.1415926535897536 -10.00000000000003  3.9427008237843523e-016 6.2831850342968627 -8.9033802673176794  7.8587502264563947e-016 8.9941373916966114 -6.7101136322154868  1.0265885241397786e-015 10.843790145661313 -3.6135945388165309  1.0961520595252192e-015 11.50276450618253 1.2878587085651793e-013  9.9079110478520745e-016 10.843790145661279 3.6135945388163249  7.240825009529253e-016 8.9941373916965919 6.710113632215565  3.26087092380926e-016 6.2831850342969089 8.9033802673176456  -1.557829115272448e-016 3.1415926535897527 10.000000000000068  -6.5763129805085611e-016 -1.2969036158382742e-016 10  

0 9
1.5707963267948966 9

4.7123889803846897 11
7.8539816339744828 11

9 0 0 0 0 8 10 9 11 2 2 5.7161018946578422e-015 5.329070518200734e-015 -10.000000000000002  3.9482042038952514e-015 3.1415926535897927 -10  2.6585527595086427e-015 6.2831850342967757 -8.9033802673178499  1.8315923096417142e-015 8.9941373916967216 -6.7101136322150685  1.4246728738601644e-015 10.843790145661293 -3.6135945388172583  1.3830289426926044e-015 11.502764506182423 1.0738077094174496e-012  1.6537013219041554e-015 10.843790145661453 3.6135945388153687  2.1910001346852677e-015 8.9941373916964427 6.7101136322163093  2.9510418194627127e-015 6.2831850342969977 8.9033802673172495  3.8778272856265487e-015 3.1415926535897269 10.000000000000178  4.8882627139883811e-015 5.1993801566168553e-015 10.000000000000002  
3.2619266240988547e-014 3.0008287059703179e-014 -9.9999999999999165  -0.61685027506985635 3.1415926535916849 -9.9999999999985647  -1.2337004965484226 6.283185034289092 -8.9033802673231826  -1.7659947472129351 8.9941373917140037 -6.7101136322030444  -2.1291732161391264 10.843790145634282 -3.6135945388359136  -2.2585625293211962 11.502764506213435 2.2822304892483446e-011  -2.1291732161373802 10.843790145634877 3.6135945387962023  -1.7659947472148791 8.9941373917130445 6.7101136322287029  -1.2337004965472675 6.2831850342897253 8.9033802673114302  -0.61685027507023982 3.1415926535915557 10.000000000001641  1.328755434714177e-014 -1.061314989673421e-014 9.9999999999999236  
-9.6690956971173572e-014 -1.0007209277740715e-013 -10.000000000000284  -1.2337007442976904 3.003171602669743 -10.000000000005276  -2.4674013814723059 6.0063429445294094 -8.9033802672978162  -3.5319900502185027 8.5978486021184626 -6.710113632260799  -4.2583471026397657 10.366004196631087 -3.6135945387451311  -4.5171257693889988 10.995943626669355 -8.4450514608580716e-011  -4.2583471026472939 10.366004196631373 3.6135945388921158  -3.5319900502099539 8.5978486021187006 6.7101136321656396  -2.4674013814774378 6.006342944529151 8.9033802673413529  -1.233700744296045 3.0031716026697359 9.9999999999939835  -3.9505706450417934e-014 5.7253866431882697e-014 10.000000000000247  
1.964381312638913e-013 2.1028835012516654e-013 -9.9999999999995346  -1.8143113343484658 2.7263308604090604 -9.9999999999898463  -3.6286225110381642 5.4526614839152998 -8.9033802673564075  -5.1942333752381407 7.8052749155820935 -6.7101136321277801  -6.2624323192951863 9.4104369907053087 -3.613594538954366  -6.6429987339751619 9.9823068461839384 1.635283109730635e-010  -6.2624323192776661 9.4104369907018377 3.6135945386692998  -5.1942333752580536 7.8052749155850538 6.7101136323131216  -3.6286225110262795 5.4526614839138476 8.9033802672711353  -1.8143113343521899 2.7263308604096346 10.00000000001201  9.6974183175461207e-014 -8.1516124034194425e-014 9.9999999999996021  
-2.322063703962943e-013 -2.6051636176286964e-013 -10.000000000000462  -2.3224498762483496 2.3224498762439771 -10.000000000013188  -4.6448995508386224 4.6448995508549222 -8.9033802672672522  -6.6489948173796396 6.6489948173475817 -6.7101136323285218  -8.01636681122209 8.0163668112611504 -3.6135945386398487  -8.5035193766194759 8.5035193765856345 -2.0877344394459794e-010  -8.0163668112480462 8.0163668112703643 3.6135945390044593  -6.6489948173499958 6.6489948173379716 6.7101136320901276  -4.6448995508563131 4.6448995508602433 8.903380267377468  -2.3224498762429442 2.3224498762422541 9.999999999984615  -1.4572813591939276e-013 8.3605276461820241e-014 10.00000000000038  
2.0352680501578528e-013 2.0723011622314974e-013 -9.9999999999997264  -2.7263308604028893 1.8143113343489099 -9.9999999999886597  -5.4526614839384244 3.628622511036824 -8.9033802673618467  -7.8052749155348096 5.1942333752385128 -6.7101136321168813  -9.4104369907686465 6.2624323193015794 -3.6135945389706534  -9.9823068461231639 6.6429987339624672 1.8266845300168937e-010  -9.4104369907454615 6.2624323192903573 3.6135945386512347  -7.8052749155610117 5.1942333752506036 6.7101136323264461  -5.4526614839229888 3.6286225110301236 8.9033802672647813  -2.7263308604075505 1.8143113343510264 10.000000000013834  1.6634245725548646e-013 -5.3597246818848472e-014 9.9999999999997673  
-1.0930912909259501e-013 -1.0837703415345574e-013 -10.000000000000105  -3.0031716026736675 1.2337007442988226 -10.000000000006258  -6.00634294451479 2.4674013814678677 -8.9033802672933664  -8.5978486021483445 3.5319900502292447 -6.7101136322697741  -10.366004196590659 4.2583471026204647 -3.6135945387313875  -10.995943626708279 4.5171257694123161 -1.0135334788624509e-010  -10.366004196603644 4.2583471026279618 3.6135945389088127  -8.5978486021337179 3.5319900502209061 6.710113632153007  -6.0063429445233165 2.4674013814726026 8.9033802673473925  -3.0031716026711441 1.2337007442973389 9.9999999999923208  -1.1752941177093343e-013 2.0775700620129785e-014 10.000000000000105  
3.1384678293233108e-014 2.9571222886626161e-014 -9.9999999999999858  -3.1415926535905196 0.61685027506935963 -9.9999999999981632  -6.2831850342934281 1.233700496550354 -8.9033802673250424  -8.9941373917051308 1.7659947472084851 -6.7101136321989934  -10.843790145646246 2.1291732161466363 -3.6135945388425377  -11.502764506202046 2.2585625293125342 3.1357120075118424e-011  -10.843790145642899 2.1291732161442862 3.6135945387875408  -8.9941373917087262 1.7659947472111077 6.7101136322353412  -6.2831850342914528 1.2337004965488607 8.9033802673081617  -3.1415926535911067 0.61685027506983459 10.000000000002562  3.7587676359098309e-014 -4.5768797033658001e-015 9.9999999999999787  
2.035261135470206e-028 -1.4931141040358384e-015 -10.000000000000004  -3.1415926535897225 -3.2821103690756006e-016 -10.000000000000043  -6.2831850342970164 6.7874485539887221e-016 -8.9033802673176741  -8.9941373916962277 1.4793832482099582e-015 -6.7101136322155028  -10.843790145661998 2.0045460472005706e-015 -3.6135945388165172  -11.502764506181688 2.1951131492029039e-015 1.2345680033831718e-013  -10.843790145662052 2.0289787690329764e-015 3.6135945388163182  -8.9941373916960785 1.532844805584274e-015 6.7101136322155934  -6.2831850342971558 7.7042747573430569e-016 8.9033802673176208  -3.1415926535896905 -1.8451901248260477e-016 10.000000000000078  -3.4230233172165275e-015 -1.279028220683724e-015 10.000000000000004  

1.5707963267948966 9
3.1415926535897931 9

4.7123889803846897 11
7.8539816339744828 11

Triangulations 0

TShapes 24
Ve
1e-005
6.12323399573677e-016 -1.49975978266186e-031 10
0 0

0101100
*
Ed
 1e-007 1 1 1
2  1 1 0 4.71238898038469 6.28318530717959
0

0101100
-24 0 +24 0 *
Ve
1e-005
6.12323399573677e-016 -1.49975978266186e-031 -10
0 0

0101100
*
Ed
 1e-005 1 1 0
1  1 0 -1.5707963267949 1.5707963267949
2  2 1 0 -1.5707963267949 1.5707963267949
2  3 2 0 -1.5707963267949 1.5707963267949
0

0101000
-24 0 +22 0 *
Ed
 1e-007 1 1 1
2  4 1 0 4.71238898038469 6.28318530717959
0

0101100
+22 0 -22 0 *
Ed
 1.4756369182358e-007 1 1 0
1  2 0 4.71238898038469 7.85398163397448
2  5 1 0 4.71238898038469 7.85398163397448
2  6 3 0 4.71238898038469 7.85398163397448
0

0101000
+22 0 -24 0 *
Wi

0101100
-23 0 -21 0 +20 0 +19 0 *
Fa
0  1e-007 1 0

0101000
+18 0 *
Ed
 1e-007 1 1 1
2  7 2 0 3.14159265358979 4.71238898038469
0

0101100
-24 0 +24 0 *
Ed
 1e-005 1 1 0
1  3 0 -1.5707963267949 1.5707963267949
2  8 2 0 -1.5707963267949 1.5707963267949
2  9 4 0 -1.5707963267949 1.5707963267949
0

0101000
-24 0 +22 0 *
Ed
 1e-007 1 1 1
2  10 2 0 3.14159265358979 4.71238898038469
0

0101100
+22 0 -22 0 *
Wi

0101100
-16 0 -15 0 +14 0 +21 0 *
Fa
0  1e-007 2 0

0101000
+13 0 *
Ed
 1e-007 1 1 1
2  11 4 0 1.5707963267949 3.14159265358979
0

0101100
-24 0 +24 0 *
Ed
 1e-005 1 1 0
1  4 0 -1.5707963267949 1.5707963267949
2  12 4 0 -1.5707963267949 1.5707963267949
2  13 3 0 -1.5707963267949 1.5707963267949
0

0101000
-24 0 +22 0 *
Ed
 1e-007 1 1 1
2  14 4 0 1.5707963267949 3.14159265358979
0

0101100
+22 0 -22 0 *
Wi

0101100
-11 0 -10 0 +9 0 +15 0 *
Fa
0  1e-007 4 0

0101000
+8 0 *
Ed
 1e-007 1 1 1
2  15 3 0 0 1.5707963267949
0

0101100
-24 0 +24 0 *
Ed
 1e-007 1 1 1
2  16 3 0 0 1.5707963267949
0

0101100
+22 0 -22 0 *
Wi

0101100
-6 0 -19 0 +5 0 +10 0 *
Fa
0  1e-007 3 0

0101000
+4 0 *
Sh

0101000
+17 0 +12 0 +7 0 +3 0 *
So

1100000
+2 0 *

+1 0 