DBRep_DrawableShape

CASCADE Topology V1, (c) Matra-Datavision
Locations 0
Curve2ds 6
7 0 0  1 2 2  0 20  6.2831853071795862 20 
 0 2 6.2831853071795862 2
7 0 0  6 42 9  10 0  10.000000000000014 1.3089969389957508  9.7943840481854458 2.6179916916075574  9.3831467879003867 3.8866266572858565  8.7768750562430231 5.0744756997915754  7.996668423981812 6.1454671997491443  6.1454671997491417 7.9966684239818031  5.0744756997915816 8.7768750562430622  3.8866266572858463 9.3831467879003227  2.6179916916075667 9.7943840481855027  1.3089969389957523 9.9999999999999964  -1.3089969389957585 10.000000000000007  -2.6179916916075161 9.79438404818546  -3.8866266572859387 9.3831467879004098  -5.0744756997915026 8.776875056243  -6.145467199749171 7.9966684239818226  -7.9966684239817809 6.1454671997491426  -8.7768750562431421 5.0744756997915843  -9.3831467879002215 3.8866266572858383  -9.7943840481855808 2.6179916916075774  -9.9999999999999662 1.308996938995749  -10.000000000000044 -1.3089969389957532  -9.7943840481853872 -2.6179916916075414  -9.3831467879004489 -3.8866266572858779  -8.7768750562429751 -5.0744756997915514  -7.996668423981828 -6.1454671997491541  -6.1454671997491497 -7.996668423981804  -5.0744756997915905 -8.776875056243064  -3.8866266572858326 -9.3831467879003068  -2.6179916916075938 -9.7943840481855258  -1.3089969389957483 -9.9999999999999893  1.308996938995745 -10.000000000000016  2.6179916916075934 -9.7943840481854831  3.8866266572858255 -9.3831467879003512  5.0744756997915896 -8.7768750562430373  6.1454671997491443 -7.9966684239818067  7.9966684239818084 -6.1454671997491559  8.7768750562430444 -5.0744756997915861  9.3831467879003121 -3.8866266572858361  9.7943840481855275 -2.6179916916075929  9.9999999999999787 -1.3089969389957488  9.9999999999999982 -2.2204460492503131e-015 
 0 7 0.78539816339744828 5 1.5707963267948966 5 2.3561944901923448 5 3.1415926535897931 5 3.9269908169872414 5 4.7123889803846897 5 5.497787143782138 5 6.2831853071795862 7
7 0 0  1 2 2  6.2831853071795862 0  6.2831853071795862 20 
 0 2 20 2
7 0 0  1 2 2  0 0  0 20 
 0 2 20 2
7 0 0  1 2 2  0 0  6.2831853071795862 0 
 0 2 6.2831853071795862 2
7 0 0  6 42 9  10 0  10.000000000000014 1.3089969389957508  9.7943840481854458 2.6179916916075574  9.3831467879003867 3.8866266572858565  8.7768750562430231 5.0744756997915754  7.996668423981812 6.1454671997491443  6.1454671997491417 7.9966684239818031  5.0744756997915816 8.7768750562430622  3.8866266572858463 9.3831467879003227  2.6179916916075667 9.7943840481855027  1.3089969389957523 9.9999999999999964  -1.3089969389957585 10.000000000000007  -2.6179916916075161 9.79438404818546  -3.8866266572859387 9.3831467879004098  -5.0744756997915026 8.776875056243  -6.145467199749171 7.9966684239818226  -7.9966684239817809 6.1454671997491426  -8.7768750562431421 5.0744756997915843  -9.3831467879002215 3.8866266572858383  -9.7943840481855808 2.6179916916075774  -9.9999999999999662 1.308996938995749  -10.000000000000044 -1.3089969389957532  -9.7943840481853872 -2.6179916916075414  -9.3831467879004489 -3.8866266572858779  -8.7768750562429751 -5.0744756997915514  -7.996668423981828 -6.1454671997491541  -6.1454671997491497 -7.996668423981804  -5.0744756997915905 -8.776875056243064  -3.8866266572858326 -9.3831467879003068  -2.6179916916075938 -9.7943840481855258  -1.3089969389957483 -9.9999999999999893  1.308996938995745 -10.000000000000016  2.6179916916075934 -9.7943840481854831  3.8866266572858255 -9.3831467879003512  5.0744756997915896 -8.7768750562430373  6.1454671997491443 -7.9966684239818067  7.9966684239818084 -6.1454671997491559  8.7768750562430444 -5.0744756997915861  9.3831467879003121 -3.8866266572858361  9.7943840481855275 -2.6179916916075929  9.9999999999999787 -1.3089969389957488  9.9999999999999982 -2.2204460492503131e-015 
 0 7 0.78539816339744828 5 1.5707963267948966 5 2.3561944901923448 5 3.1415926535897931 5 3.9269908169872414 5 4.7123889803846897 5 5.497787143782138 5 6.2831853071795862 7
Curves 3
7 0 0  6 42 9  10 0 20  10.000000000000014 1.3089969389957508 20.000000000000036  9.7943840481854458 2.6179916916075574 19.999999999999872  9.3831467879003867 3.8866266572858565 20.000000000000149  8.7768750562430231 5.0744756997915754 19.999999999999908  7.996668423981812 6.1454671997491443 20.000000000000028  6.1454671997491417 7.9966684239818031 19.999999999999968  5.0744756997915816 8.7768750562430622 20.000000000000053  3.8866266572858463 9.3831467879003227 19.999999999999947  2.6179916916075667 9.7943840481855027 20.000000000000014  1.3089969389957523 9.9999999999999964 20.000000000000011  -1.3089969389957585 10.000000000000007 20.000000000000007  -2.6179916916075161 9.79438404818546 19.999999999999932  -3.8866266572859387 9.3831467879004098 20.000000000000156  -5.0744756997915026 8.776875056243 19.999999999999876  -6.145467199749171 7.9966684239818226 20.000000000000043  -7.9966684239817809 6.1454671997491426 19.999999999999975  -8.7768750562431421 5.0744756997915843 20.000000000000107  -9.3831467879002215 3.8866266572858383 19.99999999999984  -9.7943840481855808 2.6179916916075774 20.000000000000128  -9.9999999999999662 1.308996938995749 19.999999999999943  -10.000000000000044 -1.3089969389957532 20.000000000000075  -9.7943840481853872 -2.6179916916075414 19.999999999999808  -9.3831467879004489 -3.8866266572858779 20.000000000000217  -8.7768750562429751 -5.0744756997915514 19.999999999999854  -7.996668423981828 -6.1454671997491541 20.000000000000039  -6.1454671997491497 -7.996668423981804 19.999999999999989  -5.0744756997915905 -8.776875056243064 20.000000000000057  -3.8866266572858326 -9.3831467879003068 19.999999999999929  -2.6179916916075938 -9.7943840481855258 20.000000000000046  -1.3089969389957483 -9.9999999999999893 19.999999999999993  1.308996938995745 -10.000000000000016 20.000000000000004  2.6179916916075934 -9.7943840481854831 20.000000000000075  3.8866266572858255 -9.3831467879003512 19.999999999999901  5.0744756997915896 -8.7768750562430373 20.000000000000071  6.1454671997491443 -7.9966684239818067 19.999999999999968  7.9966684239818084 -6.1454671997491559 20.000000000000039  8.7768750562430444 -5.0744756997915861 19.99999999999994  9.3831467879003121 -3.8866266572858361 20.00000000000005  9.7943840481855275 -2.6179916916075929 19.999999999999964  9.9999999999999787 -1.3089969389957488 20.000000000000004  9.9999999999999982 -2.2204460492503131e-015 20 
 0 7 0.78539816339744828 5 1.5707963267948966 5 2.3561944901923448 5 3.1415926535897931 5 3.9269908169872414 5 4.7123889803846897 5 5.497787143782138 5 6.2831853071795862 7
7 0 0  1 2 2  10 -2.4492935982947065e-015 0  10 -2.4492935982947065e-015 20 
 0 2 20 2
7 0 0  6 42 9  10 0 0  10.000000000000014 1.3089969389957508 0  9.7943840481854458 2.6179916916075574 0  9.3831467879003867 3.8866266572858565 0  8.7768750562430231 5.0744756997915754 0  7.996668423981812 6.1454671997491443 0  6.1454671997491417 7.9966684239818031 0  5.0744756997915816 8.7768750562430622 0  3.8866266572858463 9.3831467879003227 0  2.6179916916075667 9.7943840481855027 0  1.3089969389957523 9.9999999999999964 0  -1.3089969389957585 10.000000000000007 0  -2.6179916916075161 9.79438404818546 0  -3.8866266572859387 9.3831467879004098 0  -5.0744756997915026 8.776875056243 0  -6.145467199749171 7.9966684239818226 0  -7.9966684239817809 6.1454671997491426 0  -8.7768750562431421 5.0744756997915843 0  -9.3831467879002215 3.8866266572858383 0  -9.7943840481855808 2.6179916916075774 0  -9.9999999999999662 1.308996938995749 0  -10.000000000000044 -1.3089969389957532 0  -9.7943840481853872 -2.6179916916075414 0  -9.3831467879004489 -3.8866266572858779 0  -8.7768750562429751 -5.0744756997915514 0  -7.996668423981828 -6.1454671997491541 0  -6.1454671997491497 -7.996668423981804 0  -5.0744756997915905 -8.776875056243064 0  -3.8866266572858326 -9.3831467879003068 0  -2.6179916916075938 -9.7943840481855258 0  -1.3089969389957483 -9.9999999999999893 0  1.308996938995745 -10.000000000000016 0  2.6179916916075934 -9.7943840481854831 0  3.8866266572858255 -9.3831467879003512 0  5.0744756997915896 -8.7768750562430373 0  6.1454671997491443 -7.9966684239818067 0  7.9966684239818084 -6.1454671997491559 0  8.7768750562430444 -5.0744756997915861 0  9.3831467879003121 -3.8866266572858361 0  9.7943840481855275 -2.6179916916075929 0  9.9999999999999787 -1.3089969389957488 0  9.9999999999999982 -2.2204460492503131e-015 0 
 0 7 0.78539816339744828 5 1.5707963267948966 5 2.3561944901923448 5 3.1415926535897931 5 3.9269908169872414 5 4.7123889803846897 5 5.497787143782138 5 6.2831853071795862 7
Polygon3D 0
PolygonOnTriangulations 0
Surfaces 3
9 0 0 0 0 13 3 14 4 2 2 10 -6.2172489379008766e-015 -1.7763568394002505e-015  9.9999999999999964 -6.2172489379008743e-015 6.6666666666666652  10.000000000000002 -6.2172489379008758e-015 13.333333333333334  10 -6.2172489379008766e-015 20  
9.9999999999997726 4.8332194670603768 1.6605323201745097e-014  9.9999999999993179 4.8332194670609416 6.6666666666660461  10.000000000000743 4.833219467060097 13.333333333333174  9.9999999999997726 4.8332194670603768 20.000000000000547  
7.469318318341724 9.6664408668642565 -6.6679487350389734e-014  7.4693183183437046 9.6664408668617288 6.6666666666693164  7.4693183183373693 9.6664408668654254 13.333333333333858  7.469318318341724 9.6664408668642565 19.99999999999724  
2.4081056184078138 13.054125992639616 1.8322226604239511e-013  2.4081056184025256 13.054125992646359 6.6666666666597507  2.4081056184196576 13.054125992636806 13.33333333333217  2.4081056184078138 13.054125992639616 20.000000000007908  
-4.2762117998143223 13.550915944626219 -3.8727615615022704e-013  -4.2762117998043028 13.550915944612878 6.6666666666794683  -4.2762117998376912 13.550915944631075 13.333333333334583  -4.2762117998143223 13.550915944626219 19.999999999982951  
-10.764212425741697 10.344686757395674 6.6158234057420385e-013  -10.764212425755819 10.344686757416632 6.666666666649383  -10.764212425706086 10.344686757388915 13.33333333333516  -10.764212425741697 10.344686757395674 20.000000000030909  
-14.836999796158119 3.8944767243314851 -9.3542172420178692e-013  -14.836999796143251 3.8944767243045213 6.6666666666838266  -14.836999796201257 3.8944767243398806 13.333333333323912  -14.836999796158119 3.8944767243314851 19.99999999995326  
-14.836999796207456 -3.8944767243360396 1.1054787530094652e-012  -14.836999796218878 -3.8944767243075433 6.6666666666541605  -14.83699979616544 -3.8944767243455387 13.333333333351273  -14.836999796207456 -3.8944767243360396 20.000000000056694  
-10.764212425702228 -10.344686757384514 -1.0907774166295839e-012  -10.764212425696014 -10.344686757409022 6.6666666666731142  -10.76421242573519 -10.344686757375127 13.333333333311819  -10.764212425702228 -10.344686757384514 19.999999999946173  
-4.2762117998396239 -13.55091594463838 8.8640809491288969e-013  -4.2762117998418363 -13.550915944621522 6.6666666666645664  -4.276211799818971 -13.550915944645961 13.333333333351373  -4.2762117998396239 -13.55091594463838 20.000000000039247  
2.4081056184205836 -13.054125992631088 -5.730878661632357e-013  2.4081056184209766 -13.054125992640044 6.6666666666669245  2.408105618410493 -13.054125992626439 13.333333333322594  2.4081056184205836 -13.054125992631088 19.999999999978662  
7.4693183183369563 -9.6664408668681467 2.713005116596303e-013  7.4693183183369936 -9.6664408668646935 6.6666666666667513  7.4693183183405685 -9.6664408668701345 13.333333333337691  7.4693183183369563 -9.6664408668681467 20.000000000008153  
10.000000000000858 -4.8332194670594033 -7.3287255077157997e-014  10.000000000000814 -4.8332194670601885 6.6666666666666252  10.000000000000083 -4.833219467058921 13.333333333332316  10.000000000000858 -4.8332194670594033 19.999999999998163  
9.9999999999999947 1.14755914287285e-015 1.7763568394000339e-015  9.9999999999999911 1.1475591428705733e-015 6.6666666666666643  9.9999999999999947 1.1475591428742447e-015 13.333333333333336  9.9999999999999947 1.14755914287285e-015 20.000000000000004  

0 14
6.2831853071795862 14

0 4
20 4

9 0 0 0 0 1 1 2 2 2 2 -10 -10 20  -10 10 20  
10 -10 20  10 10 20  

-10 2
10 2

-10 2
10 2

9 0 0 0 0 1 1 2 2 2 2 -10 -10 0  -10 10 0  
10 -10 0  10 10 0  

-10 2
10 2

-10 2
10 2

Triangulations 0

TShapes 13
Ve
1.92800765659942e-007
10 -2.44929359829471e-015 20
0 0

0101100
*
Ed
 1.92800765659942e-007 1 1 0
1  1 0 0 6.28318530717959
2  1 1 0 0 6.28318530717959
2  2 2 0 0 6.28318530717959
0

0101100
+13 0 -13 0 *
Ve
1.92800765659939e-007
10 -2.44929359829471e-015 0
0 0

0101100
*
Ed
 1e-007 1 1 0
1  2 0 0 20
3  3 4CN 1 0 0 20
0

0101000
-13 0 +11 0 *
Ed
 1.92800765659939e-007 1 1 0
1  3 0 0 6.28318530717959
2  5 1 0 0 6.28318530717959
2  6 3 0 0 6.28318530717959
0

0101100
+11 0 -11 0 *
Wi

0101100
-12 0 -10 0 +9 0 +10 0 *
Fa
0  1e-007 1 0

0101000
+8 0 *
Wi

0101000
+12 0 *
Fa
0  1e-007 2 0

0101000
+6 0 *
Wi

0101000
-9 0 *
Fa
0  1e-007 3 0

0101000
-4 0 *
Sh

0101000
+7 0 +5 0 -3 0 *
So

1100000
+2 0 *

+1 0 