DBRep_DrawableShape

CASCADE Topology V1, (c) Matra-Datavision
Locations 1
1
0.790924400411889 0.251713951459519 -0.557744277849382 1756.82363716537 
0.251713951460237 0.696952138440029 0.671489242925115 -2244.03835783678 
-0.557744277849058 0.671489242925384 -0.487876538851918 5149.54665016111 
Curve2ds 10
1 1.0064130615387007e-012 -1.5707963267948966 1 0 
7 0 0  3 25 23  3.1415926535896261 -1.1275566458119628  3.1415926535898193 -1.134272398554151  3.1415926535898797 -1.1477039040385242  3.1415926535894489 -1.1678511622650793  3.1415926535899859 -1.1879984204916045  3.1415926535893628 -1.2081456787181675  3.1415926535901115 -1.2282929369448443  3.1415926535889489 -1.2484401951712758  3.1415926535901399 -1.2685874533978378  3.1415926535892478 -1.2887347116243828  3.1415926535900831 -1.3088819698510819  3.1415926535891763 -1.3290292280775582  3.1415926535901759 -1.3491764863041269  3.1415926535888756 -1.3693237445306596  3.1415926535887873 -1.3894710027571957  3.1415926535899694 -1.4096182609837278  3.1415926535900933 -1.429765519210271  3.141592653588416 -1.4499127774368796  3.1415926535878724 -1.470060035663407  3.1415926535903074 -1.4902072938899034  3.141592653589655 -1.5103545521166173  3.1415926535898295 -1.5305018103430839  3.1415926535897829 -1.5506490685698002  3.1415926535897931 -1.5640805740534407  3.1415926535897931 -1.5707963267948966 
 3.1415926535897931 4 3.1617399118163485 1 3.1818871700429043 1 3.2020344282694597 1 3.2221816864960156 1 3.2423289447225709 1 3.2624762029491268 1 3.2826234611756822 1 3.302770719402238 1 3.3229179776287934 1 3.3430652358553488 1 3.3632124940819046 1 3.38335975230846 1 3.4035070105350158 1 3.4236542687615712 1 3.443801526988127 1 3.4639487852146824 1 3.4840960434412382 1 3.5042433016677936 1 3.5243905598943495 1 3.5445378181209048 1 3.5646850763474607 1 3.5848323345740161 4
7 0 0  3 25 23  3.1415926535896261 -1.1275566458119628  3.1415926535898193 -1.134272398554151  3.1415926535898797 -1.1477039040385242  3.1415926535894489 -1.1678511622650793  3.1415926535899859 -1.1879984204916045  3.1415926535893628 -1.2081456787181675  3.1415926535901115 -1.2282929369448443  3.1415926535889489 -1.2484401951712758  3.1415926535901399 -1.2685874533978378  3.1415926535892478 -1.2887347116243828  3.1415926535900831 -1.3088819698510819  3.1415926535891763 -1.3290292280775582  3.1415926535901759 -1.3491764863041269  3.1415926535888756 -1.3693237445306596  3.1415926535887873 -1.3894710027571957  3.1415926535899694 -1.4096182609837278  3.1415926535900933 -1.429765519210271  3.141592653588416 -1.4499127774368796  3.1415926535878724 -1.470060035663407  3.1415926535903074 -1.4902072938899034  3.141592653589655 -1.5103545521166173  3.1415926535898295 -1.5305018103430839  3.1415926535897829 -1.5506490685698002  3.1415926535897931 -1.5640805740534407  3.1415926535897931 -1.5707963267948966 
 3.1415926535897931 4 3.1617399118163485 1 3.1818871700429043 1 3.2020344282694597 1 3.2221816864960156 1 3.2423289447225709 1 3.2624762029491268 1 3.2826234611756822 1 3.302770719402238 1 3.3229179776287934 1 3.3430652358553488 1 3.3632124940819046 1 3.38335975230846 1 3.4035070105350158 1 3.4236542687615712 1 3.443801526988127 1 3.4639487852146824 1 3.4840960434412382 1 3.5042433016677936 1 3.5243905598943495 1 3.5445378181209048 1 3.5646850763474607 1 3.5848323345740161 4
7 0 0  3 25 23  3.1415926535897931 1.5707963267948966  3.1415926535898966 1.5299121908463502  3.1415926535898371 1.4481439189492251  3.1415926535894823 1.3254915111034757  3.1415926535892225 1.2028391032576642  3.1415926535899996 1.0801866954119197  3.1415926535895378 0.95753428756610193  3.1415926535898615 0.8348818797203138  3.1415926535897771 0.71222947187464802  3.1415926535897882 0.58957706402879262  3.1415926535898273 0.46692465618310158  3.1415926535896626 0.34427224833722936  3.1415926535898282 0.22161984049153483  3.1415926535897833 0.098967432645758704  3.1415926535897976 -0.023684975199998501  3.141592653589782 -0.14633738304579805  3.1415926535898318 -0.2689897908916225  3.141592653589647 -0.39164219873735462  3.1415926535898739 -0.51429460658308179  3.1415926535896155 -0.63694701442884216  3.1415926535898899 -0.75959942227467536  3.1415926535895831 -0.88225183012048225  3.1415926535898571 -1.0049042379661903  3.1415926535897847 -1.0866725098633581  3.1415926535896261 -1.1275566458119628 
 0.44323968098290284 4 0.56589208882867059 1 0.68854449667443829 1 0.8111969045202061 1 0.9338493123659739 1 1.0565017202117417 1 1.1791541280575093 1 1.3018065359032771 1 1.4244589437490449 1 1.5471113515948127 1 1.6697637594405805 1 1.7924161672863481 1 1.9150685751321159 1 2.0377209829778837 1 2.1603733908236511 1 2.2830257986694189 1 2.4056782065151867 1 2.5283306143609545 1 2.6509830222067223 1 2.7736354300524901 1 2.8962878378982579 1 3.0189402457440253 1 3.1415926535897931 4
7 0 0  3 25 23  3.1415926535897931 1.5707963267948966  3.1415926535898966 1.5299121908463502  3.1415926535898371 1.4481439189492251  3.1415926535894823 1.3254915111034757  3.1415926535892225 1.2028391032576642  3.1415926535899996 1.0801866954119197  3.1415926535895378 0.95753428756610193  3.1415926535898615 0.8348818797203138  3.1415926535897771 0.71222947187464802  3.1415926535897882 0.58957706402879262  3.1415926535898273 0.46692465618310158  3.1415926535896626 0.34427224833722936  3.1415926535898282 0.22161984049153483  3.1415926535897833 0.098967432645758704  3.1415926535897976 -0.023684975199998501  3.141592653589782 -0.14633738304579805  3.1415926535898318 -0.2689897908916225  3.141592653589647 -0.39164219873735462  3.1415926535898739 -0.51429460658308179  3.1415926535896155 -0.63694701442884216  3.1415926535898899 -0.75959942227467536  3.1415926535895831 -0.88225183012048225  3.1415926535898571 -1.0049042379661903  3.1415926535897847 -1.0866725098633581  3.1415926535896261 -1.1275566458119628 
 0.44323968098290284 4 0.56589208882867059 1 0.68854449667443829 1 0.8111969045202061 1 0.9338493123659739 1 1.0565017202117417 1 1.1791541280575093 1 1.3018065359032771 1 1.4244589437490449 1 1.5471113515948127 1 1.6697637594405805 1 1.7924161672863481 1 1.9150685751321159 1 2.0377209829778837 1 2.1603733908236511 1 2.2830257986694189 1 2.4056782065151867 1 2.5283306143609545 1 2.6509830222067223 1 2.7736354300524901 1 2.8962878378982579 1 3.0189402457440253 1 3.1415926535897931 4
1 3.1415926535897931 1.5707963267948966 -1 0 
7 0 0  3 25 23  1.0064130615387007e-012 -1.5707963267948966  1.1627599012984388e-012 -1.5231964381033569  1.090693283984898e-012 -1.4279966607211645  4.7691202333740311e-013 -1.2851969946493398  5.1945327803716687e-014 -1.142397328576904  3.4965189328290257e-013 -0.99959766250485826  1.3897760581475968e-013 -0.85679799643264642  4.0672444611530024e-013 -0.7139983303604549  -6.0220961145220349e-014 -0.57119866428820232  3.4492401281954042e-013 -0.42839899821604926  9.7633823575767483e-014 -0.28559933214382283  1.6018568056693678e-013 -0.14279966607166353  1.298255724175383e-013 6.395910894346842e-013  1.7987710230421005e-013 0.14279966607275749  1.8868136626800859e-014 0.28559933214498834  1.9247284503349402e-013 0.42839899821716615  1.5597975904555017e-013 0.57119866428939248  2.0513734749309254e-013 0.71399833036159932  1.6057380373709264e-013 0.85679799643378918  -1.9128918111198177e-013 0.99959766250592186  6.0458292071083791e-013 1.1423973285782423  -1.5835204605531838e-013 1.2851969946503345  2.8825263510440056e-014 1.4279966607225452  3.8309082512519482e-014 1.5231964381040908  0 1.5707963267948966 
 3.5848323345740161 4 3.7276320006462194 1 3.8704316667184226 1 4.0132313327906264 1 4.1560309988628292 1 4.298830664935033 1 4.4416303310072358 1 4.5844299970794395 1 4.7272296631516424 1 4.8700293292238461 1 5.012828995296049 1 5.1556286613682527 1 5.2984283274404564 1 5.4412279935126593 1 5.5840276595848621 1 5.7268273256570659 1 5.8696269917292696 1 6.0124266578014725 1 6.1552263238736753 1 6.298025989945879 1 6.4408256560180828 1 6.5836253220902856 1 6.7264249881624893 4
7 0 0  3 25 23  6.2831853071805925 -1.5707963267948966  6.2831853071807489 -1.5231964381033569  6.2831853071806769 -1.4279966607211645  6.2831853071800632 -1.2851969946493398  6.2831853071796377 -1.142397328576904  6.2831853071799362 -0.99959766250485826  6.2831853071797248 -0.85679799643264642  6.283185307179993 -0.7139983303604549  6.2831853071795258 -0.57119866428820232  6.2831853071799308 -0.42839899821604926  6.2831853071796839 -0.28559933214382283  6.2831853071797461 -0.14279966607166353  6.2831853071797159 6.395910894346842e-013  6.2831853071797665 0.14279966607275749  6.2831853071796049 0.28559933214498834  6.283185307179779 0.42839899821716615  6.2831853071797426 0.57119866428939248  6.2831853071797914 0.71399833036159932  6.283185307179747 0.85679799643378918  6.2831853071793953 0.99959766250592186  6.2831853071801911 1.1423973285782423  6.2831853071794281 1.2851969946503345  6.2831853071796147 1.4279966607225452  6.2831853071796244 1.5231964381040908  6.2831853071795862 1.5707963267948966 
 3.5848323345740161 4 3.7276320006462194 1 3.8704316667184226 1 4.0132313327906264 1 4.1560309988628292 1 4.298830664935033 1 4.4416303310072358 1 4.5844299970794395 1 4.7272296631516424 1 4.8700293292238461 1 5.012828995296049 1 5.1556286613682527 1 5.2984283274404564 1 5.4412279935126593 1 5.5840276595848621 1 5.7268273256570659 1 5.8696269917292696 1 6.0124266578014725 1 6.1552263238736753 1 6.298025989945879 1 6.4408256560180828 1 6.5836253220902856 1 6.7264249881624893 4
1 3.1415926535897931 -1.5707963267948966 1 0 
1 6.2831853071795862 1.5707963267948966 -1 0 
Curves 3
2 -1461.3752750743101 338.14115920130797 4110.8448761715299 -0.32332305793742505 0.38926074908728403 -0.86251856178635311 1.9428902930940242e-016 -0.91147512556429655 -0.41135519381375257 -0.94628864529063894 -0.1330006191623048 0.29470092483134674 6.3499999999999996
2 -1461.3752750743101 338.14115920130797 4110.8448761715299 -0.32332305793742505 0.38926074908728403 -0.86251856178635311 1.9428902930940242e-016 -0.91147512556429655 -0.41135519381375257 -0.94628864529063894 -0.1330006191623048 0.29470092483134674 6.3499999999999996
2 -1461.3752750743101 338.14115920130797 4110.8448761715299 -0.32332305793742505 0.38926074908728403 -0.86251856178635311 1.9428902930940242e-016 -0.91147512556429655 -0.41135519381375257 -0.94628864529063894 -0.1330006191623048 0.29470092483134674 6.3499999999999996
Polygon3D 0
PolygonOnTriangulations 10
2 1 2 
p 1 1 0 3.14159265358879 
4 3 4 5 2 
p 1 1 3.14159265358979 3.28933921391787 3.43708577424594 3.58483233457402 
4 1 3 4 2 
p 1 1 3.14159265358979 3.28933921391787 3.43708577424594 3.58483233457402 
7 6 7 8 9 10 11 3 
p 1 1 0.443239680982903 0.892965176417385 1.34269067185187 1.79241616728635 2.24214166272083 2.69186715815531 3.14159265358979 
7 13 14 15 16 17 18 1 
p 1 1 0.443239680982903 0.892965176417385 1.34269067185187 1.79241616728635 2.24214166272083 2.69186715815531 3.14159265358979 
2 6 12 
p 1 1 0 3.14159265358979 
8 1 13 14 15 16 17 18 12 
p 1 1 3.58483233457402 4.03363128508666 4.48243023559929 4.93122918611193 5.38002813662457 5.82882708713721 6.27762603764985 6.72642498816249 
8 5 7 8 9 10 11 12 6 
p 1 1 3.58483233457402 4.03363128508666 4.48243023559929 4.93122918611193 5.38002813662457 5.82882708713721 6.27762603764985 6.72642498816249 
2 2 5 
p 1 1 0 3.1415926535908 
2 6 13 
p 1 1 0 3.14159265358979 
Surfaces 2
4 -1461.3752750743101 338.14115920130797 4110.8448761715299 -0.40583323239245306 -0.88043631224643315 -0.24521681745711202 0.85484594383541368 -0.27075444465030996 -0.44264030884030781 0.32332305793746607 -0.38926074908729713 0.86251856178633191 6.3499999999999996
4 -1461.3752750743101 338.14115920130797 4110.8448761715299 -0.40583323239245306 -0.88043631224643315 -0.24521681745711202 0.85484594383541368 -0.27075444465030996 -0.44264030884030781 0.32332305793746607 -0.38926074908729713 0.86251856178633191 6.3499999999999996
Triangulations 2
43 66 1 0.917915532097494
-1458.79823404861 343.731929784073 4112.40200296238 -1458.79823404861 343.731929784073 4112.40200296238 -1461.37527507431 343.929026248642 4113.45698165225 -1460.49070235208 343.990295734295 4113.15304274211 -1459.62540390868 343.924116243052 4112.79881034571 -1463.9523161 332.550388618544 4109.28774938068 -1466.05584109602 333.853705892503 4110.6644715118 -1467.22855567366 336.009656414159 4112.07707018778 -1467.23724552901 338.589492635082 4113.24462605858 -1466.08018253606 341.080170102742 4113.93495071717 -1463.98746841405 342.986375104017 4114.01076132611 -1463.9523161 332.550388618544 4109.28774938068 -1456.6982024979 342.432297156204 4111.02825328846 -1455.52452253147 340.282752029018 4109.61818352756 -1455.50965586093 337.709038177392 4108.4510752892 -1456.65654701269 335.220911194169 4107.75808867362 -1458.73804012846 333.311175143251 4107.67647817897 -1461.34186996881 332.358076670897 4108.22240776459 -1455.8829925611 341.254106880889 4111.52816932917 -1456.43867558598 340.894773792608 4113.73798732985 -1458.08362235442 341.211296644094 4115.32391384206 -1460.18951911056 342.082774464296 4115.68017884179 -1455.25458137343 337.164162709386 4112.22512487185 -1461.95198487034 343.176332346337 4114.67070120814 -1457.126548886 337.127746146851 4115.45397801005 -1460.31720696218 338.138319878545 4117.10610478965 -1456.65831526209 334.131957525853 4109.43098365248 -1463.60783266335 339.809879087099 4116.55044893457 -1457.55742928332 333.550544375732 4113.00654428654 -1460.21900906434 334.062689107653 4115.57262728695 -1463.62642159256 335.472769841181 4116.14907616551 -1460.16951935813 331.946571579646 4110.14078999041 -1466.47815109591 337.242183662989 4114.51570704338 -1461.32645890673 331.924064906246 4112.13633097449 -1463.29839404429 332.548633820571 4113.15740147801 -1465.33211257187 333.581714225665 4112.81398727352 -1457.28962343589 342.542509834221 4112.90838369408 -1459.89283864777 343.114952666234 4114.50360010339 -1455.22421689013 338.286189372489 4112.41521036025 -1462.9498437097 340.747357359916 4116.41721542632 -1462.09620242511 331.945229725772 4109.65608616103 -1464.29887894886 332.518353425444 4111.24374405899 -1464.81033829679 332.804875087537 4111.0614691416 1.0064130615387e-012 -1.5707963267949 3.14159265358979 -1.5707963267949 3.14159265358963 -1.12755664581196 3.14159265358975 -1.27530320614002 3.14159265358996 -1.42304976646809 3.14159265358979 1.5707963267949 3.14159265358969 1.1210708313605 3.14159265358979 0.671345335926021 3.14159265358979 0.221619840491521 3.1415926535898 -0.22810565494301 3.14159265358973 -0.677831150377457 0 1.5707963267949 1.70076899123791e-013 -1.12199737628094 2.32077357988712e-013 -0.673198425768379 1.32858316173655e-013 -0.224399475255754 9.55088312276881e-014 0.22439947525689 1.85732780856983e-013 0.673198425769541 3.27838027773787e-013 1.12199737628217 0.314159265358996 -0.942477796076938 0.942477796076987 -0.942477796076938 1.57079632679498 -0.942477796076938 2.19911485751297 -0.942477796076938 0.628318530717991 -0.314159265358979 2.82743338823096 -0.942477796076938 1.25663706143598 -0.314159265358979 1.88495559215397 -0.314159265358979 0.314159265358996 0.314159265358979 2.51327412287197 -0.314159265358979 0.942477796076987 0.314159265358979 1.57079632679498 0.314159265358979 2.19911485751297 0.314159265358979 0.628318530717991 0.942477796076938 2.82743338823096 0.314159265358979 1.25663706143598 0.942477796076938 1.88495559215397 0.942477796076938 2.51327412287197 0.942477796076938 0.785398163397992 -1.25663706143592 2.35619449019247 -1.18276378127252 0.628318530718107 -0.493678845563679 2.51327412287185 -0.495995207868218 0.628318530717991 1.25663706143592 2.19911485751289 1.25663706143592 2.51327412287188 1.25663706143592 34 29 30 34 32 17 35 31 8 35 30 31 35 34 30 36 8 7 36 35 8 37 1 2 37 13 1 37 20 19 37 19 13 37 21 20 38 4 3 38 5 4 38 2 5 38 24 22 38 37 2 38 22 21 38 3 24 38 21 37 39 15 14 39 23 15 39 21 25 39 25 23 39 14 20 39 20 21 40 11 10 40 26 21 40 22 11 40 21 22 40 10 28 40 28 26 41 12 18 41 18 32 41 32 34 42 41 34 42 6 12 42 12 41 42 34 35 42 35 36 43 42 36 43 7 6 43 6 42 43 36 7 19 14 13 20 14 19 23 16 15 24 3 11 24 11 22 26 25 21 27 17 16 28 10 9 29 27 16 29 17 27 29 16 23 29 23 25 30 25 26 30 29 25 31 30 26 31 28 9 31 26 28 32 18 17 33 9 8 33 31 9 33 8 31 34 17 29 
43 66 1 0.917915532097831
-1461.37527507431 343.929026248642 4113.45698165225 -1458.79823404861 343.731929784073 4112.40200296238 -1460.49070235208 343.990295734295 4113.15304274211 -1459.62540390868 343.924116243052 4112.79881034571 -1458.79823404861 343.731929784073 4112.40200296238 -1463.9523161 332.550388618544 4109.28774938068 -1456.6982024979 342.432297156204 4111.02825328846 -1455.52452253147 340.282752029018 4109.61818352756 -1455.50965586093 337.709038177392 4108.4510752892 -1456.65654701269 335.220911194169 4107.75808867362 -1458.73804012846 333.311175143251 4107.67647817897 -1461.34186996881 332.358076670897 4108.22240776459 -1463.9523161 332.550388618544 4109.28774938068 -1466.05584109602 333.853705892503 4110.6644715118 -1467.22855567366 336.009656414159 4112.07707018778 -1467.23724552901 338.589492635082 4113.24462605858 -1466.08018253606 341.080170102742 4113.93495071717 -1463.98746841405 342.986375104017 4114.01076132611 -1462.69781761755 344.074268347944 4112.68106708629 -1462.14213459267 344.433601436225 4110.4712490856 -1460.49718782423 344.117078584738 4108.88532257339 -1458.39129106809 343.245600764536 4108.52905757367 -1465.90326983091 342.573441936682 4110.42698475274 -1456.6288253083 342.152042882494 4109.53853520732 -1464.03130231834 342.609858499217 4107.19813161455 -1460.84064424216 341.599284767522 4105.54600483495 -1467.68493383081 338.695074633311 4111.29641140905 -1457.55001854099 339.927725558967 4106.10166069003 -1466.78581980958 339.276487783432 4107.72085077498 -1464.12424002856 338.764343051511 4105.15476777457 -1460.71682750033 337.354262317982 4104.57831889601 -1466.75077076046 335.289689996753 4109.02947828026 -1457.86509799699 335.584848496173 4106.21168801814 -1465.59383121186 335.312196670153 4107.03393729618 -1463.6218960743 334.687627755828 4106.01286679266 -1461.58817754672 333.654547350733 4106.35628099714 -1460.99143906292 344.437598886633 4111.5728989771 -1458.18686165533 343.622728559225 4110.51485004526 -1465.07256372497 343.302979555613 4110.7545032575 -1457.34959185868 340.845007965971 4106.7454156576 -1465.556171044 333.702811089144 4109.07183501975 -1463.35349452025 333.129687389472 4107.4841771218 -1462.84203517232 332.843165727379 4107.66645203918 3.14159265358963 -1.12755664581196 3.14159265358979 -1.5707963267949 3.14159265358975 -1.27530320614002 3.14159265358996 -1.42304976646809 6.28318530718059 -1.5707963267949 6.28318530717959 1.5707963267949 6.28318530717976 -1.12199737628094 6.28318530717982 -0.673198425768379 6.28318530717972 -0.224399475255754 6.28318530717968 0.22439947525689 6.28318530717977 0.673198425769541 6.28318530717991 1.12199737628217 3.14159265358979 1.5707963267949 3.14159265358969 1.1210708313605 3.14159265358979 0.671345335926021 3.14159265358979 0.221619840491521 3.1415926535898 -0.22810565494301 3.14159265358973 -0.677831150377457 3.45575191894872 -0.942477796076938 4.08407044966692 -0.942477796076938 4.71238898038511 -0.942477796076938 5.3407075111033 -0.942477796076938 3.76991118430782 -0.314159265358979 5.9690260418215 -0.942477796076938 4.39822971502601 -0.314159265358979 5.02654824574421 -0.314159265358979 3.45575191894872 0.314159265358979 5.6548667764624 -0.314159265358979 4.08407044966692 0.314159265358979 4.71238898038511 0.314159265358979 5.3407075111033 0.314159265358979 3.76991118430782 0.942477796076938 5.9690260418215 0.314159265358979 4.39822971502601 0.942477796076938 5.02654824574421 0.942477796076938 5.6548667764624 0.942477796076938 3.92699081698753 -1.18276378127252 5.49778714378285 -1.25663706143592 3.76991118430787 -0.495995207868218 5.65486677646201 -0.493678845563679 3.7699111843079 1.25663706143592 5.3407075111028 1.25663706143592 5.6548667764619 1.25663706143592 35 34 30 36 11 12 36 35 11 37 1 3 37 3 4 37 4 2 37 19 1 37 20 19 37 21 20 38 2 5 38 5 7 38 22 21 38 7 24 38 37 2 38 24 22 38 21 37 39 17 18 39 25 23 39 18 20 39 23 17 39 21 25 39 20 21 40 8 9 40 26 21 40 21 22 40 22 8 40 9 28 40 28 26 41 13 14 41 32 34 41 14 32 42 41 34 42 6 13 42 13 41 42 34 35 42 35 36 43 42 36 43 12 6 43 6 42 43 36 12 19 18 1 20 18 19 23 16 17 24 7 8 24 8 22 26 25 21 27 15 16 28 9 10 29 23 25 29 15 27 29 16 23 29 27 16 30 25 26 30 29 25 31 30 26 31 28 10 31 26 28 32 14 15 33 10 11 33 31 10 33 11 31 34 15 29 34 29 30 34 32 15 35 31 11 35 30 31 

TShapes 17
Ve
1e-007
-1458.79823404861 343.731929784073 4112.40200296238
0 0

0101101
*
Ed
 1e-007 1 1 1
2  1 1 0 0 3.14159265358879
6  1 1 0
0

0101000
+17 0 -17 0 *
Ve
1e-007
-1461.37527507431 343.929026248642 4113.45698165225
0 0

0101101
*
Ed
 1e-007 1 1 0
1  1 0 3.14159265358979 3.58483233457402
2  2 1 0 3.14159265358979 3.58483233457402
2  3 2 0 3.14159265358979 3.58483233457402
4 CN 1 0 2 0
6  2 1 0
6  3 2 0
0

0101000
+15 0 -17 0 *
Ve
1e-007
-1463.9523161 332.550388618544 4109.28774938068
0 0

0101101
*
Ed
 1e-007 1 1 0
1  2 0 0.443239680982903 3.14159265358979
2  4 1 0 0.443239680982903 3.14159265358979
2  5 2 0 0.443239680982903 3.14159265358979
4 CN 1 0 2 0
6  4 1 0
6  5 2 0
0

0101000
+13 0 -15 0 *
Ed
 1e-007 1 1 1
2  6 1 0 0 3.14159265358979
6  6 1 0
0

0101000
+13 0 -13 0 *
Ed
 1e-007 1 1 0
1  3 0 3.58483233457402 6.72642498816249
2  7 1 0 3.58483233457402 6.72642498816249
2  8 2 0 3.58483233457402 6.72642498816249
4 C1 1 0 2 0
6  7 1 0
6  8 2 0
0

0101000
+17 0 -13 0 *
Wi

0101100
+16 0 -14 0 -12 0 +11 0 -10 0 *
Fa
0  1e-007 1 0
2  1
0101000
+9 0 *
Ed
 1e-007 1 1 1
2  9 2 0 0 3.1415926535908
6  9 2 0
0

0101000
+17 0 -17 0 *
Ed
 1e-007 1 1 1
2  10 2 0 0 3.14159265358979
6  10 2 0
0

0101000
+13 0 -13 0 *
Wi

0101100
+14 0 +7 0 +10 0 +6 0 +12 0 *
Fa
0  1e-007 2 0
2  2
0101000
+5 0 *
Sh

0101100
+8 0 +4 0 *
So

0100000
+3 0 *
Co

1100000
+2 1 +2 0 *

+1 0 