/* XPM */
static char * ns_attr_xpm[] = {
"16 16 5 1",
" 	c #FFFFFFFFFFFF",
".	c #808080804040",
"X	c #FFFFFFFF0000",
"o	c #000000000000",
"O	c #C0C0C0C0C0C0",
"         ....   ",
"        .XXXX.  ",
"       .XXXXX.  ",
" ooo  oooOXooo o",
" Ooo  .oOXooX.oo",
"  ooo.XoO.ooX. o",
"o oOo.XoO oooO  ",
"o oOOoXoO.XXooo ",
"o oO.oXoOXXXXooo",
"  oOXOooO.oXXOoo",
" OoOXXooO ooX.oo",
" oooXXOoO oXooo ",
"  .XX.    .XX.  ",
" .XXX.    .XXX. ",
".XXXXX.  .XXXXX.",
" .....    ..... "};
