/* XPM */
static char * qt_atribute_xpm[] = {
"16 16 46 1",
" 	c None",
".	c #00569F",
"+	c #3AA4FF",
"@	c #3AA5FF",
"#	c #35A2FD",
"$	c #2899FA",
"%	c #34A1FD",
"&	c #2799FA",
"*	c #1A91F6",
"=	c #34A1FE",
"-	c #2699F9",
";	c #1991F6",
">	c #0C88F2",
",	c #2599F9",
"'	c #1990F6",
")	c #E87300",
"!	c #F8C050",
"~	c #F7BA49",
"{	c #F6B342",
"]	c #F4AC3B",
"^	c #F7B645",
"/	c #F5AF3E",
"(	c #F4A837",
"_	c #F2A130",
":	c #F4AB3A",
"<	c #F3A533",
"[	c #F19E2C",
"}	c #F09726",
"|	c #F2A12F",
"1	c #F19A28",
"2	c #218E00",
"3	c #7EE800",
"4	c #73DE00",
"5	c #6AD400",
"6	c #60CA00",
"7	c #6FD900",
"8	c #65CF00",
"9	c #5BC600",
"0	c #51BC00",
"a	c #60CB00",
"b	c #57C100",
"c	c #4CB700",
"d	c #42AD00",
"e	c #48B300",
"f	c #3DA900",
"g	c #339F00",
"                ",
"  ......        ",
"  .+@#$.        ",
"  .+%&*.        ",
"  .=-;>.        ",
"  .,'))))))     ",
"  ...)!~{])     ",
"     )^/(_)     ",
"     ):<[})     ",
"     )|1222222  ",
"     )))234562  ",
"        278902  ",
"        2abcd2  ",
"        20efg2  ",
"        222222  ",
"                "};
