DBRep_DrawableShape

CASCADE Topology V1, (c) Matra-Datavision
Locations 0
Curve2ds 8
7 0 0  1 2 2  0 0  1 0 
 0 2 1 2
7 0 0  1 2 2  1 0  1 1 
 0 2 1 2
7 0 0  1 2 2  0 0  0 1 
 0 2 1 2
7 0 0  1 2 2  0 1  1 1 
 0 2 1 2
7 0 0  1 2 2  1 0  1 1 
 0 2 1 2
7 0 0  1 2 2  0 0  0 1 
 0 2 1 2
7 0 0  1 2 2  0 1  1 1 
 0 2 1 2
7 0 0  1 2 2  0 0  1 0 
 0 2 1 2
Curves 28
2 40400 6339.9999999999973 15377.000000000189 0 0 1 -1 0 0 0 -1 0 85.500000000002558
1 40485.500000325555 6340.0000000205582 15377.000000000189 -1.1423034058616123e-09 1 0 
2 40400 6625 15377.000000000189 0 0 1 1 0 -0 -0 1 0 85.500000000002558
1 40314.499999999993 6625 15377.000000000189 0 -1 0 
1 40320.499999999993 6339.9999999999973 15377.000000000189 0 1 0 
2 40400 6625 15377.000000000189 -0 -0 -1 -1 0 0 0 1 -0 79.500000000002558
1 40479.5 6625.000000013707 15377.000000000189 1.1423034058616123e-09 -1 0 
2 40400 6339.9999999999973 15377.000000000189 -0 -0 -1 1 0 0 0 -1 0 79.500000000002558
1 40314.499999999993 6339.9999999999973 15377.000000000189 0 1 0 
2 40400 6625 15377.000000000189 -0 -0 -1 -1 0 0 0 1 -0 85.500000000002558
1 40485.5 6625.0000000205609 15377.000000000189 1.1423034058616123e-09 -1 0 
2 40400 6339.9999999999973 15377.000000000189 -0 -0 -1 1 0 0 0 -1 0 85.500000000002558
2 40400 6339.9999999999973 15377.000000000189 0 0 1 -1 0 0 0 -1 0 79.500000000002558
1 40479.500000325555 6340.0000000137043 15377.000000000189 -1.1423034058616123e-09 1 0 
2 40400 6625 15377.000000000189 0 0 1 1 0 -0 -0 1 0 79.500000000002558
1 40320.499999999993 6625 15377.000000000189 0 -1 0 
7 1 0  2 13 7  40314.499999999993 6339.9999999999973 15452.000000000187  1 40314.499999999993 6254.4999999999945 15452.000000000187  0.70710678118654735 40400 6254.4999999999945 15452.000000000187  1 40485.5 6254.4999999999945 15452.000000000187  0.70710678118654735 40485.5 6339.9999999999973 15452.000000000187  1 40485.500000162778 6482.5000000205591 15452.000000000187  1 40485.5 6625.0000000205609 15452.000000000187  1 40485.5 6710.5000000000027 15452.000000000187  0.70710678118654735 40400 6710.5000000000027 15452.000000000187  1 40314.499999999993 6710.5000000000027 15452.000000000187  0.70710678118654735 40314.499999999993 6625 15452.000000000187  1 40314.499999999993 6482.4999999999982 15452.000000000187  1 40314.499999999993 6339.9999999999973 15452.000000000187  1
 0 3 0.125 2 0.25 2 0.5 2 0.625 2 0.75 2 1 3
7 1 0  2 13 7  40320.499999999993 6339.9999999999973 15452.000000000187  1 40320.499999999993 6482.4999999999982 15452.000000000187  1 40320.499999999993 6625 15452.000000000187  1 40320.499999999993 6704.5000000000018 15452.000000000187  0.70710678118654735 40400 6704.5000000000018 15452.000000000187  1 40479.5 6704.5000000000027 15452.000000000187  0.70710678118654746 40479.5 6625 15452.000000000187  1 40479.500000162778 6482.5000000137061 15452.000000000187  1 40479.500000325555 6340.0000000137043 15452.000000000187  1 40479.5 6260.4999999999945 15452.000000000187  0.70710678118654735 40400 6260.4999999999955 15452.000000000187  1 40320.499999999993 6260.4999999999955 15452.000000000187  0.70710678118654746 40320.499999999993 6339.9999999999973 15452.000000000187  1
 0 3 0.25 2 0.375 2 0.5 2 0.75 2 0.875 2 1 3
7 1 1  2 12 7  40314.499999999993 6339.9999999999973 15377.000000000189  1 40314.499999999993 6254.4999999999945 15377.000000000189  0.70710678118654735 40400 6254.4999999999945 15377.000000000189  1 40485.5 6254.4999999999945 15377.000000000189  0.70710678118654735 40485.5 6339.9999999999973 15377.000000000189  1 40485.500000162778 6482.5000000205591 15377.000000000189  1 40485.5 6625.0000000205609 15377.000000000189  1 40485.5 6710.5000000000027 15377.000000000189  0.70710678118654735 40400 6710.5000000000027 15377.000000000189  1 40314.499999999993 6710.5000000000027 15377.000000000189  0.70710678118654735 40314.499999999993 6625 15377.000000000189  1 40314.499999999993 6482.4999999999982 15377.000000000189  1
 0 2 0.125 2 0.25 2 0.5 2 0.625 2 0.75 2 1 2
7 0 0  1 2 2  40314.499999999993 6339.9999999999973 15377.000000000189  40314.499999999993 6339.9999999999973 15452.000000000187 
 0 2 1 2
7 1 1  2 12 7  40314.499999999993 6339.9999999999973 15452.000000000187  1 40314.499999999993 6254.4999999999945 15452.000000000187  0.70710678118654735 40400 6254.4999999999945 15452.000000000187  1 40485.5 6254.4999999999945 15452.000000000187  0.70710678118654735 40485.5 6339.9999999999973 15452.000000000187  1 40485.500000162778 6482.5000000205591 15452.000000000187  1 40485.5 6625.0000000205609 15452.000000000187  1 40485.5 6710.5000000000027 15452.000000000187  0.70710678118654735 40400 6710.5000000000027 15452.000000000187  1 40314.499999999993 6710.5000000000027 15452.000000000187  0.70710678118654735 40314.499999999993 6625 15452.000000000187  1 40314.499999999993 6482.4999999999982 15452.000000000187  1
 0 2 0.125 2 0.25 2 0.5 2 0.625 2 0.75 2 1 2
7 0 0  1 2 2  40320.499999999993 6339.9999999999973 15377.000000000189  40320.499999999993 6339.9999999999973 15452.000000000187 
 0 2 1 2
7 1 1  2 12 7  40320.499999999993 6339.9999999999973 15452.000000000187  1 40320.499999999993 6482.4999999999982 15452.000000000187  1 40320.499999999993 6625 15452.000000000187  1 40320.499999999993 6704.5000000000018 15452.000000000187  0.70710678118654735 40400 6704.5000000000018 15452.000000000187  1 40479.5 6704.5000000000027 15452.000000000187  0.70710678118654746 40479.5 6625 15452.000000000187  1 40479.500000162778 6482.5000000137061 15452.000000000187  1 40479.500000325555 6340.0000000137043 15452.000000000187  1 40479.5 6260.4999999999945 15452.000000000187  0.70710678118654735 40400 6260.4999999999955 15452.000000000187  1 40320.499999999993 6260.4999999999955 15452.000000000187  0.70710678118654746
 0 2 0.25 2 0.375 2 0.5 2 0.75 2 0.875 2 1 2
7 1 1  2 12 7  40320.499999999993 6339.9999999999973 15377.000000000189  1 40320.499999999993 6482.4999999999982 15377.000000000189  1 40320.499999999993 6625 15377.000000000189  1 40320.499999999993 6704.5000000000018 15377.000000000189  0.70710678118654735 40400 6704.5000000000018 15377.000000000189  1 40479.5 6704.5000000000027 15377.000000000189  0.70710678118654746 40479.5 6625 15377.000000000189  1 40479.500000162778 6482.5000000137061 15377.000000000189  1 40479.500000325555 6340.0000000137043 15377.000000000189  1 40479.5 6260.4999999999945 15377.000000000189  0.70710678118654735 40400 6260.4999999999955 15377.000000000189  1 40320.499999999993 6260.4999999999955 15377.000000000189  0.70710678118654746
 0 2 0.25 2 0.375 2 0.5 2 0.75 2 0.875 2 1 2
2 40400 6339.9999999999973 15377.000000000189 0 0 1 -1 0 0 0 -1 0 82.500000000002558
1 40482.500000325555 6340.0000000171322 15377.000000000189 -1.1423034058616123e-09 1 0 
2 40400 6625 15377.000000000189 0 0 1 1 0 -0 -0 1 0 82.500000000002558
1 40317.499999999993 6625 15377.000000000189 0 -1 0 
Polygon3D 0
PolygonOnTriangulations 0
Surfaces 5
1 40314.499999999993 6339.9999999999973 15377.000000000189 0 0 1 0 -1 0 1 0 -0 
1 40314.499999999993 6339.9999999999973 15377.000000000189 -0 -0 -1 0 -1 0 -1 0 0 
1 40314.499999999993 6339.9999999999973 15452.000000000187 7.1905642238863115e-34 -2.4328564577901221e-35 1 4.0705409603101319e-15 -1 -2.4328564577904151e-35 1 4.0705409603101319e-15 -7.1905642238863107e-34 
9 0 1 1 0 2 1 12 2 7 2 40314.499999999993 6339.9999999999973 15377.000000000189  1 40314.499999999993 6339.9999999999973 15452.000000000187  1 
40314.499999999993 6254.4999999999945 15377.000000000189  0.70710678118654735 40314.499999999993 6254.4999999999945 15452.000000000187  0.70710678118654735 
40400 6254.4999999999945 15377.000000000189  1 40400 6254.4999999999945 15452.000000000187  1 
40485.5 6254.4999999999945 15377.000000000189  0.70710678118654735 40485.5 6254.4999999999945 15452.000000000187  0.70710678118654735 
40485.5 6339.9999999999973 15377.000000000189  1 40485.5 6339.9999999999973 15452.000000000187  1 
40485.500000162778 6482.5000000205591 15377.000000000189  1 40485.500000162778 6482.5000000205591 15452.000000000187  1 
40485.5 6625.0000000205609 15377.000000000189  1 40485.5 6625.0000000205609 15452.000000000187  1 
40485.5 6710.5000000000027 15377.000000000189  0.70710678118654735 40485.5 6710.5000000000027 15452.000000000187  0.70710678118654735 
40400 6710.5000000000027 15377.000000000189  1 40400 6710.5000000000027 15452.000000000187  1 
40314.499999999993 6710.5000000000027 15377.000000000189  0.70710678118654735 40314.499999999993 6710.5000000000027 15452.000000000187  0.70710678118654735 
40314.499999999993 6625 15377.000000000189  1 40314.499999999993 6625 15452.000000000187  1 
40314.499999999993 6482.4999999999982 15377.000000000189  1 40314.499999999993 6482.4999999999982 15452.000000000187  1 

0 2
0.125 2
0.25 2
0.5 2
0.625 2
0.75 2
1 2

0 2
1 2

9 0 1 1 0 2 1 12 2 7 2 40320.499999999993 6339.9999999999973 15377.000000000189  1 40320.499999999993 6339.9999999999973 15452.000000000187  1 
40320.499999999993 6482.4999999999982 15377.000000000189  1 40320.499999999993 6482.4999999999982 15452.000000000187  1 
40320.499999999993 6625 15377.000000000189  1 40320.499999999993 6625 15452.000000000187  1 
40320.499999999993 6704.5000000000018 15377.000000000189  0.70710678118654735 40320.499999999993 6704.5000000000018 15452.000000000187  0.70710678118654735 
40400 6704.5000000000018 15377.000000000189  1 40400 6704.5000000000018 15452.000000000187  1 
40479.5 6704.5000000000027 15377.000000000189  0.70710678118654746 40479.5 6704.5000000000027 15452.000000000187  0.70710678118654746 
40479.5 6625 15377.000000000189  1 40479.5 6625 15452.000000000187  1 
40479.500000162778 6482.5000000137061 15377.000000000189  1 40479.500000162778 6482.5000000137061 15452.000000000187  1 
40479.500000325555 6340.0000000137043 15377.000000000189  1 40479.500000325555 6340.0000000137043 15452.000000000187  1 
40479.5 6260.4999999999945 15377.000000000189  0.70710678118654735 40479.5 6260.4999999999945 15452.000000000187  0.70710678118654735 
40400 6260.4999999999955 15377.000000000189  1 40400 6260.4999999999955 15452.000000000187  1 
40320.499999999993 6260.4999999999955 15377.000000000189  0.70710678118654746 40320.499999999993 6260.4999999999955 15452.000000000187  0.70710678118654746 

0 2
0.25 2
0.375 2
0.5 2
0.75 2
0.875 2
1 2

0 2
1 2

Triangulations 0

TShapes 76
Ve
1e-07
40314.5 6340 15377.0000000002
0 0

0101101
*
Ve
3.25555480044568e-07
40485.5 6340 15377.0000000002
0 0

0101101
*
Ed
 1e-07 1 1 0
1  1 0 0 3.14159265358979
0

0101000
+76 0 -75 0 *
Ve
1e-07
40485.5 6625.00000002056 15377.0000000002
0 0

0101101
*
Ed
 1e-07 1 1 0
1  2 0 -2.05609463510975e-08 285.000000000003
0

0101000
+75 0 -73 0 *
Ve
1e-07
40314.5 6625 15377.0000000002
0 0

0101101
*
Ed
 1e-07 1 1 0
1  3 0 0 3.14159265358979
0

0101000
+73 0 -71 0 *
Ed
 1e-07 1 1 0
1  4 0 0 285.000000000003
0

0101000
+71 0 -76 0 *
Wi

0101100
+74 0 +72 0 +70 0 +69 0 *
Ve
1e-07
40320.5 6340 15377.0000000002
0 0

0101101
*
Ve
1e-07
40320.5 6625 15377.0000000002
0 0

0101101
*
Ed
 1e-07 1 1 0
1  5 0 0 285.000000000003
0

0101000
+67 0 -66 0 *
Ve
1e-07
40479.5 6625 15377.0000000002
0 0

0101101
*
Ed
 1e-07 1 1 0
1  6 0 0 3.14159265358979
0

0101000
+66 0 -64 0 *
Ve
3.25843907917537e-07
40479.5000003256 6340.0000000137 15377.0000000002
0 0

0101101
*
Ed
 1e-07 1 1 0
1  7 0 1.37069946504198e-08 285.000000000003
0

0101000
+64 0 -62 0 *
Ed
 1e-07 1 1 0
1  8 0 0 3.14159265358979
0

0101000
+62 0 -67 0 *
Wi

0101100
+65 0 +63 0 +61 0 +60 0 *
Fa
0  1e-07 1 0

0111000
+68 0 +59 0 *
Sh

0101000
+58 0 *
Ve
1e-07
40314.5 6340 15377.0000000002
0 0

0101101
*
Ve
1e-07
40314.5 6625 15377.0000000002
0 0

0101101
*
Ed
 1e-07 1 1 0
1  9 0 0 285.000000000003
0

0101000
+56 0 -55 0 *
Ve
1e-07
40485.5 6625 15377.0000000002
0 0

0101101
*
Ed
 1e-07 1 1 0
1  10 0 0 3.14159265358979
0

0101000
+55 0 -53 0 *
Ve
3.26204112790971e-07
40485.5000003256 6340.00000002056 15377.0000000002
0 0

0101101
*
Ed
 1e-07 1 1 0
1  11 0 2.05609467229806e-08 285.000000000003
0

0101000
+53 0 -51 0 *
Ed
 1e-07 1 1 0
1  12 0 0 3.14159265358979
0

0101000
+51 0 -56 0 *
Wi

0101100
+54 0 +52 0 +50 0 +49 0 *
Ve
1e-07
40320.5 6340 15377.0000000002
0 0

0101101
*
Ve
3.25555480044568e-07
40479.5 6340 15377.0000000002
0 0

0101101
*
Ed
 1e-07 1 1 0
1  13 0 0 3.14159265358979
0

0101000
+47 0 -46 0 *
Ve
1e-07
40479.5 6625.00000001371 15377.0000000002
0 0

0101101
*
Ed
 1e-07 1 1 0
1  14 0 -1.37069942785367e-08 285.000000000003
0

0101000
+46 0 -44 0 *
Ve
1e-07
40320.5 6625 15377.0000000002
0 0

0101101
*
Ed
 1e-07 1 1 0
1  15 0 0 3.14159265358979
0

0101000
+44 0 -42 0 *
Ed
 1e-07 1 1 0
1  16 0 0 285.000000000003
0

0101000
+42 0 -47 0 *
Wi

0101100
+45 0 +43 0 +41 0 +40 0 *
Fa
0  1e-07 2 0

0111000
+48 0 +39 0 *
Sh

0101000
+38 0 *
Ve
1e-07
40314.5 6340 15452.0000000002
0 0

0101101
*
Ed
 1e-07 1 1 0
1  17 0 0 1
0

0101000
+36 0 -36 0 *
Wi

0101000
+35 0 *
Ve
1e-07
40320.5 6340 15452.0000000002
0 0

0101101
*
Ed
 1e-07 1 1 0
1  18 0 0 1
0

0101000
+33 0 -33 0 *
Wi

0101000
+32 0 *
Fa
0  1e-07 3 0

0111000
+34 0 +31 0 *
Sh

0101000
+30 0 *
Ve
1e-07
40314.5 6340 15377.0000000002
0 0

0101101
*
Ed
 1e-07 1 1 0
1  19 0 0 1
2  1 4 0 0 1
0

0101000
+28 0 -28 0 *
Ve
1e-07
40314.5 6340 15452.0000000002
0 0

0101101
*
Ed
 1e-07 1 1 0
1  20 0 0 1
3  2 3G1 4 0 0 1
0

0101000
+28 0 -26 0 *
Ed
 1e-07 1 1 0
1  21 0 0 1
2  4 4 0 0 1
0

0101000
+26 0 -26 0 *
Wi

0101000
+27 0 +25 0 -24 0 -25 0 *
Fa
0  1e-07 4 0

0111000
+23 0 *
Sh

0101000
+22 0 *
Ve
1e-07
40320.5 6340 15377.0000000002
0 0

0101101
*
Ve
1e-07
40320.5 6340 15452.0000000002
0 0

0101101
*
Ed
 1e-07 1 1 0
1  22 0 0 1
3  5 6G1 5 0 0 1
0

0101000
+20 0 -19 0 *
Ed
 1e-07 1 1 0
1  23 0 0 1
2  7 5 0 0 1
0

0101000
+19 0 -19 0 *
Ed
 1e-07 1 1 0
1  24 0 0 1
2  8 5 0 0 1
0

0101000
+20 0 -20 0 *
Wi

0101100
+18 0 -17 0 -18 0 +16 0 *
Fa
0  1e-07 5 0

0111000
+15 0 *
Sh

0101000
-14 0 *
Ve
1e-07
40317.5 6340 15377.0000000002
0 0

0101101
*
Ve
3.25555447814579e-07
40482.5 6340 15377.0000000002
0 0

0101101
*
Ed
 1e-07 1 1 0
1  25 0 0 3.14159265358979
0

0101000
+12 0 -11 0 *
Ve
1e-07
40482.5 6625.00000001713 15377.0000000002
0 0

0101101
*
Ed
 1e-07 1 1 0
1  26 0 -1.71348798095189e-08 285.000000000003
0

0101000
+11 0 -9 0 *
Ve
1e-07
40317.5 6625 15377.0000000002
0 0

0101101
*
Ed
 1e-07 1 1 0
1  27 0 0 3.14159265358979
0

0101000
+9 0 -7 0 *
Ed
 1e-07 1 1 0
1  28 0 0 285.000000000003
0

0101000
+7 0 -12 0 *
Wi

0101000
+10 0 +8 0 +6 0 +5 0 *
Co

0100000
e4 0 *
Co

0100000
+57 0 +37 0 +29 0 +21 0 +13 0 +3 0 *
Co

1100000
+2 0 *

+1 0 
0

