DBRep_DrawableShape

CASCADE Topology V1, (c) Matra-Datavision
Locations 0
Curve2ds 3
7 0 0  1 2 2  0 0  0.81307963267949412 0 
 0 2 0.81307963267949412 2
7 0 0  1 2 2  0.81307963267949412 0  0.81307963267949412 1 
 0 2 1 2
7 0 0  1 2 2  0.81307963267949412 1  0 1 
 -0.81307963267949412 2 -0 2
Curves 5
2 48959.5 18250 7401.0000000000027 -1 0 -0 0 1 0 0 0 -1 12.499999999998661
2 49662.500000000007 18403 7401.0000000000045 0 1 0 -1 0 -1.4210854715182619e-13 -1.4210854715182619e-13 0 1 12.50000000000837
7 1 0  2 7 4  49649.999999999993 18403.000000000004 7401.0000000000027  1 49649.999999999942 18376.499969351749 7400.9999999999973  1 49650.000000000189 18350.000061296512 7401.0000000000036  1 49650.00004334304 18262.499956656931 7401.0000000000009  0.70710678118651127 49562.499938703528 18262.499999999862 7401.0000000000036  1 49261.000030648211 18262.500000000073 7400.9999999999945  1 48959.5 18262.5 7401.0000000000027  1
 0 3 0.054040715356996991 2 0.19823904097626158 2 0.81307963267949412 3
7 1 1  2 8 5  48959.5 18262.5 7401.0000000000027  1 48959.5 18262.5 7413.5000000000027  0.70710678118583448 48959.5 18250 7413.5000000000027  1 48959.5 18237.5 7413.5000000000027  0.70710678118583448 48959.5 18237.5 7401.0000000000027  1 48959.5 18237.5 7388.5000000000027  0.70710678118583448 48959.5 18250 7388.5000000000027  1 48959.5 18262.5 7388.5000000000027  0.70710678118583448
 0 2 0.25000000000004713 2 0.49999999999999362 2 0.7499999999999466 2 1 2
7 1 0  2 7 4  48959.5 18262.5 7401.0000000000027  1 49261.000030648211 18262.500000000073 7400.9999999999945  1 49562.499938703528 18262.499999999862 7401.0000000000036  1 49650.00004334304 18262.499956656931 7401.0000000000009  0.70710678118651127 49650.000000000189 18350.000061296512 7401.0000000000036  1 49649.999999999942 18376.499969351749 7400.9999999999973  1 49649.999999999993 18403.000000000004 7401.0000000000027  1
 -0.81307963267949412 3 -0.19823904097626158 2 -0.054040715356996991 2 -0 3
Polygon3D 0
PolygonOnTriangulations 0
Surfaces 3
1 48959.5 18250 7401.0000000000027 1 -0 0 0 0 -1 0 -1 -0 
1 49662.5 18403 7401.0000000000027 0 1 0 0 -0 1 1 0 -0 
9 1 1 0 1 2 2 7 8 4 5 49649.999999999993 18403.000000000004 7401.0000000000027  1 49649.999999999993 18403.000000000004 7413.5000000000045  0.70710678118583448 49662.500000000007 18403.000000000004 7413.5000000000055  1 49675.000000000022 18403.000000000004 7413.5000000000045  0.70710678118583448 49675.000000000029 18403.000000000004 7401.0000000000027  1 49675.000000000022 18403.000000000004 7388.5000000000027  0.70710678118583448 49662.500000000007 18403.000000000004 7388.5000000000027  1 49649.999999999993 18403.000000000004 7388.5000000000027  0.70710678118583448 
49649.999999999942 18376.499969351749 7400.9999999999973  1 49649.999999999942 18376.499969351749 7413.5000000000064  0.70710678118583448 49662.500000000007 18376.499999999989 7413.5000000000064  1 49675.000000000065 18376.50003064824 7413.5000000000064  0.70710678118583448 49675.000000000073 18376.50003064824 7400.9999999999973  1 49675.000000000065 18376.50003064824 7388.5000000000018  0.70710678118583448 49662.500000000007 18376.499999999989 7388.5000000000009  1 49649.999999999942 18376.499969351749 7388.5000000000018  0.70710678118583448 
49650.000000000189 18350.000061296512 7401.0000000000036  1 49650.000000000189 18350.000061296512 7413.5000000000009  0.70710678118583448 49662.500000000029 18350.000000000022 7413.5000000000009  1 49674.999999999884 18349.999938703524 7413.5000000000009  0.70710678118583448 49674.999999999876 18349.999938703524 7401.0000000000036  1 49674.999999999884 18349.999938703524 7388.5000000000045  0.70710678118583448 49662.500000000029 18350.000000000022 7388.5000000000045  1 49650.000000000189 18350.000061296512 7388.5000000000045  0.70710678118583448 
49650.00004334304 18262.499956656931 7401.0000000000009  0.70710678118651127 49650.00004334304 18262.499956656931 7413.4999999999982  0.49999999999947015 49662.499999999978 18249.999999999982 7413.4999999999982  0.70710678118651127 49674.999956656909 18237.500043343047 7413.4999999999982  0.49999999999947015 49674.999956656909 18237.500043343047 7401.0000000000009  0.70710678118651127 49674.999956656909 18237.500043343047 7388.5000000000073  0.49999999999947015 49662.499999999978 18249.999999999982 7388.5000000000073  0.70710678118651127 49650.00004334304 18262.499956656931 7388.5000000000073  0.49999999999947015 
49562.499938703528 18262.499999999862 7401.0000000000036  1 49562.499938703528 18262.499999999862 7413.5000000000073  0.70710678118583448 49562.500000000015 18250.000000000018 7413.5000000000073  1 49562.500061296516 18237.50000000016 7413.5000000000073  0.70710678118583448 49562.500061296509 18237.50000000016 7401.0000000000036  1 49562.500061296516 18237.50000000016 7388.5000000000027  0.70710678118583448 49562.500000000015 18250.000000000018 7388.5000000000027  1 49562.499938703528 18262.499999999862 7388.5000000000027  0.70710678118583448 
49261.000030648211 18262.500000000073 7400.9999999999945  1 49261.000030648211 18262.500000000073 7413.5  0.70710678118583448 49260.999999999927 18249.999999999996 7413.5  1 49260.999969351724 18237.499999999927 7413.5  0.70710678118583448 49260.999969351724 18237.499999999927 7400.9999999999945  1 49260.999969351724 18237.499999999927 7388.4999999999927  0.70710678118583448 49260.999999999927 18249.999999999996 7388.4999999999918  1 49261.000030648211 18262.500000000073 7388.4999999999927  0.70710678118583448 
48959.5 18262.5 7401.0000000000027  1 48959.5 18262.5 7413.5000000000027  0.70710678118583448 48959.5 18250 7413.5000000000027  1 48959.5 18237.5 7413.5000000000027  0.70710678118583448 48959.5 18237.5 7401.0000000000027  1 48959.5 18237.5 7388.5000000000027  0.70710678118583448 48959.5 18250 7388.5000000000027  1 48959.5 18262.5 7388.5000000000027  0.70710678118583448 

0 3
0.054040715356996991 2
0.19823904097626158 2
0.81307963267949412 3

0 2
0.25000000000004713 2
0.49999999999999362 2
0.7499999999999466 2
1 2

Triangulations 0

TShapes 20
Ve
1e-07
48959.5 18262.5 7401
0 0

0101101
*
Ed
 1e-07 1 1 0
1  1 0 0 6.28318530717959
0

0101000
+20 0 -20 0 *
Wi

0101000
+19 0 *
Fa
0  1e-07 1 0

0111000
+18 0 *
Sh

0101000
+17 0 *
Ve
1e-07
49650 18403 7401
0 0

0101101
*
Ed
 1e-07 1 1 0
1  2 0 0 6.28318530717959
0

0101000
+15 0 -15 0 *
Wi

0101000
+14 0 *
Fa
0  1e-07 2 0

0111000
+13 0 *
Sh

0101000
+12 0 *
Ve
1e-07
49650 18403 7401
0 0

0101101
*
Ve
1e-07
48959.5 18262.5 7401
0 0

0101101
*
Ed
 1e-07 1 1 0
1  3 0 0 0.813079632679494
2  1 3 0 0 0.813079632679494
0

0101000
+10 0 -9 0 *
Ed
 1e-07 1 1 0
1  4 0 0 1
2  2 3 0 0 1
0

0101000
+9 0 -9 0 *
Ed
 1e-07 1 1 0
1  5 0 -0.813079632679494 -0
2  3 3 0 -0.813079632679494 -0
0

0101000
+9 0 -10 0 *
Wi

0101100
+8 0 +7 0 +6 0 *
Fa
0  1e-07 3 0

0111000
+5 0 *
Sh

0101000
+4 0 *
Co

0100000
+16 0 +11 0 +3 0 *
Co

1100000
+2 0 *

+1 0 
0

