DBRep_DrawableShape

CASCADE Topology V1, (c) Matra-Datavision
Locations 0
Curve2ds 8
1 0 400.90083469899764 1 0 
1 3.1415926535897931 400.90083469899764 0 1 
1 6.2831853071795862 410.90083469899764 -1 0 
1 0 410.90083469899764 0 -1 
1 0 -253.94164260475009 0 1 
1 0 -243.94164260475009 0 -1 
1 0 -253.94164260475009 1 0 
1 6.2831853071795862 -243.94164260475009 -1 0 
Curves 30
1 2429.9999999999995 -3881.9999999999977 15477 0 1 0 
1 2429.9999999999995 -3849.4999999999982 15477 0 0 1 
1 2429.9999999999995 -3849.4999999999982 15487 0 -1 0 
1 2429.9999999999995 -3881.9999999999977 15487 0 0 -1 
2 2404.9999999999995 -3849.4999999999977 15477 -0 -0 1 1 0 0 -0 1 0 25
1 2379.9999999999995 -3849.4999999999977 15477 0 0 1 
2 2404.9999999999995 -3849.4999999999977 15487 -0 0 -1 1 0 0 0 -1 -0 25
1 2429.9999999999995 -3849.4999999999982 15487 0 0 -1 
1 2379.9999999999995 -3849.4999999999977 15477 0 -1 0 
1 2379.9999999999995 -3881.9999999999977 15477 0 0 1 
1 2379.9999999999995 -3881.9999999999977 15487 0 1 0 
1 2379.9999999999995 -3849.4999999999977 15487 0 0 -1 
1 2429.9999999999995 -3881.9999999999977 15487 0 1 0 
2 2404.9999999999995 -3849.4999999999977 15487 0 -0 1 1 0 0 -0 1 0 25
1 2379.9999999999995 -3849.4999999999977 15487 0 -1 0 
1 2379.9999999999995 -3881.9999999999977 15487 1 0 0 
2 2404.9999999999995 -3849.4999999999977 15487 -0 0 -1 1 0 0 0 -1 -0 17
1 2429.9999999999995 -3881.9999999999977 15477 0 0 1 
1 2429.9999999999995 -3881.9999999999977 15487 -1 0 0 
1 2379.9999999999995 -3881.9999999999977 15487 0 0 -1 
1 2379.9999999999995 -3881.9999999999977 15477 1 0 0 
1 2421.9999999999991 -3849.4999999999977 15487 0 0 -1 
1 2421.9999999999991 -3849.4999999999977 15477 0 0 1 
2 2404.9999999999995 -3849.4999999999977 15487 0 -0 1 1 0 0 -0 1 0 17
2 2404.9999999999995 -3849.4999999999977 15477 0 0 -1 1 0 0 0 -1 0 17
1 2429.9999999999995 -3849.4999999999982 15477 0 -1 0 
1 2429.9999999999995 -3881.9999999999977 15477 -1 0 0 
1 2379.9999999999995 -3881.9999999999977 15477 0 1 0 
2 2404.9999999999995 -3849.4999999999977 15477 0 0 -1 1 0 0 0 -1 0 25
2 2404.9999999999995 -3849.4999999999977 15477 -0 -0 1 1 0 0 -0 1 0 17
Polygon3D 0
PolygonOnTriangulations 0
Surfaces 7
1 2429.9999999999995 -3895.6986318312265 15076.099165301044 -1 0 0 0 -1 0 -0 -0 -1 
2 2404.9999999999995 -3849.4999999999977 15076.099165301002 0 0 1 1 0 -0 -0 1 0 25
1 2379.9999999999995 -3849.4999999999977 15076.099165301002 1 0 -0 -0 1 0 -0 0 -1 
1 2454.9999999999995 -3881.9999999999977 15487 0 -0 1 1 0 0 -0 1 0 
1 2404.9999999999995 -3881.9999999999982 15482 6.1813727647915284e-28 1 -1.1656302927893058e-24 0 1.1656302927893058e-24 1 -1 6.1813727647915284e-28 -7.2051953456637901e-52 
10 0 6.2831853071795862 -253.94164260475009 -243.94164260475009
2 2404.9999999999995 -3849.4999999999977 15233.05835739525 -0 -0 -1 1 0 -0 -0 1 0 17
1 2354.9999999999995 -3881.9999999999977 15477 0 0 -1 -1 0 0 0 1 0 
Triangulations 0

TShapes 91
Ve
1e-07
2430 -3882 15477
0 0

0101101
*
Ve
1e-07
2430 -3849.5 15477
0 0

0101101
*
Ed
 1e-07 1 1 0
1  1 0 0 32.4999999999995
0

0101000
+91 0 -90 0 *
Ve
1e-07
2430 -3849.5 15487
0 0

0101101
*
Ed
 1e-07 1 1 0
1  2 0 0 10
0

0101000
+90 0 -88 0 *
Ve
1e-07
2430 -3882 15487
0 0

0101101
*
Ed
 1e-07 1 1 0
1  3 0 0 32.4999999999995
0

0101000
+88 0 -86 0 *
Ed
 1e-07 1 1 0
1  4 0 0 10
0

0101000
+86 0 -91 0 *
Wi

0101000
+89 0 +87 0 +85 0 +84 0 *
Fa
0  1e-07 1 0

0111000
+83 0 *
Sh

0101000
+82 0 *
Ve
1e-07
2430 -3849.5 15477
0 0

0101101
*
Ve
1e-07
2380 -3849.5 15477
0 0

0101101
*
Ed
 1e-07 1 1 0
1  5 0 0 3.14159265358979
2  1 2 0 0 3.14159265358979
0

0101000
+80 0 -79 0 *
Ve
1e-07
2380 -3849.5 15487
0 0

0101101
*
Ed
 1e-07 1 1 0
1  6 0 0 10
2  2 2 0 0 10
0

0101000
+79 0 -77 0 *
Ve
1e-07
2430 -3849.5 15487
0 0

0101101
*
Ed
 1e-07 1 1 0
1  7 0 3.14159265358979 6.28318530717959
2  3 2 0 3.14159265358979 6.28318530717959
0

0101000
+77 0 -75 0 *
Ed
 1e-07 1 1 0
1  8 0 0 10
2  4 2 0 0 10
0

0101000
+75 0 -80 0 *
Wi

0101100
+78 0 +76 0 +74 0 +73 0 *
Fa
0  1e-07 2 0

0111000
+72 0 *
Sh

0101000
+71 0 *
Ve
1e-07
2380 -3849.5 15477
0 0

0101101
*
Ve
1e-07
2380 -3882 15477
0 0

0101101
*
Ed
 1e-07 1 1 0
1  9 0 0 32.5
0

0101000
+69 0 -68 0 *
Ve
1e-07
2380 -3882 15487
0 0

0101101
*
Ed
 1e-07 1 1 0
1  10 0 0 10
0

0101000
+68 0 -66 0 *
Ve
1e-07
2380 -3849.5 15487
0 0

0101101
*
Ed
 1e-07 1 1 0
1  11 0 0 32.5
0

0101000
+66 0 -64 0 *
Ed
 1e-07 1 1 0
1  12 0 0 10
0

0101000
+64 0 -69 0 *
Wi

0101000
+67 0 +65 0 +63 0 +62 0 *
Fa
0  1e-07 3 0

0111000
+61 0 *
Sh

0101000
+60 0 *
Ve
1e-07
2430 -3882 15487
0 0

0101101
*
Ve
1e-07
2430 -3849.5 15487
0 0

0101101
*
Ed
 1e-07 1 1 0
1  13 0 0 32.4999999999995
0

0101000
+58 0 -57 0 *
Ve
1e-07
2380 -3849.5 15487
0 0

0101101
*
Ed
 1e-07 1 1 0
1  14 0 0 3.14159265358979
0

0101000
+57 0 -55 0 *
Ve
1e-07
2380 -3882 15487
0 0

0101101
*
Ed
 1e-07 1 1 0
1  15 0 0 32.5
0

0101000
+55 0 -53 0 *
Ed
 1e-07 1 1 0
1  16 0 0 50
0

0101000
+53 0 -58 0 *
Wi

0101000
+56 0 +54 0 +52 0 +51 0 *
Ve
1e-07
2422 -3849.5 15487
0 0

0101101
*
Ed
 1e-07 1 1 0
1  17 0 0 6.28318530717959
0

0101000
+49 0 -49 0 *
Wi

0101000
+48 0 *
Fa
0  1e-07 4 0

0111000
+50 0 +47 0 *
Sh

0101000
+46 0 *
Ve
1e-07
2430 -3882 15477
0 0

0101101
*
Ve
1e-07
2430 -3882 15487
0 0

0101101
*
Ed
 1e-07 1 1 0
1  18 0 0 10
0

0101000
+44 0 -43 0 *
Ve
1e-07
2380 -3882 15487
0 0

0101101
*
Ed
 1e-07 1 1 0
1  19 0 0 50
0

0101000
+43 0 -41 0 *
Ve
1e-07
2380 -3882 15477
0 0

0101101
*
Ed
 1e-07 1 1 0
1  20 0 0 10
0

0101000
+41 0 -39 0 *
Ed
 1e-07 1 1 0
1  21 0 0 50
0

0101000
+39 0 -44 0 *
Wi

0101000
+42 0 +40 0 +38 0 +37 0 *
Fa
0  1e-07 5 0

0111000
+36 0 *
Sh

0101000
+35 0 *
Ve
1e-07
2422 -3849.5 15477
0 0

0101101
*
Ve
1.0001e-07
2422 -3849.5 15487
0 0

0101101
*
Ed
 1e-07 1 1 0
1  22 0 0 10
2  5 6 0 0 10
0

0101000
-33 0 +32 0 *
Ed
 1e-07 1 1 0
1  23 0 0 10
2  6 6 0 0 10
0

0101000
-32 0 +33 0 *
Wi

0101100
-31 0 -30 0 *
Fa
0  1e-07 6 0

0111000
+29 0 *
Sh

0101000
+28 0 *
Ed
 1e-07 1 1 0
1  24 0 0 6.28318530717959
2  7 6 0 0 6.28318530717959
0

0101000
+32 0 -32 0 *
Wi

0101100
+26 0 *
Fa
0  1e-07 6 0

0111000
+25 0 *
Sh

0101000
+24 0 *
Ve
1e-07
2422 -3849.5 15477
0 0

0101101
*
Ed
 1e-07 1 1 0
1  25 0 0 6.28318530717959
2  8 6 0 0 6.28318530717959
0

0101000
+22 0 -22 0 *
Wi

0101100
+21 0 *
Fa
0  1e-07 6 0

0111000
+20 0 *
Sh

0101000
+19 0 *
Co

0100000
+27 0 +23 0 +18 0 *
Ve
1e-07
2430 -3849.5 15477
0 0

0101101
*
Ve
1e-07
2430 -3882 15477
0 0

0101101
*
Ed
 1e-07 1 1 0
1  26 0 0 32.4999999999995
0

0101000
+16 0 -15 0 *
Ve
1e-07
2380 -3882 15477
0 0

0101101
*
Ed
 1e-07 1 1 0
1  27 0 0 50
0

0101000
+15 0 -13 0 *
Ve
1e-07
2380 -3849.5 15477
0 0

0101101
*
Ed
 1e-07 1 1 0
1  28 0 0 32.5
0

0101000
+13 0 -11 0 *
Ed
 1e-07 1 1 0
1  29 0 3.14159265358979 6.28318530717959
0

0101000
+11 0 -16 0 *
Wi

0101000
+14 0 +12 0 +10 0 +9 0 *
Ve
1e-07
2422 -3849.5 15477
0 0

0101101
*
Ed
 1e-07 1 1 0
1  30 0 0 6.28318530717959
0

0101000
+7 0 -7 0 *
Wi

0101000
+6 0 *
Fa
0  1e-07 7 0

0111000
+8 0 +5 0 *
Sh

0101000
+4 0 *
Co

0100000
+81 0 +70 0 +59 0 +45 0 +34 0 +17 0 +3 0 *
Co

1100000
+2 0 *

+1 0 
0

