DBRep_DrawableShape

CASCADE Topology V1, (c) Matra-Datavision
Locations 0
Curve2ds 18
1 -3.6415315207705135e-014 129.18863648432989 1 0 
1 3.1415926535897749 134.18863648432944 -3.6415315207705131e-015 -1 
1 6.2831853071795862 139.18863648432989 -1 0 
1 4.7123889803846897 134.19052590189858 0 1 
1 6.2831853071795862 140.81136983449233 -1 0 
1 4.7123889803846897 135.81328400267603 0 1 
1 3.3687272690902694 5.6843418860808015e-014 1.7763568394002505e-015 -1 
1 -1.021405182655144e-014 130.81136983449119 1 3.3843969012309437e-013 
1 3.1415926535897931 1.8189894035458565e-012 0 1 
7 0 0  3 25 23  1.6887164788202744 3001.0300319437883  1.6869298098501853 3001.0822748285946  1.6833564719100313 3001.1867937732391  1.6779964649998289 3001.3436672081461  1.6726364580896014 3001.5006311548723  1.6672764511793228 3001.6576811036971  1.6619164442690899 3001.8148125426956  1.6565564373588189 3001.9720209575271  1.6511964304485873 3002.1293018316555  1.6458364235383331 3002.2866506464661  1.6404764166281061 3002.4440628813927  1.6351164097178874 3002.601534014038  1.6297564028075877 3002.7590595203192  1.6243963958973882 3002.9166348745989  1.6190363889870898 3003.0742555497895  1.6136763820769295 3003.2319170175138  1.6083163751666241 3003.3896147482224  1.6029563682563763 3003.5473442113243  1.5975963613461299 3003.7051008753006  1.5922363544359011 3003.8628802078806  1.5868763475255856 3004.0206776761215  1.5815163406154478 3004.1784887465592  1.576156333705161 3004.3363088853571  1.5725829957649937 3004.4415253340248  1.5707963267949234 3004.4941335583826 
 4.5944688283592932 4 4.5998288352695385 1 4.6051888421797837 1 4.610548849090029 1 4.6159088560002743 1 4.6212688629105196 1 4.6266288698207649 1 4.6319888767310102 1 4.6373488836412555 1 4.6427088905515008 1 4.6480688974617461 1 4.6534289043719914 1 4.6587889112822367 1 4.664148918192482 1 4.6695089251027273 1 4.6748689320129726 1 4.6802289389232179 1 4.6855889458334632 1 4.6909489527437085 1 4.6963089596539538 1 4.7016689665641991 1 4.7070289734744444 1 4.7123889803846897 4
7 0 0  3 25 23  1.570796326794843 3098.8909025559842  1.594596271140218 3099.2412983418621  1.6421961598309629 3099.9420802918821  1.7135959928670856 3100.9879043839683  1.7849958259032728 3102.0230405647389  1.8563956589394328 3103.0422166430089  1.9277954919755225 3104.0402384275826  1.9991953250117085 3105.0120204167265  2.0705951580476945 3105.9526105816672  2.1419949910839438 3106.8572159040527  2.2133948241200017 3107.7212267188934  2.284794657156251 3108.5402402261038  2.3561944901923542 3109.3100829202795  2.4275943232283996 3110.0268318597882  2.4989941562645477 3110.6868346555125  2.5703939893006416 3111.286728087483  2.641793822336842 3111.823455225157  2.713193655373106 3112.294281071529  2.7845934884089822 3112.6968062513047  2.8559933214454647 3113.0289801657923  2.9273931544812042 3113.2891079781298  2.9987929875174824 3113.4758721782091  3.0701928205537476 3113.5882910468267  3.1177927092444895 3113.6133661677341  3.1415926535897931 3113.6133344179943 
 1.5707963267948966 4 1.6421961598310282 1 1.7135959928671598 1 1.7849958259032914 1 1.8563956589394233 1 1.9277954919755549 1 1.9991953250116865 1 2.0705951580478184 1 2.14199499108395 1 2.2133948241200816 1 2.2847946571562132 1 2.3561944901923448 1 2.4275943232284765 1 2.4989941562646081 1 2.5703939893007397 1 2.6417938223368713 1 2.7131936553730034 1 2.7845934884091346 1 2.8559933214452666 1 2.9273931544813983 1 2.9987929875175299 1 3.0701928205536615 1 3.1415926535897931 4
1 6.2831853069062218 3001.0299713334189 -0.99999999991298516 1.3192029772472206e-005 
1 1.570796326794843 9062.1977417494181 0 -1 
1 1.5707963267948966 9.0949470177292824e-013 0 1 
1 3.1415926535897931 2.7284841053187847e-012 0 1 
7 0 0  3 25 23  3.1415926535897931 5887.9799998501931  3.117792709244493 5887.9799681004515  3.0701928205537512 5888.0050432213584  2.9987929875174841 5888.1174620899774  2.9273931544811953 5888.3042262900581  2.8559933214455007 5888.5643541023937  2.7845934884089409 5888.896528016885  2.7131936553731197 5889.299053196658  2.6417938223368256 5889.7698790430322  2.5703939893006966 5890.3066061807049  2.4989941562645166 5890.9064996126735  2.4275943232284676 5891.5665024083974  2.3561944901923231 5892.2832513479098  2.2847946571563074 5893.0530940420795  2.2133948241200514 5893.8721075492958  2.1419949910839438 5894.7361183641333  2.0705951580479134 5895.6407236865216  1.9991953250117327 5896.5813138514577  1.9277954919754963 5897.5530958406034  1.8563956589395096 5898.5511176251821  1.7849958259033016 5899.5702937034448  1.7135959928672084 5900.60542988422  1.6421961598310761 5901.6512539763025  1.5945962711402981 5902.3520359263239  1.5707963267948966 5902.7024317122032 
 3.1415926535897931 4 3.2129924866259221 1 3.284392319662051 1 3.35579215269818 1 3.4271919857343089 1 3.4985918187704379 1 3.5699916518065669 1 3.6413914848426958 1 3.7127913178788248 1 3.7841911509149537 1 3.8555909839510827 1 3.9269908169872116 1 3.9983906500233406 1 4.0697904830594691 1 4.1411903160955985 1 4.2125901491317279 1 4.2839899821678564 1 4.3553898152039849 1 4.4267896482401143 1 4.4981894812762437 1 4.5695893143123723 1 4.6409891473485008 1 4.7123889803846302 4
7 0 0  3 25 23  1.7504137029010873 6002.3596176333112  1.7714921698140451 6002.3744054432127  1.8136491043493661 6002.4091522593471  1.8768845081300958 6002.4765110845001  1.940119913749851 6002.558857108681  2.0033553210287822 6002.655856378512  2.0665907297635329 6002.7671224328587  2.12982613972697 6002.8922101551825  2.1930615506721978 6003.0306196140109  2.2562969623370135 6003.1817975090926  2.3195323744472325 6003.3451395311149  2.3827677867218378 6003.5199927377089  2.4460031988773943 6003.7056581741572  2.5092386106317717 6003.9013936644888  2.5724740217098656 6004.1064167790728  2.6357094318468008 6004.3199079619844  2.6989448407934669 6004.5410138073767  2.7621802483189888 6004.7688504700182  2.8254156542157105 6005.0025072015105  2.8886510583019436 6005.2410499791094  2.951886460424364 6005.4835252834346  3.0151218604624006 6005.728963745516  3.0783572583249303 6005.9763846358483  3.1205141887543042 6006.1419932071767  3.1415926535897931 6006.2247982071176 
 0.17961736715986917 4 0.242852761675111 1 0.30608815619035279 1 0.36932355070559464 1 0.43255894522083638 1 0.49579433973607823 1 0.55902973425132008 1 0.62226512876656181 1 0.68550052328180366 1 0.74873591779704551 1 0.81197131231228725 1 0.8752067068275291 1 0.93844210134277095 1 1.0016774958580126 1 1.0649128903732545 1 1.1281482848884963 1 1.191383679403738 1 1.2546190739189798 1 1.3178544684342217 1 1.3810898629494635 1 1.4443252574647052 1 1.5075606519799472 1 1.5707960464951889 4
7 0 0  3 25 23  1.5707963267949234 5997.0992007098002  1.5735178021974821 5997.179334182264  1.5789607530025598 5997.3396011268132  1.5871251792101273 5997.5799855194537  1.5952896054178254 5997.8203378641047  1.6034540316254331 5998.0606421395896  1.6116184578331147 5998.3008823278005  1.619782884040694 5998.5410424149368  1.6279473102483364 5998.7811063925355  1.6361117364559634 5999.0210582585278  1.6442761626636324 5999.2608820183314  1.6524405888712035 5999.5005616858934  1.6606050150788938 5999.7400812847736  1.6687694412865215 5999.9794248491971  1.6769338674941752 6000.218576425118  1.6850982937017325 6000.457520071307  1.6932627199094235 6000.6962398603655  1.7014271461170365 6000.9347198798496  1.7095915723247186 6001.1729442332598  1.7177559985322866 6001.410897041199  1.7259204247399531 6001.6485624422075  1.7340848509475983 6001.8859245945696  1.7422492771552391 6002.1229676745888  1.7476922279603133 6002.2807731502326  1.7504137033628444 6002.359617443195 
 1.5707963267948966 4 1.5789607530025298 1 1.5871251792101631 1 1.5952896054177963 1 1.6034540316254298 1 1.611618457833063 1 1.6197828840406963 1 1.6279473102483295 1 1.6361117364559628 1 1.644276162663596 1 1.6524405888712292 1 1.6606050150788625 1 1.668769441286496 1 1.6769338674941292 1 1.6850982937017625 1 1.6932627199093957 1 1.7014271461170289 1 1.7095915723246622 1 1.7177559985322954 1 1.7259204247399289 1 1.7340848509475622 1 1.7422492771551954 1 1.7504137033628286 4
Curves 46
2 15187.999999999998 2840.0039114731221 10840.999993611396 -0 -0.99999999999918376 1.2777590539646573e-006 1 0 0 -0 1.2777590539646573e-006 0.99999999999918376 50.000000000000007
1 15137.999999999998 2835.0039114731267 10841.000000000191 -0 0.99999999999918376 -1.2777590535753565e-006 
2 15187.999999999998 2830.0039114731303 10841.000006388984 -0 0.99999999999918376 -1.2777590539646573e-006 1 0 0 0 -1.2777590539646573e-006 -0.99999999999918376 50.000000000000007
1 15187.999999999998 2835.0019581676047 10791.000000002645 0 -0.99999999999918376 1.2777590535753565e-006 
1 15187.999999999998 2840.0077460280513 13841.99999999755 0 -1.2777590539646573e-006 -0.99999999999918376 
2 15187.999999999998 2840.000004861869 7783.6072552327041 -0 -0.99999999999918376 1.2777590539646573e-006 1 0 0 -0 1.2777590539646573e-006 0.99999999999918376 50.000000000000007
1 14970.299999999997 2840.0039127508894 10842 -0 1.2777590539646573e-006 0.99999999999918376 
1 14731.489491400787 2840.000141944337 7890.8907588098027 -0.97432433137766716 2.8768624442038439e-007 0.22514905570616833 
1 14937.999999999998 2840.0077460280513 13841.99999999755 0 -1.2777590539646573e-006 -0.99999999999918376 
1 15079.874999999998 2840.0039114347978 10840.970000000189 1 0 0 
1 14970.299999999997 2840.0039127508894 10842 -0 1.2777590539646573e-006 0.99999999999918376 
1 15143.02566666667 2840.0039114731221 10840.999993611396 1 -0 0 
1 15187.999999999998 2830.0077460280595 13842.000012775139 0 -1.2777590539646573e-006 -0.99999999999918376 
1 15187.999999999998 2835.0019829180092 7833.6072616190122 0 0.99999999999918365 -1.277759054042006e-006 
1 15139.284217986631 2699.1886494142063 7794.8667682987398 -0 -0.99999999999918365 1.2777590540420063e-006 
2 15187.999999999998 2830.0000048618772 7783.6072680102952 -0 0.99999999999918376 -1.2777590539646573e-006 1 0 0 0 -1.2777590539646573e-006 -0.99999999999918376 50.000000000000007
1 15034.02566666667 2830.0039114731303 10841.000006388986 -1 0 0 
1 14970.299999999997 2830.0039127508976 10842.000012777591 0 -1.2777590539646573e-006 -0.99999999999918376 
1 14970.875 2830.0039114347896 10840.970000000189 -1 -0 -0 
1 14969.999999999998 2830.0077460280595 13842.000012775139 0 -1.2777590539646573e-006 -0.99999999999918376 
1 14628.014927201904 2830.0001724969979 7914.8018936020999 0.97432433137766716 -2.8768624442038439e-007 -0.22514905570616833 
1 14970.299999999997 2830.0039127508976 10842.000012777591 0 -1.2777590539646573e-006 -0.99999999999918376 
3 14969.999999999998 2813.0039070084918 10837.505900941114 -0 -0.86602476487002078 0.50000110663060071 0 -0.50000110663060071 -0.86602476487002078 1 0 0 33.999999995973859 17.000000000000011
1 14971.749999999998 2815.0039114347792 10840.970000000189 -1 0 0 
1 14937.999999999998 2680.8516229955326 10608.612106164152 0 0.5000011066306006 0.86602476487002078 
1 14954.874999999998 2750.0037675804961 10728.386780580415 -1 -0 -0 
3 14944.5 2758.5037863922098 10743.109201581461 0 0.86602476487002078 -0.50000110663060071 0 0.50000110663060071 0.86602476487002078 1 -0 0 16.999999997986937 8.5000000000000089
1 14953 2670.6641004467274 10590.966851577836 0 -0.5000011066306006 -0.86602476487002078 
2 14969.999999999998 2813.0039114347755 10840.970000000189 -0 -0 1 0 -1 0 1 0 0 17.000000000013888
1 14970.299999999997 2813.6039120928967 10840.970000000189 0 -1 0 
1 14937.999999999998 2858.75391209286 10840.970000000189 0 1 0 
1 14970.299999999997 2792.3539114731611 10841.000054496617 0 -0.99999999999918365 1.277759081802565e-006 
1 14953 2758.4961667229045 4779.8023623928948 0 1.2777590539646573e-006 0.99999999999918376 
1 14953 2027.360810496047 9205.6719857274857 0 0.49999889348700016 -0.86602604262907446 
1 14953 2813.0077460280731 13842.000034497043 0 -1.2777590539646573e-006 -0.99999999999918376 
1 14944.5 2750.0077460281245 13842.000114995864 0 -1.2777590539646573e-006 -0.99999999999918376 
3 14944.5 2758.5002037966428 7939.2976724275295 0 0.86602604262907446 0.49999889348700016 0 0.49999889348700016 -0.86602604262907446 -1 0 0 16.999999997986915 8.5000000000000107
1 14937.999999999998 2750.0077460281245 13842.000114995864 0 -1.2777590539646573e-006 -0.99999999999918376 
1 14928.625 2750.0002226083702 7954.0201151504807 1 0 -0 
3 14969.999999999998 2813.0000715199299 7835.7752145729264 -0.22514905570617766 8.2664134712340266e-018 -0.97432433137770746 -0.97432433137766716 2.876862444203845e-007 0.22514905570616833 2.8029970774331597e-007 0.99999999999995859 -6.4772286262852003e-008 17.447988777989863 17.000000000013884
3 14969.999999999998 2813.0000831802722 7844.9008337921396 -0 -0.86602604262907446 -0.49999889348700016 0 -0.49999889348700016 0.86602604262907446 -1 0 0 33.999999995973809 17.000000000000011
1 14937.999999999998 2858.7519957524623 7843.1698464737956 0 -1 -8.4842523223711435e-018 
1 14937.999999999998 2037.5482879520507 9188.0267051068295 0 -0.49999889348700016 0.86602604262907446 
1 14871.907627545914 2805.1817521044532 7858.4426204035763 0.96619549514378378 0.12890497564198031 -0.22327062596454314 
1 14970.299999999997 2813.6019957524995 7835.7058898988553 -0 1 8.4842523223711435e-018 
1 14970.299999999997 2823.4500691825001 7833.9458881292767 0 0.99999999999918365 -1.2777590433532829e-006 
Polygon3D 0
PolygonOnTriangulations 0
Surfaces 17
2 15187.999999999998 2969.1925479573465 10840.999828539445 0 -0.99999999999918365 1.2777590535753567e-006 1 0 0 -0 1.2777590535753567e-006 0.99999999999918365 50.000000000000007
1 15187.999999999998 2840.0039127508894 10842 0 0.99999999999918376 -1.2777590539646573e-006 0 1.2777590539646573e-006 0.99999999999918376 1 -0 0 
1 15098.051333333342 2835.0039114731267 10841.000000000191 0 1.277759081802565e-006 0.99999999999918365 1 0 -0 -0 0.99999999999918365 -1.277759081802565e-006 
1 14969.999999999998 2830.0039127508976 10842.000012777591 0 -0.99999999999918376 1.2777590539646573e-006 0 -1.2777590539646573e-006 -0.99999999999918376 1 0 0 
1 15187.999999999998 2830.0039127508976 10842.000012777591 1 0 0 0 0 -1 -0 1 0 
2 15187.999999999998 2699.1886350274913 7783.6074351557072 0 0.99999999999918376 -1.2777590540420063e-006 1 0 0 0 -1.2777590540420063e-006 -0.99999999999918376 50.000000000000007
1 14970.299999999997 2749.7039127509629 10842.000115381643 1 0 0 0 0 -1 -0 1 0 
1 14945.5 2877.5000787540362 7841.436729622028 -0.22514905570617766 8.2664134712340266e-018 -0.97432433137770746 -0.97432433137770746 0 0.22514905570617766 1.8611751871251669e-018 1 8.0541677782517651e-018 
1 14937.999999999998 2840.0039127508894 10842 -1 -0 0 0 0 1 -0 1 0 
1 14971.749999999998 2877.5039114348301 10840.970000000189 0 0 -1 0 -1 0 -1 -0 -0 
1 14970.299999999997 2749.7039127509629 10842.000115381643 1 0 0 0 0 -1 -0 1 0 
2 14969.999999999998 2813.0077460280731 13842.000034497043 0 -1.2777590539646573e-006 -0.99999999999918376 0 -0.99999999999918376 1.2777590539646573e-006 -1 -0 0 17.000000000000007
1 14971.749999999998 2540.0033028205135 10364.656379378081 0 0.86602476487002078 -0.50000110663060071 0 -0.50000110663060071 -0.86602476487002078 -1 0 -0 
1 14937.999999999998 2750.0039127509626 10842.000114998315 0 -0.99999999999918376 1.2777590539646573e-006 0 -1.2777590539646573e-006 -0.99999999999918376 1 0 0 
2 14944.5 2758.5077460281177 13842.000104134913 0 -1.2777590539646573e-006 -0.99999999999918376 0 0.99999999999918376 -1.2777590539646573e-006 1 0 0 8.5000000000000071
1 14953 2758.5039127509558 10842.000104137363 1 0 0 0 0 -1 -0 1 0 
1 14919.25 2553.1256583227332 8295.0178693926046 -0 -0.86602604262907446 -0.49999889348700016 0 -0.49999889348700016 0.86602604262907446 -1 0 0 
Triangulations 0

TShapes 114
Ve
1e-007
15138 2840.00391147312 10840.9999936114
0 0

0101101
*
Ve
1e-007
15188 2840.00384758517 10790.9999936114
0 0

0101101
*
Ed
 1e-007 1 1 0
1  1 0 3.14159265358979 4.71238898038469
2  1 1 0 3.14159265358979 4.71238898038469
4 C0 1 0 2 0
0

0101000
+114 0 -113 0 *
Ve
1e-007
15138 2830.00391147313 10841.000006389
0 0

0101101
*
Ed
 1e-007 1 1 0
1  2 0 -5.00000000000044 4.99999999999953
2  2 1 0 -5.00000000000044 4.99999999999953
4 C0 1 0 3 0
0

0101000
+111 0 -114 0 *
Ve
1e-007
15188 2830.00384758518 10791.000006389
0 0

0101101
*
Ed
 1e-007 1 1 0
1  3 0 1.5707963267949 3.14159265358979
2  3 1 0 1.5707963267949 3.14159265358979
4 C0 1 0 4 0
0

0101000
+109 0 -111 0 *
Ed
 1e-007 1 1 0
1  4 0 -5.00188941756868 4.9981105824313
2  4 1 0 -5.00188941756868 4.9981105824313
4 C0 1 0 5 0
0

0101000
+113 0 -109 0 *
Wi

0101000
-112 0 -110 0 -108 0 -107 0 *
Fa
0  1e-007 1 0

0101000
-106 0 *
Ve
1e-007
15188 2840.00006874982 7833.60725523266
0 0

0101101
*
Ed
 1e-007 1 1 0
1  5 0 3051.0000063886 6008.39274476979
4 C0 2 0 5 0
0

0101000
+113 0 -104 0 *
Ve
0.000162852424325607
15139.2842546591 2840.00001924879 7794.86674704532
0 0

0101101
*
Ed
 1e-007 1 1 0
1  6 0 1.5707963267949 2.91445478104139
2  5 6 0 1.5707963267949 2.91445478104139
4 C0 2 0 6 0
0

0101000
+104 0 -102 0 *
Ve
1e-007
14970.3 2840.00006918249 7833.94586698237
0 0

0101101
*
Ve
1e-007
14970.3 2840.00007143137 7835.70588989886
0 0

0101101
*
Ed
 1e-007 1 1 0
1  7 0 -3008.05413302009 -3006.2941101036
4 C0 2 0 7 0
0

0101000
+100 0 -99 0 *
Ve
1e-007
14938 2840.00008096851 7843.16984647379
0 0

0101101
*
Ed
 1e-007 1 1 0
1  8 0 -245.103710241475 -211.952531563295
4 C0 2 0 8 0
0

0101000
+99 0 -97 0 *
Ve
1e-007
14938 2840.0039114348 10840.9700000002
0 0

0101101
*
Ed
 1e-007 1 1 0
1  9 0 3001.02999999981 5998.83015352865
4 C0 2 0 9 0
0

0101000
+95 0 -97 0 *
Ve
1e-007
14970.3 2840.0039114348 10840.9700000002
0 0

0101101
*
Ed
 1e-007 1 1 0
1  10 0 -141.875 -109.575000000001
4 C0 2 0 10 0
0

0101000
+95 0 -93 0 *
Ve
1e-007
14970.3 2840.00391147312 10840.9999936114
0 0

0101101
*
Ed
 1e-007 1 1 0
1  11 0 -1.02999999981232 -1.00000638860447
4 C0 2 0 11 0
0

0101000
+93 0 -91 0 *
Ed
 1e-007 1 1 0
1  12 0 -172.725666666673 -5.0256666666719
4 C0 2 0 3 0
0

0101000
+91 0 -114 0 *
Wi

0101000
+112 0 +103 0 +101 0 +98 0 +96 0 -94 0 +92 0 +90 0 +89 0 *
Fa
0  1e-007 2 0

0111000
+88 0 *
Ve
1e-007
15188 2830.00006874983 7833.60726801025
0 0

0101101
*
Ed
 1e-007 1 1 0
1  13 0 3051.0000063886 6008.39274476979
4 C0 5 0 4 0
0

0101000
+109 0 -86 0 *
Ed
 1e-007 1 1 0
1  14 0 -5.00191416818324 4.99808583181674
2  6 6 0 -5.00191416818324 4.99808583181674
4 C0 5 0 6 0
0

0101000
+86 0 -104 0 *
Wi

0101000
+107 0 +85 0 +84 0 -103 0 *
Fa
0  1e-007 5 0

0101000
+83 0 *
Ve
0.000162852424325607
15139.2842546591 2830.0000192488 7794.86675982292
0 0

0101101
*
Ed
 1e-007 1 1 0
1  15 0 -140.811369834493 -130.811369834493
2  7 6 0 -140.811369834493 -130.811369834493
0

0101000
+102 0 -81 0 *
Ed
 1e-007 1 1 0
1  16 0 3.36873052613819 4.71238898038469
2  8 6 0 3.36873052613819 4.71238898038469
4 C0 6 0 4 0
0

0101000
+81 0 -86 0 *
Wi

0101100
+84 0 +101 0 +80 0 +79 0 *
Fa
0  1e-007 6 0

0101000
+78 0 *
Ve
1e-007
14970.3 2830.00391147313 10841.000006389
0 0

0101101
*
Ed
 1e-007 1 1 0
1  17 0 -103.974333333328 63.7256666666726
4 C0 4 0 3 0
0

0101000
+111 0 -76 0 *
Ve
1e-007
14970.3 2830.00391143479 10840.9700000002
0 0

0101101
*
Ed
 1e-007 1 1 0
1  18 0 1.00000638860629 1.03001277740343
4 C0 4 0 11 0
0

0101000
+76 0 -74 0 *
Ve
4.14496362407387e-006
14970 2830.00391143479 10840.9700000002
0 0

0101101
*
Ed
 1e-007 1 1 0
1  19 0 0.575000000002547 0.875000000001819
4 C0 4 0 10 0
0

0101000
+74 0 -72 0 *
Ve
2.3792056247121e-006
14970 2830.00007151994 7835.77521457293
0 0

0101101
*
Ed
 1e-007 1 1 0
1  20 0 3001.0300127774 6006.22479820712
2  9 12 0 3001.0300127774 6006.22479820712
4 G1 4 0 12 0
0

0101000
+72 0 -70 0 *
Ve
1e-007
14970.3 2830.00007143136 7835.70588989886
0 0

0101101
*
Ed
 1e-007 1 1 0
1  21 0 350.997159554187 351.305065238504
4 C0 4 0 8 0
0

0101000
+70 0 -68 0 *
Ve
1e-007
14970.3 2830.00006918249 7833.94587975995
0 0

0101101
*
Ed
 1e-007 1 1 0
1  22 0 3006.29412288119 3008.05413302009
4 C0 4 0 7 0
0

0101000
+68 0 -66 0 *
Wi

0101000
+108 0 +75 0 +73 0 +71 0 +69 0 +67 0 +65 0 +79 0 -85 0 *
Fa
0  1e-007 4 0

0111000
+64 0 *
Ve
4.14496362407387e-006
14953.1180569839 2815.00391143478 10840.9700000002
0 0

0101101
*
Ve
1e-007
14953 2813.00390700849 10837.5059009411
0 0

0101101
*
Ed
 1e-007 1 1 0
1  23 0 4.59446882835929 4.71238898038469
2  10 12 0 4.59446882835929 4.71238898038469
4 C0 13 0 12 0
0

0101000
+62 0 -61 0 *
Ve
1e-007
14938 2815.00391143478 10840.9700000002
0 0

0101101
*
Ed
 1e-007 1 1 0
1  24 0 18.6319430161329 33.75
4 C0 13 0 10 0
0

0101000
+62 0 -59 0 *
Ve
1e-007
14938 2750.0037675805 10728.3867805804
0 0

0101101
*
Ed
 1e-007 1 1 0
1  25 0 138.303983067089 268.303983051698
4 C0 13 0 9 0
0

0101000
+57 0 -59 0 *
Ve
1e-007
14944.5 2750.0037675805 10728.3867805804
0 0

0101101
*
Ed
 1e-007 1 1 0
1  26 0 10.3749999999982 16.875
4 C0 13 0 14 0
0

0101000
+55 0 -57 0 *
Ve
1e-007
14953 2758.50378639221 10743.1092015815
0 0

0101101
*
Ed
 1e-007 1 1 0
1  27 0 1.5707963267949 3.14159265358979
2  11 15 0 1.5707963267949 3.14159265358979
4 C0 13 0 15 0
0

0101000
+53 0 -55 0 *
Ed
 1e-007 1 1 0
1  28 0 -284.67898305458 -175.678983067488
4 C0 13 0 16 0
0

0101000
+61 0 -53 0 *
Wi

0101000
-60 0 +58 0 -56 0 -54 0 -52 0 -51 0 *
Fa
0  1e-007 13 0

0101000
-50 0 *
Ed
 4.14496362407387e-006 1 1 0
1  29 0 3.14159265358979 4.59446882835922
2  12 12 0 3.14159265358979 4.59446882835922
4 C0 10 0 12 0
0

0101000
+72 0 -62 0 *
Ed
 1e-007 1 1 0
1  30 0 -26.3999993419011 -16.3999993418929
4 C0 10 0 11 0
0

0101000
+93 0 -74 0 *
Ed
 1e-007 1 1 0
1  31 0 -43.7500006580808 -18.7500006580622
4 C0 10 0 9 0
0

0101000
+59 0 -95 0 *
Wi

0101000
-48 0 -71 0 -47 0 -92 0 -46 0 -58 0 *
Fa
0  1e-007 10 0

0101000
-45 0 *
Ed
 1e-007 1 1 0
1  32 0 -47.6499999999999 -37.6499999999999
4 C0 11 0 3 0
0

0101000
+91 0 -76 0 *
Wi

0101000
-73 0 -43 0 -90 0 +47 0 *
Fa
0  1e-007 11 0

0101000
-42 0 *
Ve
1e-007
14953 2758.50020379664 7939.29767242753
0 0

0101101
*
Ed
 1e-007 1 1 0
1  33 0 3159.49531003721 5963.30683919343
2  13 15 0 3159.49531003721 5963.30683919343
4 G1 16 0 15 0
0

0101000
+40 0 -53 0 *
Ve
1e-007
14953 2813.00008318027 7844.90083379214
0 0

0101101
*
Ed
 1e-007 1 1 0
1  34 0 1462.28202266933 1571.28202265642
4 C0 16 0 17 0
0

0101000
+40 0 -38 0 *
Ed
 1e-007 1 1 0
1  35 0 3004.49413355838 5997.0992007098
2  14 12 0 3004.49413355838 5997.0992007098
4 G1 16 0 12 0
0

0101000
+61 0 -38 0 *
Wi

0101000
+51 0 -39 0 +37 0 -36 0 *
Fa
0  1e-007 16 0

0101000
+35 0 *
Ve
1e-007
14944.5 2750.00022260837 7954.02011515048
0 0

0101101
*
Ed
 1e-007 1 1 0
1  36 0 3113.61333441799 5887.97999985019
2  15 15 0 3113.61333441799 5887.97999985019
4 G1 15 0 14 0
0

0101000
+55 0 -33 0 *
Ed
 1e-007 1 1 0
1  37 0 3.14159265358979 4.71238898038463
2  16 15 0 3.14159265358979 4.71238898038463
4 C0 15 0 17 0
0

0101000
+33 0 -40 0 *
Wi

0101000
+52 0 +32 0 +31 0 +39 0 *
Fa
0  1e-007 15 0

0101000
+30 0 *
Ve
1e-007
14938 2750.00022260837 7954.02011515048
0 0

0101101
*
Ed
 1e-007 1 1 0
1  38 0 3113.61333441799 5887.97999985019
4 C0 14 0 9 0
0

0101000
+57 0 -28 0 *
Ed
 1e-007 1 1 0
1  39 0 9.37499999999818 15.875
4 C0 14 0 17 0
0

0101000
+28 0 -33 0 *
Wi

0101000
+54 0 +27 0 +26 0 -32 0 *
Fa
0  1e-007 14 0

0101000
+25 0 *
Ve
2.3792056247121e-006
14953.2734939315 2816.03717947628 7839.64041317806
0 0

0101101
*
Ed
 2.3792056247121e-006 1 1 0
1  40 0 0.179617367159869 1.57079604649519
2  17 12 0 0.179617367159869 1.57079604649519
4 C0 12 0 8 0
0

0101000
+23 0 -70 0 *
Ed
 1e-007 1 1 0
1  41 0 1.5707963267949 1.75041370336283
2  18 12 0 1.5707963267949 1.75041370336283
4 C0 12 0 17 0
0

0101000
+38 0 -23 0 *
Wi

0101100
-48 0 +69 0 -22 0 -21 0 -36 0 -60 0 *
Fa
0  1e-007 12 0

0101000
+20 0 *
Ve
1e-007
14938 2813.9994662256 7843.16984647379
0 0

0101101
*
Ed
 1e-007 1 1 0
1  42 0 18.751914783953 44.7525295268661
4 C0 9 0 8 0
0

0101000
+97 0 -18 0 *
Ed
 1e-007 1 1 0
1  43 0 -1552.90579316799 -1424.90702266893
4 C0 9 0 17 0
0

0101000
+18 0 -28 0 *
Wi

0101000
+56 0 +46 0 +94 0 +17 0 +16 0 -27 0 *
Fa
0  1e-007 9 0

0101000
+15 0 *
Wi

0101000
+110 0 -89 0 +43 0 -75 0 *
Fa
0  1e-007 3 0

0101000
+13 0 *
Ed
 1e-007 1 1 0
1  44 0 68.4047615480228 84.2126327378905
4 C0 17 0 8 0
0

0101000
+18 0 -23 0 *
Wi

0101100
-16 0 +11 0 -21 0 -37 0 -31 0 -26 0 *
Fa
0  1e-007 17 0

0101000
+10 0 *
Ed
 1e-007 1 1 0
1  45 0 16.3980756788637 26.3980756788719
4 C0 8 0 7 0
0

0101000
+68 0 -99 0 *
Wi

0101100
-17 0 -96 0 -8 0 -67 0 -22 0 -11 0 *
Fa
0  1e-007 8 0

0101000
+7 0 *
Ed
 1e-007 1 1 0
1  46 0 6.54999999999916 16.5499999999996
0

0101000
+66 0 -100 0 *
Wi

0101000
-98 0 -5 0 -65 0 +8 0 *
Fa
0  1e-007 7 0

0101000
-4 0 *
Sh

0101000
-105 0 +87 0 +82 0 -77 0 +63 0 -49 0 -44 0 -41 0 +34 0 +29 0 
+24 0 -19 0 +14 0 +12 0 +9 0 +6 0 -3 0 *
Co

1100000
+2 0 *

+1 0 