DBRep_DrawableShape

CASCADE Topology V1, (c) Matra-Datavision
Locations 0
Curve2ds 22
1 1.8274699680610758 0 0 1 
7 0 0  3 7 3  0.2561659613768934 0.029729307907355132  0.25609402018572197 0.031013462128490103  0.25602196846052061 0.032297751856403385  0.25594982095607033 0.033581981323395058  0.2558776793918629 0.034866105053744136  0.25580543095646041 0.036150366247913679  0.25573309084360907 0.037434562714786332 
 -0.029149437843019002 4 -0.014574118894283087 3 -0 4
1 6.2831853071795862 37.905612377267062 -1 0 
1 3.1415926535899628 30.905612377358011 0 1 
1 -2.2204460492503131e-016 23.905612377267062 1 0 
7 0 0  3 4 2  0.25605743661971797 0.031665111294793553  0.29324430295799586 0.031666459056859525  0.33032287872257399 0.031668395727738441  0.36764387753512995 0.031672019449875632 
 0.12804288939139399 4 0.84937557116159834 4
1 6.2831853071795258 23.629868023809649 -1 0 
7 0 0  3 7 3  5.4439041450061527 0.14827285995770428  5.4352671012409379 0.23438000566081901  5.4266708134710342 0.32048350708879936  5.4181123955085644 0.40658725388624223  5.4002929940809272 0.58586305407914818  5.382640459753711 0.76511148728866463  5.3651324097708857 0.94436116049451424 
 0.058085677212162845 4 0.15185868029543786 3 0.34710256676409534 4
1 6.2831853071795862 5008000 -1 0 
7 0 0  3 4 2  0.36728895640526682 0.035526608740119148  0.33001788438965318 0.035522439525214403  0.29298841061292635 0.035520026052227656  0.25584097071870893 0.03551819514100877 
 0.67484673468472967 4 1.3908534746993628 4
7 0 0  3 7 3  0.36711355486185038 0.037434562714786332  0.36723156016048142 0.036150291707753072  0.3673496842768163 0.034866053808116852  0.36746793355854224 0.033581826143179096  0.36758618023728906 0.032297626747485271  0.3677045498381093 0.031013461888031078  0.3678230488817294 0.029729307907355132 
 -0.029094977216318749 4 -0.014547328492067163 3 -0 4
7 0 0  3 4 2  5.4438798484263184 0.14825452331698369  5.4391761095861639 0.14469315669883479  5.4344853094469174 0.14113019179538841  5.4298073584285635 0.13756588713395981 
 -0.074234245614438213 4 -0.060139459197756595 4
1 4.7720952060760737 0 0 1 
7 0 0  1 2 2  4.7721597653396799 23.629868023811468  4.7720952060760737 23.605794713908836 
 -2.4288751490722974e-005 2 -0 2
7 0 0  3 4 2  5.458862759716685 0.15944361178597236  5.4538497394226066 0.15575152518323443  5.4488546596662957 0.15202110076391875  5.4438798539175721 0.14825446857441288 
 -0.014912009485393736 4 -0 4
1 6.2783178261706487 0 0 1 
1 2.6645352591003757e-015 9.6298680238096495 1 0 
7 0 0  3 7 3  5.3514090133649299 0.93381430355247907  5.3629684349971134 0.8149239358219279  5.3745895879603163 0.69603184043441979  5.3862785622641178 0.57713049598887178  5.4006826067849376 0.43061120229668259  5.4151877867943359 0.28409541953226375  5.4298073306831958 0.13756572039109932 
 0.024031113464164137 4 0.15353321822263372 3 0.31311557626360975 4
1 0 5007986 1 0 
7 0 0  3 4 2  5.3514090175508846 0.93381430683838551  5.3559721459119336 0.93733081369719129  5.3605465845858218 0.94084650631154032  5.365132417158172 0.94436116626190236 
 0 4 0.01412122091386377 4
1 1.5707963267949112 0 0 1 
1 3.6445154406626723 0 0 1 
Curves 36
1 8000 -11740.586381175044 17070.819965127441 0 -0.96723977231222391 -0.25386457582222344 
1 7962.0943876227329 -18508.639339535745 15294.457017076578 1 0 0 
7 0 0  3 6 3  8007.0344545899679 -18514.539311401229 15292.90849322772  8002.3681510842162 -18513.230808637189 15293.251926685138  7997.7015611104789 -18511.921990319726 15293.59544296362  7988.3696041584089 -18509.304233559269 15294.282507049094  7983.7035187264482 -18507.995093616915 15294.6261077422  7979.0378634319559 -18506.685846159602 15294.969736653988 
 -0.029149437843019002 4 -0.014574118894283087 2 -0 4
2 8000 -18527.679182722444 15366.999999999987 -1 -0 -0 0 -1 0 -0 0 1 75
1 7993.0000000000909 -18452.679182722444 15367 1 0 0 
2 7986 -18527.679182722444 15366.999999999987 1 0 0 0 -1 0 0 0 -1 75
7 0 0  3 4 2  8000 -18544.396744428261 15417.000000000002  8000 -18423.049519345655 14922.735900817464  7999.9999999999991 -18240.162438494892 14465.828395089815  7999.9999999999991 -17989.533094551785 14026.76878319975 
 0 4 1.5268265582520375 4
1 8000 -13168.755105938519 16790.325654242148 -0 0.92078139380359081 0.39007899818513264 
2 8000 -18260.500635251665 14578.961470744724 -1 -0 -0 0 -0.39455624549596074 0.91887179145957631 -0 0.91887179145957631 0.39455624549596074 50
7 0 0  3 6 3  8000.0000000000018 -18267.728625318916 14575.339494515736  8000.0000000000018 -18222.485727780193 14598.042356411952  8000 -18177.254628041068 14620.762169316484  8000 -18067.869559351362 14675.762731138871  8000 -18003.733653224834 14708.057800322547  8000 -17939.610855353723 14740.39338069129 
 0 4 0.15185867589243698 2 0.36730367879614229 4
2 8000 -17757.970142957183 14886.999999999989 -1 -0 -0 0 1 0 0 0 -1 249.99999999999847
1 8000 -8672.9925357392967 15137 0 1 -0 
1 8000 -17024 7558.5000000000946 -0 0 1 
1 8000 -8931.2500000045402 7264.2499999959045 0 -0.70710678118617076 0.70710678118692438 
1 8000 0 15367 0 1 0 
7 0 0  3 4 2  7985.9999999999991 -17984.988986124947 14026.768783199752  7985.9999999999991 -18235.820411875298 14465.826520845972  7986 -18418.782392331323 14922.581323746361  7986 -18540.20060319376 15416.999999999998 
 0 4 1.5169683286669926 4
7 0 0  3 6 3  7979.0756399879047 -18278.190743255094 14625.768954781946  7983.7393930410626 -18279.413791587227 14625.250823690962  7988.4032993246719 -18280.636192763617 14624.732966760448  7997.7315000644303 -18283.079682985503 14623.697808769373  8002.3957062478958 -18284.300748939375 14623.180517491324  8007.0601646437535 -18285.521154554583 14622.663505958551 
 -0.029094977216318749 4 -0.014547328492067163 2 -0 4
1 7986 -8931.2500000045402 7264.2499999959045 0 0.70710678118617076 -0.70710678118692438 
1 4014.9898658541865 -17034.000000000004 15367.000000000002 -1 0 0 
1 6608.1575578947941 -17024 15356.999999999985 1 0 -0 
1 -2497406.8323079594 -17024 15137 -1 -0 0 
1 7986 -17024 7558.5000000000946 0 0 -1 
7 0 0  3 4 2  8014.7679287235651 -18216.705339522057 14603.166843729827  7985.3134177023112 -18214.935985064076 14599.642626717372  7955.8213696798848 -18213.156159909919 14596.097554072841  7926.3701319761904 -18211.371214533774 14592.542282921522 
 -0.089156112898178666 4 -0 4
1 7976.3701319761904 -18215.816085491882 14601.395619107559 1 0 0 
1 7986 -13449.173761775657 5107.1521712929725 0 -0.44868296725674617 0.8936909951955887 
7 0 0  3 4 2  8014.7571949653111 -18216.739762084973 14603.147954153621  8009.8305521001375 -18216.420446672222 14602.57021322943  8004.9025042104558 -18216.112485500642 14601.985991459829  7999.9759266900992 -18215.816085491882 14601.395619107559 
 -0.014912009485393736 4 -0 4
1 7976.3701319761904 -18280.004585160917 14625.000540434901 1 0 0 
2 7986 -18260.500635251665 14578.961470744724 1 0 0 0 -0.39455624549596074 0.91887179145957631 0 -0.91887179145957631 -0.39455624549596074 50
1 7986 -13168.755105938519 16790.325654242148 0 -0.92078139380359081 -0.39007899818513264 
7 0 0  3 6 3  7986.0000000000009 -17935.301786494412 14740.501868469846  7986.0000000000009 -17980.99500276694 14717.452113314654  7986.0000000000009 -18026.695948915945 14694.42244630514  7986.0000000000009 -18136.059682420371 14639.368658873562  7985.9999999999973 -18199.723085973128 14607.366549686938  7985.9999999999973 -18263.41142849535 14575.397391331167 
 0 4 0.15353322452934115 2 0.36731690580693654 4
2 7985.9999999998763 -17757.970142957183 14886.999999999989 1 0 0 -0 1 0 0 -0 1 249.99999999999847
1 7985.9999999998763 -8672.9925357392967 15137 0 -1 0 
1 7986 0 15367 0 -1 0 
7 0 0  3 4 2  7985.9999999998754 -17956.758159007022 14729.680051759009  7990.6665681595559 -17957.055153031921 14730.21993914853  7995.3333236366097 -17957.351957764 14730.75948243416  7999.9999999999964 -17957.648553995496 14731.298646699233 
 0 4 0.01412122091386377 4
1 -5000000 -17757.970142957187 15137 1 0 0 
1 -5000000 -17977.014532123711 14766.502881467375 1 0 0 
Polygon3D 0
PolygonOnTriangulations 0
Surfaces 14
1 7962.0943876227329 -18532.820333843552 15288.110402681028 0 0.25386457582222344 -0.9672397723122238 0 0.9672397723122238 0.25386457582222344 1 -0 0 
1 8000 0 0 1 0 0 -0 1 0 0 -0 1 
2 7962.0943876227329 -18527.679182722444 15366.999999999987 1 0 0 0 -1 0 0 0 -1 75
10 0.25564677690065318 0.36780722128952842 0.031479434732887231 0.035718698393347209
9 0 0 0 0 3 3 6 10 4 8 8115.1028643000009 -18757.10185024 17000  7942.1361870800001 -18706.767418290001 17000  7596.4165176799997 -18605.364828049998 17000  7078.4673037700004 -18451.124919469999 17000  6561.1376495300001 -18294.814427830002 17000  6044.4171874799995 -18136.498132690002 17000  5528.30058027 -17976.22406416 17000  5012.78212042 -17814.040853849998 17000  4669.4980757000003 -17704.678197370002 17000  4497.9537864700005 -17649.69482044 17000  
8115.1028643099999 -18759.634465579999 16205.591377590001  7941.9771459000003 -18706.65760667 16209.389096769999  7595.5011613399993 -18607.255558270001 16202.99360021  7077.1070531099995 -18453.38114949 16195.20114976  6559.0331617700003 -18298.386555770001 16187.209668169999  6041.5890696099996 -18141.084578509999 16179.89041873  5524.9997543999998 -17981.304406220002 16173.295081069999  5008.5636041899998 -17820.388457899997 16166.36117941  4665.3082195899997 -17710.963494840002 16162.559097140002  4498.2000675500003 -17655.560587379998 16144.326297580001  
8115.1028855699997 -18522.925038640002 14765.37315693  7941.8582123199994 -18473.991460339999 14756.342934079999  7596.93656362 -18364.594351160002 14744.397195510001  7079.3478917500006 -18200.915064519999 14726.8451482  6562.55923996 -18034.589803540002 14711.353826619999  6046.3972099600005 -17866.394778219998 14697.43374248  5530.6315186700003 -17696.841092989998 14684.524893620001  5015.7905278999997 -17524.689047209999 14673.414184649999  4672.4771492099999 -17409.923640279998 14666.252070120001  4498.62213729 -17347.967529310001 14668.229703210001  
8115.1028712999996 -17426.528712389998 12984.661362069999  7942.1571175600002 -17351.038362179999 12975.03064031  7596.7624348999998 -17217.73791471 12962.56969317  7079.5723253400001 -17014.80668736 12948.152939330001  6562.4836238900007 -16811.590391199999 12936.589695660001  6045.6515884800001 -16607.480977609997 12927.75512923  5529.3054191600004 -16402.154663379999 12921.979762450001  5012.9362525200004 -16196.948475970001 12918.165226770001  4669.3855505900001 -16058.485555010002 12918.08547679  4499.1331018500005 -16000.692574310002 12920.960037249999  
8115.1028761400003 -16289.931334049999 12018.10698651  7943.99240646 -16230.363185800001 12025.33120493  7599.99412691 -16079.252237470002 12021.36213754  7083.3515397399997 -15854.00929907 12018.87253002  6566.8892740900001 -15628.326020550001 12020.239598939999  6050.5563500999997 -15402.39430061 12025.584679739999  5534.2290605600001 -15176.625875639998 12033.939232139999  5018.3479978300002 -14949.94436451 12046.48878449  4674.0896056700003 -14800.05578687 12055.089913219999  4499.3711523600005 -14701.77553203 12050.04534696  
8115.1028761400003 -15649.96942209 11605.850586280001  7943.0672924 -15570.63105876 11605.45001058  7598.9432027499997 -15412.073645390001 11606.205582570001  7082.6164228300004 -15174.60434738 11611.703390950001  6566.1623655800004 -14937.50854882 11621.29889444  6049.5988288899998 -14700.794894530001 11634.54461135  5532.9482242100003 -14464.474086579999 11651.132952530001  5016.2352418499995 -14228.55778596 11670.805016159999  4671.7344013100001 -14071.55746502 11685.83370519  4499.4810485799999 -13993.128220390001 11693.780793739999  

0 4
0.33333333332999998 1
0.66666666666999996 1
1 4

0 4
0.14285714286000001 1
0.28571428571000002 1
0.42857142857000002 1
0.57142857143000003 1
0.71428571428999998 1
0.85714285714000005 1
1 4

1 0 0 15367 0 0 1 1 0 -0 -0 1 0 
1 7986 0 0 1 0 0 -0 1 0 0 -0 1 
1 7976.3701319761904 -18303.024120006008 14615.248565480273 0 -0.39007899818513264 0.92078139380359081 -0 -0.92078139380359081 -0.39007899818513264 1 0 -0 
2 7976.3701319761904 -18260.500635251665 14578.961470744724 1 0 0 0 -0.39455624549596074 0.91887179145957631 0 -0.91887179145957631 -0.39455624549596074 50
10 0 11.129529419901708 0 1
9 0 0 0 0 3 1 25 3 10 3 2756.4772180631917 -16538.476569002036 14591.337265117085  2760.6875850227648 -16526.585536659328 14598.411747490909  2862.5786431775373 -16238.822052007201 14769.614519574085  
2779.7705184536198 -16546.663607492563 14591.2354652254  2783.9790345991869 -16534.771925008714 14598.309956965366  2885.8253029769021 -16246.992706913436 14769.512955709542  
2803.0663458880608 -16554.8456009724 14591.133642963474  2807.2728279700109 -16542.95320623893 14598.208145016355  2909.0698719223246 -16255.15675167281 14769.411393333572  
3356.0962227887776 -16748.924289562168 14588.724632855725  3360.2641616271044 -16737.018332377964 14595.79932108912  3461.1284574566944 -16448.8936659315 14767.007074982608  
3947.724611750516 -16953.405137135986 14586.17451111636  3951.8336129616482 -16941.47889748904 14593.249471742112  4051.2716157251898 -16652.863394588152 14764.463817542144  
4494.5675531292445 -17138.046247949922 14583.892466224557  4498.6466030851079 -17126.109907286671 14590.967582053678  4597.3597842067966 -16837.249959364723 14762.185683781758  
4823.5947166206752 -17250.105710467767 14582.567067362181  4827.65539498409 -17238.163108740966 14589.642275400778  4925.9239827929905 -16949.15164281684 14760.862608602065  
5205.0503999807133 -17377.671647330812 14581.058044473864  5209.0581078944688 -17365.711276616414 14588.133479634635  5306.0448085855705 -17076.269800442293 14759.359309202104  
5596.0286100750791 -17506.976261518979 14579.391605661813  5600.0093093045152 -17495.007021192821 14586.467159394673  5696.3423986949701 -17205.350900039793 14757.695858411716  
5830.0967944640543 -17584.340645112341 14578.459506586218  5834.0647910153011 -17572.346339749423 14585.499830707831  5930.0904750573591 -17282.083643648632 14755.875971645606  
6067.6581005730459 -17662.121080381017 14577.569443048009  6071.6110285031928 -17650.100885859632 14584.573926583229  6167.2720512785309 -17359.211671031175 14754.082723817279  
6887.2230670480958 -17928.614339287997 14574.384639078036  6891.1362592879186 -17916.509235078687 14581.265202128523  6985.8356766800416 -17623.565202218153 14747.775118400961  
7608.0849426704463 -18157.480896550398 14572.211680021799  7611.9311504988373 -18145.292840745584 14578.982646167324  7705.0095423066859 -17850.341375772154 14742.840312713231  
8111.2988883733678 -18311.518465123165 14570.062490081658  8115.1028786511524 -18299.275375030636 14576.756408509593  8207.1596039522065 -18002.992077971292 14738.749517037384  
8517.9056351601212 -18438.565240874264 14568.779236347758  8521.7002242281433 -18426.285031203952 14575.410913349642  8613.5294398560491 -18129.103438795308 14735.89777673963  
9049.4229737957339 -18599.090164059635 14566.804989981867  9053.1396668564848 -18586.742500378325 14573.355150196547  9143.0837958201973 -18287.928518056073 14731.869303895102  
9807.714415056902 -18823.946478567672 14564.266991223391  9811.3874029425733 -18811.524736896856 14570.700053756356  9900.2738648244576 -18510.918064101588 14726.380438614326  
10170.812370717491 -18929.83350508659 14563.292634757559  10174.460880951401 -18917.375474880817 14569.66952330698  10262.754982627372 -18615.890618007608 14723.990495391949  
10496.481179496608 -19023.249768721867 14562.218003156033  10500.081196964711 -19010.752218545142 14568.544396660764  10587.20177166109 -18708.310976706674 14721.643386532618  
10645.539763130373 -19066.078027828418 14561.674028873651  10649.128993963781 -19053.577280982558 14568.000453609409  10735.988531645258 -18751.058679616071 14721.100199273504  
10786.851434840704 -19106.228374433307 14561.145761395201  10790.353410394087 -19093.703084654124 14567.472466007242  10875.10136661562 -18790.590543265156 14720.57898468914  
10911.271764334306 -19140.656308724145 14560.75143455947  10914.808537640973 -19128.140807602882 14567.078013985041  11000.398600960867 -18825.265152148873 14720.181503149091  
11682.689195896492 -19360.050084249404 14558.425918954981  11686.186517154169 -19347.523211566444 14564.752589714701  11770.82183922307 -19044.372363839211 14717.858289168986  
12531.486867564603 -19589.374615685494 14555.819191431474  12534.826874515771 -19576.80472200668 14562.146298382042  12615.65518372646 -19272.612764363854 14715.262553673305  
13391.610386472823 -19810.46766836063 14553.24751477895  13394.858384579304 -19797.874482072551 14559.574781833622  13473.46007586451 -19493.118842302189 14712.694911650902  

0 4
0.084151830015646967 2
1.9974275798622532 3
3.1496407303195988 3
3.8393891163413731 2
5.5881910811899553 3
7.0038592736373104 2
7.9630985560439882 3
8.4022415688363701 3
11.129529419901708 4

-0.041322241969233994 2
0 1
1 2

2 -5000000 -17757.970142957183 14886.999999999989 1 0 0 -0 1 0 0 -0 1 249.99999999999847
1 -5000000 -17345.985071478593 15137 -0 0 1 0 -1 0 1 0 0 
1 5186.3353840812142 -17024 15117.000000000189 0 -1 0 0 0 -1 1 0 0 
1 8029.979731708373 -17029.000000000004 15361.999999999996 -0 -0.70710678118692438 -0.70710678118617076 -0 -0.70710678118617076 0.70710678118692438 -1 0 0 
1 7976.3701319761904 -18204.599011310467 14579.05334422767 -0 0.8936909951955887 0.44868296725674617 -0 -0.44868296725674617 0.8936909951955887 1 0 0 
Triangulations 0

TShapes 91
Ve
1e-007
8000 -18508.6393395357 15294.4570170766
0 0

0101101
*
Ve
0.0568432213524523
8000 -18512.5665640699 15293.4262619045
0 0

0101101
*
Ed
 1e-007 1 1 0
1  1 0 6997.28562875512 7001.34586874392
4 C0 1 0 2 0
0

0101000
+91 0 -90 0 *
Ve
0.0576684465188948
7986 -18508.6393395357 15294.4570170766
0 0

0101101
*
Ed
 1e-007 1 1 0
1  2 0 23.9056123772671 37.9056123772671
2  1 3 0 23.9056123772671 37.9056123772671
4 G1 1 0 3 0
0

0101000
+88 0 -91 0 *
Ed
 1e-007 1 1 0
1  3 0 -0.0218254706006559 -0.00724897287093162
2  2 4 0 -0.0218254706006559 -0.00724897287093162
4 C0 1 0 4 0
0

0101000
+90 0 -88 0 *
Wi

0101000
-89 0 -87 0 -86 0 *
Fa
0  1e-007 1 0

0101000
-85 0 *
Ve
1e-007
8000 -18452.6791827224 15367
0 0

0101101
*
Ed
 1e-007 1 1 0
1  4 0 3.14159265358979 4.45571533911851
2  3 3 0 3.14159265358979 4.45571533911851
4 C0 3 0 2 0
0

0101000
+83 0 -91 0 *
Ve
1e-007
7986 -18452.6791827224 15367
0 0

0101101
*
Ed
 1e-007 1 1 0
1  5 0 -7.00000000009095 6.99999999990905
2  4 3 0 -7.00000000009095 6.99999999990905
4 C0 3 0 5 0
0

0101000
+81 0 -83 0 *
Ed
 1e-007 1 1 0
1  6 0 1.82746996806108 3.14159265358979
2  5 3 0 1.82746996806108 3.14159265358979
4 C0 3 0 6 0
0

0101000
+88 0 -81 0 *
Wi

0101000
-82 0 -80 0 -79 0 +87 0 *
Fa
0  1e-007 3 0

0101000
-78 0 *
Ve
0.0568432213524523
8000 -18283.6733858428 14623.446293027
0 0

0101101
*
Ed
 0.0568432213524523 1 1 0
1  7 0 0.128042889391394 0.849375571161598
2  6 4 0 0.128042889391394 0.849375571161598
4 C0 2 0 4 0
0

0101000
+90 0 -76 0 *
Ve
1e-007
8000 -18280.0045851609 14625.0005404349
0 0

0101101
*
Ed
 1e-007 1 1 0
1  8 0 -5554.97571337255 -5550.99127069532
4 C0 2 0 7 0
0

0101000
+76 0 -74 0 *
Ve
6.84095244461869e-005
8000 -18215.8175339171 14601.3985038624
0 0

0101101
*
Ed
 1e-007 1 1 0
1  9 0 0.0048674810089496 1.51102554183979
2  7 8 0 0.0048674810089496 1.51102554183979
4 C0 2 0 8 0
0

0101000
+74 0 -72 0 *
Ve
6.84095244461869e-005
8000 -17957.6485539955 14731.2986466992
0 0

0101101
*
Ed
 6.84095244461869e-005 1 1 0
1  10 0 0.0580856772121628 0.347102566764095
2  8 9 0 0.0580856772121628 0.347102566764095
4 C0 2 0 9 0
0

0101000
+72 0 -70 0 *
Ve
1e-007
8000 -17977.0145321237 14766.5028814674
0 0

0101101
*
Ve
1e-007
8000 -17757.9701429572 15137
0 0

0101101
*
Ed
 1e-007 1 1 0
1  11 0 2.63866986651691 4.71238898038468
2  9 10 0 2.63866986651691 4.71238898038468
4 C0 2 0 10 0
0

0101000
+68 0 -67 0 *
Ve
1e-007
8000 -17024 15137
0 0

0101101
*
Ed
 1e-007 1 1 0
1  12 0 -9084.97760721789 -8351.0074642607
4 C0 2 0 11 0
0

0101000
+67 0 -65 0 *
Ve
1e-007
8000 -17024 15357
0 0

0101101
*
Ed
 1e-007 1 1 0
1  13 0 7578.49999999991 7798.4999999999
4 C0 2 0 12 0
0

0101000
+65 0 -63 0 *
Ve
1e-007
8000 -17034 15367
0 0

0101101
*
Ed
 1e-007 1 1 0
1  14 0 11444.8768068945 11459.0189425183
4 C0 2 0 13 0
0

0101000
+63 0 -61 0 *
Ed
 1e-007 1 1 0
1  15 0 -18452.6791827224 -17034
4 C0 2 0 5 0
0

0101000
+83 0 -61 0 *
Wi

0101000
+82 0 +89 0 +75 0 +73 0 +71 0 +69 0 +66 0 +64 0 +62 0 +60 0 
-59 0 *
Fa
0  1e-007 2 0

0111000
+58 0 *
Ve
0.0576684465188948
7986 -18280.0061182115 14624.9998909747
0 0

0101101
*
Ed
 0.0576684465188948 1 1 0
1  16 0 0.67484673468473 1.39085347469936
2  10 4 0 0.67484673468473 1.39085347469936
4 C0 4 0 6 0
0

0101000
+56 0 -88 0 *
Ed
 1e-007 1 1 0
1  17 0 -0.0218953852799484 -0.00733984169936609
2  11 4 0 -0.0218953852799484 -0.00733984169936609
4 C0 4 0 7 0
0

0101000
+56 0 -76 0 *
Wi

0101000
+86 0 -55 0 +54 0 -75 0 *
Fa
0  1e-007 4 0

0101000
-53 0 *
Ve
1e-007
7986 -17034 15367
0 0

0101101
*
Ve
1e-007
7986 -17024 15357
0 0

0101101
*
Ed
 1e-007 1 1 0
1  18 0 -11459.0189425183 -11444.8768068945
4 C0 13 0 6 0
0

0101000
+51 0 -50 0 *
Ed
 1e-007 1 1 0
1  19 0 -3985.01013414581 -3971.01013414581
4 C0 13 0 5 0
0

0101000
+61 0 -51 0 *
Ed
 1e-007 1 1 0
1  20 0 1377.84244210521 1391.84244210521
4 C0 13 0 12 0
0

0101000
+50 0 -63 0 *
Wi

0101000
-49 0 -48 0 -60 0 -47 0 *
Fa
0  1e-007 13 0

0101000
-46 0 *
Ve
1e-007
7985.99999999988 -17024 15137
0 0

0101101
*
Ed
 1e-007 1 1 0
1  21 0 -2505406.83230796 -2505392.83230796
4 C0 12 0 11 0
0

0101000
+65 0 -44 0 *
Ed
 1e-007 1 1 0
1  22 0 -7798.4999999999 -7578.49999999991
4 C0 12 0 6 0
0

0101000
+50 0 -44 0 *
Wi

0101000
+47 0 -62 0 +43 0 -42 0 *
Fa
0  1e-007 12 0

0101000
-41 0 *
Ve
4.91232672252402e-005
7999.97592669004 -18215.8160854919 14601.3956191076
0 0

0101101
*
Ve
7.2650000568702e-005
7986 -18214.9746399853 14599.7196199566
0 0

0101101
*
Ed
 4.91232672252402e-005 1 1 0
1  23 0 -0.0742342456144382 -0.0601394591977566
2  12 9 0 -0.0742342456144382 -0.0601394591977566
4 C0 14 0 9 0
0

0101000
+39 0 -38 0 *
Ve
1e-007
7986 -18215.8160854919 14601.3956191076
0 0

0101101
*
Ed
 1e-007 1 1 0
1  24 0 9.62986802380965 23.6057947138506
2  13 8 0 9.62986802380965 23.6057947138506
4 G1 14 0 8 0
0

0101000
+36 0 -39 0 *
Ed
 1e-007 1 1 0
1  25 0 10621.7557295473 10623.6310971632
4 C0 14 0 6 0
0

0101000
+38 0 -36 0 *
Wi

0101000
-37 0 -35 0 -34 0 *
Fa
0  1e-007 14 0

0101000
-33 0 *
Ed
 1e-007 1 1 0
1  26 0 -2.4288751490723e-005 -0
2  14 8 0 -2.4288751490723e-005 -0
2  15 9 0 -2.4288751490723e-005 -0
4 C0 8 0 9 0
0

0101000
+72 0 -39 0 *
Ve
1e-007
7986 -18280.0045851609 14625.0005404349
0 0

0101101
*
Ed
 1e-007 1 1 0
1  27 0 9.62986802380965 23.6298680238096
2  16 8 0 9.62986802380965 23.6298680238096
4 G1 8 0 7 0
0

0101000
+30 0 -74 0 *
Ed
 1e-007 1 1 0
1  28 0 4.77209520607607 6.27831782617064
2  17 8 0 4.77209520607607 6.27831782617064
4 C0 8 0 6 0
0

0101000
+36 0 -30 0 *
Wi

0101000
-31 0 -71 0 -29 0 -28 0 +35 0 *
Fa
0  1e-007 8 0

0101000
-27 0 *
Ed
 1e-007 1 1 0
1  29 0 5550.99127069532 5550.99293564057
4 C0 7 0 6 0
0

0101000
+30 0 -56 0 *
Wi

0101000
-73 0 -54 0 -25 0 +29 0 *
Fa
0  1e-007 7 0

0101000
-24 0 *
Ve
7.2650000568702e-005
7985.99999999988 -17956.758159007 14729.680051759
0 0

0101101
*
Ed
 7.2650000568702e-005 1 1 0
1  30 0 0.0240311134641641 0.31311557626361
2  18 9 0 0.0240311134641641 0.31311557626361
4 C0 6 0 9 0
0

0101000
+22 0 -38 0 *
Ve
1e-007
7985.99999999988 -17757.9701429572 15137
0 0

0101101
*
Ve
1e-007
7985.99999999988 -17977.0145321237 14766.5028814674
0 0

0101101
*
Ed
 1e-007 1 1 0
1  31 0 1.57079632679491 3.64451544066267
2  19 10 0 1.57079632679491 3.64451544066267
4 C0 6 0 10 0
0

0101000
+20 0 -19 0 *
Ed
 1e-007 1 1 0
1  32 0 8351.0074642607 9084.97760721789
4 C0 6 0 11 0
0

0101000
+44 0 -20 0 *
Ed
 1e-007 1 1 0
1  33 0 17034 18452.6791827224
4 C0 6 0 5 0
0

0101000
+51 0 -81 0 *
Wi

0101000
-55 0 -25 0 -28 0 -34 0 -21 0 -18 0 -17 0 -42 0 -49 0 +16 0 
-79 0 *
Fa
0  1e-007 6 0

0111000
+15 0 *
Ed
 1.19543237379114e-007 1 1 0
1  34 0 0 0.0141212209138638
2  20 9 0 0 0.0141212209138638
0

0101000
+22 0 -70 0 *
Wi

0101000
+37 0 -21 0 +13 0 -69 0 +31 0 *
Fa
0  1e-007 9 0

0101000
-12 0 *
Wi

0101000
+80 0 +59 0 +48 0 +16 0 *
Fa
0  1e-007 5 0

0101000
+10 0 *
Ed
 1e-007 1 1 0
1  35 0 5007986 5008000
2  21 10 0 5007986 5008000
4 G1 11 0 10 0
0

0101000
+20 0 -67 0 *
Wi

0101000
-43 0 -64 0 -8 0 -17 0 *
Fa
0  1e-007 11 0

0101000
-7 0 *
Ed
 1e-007 1 1 0
1  36 0 5007986 5008000
2  22 10 0 5007986 5008000
0

0101000
+19 0 -68 0 *
Wi

0101000
-18 0 +8 0 -66 0 -5 0 *
Fa
0  1e-007 10 0

0101000
-4 0 *
Sh

0101000
-84 0 -77 0 +57 0 -52 0 -45 0 -40 0 -32 0 -26 0 -23 0 -14 0 
-11 0 +9 0 -6 0 -3 0 *
Co

1100000
+2 0 *

+1 0 