DBRep_DrawableShape

CASCADE Topology V1, (c) Matra-Datavision
Locations 0
Curve2ds 0
Curves 20
1 8788 11932.68163114691 9912.5333158244557 0 -0.96612381673088399 -0.25807900097712194 
1 8767.6274411224567 11847.502267930269 9894.3470917522191 -0.97720747233220151 -0.07023400820724196 0.20033157541749308 
7 0 0  1 2 2  8790.149419132882 11849.148895144501 9889.7374523806957  8773.8505808671143 11847.921614312732 9893.0638630394515 
 0 2 1 2
1 8776 12017.150309680819 9938.1900260662387 -0 0.96503120848353985 0.26213501607530154 
1 8783.9798096818358 12002.938975564048 9932.5379422972801 -0.95889276577297744 0.13203844304236981 0.25117825006794842 
1 8790.149419132882 12003.825233520953 9931.3933404542367 -0.97714690018745287 -0.073577861247990067 0.19942475720989022 
1 8788 11828.622057024659 9948.1999543679358 0 -0.33084538967719651 0.94368497292758891 
7 0 0  1 2 2  8790.149419132882 11751.865700812545 10167.135512166462  8773.8505808671143 11751.865700812545 10167.135512166462 
 0 2 1 2
1 8776 11828.622057024659 9948.1999543679358 0 0.33084538967719651 -0.94368497292758891 
1 8788 11736.7490339666 10135.636964349947 -0 0.43266974448220691 0.90155248999140469 
7 0 0  1 2 2  8790.149419132882 11770.508261746196 10205.980953623581  8773.8505808671143 11770.508261746196 10205.980953623581 
 0 2 1 2
1 8776 11736.7490339666 10135.636964349947 0 -0.43266974448220691 -0.90155248999140469 
1 8788 12007.62861616084 9941.4590995860908 0 -0.46530308786345803 -0.88515142005463177 
1 8776 12007.62861616084 9941.4590995860908 -0 0.46530308786345803 0.88515142005463177 
1 8780.8139501831592 12010.187513532981 9946.3269195120756 -0.99488004181720247 0.047024862489362614 0.089455937207422093 
1 8788 11875.197260236007 10244.571806813068 -0 0.93828140124562287 0.3458728264500559 
1 8784.3847957746766 11901.817280339916 10254.384578952933 -0.99724522821889983 0.069597175804894565 0.025655173252527082 
1 8776 11875.197260236007 10244.571806813068 0 -0.93828140124562287 -0.3458728264500559 
1 8788 11985.295529234052 10015.655939265671 0 0.33108331304671051 -0.94360152597482261 
1 8776 11986.137646897225 10015.951414737281 0 -0.33108331304671051 0.94360152597482261 
Polygon3D 0
PolygonOnTriangulations 0
Surfaces 9
1 8781.9999999999982 11840.661906811814 9889.2974637617135 -0.21169865015519992 0.25222963768657847 -0.94422661019215282 -0.97577597810306194 1.3877787807814457e-017 0.21877212015476927 0.055180812602562079 0.96766740663954232 0.24611962142020202 
1 8788 12024.999999999998 9934.6511862595726 1 0 0 0 0 -1 -0 1 0 
1 8781.9999999999982 11802.896675519243 10021.577600564475 -0 -0.94368497292758891 -0.33084538967719651 0 0.33084538967719651 -0.94368497292758891 1 -0 0 
1 8781.9999999999982 12011.076036899314 9935.1927938990175 -0.21177559328006423 0.25618935345458632 -0.94314267916757855 -0.97570526545191449 0 0.21908727705964351 0.056127827860035902 0.96662661621565193 0.24996530111836152 
1 8776 12024.999999999998 9934.6511862595726 1 0 0 0 0 -1 -0 1 0 
1 8790.149419132882 12006.671522889628 9939.6384100393479 -0 0.88515142005463177 -0.46530308786345803 0 -0.46530308786345803 -0.88515142005463177 -1 -0 0 
1 8781.9999999999982 11761.186981279368 10186.55823289502 0 -0.90155248999140469 0.43266974448220691 0 -0.43266974448220691 -0.90155248999140469 1 0 0 
1 8781.9999999999982 11843.892436214997 10233.032104596554 -0 -0.34587282645005596 0.93828140124562287 1 0 0 -0 0.93828140124562287 0.34587282645005596 
1 8781.9999999999982 11956.057583275653 10100.333102302888 0.074166051449191805 0.94100275856903492 0.33017147844400879 1.0408340855860841e-017 -0.33108331304671057 0.94360152597482261 0.99724590588903195 -0.069983199322984593 -0.024555142029391224 
Triangulations 0

TShapes 56
Ve
1e-007
8788 11848.9870467441 9890.17612479386
0 0

0101101
*
Ve
1e-007
8788 11848.9664876665 9890.17063288266
0 0

0101101
*
Ed
 1e-007 1 1 0
1  1 0 86.6292528487504 86.650532810229
4 C0 1 0 2 0
0

0101000
+56 0 -55 0 *
Ve
1e-007
8781.99999999996 11848.5352547286 9891.40065771008
0 0

0101101
*
Ed
 1e-007 1 1 0
1  2 0 -20.8477313716419 -14.707786508427
4 C0 1 0 3 0
0

0101000
+55 0 -53 0 *
Ed
 1e-007 1 1 0
1  3 0 0.131875603514402 0.5
0

0101000
+56 0 -53 0 *
Wi

0101000
+54 0 +52 0 -51 0 *
Fa
0  1e-007 1 0

0101000
+50 0 *
Ve
1e-007
8776 12002.7598010896 9934.28107869983
0 0

0101101
*
Ve
1e-007
8776 12004.0377862797 9934.6282225698
0 0

0101101
*
Ed
 1e-007 1 1 0
1  4 0 -14.9119618772514 -13.5876677208762
4 C0 4 0 5 0
0

0101000
+48 0 -47 0 *
Ve
1e-007
8782 12003.2115931051 9933.05654578361
0 0

0101101
*
Ed
 1e-007 1 1 0
1  5 0 2.06468309335526 8.32189997325032
4 C0 4 0 6 0
0

0101000
+45 0 -47 0 *
Ed
 1e-007 1 1 0
1  6 0 8.34001431239791 14.4803397832689
0

0101000
+45 0 -48 0 *
Wi

0101000
+46 0 -44 0 +43 0 *
Fa
0  1e-007 4 0

0101000
+42 0 *
Ve
1e-007
8788 11751.8657008125 10167.1355121665
0 0

0101101
*
Ed
 1e-007 1 1 0
1  7 0 -61.4922597583097 232.000682515188
4 C0 3 0 2 0
0

0101000
+55 0 -40 0 *
Ve
1e-007
8776 11751.8657008125 10167.1355121665
0 0

0101101
*
Ed
 1e-007 1 1 0
1  8 0 0.131875603514434 0.868124396485342
4 C0 3 0 7 0
0

0101000
+40 0 -38 0 *
Ve
1e-007
8776 11848.1040217889 9892.63068254259
0 0

0101101
*
Ed
 1e-007 1 1 0
1  9 0 -232.000682515189 58.8854050022165
4 C0 3 0 5 0
0

0101000
+38 0 -36 0 *
Wi

0101000
+39 0 +37 0 +35 0 -52 0 *
Fa
0  1e-007 3 0

0111000
+34 0 *
Ve
1e-007
8788 11770.5082617462 10205.9809536236
0 0

0101101
*
Ed
 1e-007 1 1 0
1  10 0 34.9381185967519 78.0253951428878
4 C0 7 0 2 0
0

0101000
+40 0 -32 0 *
Ve
1e-007
8776 11770.5082617462 10205.9809536236
0 0

0101101
*
Ed
 1e-007 1 1 0
1  11 0 0.131875603514434 0.868124396485342
4 C0 7 0 8 0
0

0101000
+32 0 -30 0 *
Ed
 1e-007 1 1 0
1  12 0 -78.025395142887 -34.9381185967511
4 C0 7 0 5 0
0

0101000
+30 0 -38 0 *
Wi

0101000
+31 0 +29 0 +28 0 -37 0 *
Fa
0  1e-007 7 0

0101000
+27 0 *
Ve
1e-007
8788 12009.847851473 9945.68077646551
0 0

0101101
*
Ve
1e-007
8788 12002.3854158904 9931.48489935823
0 0

0101101
*
Ed
 1e-007 1 1 0
1  13 0 -4.7694403282563 11.2683547717079
4 C0 6 0 2 0
0

0101000
+25 0 -24 0 *
Ve
1e-007
8776 12010.4150538754 9946.75977212466
0 0

0101101
*
Ed
 1e-007 1 1 0
1  14 0 -7.71718472288713 5.98843589748585
4 C0 6 0 5 0
0

0101000
+47 0 -22 0 *
Ed
 1e-007 1 1 0
1  15 0 -7.22303143574478 4.83872424897216
4 C0 6 0 9 0
0

0101000
+25 0 -22 0 *
Wi

0101000
+23 0 +44 0 +21 0 -20 0 *
Fa
0  1e-007 6 0

0111000
+19 0 *
Ve
1e-007
8788 11901.5649772986 10254.2915740549
0 0

0101101
*
Ed
 1e-007 1 1 0
1  16 0 -111.575267665787 28.1021418814916
4 C0 8 0 2 0
0

0101000
+32 0 -17 0 *
Ve
1e-007
8776 11902.4024504557 10254.6002865665
0 0

0101101
*
Ed
 1e-007 1 1 0
1  17 0 -3.6251907986366 8.40795777950431
4 C0 8 0 9 0
0

0101000
+17 0 -15 0 *
Ed
 1e-007 1 1 0
1  18 0 -28.9947026377511 111.575267665789
4 C0 8 0 5 0
0

0101000
+15 0 -30 0 *
Wi

0101000
+16 0 +14 0 +13 0 -29 0 *
Fa
0  1e-007 8 0

0101000
+12 0 *
Ed
 1e-007 1 1 0
1  19 0 -252.898737677134 74.1575345884128
4 C0 9 0 2 0
0

0101000
+17 0 -25 0 *
Ed
 1e-007 1 1 0
1  20 0 -73.3271838884989 252.912765886681
4 C0 9 0 5 0
0

0101000
+22 0 -15 0 *
Wi

0101000
+10 0 +20 0 +9 0 -14 0 *
Fa
0  1e-007 9 0

0101000
+8 0 *
Wi

0101000
-16 0 -31 0 -39 0 -54 0 -23 0 -10 0 *
Fa
0  1e-007 2 0

0111000
+6 0 *
Wi

0101000
+28 0 +35 0 +46 0 +21 0 +9 0 +13 0 *
Fa
0  1e-007 5 0

0111000
+4 0 *
Sh

0101000
+49 0 +41 0 +33 0 +26 0 +18 0 +11 0 +7 0 +5 0 -3 0 *
Co

1100000
+2 0 *

+1 0 