DBRep_DrawableShape

CASCADE Topology V1, (c) Matra-Datavision
Locations 0
Curve2ds 44
1 2.2204460492503131e-15 448.53734132090432 1 1.5399250916918018e-11 
1 3.1415926535897931 448.53734132095269 0 1 
1 6.2831853071795862 458.53734132100834 -1 -1.5399250916918018e-11 
1 3.0234707128954268 458.53734132095269 0 -1 
1 0 448.53734132095269 1 0 
1 4.7123889803846213 448.53734132095451 0 1 
1 6.2831853071795862 458.53734132095997 -1 0 
1 3.1415926535897931 458.53734132095269 0 -1 
1 6.2831853071795862 453.50370449930597 -1 0 
1 1.5707963267949534 453.50370449929869 0 -1 
1 0 443.50370449929869 1 0 
1 3.1415926535897931 443.50370449929687 0 1 
1 6.2831853071795827 453.50370449925759 -1 1.5399250916918193e-11 
1 3.1415926535897931 453.50370449929687 0 -1 
1 0 443.50370449934707 1 -1.5399250916918018e-11 
1 3.2597145942841608 443.50370449929687 -1.3322676295492185e-16 1 
1 2.2204460492503131e-15 448.53811780057657 1 -1.5399250916918018e-11 
1 3.1415926535897931 448.53811780053729 0 1 
1 6.2831853071795862 458.5381178004871 -1 1.5399250916918018e-11 
1 3.0234707128954281 458.53811780053547 0 -1 
1 6.2831853071795862 458.53811780053547 -1 0 
1 3.1415926535897931 458.53811780053729 0 -1 
1 0 448.5381178005282 1 0 
1 4.7123889803846781 448.53811780053547 1.1546319456093227e-15 1 
1 6.2831853071797674 455.7555150700482 -1 1.1580046200242719e-12 
1 1.5707963267948966 455.75551507005366 0 -1 
1 0 445.75551507005184 1 -1.1580046200244058e-12 
1 3.1415926535897931 445.75551507005366 1.8163248682860953e-14 1 
1 0 -358.80633744500301 0 1 
1 0 -348.80633744500301 0 -1 
1 0 -358.80633744500301 1 0 
1 6.2831853071795862 -348.80633744500301 -1 0 
1 0 -381.37971898531578 0 1 
1 0 -371.37971898531578 0 -1 
1 0 -381.37971898531578 1 0 
1 6.2831853071795862 -371.3797189853176 -1 0 
1 0 -399.84518765445318 0 1 
1 0 -389.84518765445318 0 -1 
1 0 -399.84518765445318 1 0 
1 6.2831853071795862 -389.845187654455 -1 0 
1 0 -378.40494786858835 0 1 
1 0 -368.40494786858835 0 -1 
1 0 -378.40494786858835 1 0 
1 6.2831853071795862 -368.40494786858835 -1 0 
Curves 102
2 -629.99996326828546 -11414.000183660317 15858.000000000004 -3.6732051000853976e-06 -0.99999999999325384 -0 -0.99999999999325384 3.6732051000853976e-06 3.9703963817993064e-28 -3.9703963817725207e-28 1.4584080238985819e-33 -1 10
1 -619.99996326835321 -11414.000220392369 15858.000000000004 -3.6732051178490583e-06 -0.99999999999325384 0 
2 -630.00000000033685 -11424.000183660257 15858.000000000004 3.6732051000853976e-06 0.99999999999325384 0 -0.99999999999325384 3.6732051000853976e-06 3.9703963817993064e-28 3.9703963817725207e-28 -1.4584080238985819e-33 1 10
1 -620.06968288564292 -11424.000220136342 15856.821525562314 3.6732051400535188e-06 0.99999999999325384 0 
2 -629.99996326828546 -11414.000183660317 15858.000000000004 -3.6732051000853976e-06 -0.99999999999325384 -0 -0.99999999999325384 3.6732051000853976e-06 3.9703963817993064e-28 -3.9703963817725207e-28 1.4584080238985819e-33 -1 10
1 -629.99996326828477 -11414.000183660319 15868.000000000004 -3.6732051400535188e-06 -0.99999999999325384 0 
2 -630.00000000033685 -11424.000183660257 15858.000000000004 3.6732051000853976e-06 0.99999999999325384 0 -0.99999999999325384 3.6732051000853976e-06 3.9703963817993064e-28 3.9703963817725207e-28 -1.4584080238985819e-33 1 10
1 -620.00000000040438 -11424.000220392301 15858.000000000004 3.6732051178490583e-06 0.99999999999325384 0 
1 -619.99996326835321 -11414.000220392369 15856.821525562314 -0.99999999999325384 3.6731947712218862e-06 0 
1 -620.06964615359152 -11414.00022013641 15856.821525562314 -3.6732051400535188e-06 -0.99999999999325384 0 
1 -620.06968288564292 -11424.000220136342 15856.821525562314 0.99999999999325384 -3.6731947712101815e-06 0 
1 -620.00000000040438 -11424.000220392301 15856.821525562314 3.6732051178490583e-06 0.99999999999325384 0 
2 -629.99996326828546 -11414.000183660317 15858.000000000004 3.6732051000853976e-06 0.99999999999325384 0 -0.99999999999325384 3.6732051000853976e-06 3.9703963817993064e-28 3.9703963817725207e-28 -1.4584080238985819e-33 1 10
1 -620.06964615359152 -11414.00022013641 15856.821525562314 0.99999999999325384 -3.6731947712218862e-06 0 
1 -619.99996326835321 -11414.000220392369 15856.821525562314 4.7186085961383648e-15 0 -1 
1 -619.99996326835264 -11414.000220392369 15739.178474437693 -0.99999999999325384 3.6731947711926246e-06 0 
2 -629.99996326828534 -11414.000183660319 15738.000000000004 3.6732051000853976e-06 0.99999999999325384 0 -0.99999999999325384 3.6732051000853976e-06 -3.9635200177238407e-28 -3.9635200176971012e-28 1.4558821943393773e-33 1 10
1 -629.99996326828477 -11414.000183660319 15728.000000000002 -0.99999999999325384 3.673205100085376e-06 1.7763568394002404e-14 
2 -729.99996326761061 -11413.999816339801 15738.000000000004 3.6732051000853976e-06 0.99999999999325384 0 0.99999999999325384 -3.6732051000853976e-06 -3.9665534079477255e-28 -3.9665534079209654e-28 1.4569964207834696e-33 -1 10
1 -739.93028038230466 -11413.999779863718 15739.178474437693 -0.99999999999325384 3.6731947711984768e-06 0 
1 -739.99996326754342 -11413.999779607759 15739.178474437693 0 0 1 
2 -729.99996326761084 -11413.999816339805 15858.000000000004 3.6732051000853976e-06 0.99999999999325384 0 0.99999999999325384 -3.6732051000853976e-06 -5.1215571252120596e-28 -5.1215571251775083e-28 1.8812529752707642e-33 -1 10
1 -729.99996326761084 -11413.999816339809 15868.000000000002 0.99999999999325384 -3.6732051000853717e-06 1.7763568394002385e-14 
2 -644.99996326818462 -11414.000128562242 15758.000000000004 -3.6732051000853976e-06 -0.99999999999325384 -0 0.99999999999325384 -3.6732051000853976e-06 0 -0 0 1 7
2 -644.99996326818462 -11414.000128562242 15848.000000000004 -3.6732051000853976e-06 -0.99999999999325384 -0 0.99999999999325384 -3.6732051000853976e-06 0 -0 0 1 7
2 -714.99996326771247 -11413.999871437885 15848.000000000004 -3.6732051000853976e-06 -0.99999999999325384 -0 0.99999999999325384 -3.6732051000853976e-06 0 -0 0 1 7
2 -714.99996326771225 -11413.999871437885 15758.000000000004 -3.6732051000853976e-06 -0.99999999999325384 -0 0.99999999999325384 -3.6732051000853976e-06 0 -0 0 1 7
1 -619.99996326835321 -11414.000220392369 15856.821525562314 -3.6732051178490583e-06 -0.99999999999325384 0 
1 -620.00000000040438 -11424.000220392301 15856.821525562314 4.7186085961383648e-15 0 -1 
1 -620.00000000040382 -11424.000220392301 15739.178474437693 3.6732051178490583e-06 0.99999999999325384 0 
1 -619.99996326835264 -11414.000220392369 15739.178474437693 -4.7186085961383648e-15 0 1 
1 -620.00000000040382 -11424.000220392301 15739.178474437693 -0.99999999999325384 3.6731947711809199e-06 0 
1 -620.06968288564292 -11424.000220136342 15739.178474437693 3.6732051400535188e-06 0.99999999999325384 0 
1 -620.06964615359152 -11414.00022013641 15739.178474437693 0.99999999999325384 -3.6731947711926246e-06 0 
1 -619.99996326835264 -11414.000220392369 15739.178474437693 -3.6732051178490583e-06 -0.99999999999325384 0 
2 -630.00000000033674 -11424.000183660259 15738.000000000004 3.6732051000853976e-06 0.99999999999325384 0 -0.99999999999325384 3.6732051000853976e-06 -3.9635200177238407e-28 -3.9635200176971012e-28 1.4558821943393773e-33 1 10
1 -630.00000000033617 -11424.000183660251 15728.000000000004 3.6732051400535188e-06 0.99999999999325384 -1.7763568394002954e-13 
2 -629.99996326828534 -11414.000183660319 15738.000000000004 -3.6732051000853976e-06 -0.99999999999325384 -0 -0.99999999999325384 3.6732051000853976e-06 -3.9635200177238407e-28 3.9635200176971012e-28 -1.4558821943393773e-33 -1 10
1 -619.99996326835264 -11414.000220392369 15738.000000000004 -3.6732051178490583e-06 -0.99999999999325384 0 
2 -630.00000000033674 -11424.000183660259 15738.000000000004 3.6732051000853976e-06 0.99999999999325384 0 -0.99999999999325384 3.6732051000853976e-06 -3.9635200177238407e-28 -3.9635200176971012e-28 1.4558821943393773e-33 1 10
1 -620.00000000040382 -11424.000220392301 15738.000000000004 3.6732051178490583e-06 0.99999999999325384 0 
2 -629.99996326828534 -11414.000183660319 15738.000000000004 -3.6732051000853976e-06 -0.99999999999325384 -0 -0.99999999999325384 3.6732051000853976e-06 -3.9635200177238407e-28 3.9635200176971012e-28 -1.4558821943393773e-33 -1 10
1 -620.06964615359152 -11414.00022013641 15739.178474437693 -3.6732051400535188e-06 -0.99999999999325384 0 
2 -630.00000000033685 -11424.000183660257 15858.000000000004 -3.6732051000853976e-06 -0.99999999999325384 -0 -0.99999999999325384 3.6732051000853976e-06 3.9703963817993064e-28 -3.9703963817725207e-28 1.4584080238985819e-33 -1 10
1 -630.00000000033617 -11424.000183660251 15868.000000000004 -0.99999999999325384 3.673205100085376e-06 -1.7763568394002404e-14 
2 -729.99999999966212 -11423.999816339741 15858.000000000002 -3.6732051000853976e-06 -0.99999999999325384 -0 0.99999999999325384 -3.6732051000853976e-06 -5.1215571252120596e-28 5.1215571251775083e-28 -1.8812529752707642e-33 1 10
1 -739.99999999959459 -11423.999779607691 15858.000000000002 0 0 -1 
1 -739.99999999959459 -11423.999779607691 15739.178474437693 0.99999999999325384 -3.6731947712101815e-06 0 
2 -729.99999999966201 -11423.999816339741 15738.000000000004 -3.6732051000853976e-06 -0.99999999999325384 -0 0.99999999999325384 -3.6732051000853976e-06 -3.9665534079477255e-28 3.9665534079209654e-28 -1.4569964207834696e-33 1 10
1 -729.99999999966201 -11423.999816339741 15728.000000000002 0.99999999999325384 -3.6732051000853802e-06 1.7763568394002423e-14 
2 -630.00000000033674 -11424.000183660259 15738.000000000004 -3.6732051000853976e-06 -0.99999999999325384 -0 -0.99999999999325384 3.6732051000853976e-06 -3.9635200177238407e-28 3.9635200176971012e-28 -1.4558821943393773e-33 -1 10
1 -620.06968288564292 -11424.000220136342 15739.178474437693 0.99999999999325384 -3.6731947711809199e-06 0 
1 -620.00000000040382 -11424.000220392301 15739.178474437693 -4.7186085961383648e-15 0 1 
1 -620.00000000040438 -11424.000220392301 15856.821525562314 -0.99999999999325384 3.6731947712101815e-06 0 
2 -714.9999999997633 -11423.999871437818 15758.000000000004 3.6732051000853976e-06 0.99999999999325384 0 0.99999999999325384 -3.6732051000853976e-06 0 0 0 -1 7
2 -645.00000000023556 -11424.000128562173 15758.000000000004 3.6732051000853976e-06 0.99999999999325384 0 0.99999999999325384 -3.6732051000853976e-06 0 0 0 -1 7
2 -645.00000000023556 -11424.000128562173 15848.000000000004 3.6732051000853976e-06 0.99999999999325384 0 0.99999999999325384 -3.6732051000853976e-06 0 0 0 -1 7
2 -714.99999999976342 -11423.999871437818 15848.000000000004 3.6732051000853976e-06 0.99999999999325384 0 0.99999999999325384 -3.6732051000853976e-06 0 0 0 -1 7
1 -739.99996326754342 -11413.999779607759 15739.178474437693 0.99999999999325384 -3.6731947711984768e-06 0 
1 -739.93028038230466 -11413.999779863718 15739.178474437693 -3.6732051400535188e-06 -0.99999999999325384 0 
1 -739.93031711435606 -11423.999779863649 15739.178474437693 -0.99999999999325384 3.6731947712101815e-06 0 
1 -739.99999999959459 -11423.999779607691 15739.178474437693 3.6732051178490583e-06 0.99999999999325384 0 
2 -729.99996326761061 -11413.999816339801 15738.000000000004 -3.6732051000853976e-06 -0.99999999999325384 -0 0.99999999999325384 -3.6732051000853976e-06 -3.9665534079477255e-28 3.9665534079209654e-28 -1.4569964207834696e-33 1 10
1 -739.99996326754342 -11413.999779607759 15738.000000000004 -3.6732051178490583e-06 -0.99999999999325384 0 
2 -729.99999999966201 -11423.999816339741 15738.000000000004 3.6732051000853976e-06 0.99999999999325384 0 0.99999999999325384 -3.6732051000853976e-06 -3.9665534079477255e-28 -3.9665534079209654e-28 1.4569964207834696e-33 -1 10
1 -739.93031711435606 -11423.999779863649 15739.178474437693 3.6732051400535188e-06 0.99999999999325384 0 
2 -729.99999999966201 -11423.999816339741 15738.000000000004 3.6732051000853976e-06 0.99999999999325384 0 0.99999999999325384 -3.6732051000853976e-06 -3.9665534079477255e-28 -3.9665534079209654e-28 1.4569964207834696e-33 -1 10
1 -739.99999999959459 -11423.999779607691 15738.000000000004 3.6732051178490583e-06 0.99999999999325384 0 
2 -729.99996326761061 -11413.999816339801 15738.000000000004 -3.6732051000853976e-06 -0.99999999999325384 -0 0.99999999999325384 -3.6732051000853976e-06 -3.9665534079477255e-28 3.9665534079209654e-28 -1.4569964207834696e-33 1 10
1 -729.99996326761072 -11413.999816339809 15728.000000000004 -3.6732051289512885e-06 -0.99999999999325384 -1.7763568394002954e-13 
1 -629.99996326828477 -11414.000183660319 15728.000000000002 -3.6732051400535188e-06 -0.99999999999325384 1.7763568394002954e-13 
1 -630.00000000033617 -11424.000183660251 15728.000000000004 -0.99999999999325384 3.6732051000853802e-06 -1.7763568394002423e-14 
1 -729.99999999966201 -11423.999816339741 15728.000000000002 3.6732051289512885e-06 0.99999999999325384 1.7763568394002954e-13 
1 -729.99996326761072 -11413.999816339809 15728.000000000004 0.99999999999325384 -3.673205100085376e-06 -1.7763568394002404e-14 
1 -739.99996326754342 -11413.999779607759 15739.178474437693 -3.6732051178490583e-06 -0.99999999999325384 0 
1 -739.99999999959459 -11423.999779607691 15739.178474437693 0 0 1 
1 -739.99999999959459 -11423.999779607691 15858.000000000002 3.6732051178490583e-06 0.99999999999325384 1.7763568394002954e-13 
1 -739.99996326754342 -11413.999779607759 15858.000000000004 0 0 -1 
2 -729.99999999966212 -11423.999816339741 15858.000000000002 3.6732051000853976e-06 0.99999999999325384 0 0.99999999999325384 -3.6732051000853976e-06 -5.1215571252120596e-28 -5.1215571251775083e-28 1.8812529752707642e-33 -1 10
1 -729.99999999966212 -11423.999816339741 15868.000000000002 3.6732051289512885e-06 0.99999999999325384 0 
2 -729.99996326761084 -11413.999816339805 15858.000000000004 -3.6732051000853976e-06 -0.99999999999325384 -0 0.99999999999325384 -3.6732051000853976e-06 -5.1215571252120596e-28 5.1215571251775083e-28 -1.8812529752707642e-33 1 10
1 -739.99996326754342 -11413.999779607759 15858.000000000004 -3.6732051178490583e-06 -0.99999999999325384 -1.7763568394002954e-13 
1 -707.99996326775943 -11413.999897150321 15758.000000000004 -3.673205106746828e-06 -0.99999999999325384 0 
1 -707.99999999981048 -11423.999897150254 15758.000000000004 3.673205106746828e-06 0.99999999999325384 0 
2 -714.99996326771225 -11413.999871437885 15758.000000000004 3.6732051000853976e-06 0.99999999999325384 0 0.99999999999325384 -3.6732051000853976e-06 0 0 0 -1 7
2 -714.9999999997633 -11423.999871437818 15758.000000000004 -3.6732051000853976e-06 -0.99999999999325384 -0 0.99999999999325384 -3.6732051000853976e-06 0 -0 0 1 7
1 -637.9999632682318 -11414.000154274678 15758.000000000004 -3.6732050956445978e-06 -0.99999999999325384 0 
1 -638.00000000028274 -11424.00015427461 15758.000000000004 3.6732050956445978e-06 0.99999999999325384 0 
2 -644.99996326818462 -11414.000128562242 15758.000000000004 3.6732051000853976e-06 0.99999999999325384 0 0.99999999999325384 -3.6732051000853976e-06 0 0 0 -1 7
2 -645.00000000023556 -11424.000128562173 15758.000000000004 -3.6732051000853976e-06 -0.99999999999325384 -0 0.99999999999325384 -3.6732051000853976e-06 0 -0 0 1 7
1 -637.9999632682318 -11414.000154274678 15848.000000000004 -3.6732050956445978e-06 -0.99999999999325384 0 
1 -638.00000000028274 -11424.00015427461 15848.000000000004 3.6732050956445978e-06 0.99999999999325384 0 
2 -644.99996326818462 -11414.000128562242 15848.000000000004 3.6732051000853976e-06 0.99999999999325384 0 0.99999999999325384 -3.6732051000853976e-06 0 0 0 -1 7
2 -645.00000000023556 -11424.000128562173 15848.000000000004 -3.6732051000853976e-06 -0.99999999999325384 -0 0.99999999999325384 -3.6732051000853976e-06 0 -0 0 1 7
1 -707.99996326775965 -11413.999897150321 15848.000000000004 -3.6732050956445978e-06 -0.99999999999325384 0 
1 -707.9999999998106 -11423.999897150254 15848.000000000004 3.6732050956445978e-06 0.99999999999325384 0 
2 -714.99996326771247 -11413.999871437885 15848.000000000004 3.6732051000853976e-06 0.99999999999325384 0 0.99999999999325384 -3.6732051000853976e-06 0 0 0 -1 7
2 -714.99999999976342 -11423.999871437818 15848.000000000004 -3.6732051000853976e-06 -0.99999999999325384 -0 0.99999999999325384 -3.6732051000853976e-06 0 -0 0 1 7
1 -630.00000000033617 -11424.000183660251 15868.000000000004 3.6732051400535188e-06 0.99999999999325384 0 
1 -629.99996326828477 -11414.000183660319 15868.000000000004 -0.99999999999325384 3.6732051000853717e-06 -1.7763568394002385e-14 
1 -729.99996326761084 -11413.999816339809 15868.000000000002 -3.6732051289512885e-06 -0.99999999999325384 0 
1 -729.99999999966212 -11423.999816339741 15868.000000000002 0.99999999999325384 -3.673205100085376e-06 1.7763568394002404e-14 
Polygon3D 0
PolygonOnTriangulations 0
Surfaces 20
2 -629.99831569861681 -10965.462842342389 15858.000000000007 -3.6732051421786342e-06 -0.99999999999325384 -8.7163000474325339e-15 -0.99999999999325384 3.6732051421786342e-06 3.9703963629531989e-28 3.2016757757961415e-20 8.7163000473737306e-15 -1 10
2 -629.99831569861681 -10965.462842342389 15858.000000000007 -3.6732051421786342e-06 -0.99999999999325384 -8.7163000474325339e-15 -0.99999999999325384 3.6732051421786342e-06 3.9703963629531989e-28 3.2016757757961415e-20 8.7163000473737306e-15 -1 10
1 -609.2588892008921 -10965.462918522642 15856.821525562318 3.2016758399043308e-20 8.7163000473737306e-15 -1 0.99999999999325384 -3.673205170177011e-06 0 3.673205170177011e-06 0.99999999999325384 8.7163000474325323e-15 
1 -604.99996326845508 -11414.000275490445 15868.000000000002 3.6732051000853976e-06 0.99999999999325384 0 0 -0 1 0.99999999999325384 -3.6732051000853976e-06 -0 
1 -620.00179052745864 -11911.456542843516 15884.256424890949 -0.99999999999325384 3.6732051092555469e-06 -5.0037540639612873e-15 -5.0037540639950434e-15 0 1 -3.6732051092555469e-06 -0.99999999999325384 -1.8379814993324801e-20 
1 -620.0680170735036 -10970.496515640005 15739.178474437689 3.2378364618125127e-20 8.8147443765975074e-15 1 -0.99999999999325384 3.673205170177011e-06 0 3.673205170177011e-06 0.99999999999325384 -8.8147443766569733e-15 
2 -629.99833418819742 -10970.496479164012 15738 -3.6732051421008436e-06 -0.99999999999325384 8.8147443766569733e-15 -0.99999999999325384 3.6732051421008436e-06 -3.9635200106426966e-28 -3.2378363974288884e-20 -8.8147443765975058e-15 -1 10
2 -629.99833418819742 -10970.496479164012 15738 -3.6732051421008436e-06 -0.99999999999325384 8.8147443766569733e-15 -0.99999999999325384 3.6732051421008436e-06 -3.9635200106426966e-28 -3.2378363974288884e-20 -8.8147443765975058e-15 -1 10
1 -754.99999999949421 -11423.999724509613 15868.000000000002 -3.6732051000853976e-06 -0.99999999999325384 -0 0 0 -1 0.99999999999325384 -3.6732051000853976e-06 0 
1 -750.73774219281404 -10965.461622362189 15739.178474437696 -3.2016726308426933e-20 -8.7162917009320328e-15 1 -0.99999999999325384 3.6732050058383658e-06 0 3.6732050058383658e-06 0.99999999999325384 8.7162917009908345e-15 
2 -729.9983156950899 -10965.461698542298 15738.000000000007 -3.6732051421345182e-06 -0.99999999999325384 -8.7162917009908345e-15 0.99999999999325384 -3.6732051421345182e-06 -3.966553470675728e-28 -3.2016727099768604e-20 -8.7162917009320312e-15 1 10
2 -729.9983156950899 -10965.461698542298 15738.000000000007 -3.6732051421345182e-06 -0.99999999999325384 -8.7162917009908345e-15 0.99999999999325384 -3.6732051421345182e-06 -3.966553470675728e-28 -3.2016727099768604e-20 -8.7162917009320312e-15 1 10
1 -679.9999816339747 -11419.000000000029 15728.000000000005 1.5505969137614059e-28 1.8838482079757004e-25 1 1 0 -1.5505969137614059e-28 2.921089217282076e-53 -1 1.8838482079757004e-25 
1 -739.99805758285936 -10895.192736430783 15884.256424890951 0.99999999999325384 -3.6732051139157579e-06 0 0 0 1 3.6732051139157579e-06 0.99999999999325384 -0 
2 -729.99832591616689 -10968.244301272762 15858.000000000011 -3.6732051283989942e-06 -0.99999999999325384 -1.7540876708216005e-14 0.99999999999325384 -3.6732051283989942e-06 -5.1215571305959506e-28 -6.4431237769077774e-20 -1.754087670809767e-14 1 10
10 0 6.2831853071795862 -358.80633744500318 -348.80633744500284
2 -715.00128123698096 -11772.806208880465 15758.000000000004 -3.673205100167215e-06 -0.99999999999325384 -0 0.99999999999325384 -3.673205100167215e-06 0 0 0 -1 7
10 0 6.2831853071795862 -381.37971898531595 -371.37971898531561
2 -645.0013641541135 -11795.379847544984 15758.000000000004 -3.6732051000731617e-06 -0.99999999999325384 -0 0.99999999999325384 -3.6732051000731617e-06 0 0 0 -1 7
10 0 6.2831853071795862 -399.84518765445335 -389.84518765445301
2 -645.00143198156707 -11813.845316213996 15848.000000000004 -3.6732051000213178e-06 -0.99999999999325384 -0 0.99999999999325384 -3.6732051000213178e-06 0 0 0 -1 7
10 0 6.2831853071795862 -378.40494786858852 -368.40494786858818
2 -715.00135322669678 -11792.40481930392 15848.000000000004 -3.6732051000417038e-06 -0.99999999999325384 -0 0.99999999999325384 -3.6732051000417038e-06 0 0 0 -1 7
1 -679.9999816339747 -11419.000000000029 15867.999999999995 -1.5505969137614059e-28 -1.8838482079757004e-25 1 1 0 1.5505969137614059e-28 -2.921089217282076e-53 1 1.8838482079757004e-25 
Triangulations 0

TShapes 298
Ve
1e-07
-620.069646153592 -11414.0002201364 15856.8215255623
0 0

0101101
*
Ve
1e-07
-619.999963268353 -11414.0002203924 15858
0 0

0101101
*
Ed
 1e-07 1 1 0
1  1 0 3.02347071289542 3.14159265358979
2  1 1 0 3.02347071289542 3.14159265358979
0

0101000
+298 0 -297 0 *
Ve
1e-07
-620.000000000404 -11424.0002203923 15858
0 0

0101101
*
Ed
 1e-07 1 1 0
1  2 0 -8.35190148302231e-19 10.0000000000002
2  2 1 0 -8.35190148302231e-19 10.0000000000002
0

0101000
+297 0 -295 0 *
Ve
1e-07
-620.069682885643 -11424.0002201363 15856.8215255623
0 0

0101101
*
Ed
 1e-07 1 1 0
1  3 0 3.14159265358979 3.25971459428416
2  3 1 0 3.14159265358979 3.25971459428416
0

0101000
+295 0 -293 0 *
Ed
 1e-07 1 1 0
1  4 0 -5.45696904579091e-12 10.000000000002
2  4 1 0 -5.45696904579091e-12 10.000000000002
0

0101000
+293 0 -298 0 *
Wi

0101000
+296 0 +294 0 +292 0 +291 0 *
Fa
0  1e-07 1 0

0111000
+290 0 *
Sh

0101000
+289 0 *
Ve
1e-07
-619.999963268353 -11414.0002203924 15858
0 0

0101101
*
Ve
1e-07
-629.999963268285 -11414.0001836603 15868
0 0

0101101
*
Ed
 1e-07 1 1 0
1  5 0 3.14159265358979 4.71238898038462
2  5 2 0 3.14159265358979 4.71238898038462
0

0101000
+287 0 -286 0 *
Ve
1e-07
-630.000000000336 -11424.0001836603 15868
0 0

0101101
*
Ed
 1e-07 1 1 0
1  6 0 -1.81898940353359e-12 10.0000000000002
2  6 2 0 -1.81898940353359e-12 10.0000000000002
0

0101000
+286 0 -284 0 *
Ve
1e-07
-620.000000000404 -11424.0002203923 15858
0 0

0101101
*
Ed
 1e-07 1 1 0
1  7 0 1.57079632679496 3.14159265358979
2  7 2 0 1.57079632679496 3.14159265358979
0

0101000
+284 0 -282 0 *
Ed
 1e-07 1 1 0
1  8 0 -7.27595761413434e-12 10.0000000000002
2  8 2 0 -7.27595761413434e-12 10.0000000000002
0

0101000
+282 0 -287 0 *
Wi

0101000
+285 0 +283 0 +281 0 +280 0 *
Fa
0  1e-07 2 0

0111000
+279 0 *
Sh

0101000
+278 0 *
Ve
1e-07
-619.999963268353 -11414.0002203924 15856.8215255623
0 0

0101101
*
Ve
1e-07
-620.069646153592 -11414.0002201364 15856.8215255623
0 0

0101101
*
Ed
 1e-07 1 1 0
1  9 0 0 0.0696828852387779
0

0101000
+276 0 -275 0 *
Ve
1e-07
-620.069682885643 -11424.0002201363 15856.8215255623
0 0

0101101
*
Ed
 1e-07 1 1 0
1  10 0 0 10.0000000000002
0

0101000
+275 0 -273 0 *
Ve
1e-07
-620.000000000404 -11424.0002203923 15856.8215255623
0 0

0101101
*
Ed
 1e-07 1 1 0
1  11 0 0 0.0696828852390053
0

0101000
+273 0 -271 0 *
Ed
 1e-07 1 1 0
1  12 0 0 10.0000000000002
0

0101000
+271 0 -276 0 *
Wi

0101000
+274 0 +272 0 +270 0 +269 0 *
Fa
0  1e-07 3 0

0111000
+268 0 *
Sh

0101000
+267 0 *
Ve
1e-07
-629.999963268285 -11414.0001836603 15868
0 0

0101101
*
Ve
1e-07
-620.069646153592 -11414.0002201364 15856.8215255623
0 0

0101101
*
Ed
 1e-07 1 1 0
1  13 0 1.57079632679496 3.25971459428416
0

0101000
+265 0 -264 0 *
Ve
1e-07
-619.999963268353 -11414.0002203924 15856.8215255623
0 0

0101101
*
Ed
 1e-07 1 1 0
1  14 0 -2.27380356944064e-13 0.0696828852387779
0

0101000
+264 0 -262 0 *
Ve
1e-07
-619.999963268353 -11414.0002203924 15739.1784744377
0 0

0101101
*
Ed
 1e-07 1 1 0
1  15 0 0 117.643051124622
0

0101000
+262 0 -260 0 *
Ve
1e-07
-620.069646153592 -11414.0002201364 15739.1784744377
0 0

0101101
*
Ed
 1e-07 1 1 0
1  16 0 0 0.0696828852393463
0

0101000
+260 0 -258 0 *
Ve
1e-07
-629.999963268285 -11414.0001836603 15728
0 0

0101101
*
Ed
 1e-07 1 1 0
1  17 0 3.02347071289543 4.71238898038463
0

0101000
+258 0 -256 0 *
Ve
1e-07
-729.999963267611 -11413.9998163398 15728
0 0

0101101
*
Ed
 1e-07 1 1 0
1  18 0 3.23117426778525e-26 100.000000000001
0

0101000
+256 0 -254 0 *
Ve
1e-07
-739.930280382304 -11413.9997798637 15739.1784744377
0 0

0101101
*
Ed
 1e-07 1 1 0
1  19 0 1.57079632679491 3.25971459428416
0

0101000
+254 0 -252 0 *
Ve
1e-07
-739.999963267543 -11413.9997796078 15739.1784744377
0 0

0101101
*
Ed
 1e-07 1 1 0
1  20 0 -3.41033787153083e-13 0.0696828852392326
0

0101000
+252 0 -250 0 *
Ve
1e-07
-739.999963267543 -11413.9997796078 15858
0 0

0101101
*
Ed
 1e-07 1 1 0
1  21 0 0 118.821525562311
0

0101000
+250 0 -248 0 *
Ve
1e-07
-729.999963267611 -11413.9998163398 15868
0 0

0101101
*
Ed
 1e-07 1 1 0
1  22 0 3.14159265358979 4.71238898038469
0

0101000
+248 0 -246 0 *
Ed
 1e-07 1 1 0
1  23 0 -1.33630422759e-17 100.000000000001
0

0101000
+246 0 -265 0 *
Wi

0101000
+263 0 +261 0 +259 0 +257 0 +255 0 +253 0 +251 0 +249 0 +247 0 +245 0 
+244 0 *
Ve
1e-07
-637.999963268232 -11414.0001542747 15758
0 0

0101101
*
Ed
 1e-07 1 1 0
1  24 0 0 6.28318530717959
0

0101000
+242 0 -242 0 *
Wi

0101000
+241 0 *
Ve
1e-07
-637.999963268232 -11414.0001542747 15848
0 0

0101101
*
Ed
 1e-07 1 1 0
1  25 0 0 6.28318530717959
0

0101000
+239 0 -239 0 *
Wi

0101000
+238 0 *
Ve
1e-07
-707.99996326776 -11413.9998971503 15848
0 0

0101101
*
Ed
 1e-07 1 1 0
1  26 0 0 6.28318530717959
0

0101000
+236 0 -236 0 *
Wi

0101000
+235 0 *
Ve
1e-07
-707.999963267759 -11413.9998971503 15758
0 0

0101101
*
Ed
 1e-07 1 1 0
1  27 0 0 6.28318530717959
0

0101000
+233 0 -233 0 *
Wi

0101000
+232 0 *
Fa
0  1e-07 4 0

0111000
+243 0 +240 0 +237 0 +234 0 +231 0 *
Sh

0101000
+230 0 *
Ve
1e-07
-619.999963268353 -11414.0002203924 15856.8215255623
0 0

0101101
*
Ve
1e-07
-620.000000000404 -11424.0002203923 15856.8215255623
0 0

0101101
*
Ed
 1e-07 1 1 0
1  28 0 0 10.0000000000002
0

0101000
+228 0 -227 0 *
Ve
1e-07
-620.000000000404 -11424.0002203923 15739.1784744377
0 0

0101101
*
Ed
 1e-07 1 1 0
1  29 0 0 117.643051124622
0

0101000
+227 0 -225 0 *
Ve
1e-07
-619.999963268353 -11414.0002203924 15739.1784744377
0 0

0101101
*
Ed
 1e-07 1 1 0
1  30 0 0 10.0000000000002
0

0101000
+225 0 -223 0 *
Ed
 1e-07 1 1 0
1  31 0 0 117.643051124622
0

0101000
+223 0 -228 0 *
Wi

0101000
+226 0 +224 0 +222 0 +221 0 *
Fa
0  1e-07 5 0

0111000
+220 0 *
Sh

0101000
+219 0 *
Ve
1e-07
-620.000000000404 -11424.0002203923 15739.1784744377
0 0

0101101
*
Ve
1e-07
-620.069682885643 -11424.0002201363 15739.1784744377
0 0

0101101
*
Ed
 1e-07 1 1 0
1  32 0 0 0.0696828852395737
0

0101000
+217 0 -216 0 *
Ve
1e-07
-620.069646153592 -11414.0002201364 15739.1784744377
0 0

0101101
*
Ed
 1e-07 1 1 0
1  33 0 0 10.0000000000002
0

0101000
+216 0 -214 0 *
Ve
1e-07
-619.999963268353 -11414.0002203924 15739.1784744377
0 0

0101101
*
Ed
 1e-07 1 1 0
1  34 0 0 0.0696828852393463
0

0101000
+214 0 -212 0 *
Ed
 1e-07 1 1 0
1  35 0 0 10.0000000000002
0

0101000
+212 0 -217 0 *
Wi

0101000
+215 0 +213 0 +211 0 +210 0 *
Fa
0  1e-07 6 0

0111000
+209 0 *
Sh

0101000
+208 0 *
Ve
1e-07
-620.000000000404 -11424.0002203923 15738
0 0

0101101
*
Ve
1e-07
-630.000000000336 -11424.0001836603 15728
0 0

0101101
*
Ed
 1e-07 1 1 0
1  36 0 3.14159265358979 4.71238898038463
2  9 7 0 3.14159265358979 4.71238898038463
0

0101000
+206 0 -205 0 *
Ve
1e-07
-629.999963268285 -11414.0001836603 15728
0 0

0101101
*
Ed
 1e-07 1 1 0
1  37 0 -7.27595761413434e-12 10.0000000000002
2  10 7 0 -7.27595761413434e-12 10.0000000000002
0

0101000
+205 0 -203 0 *
Ve
1e-07
-619.999963268353 -11414.0002203924 15738
0 0

0101101
*
Ed
 1e-07 1 1 0
1  38 0 1.57079632679495 3.14159265358979
2  11 7 0 1.57079632679495 3.14159265358979
0

0101000
+203 0 -201 0 *
Ed
 1e-07 1 1 0
1  39 0 1.81899023872373e-12 10.0000000000093
2  12 7 0 1.81899023872373e-12 10.0000000000093
0

0101000
+201 0 -206 0 *
Wi

0101000
+204 0 +202 0 +200 0 +199 0 *
Fa
0  1e-07 7 0

0111000
+198 0 *
Sh

0101000
+197 0 *
Ve
1e-07
-620.069682885643 -11424.0002201363 15739.1784744377
0 0

0101101
*
Ve
1e-07
-620.000000000404 -11424.0002203923 15738
0 0

0101101
*
Ed
 1e-07 1 1 0
1  40 0 3.02347071289542 3.14159265358979
2  13 8 0 3.02347071289542 3.14159265358979
0

0101000
+195 0 -194 0 *
Ve
1e-07
-619.999963268353 -11414.0002203924 15738
0 0

0101101
*
Ed
 1e-07 1 1 0
1  41 0 -9.09494868804822e-12 10.0000000000002
2  14 8 0 -9.09494868804822e-12 10.0000000000002
0

0101000
+194 0 -192 0 *
Ve
1e-07
-620.069646153592 -11414.0002201364 15739.1784744377
0 0

0101101
*
Ed
 1e-07 1 1 0
1  42 0 3.14159265358979 3.25971459428416
2  15 8 0 3.14159265358979 3.25971459428416
0

0101000
+192 0 -190 0 *
Ed
 1e-07 1 1 0
1  43 0 4.1759507667547e-19 10.0000000000074
2  16 8 0 4.1759507667547e-19 10.0000000000074
0

0101000
+190 0 -195 0 *
Wi

0101000
+193 0 +191 0 +189 0 +188 0 *
Fa
0  1e-07 8 0

0111000
+187 0 *
Sh

0101000
+186 0 *
Ve
1e-07
-620.069682885643 -11424.0002201363 15856.8215255623
0 0

0101101
*
Ve
1e-07
-630.000000000336 -11424.0001836603 15868
0 0

0101101
*
Ed
 1e-07 1 1 0
1  44 0 3.02347071289543 4.71238898038462
0

0101000
+184 0 -183 0 *
Ve
1e-07
-729.999999999662 -11423.9998163397 15868
0 0

0101101
*
Ed
 1e-07 1 1 0
1  45 0 -2.00445634623177e-17 100.000000000001
0

0101000
+183 0 -181 0 *
Ve
1e-07
-739.999999999595 -11423.9997796077 15858
0 0

0101101
*
Ed
 1e-07 1 1 0
1  46 0 1.5707963267949 3.14159265358979
0

0101000
+181 0 -179 0 *
Ve
1e-07
-739.999999999595 -11423.9997796077 15739.1784744377
0 0

0101101
*
Ed
 1e-07 1 1 0
1  47 0 0 118.821525562309
0

0101000
+179 0 -177 0 *
Ve
1e-07
-739.930317114356 -11423.9997798636 15739.1784744377
0 0

0101101
*
Ed
 1e-07 1 1 0
1  48 0 0 0.0696828852390052
0

0101000
+177 0 -175 0 *
Ve
1e-07
-729.999999999662 -11423.9998163397 15728
0 0

0101101
*
Ed
 1e-07 1 1 0
1  49 0 3.02347071289543 4.71238898038469
0

0101000
+175 0 -173 0 *
Ve
1e-07
-630.000000000336 -11424.0001836603 15728
0 0

0101101
*
Ed
 1e-07 1 1 0
1  50 0 3.23117426778525e-26 100
0

0101000
+173 0 -171 0 *
Ve
1e-07
-620.069682885643 -11424.0002201363 15739.1784744377
0 0

0101101
*
Ed
 1e-07 1 1 0
1  51 0 1.57079632679495 3.25971459428416
0

0101000
+171 0 -169 0 *
Ve
1e-07
-620.000000000404 -11424.0002203923 15739.1784744377
0 0

0101101
*
Ed
 1e-07 1 1 0
1  52 0 -1.13660111711385e-13 0.0696828852395737
0

0101000
+169 0 -167 0 *
Ve
1e-07
-620.000000000404 -11424.0002203923 15856.8215255623
0 0

0101101
*
Ed
 1e-07 1 1 0
1  53 0 0 117.643051124622
0

0101000
+167 0 -165 0 *
Ed
 1e-07 1 1 0
1  54 0 0 0.0696828852390053
0

0101000
+165 0 -184 0 *
Wi

0101000
+182 0 +180 0 +178 0 +176 0 +174 0 +172 0 +170 0 +168 0 +166 0 +164 0 
+163 0 *
Ve
1e-07
-707.99999999981 -11423.9998971503 15758
0 0

0101101
*
Ed
 1e-07 1 1 0
1  55 0 0 6.28318530717959
0

0101000
+161 0 -161 0 *
Wi

0101000
+160 0 *
Ve
1e-07
-638.000000000283 -11424.0001542746 15758
0 0

0101101
*
Ed
 1e-07 1 1 0
1  56 0 0 6.28318530717959
0

0101000
+158 0 -158 0 *
Wi

0101000
+157 0 *
Ve
1e-07
-638.000000000283 -11424.0001542746 15848
0 0

0101101
*
Ed
 1e-07 1 1 0
1  57 0 0 6.28318530717959
0

0101000
+155 0 -155 0 *
Wi

0101000
+154 0 *
Ve
1e-07
-707.999999999811 -11423.9998971503 15848
0 0

0101101
*
Ed
 1e-07 1 1 0
1  58 0 0 6.28318530717959
0

0101000
+152 0 -152 0 *
Wi

0101000
+151 0 *
Fa
0  1e-07 9 0

0111000
+162 0 +159 0 +156 0 +153 0 +150 0 *
Sh

0101000
+149 0 *
Ve
1e-07
-739.999963267543 -11413.9997796078 15739.1784744377
0 0

0101101
*
Ve
1e-07
-739.930280382305 -11413.9997798637 15739.1784744377
0 0

0101101
*
Ed
 1e-07 1 1 0
1  59 0 0 0.0696828852392326
0

0101000
+147 0 -146 0 *
Ve
1e-07
-739.930317114356 -11423.9997798636 15739.1784744377
0 0

0101101
*
Ed
 1e-07 1 1 0
1  60 0 0 9.99999999999834
0

0101000
+146 0 -144 0 *
Ve
1e-07
-739.999999999595 -11423.9997796077 15739.1784744377
0 0

0101101
*
Ed
 1e-07 1 1 0
1  61 0 0 0.0696828852390052
0

0101000
+144 0 -142 0 *
Ed
 1e-07 1 1 0
1  62 0 0 10.0000000000002
0

0101000
+142 0 -147 0 *
Wi

0101000
+145 0 +143 0 +141 0 +140 0 *
Fa
0  1e-07 10 0

0111000
+139 0 *
Sh

0101000
+138 0 *
Ve
1e-07
-739.930280382304 -11413.9997798637 15739.1784744377
0 0

0101101
*
Ve
1e-07
-739.999963267543 -11413.9997796077 15738
0 0

0101101
*
Ed
 1e-07 1 1 0
1  63 0 3.02347071289542 3.14159265358979
2  17 11 0 3.02347071289542 3.14159265358979
0

0101000
+136 0 -135 0 *
Ve
1e-07
-739.999999999595 -11423.9997796077 15738
0 0

0101101
*
Ed
 1e-07 1 1 0
1  64 0 -9.09494827045315e-12 10.0000000000002
2  18 11 0 -9.09494827045315e-12 10.0000000000002
0

0101000
+135 0 -133 0 *
Ve
1e-07
-739.930317114356 -11423.9997798636 15739.1784744377
0 0

0101101
*
Ed
 1e-07 1 1 0
1  65 0 3.14159265358979 3.25971459428416
2  19 11 0 3.14159265358979 3.25971459428416
0

0101000
+133 0 -131 0 *
Ed
 1e-07 1 1 0
1  66 0 1.25278523002641e-18 10.0000000000056
2  20 11 0 1.25278523002641e-18 10.0000000000056
0

0101000
+131 0 -136 0 *
Wi

0101000
+134 0 +132 0 +130 0 +129 0 *
Fa
0  1e-07 11 0

0111000
+128 0 *
Sh

0101000
+127 0 *
Ve
1e-07
-729.999999999662 -11423.9998163397 15728
0 0

0101101
*
Ve
1e-07
-739.999999999595 -11423.9997796077 15738
0 0

0101101
*
Ed
 1e-07 1 1 0
1  67 0 1.5707963267949 3.14159265358979
2  21 12 0 1.5707963267949 3.14159265358979
0

0101000
+125 0 -124 0 *
Ve
1e-07
-739.999963267543 -11413.9997796078 15738
0 0

0101101
*
Ed
 1e-07 1 1 0
1  68 0 1.81898940353359e-12 10.0000000000002
2  22 12 0 1.81898940353359e-12 10.0000000000002
0

0101000
+124 0 -122 0 *
Ve
1e-07
-729.999963267611 -11413.9998163398 15728
0 0

0101101
*
Ed
 1e-07 1 1 0
1  69 0 3.14159265358979 4.71238898038468
2  23 12 0 3.14159265358979 4.71238898038468
0

0101000
+122 0 -120 0 *
Ed
 1e-07 1 1 0
1  70 0 -7.27595761413434e-12 10.0000000000002
2  24 12 0 -7.27595761413434e-12 10.0000000000002
0

0101000
+120 0 -125 0 *
Wi

0101000
+123 0 +121 0 +119 0 +118 0 *
Fa
0  1e-07 12 0

0111000
+117 0 *
Sh

0101000
+116 0 *
Ve
1e-07
-629.999963268285 -11414.0001836603 15728
0 0

0101101
*
Ve
1e-07
-630.000000000336 -11424.0001836603 15728
0 0

0101101
*
Ed
 1e-07 1 1 0
1  71 0 0 10.0000000000002
0

0101000
+114 0 -113 0 *
Ve
1e-07
-729.999999999662 -11423.9998163397 15728
0 0

0101101
*
Ed
 1e-07 1 1 0
1  72 0 0 100
0

0101000
+113 0 -111 0 *
Ve
1e-07
-729.999963267611 -11413.9998163398 15728
0 0

0101101
*
Ed
 1e-07 1 1 0
1  73 0 0 10.0000000000002
0

0101000
+111 0 -109 0 *
Ed
 1e-07 1 1 0
1  74 0 0 100.000000000001
0

0101000
+109 0 -114 0 *
Wi

0101000
+112 0 +110 0 +108 0 +107 0 *
Fa
0  1e-07 13 0

0111000
+106 0 *
Sh

0101000
+105 0 *
Ve
1e-07
-739.999963267543 -11413.9997796078 15739.1784744377
0 0

0101101
*
Ve
1e-07
-739.999999999595 -11423.9997796077 15739.1784744377
0 0

0101101
*
Ed
 1e-07 1 1 0
1  75 0 0 10.0000000000002
0

0101000
+103 0 -102 0 *
Ve
1e-07
-739.999999999595 -11423.9997796077 15858
0 0

0101101
*
Ed
 1e-07 1 1 0
1  76 0 0 118.821525562309
0

0101000
+102 0 -100 0 *
Ve
1e-07
-739.999963267543 -11413.9997796078 15858
0 0

0101101
*
Ed
 1e-07 1 1 0
1  77 0 0 10.0000000000002
0

0101000
+100 0 -98 0 *
Ed
 1e-07 1 1 0
1  78 0 0 118.821525562311
0

0101000
+98 0 -103 0 *
Wi

0101000
+101 0 +99 0 +97 0 +96 0 *
Fa
0  1e-07 14 0

0111000
+95 0 *
Sh

0101000
+94 0 *
Ve
1e-07
-739.999999999595 -11423.9997796077 15858
0 0

0101101
*
Ve
1e-07
-729.999999999662 -11423.9998163397 15868
0 0

0101101
*
Ed
 1e-07 1 1 0
1  79 0 3.14159265358979 4.71238898038469
2  25 15 0 3.14159265358979 4.71238898038469
0

0101000
+92 0 -91 0 *
Ve
1e-07
-729.999963267611 -11413.9998163398 15868
0 0

0101101
*
Ed
 1e-07 1 1 0
1  80 0 0 10.0000000000002
2  26 15 0 0 10.0000000000002
0

0101000
+91 0 -89 0 *
Ve
1e-07
-739.999963267543 -11413.9997796078 15858
0 0

0101101
*
Ed
 1e-07 1 1 0
1  81 0 1.5707963267949 3.14159265358979
2  27 15 0 1.5707963267949 3.14159265358979
0

0101000
+89 0 -87 0 *
Ed
 1e-07 1 1 0
1  82 0 -5.45696862819583e-12 9.99999999999834
2  28 15 0 -5.45696862819583e-12 9.99999999999834
0

0101000
+87 0 -92 0 *
Wi

0101000
+90 0 +88 0 +86 0 +85 0 *
Fa
0  1e-07 15 0

0111000
+84 0 *
Sh

0101000
+83 0 *
Ve
1e-07
-707.99999999981 -11423.9998971503 15758
0 0

0101101
*
Ve
1.0001e-07
-707.999963267759 -11413.9998971503 15758
0 0

0101101
*
Ed
 1e-07 1 1 0
1  83 0 0 10.0000000000002
2  29 16 0 0 10.0000000000002
0

0101000
-81 0 +80 0 *
Ed
 1e-07 1 1 0
1  84 0 0 10.0000000000002
2  30 16 0 0 10.0000000000002
0

0101000
-80 0 +81 0 *
Wi

0101100
-79 0 -78 0 *
Fa
0  1e-07 16 0

0111000
+77 0 *
Sh

0101000
+76 0 *
Ed
 1e-07 1 1 0
1  85 0 0 6.28318530717959
2  31 16 0 0 6.28318530717959
0

0101000
+80 0 -80 0 *
Wi

0101100
+74 0 *
Fa
0  1e-07 16 0

0111000
+73 0 *
Sh

0101000
+72 0 *
Ve
1e-07
-707.99999999981 -11423.9998971503 15758
0 0

0101101
*
Ed
 1e-07 1 1 0
1  86 0 0 6.28318530717959
2  32 16 0 0 6.28318530717959
0

0101000
+70 0 -70 0 *
Wi

0101100
+69 0 *
Fa
0  1e-07 16 0

0111000
+68 0 *
Sh

0101000
+67 0 *
Co

0100000
+75 0 +71 0 +66 0 *
Ve
1e-07
-638.000000000283 -11424.0001542746 15758
0 0

0101101
*
Ve
1.00010909585651e-07
-637.999963268232 -11414.0001542747 15758
0 0

0101101
*
Ed
 1e-07 1 1 0
1  87 0 0 10.0000000000002
2  33 17 0 0 10.0000000000002
0

0101000
-64 0 +63 0 *
Ed
 1e-07 1 1 0
1  88 0 0 10.0000000000002
2  34 17 0 0 10.0000000000002
0

0101000
-63 0 +64 0 *
Wi

0101100
-62 0 -61 0 *
Fa
0  1e-07 17 0

0111000
+60 0 *
Sh

0101000
+59 0 *
Ed
 1e-07 1 1 0
1  89 0 0 6.28318530717959
2  35 17 0 0 6.28318530717959
0

0101000
+63 0 -63 0 *
Wi

0101100
+57 0 *
Fa
0  1e-07 17 0

0111000
+56 0 *
Sh

0101000
+55 0 *
Ve
1e-07
-638.000000000283 -11424.0001542746 15758
0 0

0101101
*
Ed
 1e-07 1 1 0
1  90 0 0 6.28318530717959
2  36 17 0 0 6.28318530717959
0

0101000
+53 0 -53 0 *
Wi

0101100
+52 0 *
Fa
0  1e-07 17 0

0111000
+51 0 *
Sh

0101000
+50 0 *
Co

0100000
+58 0 +54 0 +49 0 *
Ve
1e-07
-638.000000000283 -11424.0001542746 15848
0 0

0101101
*
Ve
1.00010909585651e-07
-637.999963268232 -11414.0001542747 15848
0 0

0101101
*
Ed
 1e-07 1 1 0
1  91 0 0 10.0000000000002
2  37 18 0 0 10.0000000000002
0

0101000
-47 0 +46 0 *
Ed
 1e-07 1 1 0
1  92 0 0 10.0000000000002
2  38 18 0 0 10.0000000000002
0

0101000
-46 0 +47 0 *
Wi

0101100
-45 0 -44 0 *
Fa
0  1e-07 18 0

0111000
+43 0 *
Sh

0101000
+42 0 *
Ed
 1e-07 1 1 0
1  93 0 0 6.28318530717959
2  39 18 0 0 6.28318530717959
0

0101000
+46 0 -46 0 *
Wi

0101100
+40 0 *
Fa
0  1e-07 18 0

0111000
+39 0 *
Sh

0101000
+38 0 *
Ve
1e-07
-638.000000000283 -11424.0001542746 15848
0 0

0101101
*
Ed
 1e-07 1 1 0
1  94 0 0 6.28318530717959
2  40 18 0 0 6.28318530717959
0

0101000
+36 0 -36 0 *
Wi

0101100
+35 0 *
Fa
0  1e-07 18 0

0111000
+34 0 *
Sh

0101000
+33 0 *
Co

0100000
+41 0 +37 0 +32 0 *
Ve
1e-07
-707.999999999811 -11423.9998971503 15848
0 0

0101101
*
Ve
1.0001e-07
-707.99996326776 -11413.9998971503 15848
0 0

0101101
*
Ed
 1e-07 1 1 0
1  95 0 0 10.0000000000002
2  41 19 0 0 10.0000000000002
0

0101000
-30 0 +29 0 *
Ed
 1e-07 1 1 0
1  96 0 0 10.0000000000002
2  42 19 0 0 10.0000000000002
0

0101000
-29 0 +30 0 *
Wi

0101100
-28 0 -27 0 *
Fa
0  1e-07 19 0

0111000
+26 0 *
Sh

0101000
+25 0 *
Ed
 1e-07 1 1 0
1  97 0 0 6.28318530717959
2  43 19 0 0 6.28318530717959
0

0101000
+29 0 -29 0 *
Wi

0101100
+23 0 *
Fa
0  1e-07 19 0

0111000
+22 0 *
Sh

0101000
+21 0 *
Ve
1e-07
-707.999999999811 -11423.9998971503 15848
0 0

0101101
*
Ed
 1e-07 1 1 0
1  98 0 0 6.28318530717959
2  44 19 0 0 6.28318530717959
0

0101000
+19 0 -19 0 *
Wi

0101100
+18 0 *
Fa
0  1e-07 19 0

0111000
+17 0 *
Sh

0101000
+16 0 *
Co

0100000
+24 0 +20 0 +15 0 *
Ve
1e-07
-630.000000000336 -11424.0001836603 15868
0 0

0101101
*
Ve
1e-07
-629.999963268285 -11414.0001836603 15868
0 0

0101101
*
Ed
 1e-07 1 1 0
1  99 0 0 10.0000000000002
0

0101000
+13 0 -12 0 *
Ve
1e-07
-729.999963267611 -11413.9998163398 15868
0 0

0101101
*
Ed
 1e-07 1 1 0
1  100 0 0 100.000000000001
0

0101000
+12 0 -10 0 *
Ve
1e-07
-729.999999999662 -11423.9998163397 15868
0 0

0101101
*
Ed
 1e-07 1 1 0
1  101 0 0 10.0000000000002
0

0101000
+10 0 -8 0 *
Ed
 1e-07 1 1 0
1  102 0 0 100.000000000001
0

0101000
+8 0 -13 0 *
Wi

0101000
+11 0 +9 0 +7 0 +6 0 *
Fa
0  1e-07 20 0

0111000
+5 0 *
Sh

0101000
+4 0 *
Co

0100000
+288 0 +277 0 +266 0 +229 0 +218 0 +207 0 +196 0 +185 0 +148 0 +137 0 
+126 0 +115 0 +104 0 +93 0 +82 0 +65 0 +48 0 +31 0 +14 0 +3 0 
*
Co

1100000
+2 0 *

+1 0 
0

