DBRep_DrawableShape

CASCADE Topology V1, (c) Matra-Datavision
Locations 0
Curve2ds 25
7 0 0  1 2 2  0.89999999999999858 0  0 0 
 -0.90000000000002345 2 -0 2
7 0 0  1 2 2  0 0  0 0.50000000000001055 
 -1.5707963267948966 2 1.5707963267947704 2
7 0 0  1 2 2  0 0.50000000000001055  0 1 
 1.5707963267947704 2 4.7123889803846897 2
7 0 0  1 2 2  0 1  0.89999999999999858 1 
 0 2 0.90000000000002345 2
7 0 0  1 2 2  0.89999999999999858 1  0.89999999999999858 0.50000000000001055 
 -4.7123889803846897 2 -1.5707963267947684 2
7 0 0  1 2 2  0.89999999999999858 0.50000000000001055  0.89999999999999858 0 
 -1.5707963267947684 2 1.5707963267948966 2
7 0 0  1 2 2  0 1  0.10000000000000142 1 
 0 2 0.10000000000000142 2
7 0 0  1 2 2  0 0.49999999999999722  0 1 
 1.5707963267947684 2 4.7123889803846897 2
7 0 0  1 2 2  0 0  0 0.49999999999999722 
 -1.5707963267948966 2 1.5707963267947684 2
7 0 0  1 2 2  0.10000000000000142 0  0 0 
 -0.10000000000000142 2 -0 2
7 0 0  1 2 2  0.10000000000000142 0.5  0.10000000000000142 0 
 -1.5707963267947704 2 1.5707963267948966 2
7 0 0  1 2 2  0.10000000000000142 1  0.10000000000000142 0.5 
 -4.7123889803846897 2 -1.5707963267947704 2
7 0 0  1 2 2  0 1  0.10000000000000142 1 
 0 2 0.10000000000005116 2
7 0 0  1 2 2  0 0  0 1 
 0 2 1 2
7 0 0  1 2 2  0.10000000000000142 0  0 0 
 -0.10000000000005116 2 -0 2
7 0 0  1 2 2  0 0  0.89999999999999858 0 
 0 2 0.90000000000002345 2
7 0 0  1 2 2  0.89999999999999858 0  0.89999999999999858 0.5 
 -1.5707963267948966 2 1.5707963267950489 2
7 0 0  1 2 2  0.89999999999999858 0.5  0.89999999999999858 1 
 1.5707963267950489 2 4.7123889803846897 2
7 0 0  1 2 2  0.89999999999999858 1  0 1 
 -0.90000000000002345 2 -0 2
7 0 0  1 2 2  0 1  0 0.5 
 -4.7123889803846897 2 -1.5707963267946208 2
7 0 0  1 2 2  0 0.5  0 0 
 -1.5707963267946208 2 1.5707963267948966 2
7 0 0  1 2 2  0 0  0.10000000000000142 0 
 0 2 0.10000000000005116 2
7 0 0  1 2 2  0.10000000000000142 0  0.10000000000000142 0.5 
 -1.5707963267948966 2 1.5707963267946208 2
7 0 0  1 2 2  0.10000000000000142 0.5  0.10000000000000142 1 
 1.5707963267946208 2 4.7123889803846897 2
7 0 0  1 2 2  0.10000000000000142 1  0 1 
 -0.10000000000005116 2 -0 2
Curves 29
7 0 0  1 2 2  54824.507071991822 14276.250000000005 7233.0075640946916  54824.507071991771 14276.250000000005 8133.0075640947134 
 -0.90000000000002345 2 -0 2
7 1 0  2 5 3  54824.507071991771 14276.250000000005 8133.0075640947134  1 54838.257071991786 14276.250000000005 8119.2575640947116  0.70710678118656956 54838.257071991786 14290.000000000005 8119.2575640947116  1 54838.257071991786 14303.750000000004 8119.2575640947098  0.70710678118656944 54824.507071991779 14303.750000000005 8133.0075640947098  1
 -1.5707963267948966 3 -6.3060667798708891e-14 2 1.5707963267947704 3
7 1 0  2 5 3  54824.507071991779 14303.750000000005 8133.0075640947098  1 54810.757071991779 14303.750000000007 8146.7575640947116  0.70710678118652559 54810.757071991779 14290.000000000005 8146.7575640947116  1 54810.757071991779 14276.250000000005 8146.7575640947134  0.70710678118652515 54824.507071991771 14276.250000000005 8133.0075640947134  1
 1.5707963267947704 3 3.1415926535897301 2 4.7123889803846897 3
7 0 0  1 2 2  54824.507071991771 14276.250000000005 8133.0075640947134  54824.507071991829 14276.250000000005 7233.0075640946934 
 0 2 0.90000000000002345 2
7 1 0  2 5 3  54824.507071991829 14276.250000000005 7233.0075640946934  1 54810.757071991829 14276.250000000005 7219.2575640946943  0.70710678118652492 54810.757071991829 14290.000000000005 7219.2575640946952  1 54810.757071991829 14303.750000000007 7219.2575640946961  0.70710678118652548 54824.507071991829 14303.750000000005 7233.007564094697  1
 -4.7123889803846897 3 -3.1415926535897292 2 -1.5707963267947684 3
7 1 0  2 5 3  54824.507071991829 14303.750000000005 7233.007564094697  1 54838.257071991837 14303.750000000004 7246.7575640946961  0.70710678118657022 54838.257071991837 14290.000000000005 7246.7575640946952  1 54838.257071991837 14276.250000000005 7246.7575640946943  0.70710678118657022 54824.507071991829 14276.250000000005 7233.0075640946952  1
 -1.5707963267947684 3 6.4170890823334048e-14 2 1.5707963267948966 3
7 0 0  1 2 2  54824.507071991829 14276.250000000005 7233.0075640946934  54924.507071991829 14276.250000000007 7233.0075640947161 
 0 2 0.10000000000000142 2
7 1 0  2 5 3  54824.507071991829 14303.750000000005 7233.007564094697  1 54810.757071991829 14303.750000000007 7219.2575640946961  0.70710678118652492 54810.757071991829 14290.000000000005 7219.2575640946952  1 54810.757071991829 14276.250000000005 7219.2575640946943  0.70710678118652492 54824.507071991829 14276.250000000005 7233.0075640946934  1
 1.5707963267947684 3 3.1415926535897292 2 4.7123889803846897 3
7 1 0  2 5 3  54824.507071991829 14276.250000000005 7233.0075640946934  1 54838.257071991837 14276.250000000005 7246.7575640946943  0.70710678118657033 54838.257071991837 14290.000000000005 7246.7575640946952  1 54838.257071991837 14303.750000000004 7246.7575640946961  0.70710678118656989 54824.507071991829 14303.750000000005 7233.007564094697  1
 -1.5707963267948966 3 -6.3948846218409017e-14 2 1.5707963267947684 3
7 0 0  1 2 2  54924.507071991829 14276.250000000007 7233.0075640947161  54824.507071991829 14276.250000000005 7233.0075640946934 
 -0.10000000000000142 2 -0 2
2 54924.507071991829 14290.000000000007 7233.0075640947161 1 1.7763568394002252e-14 -0 1.7763568394002252e-14 -1 0 0 -0 -1 17
2 54924.507071991829 14290.000000000007 7233.0075640947161 -1 -1.7763568394002252e-14 0 1.7763568394002252e-14 -1 0 0 0 1 13.749999999999645
7 1 0  2 5 3  54824.507071991779 14303.750000000005 8133.0075640947098  1 54838.257071991786 14303.750000000004 8119.2575640947098  0.70710678118656944 54838.257071991786 14290.000000000005 8119.2575640947116  1 54838.257071991786 14276.250000000005 8119.2575640947116  0.70710678118656978 54824.507071991779 14276.250000000005 8133.0075640947116  1
 -1.5707963267947704 3 6.3060667798708891e-14 2 1.5707963267948966 3
7 1 0  2 5 3  54824.507071991771 14276.250000000005 8133.0075640947134  1 54810.757071991779 14276.250000000005 8146.7575640947134  0.70710678118652526 54810.757071991779 14290.000000000005 8146.7575640947116  1 54810.757071991779 14303.750000000007 8146.7575640947116  0.70710678118652537 54824.507071991779 14303.750000000005 8133.0075640947098  1
 -4.7123889803846897 3 -3.1415926535897301 2 -1.5707963267947704 3
7 0 0  1 2 2  54924.507071991829 14276.250000000005 8133.0075640947152  54824.507071991771 14276.250000000005 8133.0075640947134 
 0 2 0.10000000000005116 2
7 1 1  2 8 5  54924.507071991829 14276.250000000005 8133.0075640947152  1 54924.507071991829 14276.250000000005 8119.2575640947152  0.70710678118669246 54924.507071991829 14290.000000000005 8119.2575640947152  1 54924.507071991829 14303.750000000005 8119.2575640947152  0.70710678118669246 54924.507071991829 14303.750000000005 8133.0075640947152  1 54924.507071991829 14303.750000000005 8146.7575640947152  0.70710678118669246 54924.507071991829 14290.000000000005 8146.7575640947152  1 54924.507071991829 14276.250000000005 8146.7575640947152  0.70710678118669246
 0 2 0.25000000000000566 2 0.5 2 0.74999999999999434 2 1 2
7 0 0  1 2 2  54824.507071991771 14276.250000000005 8133.0075640947152  54924.507071991829 14276.250000000005 8133.0075640947152 
 -0.10000000000005116 2 -0 2
2 54924.507071991829 14290.000000000005 8133.0075640947152 1 0 -0 0 -1 0 0 -0 -1 17
2 54924.507071991829 14290.000000000005 8133.0075640947152 -1 -0 0 0 -1 0 0 0 1 13.750000000000165
7 0 0  1 2 2  54824.507071991771 14273.000000000007 8133.0075640947152  54824.507071991815 14273.000000000007 7233.0075640946916 
 0 2 0.90000000000002345 2
7 1 0  2 5 3  54824.507071991815 14273.000000000007 7233.0075640946916  1 54841.507071991815 14273.000000000007 7250.0075640946925  0.70710678118652026 54841.507071991815 14290.000000000007 7250.0075640946916  1 54841.507071991808 14307.000000000009 7250.0075640946898  0.70710678118652093 54824.507071991808 14307.000000000005 7233.0075640946889  1
 -1.5707963267948966 3 7.6161299489285739e-14 2 1.5707963267950489 3
7 1 0  2 5 3  54824.507071991808 14307.000000000005 7233.0075640946889  1 54807.507071991808 14307.000000000004 7216.0075640946907  0.70710678118657466 54807.507071991808 14290.000000000004 7216.0075640946916  1 54807.507071991815 14273.000000000007 7216.0075640946934  0.70710678118657466 54824.507071991815 14273.000000000007 7233.0075640946916  1
 1.5707963267950489 3 3.1415926535898695 2 4.7123889803846897 3
7 0 0  1 2 2  54824.507071991815 14273.000000000007 7233.0075640946916  54824.507071991771 14273.000000000007 8133.0075640947134 
 -0.90000000000002345 2 -0 2
7 1 0  2 5 3  54824.507071991771 14273.000000000007 8133.0075640947134  1 54807.507071991757 14273.000000000007 8150.0075640947143  0.70710678118649894 54807.507071991757 14290.000000000007 8150.0075640947107  1 54807.507071991764 14307.000000000011 8150.0075640947089  0.70710678118649883 54824.507071991771 14307.000000000005 8133.0075640947061  1
 -4.7123889803846897 3 -3.1415926535896554 2 -1.5707963267946208 3
7 1 0  2 5 3  54824.507071991771 14307.000000000005 8133.0075640947061  1 54841.507071991764 14307.000000000002 8116.0075640947089  0.7071067811865962 54841.507071991764 14290.000000000004 8116.0075640947116  1 54841.507071991757 14273.000000000007 8116.0075640947134  0.70710678118659631 54824.507071991764 14273.000000000007 8133.0075640947116  1
 -1.5707963267946208 3 1.3788969965844444e-13 2 1.5707963267948966 3
7 0 0  1 2 2  54924.507071991829 14273.000000000007 8133.0075640947152  54824.507071991771 14273.000000000007 8133.0075640947134 
 0 2 0.10000000000005116 2
7 1 0  2 5 3  54824.507071991771 14273.000000000007 8133.0075640947134  1 54841.507071991757 14273.000000000007 8116.0075640947134  0.7071067811865962 54841.507071991764 14290.000000000004 8116.0075640947116  1 54841.507071991764 14307.000000000002 8116.0075640947089  0.70710678118659598 54824.507071991771 14307.000000000005 8133.0075640947061  1
 -1.5707963267948966 3 -1.3788969965844444e-13 2 1.5707963267946208 3
7 1 0  2 5 3  54824.507071991771 14307.000000000005 8133.0075640947061  1 54807.507071991764 14307.000000000011 8150.0075640947089  0.70710678118649883 54807.507071991757 14290.000000000007 8150.0075640947107  1 54807.507071991757 14273.000000000007 8150.0075640947143  0.70710678118649872 54824.507071991771 14273.000000000007 8133.0075640947134  1
 1.5707963267946208 3 3.1415926535896554 2 4.7123889803846897 3
7 0 0  1 2 2  54824.507071991771 14273.000000000007 8133.0075640947134  54924.507071991829 14273.000000000007 8133.0075640947152 
 -0.10000000000005116 2 -0 2
Polygon3D 0
PolygonOnTriangulations 0
Surfaces 7
9 1 0 0 1 1 2 2 8 2 5 54824.507071991771 14276.250000000005 8133.0075640947152  1 54838.257071991779 14276.250000000007 8119.2575640947134  0.70710678118629311 54838.257071991779 14290.000000000005 8119.2575640947152  1 54838.257071991779 14303.750000000005 8119.2575640947134  0.70710678118629311 54824.507071991771 14303.750000000005 8133.0075640947152  1 54810.757071991771 14303.750000000005 8146.7575640947152  0.70710678118637105 54810.757071991771 14290.000000000005 8146.7575640947152  1 54810.757071991771 14276.250000000007 8146.7575640947171  0.70710678118629311 
54824.507071991822 14276.250000000005 7233.0075640946916  1 54838.257071991837 14276.250000000007 7246.7575640946916  0.70710678118629311 54838.257071991829 14290.000000000005 7246.7575640946916  1 54838.257071991837 14303.750000000005 7246.7575640946916  0.70710678118629311 54824.507071991822 14303.750000000005 7233.0075640946916  1 54810.757071991822 14303.750000000005 7219.2575640946907  0.70710678118637105 54810.757071991822 14290.000000000005 7219.2575640946916  1 54810.757071991822 14276.250000000007 7219.2575640946916  0.70710678118629311 

0 2
0.89999999999999858 2

0 2
0.25000000000000527 2
0.50000000000001055 2
0.75000000000000033 2
1 2

9 1 0 0 1 1 2 2 8 2 5 54824.507071991822 14276.250000000005 7233.0075640946916  1 54838.257071991829 14276.250000000005 7246.7575640946916  0.70710678118637105 54838.257071991829 14290.000000000005 7246.7575640946916  1 54838.257071991829 14303.750000000005 7246.7575640946916  0.70710678118637105 54824.507071991822 14303.750000000005 7233.0075640946916  1 54810.757071991822 14303.750000000005 7219.2575640946907  0.70710678118637105 54810.757071991822 14290.000000000005 7219.2575640946916  1 54810.757071991822 14276.250000000005 7219.2575640946907  0.70710678118637105 
54924.507071991829 14276.250000000007 7233.0075640947161  1 54924.507071991829 14276.250000000007 7246.7575640947161  0.70710678118637105 54924.507071991829 14290.000000000007 7246.7575640947161  1 54924.507071991829 14303.750000000009 7246.7575640947161  0.70710678118637105 54924.507071991829 14303.750000000007 7233.0075640947161  1 54924.507071991829 14303.750000000009 7219.2575640947161  0.70710678118637105 54924.507071991829 14290.000000000007 7219.2575640947161  1 54924.507071991829 14276.250000000007 7219.2575640947161  0.70710678118637105 

0 2
0.10000000000000142 2

0 2
0.25000000000000366 2
0.49999999999999722 2
0.74999999999999345 2
1 2

1 54924.507071991829 14290.000000000007 7233.0075640947161 -1 -1.7763568394002252e-14 0 0 0 1 1.7763568394002252e-14 -1 0 
9 1 0 0 1 1 2 2 8 2 5 54924.507071991829 14276.250000000005 8133.0075640947152  1 54924.507071991829 14276.250000000005 8119.2575640947152  0.70710678118669246 54924.507071991829 14290.000000000005 8119.2575640947152  1 54924.507071991829 14303.750000000005 8119.2575640947152  0.70710678118669246 54924.507071991829 14303.750000000005 8133.0075640947152  1 54924.507071991829 14303.750000000005 8146.7575640947152  0.70710678118669246 54924.507071991829 14290.000000000005 8146.7575640947152  1 54924.507071991829 14276.250000000005 8146.7575640947152  0.70710678118669246 
54824.507071991771 14276.250000000005 8133.0075640947152  1 54838.257071991779 14276.250000000005 8119.2575640947134  0.70710678118669246 54838.257071991779 14290.000000000005 8119.2575640947152  1 54838.257071991779 14303.750000000005 8119.2575640947134  0.70710678118669246 54824.507071991771 14303.750000000005 8133.0075640947152  1 54810.757071991764 14303.750000000005 8146.7575640947152  0.70710678118669246 54810.757071991771 14290.000000000005 8146.7575640947152  1 54810.757071991764 14276.250000000005 8146.7575640947171  0.70710678118669246 

0 2
0.10000000000000142 2

0 2
0.25000000000000566 2
0.5 2
0.74999999999999434 2
1 2

1 54924.507071991829 14290.000000000005 8133.0075640947152 1 0 -0 -0 0 -1 0 1 0 
9 1 0 0 1 1 2 2 8 2 5 54824.507071991771 14273.000000000007 8133.0075640947152  1 54841.507071991779 14273.000000000007 8116.0075640947152  0.70710678118683867 54841.507071991779 14290.000000000005 8116.0075640947152  1 54841.507071991779 14307.000000000004 8116.0075640947152  0.70710678118683867 54824.507071991771 14307.000000000005 8133.0075640947152  1 54807.507071991779 14307.000000000004 8150.0075640947143  0.70710678118683867 54807.507071991771 14290.000000000005 8150.0075640947143  1 54807.507071991779 14273.000000000007 8150.0075640947143  0.70710678118683867 
54824.507071991822 14273.000000000007 7233.0075640946916  1 54841.507071991829 14273.000000000007 7250.0075640946925  0.70710678118683867 54841.507071991829 14290.000000000005 7250.0075640946916  1 54841.507071991829 14307.000000000004 7250.0075640946925  0.70710678118683867 54824.507071991822 14307.000000000005 7233.0075640946916  1 54807.507071991829 14307.000000000004 7216.0075640946916  0.70710678118683867 54807.507071991822 14290.000000000005 7216.0075640946916  1 54807.507071991829 14273.000000000007 7216.0075640946916  0.70710678118683867 

0 2
0.89999999999999858 2

0 2
0.25000000000000411 2
0.5 2
0.74999999999999589 2
1 2

9 1 0 0 1 1 2 2 8 2 5 54924.507071991829 14273.000000000007 8133.0075640947152  1 54924.507071991837 14273.000000000007 8116.0075640947152  0.70710678118690162 54924.507071991829 14290.000000000005 8116.0075640947152  1 54924.507071991837 14307.000000000004 8116.0075640947152  0.70710678118690162 54924.507071991829 14307.000000000005 8133.0075640947152  1 54924.507071991837 14307.000000000004 8150.0075640947143  0.70710678118690162 54924.507071991829 14290.000000000005 8150.0075640947143  1 54924.507071991837 14273.000000000007 8150.0075640947143  0.70710678118690162 
54824.507071991771 14273.000000000007 8133.0075640947152  1 54841.507071991779 14273.000000000007 8116.0075640947152  0.70710678118690162 54841.507071991779 14290.000000000005 8116.0075640947152  1 54841.507071991779 14307.000000000004 8116.0075640947152  0.70710678118690162 54824.507071991771 14307.000000000005 8133.0075640947152  1 54807.507071991771 14307.000000000004 8150.0075640947143  0.70710678118690162 54807.507071991771 14290.000000000005 8150.0075640947143  1 54807.507071991771 14273.000000000007 8150.0075640947143  0.70710678118690162 

0 2
0.10000000000000142 2

0 2
0.25000000000000921 2
0.5 2
0.74999999999999067 2
1 2

Triangulations 0

TShapes 82
Ve
1e-07
54824.5070719918 14276.25 7233.00756409469
0 0

0101101
*
Ve
1e-07
54824.5070719918 14276.25 8133.00756409471
0 0

0101101
*
Ed
 1e-07 1 1 0
1  1 0 -0.900000000000023 -0
2  1 1 0 -0.900000000000023 -0
0

0101000
+82 0 -81 0 *
Ve
1e-07
54824.5070719918 14303.75 8133.00756409471
0 0

0101101
*
Ed
 1e-07 1 1 0
1  2 0 -1.5707963267949 1.57079632679477
2  2 1 0 -1.5707963267949 1.57079632679477
0

0101000
+81 0 -79 0 *
Ve
1e-07
54824.5070719918 14276.25 8133.00756409471
0 0

0101101
*
Ed
 1e-07 1 1 0
1  3 0 1.57079632679477 4.71238898038469
2  3 1 0 1.57079632679477 4.71238898038469
0

0101000
+79 0 -77 0 *
Ve
1e-07
54824.5070719918 14276.25 7233.00756409469
0 0

0101101
*
Ed
 1e-07 1 1 0
1  4 0 0 0.900000000000023
2  4 1 0 0 0.900000000000023
0

0101000
+77 0 -75 0 *
Ve
1e-07
54824.5070719918 14303.75 7233.0075640947
0 0

0101101
*
Ed
 1e-07 1 1 0
1  5 0 -4.71238898038469 -1.57079632679477
2  5 1 0 -4.71238898038469 -1.57079632679477
0

0101000
+75 0 -73 0 *
Ed
 1e-07 1 1 0
1  6 0 -1.57079632679477 1.5707963267949
2  6 1 0 -1.57079632679477 1.5707963267949
0

0101000
+73 0 -82 0 *
Wi

0101000
+80 0 +78 0 +76 0 +74 0 +72 0 +71 0 *
Fa
0  1e-07 1 0

0111000
-70 0 *
Sh

0101000
-69 0 *
Ve
1e-07
54824.5070719918 14276.25 7233.00756409469
0 0

0101101
*
Ve
1e-07
54924.5070719918 14276.25 7233.00756409472
0 0

0101101
*
Ed
 1e-07 1 1 0
1  7 0 0 0.100000000000001
2  7 2 0 0 0.100000000000001
0

0101000
+67 0 -66 0 *
Ve
1e-07
54824.5070719918 14303.75 7233.0075640947
0 0

0101101
*
Ed
 1e-07 1 1 0
1  8 0 1.57079632679477 4.71238898038469
2  8 2 0 1.57079632679477 4.71238898038469
0

0101000
+64 0 -67 0 *
Ve
1e-07
54824.5070719918 14276.25 7233.00756409469
0 0

0101101
*
Ed
 1e-07 1 1 0
1  9 0 -1.5707963267949 1.57079632679477
2  9 2 0 -1.5707963267949 1.57079632679477
0

0101000
+62 0 -64 0 *
Ed
 1e-07 1 1 0
1  10 0 -0.100000000000001 -0
2  10 2 0 -0.100000000000001 -0
0

0101000
+66 0 -62 0 *
Wi

0101100
-65 0 -63 0 -61 0 -60 0 *
Fa
0  1e-07 2 0

0111000
+59 0 *
Sh

0101000
-58 0 *
Ve
1e-07
54924.5070719918 14273 7233.00756409472
0 0

0101101
*
Ed
 1e-07 1 1 0
1  11 0 0 6.28318530717959
0

0101000
+56 0 -56 0 *
Wi

0101000
+55 0 *
Ve
1e-07
54924.5070719918 14276.25 7233.00756409472
0 0

0101101
*
Ed
 1e-07 1 1 0
1  12 0 0 6.28318530717959
0

0101000
+53 0 -53 0 *
Wi

0101000
+52 0 *
Fa
0  1e-07 3 0

0111000
+54 0 +51 0 *
Sh

0101000
+50 0 *
Ve
1e-07
54824.5070719918 14303.75 8133.00756409471
0 0

0101101
*
Ve
1e-07
54824.5070719918 14276.25 8133.00756409472
0 0

0101101
*
Ed
 1e-07 1 1 0
1  13 0 -1.57079632679477 1.5707963267949
2  11 4 0 -1.57079632679477 1.5707963267949
0

0101000
+48 0 -47 0 *
Ve
1e-07
54824.5070719918 14276.25 8133.00756409471
0 0

0101101
*
Ed
 1e-07 1 1 0
1  14 0 -4.71238898038469 -1.57079632679477
2  12 4 0 -4.71238898038469 -1.57079632679477
0

0101000
+45 0 -48 0 *
Ve
1e-07
54924.5070719918 14276.25 8133.00756409472
0 0

0101101
*
Ed
 1e-07 1 1 0
1  15 0 0 0.100000000000051
2  13 4 0 0 0.100000000000051
0

0101000
+43 0 -45 0 *
Ed
 1e-07 1 1 0
1  16 0 0 1
2  14 4 0 0 1
0

0101000
+43 0 -43 0 *
Ed
 1e-07 1 1 0
1  17 0 -0.100000000000051 -0
2  15 4 0 -0.100000000000051 -0
0

0101000
+47 0 -43 0 *
Wi

0101100
-46 0 -44 0 -42 0 -41 0 -40 0 *
Fa
0  1e-07 4 0

0111000
+39 0 *
Sh

0101000
-38 0 *
Ve
1e-07
54924.5070719918 14273 8133.00756409472
0 0

0101101
*
Ed
 1e-07 1 1 0
1  18 0 0 6.28318530717959
0

0101000
+36 0 -36 0 *
Wi

0101000
+35 0 *
Ve
1e-07
54924.5070719918 14276.25 8133.00756409472
0 0

0101101
*
Ed
 1e-07 1 1 0
1  19 0 0 6.28318530717959
0

0101000
+33 0 -33 0 *
Wi

0101000
+32 0 *
Fa
0  1e-07 5 0

0111000
+34 0 +31 0 *
Sh

0101000
+30 0 *
Ve
1e-07
54824.5070719918 14273 8133.00756409472
0 0

0101101
*
Ve
1e-07
54824.5070719918 14273 7233.00756409469
0 0

0101101
*
Ed
 1e-07 1 1 0
1  20 0 0 0.900000000000023
2  16 6 0 0 0.900000000000023
0

0101000
+28 0 -27 0 *
Ve
1e-07
54824.5070719918 14307 7233.00756409469
0 0

0101101
*
Ed
 1e-07 1 1 0
1  21 0 -1.5707963267949 1.57079632679505
2  17 6 0 -1.5707963267949 1.57079632679505
0

0101000
+27 0 -25 0 *
Ve
1e-07
54824.5070719918 14273 7233.00756409469
0 0

0101101
*
Ed
 1e-07 1 1 0
1  22 0 1.57079632679505 4.71238898038469
2  18 6 0 1.57079632679505 4.71238898038469
0

0101000
+25 0 -23 0 *
Ve
1e-07
54824.5070719918 14273 8133.00756409471
0 0

0101101
*
Ed
 1e-07 1 1 0
1  23 0 -0.900000000000023 -0
2  19 6 0 -0.900000000000023 -0
0

0101000
+23 0 -21 0 *
Ve
1e-07
54824.5070719918 14307 8133.00756409471
0 0

0101101
*
Ed
 1e-07 1 1 0
1  24 0 -4.71238898038469 -1.57079632679462
2  20 6 0 -4.71238898038469 -1.57079632679462
0

0101000
+21 0 -19 0 *
Ed
 1e-07 1 1 0
1  25 0 -1.57079632679462 1.5707963267949
2  21 6 0 -1.57079632679462 1.5707963267949
0

0101000
+19 0 -28 0 *
Wi

0101000
+26 0 +24 0 +22 0 +20 0 +18 0 +17 0 *
Fa
0  1e-07 6 0

0111000
+16 0 *
Sh

0101000
+15 0 *
Ve
1e-07
54924.5070719918 14273 8133.00756409472
0 0

0101101
*
Ve
1e-07
54824.5070719918 14273 8133.00756409471
0 0

0101101
*
Ed
 1e-07 1 1 0
1  26 0 0 0.100000000000051
2  22 7 0 0 0.100000000000051
0

0101000
+13 0 -12 0 *
Ve
1e-07
54824.5070719918 14307 8133.00756409471
0 0

0101101
*
Ed
 1e-07 1 1 0
1  27 0 -1.5707963267949 1.57079632679462
2  23 7 0 -1.5707963267949 1.57079632679462
0

0101000
+12 0 -10 0 *
Ve
1e-07
54824.5070719918 14273 8133.00756409471
0 0

0101101
*
Ed
 1e-07 1 1 0
1  28 0 1.57079632679462 4.71238898038469
2  24 7 0 1.57079632679462 4.71238898038469
0

0101000
+10 0 -8 0 *
Ed
 1e-07 1 1 0
1  29 0 -0.100000000000051 -0
2  25 7 0 -0.100000000000051 -0
0

0101000
+8 0 -13 0 *
Wi

0101100
+11 0 +9 0 +7 0 +6 0 *
Fa
0  1e-07 7 0

0111000
+5 0 *
Sh

0101000
+4 0 *
Co

0100000
+68 0 +57 0 +49 0 +37 0 +29 0 +14 0 +3 0 *
Co

1100000
+2 0 *

+1 0 
0

