DBRep_DrawableShape

CASCADE Topology V1, (c) Matra-Datavision
Locations 0
Curve2ds 3
7 0 0  1 2 2  0 0  0.8140796326794919 0 
 0 2 0.8140796326794919 2
7 0 0  1 2 2  0.8140796326794919 0  0.8140796326794919 1 
 0 2 1 2
7 0 0  1 2 2  0.8140796326794919 1  0 1 
 -0.8140796326794919 2 -0 2
Curves 5
7 1 0  2 7 4  48959.500000000029 17544.500000000004 7401.0000000000027  1 49261.000030649004 17544.499999999902 7400.9999999999964  1 49562.499938702065 17544.500000000164 7401.0000000000064  1 49650.000043344051 17544.500043344098 7400.9999999999991  0.70710678118658443 49650.000000000218 17456.999938702022 7401.0000000000064  1 49649.999999999905 17430.000030648971 7400.9999999999973  1 49650.000000000007 17403 7401.0000000000036  1
 0 3 0.61482576169947267 2 0.75902060924372283 2 0.8140796326794919 3
7 1 1  2 8 5  49650.000000000007 17403 7401.0000000000036  1 49650.000000000007 17403.000000000004 7413.5000000000036  0.70710678118642034 49662.500000000007 17403.000000000004 7413.5000000000055  1 49675.000000000015 17403.000000000004 7413.5000000000073  0.70710678118642034 49675.000000000015 17403 7401.0000000000073  1 49675.000000000015 17402.999999999996 7388.5000000000064  0.70710678118642034 49662.500000000007 17402.999999999996 7388.5000000000045  1 49650.000000000007 17402.999999999996 7388.5000000000027  0.70710678118642034
 0 2 0.25000000000000944 2 0.49999999999999378 2 0.74999999999998446 2 1 2
7 1 0  2 7 4  49650.000000000007 17403 7401.0000000000036  1 49649.999999999905 17430.000030648971 7400.9999999999973  1 49650.000000000218 17456.999938702022 7401.0000000000064  1 49650.000043344051 17544.500043344098 7400.9999999999991  0.70710678118658443 49562.499938702065 17544.500000000164 7401.0000000000064  1 49261.000030649004 17544.499999999902 7400.9999999999964  1 48959.500000000029 17544.500000000004 7401.0000000000027  1
 -0.8140796326794919 3 -0.75902060924372283 2 -0.61482576169947267 2 -0 3
2 48959.500000000007 17557.000000000007 7401.0000000000045 -1 -5.8917308106144144e-15 2.8133014620774777e-16 5.8917308106143742e-15 -1 -1.421085471519877e-13 2.8133014620858505e-16 -1.421085471519877e-13 1 12.500000000001757
2 49662.500000000007 17403 7401.0000000000055 -2.4140423000629357e-26 -1 1.5523128473538728e-13 -1 2.0807306543469431e-27 -1.4210854715198773e-13 1.4210854715198773e-13 -1.5523128473538728e-13 -1 12.500000000001382
Polygon3D 0
PolygonOnTriangulations 0
Surfaces 3
9 1 1 0 1 2 2 7 8 4 5 48959.500000000029 17544.500000000004 7401.0000000000027  1 48959.500000000029 17544.500000000004 7413.5000000000064  0.70710678118642034 48959.500000000029 17557 7413.5000000000055  1 48959.500000000029 17569.500000000007 7413.5000000000064  0.70710678118642034 48959.500000000029 17569.500000000007 7401.0000000000027  1 48959.500000000029 17569.500000000007 7388.5000000000027  0.70710678118642034 48959.500000000029 17557 7388.5000000000027  1 48959.500000000029 17544.500000000004 7388.5000000000027  0.70710678118642034 
49261.000030649004 17544.499999999902 7400.9999999999964  1 49261.000030649004 17544.499999999902 7413.5000000000045  0.70710678118642034 49261.000000000015 17556.999999999975 7413.5000000000045  1 49260.999969351033 17569.500000000051 7413.5000000000045  0.70710678118642034 49260.999969351025 17569.500000000051 7400.9999999999964  1 49260.999969351033 17569.500000000051 7388.5000000000018  0.70710678118642034 49261.000000000015 17556.999999999975 7388.5000000000018  1 49261.000030649004 17544.499999999902 7388.5000000000018  0.70710678118642034 
49562.499938702065 17544.500000000164 7401.0000000000064  1 49562.499938702073 17544.500000000164 7413.5000000000036  0.70710678118642034 49562.500000000036 17557.000000000015 7413.5000000000036  1 49562.500061298015 17569.499999999865 7413.5000000000036  0.70710678118642034 49562.500061298015 17569.499999999865 7401.0000000000064  1 49562.500061298015 17569.499999999865 7388.5000000000027  0.70710678118642034 49562.500000000036 17557.000000000015 7388.5000000000027  1 49562.499938702073 17544.500000000164 7388.5000000000027  0.70710678118642034 
49650.000043344051 17544.500043344098 7400.9999999999991  0.70710678118658443 49650.000043344051 17544.500043344091 7413.4999999999964  0.49999999999993616 49662.499999999964 17556.999999999989 7413.4999999999973  0.70710678118658443 49674.999956655862 17569.499956655873 7413.5000000000018  0.49999999999993616 49674.999956655862 17569.499956655876 7400.9999999999964  0.70710678118658443 49674.999956655862 17569.49995665588 7388.5000000000045  0.49999999999993616 49662.499999999964 17557 7388.5000000000009  0.70710678118658443 49650.000043344051 17544.500043344098 7388.5000000000009  0.49999999999993616 
49650.000000000218 17456.999938702022 7401.0000000000064  1 49650.000000000226 17456.999938702033 7413.5000000000091  0.70710678118642034 49662.500000000058 17457.000000000004 7413.5000000000109  1 49674.999999999905 17457.000061297986 7413.5000000000091  0.70710678118642034 49674.999999999898 17457.000061297978 7401.0000000000127  1 49674.999999999905 17457.000061297975 7388.5000000000064  0.70710678118642034 49662.500000000058 17456.999999999989 7388.5000000000045  1 49650.000000000226 17456.999938702018 7388.5000000000064  0.70710678118642034 
49649.999999999905 17430.000030648971 7400.9999999999973  1 49649.999999999898 17430.000030648975 7413.5000000000045  0.70710678118642034 49662.5 17429.999999999985 7413.5000000000064  1 49675.000000000095 17429.999969351004 7413.5000000000045  0.70710678118642034 49675.000000000087 17429.999969351004 7401.0000000000009  1 49675.000000000095 17429.999969350996 7388.5000000000045  0.70710678118642034 49662.5 17429.999999999985 7388.5000000000036  1 49649.999999999898 17430.000030648975 7388.5000000000018  0.70710678118642034 
49650.000000000007 17403 7401.0000000000036  1 49650 17403.000000000004 7413.5000000000036  0.70710678118642034 49662.500000000007 17403.000000000004 7413.5000000000055  1 49675.000000000015 17403.000000000004 7413.5000000000073  0.70710678118642034 49675.000000000015 17403 7401.0000000000073  1 49675.000000000015 17402.999999999996 7388.5000000000064  0.70710678118642034 49662.500000000007 17402.999999999996 7388.5000000000045  1 49650 17402.999999999996 7388.5000000000027  0.70710678118642034 

0 3
0.61482576169947267 2
0.75902060924372283 2
0.8140796326794919 3

0 2
0.25000000000000944 2
0.49999999999999378 2
0.74999999999998446 2
1 2

1 48959.500000000007 17556.999999999996 7401.0000000000027 -1 -5.8917308106144144e-15 2.8133014620774777e-16 2.8133014620774777e-16 0 1 -5.8917308106144144e-15 1 1.6575214903668454e-30 
1 49662.500000000007 17403 7401.0000000000055 2.4140423000629357e-26 1 -1.5523128473538728e-13 0 1.5523128473538728e-13 1 -1 2.4140423000629357e-26 -3.7473488764433881e-39 
Triangulations 0

TShapes 20
Ve
1e-07
48959.5 17544.5 7401
0 0

0101101
*
Ve
1e-07
49650 17403 7401
0 0

0101101
*
Ed
 1e-07 1 1 0
1  1 0 0 0.814079632679492
2  1 1 0 0 0.814079632679492
0

0101000
+20 0 -19 0 *
Ed
 1e-07 1 1 0
1  2 0 0 1
2  2 1 0 0 1
0

0101000
+19 0 -19 0 *
Ed
 1e-07 1 1 0
1  3 0 -0.814079632679492 -0
2  3 1 0 -0.814079632679492 -0
0

0101000
+19 0 -20 0 *
Wi

0101100
+18 0 +17 0 +16 0 *
Fa
0  1e-07 1 0

0111000
+15 0 *
Sh

0101000
+14 0 *
Ve
1e-07
48959.5 17544.5 7401
0 0

0101101
*
Ed
 1e-07 1 1 0
1  4 0 0 6.28318530717959
0

0101000
+12 0 -12 0 *
Wi

0101000
+11 0 *
Fa
0  1e-07 2 0

0111000
+10 0 *
Sh

0101000
+9 0 *
Ve
1e-07
49650 17403 7401
0 0

0101101
*
Ed
 1e-07 1 1 0
1  5 0 0 6.28318530717959
0

0101000
+7 0 -7 0 *
Wi

0101000
+6 0 *
Fa
0  1e-07 3 0

0111000
+5 0 *
Sh

0101000
+4 0 *
Co

0100000
+13 0 +8 0 +3 0 *
Co

1100000
+2 0 *

+1 0 
0

