DBRep_DrawableShape

CASCADE Topology V1, (c) Matra-Datavision
Locations 0
Curve2ds 24
1 0 -402.19854897618643 0 1 
1 0 -392.19854897618643 0 -1 
1 0 -402.19854897618643 1 0 
1 6.2831853071795862 -392.19854897618643 -1 0 
1 0 -359.95419799127558 0 1 
1 0 -349.95419799127558 0 -1 
1 0 -359.95419799127558 1 0 
1 6.2831853071795862 -349.95419799127558 -1 0 
1 0 0 1 0 
1 1.5707963267948966 0 0 1 
1 1.5707963267948966 10 -1 0 
1 0 10 0 -1 
1 0 0 1 0 
1 1.5707963267948966 0 0 1 
1 1.5707963267948966 10 -1 0 
1 0 10 0 -1 
1 0 0 1 0 
1 1.5707963267948966 0 0 1 
1 1.5707963267948966 10 -1 0 
1 0 10 0 -1 
1 0 0 1 0 
1 1.5707963267948966 0 0 1 
1 1.5707963267948966 10 -1 0 
1 0 10 0 -1 
Curves 60
1 24144.499999999996 5622.9999999999982 11750.000000000009 0 0 -1 
1 24144.499999999996 5622.9999999999982 11740.000000000009 0 0 1 
2 24134.999999999996 5622.9999999999982 11750.000000000009 7.0729224038534757e-27 -7.4523757435637498e-27 1 1 -5.9211894646675578e-15 -7.0729224038535202e-27 5.9211894646675578e-15 1 7.4523757435637082e-27 9.5
2 24134.999999999996 5622.9999999999982 11740.000000000009 -7.0729224038534757e-27 7.4523757435637498e-27 -1 1 -5.9211894646675578e-15 -7.0729224038535202e-27 -5.9211894646675578e-15 -1 -7.4523757435637082e-27 9.5
1 24074.499999999996 5622.9999999999991 11750.000000000009 0 0 -1 
1 24074.499999999996 5622.9999999999991 11740.000000000009 0 0 1 
2 24064.999999999996 5622.9999999999991 11750.000000000009 7.0729224038534757e-27 -7.4523757435637498e-27 1 1 -5.9211894646675578e-15 -7.0729224038535202e-27 5.9211894646675578e-15 1 7.4523757435637082e-27 9.5
2 24064.999999999996 5622.9999999999991 11740.000000000009 -7.0729224038534757e-27 7.4523757435637498e-27 -1 1 -5.9211894646675578e-15 -7.0729224038535202e-27 -5.9211894646675578e-15 -1 -7.4523757435637082e-27 9.5
1 24025 5563 11750.000000000009 1 -5.9211894646675578e-15 0 
2 24174.999999999996 5587.9999999999991 11750.000000000011 4.7531423241764584e-14 -4.7531423241761201e-14 1 2.2204460492503087e-14 -1 -4.7531423241762255e-14 1 2.2204460492505346e-14 -4.753142324176353e-14 25.00000000000005
1 24199.999999999996 5587.9999999999991 11750.000000000009 0 1 0 
2 24174.999999999996 5663.0000000000009 11750.000000000011 3.6533276404076404e-14 3.653327640407381e-14 1 1 -5.7454041524357973e-14 -3.6533276404074303e-14 5.7454041524356635e-14 1 -3.6533276404075912e-14 24.999999999997335
1 24174.999999999996 5688 11750.000000000009 -1 5.9211894646675578e-15 0 
2 24025 5663.0000000000009 11750.000000000009 -3.0253577421046983e-14 3.0253577421044831e-14 1 4.1633363423443828e-15 1 -3.0253577421044704e-14 -1 4.1633363423434677e-15 -3.0253577421047109e-14 24.999999999999726
1 24000 5663 11750.000000000009 0 -1 0 
2 24025.000000000004 5588 11750.000000000009 -8.291978215168491e-15 -8.2919782151679026e-15 1 -1 1.5820678100906991e-14 -8.2919782151683601e-15 -1.5820678100906922e-14 -1 -8.2919782151680335e-15 25.000000000002352
2 24064.999999999996 5622.9999999999991 11750.000000000009 -7.0729224038534757e-27 7.4523757435637498e-27 -1 1 -5.9211894646675578e-15 -7.0729224038535202e-27 -5.9211894646675578e-15 -1 -7.4523757435637082e-27 9.5
2 24134.999999999996 5622.9999999999982 11750.000000000009 -7.0729224038534757e-27 7.4523757435637498e-27 -1 1 -5.9211894646675578e-15 -7.0729224038535202e-27 -5.9211894646675578e-15 -1 -7.4523757435637082e-27 9.5
1 24174.999999999996 5563 11740.000000000009 -1 0 0 
2 24025 5587.9999999999991 11740.000000000009 7.1817551905466651e-15 7.1817551905461555e-15 -1 1.5681900222830601e-14 -1 -7.1817551905460435e-15 -1 -1.5681900222830551e-14 -7.1817551905467771e-15 24.999999999999577
1 24000 5588 11740.000000000009 0 1 0 
2 24025.000000000004 5662.9999999999982 11740.000000000007 -5.159067617555425e-14 5.1590676175550577e-14 -1 -1 7.5356387796421948e-14 5.1590676175558138e-14 7.5356387796424612e-14 1 5.159067617554669e-14 25.000000000003499
1 24025 5688.0000000000009 11740.000000000009 1 -5.9211894646675578e-15 0 
2 24174.999999999993 5662.9999999999991 11740.000000000009 1.2906342661265918e-14 1.2906342661265001e-14 -1 1.5112910922709837e-13 1 1.2906342661266951e-14 1 -1.5112910922709855e-13 1.2906342661263967e-14 25.000000000000174
1 24199.999999999996 5662.9999999999991 11740.000000000009 0 -1 0 
2 24174.999999999996 5587.9999999999991 11740.000000000007 4.4304837576450083e-14 -4.4304837576446927e-14 -1 1 1.2490009027033678e-15 4.4304837576450026e-14 1.2490009027014049e-15 -1 4.4304837576446984e-14 24.999999999998668
2 24064.999999999996 5622.9999999999991 11740.000000000009 7.0729224038534757e-27 -7.4523757435637498e-27 1 1 -5.9211894646675578e-15 -7.0729224038535202e-27 5.9211894646675578e-15 1 7.4523757435637082e-27 9.5
2 24134.999999999996 5622.9999999999982 11740.000000000009 7.0729224038534757e-27 -7.4523757435637498e-27 1 1 -5.9211894646675578e-15 -7.0729224038535202e-27 5.9211894646675578e-15 1 7.4523757435637082e-27 9.5
1 24174.999999999996 5563 11750.000000000009 -1 0 0 
1 24025 5563 11750.000000000009 0 0 -1 
1 24025 5563 11740.000000000009 1 0 0 
1 24174.999999999996 5563 11740.000000000009 0 0 1 
2 24025.000000000004 5588 11750.000000000009 8.2919782151684926e-15 8.2919782151679026e-15 -1 -1.5085155347094337e-13 -1 -8.2919782151691537e-15 -1 1.5085155347094345e-13 -8.2919782151672415e-15 24.999999999999961
1 24000 5588 11750.000000000009 0 0 -1 
2 24025.000000000004 5588.0000000000018 11740.000000000009 -7.1817551905445004e-15 -7.1817551905439893e-15 1 -1 -6.938893903906336e-14 -7.181755190544999e-15 6.9388939039063411e-14 -1 -7.1817551905434907e-15 25.000000000003215
1 24025 5563 11740.000000000009 0 0 1 
1 23999.999999999996 5588 11750.000000000009 0 1 0 
1 23999.999999999996 5663 11750.000000000009 0 0 -1 
1 23999.999999999996 5663 11740.000000000009 0 -1 0 
1 23999.999999999996 5588 11740.000000000009 0 0 1 
2 24025.000000000004 5663 11750.000000000009 8.2919782151683964e-15 -8.2919782151678063e-15 -1 -1 -4.3021142204220769e-15 -8.2919782151683601e-15 -4.3021142204220083e-15 1 -8.2919782151678426e-15 25.000000000002352
1 24025 5688.0000000000009 11750.000000000009 0 0 -1 
2 24025 5663.0000000000009 11740.000000000007 5.1590676175569807e-14 -5.1590676175566134e-14 1 4.1633363423443828e-15 1 5.1590676175565919e-14 -1 4.1633363423417212e-15 5.1590676175570021e-14 24.999999999999726
1 24000 5663 11740.000000000009 -3.5527136788005767e-13 0 1 
1 24025 5688 11750.000000000009 1 0 0 
1 24174.999999999996 5688 11750.000000000009 0 0 -1 
1 24174.999999999996 5688 11740.000000000009 -1 0 0 
1 24025 5688 11740.000000000009 0 0 1 
2 24174.999999999996 5663 11750.000000000009 -8.2919782151697406e-15 -8.291978215169149e-15 -1 3.6082248300317761e-15 1 -8.2919782151691789e-15 1 -3.6082248300318447e-15 -8.2919782151697106e-15 24.999999999999879
1 24199.999999999996 5662.9999999999991 11750.000000000009 0 0 -1 
2 24174.999999999996 5663.0000000000009 11740.000000000009 -1.2906342661269157e-14 -1.2906342661268243e-14 1 1 -5.7454041524357973e-14 1.2906342661268415e-14 5.7454041524357808e-14 1 1.2906342661268985e-14 24.999999999997335
1 24174.999999999996 5688 11740.000000000009 0 0 1 
1 24200 5662.9999999999991 11750.000000000009 0 -1 0 
1 24200 5587.9999999999991 11750.000000000009 0 0 -1 
1 24200 5587.9999999999991 11740.000000000009 0 1 0 
1 24200 5662.9999999999991 11740.000000000009 0 0 1 
2 24174.999999999996 5587.9999999999982 11750.000000000009 -8.2919782151698006e-15 8.2919782151692105e-15 -1 1 2.6367796834848872e-14 -8.2919782151695813e-15 2.6367796834848803e-14 -1 -8.2919782151694298e-15 24.999999999998668
1 24174.999999999996 5562.9999999999991 11750.000000000009 0 0 -1 
2 24174.999999999993 5587.9999999999991 11740.000000000009 -3.0600522116228416e-14 3.0600522116226239e-14 1 1.4765966227514458e-13 -1 3.0600522116230757e-14 1 1.4765966227514552e-13 3.0600522116223897e-14 25.00000000000021
1 24199.999999999996 5587.9999999999991 11740.000000000009 3.5527136788005767e-13 0 1 
Polygon3D 0
PolygonOnTriangulations 0
Surfaces 12
10 0 6.2831853071795862 -402.19854897618643 -392.19854897618643
2 24134.999999999996 5622.9999999999982 11347.801451023823 -0 -0 -1 1 -5.9211894646675578e-15 0 5.9211894646675578e-15 1 -0 9.5
10 0 6.2831853071795862 -359.95419799127558 -349.95419799127558
2 24064.999999999996 5622.9999999999991 11390.045802008734 -0 -0 -1 1 -5.9211894646675578e-15 0 5.9211894646675578e-15 1 -0 9.5
1 24100 5625.5000000000027 11750.000000000009 7.0729224038534757e-27 -7.4523757435637498e-27 1 1 0 -7.0729224038534757e-27 5.2710075358586252e-53 1 7.4523757435637498e-27 
1 24100 5625.5000000000027 11740.000000000009 7.0729224038534757e-27 -7.4523757435637498e-27 1 1 0 -7.0729224038534757e-27 -5.2710075358586252e-53 -1 -7.4523757435637498e-27 
1 24099.999999999996 5563 11750.000000000009 3.231085104332676e-15 1 7.4523757435637269e-27 0 -7.4523757435637269e-27 1 -1 3.231085104332676e-15 2.4079260256918909e-41 
2 24025 5588 11750.000000000009 0 2.6645352591003757e-15 -1 -3.231085104332676e-15 -1 -2.6645352591003757e-15 -1 3.231085104332676e-15 8.6093401856484314e-30 25
1 23999.999999999996 5625.5 11750.000000000009 1 -3.231085104332676e-15 -7.0729224038535001e-27 -7.0729224038535001e-27 0 -1 -3.231085104332676e-15 -1 2.2853214223191908e-41 
2 24025 5663 11750.000000000009 0 2.6645352591003757e-15 -1 -1 3.231085104332676e-15 8.6093401856484314e-30 3.231085104332676e-15 1 2.6645352591003757e-15 24.999999999999993
1 24099.999999999996 5688 11750.000000000009 -3.231085104332676e-15 -1 -7.4523757435637269e-27 0 7.4523757435637269e-27 -1 -1 3.231085104332676e-15 2.4079260256918909e-41 
2 24174.999999999996 5662.9999999999991 11750.000000000009 0 2.6645352591003757e-15 -1 3.231085104332676e-15 1 2.6645352591003757e-15 1 -3.231085104332676e-15 -8.6093401856484314e-30 25
1 24200 5625.5 11750.000000000009 -1 3.231085104332676e-15 7.0729224038535001e-27 7.0729224038535001e-27 0 1 -3.231085104332676e-15 -1 2.2853214223191908e-41 
2 24174.999999999996 5587.9999999999991 11750.000000000009 0 2.6645352591003757e-15 -1 1 -3.231085104332676e-15 -8.6093401856484314e-30 -3.231085104332676e-15 -1 -2.6645352591003757e-15 24.999999999999993
Triangulations 0

TShapes 174
Ve
1e-07
24144.5 5623 11740
0 0

0101101
*
Ve
1.0001e-07
24144.5 5623 11750
0 0

0101101
*
Ed
 1e-07 1 1 0
1  1 0 0 10
2  1 1 0 0 10
0

0101000
-174 0 +173 0 *
Ed
 1e-07 1 1 0
1  2 0 0 10
2  2 1 0 0 10
0

0101000
-173 0 +174 0 *
Wi

0101100
-172 0 -171 0 *
Fa
0  1e-07 1 0

0111000
+170 0 *
Sh

0101000
+169 0 *
Ed
 1e-07 1 1 0
1  3 0 0 6.28318530717959
2  3 1 0 0 6.28318530717959
0

0101000
+173 0 -173 0 *
Wi

0101100
+167 0 *
Fa
0  1e-07 1 0

0111000
+166 0 *
Sh

0101000
+165 0 *
Ve
1e-07
24144.5 5623 11740
0 0

0101101
*
Ed
 1e-07 1 1 0
1  4 0 0 6.28318530717959
2  4 1 0 0 6.28318530717959
0

0101000
+163 0 -163 0 *
Wi

0101100
+162 0 *
Fa
0  1e-07 1 0

0111000
+161 0 *
Sh

0101000
+160 0 *
Co

0100000
+168 0 +164 0 +159 0 *
Ve
1e-07
24074.5 5623 11740
0 0

0101101
*
Ve
1.0001e-07
24074.5 5623 11750
0 0

0101101
*
Ed
 1e-07 1 1 0
1  5 0 0 10
2  5 2 0 0 10
0

0101000
-157 0 +156 0 *
Ed
 1e-07 1 1 0
1  6 0 0 10
2  6 2 0 0 10
0

0101000
-156 0 +157 0 *
Wi

0101100
-155 0 -154 0 *
Fa
0  1e-07 2 0

0111000
+153 0 *
Sh

0101000
+152 0 *
Ed
 1e-07 1 1 0
1  7 0 0 6.28318530717959
2  7 2 0 0 6.28318530717959
0

0101000
+156 0 -156 0 *
Wi

0101100
+150 0 *
Fa
0  1e-07 2 0

0111000
+149 0 *
Sh

0101000
+148 0 *
Ve
1e-07
24074.5 5623 11740
0 0

0101101
*
Ed
 1e-07 1 1 0
1  8 0 0 6.28318530717959
2  8 2 0 0 6.28318530717959
0

0101000
+146 0 -146 0 *
Wi

0101100
+145 0 *
Fa
0  1e-07 2 0

0111000
+144 0 *
Sh

0101000
+143 0 *
Co

0100000
+151 0 +147 0 +142 0 *
Ve
1e-07
24025 5563 11750
0 0

0101101
*
Ve
1e-07
24175 5563 11750
0 0

0101101
*
Ed
 1e-07 1 1 0
1  9 0 0 149.999999999996
0

0101000
+140 0 -139 0 *
Ve
1e-07
24200 5588 11750
0 0

0101101
*
Ed
 1e-07 1 1 0
1  10 0 0 1.57079632679491
0

0101000
+139 0 -137 0 *
Ve
1e-07
24200 5663 11750
0 0

0101101
*
Ed
 1e-07 1 1 0
1  11 0 9.09494701772928e-13 75
0

0101000
+137 0 -135 0 *
Ve
1e-07
24175 5688 11750
0 0

0101101
*
Ed
 1e-07 1 1 0
1  12 0 0 1.5707963267951
0

0101000
+135 0 -133 0 *
Ve
1e-07
24025 5688 11750
0 0

0101101
*
Ed
 1e-07 1 1 0
1  13 0 3.63797880709171e-12 149.999999999996
0

0101000
+133 0 -131 0 *
Ve
1e-07
24000 5663 11750
0 0

0101101
*
Ed
 1e-07 1 1 0
1  14 0 0 1.57079632679494
0

0101000
+131 0 -129 0 *
Ve
1e-07
24000 5588 11750
0 0

0101101
*
Ed
 1e-07 1 1 0
1  15 0 0 75
0

0101000
+129 0 -127 0 *
Ed
 1e-07 1 1 0
1  16 0 0 1.57079632679477
0

0101000
+127 0 -140 0 *
Wi

0101000
+138 0 +136 0 +134 0 +132 0 +130 0 +128 0 +126 0 +125 0 *
Ve
1e-07
24074.5 5623 11750
0 0

0101101
*
Ed
 1e-07 1 1 0
1  17 0 0 6.28318530717959
0

0101000
+123 0 -123 0 *
Wi

0101000
+122 0 *
Ve
1e-07
24144.5 5623 11750
0 0

0101101
*
Ed
 1e-07 1 1 0
1  18 0 0 6.28318530717959
0

0101000
+120 0 -120 0 *
Wi

0101000
+119 0 *
Fa
0  1e-07 3 0

0111000
+124 0 +121 0 +118 0 *
Sh

0101000
+117 0 *
Ve
1e-07
24175 5563 11740
0 0

0101101
*
Ve
1e-07
24025 5563 11740
0 0

0101101
*
Ed
 1e-07 1 1 0
1  19 0 0 149.999999999996
0

0101000
+115 0 -114 0 *
Ve
1e-07
24000 5588 11740
0 0

0101101
*
Ed
 1e-07 1 1 0
1  20 0 0 1.57079632679495
0

0101000
+114 0 -112 0 *
Ve
1e-07
24000 5663 11740
0 0

0101101
*
Ed
 1e-07 1 1 0
1  21 0 0 75
0

0101000
+112 0 -110 0 *
Ve
1e-07
24025 5688 11740
0 0

0101101
*
Ed
 1e-07 1 1 0
1  22 0 0 1.57079632679468
0

0101000
+110 0 -108 0 *
Ve
1e-07
24175 5688 11740
0 0

0101101
*
Ed
 1e-07 1 1 0
1  23 0 -1.07705808926177e-26 149.999999999996
0

0101000
+108 0 -106 0 *
Ve
1e-07
24200 5663 11740
0 0

0101101
*
Ed
 1e-07 1 1 0
1  24 0 0 1.57079632679475
0

0101000
+106 0 -104 0 *
Ve
1e-07
24200 5588 11740
0 0

0101101
*
Ed
 1e-07 1 1 0
1  25 0 0 75
0

0101000
+104 0 -102 0 *
Ed
 1e-07 1 1 0
1  26 0 0 1.5707963267949
0

0101000
+102 0 -115 0 *
Wi

0101000
+113 0 +111 0 +109 0 +107 0 +105 0 +103 0 +101 0 +100 0 *
Ve
1e-07
24074.5 5623 11740
0 0

0101101
*
Ed
 1e-07 1 1 0
1  27 0 0 6.28318530717959
0

0101000
+98 0 -98 0 *
Wi

0101000
+97 0 *
Ve
1e-07
24144.5 5623 11740
0 0

0101101
*
Ed
 1e-07 1 1 0
1  28 0 0 6.28318530717959
0

0101000
+95 0 -95 0 *
Wi

0101000
+94 0 *
Fa
0  1e-07 4 0

0111000
+99 0 +96 0 +93 0 *
Sh

0101000
+92 0 *
Ve
1e-07
24175 5563 11750
0 0

0101101
*
Ve
1e-07
24025 5563 11750
0 0

0101101
*
Ed
 1e-07 1 1 0
1  29 0 0 149.999999999996
0

0101000
+90 0 -89 0 *
Ve
1e-07
24025 5563 11740
0 0

0101101
*
Ed
 1e-07 1 1 0
1  30 0 0 10
0

0101000
+89 0 -87 0 *
Ve
1e-07
24175 5563 11740
0 0

0101101
*
Ed
 1e-07 1 1 0
1  31 0 0 149.999999999996
0

0101000
+87 0 -85 0 *
Ed
 1e-07 1 1 0
1  32 0 0 10
0

0101000
+85 0 -90 0 *
Wi

0101000
+88 0 +86 0 +84 0 +83 0 *
Fa
0  1e-07 5 0

0111000
+82 0 *
Sh

0101000
+81 0 *
Ve
1e-07
24025 5563 11750
0 0

0101101
*
Ve
1e-07
24000 5588 11750
0 0

0101101
*
Ed
 1e-07 1 1 0
1  33 0 0 1.57079632679475
2  9 6 0 0 1.57079632679475
0

0101000
+79 0 -78 0 *
Ve
1e-07
24000 5588 11740
0 0

0101101
*
Ed
 1e-07 1 1 0
1  34 0 0 10
2  10 6 0 0 10
0

0101000
+78 0 -76 0 *
Ve
1e-07
24025 5563 11740
0 0

0101101
*
Ed
 1e-07 1 1 0
1  35 0 0 1.57079632679454
2  11 6 0 0 1.57079632679454
0

0101000
+76 0 -74 0 *
Ed
 1e-07 1 1 0
1  36 0 0 10
2  12 6 0 0 10
0

0101000
+74 0 -79 0 *
Wi

0101000
+77 0 +75 0 +73 0 +72 0 *
Fa
0  1e-07 6 0

0111000
+71 0 *
Sh

0101000
+70 0 *
Ve
1e-07
24000 5588 11750
0 0

0101101
*
Ve
1e-07
24000 5663 11750
0 0

0101101
*
Ed
 1e-07 1 1 0
1  37 0 0 75
0

0101000
+68 0 -67 0 *
Ve
1e-07
24000 5663 11740
0 0

0101101
*
Ed
 1e-07 1 1 0
1  38 0 0 10
0

0101000
+67 0 -65 0 *
Ve
1e-07
24000 5588 11740
0 0

0101101
*
Ed
 1e-07 1 1 0
1  39 0 0 75
0

0101000
+65 0 -63 0 *
Ed
 1e-07 1 1 0
1  40 0 0 10
0

0101000
+63 0 -68 0 *
Wi

0101000
+66 0 +64 0 +62 0 +61 0 *
Fa
0  1e-07 7 0

0111000
+60 0 *
Sh

0101000
+59 0 *
Ve
1e-07
24000 5663 11750
0 0

0101101
*
Ve
1e-07
24025 5688 11750
0 0

0101101
*
Ed
 1e-07 1 1 0
1  41 0 0 1.57079632679476
2  13 8 0 0 1.57079632679476
0

0101000
+57 0 -56 0 *
Ve
1e-07
24025 5688 11740
0 0

0101101
*
Ed
 1e-07 1 1 0
1  42 0 0 10
2  14 8 0 0 10
0

0101000
+56 0 -54 0 *
Ve
1e-07
24000 5663 11740
0 0

0101101
*
Ed
 1e-07 1 1 0
1  43 0 0 1.57079632679494
2  15 8 0 0 1.57079632679494
0

0101000
+54 0 -52 0 *
Ed
 1e-07 1 1 0
1  44 0 0 10
2  16 8 0 0 10
0

0101000
+52 0 -57 0 *
Wi

0101000
+55 0 +53 0 +51 0 +50 0 *
Fa
0  1e-07 8 0

0111000
+49 0 *
Sh

0101000
+48 0 *
Ve
1e-07
24025 5688 11750
0 0

0101101
*
Ve
1e-07
24175 5688 11750
0 0

0101101
*
Ed
 1e-07 1 1 0
1  45 0 0 149.999999999996
0

0101000
+46 0 -45 0 *
Ve
1e-07
24175 5688 11740
0 0

0101101
*
Ed
 1e-07 1 1 0
1  46 0 0 10
0

0101000
+45 0 -43 0 *
Ve
1e-07
24025 5688 11740
0 0

0101101
*
Ed
 1e-07 1 1 0
1  47 0 0 149.999999999996
0

0101000
+43 0 -41 0 *
Ed
 1e-07 1 1 0
1  48 0 0 10
0

0101000
+41 0 -46 0 *
Wi

0101000
+44 0 +42 0 +40 0 +39 0 *
Fa
0  1e-07 9 0

0111000
+38 0 *
Sh

0101000
+37 0 *
Ve
1e-07
24175 5688 11750
0 0

0101101
*
Ve
1e-07
24200 5663 11750
0 0

0101101
*
Ed
 1e-07 1 1 0
1  49 0 0 1.57079632679489
2  17 10 0 0 1.57079632679489
0

0101000
+35 0 -34 0 *
Ve
1e-07
24200 5663 11740
0 0

0101101
*
Ed
 1e-07 1 1 0
1  50 0 0 10
2  18 10 0 0 10
0

0101000
+34 0 -32 0 *
Ve
1e-07
24175 5688 11740
0 0

0101101
*
Ed
 1e-07 1 1 0
1  51 0 0 1.5707963267951
2  19 10 0 0 1.5707963267951
0

0101000
+32 0 -30 0 *
Ed
 1e-07 1 1 0
1  52 0 0 10
2  20 10 0 0 10
0

0101000
+30 0 -35 0 *
Wi

0101000
+33 0 +31 0 +29 0 +28 0 *
Fa
0  1e-07 10 0

0111000
+27 0 *
Sh

0101000
+26 0 *
Ve
1e-07
24200 5663 11750
0 0

0101101
*
Ve
1e-07
24200 5588 11750
0 0

0101101
*
Ed
 1e-07 1 1 0
1  53 0 0 75
0

0101000
+24 0 -23 0 *
Ve
1e-07
24200 5588 11740
0 0

0101101
*
Ed
 1e-07 1 1 0
1  54 0 0 10
0

0101000
+23 0 -21 0 *
Ve
1e-07
24200 5663 11740
0 0

0101101
*
Ed
 1e-07 1 1 0
1  55 0 0 75
0

0101000
+21 0 -19 0 *
Ed
 1e-07 1 1 0
1  56 0 0 10
0

0101000
+19 0 -24 0 *
Wi

0101000
+22 0 +20 0 +18 0 +17 0 *
Fa
0  1e-07 11 0

0111000
+16 0 *
Sh

0101000
+15 0 *
Ve
1e-07
24200 5588 11750
0 0

0101101
*
Ve
1e-07
24175 5563 11750
0 0

0101101
*
Ed
 1e-07 1 1 0
1  57 0 0 1.57079632679492
2  21 12 0 0 1.57079632679492
0

0101000
+13 0 -12 0 *
Ve
1e-07
24175 5563 11740
0 0

0101101
*
Ed
 1e-07 1 1 0
1  58 0 0 10
2  22 12 0 0 10
0

0101000
+12 0 -10 0 *
Ve
1e-07
24200 5588 11740
0 0

0101101
*
Ed
 1e-07 1 1 0
1  59 0 0 1.57079632679475
2  23 12 0 0 1.57079632679475
0

0101000
+10 0 -8 0 *
Ed
 1e-07 1 1 0
1  60 0 -1.29246970711413e-24 10
2  24 12 0 -1.29246970711413e-24 10
0

0101000
+8 0 -13 0 *
Wi

0101000
+11 0 +9 0 +7 0 +6 0 *
Fa
0  1e-07 12 0

0111000
+5 0 *
Sh

0101000
+4 0 *
Co

0100000
+158 0 +141 0 +116 0 +91 0 +80 0 +69 0 +58 0 +47 0 +36 0 +25 0 
+14 0 +3 0 *
Co

1100000
+2 0 *

+1 0 
0

