DBRep_DrawableShape

CASCADE Topology V1, (c) Matra-Datavision
Locations 0
Curve2ds 3
1 0.99999999999999978 1.0000000000000002 -1.5034084960966971e-015 -1 
1 3.3517972226840662e-016 0.99999999999999956 -1.2600762993473722e-015 -1 
1 0.99999999999999956 1.0000000000000004 8.8121432927349715e-016 -1 
Curves 2
7 0 0  3 6 4  17910.4981204 19830.409494539999 12372.75735686  17825.74426182 20139.72678547 12839.954251789999  17649.888855310001 20615.927539389999 13809.339022439999  17366.83926375 20959.761782969999 15369.620676120001  17170.532071559999 20989.344262820003 16451.743799209999  17071.07330159 20969.419512200002 17000 
 0 4 0.33333333332999998 1 0.66666666666999996 1 1 4
7 0 0  3 6 4  11301.994544930001 17127.89387539 11711.9068694  11239.96967248 17665.426060139998 12169.007489289999  11101.55740908 18574.842702530001 13189.33275009  10863.525916800001 19351.13943734 14945.25350848  10681.050049019999 19474.67837677 16292.44296885  10585.258431239999 19447.820234729999 17000 
 0 4 0.33333333332999998 1 0.66666666666999996 1 1 4
Polygon3D 0
PolygonOnTriangulations 0
Surfaces 2
10 0.26140780405222258 1 0.31494981123536708 0.86909878261206264
9 0 0 0 0 3 3 6 6 4 4 24826.73652309 22193.913615289999 17000  24919.869145640001 22204.68382355 16567.552050890001  25106.986931249998 22206.737602960002 15698.69752378  25384.79657124 22093.454118909998 14408.728370480001  25566.858863330002 21899.298765889998 13563.34828486  25656.44831105 21765.557861510002 13147.352558890001  
23959.759909289998 22093.653164839998 17000  24054.288795480003 22104.30383877 16552.675214949999  24238.75750625 22105.911322600001 15662.66631493  24516.07536531 21974.436183270001 14342.42872484  24693.512850560001 21756.090376580003 13483.028963950001  24782.99723642 21608.513931969999 13060.00743215  
22228.753515059998 21869.304521939997 17000  22324.365261499999 21883.504529639999 16526.760450809998  22508.95569228 21877.880225559999 15589.253018990001  22784.14808992 21705.976016560002 14210.496959689999  22956.447866129998 21438.534872050001 13320.269002950001  23042.415053780001 21257.156817159997 12885.949175869999  
19642.755417410001 21460.687182779999 17000  19740.492258260001 21477.802952270002 16488.25933877  19927.188638890002 21461.899824519998 15479.99656102  20203.056059099999 21214.712063810002 14012.083993459999  20371.76875395 20853.231066569999 13078.79956594  20456.765968629999 20612.703286979999 12627.38422498  
17926.813962050001 21140.851546440001 17000  18026.999749899998 21162.488260500002 16462.013160229999  18218.02397962 21133.512541759999 15407.585764449999  18498.978215619998 20827.092264769999 13876.715441259999  18670.200531009999 20389.280552740001 12918.361699839999  18754.45938728 20105.31794062 12457.15350217  
17071.07330159 20969.419512200002 17000  17170.532071559999 20989.344262820003 16451.743799209999  17366.83926375 20959.761782969999 15369.620676120001  17649.888855310001 20615.927539389999 13809.339022439999  17825.74426182 20139.72678547 12839.954251789999  17910.4981204 19830.409494539999 12372.75735686  

0 4
0.33333333332999998 1
0.66666666666999996 1
1 4

0 4
0.33333333332999998 1
0.66666666666999996 1
1 4

10 0 1 0.24934140139086988 0.75856818828712391
9 0 0 0 0 3 3 9 6 7 4 17071.07330159 20969.419512200002 17000  17170.532071559999 20989.344262820003 16451.743799209999  17366.83926375 20959.761782969999 15369.620676120001  17649.888855310001 20615.927539389999 13809.339022439999  17825.74426182 20139.72678547 12839.954251789999  17910.4981204 19830.409494539999 12372.75735686  
16708.101623070001 20896.704756319999 17000  16808.699765909998 20919.3820223 16440.443462299998  17000.13003588 20881.567074279999 15347.35414465  17279.723976869998 20523.27833931 13775.159195640001  17449.197407700001 20026.17830634 12801.201430949999  17533.272169389998 19707.533476319997 12335.03475343  
15983.001733659999 20747.159981889999 17000  16082.762713520002 20769.026540839997 16423.159520289999  16270.138867930002 20725.042974200001 15300.383321920001  16540.052718670002 20329.102106299997 13707.06037091  16701.880449259999 19793.687547789999 12726.87244728  16781.349939209998 19453.26905522 12259.84254157  
14897.9447005 20510.750048830003 17000  14996.293227689999 20533.398352959997 16396.652895260002  15179.370349090001 20475.895186430003 15230.519890289999  15436.47211875 20018.96877222 13604.42178244  15588.58703445 19420.666159260003 12615.905278550001  15662.30114548 19045.117417970003 12147.93761988  
13815.545007889999 20262.483698 17000  13913.09036661 20285.226326570002 16370.445459070002  14092.800075179999 20214.481051029998 15160.31974623  14339.852596609999 19689.148130879999 13501.25105667  14484.3826008 19022.94713891 12505.53280798  14553.21446718 18609.795396719997 12037.028936409999  
12735.853950610001 20002.65179154 17000  12833.3309125 20025.03028304 16344.108015660002  13010.61425162 19940.70918043 15089.53719972  13251.096745860001 19339.109375529999 13397.728749149999  13390.365845030001 18599.720044200003 12395.507721559999  13455.419631139999 18146.53198154 11927.24942389  
11658.916817610001 19731.581118529997 17000  11756.26770129 19755.489370759999 16317.181307979999  11933.493901009999 19653.791869500001 15018.715318390001  12170.952400190001 18967.736580950001 13293.019344169999  12307.22347038 18151.781535940001 12285.646437670001  12370.218576610001 17654.723793430003 11818.72929705  
10942.827542380001 19543.585108799998 17000  11041.62324864 19565.261202950001 16299.64637715  11218.260432499999 19456.44713724 14970.1971428  11457.66516676 18705.370125240002 13222.162170220001  11594.054924780001 17834.713493940002 12213.05628647  11656.263876810001 17307.01480519 11747.333810400001  
10585.258431239999 19447.820234729999 17000  10681.050049019999 19474.67837677 16292.44296885  10863.525916800001 19351.13943734 14945.25350848  11101.55740908 18574.842702530001 13189.33275009  11239.96967248 17665.426060139998 12169.007489289999  11301.994544930001 17127.89387539 11711.9068694  

0 4
0.16666666666999999 1
0.33333333332999998 1
0.5 1
0.66666666666999996 1
0.83333333333000004 1
1 4

0 4
0.33333333332999998 1
0.66666666666999996 1
1 4

Triangulations 0

TShapes 23
Ve
1e-007
23100 21909.7886712956 15467
0 0

0101101
*
Ve
1e-007
23099.9999999999 21462.9413320836 13417
0 0

0101101
*
Ed
 2.22044604925031e-016 0 1 0
0

0101000
+23 0 -22 0 *
Ve
1e-007
17349.1737489989 20919.9940130928 15467
0 0

0101101
*
Ed
 2.22044604925031e-016 0 1 0
0

0101000
+20 0 -23 0 *
Ve
1e-007
17721.0628003071 20394.6653276949 13417
0 0

0101101
*
Ed
 1e-007 0 0 0
1  1 0 0.241762058066241 0.684844438207486
2  1 1 0 0.241762058066241 0.684844438207486
2  2 2 0 0.241762058066241 0.684844438207486
4 C0 1 0 2 0
0

0101000
+18 0 -20 0 *
Ed
 2.22044604925031e-016 0 1 0
0

0101000
+18 0 -22 0 *
Wi

0101000
-21 0 -19 0 -17 0 +16 0 *
Fa
0  1e-007 1 0

0111000
+15 0 *
Ve
1e-007
11070.7119688647 18595.8330941615 13417
0 0

0101101
*
Ve
1e-007
16200 20031.0302503211 13417
0 0

0101101
*
Ed
 2.22044604925031e-016 0 0 0
0

0101000
+13 0 -12 0 *
Ed
 2.22044604925031e-016 0 0 0
0

0101000
+12 0 -18 0 *
Ve
1e-007
12100 19701.6680239734 15467
0 0

0101101
*
Ed
 2.22044604925031e-016 0 0 0
0

0101000
+9 0 -20 0 *
Ve
1e-007
10792.8700961171 19354.0807949963 15467
0 0

0101101
*
Ed
 2.22044604925031e-016 0 0 0
0

0101000
+7 0 -9 0 *
Ed
 1e-007 0 0 0
1  2 0 0.371591975223586 0.749555537915693
2  3 2 0 0.371591975223586 0.749555537915693
0

0101000
+13 0 -7 0 *
Wi

0101000
+11 0 +10 0 +17 0 -8 0 -6 0 -5 0 *
Fa
0  1e-007 2 0

0111000
+4 0 *
Sh

0101000
+14 0 +3 0 *
Co

1100000
+2 0 *

+1 0 