DBRep_DrawableShape

CASCADE Topology V1, (c) Matra-Datavision
Locations 0
Curve2ds 4
1 6.2831853071795862 687.64843057646067 -1 0 
7 0 0  3 25 23  1.8103775190070337e-007 687.64843057646067  -0.00039199267537615157 687.37567284892305  -0.0011763401017983455 686.83015739384996  -0.0023528612419339012 686.01188534389826  -0.0035293823825597315 685.19361555924206  -0.0047059035236811653 684.37534917256858  -0.0058824246653017553 683.55708731647064  -0.0070589458074161726 682.73883112364763  -0.008235466950019088 681.92058172668453  -0.0094119880931309297 681.10234025821785  -0.010588509236725052 680.28410785087169  -0.011765030380820996 679.4658856372298  -0.012941551525414319 678.64767474987514  -0.014118072670495252 677.82947632138655  -0.015294593816077118 677.01129148432096  -0.016471114962153699 676.19312137119402  -0.017647636108723219 675.37496711453275  -0.018824157255789231 674.55682984681948  -0.020000678403348182 673.73871070052633  -0.021177199551406289 672.92061080807946  -0.022353720699959112 672.10253130192939  -0.023530241849000433 671.28447331442544  -0.024706762998545351 670.4664379779515  -0.025491110431901554 669.92109694252463  -0.025883284148662256 669.6484305774211 
 1.5707963247138901 4 1.5719728458532802 1 1.5731493669926706 1 1.5743258881320608 1 1.5755024092714509 1 1.5766789304108413 1 1.5778554515502314 1 1.5790319726896218 1 1.580208493829012 1 1.5813850149684021 1 1.5825615361077925 1 1.5837380572471826 1 1.5849145783865728 1 1.5860910995259632 1 1.5872676206653533 1 1.5884441418047435 1 1.5896206629441338 1 1.590797184083524 1 1.5919737052229144 1 1.5931502263623045 1 1.5943267475016947 1 1.595503268641085 1 1.5966797897804752 4
1 -6.2831853071795862 669.64843057646067 1 0 
1 1.5707963267949088 678.64843057646067 0 1 
Curves 18
2 49564 5333.4899999999843 1117.5173062491797 1 0 0 0 -1 0 0 0 -1 75
3 49564 5333.4899999999843 1117.5173062491797 0.10721415880752638 1.799942414845778e-007 0.99423594993902842 -0.99423594993904463 0 0.10721415880752813 1.9297931190968087e-008 -0.99999999999998379 1.7895674566597696e-007 699.53447225791069 75.000000000105686
2 49582 5333.4899999999843 1117.5173062491797 -1 -0 -0 0 -1 0 -0 0 1 75
1 49573 5333.4899999999852 1192.5173062491797 -1 0 0 
1 49582 5293.1307819947297 1115.5762704274237 0 -0.99999999999998368 1.810377521508984e-007 
1 49565.558363088676 5164.9999999999827 1117.349289531971 -0.99423594993904452 0 0.10721415880752812 
1 49564 5293.1307823461311 1117.5173135557211 0 0.99999999999998368 -1.810377521508984e-007 
1 49582 5333.4899999999861 1201.917106490474 0 2.7169604260824171e-014 -1 
1 49582 5310.1485433075331 1447.8969528961327 0 1 0 
1 49582 5141.4329887767044 1394.3299416728537 -0 0.70710678118655013 0.70710678118654491 
1 49582 5164.9999999999827 1184.8993527150094 -0 0 1 
7 0 0  1 2 2  49584.052086615069 5164.9999999999827 1417.8969528961327  49561.947913384902 5164.9999999999827 1417.8969528961327 
 0 2 1 2
1 49564 5164.9999999999827 1184.8993527150094 0 -0 -1 
7 0 0  1 2 2  49584.052086615069 5194.9999999999836 1447.8969528961327  49561.947913384902 5194.9999999999836 1447.8969528961327 
 0 2 1 2
1 49564 5141.4329887767044 1394.3299416728537 0 -0.70710678118655013 -0.70710678118654491 
1 49572.999999999978 5333.489999999977 1447.8969528961327 -1 -2.3816158451453505e-013 0 
1 49564 5310.1485433075331 1447.8969528961327 0 -1 0 
1 49564 5333.4899999999816 1201.917106490474 0 -2.7169604260824171e-014 1 
Polygon3D 0
PolygonOnTriangulations 0
Surfaces 8
2 50251.648430576461 5333.4899999999843 1117.5173062491797 -1 0 0 0 -1 0 0 0 1 75
1 49564 5345.0000000000009 1113.6289080029969 1 0 0 0 0 -1 -0 1 0 
1 49572.999999999985 5241.2615638126172 1116.5468013818609 -0.10721415880752638 -1.799942414845778e-007 -0.99423594993902842 -0.99423594993904452 0 0.1072141588075281 -1.9297931190968087e-008 0.9999999999999839 -1.7895674566597699e-007 
1 49582 5345.0000000000009 1113.6289080029969 1 0 0 0 0 -1 -0 1 0 
1 49572.999999999985 5333.4899999999816 1290.2053049779513 -2.3816158451453505e-013 1 2.7169604260824171e-014 0 -2.7169604260824171e-014 1 1 2.3816158451453505e-013 6.4707560013907472e-027 
1 49572.999999999985 5164.9999999999827 1256.1697974270216 -0 -1 0 0 -0 -1 1 0 0 
1 49572.999999999985 5275.2970866150654 1447.8969528961327 0 0 1 1 0 -0 -0 1 0 
1 49572.999999999985 5179.9999999999836 1432.8969528961327 -0 -0.70710678118654491 0.70710678118655013 1 0 0 -0 0.70710678118655013 0.70710678118654491 
Triangulations 0

TShapes 49
Ve
1e-007
49564 5333.48999999998 1192.51730624918
0 0

0101101
*
Ve
3.47143819454078e-007
49564 5258.48999999999 1117.51731982701
0 0

0101101
*
Ed
 1e-007 1 1 0
1  1 0 4.71238898038473 6.28318512614184
2  1 1 0 4.71238898038473 6.28318512614184
4 C0 1 0 2 0
0

0101000
+49 0 -48 0 *
Ve
3.47256460005717e-007
49582 5258.51512151214 1115.57627669417
0 0

0101101
*
Ed
 3.47143819454078e-007 1 1 0
1  2 0 1.57079632471389 1.59667978978048
2  2 1 0 1.57079632471389 1.59667978978048
4 C0 1 0 3 0
0

0101000
+48 0 -46 0 *
Ve
1e-007
49582 5333.48999999999 1192.51730624918
0 0

0101101
*
Ed
 1e-007 1 1 0
1  3 0 6.25730202314937 7.85398163397451
2  3 1 0 6.25730202314937 7.85398163397451
4 C0 1 0 4 0
0

0101000
+46 0 -44 0 *
Ed
 1e-007 1 1 0
1  4 0 -9 9
2  4 1 0 -9 9
4 C0 1 0 5 0
0

0101000
+44 0 -49 0 *
Wi

0101100
+47 0 +45 0 +43 0 +42 0 *
Fa
0  1e-007 1 0

0101000
+41 0 *
Ve
1e-007
49582 5164.99999999998 1115.57629362393
0 0

0101101
*
Ed
 1e-007 1 1 0
1  5 0 34.6156604825879 128.130781994749
4 C0 3 0 4 0
0

0101000
+46 0 -39 0 *
Ve
3.36280208422052e-007
49564 5164.99999999998 1117.51733675223
0 0

0101101
*
Ed
 1e-007 1 1 0
1  6 0 -16.5369567579327 1.56739764717963
4 C0 3 0 6 0
0

0101000
+39 0 -37 0 *
Ed
 3.36280208422052e-007 1 1 0
1  7 0 -128.130782346151 -34.6407823461456
4 C0 3 0 2 0
0

0101000
+37 0 -48 0 *
Wi

0101100
+45 0 +38 0 +36 0 +35 0 *
Fa
0  1e-007 3 0

0101000
+34 0 *
Ve
1e-007
49582 5333.48999999998 1447.89695289613
0 0

0101101
*
Ed
 1e-007 1 1 0
1  8 0 -245.979846405659 9.39980024129432
4 C0 4 0 5 0
0

0101000
+32 0 -44 0 *
Ve
1e-007
49582 5194.99999999998 1447.89695289613
0 0

0101101
*
Ed
 1e-007 1 1 0
1  9 0 -115.14854330755 23.3414566924457
4 C0 4 0 7 0
0

0101000
+30 0 -32 0 *
Ve
1e-007
49582 5164.99999999998 1417.89695289613
0 0

0101101
*
Ed
 1e-007 1 1 0
1  10 0 33.3287868965595 75.7551937677531
4 C0 4 0 8 0
0

0101000
+28 0 -30 0 *
Ed
 1e-007 1 1 0
1  11 0 -69.3230590910766 232.997600181123
4 C0 4 0 6 0
0

0101000
+39 0 -28 0 *
Wi

0101100
+43 0 -31 0 -29 0 -27 0 -26 0 -38 0 *
Fa
0  1e-007 4 0

0101000
+25 0 *
Ve
1e-007
49564 5164.99999999998 1417.89695289613
0 0

0101101
*
Ed
 1e-007 1 1 0
1  12 0 0.0928370671769038 0.90716293282178
4 C0 6 0 8 0
0

0101000
+28 0 -23 0 *
Ed
 1e-007 1 1 0
1  13 0 -232.997600181123 67.382015962779
4 C0 6 0 2 0
0

0101000
+23 0 -37 0 *
Wi

0101100
+26 0 +22 0 +21 0 -36 0 *
Fa
0  1e-007 6 0

0101000
+20 0 *
Ve
1e-007
49564 5194.99999999998 1447.89695289613
0 0

0101101
*
Ed
 1e-007 1 1 0
1  14 0 0.0928370671769038 0.90716293282178
4 C0 8 0 7 0
0

0101000
+30 0 -18 0 *
Ed
 1e-007 1 1 0
1  15 0 -75.7551937677531 -33.3287868965596
4 C0 8 0 2 0
0

0101000
+18 0 -23 0 *
Wi

0101000
+27 0 +17 0 +16 0 -22 0 *
Fa
0  1e-007 8 0

0101000
+15 0 *
Ve
1e-007
49564 5333.48999999998 1447.89695289613
0 0

0101101
*
Ed
 1e-007 1 1 0
1  16 0 -9.00000000002183 8.99999999997817
4 C0 7 0 5 0
0

0101000
+32 0 -13 0 *
Ed
 1e-007 1 1 0
1  17 0 -23.3414566924421 115.14854330755
4 C0 7 0 2 0
0

0101000
+13 0 -18 0 *
Wi

0101000
+29 0 +12 0 +11 0 -17 0 *
Fa
0  1e-007 7 0

0101000
+10 0 *
Ed
 1e-007 1 1 0
1  18 0 -9.39980024129432 245.979846405659
4 C0 5 0 2 0
0

0101000
+49 0 -13 0 *
Wi

0101000
+42 0 +8 0 -12 0 +31 0 *
Fa
0  1e-007 5 0

0101000
+7 0 *
Wi

0101100
+47 0 -35 0 -21 0 -16 0 -11 0 -8 0 *
Fa
0  1e-007 2 0

0101000
-5 0 *
Sh

0101100
-40 0 +33 0 +24 0 +19 0 +14 0 +9 0 +6 0 -4 0 *
So

0100000
+3 0 *
Co

1100000
+2 0 *

+1 0 