DBRep_DrawableShape

CASCADE Topology V1, (c) Matra-Datavision
Locations 0
Curve2ds 3
7 0 0  1 2 2  0 0  0.33813907385728964 0 
 0 2 0.33813907385728964 2
7 0 0  1 2 2  0.33813907385728964 0  0.33813907385728964 1 
 0 2 1 2
7 0 0  1 2 2  0.33813907385728964 1  0 1 
 -0.33813907385728964 2 -0 2
Curves 5
2 43207.000000000007 -17292.434558282639 3893.8238105676505 3.1094703273096477e-12 2.4546238192636193e-13 1 0.66666027877275891 -0.7453617059566634 -1.8900020954990524e-12 0.7453617059566634 0.66666027877275891 -2.4813201277483975e-12 12.499999999999357
7 1 0  2 13 10  43113.333253484649 -17392.981579607123 3641.1538105676609  1 43126.353007788697 -17381.336558183993 3647.8768542852545  1 43152.392516396802 -17358.046515337748 3661.3229417204461  1 43178.43202500492 -17334.75647249147 3674.7690291556423  1 43191.451779308984 -17323.111451068358 3681.4920728732336  1 43198.422290894501 -17316.876943500261 3685.0914537086137  0.94145928706891502 43209.452485285052 -17307.011407870348 3699.2411705115946  0.90243214511485748 43215.333253484627 -17301.751579607135 3718.1345354630839  0.94145928706891513 43215.333253484678 -17301.751579607098 3728.155147159825  1 43215.33325348483 -17301.751579607 3755.7665910611217  1 43215.333253484649 -17301.751579607098 3810.9894788637298  1 43215.333253484678 -17301.751579607095 3866.2123666663247  1 43215.333253484663 -17301.751579607095 3893.8238105676269  1
 0 3 0.037832582607074138 1 0.075665165214148275 1 0.11349774782122242 2 0.13256681275346607 1 0.15163587768570974 1 0.17070494261795344 2 0.2265163196977322 1 0.28232769677751091 1 0.33813907385728964 3
7 1 1  2 12 10  43215.333253484663 -17301.751579607095 3893.8238105676269  1 43212.105742622829 -17304.638303292653 3893.8238105676378  0.83333333333333326 43202.797684171426 -17305.223364303078 3893.8238105676664  0.72222222222222221 43195.650816717578 -17299.231325074423 3893.8238105676878  0.83333333333333326 43194.764596103094 -17294.992856834309 3893.8238105676892  1 43193.878375488617 -17290.754388594192 3893.8238105676915  0.83333333333333326 43198.025727016524 -17282.400843010153 3893.8238105676769  0.7222222222222221 43206.788418935939 -17279.207493851962 3893.8238105676478  0.83333333333333326 43210.90215041225 -17280.55923840652 3893.8238105676351  1 43215.015881888568 -17281.910982961079 3893.8238105676232  0.83333333333333326 43220.176588812064 -17289.679467534694 3893.8238105676096  0.7222222222222221 43218.560764346497 -17298.86485592154 3893.8238105676169  0.83333333333333337
 0 2 0.1111111111111111 1 0.22222222222222221 1 0.33333333333333331 2 0.44444444444444442 1 0.55555555555555558 1 0.66666666666666663 2 0.77777777777777779 1 0.88888888888888895 1 1 2
7 1 0  2 13 10  43215.333253484663 -17301.751579607095 3893.8238105676269  1 43215.333253484678 -17301.751579607095 3866.2123666663247  1 43215.333253484649 -17301.751579607098 3810.9894788637298  1 43215.33325348483 -17301.751579607 3755.7665910611217  1 43215.333253484678 -17301.751579607098 3728.155147159825  1 43215.333253484627 -17301.751579607135 3718.1345354630839  0.94145928706891513 43209.452485285052 -17307.011407870348 3699.2411705115946  0.90243214511485748 43198.422290894501 -17316.876943500261 3685.0914537086137  0.94145928706891502 43191.451779308984 -17323.111451068358 3681.4920728732336  1 43178.43202500492 -17334.75647249147 3674.7690291556423  1 43152.392516396802 -17358.046515337748 3661.3229417204461  1 43126.353007788697 -17381.336558183993 3647.8768542852545  1 43113.333253484649 -17392.981579607123 3641.1538105676609  1
 -0.33813907385728964 3 -0.28232769677751091 1 -0.2265163196977322 1 -0.17070494261795344 2 -0.15163587768570977 1 -0.13256681275346607 1 -0.11349774782122241 2 -0.075665165214148289 1 -0.037832582607074117 1 -0 3
2 43105.000000000015 -17383.664558282642 3641.1538105676609 -0.69561737311102678 -0.62216836224430938 -0.35919771609567425 0.66666027877061074 -0.74536170595858464 0 -0.26773222244549905 -0.23946284954610883 0.93326148573250967 12.500000000000002
Polygon3D 0
PolygonOnTriangulations 0
Surfaces 3
1 43215.333253484663 -17301.751579607095 3893.8238105676269 3.1094703273096477e-12 2.4546238192636193e-13 1 -0.74536170595664242 -0.66666027877278233 2.4813201277483377e-12 0.66666027877278233 -0.74536170595664242 -1.8900020954991304e-12 
9 1 1 0 1 2 2 13 12 10 10 43113.333253484649 -17392.981579607123 3641.1538105676614  1 43112.173938954402 -17394.01848416197 3645.1949513427512  0.83333333333333326 43106.365905064151 -17391.473082028107 3652.0338049621346  0.72222222222222221 43099.855405712347 -17384.911867682291 3653.2772328929309  0.83333333333333326 43097.935086932084 -17381.598309007521 3651.256662505386  1 43096.014768151828 -17378.284750332754 3649.2360921178415  0.83333333333333326 43096.025727016568 -17373.630843010123 3641.1538105676614  0.7222222222222221 43100.652026272808 -17374.137132113363 3633.0715290174821  0.83333333333333326 43103.731659583318 -17376.413786233283 3631.0509586299368  1 43106.811292893828 -17378.690440353203 3629.0303882423923  0.83333333333333326 43112.608367919325 -17385.889749809696 3630.2738161731886  0.7222222222222221 43114.492568014895 -17391.944675052277 3637.112669792572  0.83333333333333337 
43126.353007788697 -17381.336558183993 3647.8768542852545  1 43125.193693258472 -17382.373462738855 3651.9179950603452  0.83333333333333326 43119.385659368207 -17379.828060604985 3658.7568486797259  0.72222222222222221 43112.875160016396 -17373.266846259146 3660.0002766105295  0.83333333333333326 43110.954841236118 -17369.953287584398 3657.9797062229782  1 43109.034522455891 -17366.63972890962 3655.9591358354355  0.83333333333333326 43109.045481320631 -17361.985821586975 3647.8768542852567  0.7222222222222221 43113.671780576871 -17362.492110690229 3639.7945727350789  0.83333333333333326 43116.751413887403 -17364.768764810142 3637.774002347534  1 43119.831047197928 -17367.045418930069 3635.7534319599854  0.83333333333333326 43125.628122223367 -17374.244728386562 3636.9968598907849  0.7222222222222221 43127.512322318951 -17380.299653629139 3643.8357135101655  0.83333333333333337 
43152.392516396802 -17358.046515337748 3661.3229417204461  1 43151.233201866562 -17359.083419892584 3665.3640824955346  0.83333333333333326 43145.425167976304 -17356.538017758729 3672.2029361149184  0.72222222222222221 43138.914668624515 -17349.976803412912 3673.4463640457143  0.83333333333333326 43136.994349844259 -17346.663244738138 3671.4257936581707  1 43135.074031063989 -17343.349686063371 3669.4052232706254  0.83333333333333326 43135.084989928713 -17338.695778740741 3661.3229417204502  0.7222222222222221 43139.711289184968 -17339.202067843984 3653.2406601702696  0.83333333333333326 43142.790922495471 -17341.478721963893 3651.2200897827229  1 43145.870555805988 -17343.755376083813 3649.1995193951807  0.83333333333333326 43151.667630831507 -17350.954685540317 3650.4429473259738  0.7222222222222221 43153.551830927056 -17357.009610782905 3657.2818009453567  0.83333333333333337 
43178.43202500492 -17334.75647249147 3674.7690291556423  1 43177.272710474688 -17335.793377046328 3678.8101699307381  0.83333333333333326 43171.464676584437 -17333.247974912469 3685.6490235501151  0.72222222222222221 43164.954177232634 -17326.686760566648 3686.8924514809032  0.83333333333333326 43163.033858452371 -17323.373201891878 3684.8718810933578  1 43161.113539672093 -17320.059643217115 3682.8513107058197  0.83333333333333326 43161.124498536854 -17315.405735894474 3674.7690291556391  0.7222222222222221 43165.750797793102 -17315.912024997713 3666.6867476054522  0.83333333333333326 43168.830431103604 -17318.188679117637 3664.6661772179132  1 43171.910064414144 -17320.46533323756 3662.6456068303705  0.83333333333333326 43177.707139439626 -17327.664642694064 3663.8890347611659  0.7222222222222221 43179.591339535204 -17333.719567936634 3670.7278883805548  0.83333333333333337 
43191.451779308984 -17323.111451068358 3681.4920728732336  1 43190.292464778744 -17324.148355623209 3685.5332136483235  0.83333333333333326 43184.484430888486 -17321.602953489342 3692.3720672677046  0.72222222222222221 43177.973931536682 -17315.041739143526 3693.6154951985027  0.83333333333333326 43176.053612756419 -17311.728180468755 3691.5949248109578  1 43174.133293976156 -17308.414621793985 3689.5743544234138  0.83333333333333326 43174.144252840902 -17303.760714471355 3681.492072873235  0.7222222222222221 43178.770552097143 -17304.26700357459 3673.4097913230557  0.83333333333333326 43181.850185407653 -17306.54365769451 3671.3892209355108  1 43184.929818718178 -17308.820311814434 3669.3686505479664  0.83333333333333326 43190.726893743675 -17316.019621270927 3670.6120784787627  0.7222222222222221 43192.61109383923 -17322.074546513508 3677.4509320981442  0.83333333333333337 
43198.422290894501 -17316.876943500261 3685.0914537086137  0.94145928706891502 43196.659312353237 -17318.4537722485 3688.8208789595778  0.78454940589076239 43189.829693213498 -17316.822087980421 3695.132213999646  0.67994281843866067 43183.133451089045 -17310.427004155663 3696.2797294614729  0.78454940589076239 43181.514964314294 -17306.843483384197 3694.4150168359947  0.94145928706891502 43179.89647753958 -17303.259962612705 3692.5503042105242  0.78454940589076239 43181.114764426398 -17297.526206903269 3685.0914537086123  0.67994281843866078 43186.948391704718 -17296.952647619706 3677.6326032066963  0.78454940589076239 43190.329857020755 -17298.959339642905 3675.7678905812227  0.94145928706891502 43193.7113223368 -17300.966031666117 3673.9031779557467  0.78454940589076239 43199.322654589661 -17308.331471643662 3675.050693417576  0.67994281843866078 43200.18526943578 -17315.300114752001 3681.3620284576582  0.78454940589076239 
43209.452485285052 -17307.011407870348 3699.2411705115946  0.90243214511485748 43206.734263888604 -17309.442617066339 3701.7451943417759  0.7520267875957154 43198.288079917227 -17309.2568074021 3705.982773131323  0.65175654924961968 43191.2979169143 -17303.124609868908 3706.7532420021412  0.7520267875957154 43190.157051567199 -17299.11389887358 3705.5012300870485  0.90243214511485748 43189.016186219924 -17295.103187878209 3704.2492181719517  0.7520267875957154 43192.144958816971 -17287.66067127329 3699.2411705115774  0.6517565492496199 43199.889071805475 -17285.378351094245 3694.2331228512021  0.7520267875957154 43203.748158549104 -17286.957852893629 3692.9811109361171  0.90243214511485748 43207.607245292616 -17288.537354692955 3691.7290990210222  0.7520267875957154 43212.924656667012 -17296.165680962131 3692.4995678918549  0.6517565492496199 43212.170706681412 -17304.580198674335 3696.7371466814052  0.7520267875957154 
43215.333253484627 -17301.751579607135 3718.1345354630839  0.94145928706891513 43212.1057426228 -17304.638303292675 3719.0023458921678  0.7845494058907625 43202.79768417139 -17305.223364303063 3720.4709481567434  0.67994281843866067 43195.650816717556 -17299.231325074383 3720.7379667502651  0.7845494058907625 43194.764596103087 -17294.992856834262 3720.3040615357058  0.94145928706891513 43193.878375488624 -17290.754388594141 3719.8701563211494  0.7845494058907625 43198.025727016568 -17282.400843010117 3718.134535462968  0.67994281843866067 43206.78841893599 -17279.207493851962 3716.3989146048193  0.7845494058907625 43210.902150412316 -17280.559238406542 3715.9650093902937  0.94145928706891513 43215.015881888627 -17281.910982961122 3715.5311041757691  0.7845494058907625 43220.176588812086 -17289.679467534763 3715.7981227693763  0.67994281843866067 43218.560764346461 -17298.864855921598 3717.2667250340037  0.7845494058907625 
43215.333253484678 -17301.751579607098 3728.155147159825  1 43212.105742622844 -17304.638303292657 3728.1551471598295  0.83333333333333326 43202.797684171441 -17305.223364303081 3728.1551471598482  0.72222222222222221 43195.650816717585 -17299.231325074426 3728.1551471598659  0.83333333333333326 43194.764596103108 -17294.992856834313 3728.1551471598691  1 43193.878375488624 -17290.754388594196 3728.1551471598736  0.83333333333333326 43198.025727016538 -17282.400843010157 3728.1551471598691  0.7222222222222221 43206.788418935954 -17279.207493851965 3728.1551471598532  0.83333333333333326 43210.902150412265 -17280.559238406524 3728.1551471598441  1 43215.015881888583 -17281.910982961082 3728.1551471598364  0.83333333333333326 43220.176588812079 -17289.679467534697 3728.1551471598223  0.7222222222222221 43218.560764346512 -17298.864855921543 3728.1551471598204  0.83333333333333337 
43215.33325348483 -17301.751579607 3755.7665910611217  1 43212.105742623018 -17304.638303292595 3755.7665910611354  0.83333333333333326 43202.797684171637 -17305.223364303147 3755.766591061169  0.72222222222222221 43195.650816717724 -17299.231325074594 3755.7665910611913  0.83333333333333326 43194.764596103189 -17294.99285683448 3755.7665910611922  1 43193.878375488617 -17290.754388594367 3755.7665910611931  0.83333333333333326 43198.025727016444 -17282.400843010266 3755.7665910611759  0.7222222222222221 43206.78841893583 -17279.207493851976 3755.766591061144  0.83333333333333326 43210.902150412163 -17280.559238406491 3755.7665910611254  1 43215.015881888481 -17281.910982961002 3755.7665910611113  0.83333333333333326 43220.176588812057 -17289.679467534548 3755.7665910610999  0.7222222222222221 43218.560764346628 -17298.864855921405 3755.7665910611086  0.83333333333333337 
43215.333253484649 -17301.751579607098 3810.9894788637298  1 43212.105742622822 -17304.638303292657 3810.9894788637389  0.83333333333333326 43202.797684171419 -17305.22336430307 3810.9894788637662  0.72222222222222221 43195.650816717563 -17299.231325074412 3810.9894788637835  0.83333333333333326 43194.764596103101 -17294.992856834298 3810.9894788637839  1 43193.878375488574 -17290.754388594181 3810.9894788637835  0.83333333333333326 43198.025727016495 -17282.400843010153 3810.9894788637666  0.7222222222222221 43206.788418935925 -17279.207493851958 3810.9894788637371  0.83333333333333326 43210.902150412228 -17280.559238406509 3810.9894788637293  1 43215.015881888547 -17281.910982961068 3810.9894788637221  0.83333333333333326 43220.176588812035 -17289.679467534694 3810.9894788637121  0.7222222222222221 43218.560764346483 -17298.864855921536 3810.9894788637203  0.83333333333333337 
43215.333253484678 -17301.751579607095 3866.2123666663247  1 43212.105742622829 -17304.638303292657 3866.212366666336  0.83333333333333326 43202.797684171434 -17305.223364303081 3866.2123666663661  0.72222222222222221 43195.650816717563 -17299.231325074434 3866.2123666663865  0.83333333333333326 43194.764596103094 -17294.992856834317 3866.2123666663892  1 43193.878375488617 -17290.754388594196 3866.2123666663915  0.83333333333333326 43198.025727016546 -17282.40084301016 3866.212366666377  0.7222222222222221 43206.788418935961 -17279.207493851973 3866.2123666663492  0.83333333333333326 43210.902150412257 -17280.559238406528 3866.2123666663347  1 43215.01588188859 -17281.910982961082 3866.2123666663215  0.83333333333333326 43220.176588812079 -17289.679467534701 3866.2123666663092  0.7222222222222221 43218.560764346497 -17298.864855921551 3866.2123666663147  0.83333333333333337 
43215.333253484663 -17301.751579607095 3893.8238105676269  1 43212.105742622829 -17304.638303292653 3893.8238105676378  0.83333333333333326 43202.797684171426 -17305.223364303078 3893.8238105676664  0.72222222222222221 43195.650816717578 -17299.231325074423 3893.8238105676878  0.83333333333333326 43194.764596103094 -17294.992856834309 3893.8238105676892  1 43193.878375488617 -17290.754388594192 3893.8238105676915  0.83333333333333326 43198.025727016524 -17282.400843010153 3893.8238105676769  0.7222222222222221 43206.788418935939 -17279.207493851962 3893.8238105676478  0.83333333333333326 43210.90215041225 -17280.55923840652 3893.8238105676351  1 43215.015881888568 -17281.910982961079 3893.8238105676232  0.83333333333333326 43220.176588812064 -17289.679467534694 3893.8238105676096  0.7222222222222221 43218.560764346497 -17298.86485592154 3893.8238105676169  0.83333333333333337 

0 3
0.037832582607074138 1
0.075665165214148275 1
0.11349774782122242 2
0.13256681275346607 1
0.15163587768570974 1
0.17070494261795344 2
0.2265163196977322 1
0.28232769677751091 1
0.33813907385728964 3

0 2
0.1111111111111111 1
0.22222222222222221 1
0.33333333333333331 2
0.44444444444444442 1
0.55555555555555558 1
0.66666666666666663 2
0.77777777777777779 1
0.88888888888888895 1
1 2

1 43113.333253484649 -17392.981579607123 3641.1538105676609 -0.69561737311102678 -0.62216836224430938 -0.35919771609567425 -0.26773222244549916 -0.2394628495461088 0.93326148573250967 -0.66666027877061074 0.74536170595858464 -1.1102230246251565e-16 
Triangulations 0

TShapes 20
Ve
1e-07
43215.3332534847 -17301.7515796071 3893.82381056763
0 0

0101101
*
Ed
 1e-07 1 1 0
1  1 0 0 6.28318530717959
0

0101000
+20 0 -20 0 *
Wi

0101000
+19 0 *
Fa
0  1e-07 1 0

0111000
+18 0 *
Sh

0101000
+17 0 *
Ve
1e-07
43113.3332534846 -17392.9815796071 3641.15381056766
0 0

0101101
*
Ve
1e-07
43215.3332534847 -17301.7515796071 3893.82381056763
0 0

0101101
*
Ed
 1e-07 1 1 0
1  2 0 0 0.33813907385729
2  1 2 0 0 0.33813907385729
0

0101000
+15 0 -14 0 *
Ed
 1e-07 1 1 0
1  3 0 0 1
2  2 2 0 0 1
0

0101000
+14 0 -14 0 *
Ed
 1e-07 1 1 0
1  4 0 -0.33813907385729 -0
2  3 2 0 -0.33813907385729 -0
0

0101000
+14 0 -15 0 *
Wi

0101100
+13 0 +12 0 +11 0 *
Fa
0  1e-07 2 0

0111000
+10 0 *
Sh

0101000
+9 0 *
Ve
1e-07
43113.3332534846 -17392.9815796071 3641.15381056766
0 0

0101101
*
Ed
 1e-07 1 1 0
1  5 0 0 6.28318530717959
0

0101000
+7 0 -7 0 *
Wi

0101000
+6 0 *
Fa
0  1e-07 3 0

0111000
+5 0 *
Sh

0101000
+4 0 *
Co

0100000
+16 0 +8 0 +3 0 *
Co

1100000
+2 0 *

+1 0 
0

