DBRep_DrawableShape

CASCADE Topology V1, (c) Matra-Datavision
Locations 0
Curve2ds 12
1 0 2263.5284587776232 1 -5.790023100121525e-013 
1 1.5707963268136322 2278.5284587776582 0 -1 
1 6.2831853071795072 2293.5284587776214 -1 0 
1 3.1415926536096199 2278.528458778369 0 1 
1 0 50.699194183504005 1 1.1580046200243923e-012 
1 -1.0480505352461478e-013 4991788.7596063716 1 0 
1 1.5707963267986802 49.404787262382392 0 -1 
1 6.283185307179604 80.699194183511281 -1 -1.1580046200243923e-012 
1 3.1415926535900294 8.2422957348171622e-013 0 1 
1 6.2831853071764838 4991818.7596063707 -1 0 
1 3.4184492814379293 4991779.9570913156 5.9211894648513196e-017 -1 
7 0 0  3 4 2  4.712388980384393 4991788.7596063716  4.7123889803842065 4991798.7596063726  4.7123889803840147 4991808.7596063521  4.7123889803838281 4991818.7596063726 
 4991788.7596063726 4 4991818.7596063735 4
Curves 31
2 -725.04622962897781 -8688.9053906624285 15367.000000000187 -0.42261826174069972 -0.90630778703664994 0 0 0 1 -0.90630778703664994 0.42261826174069972 0 10.000000000000002
1 -740.44858142547014 -8698.2738248506048 15367 0.42261826174069966 0.90630778703664983 -0 
2 -737.724777481199 -8716.0946242735281 15367.000000000187 0.42261826174069972 0.90630778703664994 -0 0 0 1 0.90630778703664994 -0.42261826174069972 0 10.000000000000002
1 -731.38550355522375 -8702.5000074687396 15357.000000000187 -0.42261826174069966 -0.90630778703664983 0 
1 -2384.1988589746484 -7948.331151119417 15367.000000000189 0.90630778703664994 -0.42261826174069972 0 
2 -1599.99999999999 -8314.0090845757113 15367.000000000189 0.42261826174069972 0.90630778703664994 -0 0 0 1 0.90630778703664994 -0.42261826174069972 0 50
1 -1600 -8314.0090845757077 -2500000 0 -0 -1 
1 1134718.7394836082 -538188.13941081741 -1238981.0060473096 0.64085638205635009 -0.29883623873038184 -0.70710678118592785 
1 -1246.3648100343109 -8478.9118818498064 14792.999999999665 0.90630778703664994 -0.42261826174069972 9.1552064613401636e-016 
2 -1350.0354502375558 -8430.5694683971524 14752.000000000004 0.42261826174069972 0.90630778703664994 -0 0.90630778703664994 -0.42261826174069972 0 0 -0 -1 150.00000000000003
1 -1105.5188792597619 -8544.589417989755 14902.000000000044 0.90630778703664994 -0.42261826174069972 0 
1 -737.72477748093479 -8716.0946242734099 -2492418.9551432333 0 -0 -1 
1 -2371.5203111224268 -7921.1419175083156 15367.000000000189 -0.90630778703664994 0.42261826174069972 0 
1 -1555.2316506511479 -8336.3131287349552 15367 -0.42261826174069739 -0.90630778703665094 -0 
2 -1587.3214521477689 -8286.8198509646118 15367.000000000189 -0.42261826174069972 -0.90630778703664994 0 0 0 1 -0.90630778703664994 0.42261826174069972 0 50
1 -1621.4264053174875 -8359.9581590607013 15317.000000000142 0.42261826174069739 0.90630778703665094 0 
1 -1447.7390913099352 -8351.9081747666478 15317.000000000462 0.90630778703664994 -0.42261826174069972 1.6697754290362375e-012 
1 -1600 -4174.6963512531875 15316.999999997221 0 1 -7.0567758931662181e-013 
1 -725.04622962901522 -8688.9053906625122 -2492418.9551432333 0 0 1 
1 -1092.8403314073876 -8517.4001843788574 14902.000000000044 -0.90630778703664994 0.42261826174069972 -0 
2 -1337.356902386091 -8403.3802347867095 14752.000000000004 -0.42261826174069972 -0.90630778703664994 0 0.90630778703664994 -0.42261826174069972 0 0 0 1 150.00000000000003
1 -1233.6862621820892 -8451.722648238705 14792.999999999665 -0.90630778703664994 0.42261826174069972 -9.1552064613401636e-016 
1 1134731.4180314606 -538160.95017720619 -1238981.0060473096 -0.64085638205635009 0.29883623873038184 0.70710678118592785 
1 1134695.9765581565 -538144.4235467884 -1238941.9007082323 -0.64085638205635465 0.29883623873038401 0.70710678118592285 
1 -1600 -8280.9077470068332 -2500000 -0 0 1 
1 -1624.909530655664 -8367.4277454534222 14807.999999999676 0.42261826174070033 0.90630778703664949 0 
1 -1599.9999999999989 -7439.1509427831752 15177.731027153082 0 -0.92111878703901284 -0.38928162063444216 
1 -1726.584126519517 -8620.9626436707549 14792.999999999704 0.42261826174070216 0.90630778703664872 -1.9633403615037764e-015 
1 -2110358.813339089 -4532813.1186975474 14902.000000000002 0.42261826174069966 0.90630778703664983 0 
1 -1484.5248072046552 -8377.5685520474362 14793 -0.42261826174069966 -0.90630778703664983 -0 
1 -2110971.1240118458 -4532527.5935416715 14902.000000000005 0.42261826174069966 0.90630778703664983 0 
Polygon3D 0
PolygonOnTriangulations 0
Surfaces 13
2 231.5622330202257 -6637.451922293204 15367.000000000187 -0.42261826174069966 -0.90630778703664994 0 0 0 1 -0.90630778703664994 0.42261826174069966 0 10.000000000000002
1 -1285.4990282063445 -8427.5619586514022 -5000000 0.42261826174069972 0.90630778703664994 -0 -0.90630778703664994 0.42261826174069972 0 0 0 1 
1 0 0 15367 0 0 1 1 0 -0 -0 1 0 
1 -1298.1775760585654 -8454.7511922625035 -5000000 0.42261826174069972 0.90630778703664994 -0 -0.90630778703664994 0.42261826174069972 0 0 0 1 
1 -2110358.8133390895 -4532813.1186975483 15162.089713533824 0.90630778703664983 -0.42261826174069966 0 0 0 -1 0.42261826174069966 0.90630778703664983 0 
2 -1621.4264053174772 -8359.9581590607067 15367.000000000189 0.42261826174069739 0.90630778703665094 0 0 -0 1 0.90630778703665094 -0.42261826174069739 -0 50
1 -1600 0 0 1 0 0 -0 1 0 0 -0 1 
1 -1618.1122222528895 -8370.5973824164776 14800.499999999691 0.64085638205522666 -0.29883623872985859 0.70710678118716719 0.64085638205634587 -0.29883623873039095 -0.70710678118592785 0.42261826174070644 0.90630778703664672 -6.6890937233665682e-015 
1 -1450.0000000003638 -9050.8824808992103 14793.000000000002 0 2.1663064022911062e-015 1 1 0 -0 -0 1 -2.1663064022911062e-015 
2 -2110971.1240118458 -4532527.5935416715 14752.000000000004 0.42261826174069966 0.90630778703664983 0 0.90630778703664983 -0.42261826174069966 0 0 0 -1 150.00000000000003
1 -2110533.9487440693 -4532731.4517169921 14902.000000000004 -0 0 1 0.9063077870366496 -0.42261826174070027 0 0.42261826174070027 0.9063077870366496 0 
1 -1644.0840999934037 -8349.3927025171834 15317.0000000001 1.5133304739380066e-012 -7.0567758931662181e-013 -1 -0.90630778703665194 0.42261826174069528 -1.6697754290362375e-012 0.42261826174069528 0.90630778703665194 -3.9379936388632909e-027 
1 -1688.9951688612996 -8337.5441215803839 14878.710678118268 0.64085638205522211 -0.29883623872985648 0.70710678118717218 0.64085638205635476 -0.29883623873038379 -0.70710678118592285 0.42261826174069983 0.90630778703664983 5.5511151231257827e-016 
Triangulations 0

TShapes 80
Ve
1e-007
-734.109307499344 -8684.67920804502 15367.0000000002
0 0

0101101
*
Ve
1e-007
-725.046229629015 -8688.90539066251 15356.9999999997
0 0

0101101
*
Ed
 1e-007 1 1 0
1  1 0 1.57079632679471 3.14159265358979
2  1 1 0 1.57079632679471 3.14159265358979
4 C0 1 0 2 0
0

0101000
+80 0 -79 0 *
Ve
1e-007
-746.787855351566 -8711.86844165612 15367.0000000002
0 0

0101101
*
Ed
 1e-007 1 1 0
1  2 0 -14.999999999965 15.0000000000372
2  2 1 0 -14.999999999965 15.0000000000372
4 C0 1 0 3 0
0

0101000
+77 0 -80 0 *
Ve
1e-007
-737.724777480935 -8716.09462427341 15356.9999999997
0 0

0101101
*
Ed
 1e-007 1 1 0
1  3 0 3.14159265357084 4.71238898038487
2  3 1 0 3.14159265357084 4.71238898038487
4 C0 1 0 4 0
0

0101000
+75 0 -77 0 *
Ed
 1e-007 1 1 0
1  4 0 -15.0000000006555 14.9999999990341
2  4 1 0 -15.0000000006555 14.9999999990341
4 C0 1 0 5 0
0

0101000
+79 0 -75 0 *
Wi

0101000
-78 0 -76 0 -74 0 -73 0 *
Fa
0  1e-007 1 0

0101000
-72 0 *
Ve
1e-007
-1554.68461064816 -8335.13999766275 15367.0000000002
0 0

0101101
*
Ed
 1e-007 1 1 0
1  5 0 915.26770506822 1806.68314566392
4 C0 4 0 3 0
0

0101000
+70 0 -77 0 *
Ve
1e-007
-1600 -8314.00908457571 15317.0000000001
0 0

0101101
*
Ed
 1e-007 1 1 0
1  6 0 1.5707963267949 3.14159265358979
2  5 6 0 1.5707963267949 3.14159265358979
4 C0 4 0 6 0
0

0101000
+70 0 -68 0 *
Ve
1e-007
-1600 -8314.00908457571 14807.9999999997
0 0

0101101
*
Ed
 1e-007 1 1 0
1  7 0 -2515317 -2514808
4 C0 4 0 7 0
0

0101000
+68 0 -66 0 *
Ve
1e-007
-1586.40538319445 -8320.34835850182 14792.9999999997
0 0

0101101
*
Ed
 1e-007 1 1 0
1  8 0 -1773125.41670794 -1773104.2035045
4 C0 4 0 8 0
0

0101000
+66 0 -64 0 *
Ve
1e-007
-1480.80470359259 -8369.59076410649 14793
0 0

0101101
*
Ed
 1e-007 1 1 0
1  9 0 -375.193259976247 -258.675801876139
4 C0 4 0 9 0
0

0101000
+64 0 -62 0 *
Ve
1e-007
-1350.03545023756 -8430.56946839715 14902
0 0

0101101
*
Ed
 1e-007 1 1 0
1  10 0 3.41844928143815 4.71238898038469
2  6 10 0 3.41844928143815 4.71238898038469
4 C0 4 0 10 0
0

0101000
+62 0 -60 0 *
Ve
1e-007
-737.724777480935 -8716.09462427341 14902
0 0

0101101
*
Ed
 1e-007 1 1 0
1  11 0 -269.794185237262 405.81589062738
4 C0 4 0 11 0
0

0101000
+60 0 -58 0 *
Ed
 1e-007 1 1 0
1  12 0 -2507775.95514323 -2507320.95514323
4 C0 4 0 5 0
0

0101000
+75 0 -58 0 *
Wi

0101000
+74 0 -69 0 +67 0 +65 0 +63 0 +61 0 +59 0 +57 0 -56 0 *
Fa
0  1e-007 4 0

0101000
-55 0 *
Ve
1e-007
-1542.00606279594 -8307.95076405165 15367.0000000002
0 0

0101101
*
Ed
 1e-007 1 1 0
1  13 0 -1806.68314566392 -915.26770506822
4 C0 3 0 2 0
0

0101000
+80 0 -53 0 *
Ed
 1e-007 1 1 0
1  14 0 -31.2944069211234 -1.29440692112325
2  7 6 0 -31.2944069211234 -1.29440692112325
4 C0 3 0 6 0
0

0101000
+53 0 -70 0 *
Wi

0101000
+76 0 +52 0 +51 0 +69 0 *
Fa
0  1e-007 3 0

0101000
+50 0 *
Ve
1e-007
-1587.32145214778 -8286.81985096461 15317.0000000001
0 0

0101101
*
Ed
 1e-007 1 1 0
1  15 0 3.14159265358979 4.71238898038469
2  8 6 0 3.14159265358979 4.71238898038469
4 C0 6 0 2 0
0

0101000
+48 0 -53 0 *
Ed
 1e-007 1 1 0
1  16 0 50.699194183505 80.6991941835067
2  9 6 0 50.699194183505 80.6991941835067
4 G1 6 0 12 0
0

0101000
+68 0 -48 0 *
Wi

0101000
-47 0 -46 0 -67 0 -51 0 *
Fa
0  1e-007 6 0

0101000
-45 0 *
Ve
1e-007
-1600 -8280.90774700683 15317
0 0

0101101
*
Ed
 1e-007 1 1 0
1  17 0 -168.001324569781 -154.012094825132
4 C0 12 0 2 0
0

0101000
+43 0 -48 0 *
Ed
 1e-007 1 1 0
1  18 0 -4139.31273332252 -4106.21139575365
4 C0 12 0 7 0
0

0101000
+68 0 -43 0 *
Wi

0101000
-42 0 -41 0 +46 0 *
Fa
0  1e-007 12 0

0101000
-40 0 *
Ve
1e-007
-725.046229629015 -8688.90539066251 14902
0 0

0101101
*
Ed
 1e-007 1 1 0
1  19 0 2507320.95514323 2507775.95514323
4 C0 2 0 5 0
0

0101000
+38 0 -79 0 *
Ve
1e-007
-1337.35690238518 -8403.38023478489 14902
0 0

0101101
*
Ed
 1e-007 1 1 0
1  20 0 -405.815890626967 269.794185237839
4 C0 2 0 11 0
0

0101000
+38 0 -36 0 *
Ve
1e-007
-1468.12615574112 -8342.40153049605 14793
0 0

0101101
*
Ed
 1e-007 1 1 0
1  21 0 1.57079632679453 2.86473602574144
2  10 10 0 1.57079632679453 2.86473602574144
4 C0 2 0 10 0
0

0101000
+36 0 -34 0 *
Ve
1e-007
-1573.72683534223 -8293.15912489072 14792.9999999997
0 0

0101101
*
Ed
 1e-007 1 1 0
1  22 0 258.675801876547 375.193259976248
4 C0 2 0 9 0
0

0101000
+34 0 -32 0 *
Ve
1e-007
-1587.32145214778 -8286.81985096461 14807.9999999997
0 0

0101101
*
Ed
 1e-007 1 1 0
1  23 0 1773104.2035045 1773125.41670794
4 C0 2 0 8 0
0

0101000
+32 0 -30 0 *
Ve
1e-007
-1600 -8280.90774700683 14821.9892297443
0 0

0101101
*
Ed
 1e-007 1 1 0
1  24 0 1773070.11340707 1773089.8971655
4 C0 2 0 13 0
0

0101000
+30 0 -28 0 *
Ed
 1e-007 1 1 0
1  25 0 2514821.98922974 2515317
4 C0 2 0 7 0
0

0101000
+28 0 -43 0 *
Wi

0101000
+78 0 -37 0 +35 0 +33 0 +31 0 +29 0 +27 0 +26 0 +42 0 +47 0 
-52 0 *
Fa
0  1e-007 2 0

0101000
+25 0 *
Ed
 1e-007 1 1 0
1  26 0 58.940970873016 88.9409708730178
4 CN 13 0 8 0
0

0101000
+66 0 -30 0 *
Ed
 1e-007 1 1 0
1  27 0 913.84174991103 949.777763848257
4 C0 13 0 7 0
0

0101000
+28 0 -66 0 *
Wi

0101000
-27 0 -23 0 -22 0 *
Fa
0  1e-007 13 0

0101000
-21 0 *
Ed
 1e-007 1 1 0
1  28 0 331.691164380099 361.6911643801
4 C0 8 0 9 0
0

0101000
+64 0 -32 0 *
Wi

0101000
-29 0 -19 0 -63 0 +23 0 *
Fa
0  1e-007 8 0

0101000
-18 0 *
Wi

0101000
+41 0 -26 0 +22 0 -65 0 *
Fa
0  1e-007 7 0

0101000
-16 0 *
Ed
 1e-007 1 1 0
1  29 0 4991788.75960637 4991818.75960637
4 C0 5 0 11 0
0

0101000
+58 0 -38 0 *
Wi

0101000
+73 0 +56 0 +14 0 +37 0 *
Fa
0  1e-007 5 0

0101000
+13 0 *
Ed
 1e-007 1 1 0
1  30 0 -38.8025150553181 -8.80251505623286
2  11 10 0 -38.8025150553181 -8.80251505623286
4 C0 9 0 10 0
0

0101000
+34 0 -62 0 *
Wi

0101000
+19 0 -31 0 +11 0 -61 0 *
Fa
0  1e-007 9 0

0101000
-10 0 *
Ed
 1e-007 1 1 0
1  31 0 4991788.75960637 4991818.75960637
2  12 10 0 4991788.75960637 4991818.75960637
4 G1 11 0 10 0
0

0101000
+60 0 -36 0 *
Wi

0101000
-35 0 -14 0 -57 0 +8 0 *
Fa
0  1e-007 11 0

0101000
-7 0 *
Wi

0101000
-11 0 -33 0 -8 0 -59 0 *
Fa
0  1e-007 10 0

0101000
-5 0 *
Sh

0101100
-71 0 -54 0 +49 0 -44 0 -39 0 +24 0 -20 0 -17 0 -15 0 +12 0 
-9 0 -6 0 -4 0 *
So

0100000
+3 0 *
Co

1100000
+2 0 *

+1 0 