/* XPM */
static const char * qt_folder_small_xpm[] = {
"16 16 60 1",
" 	c None",
".	c #F3B87F",
"+	c #FFCF8F",
"@	c #FFD08F",
"#	c #FFD28F",
"$	c #FFD48F",
"%	c #FFD58F",
"&	c #FFCE8F",
"*	c #FFD18F",
"=	c #FFD38F",
"-	c #FFCD8F",
";	c #E87300",
">	c #FFCC8F",
",	c #FFD78F",
"'	c #FFD88F",
")	c #FFDA8F",
"!	c #FFDC8F",
"~	c #FFDD8F",
"{	c #FFE08F",
"]	c #FF8A00",
"^	c #FF8E00",
"/	c #FF9200",
"(	c #F38400",
"_	c #F38600",
":	c #FF9E00",
"<	c #FFA200",
"[	c #FFA600",
"}	c #FFA900",
"|	c #FFAE00",
"1	c #FFB200",
"2	c #FFB600",
"3	c #FF8900",
"4	c #FF8C00",
"5	c #FF9100",
"6	c #F38300",
"7	c #FCEAD6",
"8	c #FF9C00",
"9	c #FFA000",
"0	c #FFA400",
"a	c #FFA800",
"b	c #FFAC00",
"c	c #FFAF00",
"d	c #FFB300",
"e	c #FE8801",
"f	c #FF8F00",
"g	c #F38200",
"h	c #FF9A00",
"i	c #FFAA00",
"j	c #FE8701",
"k	c #F38100",
"l	c #F38800",
"m	c #FFB000",
"n	c #FD8702",
"o	c #FF8801",
"p	c #FF8B00",
"q	c #FD8602",
"r	c #FF8D00",
"s	c #FF9400",
"t	c #FF9800",
"u	c #FFA100",
"                ",
"                ",
" .......        ",
" .+@#$%.        ",
" .&@*=%.        ",
" .-+@#$.;;;;;;; ",
" .>&@*=%,')!~{; ",
" .]^/(_:<[}|12; ",
" .34567890abcd; ",
" .e]fg7h:<[i|1; ",
" .j34k7_l90abm; ",
" .nopk777:<[i|; ",
" .qj3r5st8u0ab; ",
" .qj3r5st8u0ab; ",
" .;;;;;;;;;;;;; ",
"                "};
