/* XPM */
static const char * v3d_cursor_zoom_xpm[] = {
"16 16 2 1",
" 	c None",
".	c #FFFFFF",
"      . .       ",
"      . .       ",
"      . .       ",
"    . . . .     ",
"     .   .      ",
"      . .       ",
" ...   .   ...  ",
" .           .  ",
" .           .  ",
" .     .     .  ",
" .    . .    .  ",
" ..  .   .  ..  ",
"    . . . .     ",
"      . .       ",
"      . .       ",
"      . .       "};
