/* XPM */
static const char * v3d_cursor_rotate_xpm[] = {
"16 16 2 1",
" 	c None",
".	c #FFFFFF",
"                ",
"       ........ ",
"           .  . ",
"          .   . ",
"         .   .. ",
"        .   . . ",
"       .   .  . ",
"      .   .   . ",
".        .    . ",
". ..... .       ",
". .   .         ",
". .   .         ",
". .   .         ",
". .....         ",
".               ",
"........        "};
