<?xml version="1.0" encoding="UTF-8" standalone="no"?>
<!-- Created with Inkscape (http://www.inkscape.org/) -->

<svg
   xmlns:dc="http://purl.org/dc/elements/1.1/"
   xmlns:cc="http://creativecommons.org/ns#"
   xmlns:rdf="http://www.w3.org/1999/02/22-rdf-syntax-ns#"
   xmlns:svg="http://www.w3.org/2000/svg"
   xmlns="http://www.w3.org/2000/svg"
   xmlns:sodipodi="http://sodipodi.sourceforge.net/DTD/sodipodi-0.dtd"
   xmlns:inkscape="http://www.inkscape.org/namespaces/inkscape"
   width="148.38049mm"
   height="56.784496mm"
   viewBox="0 0 148.38049 56.784496"
   version="1.1"
   id="svg34115"
   inkscape:export-filename="C:\Work\analysissitus\docs\www\imgs\kef_suppress_blends.png"
   inkscape:export-xdpi="96"
   inkscape:export-ydpi="96"
   inkscape:version="0.92.2 (5c3e80d, 2017-08-06)"
   sodipodi:docname="situ-two-isolated-blends.svg">
  <defs
     id="defs34109" />
  <sodipodi:namedview
     id="base"
     pagecolor="#ffffff"
     bordercolor="#666666"
     borderopacity="1.0"
     inkscape:pageopacity="0.0"
     inkscape:pageshadow="2"
     inkscape:zoom="1"
     inkscape:cx="176.77064"
     inkscape:cy="-30.571572"
     inkscape:document-units="mm"
     inkscape:current-layer="layer1"
     showgrid="false"
     inkscape:window-width="1920"
     inkscape:window-height="1017"
     inkscape:window-x="1072"
     inkscape:window-y="-8"
     inkscape:window-maximized="1"
     inkscape:snap-global="false" />
  <metadata
     id="metadata34112">
    <rdf:RDF>
      <cc:Work
         rdf:about="">
        <dc:format>image/svg+xml</dc:format>
        <dc:type
           rdf:resource="http://purl.org/dc/dcmitype/StillImage" />
        <dc:title></dc:title>
      </cc:Work>
    </rdf:RDF>
  </metadata>
  <g
     inkscape:label="Layer 1"
     inkscape:groupmode="layer"
     id="layer1"
     transform="translate(-58.804093,-48.08066)">
    <path
       style="fill:#e3e3e3;fill-opacity:1;stroke:none;stroke-width:0.26458332"
       d="m 125.94378,105.21017 -0.32488,-25.791043 -1.5275,-3.93489 34.76138,-9.019909 1.2197,2.699015 0.80097,3.169444 0.0676,23.21375 z"
       id="path7244-4-0-9-4-2-6-2-3"
       inkscape:connector-curvature="0"
       sodipodi:nodetypes="cccccccc"
       inkscape:transform-center-x="-7.8020067"
       inkscape:transform-center-y="-73.894282" />
    <path
       style="fill:#51c8ff;fill-opacity:0.98492462;stroke:none;stroke-width:0.26458332;stroke-opacity:1"
       d="m 94.170629,65.847739 c 0,0 1.475571,-4.681249 2.306241,-5.559809 5.33596,-1.779556 26.35102,-7.71167 34.80813,-10.046799 0.88342,-0.284609 1.26834,-0.243223 2.68289,0.214346 -10.83148,4.240426 -22.47585,7.035479 -33.89573,10.512565 -2.242701,1.218929 -5.682693,2.550175 -5.901531,4.879697 z"
       id="path10818-9-4-2-1-4"
       inkscape:connector-curvature="0"
       sodipodi:nodetypes="cccccc" />
    <path
       style="fill:#efefef;fill-opacity:1;stroke:none;stroke-width:0.26458332"
       d="m 94.19137,88.119147 -0.0074,-22.726477 0.464552,-2.308177 0.397295,-1.136333 0.745185,-0.984783 0.586649,-0.443937 0.85696,-0.167569 1.083582,0.288971 20.576655,11.058265 4.24404,2.22384 1.47243,1.245496 0.86042,1.214661 0.62465,2.348161 -0.18694,2.676992 -0.0737,23.986063 z"
       id="path7244-4-0-8-1-9-4-4"
       inkscape:connector-curvature="0"
       sodipodi:nodetypes="cccccccccccccccc"
       inkscape:transform-center-x="-7.8020039"
       inkscape:transform-center-y="-73.894633" />
    <path
       style="fill:#dadada;fill-opacity:1;stroke:none;stroke-width:0.26458332"
       d="m 98.318225,60.640842 35.649665,-10.185365 21.31386,12.248857 1.99916,1.805517 1.59414,1.975908 -34.2637,8.682684 -3.28318,-2.049316 z"
       id="path7244-4-8-1-4-9-6"
       inkscape:connector-curvature="0"
       sodipodi:nodetypes="cccccccc" />
    <path
       style="fill:#51c8ff;fill-opacity:0.98492462;stroke:#000000;stroke-width:0.26458332;stroke-opacity:1"
       d="m 118.78429,71.656247 35.06082,-9.793817 c 2.47648,1.170057 4.63603,2.75513 5.89834,5.003108 1.19329,2.125057 1.13579,4.499299 1.13579,7.222759 l -34.98558,9.91579 c 0.0158,-2.59583 0.009,-5.255536 -1.23945,-7.436985 -1.26677,-2.214349 -3.41866,-3.651971 -5.86992,-4.910855 z"
       id="path10818-9-4-2-1"
       inkscape:connector-curvature="0"
       sodipodi:nodetypes="ccaccac" />
    <path
       style="fill:none;fill-opacity:1;stroke:#000000;stroke-width:0.265;stroke-linecap:round;stroke-linejoin:miter;stroke-miterlimit:4;stroke-dasharray:none;stroke-opacity:1;paint-order:fill markers stroke"
       d="M 98.318225,60.640842 118.78429,71.656247 M 153.84511,61.86243 133.96789,50.455477 c -0.59665,-0.406229 -1.08026,-0.427525 -1.59327,-0.495313"
       id="path7138-2-7-3-4-4"
       inkscape:connector-curvature="0"
       sodipodi:nodetypes="ccccc" />
    <path
       style="fill:none;stroke:#000000;stroke-width:0.26458332;stroke-linecap:butt;stroke-linejoin:miter;stroke-miterlimit:4;stroke-dasharray:none;stroke-opacity:1"
       d="m 98.318225,60.640842 c -2.678906,-1.322917 -4.026892,1.527179 -4.059965,5.462856 v 22.226329"
       id="path7140-5-62-3-9-3"
       inkscape:connector-curvature="0"
       sodipodi:nodetypes="ccc" />
    <path
       style="fill:none;stroke:#000000;stroke-width:0.26458332;stroke-linecap:butt;stroke-linejoin:miter;stroke-miterlimit:4;stroke-dasharray:none;stroke-opacity:1"
       d="m 94.1914,88.213607 31.6594,17.018523 m 0.15613,-0.0106 34.92452,-9.624743"
       id="path7138-1-7-9-4-1-9"
       inkscape:connector-curvature="0"
       sodipodi:nodetypes="cccc" />
    <path
       style="fill:none;stroke:#000000;stroke-width:0.26458332;stroke-linecap:butt;stroke-linejoin:miter;stroke-miterlimit:4;stroke-dasharray:none;stroke-opacity:1"
       d="m 125.89366,84.004087 0.0273,21.356893"
       id="path7140-9-1-5-6-6-2"
       inkscape:connector-curvature="0"
       sodipodi:nodetypes="cc" />
    <path
       style="fill:none;stroke:#000000;stroke-width:0.26458332;stroke-linecap:butt;stroke-linejoin:miter;stroke-miterlimit:4;stroke-dasharray:none;stroke-opacity:1"
       d="m 160.87924,74.088297 -0.0444,21.63763"
       id="path7140-9-8-1-2-8-1-3"
       inkscape:connector-curvature="0"
       sodipodi:nodetypes="cc" />
    <g
       id="g20100"
       transform="translate(0,-0.2110055)" />
    <path
       style="fill:none;fill-opacity:0.98492462;stroke:#000000;stroke-width:0.26458332;stroke-opacity:1"
       d="M 98.393788,60.633987 133.97787,50.489379"
       id="path10818-9-4-2-1-7"
       inkscape:connector-curvature="0"
       sodipodi:nodetypes="cc" />
  </g>
</svg>
