DBRep_DrawableShape

CASCADE Topology V1, (c) Matra-Datavision
Locations 0
Curve2ds 80
1 0 0 1 0 
1 0 0 1 0 
1 1 0 0 -1 
1 0 0 0 1 
1 0 -1 1 0 
1 0 0 1 0 
1 0 0 0 -1 
1 0 0 0 1 
1 0 0 0 1 
1 0 0 1 0 
1 0 0 1 0 
1 0 1 1 0 
1 1 0 0 1 
1 0 0 1 0 
1 1 0 0 1 
1 0 1 1 0 
1 0 0 0 -1 
1 0 0 0 1 
1 0.5 0.5 0 1 
1 0 0 0 1 
1 0 0 1 0 
1 0.5 0.5 1 0 
1 1 0 0 -1 
1 1 0 0 1 
1 0 0 0 1 
1 0 1 1 0 
1 0 -1 1 0 
1 0 1 1 0 
1 -0.5 0.5 1 0 
1 0 0 0 -1 
1 1 0 0 1 
1 0.5 -0.5 0 1 
1 0 0 1 0 
1 0 0 1 0 
1 1 0 0 -1 
1 0 0 0 1 
1 0 -1 1 0 
1 0 0 1 0 
1 0 0 1 0 
1 0 1 1 0 
1 1 0 0 1 
1 0 0 1 0 
1 0 0 0 1 
1 0 1 1 0 
1 0 0 0 -1 
1 1 0 0 1 
1 1 0 0 1 
1 0 1 1 0 
1 0 0 0 -1 
1 0 0 0 1 
1 0.5 0.5 0 1 
1 0 0 0 1 
1 0 0 1 0 
1 0.5 0.5 1 0 
1 1 0 0 -1 
1 1 0 0 1 
1 0 -1 1 0 
1 0 1 1 0 
1 -0.5 0.5 1 0 
1 0.5 -0.5 0 1 
1 0 0 1 0 
1 0 0 1 0 
1 1 0 0 -1 
1 0 0 0 1 
1 0 -1 1 0 
1 0 0 1 0 
1 0 0 1 0 
1 0 1 1 0 
1 1 0 0 1 
1 0 0 1 0 
1 0 0 0 1 
1 0 1 1 0 
1 0 0 0 -1 
1 1 0 0 1 
1 1 0 0 1 
1 0 1 1 0 
1 1 0 0 -1 
1 1 0 0 1 
1 0 -1 1 0 
1 0 1 1 0 
Curves 36
1 -0.5 -0.5 -1 0 0 1 
1 -0.5 -0.5 0 -0 1 0 
1 -0.5 0.5 -1 0 0 1 
1 -0.5 -0.5 -1 -0 1 0 
1 -0.5 -0.5 -1 1 0 -0 
1 0.5 -0.5 -1 0 0 1 
1 -0.5 -0.5 0 1 0 -0 
1 -0.5 0.5 0 1 0 -0 
1 0 0 0 -0 1 0 
1 0 0 0 1 0 -0 
1 0.5 -0.5 0 -0 1 0 
1 -0.5 0.5 -1 1 0 -0 
1 0.5 0.5 -1 0 0 1 
1 0.5 -0.5 -1 -0 1 0 
1 0 0 0 0 0 1 
1 0 0 1 -0 1 0 
1 0 1 0 0 0 1 
1 1 0 0 0 0 1 
1 0 0 1 1 0 -0 
1 0 1 0 1 0 -0 
1 1 0 0 -0 1 0 
1 0 1 1 1 0 -0 
1 0.5 0.5 1 -0 1 0 
1 0.5 0.5 1 1 0 -0 
1 1 0 1 -0 1 0 
1 1 1 0 0 0 1 
1 0.5 0.5 1 0 0 1 
1 0.5 0.5 2 -0 1 0 
1 0.5 1.5 1 0 0 1 
1 1.5 0.5 1 0 0 1 
1 0.5 0.5 2 1 0 -0 
1 0.5 1.5 1 1 0 -0 
1 1.5 0.5 1 -0 1 0 
1 0.5 1.5 2 1 0 -0 
1 1.5 0.5 2 -0 1 0 
1 1.5 1.5 1 0 0 1 
Polygon3D 0
PolygonOnTriangulations 32
2 1 2 
p 0.00173205115397904 1 0 1 
2 1 4 
p 0.00173205115397904 1 0 1 
2 1 2 
p 0.00173205115397904 1 0 1 
2 1 4 
p 0.00173205115397904 1 0 1 
2 1 2 
p 0.00173205115397904 1 0 1 
2 4 3 
p 0.00173205115397904 1 0 1 
2 2 3 
p 0.00173205115397904 1 0 1 
2 1 4 
p 0.00173205115397904 1 0 1 
2 1 2 
p 0.00291547629041982 1 0 1 
2 1 4 
p 0.00291547629041982 1 0 1 
2 1 2 
p 0.00173205115397904 1 0 1 
2 2 3 
p 0.00291547629041982 1 0 1 
2 1 4 
p 0.00173205115397904 1 0 1 
2 4 3 
p 0.00291547629041982 1 0 1 
2 1 2 
p 0.00173205115397904 1 0 1 
2 2 3 
p 0.00291547629041982 1 0 1 
2 1 4 
p 0.00173205115397904 1 0 1 
2 4 3 
p 0.00291547629041982 1 0 1 
2 1 2 
p 0.00173205115397904 1 0 1 
2 2 3 
p 0.00291547629041982 1 0 1 
2 1 4 
p 0.00173205115397904 1 0 1 
2 4 3 
p 0.00291547629041982 1 0 1 
2 4 3 
p 0.00173205115397904 1 0 1 
2 2 3 
p 0.00173205115397904 1 0 1 
2 1 2 
p 0.00173205115397904 1 0 1 
2 1 4 
p 0.00173205115397904 1 0 1 
2 2 3 
p 0.00173205115397904 1 0 1 
2 4 3 
p 0.00173205115397904 1 0 1 
2 2 3 
p 0.00173205115397904 1 0 1 
2 4 3 
p 0.00173205115397904 1 0 1 
2 2 3 
p 0.00173205115397904 1 0 1 
2 4 3 
p 0.00173205115397904 1 0 1 
Surfaces 18
1 -0.5 -0.5 -1 1 0 -0 0 0 1 0 -1 0 
1 -0.5 -0.5 -1 -0 1 0 0 0 1 1 0 -0 
1 -0.5 -0.5 0 0 0 1 1 0 -0 -0 1 0 
1 -0.5 0.5 -1 -0 1 0 0 0 1 1 0 -0 
1 -0.5 -0.5 -1 0 0 1 1 0 -0 -0 1 0 
1 0.5 -0.5 -1 1 0 -0 0 0 1 0 -1 0 
1 0 0 0 1 0 -0 0 0 1 0 -1 0 
1 0 0 0 0 0 1 1 0 -0 -0 1 0 
1 0 0 0 -0 1 0 0 0 1 1 0 -0 
1 0 0 1 0 0 1 1 0 -0 -0 1 0 
1 0 1 0 -0 1 0 0 0 1 1 0 -0 
1 1 0 0 1 0 -0 0 0 1 0 -1 0 
1 0.5 0.5 1 1 0 -0 0 0 1 0 -1 0 
1 0.5 0.5 1 0 0 1 1 0 -0 -0 1 0 
1 0.5 0.5 1 -0 1 0 0 0 1 1 0 -0 
1 0.5 0.5 2 0 0 1 1 0 -0 -0 1 0 
1 0.5 1.5 1 -0 1 0 0 0 1 1 0 -0 
1 1.5 0.5 1 1 0 -0 0 0 1 0 -1 0 
Triangulations 12
4 2 1 0
-0.5 -0.5 0 -0.5 0.5 0 0.5 0.5 0 0.5 -0.5 0 0 0 0 1 1 1 1 0 3 2 1 3 1 4 
4 2 1 0
-0.5 0.5 -1 0.5 0.5 -1 0.5 0.5 0 -0.5 0.5 0 0 0 0 1 1 1 1 0 3 2 1 3 1 4 
4 2 1 0
0.5 -0.5 -1 0.5 -0.5 0 0.5 0.5 0 0.5 0.5 -1 0 0 1 0 1 -1 0 -1 2 4 3 2 1 4 
4 2 1 0
0 0 0 0 0 1 0 1 1 0 1 0 0 0 1 0 1 -1 0 -1 2 4 3 2 1 4 
4 2 1 0
0 0 0 1 0 0 1 0 1 0 0 1 0 0 0 1 1 1 1 0 3 2 1 3 1 4 
4 2 1 0
0 0 1 0 1 1 1 1 1 1 0 1 0 0 0 1 1 1 1 0 3 2 1 3 1 4 
4 2 1 0
0 1 0 1 1 0 1 1 1 0 1 1 0 0 0 1 1 1 1 0 3 2 1 3 1 4 
4 2 1 0
1 0 0 1 0 1 1 1 1 1 1 0 0 0 1 0 1 -1 0 -1 2 4 3 2 1 4 
4 2 1 0
0 0 0 0 1 0 1 1 0 1 0 0 0 0 0 1 1 1 1 0 3 2 1 3 1 4 
4 2 1 0
0.5 0.5 1 0.5 0.5 2 0.5 1.5 2 0.5 1.5 1 0 0 1 0 1 -1 0 -1 2 4 3 2 1 4 
4 2 1 0
0.5 0.5 1 1.5 0.5 1 1.5 0.5 2 0.5 0.5 2 0 0 0 1 1 1 1 0 3 2 1 3 1 4 
4 2 1 0
0.5 0.5 1 0.5 1.5 1 1.5 1.5 1 1.5 0.5 1 0 0 0 1 1 1 1 0 3 2 1 3 1 4 

TShapes 111
Ve
1e-007
-0.5 -0.5 0
0 0

0101101
*
Ve
1e-007
-0.5 -0.5 -1
0 0

0101101
*
Ed
 1e-007 1 1 0
1  1 0 0 1
2  1 1 0 0 1
2  2 2 0 0 1
0

0101000
-111 0 +110 0 *
Ve
1e-007
-0.5 0.5 0
0 0

0101101
*
Ed
 1e-007 1 1 0
1  2 0 0 1
2  3 1 0 0 1
2  4 3 0 0 1
6  1 1 0
0

0101000
-108 0 +111 0 *
Ve
1e-007
-0.5 0.5 -1
0 0

0101101
*
Ed
 1e-007 1 1 0
1  3 0 0 1
2  5 1 0 0 1
2  6 4 0 0 1
6  2 2 0
0

0101000
-108 0 +106 0 *
Ed
 1e-007 1 1 0
1  4 0 0 1
2  7 1 0 0 1
2  8 5 0 0 1
0

0101000
-106 0 +110 0 *
Wi

0101100
-109 0 -107 0 +105 0 +104 0 *
Fa
0  1e-007 1 0

0101000
+103 0 *
Ve
1e-007
0.5 -0.5 -1
0 0

0101101
*
Ed
 1e-007 1 1 0
1  5 0 0 1
2  9 2 0 0 1
2  10 5 0 0 1
0

0101000
-101 0 +110 0 *
Ve
1e-007
0.5 -0.5 0
0 0

0101101
*
Ed
 1e-007 1 1 0
1  6 0 0 1
2  11 6 0 0 1
2  12 2 0 0 1
6  3 3 0
0

0101000
-99 0 +101 0 *
Ed
 1e-007 1 1 0
1  7 0 0 1
2  13 2 0 0 1
2  14 3 0 0 1
6  4 1 0
0

0101000
-99 0 +111 0 *
Wi

0101100
-100 0 -98 0 +97 0 +109 0 *
Fa
0  1e-007 2 0

0101000
+96 0 *
Ve
2.12133034355964e-007
0 0.5 0
0 0

0101101
*
Ed
 1e-007 1 1 0
1  8 0 0 0.5
2  15 4 0 0 0.5
2  16 3 0 0 0.5
0

0101000
+108 0 -94 0 *
Ve
2.12133034355964e-007
0 0 0
0 0

0101101
*
Ed
 1e-007 1 1 0
1  9 0 0 0.5
2  17 7 0 0 0.5
2  18 8 0 0 0.5
2  19 3 0 0 0.5
0

0101000
+92 0 -94 0 *
Ve
2.12133034355964e-007
0.5 0 0
0 0

0101101
*
Ed
 1e-007 1 1 0
1  10 0 0 0.5
2  20 9 0 0 0.5
2  21 8 0 0 0.5
2  22 3 0 0 0.5
0

0101000
+92 0 -90 0 *
Ed
 1e-007 1 1 0
1  11 0 0 0.5
2  23 6 0 0 0.5
2  24 3 0 0 0.5
0

0101000
+99 0 -90 0 *
Wi

0101100
-93 0 +91 0 -89 0 +88 0 +97 0 -107 0 *
Fa
0  1e-007 3 0

0101000
+87 0 *
Ve
1e-007
0.5 0.5 -1
0 0

0101101
*
Ed
 1e-007 1 1 0
1  12 0 0 1
2  25 4 0 0 1
2  26 5 0 0 1
6  5 2 0
0

0101000
-85 0 +106 0 *
Ve
2.12133034355964e-007
0.5 0.5 0
0 0

0101101
*
Ed
 1e-007 1 1 0
1  13 0 0 1
2  27 6 0 0 1
2  28 4 0 0 1
6  6 3 0
6  7 2 0
0

0101000
-83 0 +85 0 *
Ed
 1e-007 1 1 0
1  8 0 0.5 1
2  15 4 0 0.5 1
2  16 3 0 0.5 1
2  29 8 0 0.5 1
0

0101000
+94 0 -83 0 *
Wi

0101100
-84 0 -82 0 +93 0 +81 0 +105 0 *
Fa
0  1e-007 4 0

0101000
+80 0 *
Ed
 1e-007 1 1 0
1  14 0 0 1
2  30 6 0 0 1
2  31 5 0 0 1
6  8 3 0
0

0101000
-85 0 +101 0 *
Wi

0101100
-104 0 -84 0 +78 0 +100 0 *
Fa
0  1e-007 5 0

0101000
+77 0 *
Ed
 1e-007 1 1 0
1  11 0 0.5 1
2  23 6 0 0.5 1
2  24 3 0 0.5 1
2  32 8 0 0.5 1
0

0101000
+90 0 -83 0 *
Wi

0101100
-98 0 -88 0 -75 0 +82 0 +78 0 *
Fa
0  1e-007 6 0

0101000
+74 0 *
Ve
1e-007
0 0 1
0 0

0101101
*
Ed
 1e-007 1 1 0
1  15 0 0 1
2  33 7 0 0 1
2  34 9 0 0 1
6  9 4 0
6  10 5 0
0

0101000
-72 0 +92 0 *
Ve
1e-007
0 1 1
0 0

0101101
*
Ed
 1e-007 1 1 0
1  16 0 0 1
2  35 7 0 0 1
2  36 10 0 0 1
6  11 6 0
6  12 4 0
0

0101000
-70 0 +72 0 *
Ve
1e-007
0 1 0
0 0

0101101
*
Ed
 1e-007 1 1 0
1  17 0 0 1
2  37 7 0 0 1
2  38 11 0 0 1
6  13 7 0
6  14 4 0
0

0101000
-70 0 +68 0 *
Ed
 1e-007 1 1 0
1  9 0 0.5 1
2  17 7 0 0.5 1
2  18 8 0 0.5 1
0

0101000
+94 0 -68 0 *
Wi

0101100
-71 0 -69 0 +67 0 +91 0 +66 0 *
Fa
0  1e-007 7 0

0101000
+65 0 *
Ve
1e-007
1 0 0
0 0

0101101
*
Ed
 1e-007 1 1 0
1  10 0 0.5 1
2  20 9 0 0.5 1
2  21 8 0 0.5 1
0

0101000
+90 0 -63 0 *
Ve
1e-007
1 0 1
0 0

0101101
*
Ed
 1e-007 1 1 0
1  18 0 0 1
2  39 12 0 0 1
2  40 9 0 0 1
6  15 8 0
6  16 5 0
0

0101000
-61 0 +63 0 *
Ed
 1e-007 1 1 0
1  19 0 0 1
2  41 9 0 0 1
2  42 10 0 0 1
6  17 6 0
6  18 5 0
0

0101000
-61 0 +72 0 *
Wi

0101100
-89 0 -62 0 -60 0 +59 0 +71 0 *
Fa
0  1e-007 9 0

0101000
+58 0 *
Ve
1e-007
1 1 0
0 0

0101101
*
Ed
 1e-007 1 1 0
1  20 0 0 1
2  43 11 0 0 1
2  44 8 0 0 1
6  19 7 0
6  20 9 0
0

0101000
-56 0 +68 0 *
Ed
 1e-007 1 1 0
1  21 0 0 1
2  45 12 0 0 1
2  46 8 0 0 1
6  21 8 0
6  22 9 0
0

0101000
-56 0 +63 0 *
Wi

0101100
-66 0 -55 0 +54 0 +62 0 -75 0 +81 0 *
Fa
0  1e-007 8 0

0101000
+53 0 *
Ve
2.12133034355964e-007
0.5 1 1
0 0

0101101
*
Ed
 1e-007 1 1 0
1  22 0 0 0.5
2  47 11 0 0 0.5
2  48 10 0 0 0.5
0

0101000
+70 0 -51 0 *
Ve
2.12133034355964e-007
0.5 0.5 1
0 0

0101101
*
Ed
 1e-007 1 1 0
1  23 0 0 0.5
2  49 13 0 0 0.5
2  50 14 0 0 0.5
2  51 10 0 0 0.5
0

0101000
+49 0 -51 0 *
Ve
2.12133034355964e-007
1 0.5 1
0 0

0101101
*
Ed
 1e-007 1 1 0
1  24 0 0 0.5
2  52 15 0 0 0.5
2  53 14 0 0 0.5
2  54 10 0 0 0.5
0

0101000
+49 0 -47 0 *
Ed
 1e-007 1 1 0
1  25 0 0 0.5
2  55 12 0 0 0.5
2  56 10 0 0 0.5
0

0101000
+61 0 -47 0 *
Wi

0101100
-50 0 +48 0 -46 0 +45 0 +59 0 -69 0 *
Fa
0  1e-007 10 0

0101000
+44 0 *
Ve
2.12133034355964e-007
1 1 1
0 0

0101101
*
Ed
 1e-007 1 1 0
1  26 0 0 1
2  57 12 0 0 1
2  58 11 0 0 1
6  23 8 0
6  24 7 0
0

0101000
-42 0 +56 0 *
Ed
 1e-007 1 1 0
1  22 0 0.5 1
2  47 11 0 0.5 1
2  48 10 0 0.5 1
2  59 14 0 0.5 1
0

0101000
+51 0 -42 0 *
Wi

0101100
-55 0 -41 0 +50 0 +40 0 +67 0 *
Fa
0  1e-007 11 0

0101000
+39 0 *
Ed
 1e-007 1 1 0
1  25 0 0.5 1
2  55 12 0 0.5 1
2  56 10 0 0.5 1
2  60 14 0 0.5 1
0

0101000
+47 0 -42 0 *
Wi

0101100
-60 0 -45 0 -37 0 +41 0 +54 0 *
Fa
0  1e-007 12 0

0101000
+36 0 *
Ve
1e-007
0.5 0.5 2
0 0

0101101
*
Ed
 1e-007 1 1 0
1  27 0 0 1
2  61 13 0 0 1
2  62 15 0 0 1
6  25 10 0
6  26 11 0
0

0101000
-34 0 +49 0 *
Ve
1e-007
0.5 1.5 2
0 0

0101101
*
Ed
 1e-007 1 1 0
1  28 0 0 1
2  63 13 0 0 1
2  64 16 0 0 1
6  27 10 0
0

0101000
-32 0 +34 0 *
Ve
1e-007
0.5 1.5 1
0 0

0101101
*
Ed
 1e-007 1 1 0
1  29 0 0 1
2  65 13 0 0 1
2  66 17 0 0 1
6  28 10 0
0

0101000
-32 0 +30 0 *
Ed
 1e-007 1 1 0
1  23 0 0.5 1
2  49 13 0 0.5 1
2  50 14 0 0.5 1
0

0101000
+51 0 -30 0 *
Wi

0101100
-33 0 -31 0 +29 0 +48 0 +28 0 *
Fa
0  1e-007 13 0

0101000
+27 0 *
Ve
1e-007
1.5 0.5 1
0 0

0101101
*
Ed
 1e-007 1 1 0
1  24 0 0.5 1
2  52 15 0 0.5 1
2  53 14 0 0.5 1
0

0101000
+47 0 -25 0 *
Ve
1e-007
1.5 0.5 2
0 0

0101101
*
Ed
 1e-007 1 1 0
1  30 0 0 1
2  67 18 0 0 1
2  68 15 0 0 1
6  29 11 0
0

0101000
-23 0 +25 0 *
Ed
 1e-007 1 1 0
1  31 0 0 1
2  69 15 0 0 1
2  70 16 0 0 1
6  30 11 0
0

0101000
-23 0 +34 0 *
Wi

0101100
-46 0 -24 0 -22 0 +21 0 +33 0 *
Fa
0  1e-007 15 0

0101000
+20 0 *
Ve
1e-007
1.5 1.5 1
0 0

0101101
*
Ed
 1e-007 1 1 0
1  32 0 0 1
2  71 17 0 0 1
2  72 14 0 0 1
6  31 12 0
0

0101000
-18 0 +30 0 *
Ed
 1e-007 1 1 0
1  33 0 0 1
2  73 18 0 0 1
2  74 14 0 0 1
6  32 12 0
0

0101000
-18 0 +25 0 *
Wi

0101100
-28 0 -17 0 +16 0 +24 0 -37 0 +40 0 *
Fa
0  1e-007 14 0

0101000
+15 0 *
Ve
1e-007
1.5 1.5 2
0 0

0101101
*
Ed
 1e-007 1 1 0
1  34 0 0 1
2  75 17 0 0 1
2  76 16 0 0 1
0

0101000
-13 0 +32 0 *
Ed
 1e-007 1 1 0
1  35 0 0 1
2  77 18 0 0 1
2  78 16 0 0 1
0

0101000
-13 0 +23 0 *
Wi

0101100
-31 0 -12 0 +11 0 +21 0 *
Fa
0  1e-007 16 0

0101000
+10 0 *
Ed
 1e-007 1 1 0
1  36 0 0 1
2  79 18 0 0 1
2  80 17 0 0 1
0

0101000
-13 0 +18 0 *
Wi

0101100
-17 0 -8 0 +12 0 +29 0 *
Fa
0  1e-007 17 0

0101000
+7 0 *
Wi

0101100
-22 0 -11 0 +8 0 +16 0 *
Fa
0  1e-007 18 0

0101000
+5 0 *
Sh

0101100
-102 0 -95 0 +86 0 +79 0 -76 0 +73 0 -64 0 -57 0 -52 0 +43 0 
+38 0 +35 0 -26 0 -19 0 -14 0 +9 0 +6 0 +4 0 *
So

0100000
+3 0 *
Co

1100000
+2 0 *

+1 0 