DBRep_DrawableShape

CASCADE Topology V1, (c) Matra-Datavision
Locations 0
Curve2ds 22
7 0 0  2 3 2  0.0399999941026788 11.150836646570349  0.019839991129631401 11.150830075973374  0 11.150822425595075 
 0 3 42.196842732521752 3
7 0 0  4 5 2  0.39999989357294147 11.15095882148875  0.30332983734461916 11.150923728056853  0.21164722394593127 11.15089389113075  0.12404482771472392 11.150865431980151  0.039999994102679029 11.150836646570349 
 0 5 351.56191497482791 5
7 0 0  4 5 2  0.68000012617219607 11.151076116842347  0.60615091890050365 11.151039865565394  0.53508405188771135 11.151009543156079  0.46644829002934785 11.150982959594955  0.39999989357294086 11.150958821488752 
 0 5 241.70389008516537 5
7 0 0  4 5 2  0.91999987724416699 11.151215000746062  0.85745776358124104 11.15117258030034  0.79670669408579187 11.151136239710581  0.73759472076891086 11.151104370869859  0.68000012617219707 11.151076116842347 
 0 5 188.52255484565765 5
7 0 0  4 5 2  1.1199998130722157 11.151370938576827  1.068558270899608 11.151325174279634  1.0180766808939552 11.151284494846209  0.96857583524598567 11.151247930577313  0.91999987724416787 11.151215000746062 
 0 5 146.46627289516965 5
7 0 0  4 5 2  1.3199998040539347 11.151574094849309  1.2689854063340924 11.151515356276889  1.218624796695579 11.151462481899102  1.1689570069926916 11.151414454723863  1.1199998130722157 11.151370938576827 
 0 5 139.39512552351414 5
7 0 0  4 5 2  1.5199995366267596 11.151834477077074  1.4694137765927522 11.151760521654182  1.4191835292788681 11.151692884121985  1.3693649315523828 11.151630871484542  1.3199998040539351 11.151574094849309 
 0 5 134.9020459350904 5
7 0 0  3 4 2  1.7199996285825374 11.152162072662714  1.6530652055920783 11.152040026898888  1.586327002616752 11.151931463746237  1.51999953662676 11.151834477077074 
 0 4 132.68194293215603 4
7 0 0  3 4 2  1.999998824929748 11.152752719304949  1.9071260157294834 11.152528658781335  1.8136290873506322 11.152332718889255  1.7199996285825372 11.152162072662714 
 0 4 185.50970653130122 4
7 0 0  2 3 2  2.3262239745723696 11.153666414021272  2.1652351037452591 11.153151462233009  1.9999988249297478 11.152752719304949 
 0 3 220.01696883694757 3
7 0 0  6 12 3  2.316943900007101 10.82073356304894  2.3176617575824139 10.848508035376653  2.3182522793172211 10.876280371458051  2.319476273140026 10.90402914994047  2.3198141480738741 10.931797071925757  2.3208535125640992 10.959539486839276  2.3222141564020053 11.01503327534815  2.3232645078382554 11.042763715690171  2.3238561374546407 11.070501896728956  2.3244861722861665 11.098233399186483  2.3256014366732147 11.125945325550754  2.3262239745723705 11.153666414021272 
 0 7 385.85883718923793 5 771.71767437847586 7
7 0 0  8 65 10  2.1939966414157257 6.8798451109733039  2.1971483550187259 6.9413869138697919  2.2003646702723927 7.0029526483558584  2.2045014886680292 7.064512217824813  2.2057092742761597 7.1261908567976207  2.2105744870495982 7.1877688049571589  2.2125674500421155 7.2494590947462711  2.2156681194182966 7.3111283365360578  2.2234728595746112 7.4807769539123079  2.228270273300736 7.5887843595194742  2.2329272273208862 7.6968238776142037  2.237431727984442 7.8048813719361787  2.2417865901447884 7.9129444251143033  2.2460094371593171 8.0210023386666958  2.2501327008894254 8.129046133000692  2.2555977003996164 8.2775828167300212  2.2572320254558589 8.3180853316779331  2.2586141647056808 8.3585948094786016  2.2599713953947815 8.399102314711465  2.2614597339186764 8.4396017474276235  2.2629058274092944 8.4800997357320327  2.2640817071676342 8.5206049328336526  2.267774236415605 8.6319669777121728  2.2699967951585762 8.7028279541664126  2.2721331859350031 8.7736810332295452  2.2741526738002249 8.8445267871944555  2.2760406831013076 8.915364975343639  2.2777987974770335 8.9861945439491944  2.279444759857908 9.0570136262728305  2.2815528662683557 9.1543736747803877  2.2819099253212056 9.1809333981792847  2.2826594189184966 9.2074736222963498  2.2833844441658391 9.2340122824119  2.2837875167888466 9.2605621870628916  2.2840901590332878 9.2871136881924574  2.2847199846572006 9.3136481739389314  2.2863564178596789 9.3866136267679394  2.2858402035999461 9.4331061208213214  2.2902017453452572 9.4793724790797569  2.2856981582008302 9.5260233426233754  2.2917475160502363 9.5721926437108777  2.2891324952361174 9.6187389569531661  2.291321347435769 9.6650579612251022  2.2924206316357627 9.7462185595725597  2.293078690406229 9.7809864765984873  2.2937582718204093 9.8157465282429381  2.2944069250362977 9.8505009369199303  2.2950090376068095 9.8852502334008889  2.2955858354797769 9.919993256814637  2.2961953829979524 9.9547271546474061  2.2981849568943504 10.041520858031793  2.2987389840070271 10.093609262966647  2.3000705801893599 10.145643885757393  2.3015135690168984 10.197656102151216  2.3025135798819139 10.249671993725086  2.3034472427604844 10.301674084251488  2.305006679553177 10.353630194137221  2.3073214126978354 10.457547308938102  2.3088727616718687 10.509470519119443  2.3100318355549274 10.561396405892571  2.3112208343892622 10.613304676778432  2.3127229568409211 10.665181868411214  2.3142452550067181 10.71704242440463  2.3153770488131289 10.768906367078975  2.3169439000071006 10.820733563048936 
 0 9 1131.4835903734445 7 3111.5798735269723 7 3854.1159797095452 7 5153.5541655290472 7 5640.8434852113605 7 6493.5997946554089 7 7133.1670267384452 7 8092.5178748630005 7 9051.8687229875559 9
7 0 0  4 5 2  1.9599991112987911 6.8791014152008714  2.0189363358404648 6.8792771935080452  2.0775865144714629 6.8794565566424808  2.1359295925779946 6.8796521537197179  2.1939966414157239 6.8798451109733048 
 0 5 168.35491037029414 5
7 0 0  3 4 2  1.6799999167427757 6.8783304945939303  1.7733390339008892 6.8785686906257766  1.8668963702203598 6.8788245241178529  1.9599991112987902 6.8791014152008714 
 0 4 199.38119499378817 4
7 0 0  4 5 2  1.4399997560877598 6.8777522315605397  1.4993690731999507 6.8778876474933099  1.5592296041319287 6.8780286761844422  1.6194808168709187 6.8781760477984051  1.6799999167427759 6.8783304945939303 
 0 5 172.37584799764736 5
7 0 0  4 5 2  1.2399997990814424 6.8773132478055086  1.2891362882273114 6.877417259085405  1.3388781169056045 6.8775249503991063  1.3891862036557825 6.8776362806943609  1.4399997560877595 6.8777522315605397 
 0 5 147.57363899989696 5
7 0 0  4 5 2  1.0400001583488299 6.8769009592368828  1.0887404336562838 6.8769991536094608  1.138329600844628 6.8771001346457297  1.1887601169716575 6.8772047481521952  1.2399997990814404 6.8773132478055086 
 0 5 153.87969667458623 5
7 0 0  5 6 2  0.83999991375880534 6.8765038696998699  0.8787583956557512 6.8765800307116933  0.91811384431082388 6.8766577474234509  0.95808210197122889 6.8767366191768815  0.99870798251177462 6.8768179102243039  1.0400001583488283 6.8769009592368828 
 0 6 162.95399033026536 6
7 0 0  4 5 2  0.59999987118461351 6.8760315440672128  0.65752605690114052 6.8761456375407306  0.71660156865265634 6.8762617486272575  0.77736553945842957 6.8763806831501597  0.83999991375880678 6.8765038696998699 
 0 5 210.59990090488301 5
7 0 0  4 5 2  0.32000004327611031 6.875461837684953  0.38640064658660656 6.875601574889032  0.45501209103399631 6.875742286410059  0.52608764471565017 6.8758849465265541  0.5999998711846134 6.8760315440672128 
 0 5 270.52495490337208 5
7 0 0  8 16 3  0 6.8747485074628099  -2.7107800557035766e-06 6.8747503408958437  3.3997935755203379e-05 6.8747461661696434  -5.6631614286928311e-08 6.8747527746018022  5.5319564339129101e-05 6.8747457562130876  3.1309656666422825e-05 6.874750834540464  5.5849371875082987e-05 6.8747485161875375  6.0872365945402462e-05 6.8747491700014507  0.037642308577607614 6.8748379312583454  0.0758397653698617 6.8749269610447223  0.1146912662738597 6.8750159964061943  0.15422870918727641 6.8751049412885505  0.19448754013314323 6.8751938122873719  0.23550675325984846 6.8752827386480009  0.27732889084113704 6.87537196226556  0.3200000432761107 6.875461837684953 
 0 9 0.084896327839337038 7 347.73535882992451 9
7 0 0  6 12 3  0 11.150822425595074  5.6532454385530115e-07 10.797584083637394  6.8457303719369335e-07 10.4436035376402  5.4420508325360043e-07 10.08891558372463  3.306802852734464e-07 9.7335550180118116  2.304582464916552e-07 9.3775566366228702  4.1588402005557798e-06 8.6643610074347635  -8.32310556697684e-06 8.3070929307978076  8.3432432219183116e-06 7.9496089028161805  -4.4312549976815248e-06 7.5906967976316082  1.2021491273737015e-06 7.2324062446273274  0 6.8747485074628107 
 0 7 4918.3779827395065 5 9836.755965479013 7
Curves 22
7 0 0  3 4 2  21749.990344374663 9506.3233698406402 2638.4373248176871  21749.994137246958 9506.4422637858952 2652.5232055334882  21749.997062309129 9506.5 2666.6071088720955  21749.999149338302 9506.5000000000018 2680.6846965168152 
 0 4 42.196842732521802 4
7 0 0  3 4 2  21749.890782089275 9488.3036586232556 2286.7319233978624  21749.93147079238 9500.222263438689 2403.7173526336651  21749.962969101703 9505.3320582404103 2520.9915976210277  21749.990344374644 9506.3233698406402 2638.4373248176903 
 0 4 351.56191497482803 4
7 0 0  3 4 2  21749.791698587876 9452.7053420186967 2047.0233249039677  21749.830653691413 9468.7104593203567 2126.3515190383096  21749.862862030703 9480.1111302084628 2206.319277509624  21749.890782089282 9488.3036586232556 2286.731923397861 
 0 4 241.703890085165 4
7 0 0  3 4 2  21749.687455752704 9406.1262142767937 1863.6491635497484  21749.726984988316 9424.9858089431182 1923.959483244819  21749.76126237186 9440.2230383067872 1985.155707826973  21749.791698587876 9452.7053420186967 2047.0233249039677 
 0 4 188.52255484565799 4
7 0 0  3 4 2  21749.588373788178 9355.4285427964041 1725.5495941669114  21749.622651550613 9374.6669013880037 1770.733545975753  21749.656699456184 9391.4781185220454 1816.8066312229048  21749.687455752686 9406.1262142767937 1863.6491635497509 
 0 4 146.46627289516999 4
7 0 0  3 4 2  21749.490289414116 9294.1873380409143 1599.6035832444261  21749.52248293308 9316.7185471397552 1640.5568375185142  21749.555635602643 9337.1192931480691 1682.5478022642419  21749.588373788181 9355.428542796406 1725.5495941669119 
 0 4 139.395125523514 4
7 0 0  3 4 2  21749.400048255789 9223.2014761450646 1484.1590647022003  21749.428547950065 9248.691901498647 1521.5089841063086  21749.458944678983 9272.3845520843806 1559.974359300933  21749.490289414116 9294.1873380409161 1599.6035832444259 
 0 4 134.90204593509 4
7 0 0  3 4 2  21749.322049183909 9143.2894053324599 1377.5378413250098  21749.345691236802 9171.4358593499201 1411.9327450060741  21749.372061187343 9198.1344120084705 1447.4294700839209  21749.400048255789 9223.2014761450628 1484.1590647022001 
 0 4 132.68194293215601 4
7 0 0  3 4 2  21749.237375006331 9017.9766615086191 1239.8711494766985  21749.260615845469 9061.9295025311749 1283.7311776470317  21749.288808152203 9103.9174775161046 1329.4254619855271  21749.322049183909 9143.289405332458 1377.5378413250096 
 0 4 185.50970653130099 4
7 0 0  3 4 2  21749.160191297295 8854.1555228650777 1092.0431749872203  21749.18631839622 8911.1802527440123 1138.6263154578412  21749.209963986013 8965.8436861324008 1187.8482345959267  21749.237375006338 9017.976661508621 1239.8711494766974 
 0 4 220.016968836948 4
7 0 0  8 9 2  20988.613077734852 8854.1295650464963 1223.135085106336  21083.615576847318 8854.1621730675797 1206.370852158966  21178.657164641747 8854.340165242711 1189.8303393874041  21273.581288476093 8853.5260653172099 1172.6093467037592  21368.839783779644 8854.986747349496 1157.318451933558  21463.696995951876 8853.4202496649559 1139.7260712833829  21558.951226865331 8854.5438287117231 1124.3976457686883  21653.997711541982 8854.0213777642693 1107.8914965907722  21749.160191297273 8854.1555228650814 1092.043174987225 
 0 9 771.71767437847598 9
7 0 0  13 74 7  12148.724706616871 8854.3248202708746 3172.6459410341231  12339.74730735071 8854.4346821101062 3121.403003978246  12530.795426109626 8854.257739354578 3070.2115360675971  12721.963283113048 8854.2834496329015 3019.5754724135058  12913.222509097393 8854.3810739547716 2969.3838035291355  13104.549097219868 8854.4110026591097 2919.510263968632  13295.949996998974 8854.3727265489124 2869.9615043354429  13487.445110085511 8854.3388682967634 2820.8156340418045  13679.043529250997 8854.3506712163653 2772.1214963940765  13870.735985184527 8854.3763586325658 2723.8575178724973  14062.508535888366 8854.3597497128249 2675.9774459768719  14254.365661818045 8854.312537973914 2628.498771046452  14446.334003205639 8854.3296139265949 2581.5181004661854  14809.78746445742 8854.335690806578 2493.4268131691761  14981.251491586636 8854.3354960579254 2452.2372772031745  15152.809494247986 8854.2945271360859 2411.3728417701332  15324.456586625492 8854.7009386485424 2371.2568594376116  15496.046934226451 8853.9094976119541 2330.4983028692645  15667.865028114615 8853.9571242567563 2290.8237821433891  15839.86373902659 8854.8307832075061 2252.2307125704911  16011.758621259674 8854.466894209987 2212.9803763932978  16183.700509964097 8853.7360248704008 2173.8114235834264  16355.955278888599 8854.573941845656 2136.3632387822227  16528.116350022832 8854.1671065520386 2098.2612403624084  16700.437446771193 8854.2411960637419 2060.9684436548  16931.542995453812 8854.2345409336176 2011.4306754808301  16990.270895079859 8854.2862845979726 1998.9369920237552  17048.979692642686 8854.1873393230526 1986.3676876995662  17107.710738999125 8854.151004744579 1973.8945180544222  17166.475802106204 8854.2386250244836 1961.5663181328773  17225.252208999707 8854.3346252686461 1949.2888163744631  17284.016254931303 8854.3183121961629 1936.9636111776301  17342.770076403998 8854.2019956796503 1924.5998982605038  17401.540017011484 8854.1222546802692 1912.3073886821273  17460.347201968259 8854.1883646240294 1900.1736894740079  17519.173877586669 8854.3091742111665 1888.1242715982853  17577.971772554993 8854.2369200847115 1875.95798394697  17701.038212397183 8854.1256002374157 1850.612053400906  17765.335787986129 8854.224982837768 1837.5512218368722  17829.634836563502 8854.280125552099 1824.4992274795388  17893.927692920763 8854.2545113391352 1811.4261492406101  17958.22198830534 8854.1894027570615 1798.364669882553  18022.528699230101 8854.1417433899496 1785.3596213075984  18086.854546394214 8854.1456857819594 1772.4370984090438  18151.198517301727 8854.1960069970901 1759.5914863443245  18215.552353135652 8854.25169189595 1746.7887523518318  18279.904764970855 8854.2579432409184 1733.9843461471141  18344.249217434808 8854.1848976835499 1721.1540598261427  18408.595057286115 8854.0813104107201 1708.3361924473097  18521.271869945806 8854.186611667219 1686.1937506603249  18569.559381501371 8854.1979916147575 1676.6970768579199  18617.847165410953 8854.1898865493185 1667.2042452373212  18666.137467021417 8854.1737373938467 1657.7239175133946  18714.431951975323 8854.1581607197531 1648.2625188803981  18762.731709438194 8854.1489509034855 1638.8242383186703  18811.037247153497 8854.1490767914838 1629.411028124928  18859.34849767607 8854.1586859642921 1620.0226045034258  18907.664811821083 8854.1751001777393 1610.6564469462953  18955.984964430256 8854.1928194513384 1601.3077987770671  19004.307150133231 8854.2035190044007 1591.9696667527617  19052.628985918611 8854.1960511509005 1582.6328213042557  19245.903081772998 8854.0376239822199 1545.2447217657714  19390.964785116699 8854.2889590091618 1517.6324053172759  19536.234049856354 8855.3560554652431 1490.7912052486233  19680.109567390457 8849.6893535802901 1458.8465278121391  19828.000026225061 8862.7709422181342 1441.7252889532617  19968.898382341205 8842.8370596759651 1398.954502676502  20118.825436239262 8864.9167616237191 1389.2159480740743  20260.13769592714 8846.7409744784363 1348.2072373143199  20407.760982268555 8857.5557456224815 1330.0458596743154  20552.159209335507 8853.3025112253781 1300.3283481446374  20697.710227140375 8854.1187893953484 1274.7880178479804  20843.15906313766 8854.2296604844832 1248.924729897145  20988.613077734852 8854.1295650464963 1223.135085106338 
 0 14 2568.4657596002044 12 4860.3733485765279 12 5640.8434852113605 12 6493.5997946554089 12 7133.1670267384452 12 9051.8687229875595 14
7 0 0  3 4 2  12148.818047277158 8975.3248025181529 3290.353899228242  12148.789539732181 8936.3502008441446 3249.7222252043593  12148.771174445465 8896.1001940423648 3210.4192263601717  12148.724706616875 8854.3248202708764 3172.6459410341226 
 0 4 168.35491037029399 4
7 0 0  3 4 2  12148.944793552317 9107.0293161099598 3440.8579467034715  12148.896018726164 9065.621283880153 3388.4727386663862  12148.853566231364 9021.5007622830963 3338.4926435281263  12148.818047277162 8975.3248025181529 3290.3538992282429 
 0 4 199.381194993788 4
7 0 0  3 4 2  12149.083635501056 9207.5565576042154 3581.6728619067517  12149.033731202317 9176.4277644537797 3533.0220214669803  12148.986943184525 9142.8267667013861 3486.1452249480994  12148.944793552315 9107.0293161099598 3440.857946703472 
 0 4 172.37584799764701 4
7 0 0  3 4 2  12149.216744835046 9281.6749361460825 3709.9596940202723  12149.170899089409 9258.9181232728697 3666.0702807781036  12149.126200350318 9234.1993515825907 3623.3126237648471  12149.083635501056 9207.5565576042136 3581.6728619067512 
 0 4 147.57363899989701 4
7 0 0  3 4 2  12149.359772405833 9346.2625118284705 3850.2915786079666  12149.31252257833 9326.8999733242617 3802.5232484887438  12149.264445149867 9305.4058098304777 3755.7277360748108  12149.216744835046 9281.6749361460825 3709.9596940202737 
 0 4 153.879696674586 4
7 0 0  3 4 2  12149.504231582621 9400.6390205611278 4004.5246548484333  12149.45835744197 9384.785919438129 3952.3273855812727  12149.410328073327 9366.7671525853748 3900.87739415738  12149.359772405845 9346.2625118284741 3850.2915786079652 
 0 4 162.95399033026499 4
7 0 0  3 4 2  12149.667406167557 9451.6760847477235 4209.5040463369905  12149.617666080394 9437.9193073846363 4140.3882996779039  12149.563215243765 9421.134126666173 4072.0060840076858  12149.504231582621 9400.639020561126 4004.5246548484333 
 0 4 210.59990090488299 4
7 0 0  3 4 2  12149.837210066536 9490.6350264739558 4477.8664197463804  12149.787465186715 9481.9420558862439 4387.8166491012862  12149.731299289415 9469.3514099753083 4298.3070648861476  12149.667406167555 9451.6760847477217 4209.5040463369905 
 0 4 270.52495490337202 4
7 0 0  3 6 3  12149.999826122228 9506.5000000000018 4825.8623902174704  12150.010726033768 9506.4999999999945 4825.8679703520829  12150.00095594949 9506.4999997663817 4825.8092385135005  12149.951896004584 9506.4977819650885 4709.5992303645717  12149.900696227885 9501.8077882193229 4593.604261094204  12149.837210066553 9490.6350264739576 4477.8664197463759 
 0 4 0.084896327839337038 2 347.73535882992502 4
7 0 0  9 10 2  21749.999149338302 9506.4999999999982 2680.6846965168156  20672.820897932219 9506.5000000001328 2871.9854224015426  19599.09216672046 9506.499999998965 3078.5507567479663  18528.139380413148 9506.5000000018608 3298.8056035072218  17460.886306051991 9506.4999999999163 3531.9561199224117  16394.266857013699 9506.4999999958873 3774.0088174064531  15331.964406442728 9506.5000000034561 4028.6932320228366  14269.290955783556 9506.4999999991087 4287.0606371441936  13209.108568708618 9506.4999999999309 4553.4697901736818  12149.999826122237 9506.4999999999982 4825.8623902174704 
 0 10 9836.7559654790093 10
Polygon3D 0
PolygonOnTriangulations 0
Surfaces 1
11 -6.5
9 0 0 0 0 3 3 6 9 4 7 12149.993715798657 9500 4825.8639617233994  12242.720541572518 9500 4802.0156722573311  13075.623184967908 9500 4588.3959923876228  14647.333000000001 9500 4195.5810000000001  16879.983 9500 3667.7190000000001  19130.135999999999 9500 3176.7710000000002  20760.553365181102 9500 2858.2056892596061  21639.351003966414 9500 2700.3262556817172  21756.503674078489 9500 2679.5297821832646  
12148.233798477981 9500 4440.3657646678275  12240.982167675362 9500 4417.1554330729114  13074.078308582628 9500 4209.0731592568518  14646.148000000001 9500 3823.9189999999999  16879.192999999999 9500 3309.5900000000001  19129.643 9500 2826.6669999999999  20760.212557607691 9500 2503.997518963286  21639.075972622959 9500 2346.0131601202283  21756.237133059403 9500 2325.2538723946991  
12145.508417669527 9394.861465964028 3823.4275473415282  12238.292006063388 9395.4524235562203 3800.6292041268944  13071.705444795472 9400.9060626196915 3596.1598512178589  14644.377999999999 9412.5730000000003 3216.3670000000002  16878.058000000001 9435.6419999999998 2706.2959999999998  19128.958000000002 9439.6039999999994 2231.9639999999999  20759.745077915512 9432.2040022014226 1921.8496762682257  21638.696841544133 9427.3611362655192 1772.7449444797908  21755.86928214537 9426.7094524831136 1753.2068071095932  
12141.783987223069 9072.7285607233116 3385.066254689254  12234.578057038736 9073.755124687721 3361.5797766448036  13068.087978883137 9082.9207055251009 3151.2349139766143  14640.978611365159 9098.150487292909 2765.7665604134509  16874.981956497624 9118.694758872507 2261.1932030733565  19126.234767133767 9124.0470654013079 1807.5188473755506  20757.303513347655 9127.1678795383395 1508.4524894895972  21636.419576135529 9128.7333988931805 1362.4307344505887  21753.614151797992 9128.9403010803981 1343.2626428178799  
12138.512920118214 8838.4939273971722 3168.010079879472  12231.297220348344 8839.7051349747708 3144.1280923650256  13064.722311001311 8850.4412663600106 2930.499127753696  14637.504476236812 8866.8543791899574 2544.0385143230096  16871.521556108764 8886.0876531947288 2048.13023312112  19122.958801449091 8893.0094338492399 1603.769304624127  20754.283884760021 8902.0580716496479 1308.2327678771228  21633.578723855262 8907.0338653757681 1163.0436045952843  21750.797856125664 8907.6956309933921 1143.9731329768097  
12137.61806692605 8776.9194760852024 3117.5349012538836  12230.399020108274 8778.1790531703336 3093.5587029381568  13063.79488224608 8789.3301513778952 2879.1355653575183  14636.536791479361 8806.1325699568115 2492.2041145071717  16870.547925000657 8825.3792978378006 1997.8949047812189  19122.030964376892 8833.0103809548618 1555.1517756687101  20753.426415297534 8843.4923607976089 1260.883819318909  21632.771258358694 8849.3038559207762 1116.0608021174749  21749.997271372024 8850.0773746918403 1097.0349686954587  

0 4
1 1
2 1
2.3262239745723705 4

6.8747457562130876 4
7 1
8 1
9 1
10 1
11 1
11.153666414021272 4

Triangulations 0

TShapes 47
Ve
0.0339286412030064
21749.9903443747 9506.32336984064 2638.43732481769
0 0

0101101
*
Ve
0.0339286412030064
21749.9991493383 9506.5 2680.68469651682
0 0

0101101
*
Ed
 0.0338947464565499 1 1 0
1  1 0 0 42.1968427325218
2  1 1 0 0 42.1968427325218
0

0101000
+47 0 -46 0 *
Ve
0.0339286412030064
21749.8907820893 9488.30365862326 2286.73192339786
0 0

0101101
*
Ed
 0.0338947464565499 1 1 0
1  2 0 0 351.561914974828
2  2 1 0 0 351.561914974828
0

0101000
+44 0 -47 0 *
Ve
0.0339286412030064
21749.7916985879 9452.7053420187 2047.02332490397
0 0

0101101
*
Ed
 0.0338947464565499 1 1 0
1  3 0 0 241.703890085165
2  3 1 0 0 241.703890085165
0

0101000
+42 0 -44 0 *
Ve
0.0339286412030064
21749.6874557527 9406.12621427679 1863.64916354975
0 0

0101101
*
Ed
 0.0338947464565499 1 1 0
1  4 0 0 188.522554845658
2  4 1 0 0 188.522554845658
0

0101000
+40 0 -42 0 *
Ve
0.0339286412030064
21749.5883737882 9355.42854279641 1725.54959416691
0 0

0101101
*
Ed
 0.0338947464565499 1 1 0
1  5 0 0 146.46627289517
2  5 1 0 0 146.46627289517
0

0101000
+38 0 -40 0 *
Ve
0.0339286412030064
21749.4902894141 9294.18733804092 1599.60358324443
0 0

0101101
*
Ed
 0.0338947464565499 1 1 0
1  6 0 0 139.395125523514
2  6 1 0 0 139.395125523514
0

0101000
+36 0 -38 0 *
Ve
0.0339286412030064
21749.4000482558 9223.20147614506 1484.1590647022
0 0

0101101
*
Ed
 0.0338947464565499 1 1 0
1  7 0 0 134.90204593509
2  7 1 0 0 134.90204593509
0

0101000
+34 0 -36 0 *
Ve
0.0339286412030064
21749.3220491839 9143.28940533246 1377.53784132501
0 0

0101101
*
Ed
 0.0338947464565499 1 1 0
1  8 0 0 132.681942932156
2  8 1 0 0 132.681942932156
0

0101000
+32 0 -34 0 *
Ve
0.0339286412030064
21749.2373750063 9017.97666150862 1239.8711494767
0 0

0101101
*
Ed
 0.0338947464565499 1 1 0
1  9 0 0 185.509706531301
2  9 1 0 0 185.509706531301
0

0101000
+30 0 -32 0 *
Ve
0.0339286412030064
21749.1601912973 8854.15552286508 1092.04317498722
0 0

0101101
*
Ed
 0.0338947464565499 1 1 0
1  10 0 0 220.016968836948
2  10 1 0 0 220.016968836948
0

0101000
+28 0 -30 0 *
Ve
0.0339286412030064
20988.6130777349 8854.1295650465 1223.13508510634
0 0

0101101
*
Ed
 0.0338947464565499 1 1 0
1  11 0 0 771.717674378476
2  11 1 0 0 771.717674378476
0

0101000
+26 0 -28 0 *
Ve
0.0339286412030064
12148.7247066169 8854.32482027087 3172.64594103412
0 0

0101101
*
Ed
 0.0338947464565499 1 1 0
1  12 0 0 9051.86872298756
2  12 1 0 0 9051.86872298756
0

0101000
+24 0 -26 0 *
Ve
0.0339286412030064
12148.8180472772 8975.32480251815 3290.35389922824
0 0

0101101
*
Ed
 0.0338947464565499 1 1 0
1  13 0 0 168.354910370294
2  13 1 0 0 168.354910370294
0

0101000
+22 0 -24 0 *
Ve
0.0339286412030064
12148.9447935523 9107.02931610996 3440.85794670347
0 0

0101101
*
Ed
 0.0338947464565499 1 1 0
1  14 0 0 199.381194993788
2  14 1 0 0 199.381194993788
0

0101000
+20 0 -22 0 *
Ve
0.0339286412030064
12149.0836355011 9207.55655760421 3581.67286190675
0 0

0101101
*
Ed
 0.0338947464565499 1 1 0
1  15 0 0 172.375847997647
2  15 1 0 0 172.375847997647
0

0101000
+18 0 -20 0 *
Ve
0.0339286412030064
12149.216744835 9281.67493614608 3709.95969402027
0 0

0101101
*
Ed
 0.0338947464565499 1 1 0
1  16 0 0 147.573638999897
2  16 1 0 0 147.573638999897
0

0101000
+16 0 -18 0 *
Ve
0.0339286412030064
12149.3597724058 9346.26251182847 3850.29157860797
0 0

0101101
*
Ed
 0.0338947464565499 1 1 0
1  17 0 0 153.879696674586
2  17 1 0 0 153.879696674586
0

0101000
+14 0 -16 0 *
Ve
0.0339286412030064
12149.5042315826 9400.63902056113 4004.52465484843
0 0

0101101
*
Ed
 0.0338947464565499 1 1 0
1  18 0 0 162.953990330265
2  18 1 0 0 162.953990330265
0

0101000
+12 0 -14 0 *
Ve
0.0339286412030064
12149.6674061676 9451.67608474772 4209.50404633699
0 0

0101101
*
Ed
 0.0338947464565499 1 1 0
1  19 0 0 210.599900904883
2  19 1 0 0 210.599900904883
0

0101000
+10 0 -12 0 *
Ve
0.0339286412030064
12149.8372100665 9490.63502647396 4477.86641974638
0 0

0101101
*
Ed
 0.0338947464565499 1 1 0
1  20 0 0 270.524954903372
2  20 1 0 0 270.524954903372
0

0101000
+8 0 -10 0 *
Ve
0.0339286412030064
12149.9998261222 9506.5 4825.86239021747
0 0

0101101
*
Ed
 0.0338947464565499 1 1 0
1  21 0 0 347.735358829925
2  21 1 0 0 347.735358829925
0

0101000
+6 0 -8 0 *
Ed
 0.0338947464565499 1 1 0
1  22 0 0 9836.75596547901
2  22 1 0 0 9836.75596547901
0

0101000
+46 0 -6 0 *
Wi

0101100
+45 0 +43 0 +41 0 +39 0 +37 0 +35 0 +33 0 +31 0 +29 0 +27 0 
+25 0 +23 0 +21 0 +19 0 +17 0 +15 0 +13 0 +11 0 +9 0 +7 0 
+5 0 +4 0 *
Fa
0  0.00386310666126727 1 0

0111000
+3 0 *
Sh

1101000
-2 0 *

+1 0 