DBRep_DrawableShape

CASCADE Topology V1, (c) Matra-Datavision
Locations 0
Curve2ds 40
7 0 0  6 7 2  -4.4408920985006262e-16 16  0.66666666666666918 16.000000000000018  1.3333332899249506 15.99999999999994  2.0000022701434248 16.000000000000057  2.6666644735230398 15.999999999999975  3.3333325688880047 16.000000000000007  4 16 
 0 7 1 7
1 0 0 1 0 
7 0 0  3 4 2  4 13.475430516112464  4.0000000002591563 14.331993709852597  3.9999999995685123 15.173735998857495  4 16 
 0 4 6073.0739206684038 4
7 0 0  8 9 2  3.9999975277721047 11.16356205458276  4.0000148502058437 11.455752118337841  3.9999575349502265 11.747000285948161  4.0000693052425049 12.037191729177721  3.9999313270673156 12.326783142867498  4.0000411202781834 12.615329205058515  3.9999862444674363 12.902995331271086  4.0000019825874915 13.1897363780663  4 13.475430516112464 
 0 9 5397.9656028764039 9
7 0 0  3 4 2  3.719998624257657 11.161206005606799  3.8145715872275687 11.161948897188708  3.9077588146962334 11.162735589297156  3.9999975277721038 11.163562054582759 
 0 4 231.25576888130325 4
7 0 0  5 6 2  3.2399989944505525 11.157858175784355  3.3390134700135832 11.158462172056375  3.4362339233235843 11.159098648761756  3.5319858532241142 11.159767922511037  3.6265063327391545 11.160470090104582  3.719998624257657 11.161206005606799 
 0 6 380.75963580364305 6
7 0 0  8 9 2  2.8799995139514651 11.155888096773083  2.92622960377048 11.156112815257075  2.972078885519295 11.156343856768217  3.0175836738344515 11.156580526207108  3.0626747922506183 11.156824222300202  3.1074716877483297 11.15707325655967  3.1519341131715919 11.157328904111637  3.1961062641621538 11.157590469869319  3.2399989944505521 11.157858175784355 
 0 9 270.1278634395095 9
7 0 0  3 4 2  2.559999325063175 11.15449456371147  2.6689159695435194 11.154915897744701  2.7755191101733594 11.155380241458957  2.8799995139514656 11.155888096773081 
 0 4 228.96589088542981 4
7 0 0  3 4 2  2.2399993428814309 11.153399960797707  2.3484385614202878 11.153724453848241  2.4550762679435572 11.154088697808646  2.5599993250631745 11.15449456371147 
 0 4 220.55671976074126 4
7 0 0  6 7 2  1.9199988442215741 11.152566926931607  1.9739239389554086 11.152687355374837  2.0276403809839394 11.152815046310934  2.0810856711282213 11.152949798368354  2.1343040480951458 11.153092215723518  2.1872725662170751 11.153242147302535  2.2399993428814309 11.153399960797707 
 0 7 214.47340903167861 7
7 0 0  3 4 2  1.679999792113515 11.152090684959187  1.7600635605345634 11.152230538183076  1.8401736693803947 11.152388560037593  1.919998844221575 11.152566926931607 
 0 4 158.79044915418459 4
7 0 0  3 4 2  1.4799997533427187 11.151777338024685  1.5462308208786268 11.151869784672925  1.6129691995770852 11.151973624939373  1.6799997921135146 11.152090684959187 
 0 4 132.96187222424157 4
7 0 0  3 4 2  1.2800000823106032 11.151529193344066  1.3457116672619645 11.151601112874459  1.4124396710352123 11.151683084970074  1.4799997533427187 11.151777338024685 
 0 4 135.60746157848155 4
7 0 0  4 5 2  1.0799998414217156 11.151336293641586  1.1288757960177307 11.151377516585569  1.1785125289034113 11.15142292203609  1.2288980572016115 11.151473319099523  1.2800000823106037 11.151529193344066 
 0 5 140.59574077478777 5
7 0 0  5 6 2  0.87999974852170515 11.151188603869091  0.91881376230746525 11.151213524064133  0.95820260675810687 11.151240451709327  0.99818249830116201 11.151269716644947  1.0387853897024115 11.151301561809078  1.079999841421714 11.151336293641586 
 0 6 148.19652665108586 6
7 0 0  4 5 2  0.63999989613676844 11.151056970463527  0.69754843987267989 11.151083823444083  0.75663918621593496 11.151113979331512  0.81740176299152267 11.151148406515631  0.87999974852170593 11.151188603869091 
 0 5 191.157274511472 5
7 0 0  4 5 2  0.35999992234343081 11.15094450905324  0.42642304979243661 11.150967943785986  0.4950462418291508 11.150993539756541  0.56611747693878378 11.151022494167762  0.63999989613676855 11.151056970463527 
 0 5 245.39150042749657 5
7 0 0  7 14 3  0 11.150822733238407  6.073248390615904e-07 11.150822956766206  -5.2212111892671609e-06 11.150823796378972  1.3566410392781836e-05 11.150822279203567  2.2673886572455171e-06 11.150823642747127  1.2747164992547855e-05 11.150822920950304  1.3423710376291031e-05 11.150823137915722  0.048042182605357794 11.15083942574641  0.097082951602715226 11.150856072416621  0.14719887471851317 11.150872823397188  0.19846094026371741 11.150889685217077  0.25095120639982743 11.150906898275313  0.30476280113887633 11.15092493684099  0.35999992234343087 11.150944509053241 
 0 8 0.021793888561533619 6 357.07107019216681 8
7 0 0  3 4 2  0 13.858739113905171  -3.9415509866525283e-07 12.966710412544188  8.1500436817498578e-07 12.063322658764591  0 11.15082273323841 
 0 4 6353.2552353713463 4
7 0 0  3 4 2  0 16  4.7926482845535698e-07 15.297109465242684  5.6022673202779002e-08 14.582992943636782  0 13.858739113905171 
 0 4 5158.944764441947 4
7 0 0  1 2 2  0 0.022321341146226071  0 0.0089284829187531445 
 0 2 150 2
7 0 0  3 4 2  0.040000022946687662 0.022321341146226258  0.026559937873470607 0.022321341146225498  0.013232581608501132 0.022321341146227441  0 0.022321341146226258 
 0 4 106.2454665846536 4
7 0 0  3 4 2  0.10000001764758662 0.022321341146226258  0.079793791389610402 0.022321341146227691  0.05981381263833091 0.022321341146226636  0.040000022946687634 0.022321341146226258 
 0 4 156.52662860239283 4
7 0 0  3 4 2  0.16000003491545906 0.022321341146226258  0.13983447418177652 0.022321341146226886  0.11985466844836112 0.022321341146227663  0.10000001764758665 0.022321341146226258 
 0 4 153.80455147702384 4
7 0 0  3 4 2  0.21999998830814366 0.022321341146226258  0.19986994288017512 0.022321341146226609  0.1798905865653746 0.022321341146225748  0.16000003491545911 0.022321341146226258 
 0 4 151.70910488549913 4
7 0 0  3 4 2  0.27999996043128755 0.022321341146226258  0.25990010359866811 0.02232134114622758  0.23992128968679949 0.022321341146226192  0.2199999883081436 0.022321341146226258 
 0 4 150.13830978624418 4
7 0 0  3 4 2  0.33999990007744391 0.022321341146226258  0.31992527992170228 0.022321341146226109  0.29994704380662451 0.022321341146226747  0.27999996043128755 0.022321341146226907 
 0 4 148.99951794206774 4
7 0 0  3 4 2  0.39999996797542681 0.022321341146226258  0.37994625113413161 0.02232134114622597  0.3599685063921263 0.022321341146226165  0.33999990007744396 0.022321341146226258 
 0 4 148.21459398433851 4
7 0 0  3 4 2  0.45999987112576235 0.022321341146226258  0.43996386966668055 0.02232134114622697  0.41998658085743612 0.022321341146225887  0.39999996797542675 0.022321341146226907 
 0 4 147.72009183516781 4
7 0 0  3 4 2  0.52000000980612215 0.022321341146226258  0.49997945138866973 0.022321341146226137  0.48000229243247361 0.02232134114622672  0.45999987112576257 0.022321341146226258 
 0 4 147.47348607474572 4
7 0 0  3 4 2  0.58000003930524247 0.022321341146226258  0.55999414013224458 0.022321341146226192  0.54001707693189971 0.022321341146226137  0.52000000980612193 0.022321341146226258 
 0 4 147.44797356821263 4
7 0 0  3 4 2  0.6400001482487172 0.022321341146226258  0.62000924286171699 0.02232134114622697  0.60003202690399249 0.022321341146227608  0.58000003930524258 0.022321341146226907 
 0 4 147.63977268623009 4
7 0 0  3 4 2  0.69999987605213587 0.022321341146226258  0.68002579549160025 0.02232134114622672  0.66004839019221251 0.022321341146225582  0.6400001482487172 0.022321341146226258 
 0 4 148.06211158968813 4
7 0 0  3 4 2  0.76000014321643117 0.022321341146226258  0.74004540261774832 0.022321341146228801  0.7200673538506388 0.022321341146224694  0.69999987605213587 0.022321341146226258 
 0 4 148.75276418973419 4
7 0 0  3 4 2  0.8200001293405994 0.022321341146226258  0.80006885300042807 0.022321341146225582  0.78009035606729249 0.022321341146226387  0.76000014321643117 0.022321341146226907 
 0 4 149.76051771340533 4
7 0 0  3 4 2  0.88000005984586271 0.022321341146226258  0.86009679617976609 0.022321341146226664  0.84011773070943274 0.022321341146227358  0.8200001293405994 0.022321341146226907 
 0 4 151.15829954656587 4
7 0 0  4 5 2  0.93999999629489672 0.022321341146226258  0.92509742580080356 0.022321341146226414  0.91013977256072565 0.022321341146225748  0.8951127553511391 0.022321341146226414  0.88000005984586271 0.022321341146226258 
 0 5 153.03098546999325 5
7 0 0  4 5 2  1 0.022321341146225915  0.98512598789713124 0.022321341146228524  0.97017760555880983 0.022321341146223528  0.95514103590175736 0.022321341146228302  0.93999999629489683 0.022321341146226564 
 0 5 155.47577308336463 5
7 0 0  1 2 2  1 0  1 0.022321341146226192 
 6073.0739206684038 2 6323.0389873227632 2
7 0 0  1 2 2  0 0.0089284829187531445  0 0 
 0 2 99.998999999996158 2
Curves 39
7 0 0  5 6 2  33200.000999999997 9503.5 1600  33200.000999999967 9503.4999999999709 1063.3007126072655  33200.000921042665 9284.6233883493351 582.15962197712656  33200.001110277699 8905.4841522501774 209.21499608455423  33200.001000000033 8424.3914154346203 -3.4999999999987335  33200.000999999997 7899.9999999999991 -3.5 
 0 6 1 6
7 0 0  12 13 2  27127.678619214865 7832.0711982445491 75.101715114487604  27633.536880504707 7840.9898481023301 55.805891912009585  28139.425824785987 7849.6109976476137 40.23201073633944  28645.360952170919 7857.844385335804 27.86993452067782  29151.278643181311 7865.7451345005747 18.56270189108486  29657.324948559977 7873.0420748484457 7.9082312115609179  30163.302815029103 7880.3144320104138 7.1188745116999161  30669.367176328669 7885.1252950899261 -2.5982761671278856  31175.475919518423 7891.5902765430337 -0.48713976978424323  31681.575337535938 7895.2443740186363 -3.6224575432507535  32187.712061675829 7898.4249606126559 -3.4237971642563889  32693.853982025936 7900.0000000706204 -3.5000000000000511  33200.001000000004 7900.0000000000009 -3.4999999999999432 
 0 13 6073.0739206684002 13
7 0 0  9 18 3  21749.556692012182 7719.3547677784009 527.2073428844983  21963.472423944961 7724.6165146917183 500.21526464047196  22177.424496348434 7729.8676036480028 473.60796420129856  22391.419962853084 7735.0909014309009 447.48047590192641  22605.466155661106 7740.2699996825122 421.92727769866798  22819.57068547338 7745.3892148818286 397.04229116866225  23033.741441591701 7750.4335883745453 372.91888151065012  23247.986591809542 7755.3888863417815 349.64985754411998  23462.314582502037 7760.2415998253173 327.32747171004013  24059.122266660874 7773.427355279432 268.086207519558  24441.787929674287 7781.5123347981325 233.4531418943312  24824.735919192135 7789.2371603362399 201.8963578475564  25207.957747950095 7796.8342338722387 173.82809956254761  25591.423432397874 7804.0304099763234 148.23886886548237  25975.152855921784 7811.1978099591397 125.95271967276297  26359.117111842843 7818.3557061895654 106.67637685949032  26743.309717189964 7825.2936377292226 89.763240747136351  27127.678619214861 7832.0711982445482 75.101715114487604 
 0 10 1939.3674360382593 8 5397.9656028764002 10
7 0 0  3 4 2  21749.535360936221 7938.4089157986236 601.76521168318197  21749.538877107818 7865.9040669356027 575.39272688727704  21749.550777757551 7792.8488872283988 550.64986539465758  21749.556692012178 7719.3547677784018 527.20734288449921 
 0 4 231.255768881303 4
7 0 0  4 5 2  21749.507959339498 8290.728239474849 746.97749807893956  21749.511901319915 8204.3739184332335 706.44493820236289  21749.518430962591 8116.7105976981902 669.12171563569302  21749.526682477415 8028.0042603981619 634.35470992046089  21749.535360936221 7938.4089157986218 601.76521168318197 
 0 5 380.75963580364299 5
7 0 0  4 5 2  21749.508144750173 8530.4213233725404 872.20930519043611  21749.505095799876 8471.9439557690821 838.11397005612309  21749.503870458782 8412.4316637027987 806.00980607468  21749.505361614461 8351.977095604243 775.72614914384565  21749.507959339498 8290.7282394748509 746.97749807893956 
 0 5 270.12786343950899 5
7 0 0  3 4 2  21749.52689021183 8723.2749019056737 996.20021204345016  21749.518035227236 8660.8540613207788 951.96098303694498  21749.511613906529 8596.5010025200536 910.73717792987327  21749.50814475018 8530.4213233725368 872.20930519043429 
 0 4 228.96589088543001 4
7 0 0  3 4 2  21749.558977524513 8897.3583976223908 1132.1584074789898  21749.546296311804 8841.4961571987242 1084.0586897184905  21749.535464703698 8783.4069918633286 1038.8173381850409  21749.52689021183 8723.2749019056719 996.20021204345039 
 0 4 220.556719760741 4
7 0 0  5 6 2  21749.600806431255 9053.1118607576464 1280.1042811704551  21749.590950630409 9023.4557644715678 1248.9322046666123  21749.582781147881 8992.9893568321932 1218.6241326542122  21749.574262841426 8961.8463306967424 1189.0290692750157  21749.566283069424 8929.9529057519085 1160.2236534653628  21749.558977524495 8897.3583976223927 1132.1584074789937 
 0 6 214.47340903167901 6
7 0 0  3 4 2  21749.642716803039 9157.6059013453614 1400.0885912982903  21749.626845281742 9124.657125131258 1358.4398539439844  21749.612742430952 9089.6950607104845 1318.5576026401436  21749.600806431248 9053.1118607576427 1280.104281170454 
 0 4 158.79044915418501 4
7 0 0  3 4 2  21749.68619314806 9235.6400083742483 1508.1261250351067  21749.670726151206 9211.2578851395829 1470.9312812341552  21749.656066924981 9185.1911129978471 1434.9575311436467  21749.642716803046 9157.6059013453632 1400.0885912982903 
 0 4 132.961872224242 4
7 0 0  3 4 2  21749.735833751009 9304.5919828624301 1625.2884816178823  21749.718780671585 9283.5174408038529 1585.1098572491567  21749.702081835225 9260.5113913869045 1546.0673146370409  21749.68619314806 9235.6400083742501 1508.1261250351067 
 0 4 135.607461578482 4
7 0 0  3 4 2  21749.789145415336 9363.6574878918309 1753.2629153283435  21749.771584719419 9346.109371679273 1709.6195853675829  21749.753685368862 9326.444076130274 1666.9494801369831  21749.735833751012 9304.5919828624319 1625.2884816178816 
 0 4 140.595740774788 4
7 0 0  4 5 2  21749.841787487265 9412.0792402278694 1893.6874353819408  21749.82974297868 9401.651123661688 1858.0108834870859  21749.816858416136 9390.1806714022132 1822.688368078298  21749.803111539215 9377.5300298099773 1787.7648344823444  21749.789145415332 9363.6574878918291 1753.2629153283447 
 0 5 148.196526651086 5
7 0 0  3 4 2  21749.896220482315 9456.0529452629107 2080.0799668580707  21749.880380044426 9444.3860308618114 2017.2595524478852  21749.862486529499 9430.0185778554405 1955.061293356333  21749.841787487265 9412.0792402278676 1893.6874353819398 
 0 4 191.157274511472 4
7 0 0  4 5 2  21749.947879191659 9488.8214602311837 2323.6058656300665  21749.936939210154 9483.3257242426153 2262.375794387603  21749.92490494368 9476.2361163600581 2201.3515074306533  21749.911468904702 9467.28667688938 2140.5679124474254  21749.896220482315 9456.0529452629125 2080.0799668580703 
 0 5 245.39150042749699 5
7 0 0  4 8 3  21749.999852942641 9503.5 2680.6845715601694  21750.000746599399 9503.4999999999945 2680.6832823072918  21750.000905540015 9503.4999999975971 2680.6785702093016  21750.000766331796 9503.4999999890351 2680.6724689462226  21749.987828487527 9503.4996976775601 2591.2691076401234  21749.978369296568 9501.422939075017 2501.9454702883972  21749.963463769938 9496.8193541829405 2412.7134802206788  21749.947879191663 9488.8214602311818 2323.6058656300656 
 0 5 0.021793888561533619 3 357.07107019216699 5
7 0 0  4 5 2  28046.255388988153 9503.5000000000018 1831.5542117075533  26462.398678003603 9503.5000000000036 1971.1027863348825  24885.609771697069 9503.4999999999818 2163.5190711394825  23315.218827813951 9503.5000000000036 2402.7087886427103  21749.999852942648 9503.5 2680.6845715601676 
 0 5 6353.25523537135 5
7 0 0  4 5 2  33200.001000000011 9503.5 1600  31908.978407978328 9503.4999999999927 1599.9997588552262  30619.699255169697 9503.4999999999964 1640.0904045718762  29332.216577180046 9503.4999999999964 1718.2524277201553  28046.255388988146 9503.5 1831.5542117075543 
 0 5 5158.9447644419497 5
7 0 0  2 3 2  33450.000000000306 9503.5 1600  33374.999999735155 9503.5 1600  33299.999999999694 9503.5 1600 
 0 3 150 3
7 0 0  3 4 2  33450 9500.0359533825504 1493.5825631977812  33449.999999999978 9502.3512501891182 1529.0177535332425  33450 9503.4999999999964 1564.4904140904355  33450 9503.5 1600.0000000000005 
 0 4 106.245466584654 4
7 0 0  3 4 2  33450 9482.2001764901179 1337.7315500444256  33449.999999999985 9490.6898961275419 1389.3910038724121  33450.000000000015 9496.6226711191448 1441.3429080791298  33450 9500.0359533825504 1493.5825631977814 
 0 4 156.526628602393 4
7 0 0  3 4 2  33450 9449.8701507516125 1187.0163235485506  33449.999999999985 9463.0868060889534 1236.7312402469502  33450.000000000015 9473.8581725629338 1286.9709377847005  33450 9482.2001764901179 1337.7315500444258 
 0 4 153.80455147702401 4
7 0 0  3 4 2  33450 9403.8041660704494 1042.117875068602  33449.999999999978 9421.4787360184055 1089.6796520157814  33450 9436.8337383702055 1137.9793971064755  33450 9449.8701507516125 1187.0163235485502 
 0 4 151.70910488549899 4
7 0 0  3 4 2  33450 9344.7607928514117 903.71589785425658  33449.999999999985 9366.6291633699748 948.91624179763539  33450.000000000015 9386.3128774426423 995.04930306464894  33450 9403.8041660704457 1042.1178750686015 
 0 4 150.13830978624401 4
7 0 0  3 4 2  33450 9273.498796378748 772.4895807423643  33449.999999999978 9299.3008801360575 815.11886446776305  33449.999999999993 9323.0586377739346 858.85910923428582  33450.000000000007 9344.7607928514135 903.7158978542567 
 0 4 148.999517942068 4
7 0 0  3 4 2  33450 9190.7765367197389 649.11699115468036  33449.999999999978 9220.2553081325168 688.9635394825923  33450 9247.8329731327303 730.08542178018752  33450 9273.498796378748 772.48958074236452 
 0 4 148.21459398433899 4
7 0 0  3 4 2  33450 9097.3527371004311 534.27665547261938  33449.999999999978 9130.252567653677 571.12575344201912  33449.999999999993 9161.3964074834857 609.40377776800835  33450.000000000007 9190.7765367197371 649.11699115468048 
 0 4 147.72009183516801 4
7 0 0  3 4 2  33450 8993.984754312225 428.64550829181695  33449.999999999978 9030.0508086085938 462.28011668052659  33450 9064.5080463576505 497.48931624919805  33450 9097.3527371004329 534.27665547261904 
 0 4 147.47348607474601 4
7 0 0  3 4 2  33450 8881.4308706429547 332.90182440466697  33449.999999999978 8920.407145014653 363.10209806832876  33450 8957.9249894066161 395.01676528537132  33450 8993.9847543122269 428.64550829181792 
 0 4 147.447973568213 4
7 0 0  3 4 2  33450 8760.4482851370449 247.72305578209148  33449.999999999985 8802.0773920085103 274.26768779079026  33450.000000000007 8842.4037697809617 302.66216847728612  33450.000000000007 8881.4308706429547 332.9018244046668 
 0 4 147.63977268623 4
7 0 0  3 4 2  33450 8631.7955078873547 173.78776312331956  33449.999999999978 8675.817152157184 196.45437860085028  33450 8718.6997804898456 221.10229026351178  33450 8760.4482851370449 247.72305578209148 
 0 4 148.06211158968799 4
7 0 0  3 4 2  33450 8496.2282342308263 111.77313344233997  33450.000000000022 8542.3804524393636 130.34019794314915  33449.999999999978 8587.5680218530943 151.01516032520814  33450 8631.7955078873529 173.78776312331922 
 0 4 148.75276418973399 4
7 0 0  3 4 2  33449.999999999993 8354.5063532104523 62.358620824197097  33449.999999999985 8402.5230228930286 76.6056312607639  33449.999999999978 8449.7626897270711 93.080017588879628  33450 8496.2282342308281 111.77313344233997 
 0 4 149.76051771340499 4
7 0 0  3 4 2  33449.999999999993 8207.3880469478136 26.222602314894928  33450.000000000007 8257.0014726404224 35.932280372413963  33449.999999999985 8306.0408057338827 47.978424003445127  33450 8354.5063532104505 62.358620824197089 
 0 4 151.15829954656601 4
7 0 0  3 4 2  33450 8055.6325756422339 4.0436338552766387  33449.999999999978 8106.5731614631623 9.0026532930349106  33450 8157.1589248604432 16.392428369603355  33450 8207.3880469478136 26.222602314894921 
 0 4 153.030985469993 4
7 0 0  3 4 2  33450.000000000007 7900 -3.5000000000000004  33450.000000000036 7951.9986954439219 -3.4999999999999987  33450.000000000015 8003.8768447891471 -0.99473920580384712  33450.000000000007 8055.632575642232 4.0436338552764699 
 0 4 155.475773083365 4
7 0 0  3 4 2  33200.001000000011 7900.0000000000018 -3.5000000000000009  33283.333999505463 7899.9999999999964 -3.4999999999999964  33366.666999509158 7900.0000000000018 -3.5000000000000013  33449.999999999985 7900.0000000000009 -3.5 
 6073.0739206684002 4 6323.0389873227596 4
7 0 0  2 3 2  33300.000000000087 9503.5 1600  33250.00049988096 9503.5 1600  33200.000999999909 9503.5 1600 
 0 3 99.998999999996201 3
Polygon3D 0
PolygonOnTriangulations 0
Surfaces 2
11 -3.5
9 0 0 0 0 3 3 7 8 5 6 21749.998814529485 9500 2680.6847559772059  22397.377412520786 9500 2565.7135172131661  23813.650503324512 9500 2330.8244152215725  26020.331999999999 9500 2028.5579999999998  28375.214 9500 1788.2819999999999  30764.956999999999 9500 1636.0639999999999  32383.674999999996 9500 1600  33200.001000000004 9500 1600  
21749.73180180238 9500 2326.4068339196292  22397.157373715112 9500 2211.630648786776  23813.514726348327 9500 1980.5512752154725  26020.275999999998 9500 1712.796  28375.201000000001 9500 1519.498  30765 9500 1409.8599999999999  32383.674999999996 9500 1376.8510000000001  33200.001000000004 9500 1376.8510000000001  
21749.363324050257 9426.7456306883887 1754.2920031119402  22396.851331201291 9423.1457251420961 1646.2561762951077  23813.312195260747 9414.8551183576619 1432.4079742185274  26020.138999999999 9411.6269999999986 1199.992  28375.087 9412.4359999999997 1053.136  30764.883000000002 9410.4719999999998 971.149  32383.645 9409.012999999999 953.702  33200.001000000004 9409.0120000000006 953.702  
21746.45342477809 9042.6680574886159 1225.5835586091955  22394.099116087451 9045.1857087567259 1120.1956768785344  23810.924834110872 9050.6593712604954 908.61624745849269  26018.405999999999 9056.277 683.38400000000001  28374.061000000002 9059.1530000000002 545.49699999999996  30764.493000000002 9056.9300000000003 476.97499999999997  32383.549999999999 9054.2829999999994 437.38300000000004  33200.001000000004 9054.2880000000005 437.38300000000004  
21738.319947846616 8482.9812698879141 814.33800912752179  22386.347929640327 8490.9651807426035 709.45441178350916  23804.163934374694 8508.2730417221355 497.71436663760494  26013.725000000002 8524.0100000000002 283.28999999999996  28371.600000000002 8529.5919999999987 175.376  30763.684999999998 8533.7219999999998 121.82300000000001  32383.374000000003 8536.0640000000003 88.424999999999997  33200.001000000004 8536.0460000000003 88.424999999999997  
21727.660556560462 7983.3591058013717 618.29767106093357  22376.168282459963 7995.7919608380689 529.85459846007393  23795.232383745144 8025.6262084738473 343.35345374699887  26007.389999999999 8071.9130000000005 153.65899999999999  28368.155000000002 8099.3680000000004 62.597999999999999  30762.675000000003 8115.0249999999996 12.496  32383.237000000001 8118.0610000000006 -0  33200.001000000004 8118.023000000001 0  
21720.797452713552 7717.5760211364823 534.20126805808422  22369.587169431306 7733.6138707948339 452.21916436164423  23789.250485883636 7768.3879172822235 282.9308767560114  26003.148000000001 7811.7599999999993 114.79899999999999  28365.870000000003 7853.933 31.902000000000001  30762.099999999999 7888.3599999999997 -0  32383.237000000001 7900 0  33200.001000000004 7900 0  

0 4
1 1
2 1
3 1
4 4

11.150822279203567 4
12 1
13 1
14 1
15 1
16 4

11 -3.5
9 0 0 0 0 3 3 4 4 2 2 33200.001000000004 9500 1600  33283.333999505478 9500 1600  33366.666999509194 9500 1600  33450.000000000029 9500 1600  
33200.001000000004 9500 707.404  33283.333999505478 9500 707.404  33366.666999509194 9500 707.404  33450.000000000029 9500 707.404  
33200.001000000004 8772.0930000000008 0  33283.333999505478 8772.0930000000008 0  33366.666999509194 8772.0930000000008 0  33450.000000000029 8772.0930000000008 0  
33200.001000000004 7900 0  33283.333999505478 7900 0  33366.666999509194 7900 0  33450.000000000029 7900 0  

0 4
1 4

0 4
0.022321341146228801 4

Triangulations 0

TShapes 82
Ve
0.00475595632167053
33200.001 9503.5 1600
0 0

0101101
*
Ve
0.00475595632167053
33200.001 7900 -3.49999999999998
0 0

0101101
*
Ed
 0.00475120511655398 1 1 0
1  1 0 0 1
2  1 1 0 0 1
2  2 2 0 0 1
0

0101000
+82 0 -81 0 *
Ve
0.00475595632167053
27127.6786192149 7832.07119824455 75.1017151144876
0 0

0101101
*
Ed
 0.00475120511655398 1 1 0
1  2 0 0 6073.0739206684
2  3 1 0 0 6073.0739206684
0

0101000
+79 0 -81 0 *
Ve
0.00475595632167053
21749.5566920122 7719.3547677784 527.207342884499
0 0

0101101
*
Ed
 0.00475120511655398 1 1 0
1  3 0 0 5397.9656028764
2  4 1 0 0 5397.9656028764
0

0101000
+77 0 -79 0 *
Ve
0.00475595632167053
21749.5353609362 7938.40891579862 601.765211683182
0 0

0101101
*
Ed
 0.00475120511655398 1 1 0
1  4 0 0 231.255768881303
2  5 1 0 0 231.255768881303
0

0101000
+75 0 -77 0 *
Ve
0.00475595632167053
21749.5079593395 8290.72823947485 746.97749807894
0 0

0101101
*
Ed
 0.00475120511655398 1 1 0
1  5 0 0 380.759635803643
2  6 1 0 0 380.759635803643
0

0101000
+73 0 -75 0 *
Ve
0.00475595632167053
21749.5081447502 8530.42132337254 872.209305190435
0 0

0101101
*
Ed
 0.00475120511655398 1 1 0
1  6 0 0 270.127863439509
2  7 1 0 0 270.127863439509
0

0101000
+71 0 -73 0 *
Ve
0.00475595632167053
21749.5268902118 8723.27490190567 996.20021204345
0 0

0101101
*
Ed
 0.00475120511655398 1 1 0
1  7 0 0 228.96589088543
2  8 1 0 0 228.96589088543
0

0101000
+69 0 -71 0 *
Ve
0.00475595632167053
21749.5589775245 8897.35839762239 1132.15840747899
0 0

0101101
*
Ed
 0.00475120511655398 1 1 0
1  8 0 0 220.556719760741
2  9 1 0 0 220.556719760741
0

0101000
+67 0 -69 0 *
Ve
0.00475595632167053
21749.6008064313 9053.11186075764 1280.10428117045
0 0

0101101
*
Ed
 0.00475120511655398 1 1 0
1  9 0 0 214.473409031679
2  10 1 0 0 214.473409031679
0

0101000
+65 0 -67 0 *
Ve
0.00475595632167053
21749.642716803 9157.60590134536 1400.08859129829
0 0

0101101
*
Ed
 0.00475120511655398 1 1 0
1  10 0 0 158.790449154185
2  11 1 0 0 158.790449154185
0

0101000
+63 0 -65 0 *
Ve
0.00475595632167053
21749.6861931481 9235.64000837425 1508.12612503511
0 0

0101101
*
Ed
 0.00475120511655398 1 1 0
1  11 0 0 132.961872224242
2  12 1 0 0 132.961872224242
0

0101000
+61 0 -63 0 *
Ve
0.00475595632167053
21749.735833751 9304.59198286243 1625.28848161788
0 0

0101101
*
Ed
 0.00475120511655398 1 1 0
1  12 0 0 135.607461578482
2  13 1 0 0 135.607461578482
0

0101000
+59 0 -61 0 *
Ve
0.00475595632167053
21749.7891454153 9363.65748789183 1753.26291532834
0 0

0101101
*
Ed
 0.00475120511655398 1 1 0
1  13 0 0 140.595740774788
2  14 1 0 0 140.595740774788
0

0101000
+57 0 -59 0 *
Ve
0.00475595632167053
21749.8417874873 9412.07924022787 1893.68743538194
0 0

0101101
*
Ed
 0.00475120511655398 1 1 0
1  14 0 0 148.196526651086
2  15 1 0 0 148.196526651086
0

0101000
+55 0 -57 0 *
Ve
0.00475595632167053
21749.8962204823 9456.05294526291 2080.07996685807
0 0

0101101
*
Ed
 0.00475120511655398 1 1 0
1  15 0 0 191.157274511472
2  16 1 0 0 191.157274511472
0

0101000
+53 0 -55 0 *
Ve
0.00475595632167053
21749.9478791917 9488.82146023118 2323.60586563007
0 0

0101101
*
Ed
 0.00475120511655398 1 1 0
1  16 0 0 245.391500427497
2  17 1 0 0 245.391500427497
0

0101000
+51 0 -53 0 *
Ve
0.00475595632167053
21749.9998529426 9503.5 2680.68457156017
0 0

0101101
*
Ed
 0.00475120511655398 1 1 0
1  17 0 0 357.071070192167
2  18 1 0 0 357.071070192167
0

0101000
+49 0 -51 0 *
Ve
0.00475595632167053
28046.2553889881 9503.5 1831.55421170755
0 0

0101101
*
Ed
 0.00475120511655398 1 1 0
1  18 0 0 6353.25523537135
2  19 1 0 0 6353.25523537135
0

0101000
+47 0 -49 0 *
Ed
 0.00475120511655398 1 1 0
1  19 0 0 5158.94476444195
2  20 1 0 0 5158.94476444195
0

0101000
+82 0 -47 0 *
Wi

0101100
-80 0 +78 0 +76 0 +74 0 +72 0 +70 0 +68 0 +66 0 +64 0 +62 0 
+60 0 +58 0 +56 0 +54 0 +52 0 +50 0 +48 0 +46 0 +45 0 *
Fa
0  0.00462389525644855 1 0

0111000
+44 0 *
Ve
0.00475595632167053
33450.0000000002 9503.5 1600
0 0

0101101
*
Ve
0.00475595632167053
33299.9999999999 9503.5 1600
0 0

0101101
*
Ed
 0.00475120511655398 1 1 0
1  20 0 0 150
2  21 2 0 0 150
0

0101000
+42 0 -41 0 *
Ve
0.00475595632167053
33450 9500.03595338255 1493.58256319778
0 0

0101101
*
Ed
 0.00475120511655398 1 1 0
1  21 0 0 106.245466584654
2  22 2 0 0 106.245466584654
0

0101000
+39 0 -42 0 *
Ve
0.00475595632167053
33450 9482.20017649012 1337.73155004443
0 0

0101101
*
Ed
 0.00475120511655398 1 1 0
1  22 0 0 156.526628602393
2  23 2 0 0 156.526628602393
0

0101000
+37 0 -39 0 *
Ve
0.00475595632167053
33450 9449.87015075161 1187.01632354855
0 0

0101101
*
Ed
 0.00475120511655398 1 1 0
1  23 0 0 153.804551477024
2  24 2 0 0 153.804551477024
0

0101000
+35 0 -37 0 *
Ve
0.00475595632167053
33450 9403.80416607045 1042.1178750686
0 0

0101101
*
Ed
 0.00475120511655398 1 1 0
1  24 0 0 151.709104885499
2  25 2 0 0 151.709104885499
0

0101000
+33 0 -35 0 *
Ve
0.00475595632167053
33450 9344.76079285141 903.715897854257
0 0

0101101
*
Ed
 0.00475120511655398 1 1 0
1  25 0 0 150.138309786244
2  26 2 0 0 150.138309786244
0

0101000
+31 0 -33 0 *
Ve
0.00475595632167053
33450 9273.49879637875 772.489580742364
0 0

0101101
*
Ed
 0.00475120511655398 1 1 0
1  26 0 0 148.999517942068
2  27 2 0 0 148.999517942068
0

0101000
+29 0 -31 0 *
Ve
0.00475595632167053
33450 9190.77653671974 649.11699115468
0 0

0101101
*
Ed
 0.00475120511655398 1 1 0
1  27 0 0 148.214593984339
2  28 2 0 0 148.214593984339
0

0101000
+27 0 -29 0 *
Ve
0.00475595632167053
33450 9097.35273710043 534.276655472619
0 0

0101101
*
Ed
 0.00475120511655398 1 1 0
1  28 0 0 147.720091835168
2  29 2 0 0 147.720091835168
0

0101000
+25 0 -27 0 *
Ve
0.00475595632167053
33450 8993.98475431223 428.645508291817
0 0

0101101
*
Ed
 0.00475120511655398 1 1 0
1  29 0 0 147.473486074746
2  30 2 0 0 147.473486074746
0

0101000
+23 0 -25 0 *
Ve
0.00475595632167053
33450 8881.43087064295 332.901824404667
0 0

0101101
*
Ed
 0.00475120511655398 1 1 0
1  30 0 0 147.447973568213
2  31 2 0 0 147.447973568213
0

0101000
+21 0 -23 0 *
Ve
0.00475595632167053
33450 8760.44828513704 247.723055782091
0 0

0101101
*
Ed
 0.00475120511655398 1 1 0
1  31 0 0 147.63977268623
2  32 2 0 0 147.63977268623
0

0101000
+19 0 -21 0 *
Ve
0.00475595632167053
33450 8631.79550788735 173.787763123319
0 0

0101101
*
Ed
 0.00475120511655398 1 1 0
1  32 0 0 148.062111589688
2  33 2 0 0 148.062111589688
0

0101000
+17 0 -19 0 *
Ve
0.00475595632167053
33450 8496.22823423083 111.77313344234
0 0

0101101
*
Ed
 0.00475120511655398 1 1 0
1  33 0 0 148.752764189734
2  34 2 0 0 148.752764189734
0

0101000
+15 0 -17 0 *
Ve
0.00475595632167053
33450 8354.50635321045 62.3586208241971
0 0

0101101
*
Ed
 0.00475120511655398 1 1 0
1  34 0 0 149.760517713405
2  35 2 0 0 149.760517713405
0

0101000
+13 0 -15 0 *
Ve
0.00475595632167053
33450 8207.38804694781 26.2226023148949
0 0

0101101
*
Ed
 0.00475120511655398 1 1 0
1  35 0 0 151.158299546566
2  36 2 0 0 151.158299546566
0

0101000
+11 0 -13 0 *
Ve
0.00475595632167053
33450 8055.63257564223 4.04363385527655
0 0

0101101
*
Ed
 0.00475120511655398 1 1 0
1  36 0 0 153.030985469993
2  37 2 0 0 153.030985469993
0

0101000
+9 0 -11 0 *
Ve
0.00475595632167053
33450 7900 -3.5
0 0

0101101
*
Ed
 0.00475120511655398 1 1 0
1  37 0 0 155.475773083365
2  38 2 0 0 155.475773083365
0

0101000
+7 0 -9 0 *
Ed
 0.00475120511655398 1 1 0
1  38 0 6073.0739206684 6323.03898732276
2  39 2 0 6073.0739206684 6323.03898732276
0

0101000
+81 0 -7 0 *
Ed
 0.00475120511655398 1 1 0
1  39 0 0 99.9989999999962
2  40 2 0 0 99.9989999999962
0

0101000
+41 0 -82 0 *
Wi

0101100
+40 0 +38 0 +36 0 +34 0 +32 0 +30 0 +28 0 +26 0 +24 0 +22 0 
+20 0 +18 0 +16 0 +14 0 +12 0 +10 0 +8 0 +6 0 +5 0 +80 0 
+4 0 *
Fa
0  0.000649714825589056 2 0

0111000
+3 0 *
Sh

1101000
-43 0 -2 0 *

+1 0 