DBRep_DrawableShape

CASCADE Topology V1, (c) Matra-Datavision
Locations 3
1
2.96147202906248e-020 -0.909041937903166 -0.416704637763076 -67.74999999999 
              1 4.33141904604699e-021 6.16198534889712e-020              25 
-5.42101086243405e-020 -0.416704637763076 0.909041937903166 -267.4999999999 
1
              1               0               0 1.089701958769e-014 
              0               1               0 160.00000000006 
              0               0               1 -1.367574413052e-027 
2  1 1 2 1 0
Curve2ds 28
1 3.1415926535900001 1.75 1 0 
1 3.1415926535900001 2.4748737341518066 1 0 
1 6.2831853071800001 0 0 1 
1 4.1389114358025836e-013 0 0 1 
1 0 35 1 0 
1 -3.1415926535900001 1.75 1 0 
1 3.1415926535900001 2.4748737341518066 1 0 
1 9.4247779607689992 0 -1 0 
7 0 0  3 25 23  1.570796326795 1.6076951545871203  1.564356878471 1.5630807767970891  1.5513253557919999 1.4752836284330277  1.5313195428219999 1.3480503446969392  1.510853988097 1.2254462074148538  1.489929445617 1.1076411075747719  1.4685481303650001 0.99480652837469308  1.446714023133 0.88711541551661821  1.4244329538430001 0.78474154778854677  1.4017127308870001 0.68785910209447931  1.378563260697 0.59664159903441583  1.354996593748 0.51126279932835628  1.3310271872899999 0.43189010128030092  1.3066712659519999 0.35870569479024988  1.281947761519 0.2918767480962034  1.2568785219800001 0.23154870966416136  1.2314875832159999 0.17786637232122393  1.205801287451 0.13096713839929125  1.1798481291789999 0.090981757068983399  1.1536586307950001 0.058033062636900432  1.127265155056 0.032235417759802459  1.1007017264750001 0.013693609647123541  1.074003675453 0.0025035953214577441  1.0561397544160001 -8.9999359534562715e-007  1.047197551197 0 
 2.3807309682240001e-007 4 0.00023922240857239999 1 0.00047820674404799998 1 0.0007171910795236 1 0.00095617541499920002 1 0.001195159750475 1 0.00143414408595 1 0.0016731284214260001 1 0.0019121127569019999 1 0.002151097092377 1 0.0023900814278530001 1 0.0026290657633280001 1 0.0028680500988040002 1 0.0031070344342799998 1 0.0033460187697549998 1 0.0035850031052309999 1 0.003823987440706 1 0.004062971776182 1 0.0043019561116579997 1 0.0045409404471330002 1 0.0047799247826089998 1 0.0050189091180840003 1 0.0052578934535599999 4
7 0 0  3 25 23  1.047197551197 0  1.0382888149789999 -2.8825840165160084e-006  1.020456940341 0.0024861692271477319  0.993730992694 0.013653776109115513  0.96709213919600001 0.032218722216442446  0.94060505346000001 0.05809625619546048  0.91433019461099996 0.091174631475883533  0.88833511026699996 0.13129723834379148  0.86261508871100001 0.17835569393370426  0.837200061808 0.23220506054816178  0.81211521121999997 0.29269498220020396  0.78738408222800005 0.35966895043225061  0.76302770689800004 0.43296664840030169  0.73906465580400005 0.51242048869635703  0.71551095024 0.59785536603041656  0.69238040883499996 0.68909737253648018  0.66968454958900003 0.78597033595454768  0.64743271671699998 0.88829767437861895  0.62563217125600001 0.99590276064869387  0.60428820593499999 1.1086096249267725  0.58340428166799996 1.2262434645048543  0.56298211488299998 1.3486312416849398  0.54302198211800001 1.475601771235028  0.53002214693299998 1.5631921982430892  0.52359877559800005 1.6076951545871203 
 0.0052578934535599999 4 0.0054959842661260003 1 0.0057340750786919999 1 0.0059721658912580003 1 0.0062102567038239999 1 0.0064483475163900003 1 0.0066864383289559999 1 0.0069245291415220003 1 0.0071626199540879999 1 0.0074007107666540003 1 0.0076388015792199998 1 0.0078768923917870003 1 0.0081149832043530008 1 0.0083530740169189995 1 0.0085911648294849999 1 0.0088292556420510003 1 0.0090673464546170007 1 0.0093054372671829994 1 0.0095435280797489998 1 0.0097816188923150003 1 0.01001970970488 1 0.01025780051745 1 0.01049589133001 4
7 0 0  3 25 23  0.52359877559800005 1.6076951545871203  0.51718664242400003 1.5632693450570894  0.50419410001599996 1.4757282025170282  0.48420472354400002 1.3485840979969397  0.463718229619 1.2258444145768541  0.44274093333199999 1.1077437517927717  0.42128123002099999 0.99451419962269305  0.39934998206299999 0.88638424016061756  0.37696060492299999 0.78357788104854598  0.35412907794100001 0.68631326959247818  0.330874426522 0.5948028050404145  0.30721723465099998 0.50924749095235478  0.28318537711199998 0.42985261828029953  0.25879262851899998 0.35676376526624859  0.23404626687999999 0.29008291697620214  0.20897271669199999 0.22995640793416022  0.18359613823099999 0.17651125734820297  0.157944062242 0.12987117866865047  0.13204573300200001 0.090151278221482806  0.10593236272000001 0.057458480543100036  0.079636822900330001 0.031890604160782217  0.05319347381779 0.013535444557047431  0.026637814871799999 0.0024716004411557222  0.0088836336362039994 -9.1768104825603941e-007  0 0 
 0.0097292354155939995 4 0.0099683729429830004 1 0.010207510470369999 1 0.010446647997759999 1 0.01068578552515 1 0.01092492305254 1 0.01116406057993 1 0.01140319810732 1 0.01164233563471 1 0.011881473162089999 1 0.01212061068948 1 0.01235974821687 1 0.01259888574426 1 0.01283802327165 1 0.01307716079904 1 0.01331629832643 1 0.01355543585382 1 0.0137945733812 1 0.01403371090859 1 0.01427284843598 1 0.01451198596337 1 0.01475112349076 1 0.01499026101815 4
7 0 0  3 25 23  6.2831853071800001 0  6.2742944917130004 -2.1789936889915183e-006  6.2564905020810002 0.0024733914970437236  6.2297725381650002 0.013616981605935488  6.2030980317819999 0.032190960197022424  6.1765212286409996 0.058161513281420524  6.1500974237259998 0.091464659436843732  6.1238722166970003 0.13203689916419201  6.097971112213 0.17958804949816512  6.072410070389 0.23395507402216301  6.047215974237 0.2949584580722055  6.0224095789899996 0.36241725541625253  5.9980101516669997 0.43614793894830395  5.9740338557130004 0.51595948079435949  5.9504944188330002 0.60165874937241925  5.9274034809040002 0.693057429846483  5.9047702992450004 0.78996589115655047  5.8826019663459999 0.89219572381062162  5.8609035102040004 0.99955987140269642  5.8396780366590004 1.1118733351187746  5.8189268830609997 1.2289536002188561  5.7986497254979996 1.3506212073429411  5.7788448822809997 1.4766996340770289  5.76595421669 1.5635781541410896  5.7595865315810002 1.6076951545871203 
 0.01499026101815 4 0.015229593191879999 1 0.01546892536561 1 0.015708257539330001 1 0.015947589713060002 1 0.016186921886789999 1 0.01642625406052 1 0.016665586234250001 1 0.016904918407979998 1 0.0171442505817 1 0.017383582755430001 1 0.017622914929159999 1 0.01786224710289 1 0.018101579276620001 1 0.018340911450349998 1 0.01858024362407 1 0.018819575797800001 1 0.019058907971529999 1 0.01929824014526 1 0.019537572318990001 1 0.019776904492720002 1 0.02001623666644 1 0.020255568840170001 4
7 0 0  3 25 23  5.7595865315810002 1.6076951545871203  5.7531470832569997 1.5630807767970891  5.7401155605780003 1.4752836284330277  5.7201097476090004 1.3480503446969392  5.6996441928839996 1.2254462074148538  5.6787196504040001 1.1076411075747719  5.6573383351509996 0.99480652837469308  5.6355042279190002 0.88711541551661821  5.6132231586290002 0.78474154778854677  5.5905029356730003 0.68785910209447931  5.5673534654830004 0.59664159903441583  5.5437867985339997 0.51126279932835628  5.519817392077 0.43189010128030092  5.4954614707380003 0.35870569479024988  5.4707379663060003 0.2918767480962034  5.4456687267659998 0.23154870966416136  5.4202777880030002 0.17786637232120392  5.3945914922379998 0.13096713839929125  5.3686383339650003 0.090981757068963387  5.3424488355820001 0.058033062636900432  5.3160553598430003 0.032235417759802459  5.2894919312609998 0.013693609647121541  5.2627938802400003 0.0025035953214577441  5.2449299592019996 -8.9999359481762715e-007  5.2359877559830004 0 
 2.380730968221e-007 4 0.00023922240857239999 1 0.00047820674404799998 1 0.0007171910795236 1 0.00095617541499920002 1 0.001195159750475 1 0.00143414408595 1 0.0016731284214260001 1 0.0019121127569019999 1 0.002151097092377 1 0.0023900814278530001 1 0.0026290657633280001 1 0.0028680500988040002 1 0.0031070344342799998 1 0.0033460187697549998 1 0.0035850031052309999 1 0.003823987440706 1 0.004062971776182 1 0.0043019561116579997 1 0.0045409404471330002 1 0.0047799247826089998 1 0.0050189091180840003 1 0.0052578934535599999 4
7 0 0  3 25 23  5.2359877559830004 0  5.2270790197650001 -2.8825840162440084e-006  5.2092471451269997 0.0024861692271497321  5.1825211974799998 0.013653776109115513  5.1558823439820003 0.032218722216442446  5.1293952582460003 0.05809625619546048  5.1031203993969996 0.091174631475883533  5.0771253150540003 0.13129723834379148  5.051405293498 0.17835569393370426  5.0259902665940004 0.23220506054816178  5.0009054160059998 0.29269498220020396  4.9761742870140004 0.35966895043225061  4.9518179116840004 0.43296664840030169  4.9278548605900001 0.51242048869635703  4.9043011550270004 0.59785536603041656  4.8811706136220003 0.68909737253648018  4.8584747543760001 0.78597033595454768  4.8362229215030004 0.88829767437861895  4.8144223760419997 0.99590276064869387  4.7930784107209998 1.1086096249267725  4.7721944864539996 1.2262434645048543  4.7517723196689996 1.3486312416849398  4.7318121869040004 1.475601771235028  4.7188123517190004 1.5631921982430892  4.7123889803849996 1.6076951545871203 
 0.0052578934535599999 4 0.0054959842661260003 1 0.0057340750786919999 1 0.0059721658912580003 1 0.0062102567038239999 1 0.0064483475163900003 1 0.0066864383289559999 1 0.0069245291415220003 1 0.0071626199540879999 1 0.0074007107666540003 1 0.0076388015792199998 1 0.0078768923917870003 1 0.0081149832043530008 1 0.0083530740169189995 1 0.0085911648294849999 1 0.0088292556420510003 1 0.0090673464546170007 1 0.0093054372671829994 1 0.0095435280797489998 1 0.0097816188923150003 1 0.01001970970488 1 0.01025780051745 1 0.01049589133001 4
7 0 0  3 25 23  3.6651914291879999 1.6076951545871203  3.6716308775119999 1.5630807767970891  3.6846624001910002 1.4752836284330277  3.7046682131609998 1.3480503446969392  3.7251337678860001 1.2254462074148538  3.7460583103660001 1.1076411075747719  3.7674396256180001 0.99480652837469308  3.7892737328499999 0.88711541551661821  3.8115548021399999 0.78474154778854677  3.8342750250959998 0.68785910209447931  3.8574244952860002 0.59664159903441583  3.880991162235 0.51126279932835628  3.9049605686929998 0.43189010128030092  3.9293164900309998 0.35870569479024988  3.9540399944639999 0.2918767480962034  3.9791092340029999 0.23154870966416136  4.004500172767 0.17786637232122393  4.0301864685320004 0.13096713839929125  4.0561396268039998 0.090981757068983399  4.0823291251880001 0.058033062636900432  4.1087226009269999 0.032235417759802459  4.1352860295080003 0.013693609647119541  4.1619840805299999 0.0025035953214597442  4.1798480015669996 -8.9999359464642708e-007  4.1887902047859997 -1.5383701491078718e-015 
 2.380730968221e-007 4 0.00023922240857239999 1 0.00047820674404799998 1 0.0007171910795236 1 0.00095617541499920002 1 0.001195159750475 1 0.00143414408595 1 0.0016731284214260001 1 0.0019121127569019999 1 0.002151097092377 1 0.0023900814278530001 1 0.0026290657633280001 1 0.0028680500988040002 1 0.0031070344342799998 1 0.0033460187697549998 1 0.0035850031052309999 1 0.003823987440706 1 0.004062971776182 1 0.0043019561116579997 1 0.0045409404471330002 1 0.0047799247826089998 1 0.0050189091180840003 1 0.0052578934535599999 4
7 0 0  3 25 23  4.1887902047859997 -1.5383701491078718e-015  4.197698941004 -2.8825840168440084e-006  4.2155308156420004 0.0024861692271497321  4.2422567632890003 0.013653776109115513  4.2688956167869998 0.032218722216442446  4.2953827025229998 0.05809625619546048  4.3216575613719996 0.091174631475883533  4.3476526457159999 0.13129723834379148  4.3733726672720001 0.17835569393370426  4.3987876941749997 0.23220506054816178  4.4238725447630003 0.29269498220020396  4.4486036737549997 0.35966895043225061  4.4729600490849997 0.43296664840030169  4.496923100179 0.51242048869635703  4.5204768057419997 0.59785536603041656  4.5436073471479999 0.68909737253648018  4.5663032063940001 0.78597033595454768  4.5885550392659997 0.88829767437861895  4.6103555847270004 0.99590276064869387  4.6316995500480003 1.1086096249267725  4.6525834743149996 1.2262434645048543  4.6730056410999996 1.3486312416849398  4.6929657738649997 1.475601771235028  4.7059656090499997 1.5631921982430892  4.7123889803849996 1.6076951545871203 
 0.0052578934535599999 4 0.0054959842661260003 1 0.0057340750786919999 1 0.0059721658912580003 1 0.0062102567038239999 1 0.0064483475163900003 1 0.0066864383289559999 1 0.0069245291415220003 1 0.0071626199540879999 1 0.0074007107666540003 1 0.0076388015792199998 1 0.0078768923917870003 1 0.0081149832043530008 1 0.0083530740169189995 1 0.0085911648294849999 1 0.0088292556420510003 1 0.0090673464546170007 1 0.0093054372671829994 1 0.0095435280797489998 1 0.0097816188923150003 1 0.01001970970488 1 0.01025780051745 1 0.01049589133001 4
7 0 0  3 25 23  2.6179938779910001 1.6076951545871203  2.6244060111660001 1.5632693450570894  2.6373985535740001 1.4757282025170282  2.6573879300460002 1.3485840979969397  2.6778744239710002 1.2258444145768541  2.6988517202579998 1.1077437517927717  2.720311423569 0.99451419962269305  2.7422426715269999 0.88638424016061756  2.764632048667 0.78357788104854598  2.7874635756489998 0.68631326959247818  2.810718227068 0.5948028050404145  2.834375418939 0.50924749095235478  2.8584072764780002 0.42985261828029953  2.882800025071 0.35676376526624859  2.90754638671 0.29008291697620214  2.9326199368979999 0.22995640793416022  2.957996515359 0.17651125734820297  2.983648591348 0.12987117866865047  3.0095469205879999 0.090151278221482806  3.0356602908700001 0.057458480543100036  3.061955830689 0.031890604160782217  3.0883991797719998 0.013535444557047431  3.1149548387179999 0.0024716004411557222  3.132709019954 -9.1768104825603941e-007  3.1415926535900001 0 
 0.0097292354155939995 4 0.0099683729429830004 1 0.010207510470369999 1 0.010446647997759999 1 0.01068578552515 1 0.01092492305254 1 0.01116406057993 1 0.01140319810732 1 0.01164233563471 1 0.011881473162089999 1 0.01212061068948 1 0.01235974821687 1 0.01259888574426 1 0.01283802327165 1 0.01307716079904 1 0.01331629832643 1 0.01355543585382 1 0.0137945733812 1 0.01403371090859 1 0.01427284843598 1 0.01451198596337 1 0.01475112349076 1 0.01499026101815 4
7 0 0  3 25 23  3.1415926535900001 0  3.1504834690560002 -2.1789936882235182e-006  3.1682874586879999 0.0024733914970437236  3.1950054226039999 0.013616981605931488  3.2216799289879998 0.032190960197022424  3.2482567321290001 0.058161513281420524  3.274680537044 0.091464659436843732  3.3009057440720002 0.13203689916419201  3.3268068485560001 0.17958804949816512  3.3523678903810001 0.23395507402216301  3.3775619865320001 0.2949584580722055  3.4023683817800001 0.36241725541625253  3.426767809102 0.43614793894830395  3.4507441050560002 0.51595948079435949  3.474283541937 0.60165874937241925  3.4973744798649999 0.693057429846483  3.5200076615250002 0.78996589115655047  3.5421759944229998 0.89219572381062162  3.5638744505650002 0.99955987140269642  3.5850999241110002 1.1118733351187746  3.605851077708 1.2289536002188561  3.6261282352720001 1.3506212073429411  3.645933078488 1.4766996340770289  3.6588237440800002 1.5635781541410896  3.6651914291879999 1.6076951545871203 
 0.01499026101815 4 0.015229593191879999 1 0.01546892536561 1 0.015708257539330001 1 0.015947589713060002 1 0.016186921886789999 1 0.01642625406052 1 0.016665586234250001 1 0.016904918407979998 1 0.0171442505817 1 0.017383582755430001 1 0.017622914929159999 1 0.01786224710289 1 0.018101579276620001 1 0.018340911450349998 1 0.01858024362407 1 0.018819575797800001 1 0.019058907971529999 1 0.01929824014526 1 0.019537572318990001 1 0.019776904492720002 1 0.02001623666644 1 0.020255568840170001 4
7 0 0  3 25 23  1.570796326795 1.6076951545871203  1.577235775119 1.5630807767970891  1.5902672977979999 1.4752836284330277  1.6102731107670001 1.3480503446969392  1.6307386654930001 1.2254462074148538  1.6516632079719999 1.1076411075747719  1.673044523225 0.99480652837469308  1.694878630457 0.88711541551661821  1.717159699747 0.78474154778854677  1.739879922703 0.68785910209447931  1.7630293928930001 0.59664159903441583  1.7865960598420001 0.51126279932835628  1.8105654662990001 0.43189010128030092  1.8349213876379999 0.35870569479024988  1.859644892071 0.2918767480962034  1.88471413161 0.23154870966416136  1.9101050703739999 0.17786637232122393  1.935791366138 0.13096713839929125  1.9617445244109999 0.090981757068983399  1.987934022795 0.058033062636900432  2.014327498533 0.032235417759802459  2.040890927115 0.013693609647123541  2.067588978136 0.0025035953214577441  2.0854528991739998 -8.9999359534562715e-007  2.0943951023929999 0 
 2.3807309682240001e-007 4 0.00023922240857239999 1 0.00047820674404799998 1 0.0007171910795236 1 0.00095617541499920002 1 0.001195159750475 1 0.00143414408595 1 0.0016731284214260001 1 0.0019121127569019999 1 0.002151097092377 1 0.0023900814278530001 1 0.0026290657633280001 1 0.0028680500988040002 1 0.0031070344342799998 1 0.0033460187697549998 1 0.0035850031052309999 1 0.003823987440706 1 0.004062971776182 1 0.0043019561116579997 1 0.0045409404471330002 1 0.0047799247826089998 1 0.0050189091180840003 1 0.0052578934535599999 4
7 0 0  3 25 23  2.0943951023929999 0  2.1033038386110001 -2.8825840166880082e-006  2.1211357132490001 0.0024861692271477319  2.1478616608959999 0.013653776109115513  2.1745005143939999 0.032218722216442446  2.2009876001299999 0.058096256195480485  2.2272624589790002 0.091174631475883533  2.2532575433219999 0.13129723834379148  2.2789775648789998 0.17835569393370426  2.3043925917819998 0.23220506054816178  2.32947744237 0.29269498220020396  2.3542085713619998 0.35966895043225061  2.3785649466919998 0.43296664840030169  2.4025279977860001 0.51242048869635703  2.4260817033489999 0.59785536603041656  2.449212244755 0.68909737253648018  2.4719081040000002 0.78597033595454768  2.4941599368729999 0.88829767437861895  2.515960482334 0.99590276064869387  2.537304447655 1.1086096249267725  2.5581883719220002 1.2262434645048543  2.5786105387070002 1.3486312416849398  2.5985706714719998 1.475601771235028  2.6115705066569999 1.5631921982430892  2.6179938779910001 1.6076951545871203 
 0.0052578934535599999 4 0.0054959842661260003 1 0.0057340750786919999 1 0.0059721658912580003 1 0.0062102567038239999 1 0.0064483475163900003 1 0.0066864383289559999 1 0.0069245291415220003 1 0.0071626199540879999 1 0.0074007107666540003 1 0.0076388015792199998 1 0.0078768923917870003 1 0.0081149832043530008 1 0.0083530740169189995 1 0.0085911648294849999 1 0.0088292556420510003 1 0.0090673464546170007 1 0.0093054372671829994 1 0.0095435280797489998 1 0.0097816188923150003 1 0.01001970970488 1 0.01025780051745 1 0.01049589133001 4
1 6.2831853071800001 -1.5383701491078718e-015 -1 0 
1 6.2831853071800001 -1.5383701491078718e-015 -1 0 
1 6.2831853071800001 -1.5383701491078718e-015 -1 0 
1 6.2831853071800001 -1.5383701491078718e-015 -1 0 
1 6.2831853071800001 -1.5383701491078718e-015 -1 0 
1 6.2831853071800001 0 -1 0 
1 9.4247779607689992 0 0 1 
1 3.1415926535900001 0 0 1 
Curves 36
2 33.25 0 0 -1 0 0 0 0 -1 -0 -1 -0 6
7 0 0  1 2 2  33.25 0 6  0 0 6 
 1.75 2 35 2
2 0 0 0 -1 0 0 0 0 1 0 1 -0 6
2 33.25 0 0 -1 0 0 0 0 -1 -0 -1 -0 6
2 35 0 0 1 0 0 0 0 -1 -0 1 0 4.25
7 0 0  3 6 3  -6.6961524227069997 -10.392304845410001 -3.3584774650310002e-017  -6.9415326553450001 -9.9672938153110007 0.73614069791400005  -7.1436895456059997 -9.5391782834040004 1.4776585506869999  -7.4233889711870003 -8.6739968361030009 2.9761967751789999  -7.5 -8.2368640155719994 3.7333330299940002  -7.5 -7.7942286340600004 4.5 
 2.3807309682240001e-007 4 0.0026290657633280001 2 0.0052578934535599999 4
1 -7.5 -10.392304845410001 0 1 -0 -0 
1 0 -10.392304845410001 0 0 0.50000000000018996 0.86602540378432902 
1 -7.5 -5.1961524227069997 9 1 -0 -0 
7 0 0  3 8 4  -7.5 -7.7942286340600004 4.5  -7.5 -7.5737384135500001 4.8819002644939999  -7.4810000436050004 -7.3522591709930003 5.2655135654259997  -7.4074723681770003 -6.9141270531419998 6.024380653972  -7.3530153387719999 -6.6965263685840002 6.4012760953869998  -7.1429803142750004 -6.0475890860249999 7.5252684397060001  -6.9409199530189998 -5.6201022212499998 8.2656974090649999  -6.6961524227069997 -5.1961524227069997 9 
 0.0052578934535599999 4 0.0065673929226729997 2 0.0078768923917870003 2 0.01049589133001 4
7 0 0  3 6 3  -6.6961524227069997 -5.1961524227069997 9  -6.9404938467740003 -4.3497289009489997 9  -7.1447877443719996 -3.4850001899579999 9  -7.4243086340710001 -1.7519382819430001 9  -7.5 -0.87947397800299998 9  -7.5 0 9 
 0.0097292354155939995 4 0.01235974821687 2 0.01499026101815 4
1 0 -5.1961524227069997 9 0 1 0 
1 -7.5 5.1961524227069997 9 1 -0 -0 
7 0 0  3 8 4  -7.5 0 9  -7.5 0.440094913566 9  -7.4811435383680003 0.88323666252199995 9  -7.4068095215260001 1.7670877141879999 9  -7.3517937103479998 2.2044210886819999 9  -7.1406704563029999 3.504566795728 9  -6.9387976802309996 4.3556045942120001 9  -6.6961524227069997 5.1961524227069997 9 
 0.01499026101815 4 0.016306587973649998 2 0.017622914929159999 2 0.020255568840170001 4
7 0 0  3 6 3  -6.6961524227069997 5.1961524227069997 9  -6.9415326553450001 5.6211634528090002 8.2638593020860007  -7.1436895456059997 6.0492789847159996 7.5223414493130001  -7.4233889711870003 6.914460432017 6.0238032248210001  -7.5 7.3515932525479997 5.2666669700059998  -7.5 7.7942286340600004 4.5 
 2.380730968221e-007 4 0.0026290657633280001 2 0.0052578934535599999 4
1 0 5.1961524227069997 9 0 0.50000000000018996 -0.86602540378432902 
1 -7.5 10.392304845412999 0 1 -0 -0 
7 0 0  3 8 4  -7.5 7.7942286340600004 4.5  -7.5 8.0147188545690007 4.1180997355060001  -7.4810000436050004 8.2361980971269997 3.7344864345739999  -7.4074723681770003 8.6743302149779993 2.975619346028  -7.3530153387719999 8.8919308995349997 2.5987239046130002  -7.1429803142750004 9.5408681820950001 1.4747315602940001  -6.9409199530189998 9.9683550468700002 0.73430259093500005  -6.6961524227069997 10.392304845412999 -1.1572022065199999e-016 
 0.0052578934535599999 4 0.0065673929226729997 2 0.0078768923917870003 2 0.01049589133001 4
1 -7.5 5.1961524227069997 -9 1 -0 -0 
7 0 0  3 6 3  -6.6961524227069997 5.1961524227069997 -9  -6.9415326553450001 5.6211634528090002 -8.2638593020860007  -7.1436895456059997 6.0492789847159996 -7.5223414493130001  -7.4233889711870003 6.914460432017 -6.0238032248210001  -7.5 7.3515932525479997 -5.2666669700059998  -7.5 7.7942286340600004 -4.5 
 2.380730968221e-007 4 0.0026290657633280001 2 0.0052578934535599999 4
7 0 0  3 8 4  -7.5 7.7942286340600004 -4.5  -7.5 8.0147188545690007 -4.1180997355060001  -7.4810000436050004 8.2361980971269997 -3.7344864345739999  -7.4074723681770003 8.6743302149779993 -2.975619346028  -7.3530153387719999 8.8919308995349997 -2.5987239046130002  -7.1429803142750004 9.5408681820950001 -1.4747315602940001  -6.9409199530189998 9.9683550468700002 -0.73430259093500005  -6.6961524227069997 10.392304845412999 -1.1572022065199999e-016 
 0.0052578934535599999 4 0.0065673929226729997 2 0.0078768923917870003 2 0.01049589133001 4
1 0 5.1961524227069997 -9 0 0.50000000000018996 0.86602540378432902 
1 -7.5 -5.1961524227069997 -9 1 -0 -0 
7 0 0  3 6 3  -6.6961524227069997 -5.1961524227069997 -9  -6.9404938467740003 -4.3497289009489997 -9  -7.1447877443719996 -3.4850001899579999 -9  -7.4243086340710001 -1.7519382819430001 -9  -7.5 -0.87947397800299998 -9  -7.5 0 -9 
 0.0097292354155939995 4 0.01235974821687 2 0.01499026101815 4
7 0 0  3 8 4  -7.5 0 -9  -7.5 0.440094913566 -9  -7.4811435383680003 0.88323666252199995 -9  -7.4068095215260001 1.7670877141879999 -9  -7.3517937103479998 2.2044210886819999 -9  -7.1406704563029999 3.504566795728 -9  -6.9387976802309996 4.3556045942120001 -9  -6.6961524227069997 5.1961524227069997 -9 
 0.01499026101815 4 0.016306587973649998 2 0.017622914929159999 2 0.020255568840170001 4
1 -0 -5.1961524227069997 -9 0 1 0 
7 0 0  3 6 3  -6.6961524227069997 -10.392304845410001 -3.3584774650310002e-017  -6.9415326553450001 -9.9672938153110007 -0.73614069791400005  -7.1436895456059997 -9.5391782834040004 -1.4776585506869999  -7.4233889711870003 -8.6739968361030009 -2.9761967751789999  -7.5 -8.2368640155719994 -3.7333330299940002  -7.5 -7.7942286340600004 -4.5 
 2.3807309682240001e-007 4 0.0026290657633280001 2 0.0052578934535599999 4
7 0 0  3 8 4  -7.5 -7.7942286340600004 -4.5  -7.5 -7.5737384135500001 -4.8819002644939999  -7.4810000436050004 -7.3522591709930003 -5.2655135654259997  -7.4074723681770003 -6.9141270531419998 -6.024380653972  -7.3530153387719999 -6.6965263685840002 -6.4012760953869998  -7.1429803142750004 -6.0475890860249999 -7.5252684397060001  -6.9409199530189998 -5.6201022212499998 -8.2656974090649999  -6.6961524227069997 -5.1961524227069997 -9 
 0.0052578934535599999 4 0.0065673929226729997 2 0.0078768923917870003 2 0.01049589133001 4
1 0 -10.392304845410001 0 -0 0.50000000000018996 -0.86602540378432902 
2 -7.5 0 0 -1 0 0 0 0 1 0 1 -0 9
2 -7.5 0 0 -1 0 0 0 0 1 0 1 -0 9
2 -7.5 0 0 -1 0 0 0 0 1 0 1 -0 9
2 -7.5 0 0 -1 0 0 0 0 1 0 1 -0 9
2 -7.5 0 0 -1 0 0 0 0 1 0 1 -0 9
2 -7.5 0 0 -1 0 0 0 0 1 0 1 -0 9
7 0 0  1 2 2  35 5.2047488963760002e-016 -4.25  33.25 7.3478807948840004e-016 -6 
 0 2 2.4748737341529998 2
Polygon3D 0
PolygonOnTriangulations 72
8 1 3 4 5 6 7 8 2 
p 1 1 0 0.448798950512828 0.897597901025655 1.34639685153848 1.79519580205131 2.24399475256414 2.69279370307697 3.14159265358979 
8 1 3 4 5 6 7 8 2 
p 1 1 0 0.448798950512828 0.897597901025655 1.34639685153848 1.79519580205131 2.24399475256414 2.69279370307697 3.14159265358979 
2 2 9 
p 1 1 1.75 35 
2 23 10 
p 1 1 1.75 35 
14 10 11 12 13 14 15 16 17 18 19 20 21 22 9 
p 1 1 0 0.483321946706122 0.966643893412244 1.44996584011837 1.93328778682449 2.41660973353061 2.89993168023673 3.38325362694285 3.86657557364898 4.3498975203551 4.83321946706122 5.31654141376734 5.79986336047346 6.28318530717959 
14 1 2 3 4 5 6 7 8 9 10 11 12 13 1 
p 1 1 0 0.483321946706122 0.966643893412244 1.44996584011837 1.93328778682449 2.41660973353061 2.89993168023673 3.38325362694285 3.86657557364898 4.3498975203551 4.83321946706122 5.31654141376734 5.79986336047346 6.28318530717959 
8 2 24 25 26 27 28 29 23 
p 1 1 3.14159265358979 3.59039160410262 4.03919055461545 4.48798950512828 4.9367884556411 5.38558740615393 5.83438635666676 6.28318530717959 
8 23 24 25 26 27 28 29 1 
p 1 1 3.14159265358979 3.59039160410262 4.03919055461545 4.48798950512828 4.9367884556411 5.38558740615393 5.83438635666676 6.28318530717959 
14 10 11 12 13 14 15 16 17 18 19 20 21 22 9 
p 1 1 0 0.483321946706122 0.966643893412244 1.44996584011837 1.93328778682449 2.41660973353061 2.89993168023673 3.38325362694285 3.86657557364898 4.3498975203551 4.83321946706122 5.31654141376734 5.79986336047346 6.28318530717959 
14 1 2 3 4 5 6 7 8 9 10 11 12 13 1 
p 1 1 0 0.483321946706122 0.966643893412244 1.44996584011837 1.93328778682449 2.41660973353061 2.89993168023673 3.38325362694285 3.86657557364898 4.3498975203551 4.83321946706122 5.31654141376734 5.79986336047346 6.28318530717959 
2 1 3 
p 1 1 2.380730968224e-007 0.00525789345356 
2 1 2 
p 1 1 2.380730968224e-007 0.00525789345356 
2 1 3 
p 1 1 0.803847577293 7.5 
2 1 2 
p 1 1 0.803847577293 7.5 
2 3 4 
p 1 1 0 10.3923048454114 
2 14 15 
p 1 1 0 10.3923048454114 
2 5 4 
p 1 1 0.803847577293 7.5 
2 1 3 
p 1 1 0.803847577293 7.5 
2 1 2 
p 1 1 0.00525789345356 0.01049589133001 
2 2 5 
p 1 1 0.00525789345356 0.01049589133001 
2 2 3 
p 1 1 0.009729235415594 0.01499026101815 
2 1 2 
p 1 1 0.009729235415594 0.01499026101815 
2 3 4 
p 1 1 0 10.392304845414 
2 15 19 
p 1 1 0 10.392304845414 
2 5 4 
p 1 1 0.803847577293 7.5 
2 1 3 
p 1 1 0.803847577293 7.5 
2 1 5 
p 1 1 0.01499026101815 0.02025556884017 
2 2 5 
p 1 1 0.01499026101815 0.02025556884017 
2 5 2 
p 1 1 2.380730968221e-007 0.00525789345356 
2 1 2 
p 1 1 2.380730968221e-007 0.00525789345356 
2 3 4 
p 1 1 0 10.3923048454129 
2 19 18 
p 1 1 0 10.3923048454129 
2 5 4 
p 1 1 0.803847577293 7.5 
2 4 5 
p 1 1 0.803847577293 7.5 
2 1 5 
p 1 1 0.00525789345356 0.01049589133001 
2 2 5 
p 1 1 0.00525789345356 0.01049589133001 
2 1 2 
p 1 1 0.803847577293 7.5 
2 4 5 
p 1 1 0.803847577293 7.5 
2 1 2 
p 1 1 2.380730968221e-007 0.00525789345356 
2 1 3 
p 1 1 2.380730968221e-007 0.00525789345356 
2 2 5 
p 1 1 0.00525789345356 0.01049589133001 
2 3 4 
p 1 1 0.00525789345356 0.01049589133001 
2 2 5 
p 1 1 0 10.3923048454129 
2 17 18 
p 1 1 0 10.3923048454129 
2 1 2 
p 1 1 0.803847577293 7.5 
2 4 5 
p 1 1 0.803847577293 7.5 
2 1 2 
p 1 1 0.009729235415594 0.01499026101815 
2 1 3 
p 1 1 0.009729235415594 0.01499026101815 
2 3 1 
p 1 1 0.01499026101815 0.02025556884017 
2 3 4 
p 1 1 0.01499026101815 0.02025556884017 
2 2 5 
p 1 1 0 10.392304845414 
2 16 17 
p 1 1 0 10.392304845414 
2 1 2 
p 1 1 2.380730968224e-007 0.00525789345356 
2 1 3 
p 1 1 2.380730968224e-007 0.00525789345356 
2 3 1 
p 1 1 0.00525789345356 0.01049589133001 
2 3 4 
p 1 1 0.00525789345356 0.01049589133001 
2 2 5 
p 1 1 0 10.3923048454114 
2 14 16 
p 1 1 0 10.3923048454114 
4 1 4 5 3 
p 1 1 5.23598775598299 5.58505360638185 5.93411945678072 6.28318530717959 
4 1 3 4 2 
p 1 1 5.23598775598299 5.58505360638185 5.93411945678072 6.28318530717959 
4 2 4 5 3 
p 1 1 4.18879020478639 4.53785605518526 4.88692190558412 5.23598775598299 
4 14 17 18 1 
p 1 1 4.18879020478639 4.53785605518526 4.88692190558412 5.23598775598299 
4 2 4 5 3 
p 1 1 3.14159265358979 3.49065850398866 3.83972435438753 4.18879020478639 
4 11 15 16 14 
p 1 1 3.14159265358979 3.49065850398866 3.83972435438753 4.18879020478639 
4 2 4 5 3 
p 1 1 2.09439510239319 2.44346095279206 2.79252680319093 3.14159265358979 
4 8 12 13 11 
p 1 1 2.09439510239319 2.44346095279206 2.79252680319093 3.14159265358979 
4 1 3 4 2 
p 1 1 1.0471975511966 1.39626340159546 1.74532925199433 2.09439510239319 
4 5 9 10 8 
p 1 1 1.0471975511966 1.39626340159546 1.74532925199433 2.09439510239319 
4 1 3 4 2 
p 1 1 0 0.349065850398867 0.698131700797734 1.0471975511966 
4 2 6 7 5 
p 1 1 0 0.349065850398867 0.698131700797734 1.0471975511966 
2 10 23 
p 1 1 0 2.474873734153 
2 9 1 
p 1 1 0 2.474873734153 
Surfaces 17
2 35 0 0 -1 -0 -0 -0 0 1 0 1 -0 6
3 35 0 0 -1 0 0 0 0 1 0 1 -0 4.25
0.78539816339699997
1 0 8.673617379884e-016 18 -1 0 0 0 0 1 0 1 -0 
1 35 0 0 1 0 0 0 0 -1 -0 1 0 
1 -7.5 -10.392304845410001 0 0 0.86602540378432902 -0.50000000000018996 0 0.50000000000018996 0.86602540378432902 1 -0 0 
3 -7.5 0 0 1 0 0 0 0 1 0 -1 0 9
1.047197551197
1 -7.5 -10.392304845410001 0 0 -0.86602540378432902 -0.50000000000018996 0 0.50000000000018996 -0.86602540378432902 1 0 0 
1 -7.5 -5.1961524227069997 9 0 0 -1 -1 0 -0 0 1 0 
3 -7.5 0 0 1 0 0 0 0 1 0 -1 0 9
1.047197551197
1 -7.5 5.1961524227069997 9 0 -0.86602540378432902 -0.50000000000018996 0 0.50000000000018996 -0.86602540378432902 1 0 0 
3 -7.5 0 0 1 0 0 0 0 1 0 -1 0 9
1.047197551197
1 -7.5 5.1961524227069997 -9 0 0.86602540378432902 -0.50000000000018996 0 0.50000000000018996 0.86602540378432902 1 -0 0 
3 -7.5 0 0 1 0 0 0 0 1 0 -1 0 9
1.047197551197
1 -7.5 -5.1961524227069997 -9 0 0 -1 -1 0 -0 0 1 0 
3 -7.5 0 0 1 0 0 0 0 1 0 -1 0 9
1.047197551197
3 -7.5 0 0 1 0 0 0 0 1 0 -1 0 9
1.047197551197
1 -7.5 8.673617379884e-016 18 -1 0 0 0 0 1 0 1 -0 
Triangulations 17
29 27 1 0.150432526909058
33.25 0 -6 33.25 -1.469576158977e-015 6 33.25 -2.60330243470535 -5.40581320741452 33.25 -4.69098889480818 -3.7409388111524 33.25 -5.84956747309094 -1.33512560373789 33.25 -5.84956747309094 1.33512560373789 33.25 -4.69098889480818 3.7409388111524 33.25 -2.60330243470535 5.40581320741451 0 0 6 0 0 6 0 2.78833903226261 5.31273615391926 0 4.93790319536194 3.40838848038694 0 5.95625324458832 0.723220081531939 0 5.61009745611249 -2.12762932225521 0 3.97873594944477 -4.49106448902661 0 1.43589398572535 -5.82565090455631 0 -1.43589398572534 -5.82565090455631 0 -3.97873594944477 -4.49106448902661 0 -5.61009745611249 -2.12762932225522 0 -5.95625324458832 0.723220081531934 0 -4.93790319536194 3.40838848038693 0 -2.78833903226262 5.31273615391926 33.25 -1.469576158977e-015 6 33.25 2.60330243470535 5.40581320741452 33.25 4.69098889480818 3.7409388111524 33.25 5.84956747309094 1.33512560373789 33.25 5.84956747309094 -1.33512560373789 33.25 4.69098889480818 -3.7409388111524 33.25 2.60330243470535 -5.40581320741451 3.14159265359 1.75 6.28318530717979 1.75 3.59039160410283 1.75 4.03919055461566 1.75 4.48798950512848 1.75 4.93678845564131 1.75 5.38558740615414 1.75 5.83438635666697 1.75 6.28318530718 35 0 35 0.483321946706122 35 0.966643893412244 35 1.44996584011837 35 1.93328778682449 35 2.41660973353061 35 2.89993168023673 35 3.38325362694285 35 3.86657557364898 35 4.3498975203551 35 4.83321946706122 35 5.31654141376734 35 5.79986336047346 35 4.13891143580258e-013 1.75 0.448798950512621 1.75 0.897597901025448 1.75 1.34639685153828 1.75 1.7951958020511 1.75 2.24399475256393 1.75 2.69279370307676 1.75 10 23 24 11 24 25 11 10 24 12 25 26 12 11 25 13 26 27 13 12 26 14 27 28 14 13 27 15 28 29 15 14 28 16 29 1 16 15 29 17 1 3 17 16 1 18 3 4 18 17 3 19 4 5 19 18 4 20 5 6 20 19 5 21 6 7 21 20 6 22 7 8 22 21 7 9 8 2 9 22 8 
29 27 1 0.223375555087679
33.25 0 -6 33.25 -1.469576158977e-015 6 33.25 -2.60330243470535 -5.40581320741452 33.25 -4.69098889480818 -3.7409388111524 33.25 -5.84956747309094 -1.33512560373789 33.25 -5.84956747309094 1.33512560373789 33.25 -4.69098889480818 3.7409388111524 33.25 -2.60330243470535 5.40581320741451 35 0 -4.25 35 0 -4.25 35 1.97507348118602 -3.76318810902614 35 3.49768143004804 -2.41427517360741 35 4.21901271491673 -0.512280891085124 35 3.97381903141301 1.50707076993078 35 2.81827129752338 3.18117067972718 35 1.01709157322212 4.12650272406072 35 -1.01709157322212 4.12650272406072 35 -2.81827129752338 3.18117067972718 35 -3.97381903141301 1.50707076993078 35 -4.21901271491673 -0.51228089108512 35 -3.49768143004804 -2.41427517360741 35 -1.97507348118602 -3.76318810902614 33.25 0 -6 33.25 2.60330243470535 5.40581320741452 33.25 4.69098889480818 3.7409388111524 33.25 5.84956747309094 1.33512560373789 33.25 5.84956747309094 -1.33512560373789 33.25 4.69098889480818 -3.7409388111524 33.25 2.60330243470535 -5.40581320741451 3.14159265359 2.47487373415181 6.28318530717979 2.47487373415181 3.59039160410283 2.47487373415181 4.03919055461566 2.47487373415181 4.48798950512848 2.47487373415181 4.93678845564131 2.47487373415181 5.38558740615414 2.47487373415181 5.83438635666697 2.47487373415181 3.14159265359 0 9.424777960769 0 8.94145601406288 0 8.45813406735676 0 7.97481212065063 0 7.49149017394451 0 7.00816822723839 0 6.52484628053227 0 6.04152433382615 0 5.55820238712002 0 5.0748804404139 0 4.59155849370778 0 4.10823654700166 0 3.62491460029554 0 9.424777960769 2.474873734153 6.73198425769262 2.47487373415181 7.18078320820545 2.47487373415181 7.62958215871828 2.47487373415181 8.0783811092311 2.47487373415181 8.52718005974393 2.47487373415181 8.97597901025676 2.47487373415181 3 1 9 3 9 22 4 22 21 4 3 22 5 21 20 5 4 21 6 20 19 6 5 20 7 19 18 7 6 19 8 18 17 8 7 18 2 17 16 2 8 17 24 16 15 24 2 16 25 15 14 25 24 15 26 14 13 26 25 14 27 13 12 27 26 13 28 12 11 28 27 12 29 11 10 29 28 11 23 29 10 
19 19 1 2.4980018054066e-015
0 0 6 0 2.78833903226261 5.31273615391926 0 4.93790319536194 3.40838848038694 0 5.95625324458832 0.723220081531939 0 5.61009745611249 -2.12762932225521 0 3.97873594944477 -4.49106448902661 0 1.43589398572535 -5.82565090455631 0 -1.43589398572534 -5.82565090455631 0 -3.97873594944477 -4.49106448902661 0 -5.61009745611249 -2.12762932225522 0 -5.95625324458832 0.723220081531934 0 -4.93790319536194 3.40838848038693 0 -2.78833903226262 5.31273615391926 0 -10.39230484541 0 0 -5.196152422707 9 -0 -5.196152422707 -9 0 5.196152422707 -9 0 10.392304845413 0 0 5.196152422707 9 -12 0 -12.6872638460807 2.78833903226261 -14.5916115196131 4.93790319536194 -17.2767799184681 5.95625324458832 -20.1276293222552 5.61009745611249 -22.4910644890266 3.97873594944477 -23.8256509045563 1.43589398572535 -23.8256509045563 -1.43589398572535 -22.4910644890266 -3.97873594944477 -20.1276293222552 -5.61009745611249 -17.2767799184681 -5.95625324458833 -14.5916115196131 -4.93790319536194 -12.6872638460807 -2.78833903226262 -18 -10.39230484541 -9 -5.196152422707 -27 -5.196152422707 -27 5.196152422707 -18 10.392304845413 -9 5.196152422707 10 16 14 10 9 16 8 16 9 11 10 14 17 8 7 17 16 8 12 11 14 6 17 7 5 17 6 15 13 12 15 12 14 1 13 15 18 4 3 18 5 4 18 17 5 19 2 1 19 3 2 19 18 3 19 1 15 
13 11 1 4.44089209850063e-016
35 0 -4.25 35 1.97507348118602 -3.76318810902614 35 3.49768143004804 -2.41427517360741 35 4.21901271491673 -0.512280891085124 35 3.97381903141301 1.50707076993078 35 2.81827129752338 3.18117067972718 35 1.01709157322212 4.12650272406072 35 -1.01709157322212 4.12650272406072 35 -2.81827129752338 3.18117067972718 35 -3.97381903141301 1.50707076993078 35 -4.21901271491673 -0.51228089108512 35 -3.49768143004804 -2.41427517360741 35 -1.97507348118602 -3.76318810902614 4.25 0 3.76318810902614 1.97507348118602 2.41427517360741 3.49768143004804 0.512280891085124 4.21901271491673 -1.50707076993078 3.97381903141301 -3.18117067972718 2.81827129752338 -4.12650272406072 1.01709157322212 -4.12650272406072 -1.01709157322212 -3.18117067972718 -2.81827129752338 -1.50707076993078 -3.97381903141301 0.51228089108512 -4.21901271491673 2.41427517360741 -3.49768143004804 3.76318810902614 -1.97507348118602 7 8 9 5 6 7 5 9 10 5 7 9 1 11 12 1 12 13 4 10 11 4 5 10 3 1 2 3 4 11 3 11 1 
5 3 1 4.95226082364297e-012
-6.696152422707 -10.39230484541 -3.358477465031e-017 -7.5 -7.79422863406 4.5 0 -10.39230484541 0 0 -5.196152422707 9 -6.696152422707 -5.196152422707 9 0 0.803847577293 5.19615242270497 0 0 7.5 10.3923048454114 7.5 10.3923048454114 0.803847577293 3 1 2 4 2 5 4 3 2 
5 3 1 0.157033811868383
-6.696152422707 -10.39230484541 -3.358477465031e-017 -7.5 -7.79422863406 -4.5 -7.5 -7.79422863406 4.5 -7.5 -8.86326977710987 -1.56283359900237 -7.5 -8.86326977710988 1.56283359900235 1.570796326795 1.60769515458712 2.094395102393 0 1.047197551197 0 1.74532925199474 -1.53837014910787e-015 1.39626340159588 -1.53837014910787e-015 1 3 5 4 1 5 2 1 4 
5 3 1 4.95226082364297e-012
-6.696152422707 -10.39230484541 -3.358477465031e-017 0 -10.39230484541 0 -7.5 -7.79422863406 -4.5 -6.696152422707 -5.196152422707 -9 -0 -5.196152422707 -9 0 0.803847577293 0 7.5 5.19615242270497 0 10.3923048454114 0.803847577293 10.3923048454114 7.5 2 1 3 5 3 4 5 2 3 
5 3 1 0
-6.696152422707 -5.196152422707 9 -7.5 0 9 0 -5.196152422707 9 0 5.196152422707 9 -6.696152422707 5.196152422707 9 -0.803847577293 0 0 5.196152422707 -7.5 0 -7.5 10.392304845414 -0.803847577293 10.392304845414 2 3 1 2 4 3 5 4 2 
5 3 1 0.157033811867366
-7.5 -7.79422863406 4.5 -6.696152422707 -5.196152422707 9 -7.5 0 9 -7.5 -5.78508848717887 6.89439998807079 -7.5 -3.07818128993102 8.45723358707317 1.047197551197 0 0.523598775598 1.60769515458712 0 0 0.698131700798148 -1.53837014910787e-015 0.34906585039928 -1.53837014910787e-015 2 3 5 4 2 5 1 2 4 
5 3 1 2.35433894602011e-012
-6.696152422707 5.196152422707 9 -7.5 7.79422863406 4.5 0 5.196152422707 9 0 10.392304845413 0 -6.696152422707 10.392304845413 -1.15720220652e-016 0 0.803847577293 5.19615242270647 0 0 7.5 10.3923048454129 7.5 10.3923048454129 0.803847577293 3 1 2 4 2 5 4 3 2 
5 3 1 0.157033811867454
-7.5 0 9 -7.5 7.79422863406 4.5 -7.5 3.07818128993103 8.45723358707317 -7.5 5.78508848717887 6.89439998807079 -6.696152422707 5.196152422707 9 6.28318530718 0 5.2359877559834 0 5.93411945678113 0 5.58505360638227 0 5.759586531581 1.60769515458712 5 2 4 3 5 4 1 5 3 
5 3 1 2.35433894602011e-012
-6.696152422707 5.196152422707 -9 0 5.196152422707 -9 -7.5 7.79422863406 -4.5 -6.696152422707 10.392304845413 -1.15720220652e-016 0 10.392304845413 0 0 0.803847577293 0 7.5 5.19615242270647 0 10.3923048454129 0.803847577293 10.3923048454129 7.5 2 1 3 5 3 4 5 2 3 
5 3 1 0.157033811867683
-7.5 7.79422863406 4.5 -7.5 7.79422863406 -4.5 -7.5 8.86326977710987 1.56283359900236 -7.5 8.86326977710987 -1.56283359900237 -6.696152422707 10.392304845413 -1.15720220652e-016 5.2359877559834 -1.53837014910787e-015 4.18879020478681 -1.53837014910787e-015 4.88692190558454 -1.53837014910787e-015 4.53785605518567 -1.53837014910787e-015 4.712388980385 1.60769515458712 5 2 4 3 5 4 1 5 3 
5 3 1 0
-6.696152422707 -5.196152422707 -9 -0 -5.196152422707 -9 -7.5 0 -9 -6.696152422707 5.196152422707 -9 0 5.196152422707 -9 -0.803847577293 0 -7.5 0 0 5.196152422707 -0.803847577293 10.392304845414 -7.5 10.392304845414 3 2 1 3 5 2 4 5 3 
5 3 1 0.157033811867224
-6.696152422707 5.196152422707 -9 -7.5 7.79422863406 -4.5 -7.5 0 -9 -7.5 5.78508848717887 -6.89439998807079 -7.5 3.07818128993103 -8.45723358707317 3.665191429188 1.60769515458712 4.188790204786 -1.53837014910787e-015 3.14159265359 0 3.83972435438794 -1.53837014910787e-015 3.49065850398907 -1.53837014910787e-015 1 3 5 4 1 5 2 1 4 
5 3 1 0.157033811867353
-6.696152422707 -5.196152422707 -9 -7.5 0 -9 -7.5 -7.79422863406 -4.5 -7.5 -3.07818128993103 -8.45723358707317 -7.5 -5.78508848717887 -6.89439998807079 2.617993877991 1.60769515458712 3.14159265359 0 2.094395102393 0 2.79252680319134 -1.53837014910787e-015 2.44346095279247 -1.53837014910787e-015 1 3 5 4 1 5 2 1 4 
18 16 1 1.33226762955019e-015
-7.5 -7.79422863406 4.5 -7.5 0 9 -7.5 -5.78508848717887 6.89439998807079 -7.5 -3.07818128993102 8.45723358707317 -7.5 7.79422863406 4.5 -7.5 3.07818128993103 8.45723358707317 -7.5 5.78508848717887 6.89439998807079 -7.5 7.79422863406 -4.5 -7.5 8.86326977710987 1.56283359900236 -7.5 8.86326977710987 -1.56283359900237 -7.5 0 -9 -7.5 5.78508848717887 -6.89439998807079 -7.5 3.07818128993103 -8.45723358707317 -7.5 -7.79422863406 -4.5 -7.5 -3.07818128993103 -8.45723358707317 -7.5 -5.78508848717887 -6.89439998807079 -7.5 -8.86326977710987 -1.56283359900237 -7.5 -8.86326977710988 1.56283359900235 -13.5 -7.79422863406 -9 0 -11.1056000119292 -5.78508848717887 -9.54276641292683 -3.07818128993103 -13.5 7.79422863406 -9.54276641292683 3.07818128993103 -11.1056000119292 5.78508848717887 -22.5 7.79422863406 -16.4371664009976 8.86326977710987 -19.5628335990024 8.86326977710987 -27 0 -24.8943999880708 5.78508848717887 -26.4572335870732 3.07818128993103 -22.5 -7.79422863406 -26.4572335870732 -3.07818128993103 -24.8943999880708 -5.78508848717887 -19.5628335990024 -8.86326977710987 -16.4371664009976 -8.86326977710988 17 16 14 18 15 16 18 16 17 13 11 15 12 13 15 3 18 1 4 15 18 4 18 3 10 8 12 7 4 2 7 2 6 7 5 9 7 9 10 7 10 12 7 12 15 7 15 4 

TShapes 96
Ve
1e-007
33.25 0 -6
0 0

0101101
*
Ve
1e-007
33.25 -1.469576158977e-015 6
0 0

0101101
*
Ed
 1e-007 1 1 0
1  1 0 0 3.14159265358979
2  1 1 0 0 3.14159265358979
2  2 2 0 0 3.14159265358979
4 C0 1 0 2 0
6  1 2 0
6  2 1 0
0

0101000
+96 0 -95 0 *
Ve
1e-007
0 0 6
0 0

0101101
*
Ed
 1e-007 1 1 0
1  2 0 1.75 35
3  3 4CN 1 0 1.75 35
7  3 4 1 0
0

0101000
+95 0 -93 0 *
Ed
 1e-007 1 1 0
1  3 0 0 6.28318530717959
2  5 1 0 0 6.28318530717959
4 C0 1 0 3 0
6  5 1 0
6  6 3 0
0

0101000
+93 0 -93 0 *
Ed
 1e-007 1 1 0
1  4 0 3.14159265358979 6.28318530717959
2  6 1 0 3.14159265358979 6.28318530717959
2  7 2 0 3.14159265358979 6.28318530717959
4 C0 1 0 2 0
6  7 2 0
6  8 1 0
0

0101000
+95 0 -96 0 *
Wi

0101100
+94 0 +92 0 -91 0 -92 0 +90 0 *
Fa
0  1e-007 1 0
2  1
0101000
+89 0 *
Ve
1e-007
35 0 -4.25
0 0

0101101
*
Ed
 1e-007 1 1 0
1  5 0 0 6.28318530717959
2  8 2 0 0 6.28318530717959
4 C0 4 0 2 0
6  9 2 0
6  10 4 0
0

0101000
+87 0 -87 0 *
Wi

0101100
+86 0 *
Fa
0  1e-007 4 0
2  4
0101000
+85 0 *
Ve
0.00017672949294388
-6.696152422707 -10.39230484541 -3.358477465031e-017
0 0

0101101
*
Ve
0.00017672949294388
-7.5 -7.79422863406 4.5
0 0

0101101
*
Ed
 0.00017672949294388 1 1 0
1  6 0 2.380730968224e-007 0.00525789345356
2  9 6 0 2.380730968224e-007 0.00525789345356
4 C0 5 0 6 0
6  11 6 0
6  12 5 0
0

0101000
+83 0 -82 0 *
Ve
1e-007
0 -10.39230484541 0
0 0

0101101
*
Ed
 1e-007 1 1 0
1  7 0 0.803847577293 7.5
4 C0 5 0 7 0
6  13 5 0
6  14 7 0
0

0101000
+83 0 -80 0 *
Ve
1e-007
0 -5.196152422707 9
0 0

0101101
*
Ed
 1e-007 1 1 0
1  8 0 0 10.3923048454114
4 C0 5 0 3 0
6  15 5 0
6  16 3 0
0

0101000
+80 0 -78 0 *
Ve
0.000188686152170834
-6.696152422707 -5.196152422707 9
0 0

0101101
*
Ed
 1e-007 1 1 0
1  9 0 0.803847577293 7.5
4 C0 5 0 8 0
6  17 5 0
6  18 8 0
0

0101000
+76 0 -78 0 *
Ed
 4.53803362782894e-005 1 1 0
1  10 0 0.00525789345356 0.01049589133001
2  10 9 0 0.00525789345356 0.01049589133001
4 C0 5 0 9 0
6  19 9 0
6  20 5 0
0

0101000
+82 0 -76 0 *
Wi

0101100
-81 0 +79 0 +77 0 -75 0 -74 0 *
Fa
0  1e-007 5 0
2  5
0101000
-73 0 *
Ve
0.000188686152170834
-7.5 0 9
0 0

0101101
*
Ed
 0.000188686152170834 1 1 0
1  11 0 0.009729235415594 0.01499026101815
2  11 9 0 0.009729235415594 0.01499026101815
4 C0 8 0 9 0
6  21 9 0
6  22 8 0
0

0101000
+76 0 -71 0 *
Ve
1e-007
0 5.196152422707 9
0 0

0101101
*
Ed
 1e-007 1 1 0
1  12 0 0 10.392304845414
4 C0 8 0 3 0
6  23 8 0
6  24 3 0
0

0101000
+78 0 -69 0 *
Ve
0.000176729493229538
-6.696152422707 5.196152422707 9
0 0

0101101
*
Ed
 1e-007 1 1 0
1  13 0 0.803847577293 7.5
4 C0 8 0 10 0
6  25 8 0
6  26 10 0
0

0101000
+67 0 -69 0 *
Ed
 4.75796659421575e-005 1 1 0
1  14 0 0.01499026101815 0.02025556884017
2  12 11 0 0.01499026101815 0.02025556884017
4 C0 8 0 11 0
6  27 11 0
6  28 8 0
0

0101000
+71 0 -67 0 *
Wi

0101100
-70 0 +75 0 +68 0 -66 0 -65 0 *
Fa
0  1e-007 8 0
2  8
0101000
-64 0 *
Ve
0.000176729493229538
-7.5 7.79422863406 4.5
0 0

0101101
*
Ed
 0.000176729493229538 1 1 0
1  15 0 2.380730968221e-007 0.00525789345356
2  13 11 0 2.380730968221e-007 0.00525789345356
4 C0 10 0 11 0
6  29 11 0
6  30 10 0
0

0101000
+67 0 -62 0 *
Ve
1e-007
0 10.392304845413 0
0 0

0101101
*
Ed
 1e-007 1 1 0
1  16 0 0 10.3923048454129
4 C0 10 0 3 0
6  31 10 0
6  32 3 0
0

0101000
+69 0 -60 0 *
Ve
4.53803362139304e-005
-6.696152422707 10.392304845413 -1.15720220652e-016
0 0

0101101
*
Ed
 1e-007 1 1 0
1  17 0 0.803847577293 7.5
4 C0 10 0 12 0
6  33 10 0
6  34 12 0
0

0101000
+58 0 -60 0 *
Ed
 4.53803362138702e-005 1 1 0
1  18 0 0.00525789345356 0.01049589133001
2  14 13 0 0.00525789345356 0.01049589133001
4 C0 10 0 13 0
6  35 13 0
6  36 10 0
0

0101000
+62 0 -58 0 *
Wi

0101100
-61 0 +66 0 +59 0 -57 0 -56 0 *
Fa
0  1e-007 10 0
2  10
0101000
-55 0 *
Ve
0.000176729493229179
-6.696152422707 5.196152422707 -9
0 0

0101101
*
Ve
1e-007
0 5.196152422707 -9
0 0

0101101
*
Ed
 1e-007 1 1 0
1  19 0 0.803847577293 7.5
4 C0 12 0 14 0
6  37 12 0
6  38 14 0
0

0101000
+53 0 -52 0 *
Ve
0.000176729493229179
-7.5 7.79422863406 -4.5
0 0

0101101
*
Ed
 0.000176729493229179 1 1 0
1  20 0 2.380730968221e-007 0.00525789345356
2  15 15 0 2.380730968221e-007 0.00525789345356
4 C0 12 0 15 0
6  39 15 0
6  40 12 0
0

0101000
+53 0 -50 0 *
Ed
 4.53803362139304e-005 1 1 0
1  21 0 0.00525789345356 0.01049589133001
2  16 13 0 0.00525789345356 0.01049589133001
4 C0 12 0 13 0
6  41 13 0
6  42 12 0
0

0101000
+50 0 -58 0 *
Ed
 1e-007 1 1 0
1  22 0 0 10.3923048454129
4 C0 12 0 3 0
6  43 12 0
6  44 3 0
0

0101000
+52 0 -60 0 *
Wi

0101100
-51 0 +49 0 +48 0 +57 0 -47 0 *
Fa
0  1e-007 12 0
2  12
0101000
+46 0 *
Ve
0.000188686152171359
-6.696152422707 -5.196152422707 -9
0 0

0101101
*
Ve
1e-007
-0 -5.196152422707 -9
0 0

0101101
*
Ed
 1e-007 1 1 0
1  23 0 0.803847577293 7.5
4 C0 14 0 7 0
6  45 14 0
6  46 7 0
0

0101000
+44 0 -43 0 *
Ve
0.000188686152171359
-7.5 0 -9
0 0

0101101
*
Ed
 0.000188686152171359 1 1 0
1  24 0 0.009729235415594 0.01499026101815
2  17 16 0 0.009729235415594 0.01499026101815
4 C0 14 0 16 0
6  47 16 0
6  48 14 0
0

0101000
+44 0 -41 0 *
Ed
 4.7579665942101e-005 1 1 0
1  25 0 0.01499026101815 0.02025556884017
2  18 15 0 0.01499026101815 0.02025556884017
4 C0 14 0 15 0
6  49 15 0
6  50 14 0
0

0101000
+41 0 -53 0 *
Ed
 1e-007 1 1 0
1  26 0 0 10.392304845414
4 C0 14 0 3 0
6  51 14 0
6  52 3 0
0

0101000
+43 0 -52 0 *
Wi

0101100
-42 0 +40 0 +39 0 +51 0 -38 0 *
Fa
0  1e-007 14 0
2  14
0101000
+37 0 *
Ve
0.000176729492943635
-7.5 -7.79422863406 -4.5
0 0

0101101
*
Ed
 0.000176729492943635 1 1 0
1  27 0 2.380730968224e-007 0.00525789345356
2  19 6 0 2.380730968224e-007 0.00525789345356
4 C0 7 0 6 0
6  53 6 0
6  54 7 0
0

0101000
+83 0 -35 0 *
Ed
 4.53803362788284e-005 1 1 0
1  28 0 0.00525789345356 0.01049589133001
2  20 16 0 0.00525789345356 0.01049589133001
4 C0 7 0 16 0
6  55 16 0
6  56 7 0
0

0101000
+35 0 -44 0 *
Ed
 1e-007 1 1 0
1  29 0 0 10.3923048454114
4 C0 7 0 3 0
6  57 7 0
6  58 3 0
0

0101000
+80 0 -43 0 *
Wi

0101100
-79 0 +34 0 +33 0 +42 0 -32 0 *
Fa
0  1e-007 7 0
2  7
0101000
+31 0 *
Wi

0101100
+91 0 *
Wi

0101100
-77 0 +32 0 +38 0 +47 0 -59 0 -68 0 *
Fa
0  1e-007 3 0
2  3
0101000
-29 0 -28 0 *
Ed
 1e-007 1 1 0
1  30 0 5.23598775598299 6.28318530717959
2  21 9 0 5.23598775598299 6.28318530717959
4 C0 9 0 17 0
6  59 9 0
6  60 17 0
0

0101000
+82 0 -71 0 *
Wi

0101100
+74 0 +70 0 -26 0 *
Fa
0  1e-007 9 0
2  9
0101000
+25 0 *
Ed
 1e-007 1 1 0
1  31 0 4.18879020478639 5.23598775598299
2  22 6 0 4.18879020478639 5.23598775598299
4 C0 6 0 17 0
6  61 6 0
6  62 17 0
0

0101000
+35 0 -82 0 *
Wi

0101100
-34 0 +81 0 -23 0 *
Fa
0  1e-007 6 0
2  6
0101000
+22 0 *
Ed
 1e-007 1 1 0
1  32 0 3.14159265358979 4.18879020478639
2  23 16 0 3.14159265358979 4.18879020478639
4 C0 16 0 17 0
6  63 16 0
6  64 17 0
0

0101000
+41 0 -35 0 *
Wi

0101100
-40 0 -33 0 -20 0 *
Fa
0  1e-007 16 0
2  16
0101000
+19 0 *
Ed
 1e-007 1 1 0
1  33 0 2.09439510239319 3.14159265358979
2  24 15 0 2.09439510239319 3.14159265358979
4 C0 15 0 17 0
6  65 15 0
6  66 17 0
0

0101000
+50 0 -41 0 *
Wi

0101100
-49 0 -39 0 -17 0 *
Fa
0  1e-007 15 0
2  15
0101000
+16 0 *
Ed
 1e-007 1 1 0
1  34 0 1.0471975511966 2.09439510239319
2  25 13 0 1.0471975511966 2.09439510239319
4 C0 13 0 17 0
6  67 13 0
6  68 17 0
0

0101000
+62 0 -50 0 *
Wi

0101100
-14 0 +56 0 -48 0 *
Fa
0  1e-007 13 0
2  13
0101000
+13 0 *
Ed
 1e-007 1 1 0
1  35 0 0 1.0471975511966
2  26 11 0 0 1.0471975511966
4 C0 11 0 17 0
6  69 11 0
6  70 17 0
0

0101000
+71 0 -62 0 *
Wi

0101100
-11 0 +65 0 +61 0 *
Fa
0  1e-007 11 0
2  11
0101000
+10 0 *
Wi

0101100
+26 0 +11 0 +14 0 +17 0 +20 0 +23 0 *
Fa
0  1e-007 17 0
2  17
0101000
+8 0 *
Ed
 1e-007 1 1 0
1  36 0 0 2.474873734153
3  27 28CN 2 0 0 2.474873734153
7  71 72 2 0
0

0101000
+87 0 -96 0 *
Wi

0101100
-94 0 -6 0 -86 0 +6 0 -90 0 *
Fa
0  1e-007 2 0
2  2
0101000
+5 0 *
Sh

0101100
+88 0 +84 0 -72 0 -63 0 -54 0 +45 0 +36 0 +30 0 -27 0 +24 0 
+21 0 +18 0 +15 0 +12 0 +9 0 +7 0 +4 0 *
So

0100000
+3 0 *
Co

1100000
+2 3 *

+1 0 