DBRep_DrawableShape

CASCADE Topology V1, (c) Matra-Datavision
Locations 2
1
              1               0               0               0 
              0               1               0               0 
              0               0               1               0 
2  1 -1 0
Curve2ds 6
8 0 50.53573602564208
1 6.2831853071795862 0 0 1 
1 0 0 0 1 
1 0 0 1 0 
7 1 1  6 6 2  -8.7351539822445456 -0.63379491159305079  1.6690784610682365 -8.7351836313705249 7.6739204662093359  1.0367296232096121 1.5375530641948671 8.8668036666141283  1.0383466998475064 10.010430622678399 -0.63372801110663435  0.85353433019614966 1.5376208766666117 -10.134320165720917  1.0383466998475068 -8.7351243331185628 -8.9415102893954348  1.0367296232096115
 0 6 6.2831853071795862 6
1 0 50.53573602564208 1 0 
7 1 1  6 6 2  8.7351585475138354 -0.6337319885250281  1.6690784610682363 8.735128352611369 7.6739833892753957  1.0367296232096119 -1.5376169355355778 8.8667925907314924  1.0383466998475062 -10.010426057404654 -0.63380012050507162  0.85353433019614955 -1.5375478747824687 -10.134331241599057  1.0383466998475066 8.7351887424162662 -8.9414473663254483  1.0367296232096113
 0 6 6.2831853071795862 6
Curves 3
7 1 0  11 45 5  12.499976470281005 6.8250581479745165e-006 -6.4999822215886383  1.6690784610682365 12.500131176134666 -6.247624746685787 -5.4660069456297267  1.6690784610681697 9.0650528105561907 -12.494046738000842 -4.4315655162207328  1.6690784610684974 2.1955692404403848 -16.647400461555797 -3.3980662784338063  1.6690784610676928 -6.6643608697306851 -16.589990343042565 -2.3634512099280229  1.6690784610690048 -14.644014560345518 -11.402057235747977 -1.3294716784906164  1.6690784610674256 -18.418256070260131 -2.2930191987558146 -0.29556615676398934  1.6690784610689116 -16.442583112715571 7.0193155600146335 0.73854716080952088  1.6690784610677829 -10.219550890867358 13.323199299988902 1.7729474982354816  1.6690784610684801 -2.4243474657081907 15.24502644081608 2.8066685751761931  1.6690784610681395 4.4210714498869494 13.256544347730351 3.8409370082499841  1.6690784610682607 8.8388133007671676 8.8388229528560487 4.8750177784073259  1.6690784610682361 13.25666534504597 4.4211896956607575 5.9089930543831377  1.6690784610683291 15.244585487074504 -2.4246648587031068 6.9434344837569384  1.6690784610678304 13.323991653964184 -10.218987857086024 7.976933721588277  1.6690784610692735 7.0184799081274551 -16.443309434559218 9.0115487900671383  1.669078461066394 -2.2924100085463275 -18.417353990358905 10.045528321486952  1.6690784610706446 -11.402264340060185 -14.645083189708469 11.07943384327799  1.6690784610658662 -16.590067651031585 -6.6632563874532522 12.113547160766668  1.6690784610700209 -16.647238307706424 2.194610836497453 13.1479474982658  1.6690784610672207 -12.494134108637963 9.0655890427277956 14.181668575159247  1.6690784610686475 -6.2476228010525174 12.499962005694652 15.215937008259237  1.6690784610681397 -6.825056350967528e-006 12.499976470294232 16.250017778401514  1.6690784610682377 6.2476247466875092 12.500131176101094 17.283993054395498  1.6690784610683305 12.494046737973958 9.0650528106102755 18.318434483743491  1.6690784610678722 16.647400461629605 2.1955692403805256 19.351933721593305  1.6690784610690395 16.589990342931525 -6.6643608696878758 20.386548790073903  1.6690784610670282 11.402057235851165 -14.644014560360274 21.420528321474716  1.6690784610695781 2.2930191987024195 -18.41825607026464 22.454433843287713  1.6690784610670997 -7.0193155600135331 -16.442583112705023 23.488547160761602  1.6690784610689813 -13.323199299967829 -10.219550890879217 24.522947498268728  1.6690784610678593 -15.245026440833914 -2.4243474656954001 25.556668575156543  1.6690784610683784 -13.256544347720686 4.4210714498752814 26.590937008261619  1.6690784610682048 -8.8388229528617437 8.8388133007754881 27.62501777839995  1.6690784610682365 -4.4211939522182853 13.256665732147647 28.65898978011468  1.6690784610683058 2.4246837737266143 15.244583766838943 29.693449033774513  1.6690784610679723 10.218936695448114 13.323996306921536 30.72689436646386  1.6690784610687983 16.443411917979414 7.0184705876397704 31.761627623503255  1.6690784610674123 18.417191271747438 -2.292395209913467 32.79540315328763  1.6690784610691567 14.645294490141893 -11.40228355698644 33.829596382095993  1.6690784610674219 6.6630285813514707 -16.590046933011372 34.86337192529318  1.6690784610688174 -2.1944058695698816 -16.647256948581571 35.898105165139263  1.6690784610679079 -9.0657425277511532 -12.494120149830794 36.931550509750998  1.6690784610683727 -12.499867430461919 -6.2476314022637283 37.966009758442723  1.6690784610682037 -12.500023292559669 -2.5667732987955105e-006 38.999981761271194  1.6690784610682363
 0 12 12.63393400641052 11 25.26786801282104 11 37.90180201923156 11 50.53573602564208 12
7 1 1  6 6 2  12.499976470281005 6.8250581479745165e-006 -6.4999822215886383  1.6690784610682365 12.49994682115547 7.1637461704909811e-006 -14.807697599391016  1.0367296232096121 22.772683516712085 -6.2655966273084118e-006 -16.000580799795809  1.0383466998475064 31.245561075187815 -1.7769397894440431e-005 -6.5000491220750547  0.85353433019614966 22.772751329182814 -7.0402323446572268e-006 3.0005430325392197  1.0383466998475068 12.500006119406544 6.4863701485506908e-006 1.8077331562137395  1.0367296232096115
 0 6 6.2831853071795862 6
7 1 1  6 6 2  -12.500023292559669 -2.5667732987955105e-006 38.999981761271194  1.6690784610682363 -12.500053487462292 -2.9054605166223268e-006 30.692266383470773  1.0367296232096119 -22.772798775608173 1.7750329286414512e-006 29.49945718201468  1.0383466998475062 -31.245607897476173 6.0628785965022311e-006 39.000049893251237  0.85353433019614955 -22.772729714854709 2.5496668101254727e-006 48.500581014345215  1.0383466998475066 -12.499993097657082 -2.2280860916268352e-006 47.3076971390716  1.0367296232096113
 0 6 6.2831853071795862 6
Polygon3D 0
PolygonOnTriangulations 0
Surfaces 3
9 1 1 1 0 6 11 6 45 2 5 12.499976470281005 6.8250581479745165e-006 -6.4999822215886383  1.6690784610682365 12.500131176134666 -6.247624746685787 -5.4660069456297258  1.6690784610681697 9.0650528105561907 -12.494046738000842 -4.4315655162207328  1.6690784610684974 2.1955692404403848 -16.647400461555797 -3.3980662784338058  1.6690784610676928 -6.6643608697306851 -16.589990343042565 -2.3634512099280229  1.6690784610690048 -14.644014560345518 -11.402057235747977 -1.3294716784906164  1.6690784610674256 -18.418256070260131 -2.2930191987558146 -0.29556615676398934  1.6690784610689116 -16.442583112715571 7.0193155600146335 0.73854716080952088  1.6690784610677829 -10.219550890867358 13.323199299988902 1.7729474982354816  1.6690784610684801 -2.4243474657081912 15.245026440816078 2.8066685751761931  1.6690784610681395 4.4210714498869494 13.256544347730351 3.8409370082499841  1.6690784610682607 8.8388133007671676 8.8388229528560487 4.8750177784073259  1.6690784610682361 13.25666534504597 4.4211896956607575 5.9089930543831386  1.6690784610683291 15.244585487074504 -2.4246648587031068 6.9434344837569384  1.6690784610678304 13.323991653964184 -10.218987857086024 7.9769337215882761  1.6690784610692735 7.0184799081274551 -16.443309434559218 9.0115487900671383  1.669078461066394 -2.2924100085463275 -18.417353990358905 10.045528321486952  1.6690784610706446 -11.402264340060185 -14.645083189708471 11.079433843277991  1.6690784610658662 -16.590067651031585 -6.6632563874532522 12.11354716076667  1.6690784610700209 -16.647238307706424 2.194610836497453 13.1479474982658  1.6690784610672207 -12.494134108637963 9.0655890427277956 14.181668575159247  1.6690784610686475 -6.2476228010525174 12.499962005694652 15.215937008259237  1.6690784610681397 -6.8250563509675288e-006 12.499976470294232 16.250017778401514  1.6690784610682377 6.2476247466875092 12.500131176101094 17.283993054395498  1.6690784610683305 12.494046737973958 9.0650528106102755 18.318434483743491  1.6690784610678722 16.647400461629605 2.1955692403805256 19.351933721593305  1.6690784610690395 16.589990342931525 -6.6643608696878758 20.386548790073903  1.6690784610670282 11.402057235851165 -14.644014560360274 21.42052832147472  1.6690784610695781 2.2930191987024195 -18.41825607026464 22.454433843287713  1.6690784610670997 -7.0193155600135331 -16.442583112705023 23.488547160761602  1.6690784610689813 -13.323199299967831 -10.219550890879217 24.522947498268724  1.6690784610678593 -15.245026440833913 -2.4243474656953996 25.556668575156543  1.6690784610683784 -13.256544347720684 4.4210714498752814 26.590937008261619  1.6690784610682048 -8.8388229528617437 8.8388133007754881 27.62501777839995  1.6690784610682365 -4.4211939522182853 13.256665732147649 28.658989780114677  1.6690784610683058 2.4246837737266143 15.244583766838943 29.693449033774513  1.6690784610679723 10.218936695448114 13.323996306921536 30.72689436646386  1.6690784610687983 16.443411917979414 7.0184705876397704 31.761627623503255  1.6690784610674123 18.417191271747438 -2.292395209913467 32.79540315328763  1.6690784610691567 14.645294490141893 -11.402283556986438 33.829596382095993  1.6690784610674219 6.6630285813514707 -16.590046933011372 34.86337192529318  1.6690784610688174 -2.1944058695698816 -16.647256948581571 35.898105165139263  1.6690784610679079 -9.0657425277511532 -12.494120149830794 36.931550509750998  1.6690784610683727 -12.499867430461919 -6.2476314022637283 37.966009758442723  1.6690784610682037 -12.500023292559669 -2.5667732987955105e-006 38.999981761271194  1.6690784610682363 
12.49994682115547 7.1637461704909811e-006 -14.807697599391016  1.0367296232096121 12.50029541820161 -6.2476283913861277 -13.773722324137669  1.0367296232095748 9.064614349452345 -12.493994879174332 -12.739280891623327  1.0367296232097525 2.196284191379235 -16.647518752880124 -11.705781661238039  1.0367296232093313 -6.6651778453524075 -16.589901002311827 -10.671166582097538  1.0367296232099861 -14.643268933184476 -11.401986430774313 -9.6371870589418727  1.0367296232092482 -18.418851186125739 -2.2933055060405332 -8.6032815372240243  1.0367296232098795 -16.442144212437359 7.0197508473205286 -7.5691682113300303  1.0367296232094647 -10.219853388163626 13.322795931241874 -6.5347678846083035  1.0367296232096719 -2.4241887407575979 15.245235101366079 -5.5010468002006156  1.0367296232095951 4.4210381164613306 13.256511686040593 -4.4667783702657289  1.0367296232096159 8.8387920961860473 8.838802227251584 -3.4326975993950448  1.0367296232096119 13.256784058902525 4.421303255133326 -2.3987223241247868  1.0367296232096868 15.244238778550745 -2.4249382277629365 -1.3642808916453149  1.0367296232092882 13.324580845189749 -10.218565955079248 -0.33078166121754649  1.0367296232104248 7.0178390457277473 -16.443823950064392 0.70383341790168785  1.036729623208188 -2.2919328372623071 -18.416776685701187 1.7378129410287073  1.0367296232114607 -11.402482700621411 -14.645706449992106 2.7717184628268861  1.0367296232077894 -16.590065096350202 -6.6626382434573888 3.8058317886187538  1.0367296232109933 -16.647166980772496 2.1941117137974606 4.8402321154276926  1.0367296232088186 -12.49416941845543 9.0658488235323844 5.8739531997798089  1.036729623209937 -6.2476232760401667 12.499915340085085 6.9082216297442258  1.0367296232095344 -7.1637431202642432e-006 12.499946821185402 7.9423024005991376  1.036729623209613 6.2476283913876252 12.500295418127342 8.976277675887232  1.0367296232096692 12.493994879127921 9.0646143495690055 10.01071910834256  1.0367296232093881 16.647518753011262 2.1962841912478459 11.044218338784594  1.0367296232101109 16.589901002122851 -6.6651778452409864 12.078833417912659  1.0367296232088479 11.40198643092514 -14.643268933260286 13.112812941012226  1.0367296232104826 2.2933055060027945 -18.418851186080097 14.146718462839633  1.0367296232088541 -7.0197508473787877 -16.442144212458757 15.180831788612064  1.0367296232101186 -13.322795931162043 -10.219853388166518 16.215232115431299  1.036729623209355 -15.24523510141862 -2.4241887407366711 17.248953199776881  1.0367296232097067 -13.256511686015417 4.421038116436665 18.283221629746649  1.0367296232095915 -8.8388022272651519 8.8387920962038748 19.317302400597562  1.0367296232096121 -4.4213129520362706 13.25678444598684 20.351274401606467  1.0367296232096739 2.4249813182612581 15.244237058323224 21.385733658373262  1.0367296232093681 10.218449403245634 13.324585498171377 22.419178983656266  1.0367296232101504 16.444057418569034 7.0178297251795962 23.453912251339226  1.0367296232087906 18.416405994799486 -2.2919180385555009 24.487687772830345  1.0367296232105527 14.646187815628069 -11.402501917604779 25.521881001640224  1.0367296232087786 6.6621192760944306 -16.590044378302565 26.555656553152826  1.0367296232101859 -2.1936447765829765 -16.647185621654515 27.590389782293027  1.0367296232093099 -9.0661984793091044 -12.494155459647837 28.623835134378048  1.0367296232097267 -12.499699887292884 -6.2476318772512762 29.658294379923678  1.0367296232095866 -12.500053487462292 -2.9054605166223268e-006 30.692266383470773  1.0367296232096119 
22.772683516712085 -6.2655966273084118e-006 -16.000580799795809  1.0383466998475064 22.773053780614589 -11.381652040767134 -14.966367951952375  1.0383466998474755 16.51480478319915 -22.764104563943789 -13.932646674833467  1.0383466998476252 3.9991975848062702 -30.322123031359986 -12.897931840295168  1.038346699847265 -12.138303111743269 -30.236431277973089 -11.864393653213487  1.0383466998478399 -26.684613787275126 -20.755457896044788 -10.830185313856806  1.038346699847152 -33.547470514015565 -4.1940043018057889 -9.7958989048583156  1.0383466998478157 -29.961605063638338 12.799388483637177 -8.7618316037461064  1.0383466998472775 -18.614518212524281 24.266943518137055 -7.7280670311155006  1.0383466998476463 -4.4180682369632205 27.77544601051261 -6.6935860957286302  1.0383466998474422 8.0546580003322763 24.150735248135604 -5.6596824028363173  1.0383466998475237 16.102723370937838 16.102714510045139 -4.6255807997912228  1.0383466998475062 24.151024095699732 8.0549374174369213 -3.5913679519647452  1.0383466998475519 27.774383157031597 -4.4189222525636858 -2.5576466748162936  1.0383466998473032 24.268838546895896 -18.613119084039781 -1.5229318403019398  1.0383466998480324 12.797309153208587 -29.963462037812981 -0.4893936532373786  1.0383466998465649 -4.1925463374956315 -33.545196387361486 0.54481468620430107  1.0383466998487332 -20.756035009884783 -26.687252774192139 1.5791010950609241  1.0383466998463187 -30.236588507637105 -12.135519723915875 2.6131683963263121  1.0383466998483728 -30.321772376893673 3.9968682637242159 3.6469329688371808  1.0383466998470334 -22.764252234628763 16.516160214445108 4.681413904295372  1.038346699847688 -11.381645372426199 22.772651956743573 5.7153175971524774  1.0383466998474653 6.2655986725612678e-006 22.772683516744401 6.7494192002149767  1.0383466998475073 11.381652040770417 22.773053780533459 7.7836320480242165  1.0383466998475614 22.764104563900304 16.51480478332606 8.8173533251905631  1.0383466998472912 30.32212303147368 3.9991975846659864 9.8520681597069615  1.0383466998479793 30.236431277818436 -12.138303111625754 10.885606346736923  1.0383466998468047 20.755457896157267 -26.684613787361464 11.91981468623614  1.0383466998482616 4.1940043017941138 -33.547470513949293 12.954101095034249  1.0383466998469051 -12.799388483705663 -29.96160506368345 13.988168396343683  1.0383466998478554 -24.266943518055488 -18.614518212511975 15.021932968827123  1.0383466998473629 -27.775446010565972 -4.4180682369468194 16.056413904301344  1.0383466998475461 -24.15073524810818 8.0546580003075761 17.090317597149095  1.0383466998474993 -16.102714510061354 16.102723370955516 18.124419200216579  1.0383466998475064 -8.0549478954776621 24.151023687437871 19.158635500911679  1.0383466998475497 4.4189688142508299 27.774384971110003 20.192337981479412  1.0383466998473407 18.612993143266213 24.268833640230334 21.227109661591694  1.0383466998478521 29.963714313592948 12.79731898189462 22.260523213081839  1.0383466998470197 33.544795835111806 -4.192561943118708 23.294946682124284  1.0383466998480069 26.687772916667456 -20.756014744890727 24.328929690027898  1.0383466998471236 12.134958950688677 -30.236610355703057 25.363353190588676  1.0383466998477182 -3.996363711992029 -30.321752719215127 26.396766701514824  1.0383466998474264 -16.516538037027757 -22.764266954861469 27.431538409960879  1.0383466998475233 -22.772419147979164 -11.381636302033899 28.465240878577198  1.0383466998475051 -22.772798775608173 1.7750329286414512e-006 29.49945718201468  1.0383466998475062 
31.245561075187815 -1.7769397894440431e-005 -6.5000491220750547  0.85353433019614966 31.245704517315453 -15.616133630206702 -5.465640326083161  0.8535343301961168 22.6601931806448 -31.234843421682172 -4.432513029131389  0.85353433019627023 5.4853184304196487 -41.600636821276019 -3.396795568311429  0.85353433019591141 -16.651445551321288 -41.49205197290064 -2.3641456034018411  0.85353433019645863 -36.617123455968382 -28.470187551139311 -1.3297485284529778  0.853534330195864 -46.024638153787201 -5.761318422834 -0.29514796787888997  0.85353433019634528 -41.112861443210356 17.56582064570317 0.73888136207083477  0.85353433019604752 -25.537963594393766 33.294065026075359 1.7721215851794376  0.85353433019619207 -6.0627984084448716 38.109962700512177 2.8072292278974622  0.85353433019613456 11.051669747604834 33.136212134493739 3.84083209364114  0.85353433019615421 22.093960683109067 22.093935553385641 4.8749508779366373  0.85353433019614944 33.136323532961583 11.051775561297909 5.909359673884623  0.85353433019621128 38.109545853849532 -6.0631933317153344 6.9424869709145973  0.85353433019587699 33.294798257038664 -25.537386538914127 7.9782044316657981  0.8535343301968471 17.564961249573575 -41.113661381263483 9.0108543965477619  0.85353433019490144 -5.7607536242423834 -46.023678982337508 10.045251471686976  0.85353433019779867 -28.470466414855139 -36.618201065525923 11.07985203193326  0.85353433019450575 -41.492094016114763 -16.650272224845374 12.113881362239857  0.85353433019739899 -41.600526388534533 5.4843919179501777 13.147121585068621  0.85353433019543501 -31.23485892385446 22.660767188710807 14.182229227954492  0.85353433019643876 -15.61612968117854 31.245550925095593 15.215832093613287  0.85353433019608171 1.7769397531175457e-005 31.24556107520101 16.249950877952749  0.85353433019615021 15.616133630212099 31.245704517279599 17.284359673852467  0.85353433019620095 31.234843421665001 22.66019318070218 18.317486970945463  0.85353433019594538 41.600636821303425 5.4853184303618789 19.353204431661062  0.85353433019661062 41.492051972872652 -16.651445551287644 20.385854396523523  0.85353433019543301 28.470187551161288 -36.617123455981378 21.420251471718803  0.85353433019697456 5.7613184228211658 -46.024638153770965 22.454852031913092  0.85353433019542657 -17.565820645703354 -41.11286144323465 23.488881362247358  0.85353433019663649 -33.294065026066079 -25.537963594378752 24.522121585064443  0.85353433019589797 -38.109962700523447 -6.0627984084433759 25.5572292279608  0.85353433019624492 -33.13621213448365 11.051669747596755 26.590832093606792  0.85353433019612834 -22.093935553394033 22.093960683114673 27.624950877956987  0.85353433019614966 -11.051779817847516 33.136322468728778 28.6593686752346  0.8535343301962125 6.0632122467343867 38.109550582974528 29.692446971203864  0.8535343301958952 25.537335377258163 33.294785465651927 30.728312623522285  0.85353433019673042 41.113763864735233 17.564986872408216 31.760637674200254  0.85353433019522307 46.023516263647544 -5.7607943071042662 32.795595573701263  0.85353433019726732 36.61841236604841 -28.470413585502669 33.829405193734395  0.85353433019510216 16.650044418662372 -41.492150972265634 34.864363105021646  0.85353433019691327 -5.4841869509617514 -41.600475142623139 35.896688140420579  0.85353433019572422 -22.660920673772225 -31.234897298241236 36.932553803551016  0.85353433019631963 -31.245456349842343 -15.616106035443382 37.965632094861249  0.85353433019611002 -31.245607897476173 6.0628785965022303e-006 39.000049893251237  0.85353433019614955 
22.772751329182814 -7.0402323446572268e-006 3.0005430325392197  1.0383466998475068 22.772678131751185 -11.381643704731408 4.0347558819966665  1.0383466998474657 16.515807616505342 -22.764223173691079 5.0684771520111198  1.0383466998476654 3.997562373368956 -30.321852479459409 6.1031920034850806  1.038346699847178 -12.136434552934782 -30.236635615068082 7.1367301662277782  1.0383466998479722 -26.686319160303771 -20.755619838749524 8.1709385245527173  1.0383466998470083 -33.546109385301193 -4.1933494695493234 9.2052249335355434  1.0383466998479356 -29.962608901385764 12.798392909340993 10.239292215655647  1.0383466998472006 -18.613826351021761 24.267866089398836 11.273056812737185  1.0383466998476865 -4.4184312672609565 27.774968769207426 12.307537731064835  1.0383466998474267 8.0547342394073009 24.150809950840134 13.34144143112861  1.0383466998475284 16.102771869334006 16.102761912942238 14.375543032543805  1.0383466998475066 24.150752577406696 8.0546776880766515 15.409755881984999  1.0383466998475606 27.775176136971453 -4.4182970121566854 16.44347715202548  1.0383466998472708 24.267490968766637 -18.614084043941133 17.478192003484224  1.0383466998481046 12.798774911893734 -29.962285255480118 18.511730166195598  1.0383466998464568 -4.1936377074300486 -33.546516778901299 19.545938524621626  1.0383466998488544 -20.755535583033328 -26.68582727450417 20.580224933450111  1.0383466998462214 -30.236594350621782 -12.136933521815143 21.614292215729328  1.0383466998484256 -30.321935513425551 3.9980098401737996 22.648056812690232  1.0383466998470201 -22.764171475218827 16.51556605263044 23.682537731088367  1.0383466998476869 -11.381644286049607 22.77275868873776 24.716441431117531  1.0383466998474675 7.0402314688022827e-006 22.77275132917697 25.750543032550002  1.0383466998475077 11.381643704735815 22.772678131762788 26.784755881973116  1.0383466998475577 22.764223173689903 16.515807616490509 27.818477152035701  1.0383466998473097 30.321852479447568 3.9975623733886341 28.853192003485383  1.0383466998479309 30.236635615082221 -12.136434552965488 29.886730166182645  1.0383466998469011 20.755619838764904 -26.686319160266656 30.920938524637499  1.038346699848117 4.1933494694912987 -33.546109385327782 31.955224933438885  1.0383466998470761 -12.798392909267855 -29.962608901378168 32.989292215735297  1.0383466998477053 -24.267866089453303 -18.613826351017494 34.02305681268642  1.0383466998474598 -27.774968769181228 -4.4184312672678985 35.057537731091941  1.0383466998475042 -24.150809950848284 8.054734239413369 36.09144143111471  1.0383466998475106 -16.102761912940398 16.10277186932997 37.125543032551612  1.0383466998475068 -8.0546757231432746 24.150752169185118 38.159759334861221  1.0383466998475515 4.4182882805151715 27.775177951028695 39.193461808322141  1.0383466998473363 18.614107661411357 24.267486062053102 40.228233505375442  1.0383466998478585 29.962237946609555 12.798784740704395 41.261647032519477  1.0383466998470181 33.546591893825664 -4.193653313204706 42.29607052053403  1.0383466998480013 26.685729733011026 -20.755515317924541 43.330053528428138  1.0383466998471347 12.137038682734723 -30.236616198739796 44.364477009977506  1.0383466998477127 -3.9981044579749656 -30.321915855737167 45.397890545383035  1.0383466998474256 -16.515495200139938 -22.76418619544976 46.432662236740924  1.0383466998475261 -22.772802347013549 -11.381635215658408 47.466364712550941  1.0383466998475048 -22.772729714854709 2.5496668101254727e-006 48.500581014345215  1.0383466998475066 
12.500006119406544 6.4863701485506908e-006 1.8077331562137395  1.0367296232096115 12.499966934068784 -6.2476211019853665 2.8417084328779758  1.0367296232095637 9.0654912716558638 -12.49409859682782 3.8761498591823376  1.0367296232097936 2.1948542895117384 -16.647282170230312 4.9096491043700645  1.0367296232092316 -6.6635438941273124 -16.590079683775478 5.9442641622408203  1.0367296232101539 -14.644760187481394 -11.402128040718894 6.9782437019627999  1.0367296232090262 -18.417660954421127 -2.2927328914736842 8.0121492236926457  1.0367296232101084 -16.44302201297268 7.0188802727103132 9.0462625329524844  1.0367296232092773 -10.219248393583259 13.323602668735544 10.080662881076849  1.0367296232097851 -2.4245061906541068 15.244817780266064 11.114383950554149  1.0367296232095458 4.4211047833115309 13.256577009420139 12.148652386765388  1.0367296232096275 8.8388345053482968 8.8388436784605293 13.182733156209704  1.0367296232096113 13.256546631189366 4.42107613618799 14.216708432891254  1.0367296232096774 15.244932195599208 -2.424391489643444 15.251149859158501  1.0367296232093217 13.323402462736173 -10.219409759090023 16.284649104395111  1.036729623210348 7.0191207705294785 -16.442794919061654 17.319264162232358  1.0367296232083092 -2.292887179828893 -18.417931295005992 18.353243701943235  1.0367296232113077 -11.402045979504953 -14.644459929433276 19.387149223733317  1.0367296232079424 -16.590070205706425 -6.6638745314458916 20.421262532909822  1.0367296232108691 -16.647309634644134 2.1951099591976178 21.455662881107344  1.0367296232088941 -12.494098798819444 9.0653292619225301 22.489383950537068  1.0367296232099024 -6.2476223260649304 12.500008671304453 23.523652386774678  1.0367296232095429 -6.4863696150885275e-006 12.5000061194031 24.557733156203888  1.0367296232096124 6.24762110198707 12.499966934074909 25.591708432903843  1.0367296232096748 12.494098596821702 9.0654912716511689 26.626149859144185  1.0367296232093599 16.647282170243177 2.1948542895147551 27.659649104402103  1.036729623210183 16.590079683749234 -6.6635438941386873 28.694264162235857  1.0367296232087104 11.402128040766071 -14.644760187453747 29.72824370193516  1.0367296232106711 2.292732891410953 -18.417660954456125 30.762149223738916  1.0367296232086571 -7.01888027265319 -16.443022012947331 31.796262532907967  1.0367296232102743 -13.32360266877135 -10.219248393592844 32.830662881108282  1.0367296232092598 -15.244817780250273 -2.4245061906544372 33.864383950535263  1.0367296232097472 -13.25657700942563 4.4211047833141439 34.898652386776817  1.0367296232095804 -8.8388436784583568 8.8388345053471262 35.932733156202318  1.0367296232096115 -4.4210749523993877 13.256547018308058 36.966705158622176  1.0367296232097007 2.4243862291898006 15.244930475357078 38.001164409178813  1.0367296232092524 10.219423987651115 13.323407115667063 39.034609749263716  1.0367296232104333 16.442766417395315 7.019111450101164 40.06934299568087  1.0367296232082948 18.417976548686415 -2.2928723812605059 41.103118533727383  1.0367296232111998 14.644401164659001 -11.402065196389875 42.137311762568658  1.0367296232081289 6.663937886613847 -16.590049487700199 43.171087297421423  1.036729623210684 -2.1951669625641039 -16.647328275519072 44.205820547991763  1.0367296232090226 -9.0652865761891608 -12.494084840010702 45.239265885121682  1.0367296232098409 -12.500034973632017 -6.2476309272766191 46.273725136962248  1.0367296232095597 -12.499993097657082 -2.2280860916268352e-006 47.3076971390716  1.0367296232096113 

0 6
6.2831853071795862 6

0 12
12.63393400641052 11
25.26786801282104 11
37.90180201923156 11
50.53573602564208 12

1 21.235130452518067 -4.6097456929204574e-006 -7.1337771331816882 1.3120134315445444e-006 0.99999999999913847 4.0763206827652567e-008 0.99999999999913936 -1.3120134315445454e-006 1.2621774483536189e-029 5.3481874870708499e-014 4.0763206827617482e-008 -0.99999999999999922 
1 -21.235181840072592 1.4286755896638778e-006 38.366249772746166 4.6035636140642844e-007 0.99999999999989331 -4.0769465844414125e-008 0.99999999999989408 -4.6035636140642876e-007 6.310887241768093e-030 -1.8768482952618155e-014 -4.0769465844409804e-008 -0.99999999999999933 
Triangulations 0

TShapes 13
Ve
3.79582980763178e-005
12.499976470281 6.82505815445297e-006 -6.49998222158864
0 0

0101101
*
Ve
3.79582980762068e-005
-12.5000232925596 -2.56677323144684e-006 38.9999817612712
0 0

0101101
*
Ed
 1e-007 1 1 0
1  1 0 0 50.5357360256421
3  1 2G1 1 0 0 50.5357360256421
0

0101000
+13 2 -12 2 *
Ed
 1e-007 1 1 0
1  2 0 0 6.28318530717959
2  3 1 0 0 6.28318530717959
2  4 2 0 0 6.28318530717959
0

0101100
+13 2 -13 2 *
Ed
 1e-007 1 1 0
1  3 0 0 6.28318530717959
2  5 1 0 0 6.28318530717959
2  6 3 0 0 6.28318530717959
0

0101100
+12 2 -12 2 *
Wi

0101100
+11 0 +10 0 -11 0 -9 0 *
Fa
0  1e-007 1 0

0101000
+8 0 *
Wi

0101100
+10 0 *
Fa
0  1e-007 2 0

0101000
-6 0 *
Wi

0101100
+9 0 *
Fa
0  1e-007 3 0

0101000
+4 0 *
Sh

0101100
+7 0 +5 0 +3 0 *
So

1100100
+2 0 *

+1 1 