DBRep_DrawableShape

CASCADE Topology V1, (c) Matra-Datavision
Locations 2
1
              1               0               0               0 
              0               1               0               0 
              0               0               1              10 
2  1 -1 0
Curve2ds 75
1 3.1415926535897931 0 0 -1 
1 3.1415926535897931 0 0 -1 
1 50 50 -1 0 
1 4.7123889803846897 0 0 -1 
2 50 50 1 0 -0 1 10
1 0 0 1 0 
1 0 -10 1 0 
1 4.7123889803846897 0 0 -1 
1 50 50 0 -1 
2 50 50 1 0 -0 1 15
1 0 0 1 0 
1 0 -10 1 0 
1 1.5707963267948966 0 0 -1 
1 1.5707963267948966 0 0 -1 
1 50 -50 0 1 
1 3.1415926535897931 0 0 -1 
2 50 -50 1 0 -0 1 10
1 0 0 1 0 
1 0 -10 1 0 
1 3.1415926535897931 0 0 -1 
1 50 -50 -1 0 
2 50 -50 1 0 -0 1 15
1 0 0 1 0 
1 0 -10 1 0 
1 4.7123889803846897 0 0 -1 
1 6.2831853071795862 0 0 -1 
2 -50 50 1 0 -0 1 15
1 0 0 1 0 
1 0 -10 1 0 
1 1.5707963267948966 0 0 -1 
1 -50 35 0 -1 
1 -35 50 1 0 
1 0 0 0 -1 
2 -50 -50 1 0 -0 1 15
1 0 0 1 0 
1 0 -10 1 0 
1 -35 -50 1 0 
1 50 35 0 -1 
1 0 0 0 -1 
1 6.2831853071795862 0 0 -1 
2 0 0 1 0 -0 1 20
1 0 0 1 0 
1 0 -10 1 0 
1 4.7123889803846897 0 0 -1 
1 -50 50 0 -1 
1 6.2831853071795862 0 0 -1 
2 -50 50 1 0 -0 1 10
1 0 0 1 0 
1 0 -10 1 0 
1 -50 50 1 -4.7369515717340012e-016 
1 0 0 0 -1 
1 1.5707963267948966 0 0 -1 
2 -50 -50 1 0 -0 1 10
1 0 0 1 0 
1 0 -10 1 0 
1 -50 -50 1 0 
1 -50 -50 0 1 
1 -50 -50 1 0 
1 -50 -50 0 1 
1 50 50 -1 0 
1 50 50 0 -1 
1 0 0 0 -1 
1 6.2831853071795862 0 0 -1 
2 0 0 1 0 -0 1 15
1 0 0 1 0 
1 0 -10 1 0 
1 0 0 0 -1 
1 6.2831853071795862 0 0 -1 
2 0 0 1 0 -0 1 10
1 0 0 1 0 
1 0 -10 1 0 
1 50 -50 0 1 
1 50 -50 -1 0 
1 -50 50 0 -1 
1 -50 50 1 0 
Curves 54
1 40 50 0 0 0 1 
1 35 50 0 0 0 1 
1 50 50 0 -1 0 0 
1 50 40 0 0 0 1 
2 50 50 0 0 0 1 1 0 -0 -0 1 0 10
1 50 35 0 0 0 1 
1 50 50 0 0 -1 0 
2 50 50 0 0 0 1 1 0 -0 -0 1 0 15
1 50 -40 0 0 0 1 
1 50 -35 0 0 0 1 
1 50 -50 0 0 1 0 
1 40 -50 0 0 0 1 
2 50 -50 0 0 0 1 1 0 -0 -0 1 0 10
1 35 -50 0 0 0 1 
1 50 -50 0 -1 0 0 
2 50 -50 0 0 0 1 1 0 -0 -0 1 0 15
1 -50 35 0 0 0 1 
1 -35 50 0 0 0 1 
2 -50 50 0 0 0 1 1 0 -0 -0 1 0 15
1 -50 -35 0 0 0 1 
1 -50 35 0 0 -1 0 
1 -35 50 0 1 0 0 
1 -35 -50 0 0 0 1 
2 -50 -50 0 0 0 1 1 0 -0 -0 1 0 15
1 -35 -50 0 1 0 0 
1 50 35 0 0 -1 0 
1 20 0 0 0 0 1 
2 0 0 0 0 0 1 1 0 -0 -0 1 0 20
1 -50 40 0 0 0 1 
1 -50 50 0 0 -1 0 
1 -40 50 0 0 0 1 
2 -50 50 0 0 0 1 1 0 -0 -0 1 0 10
1 -50 50 0 1 -4.7369515717340012e-016 0 
1 -40 -50 0 0 0 1 
1 -50 -40 0 0 0 1 
2 -50 -50 0 0 0 1 1 0 -0 -0 1 0 10
1 -50 -50 0 0 0 1 
1 -50 -50 0 1 0 0 
1 -50 -50 0 0 1 0 
1 -50 -50 0 1 0 0 
1 -50 -50 0 0 1 0 
1 50 50 0 0 0 1 
1 50 50 0 -1 0 0 
1 50 50 0 0 -1 0 
1 15 0 0 0 0 1 
2 0 0 0 0 0 1 1 0 -0 -0 1 0 15
1 10 0 0 0 0 1 
2 0 0 0 0 0 1 1 0 -0 -0 1 0 10
1 50 -50 0 0 0 1 
1 50 -50 0 0 1 0 
1 50 -50 0 -1 0 0 
1 -50 50 0 0 0 1 
1 -50 50 0 0 -1 0 
1 -50 50 0 1 0 0 
Polygon3D 0
PolygonOnTriangulations 166
2 1 2 
p 1.41774469083823 1 0 10 
2 3 4 
p 1.41774469083823 1 0 10 
2 1 2 
p 1.41774469083823 1 0 10 
2 1 2 
p 1.41774469083823 1 0 10 
2 3 4 
p 1.41774469083823 1 0 10 
2 3 4 
p 1.41774469083823 1 0 10 
2 1 3 
p 1.41774469083823 1 10 15 
2 2 4 
p 1.41774469083823 1 10 15 
2 1 2 
p 1.41774469083823 1 10 15 
2 3 4 
p 1.41774469083823 1 0 10 
2 3 4 
p 1.41774469083823 1 0 10 
2 1 2 
p 1.41774469083823 1 0 10 
5 2 8 9 10 4 
p 1.41774469083823 1 3.14159265358979 3.53429173528852 3.92699081698724 4.31968989868597 4.71238898038469 
5 1 5 6 7 3 
p 1.41774469083823 1 3.14159265358979 3.53429173528852 3.92699081698724 4.31968989868597 4.71238898038469 
5 1 3 4 5 2 
p 1.41774469083823 1 3.14159265358979 3.53429173528852 3.92699081698724 4.31968989868597 4.71238898038469 
5 1 4 5 6 3 
p 1.41774469083823 1 3.14159265358979 3.53429173528852 3.92699081698724 4.31968989868597 4.71238898038469 
2 3 4 
p 1.41774469083823 1 0 10 
2 1 2 
p 1.41774469083823 1 0 10 
2 3 4 
p 1.41774469083823 1 0 10 
2 2 4 
p 1.41774469083823 1 10 15 
2 1 3 
p 1.41774469083823 1 10 15 
2 3 7 
p 1.41774469083823 1 10 15 
5 1 5 6 7 3 
p 1.41774469083823 1 3.14159265358979 3.53429173528852 3.92699081698724 4.31968989868597 4.71238898038469 
5 2 8 9 10 4 
p 1.41774469083823 1 3.14159265358979 3.53429173528852 3.92699081698724 4.31968989868597 4.71238898038469 
5 7 13 14 15 12 
p 1.41774469083823 1 3.14159265358979 3.53429173528852 3.92699081698724 4.31968989868597 4.71238898038469 
5 2 8 9 10 7 
p 1.41774469083823 1 3.14159265358979 3.53429173528852 3.92699081698724 4.31968989868597 4.71238898038469 
2 1 2 
p 1.41774469083823 1 0 10 
2 3 4 
p 1.41774469083823 1 0 10 
2 1 2 
p 1.41774469083823 1 0 10 
2 1 2 
p 1.41774469083823 1 0 10 
2 3 4 
p 1.41774469083823 1 0 10 
2 3 4 
p 1.41774469083823 1 0 10 
2 2 4 
p 1.41774469083823 1 10 15 
2 1 3 
p 1.41774469083823 1 10 15 
2 1 2 
p 1.41774469083823 1 10 15 
2 3 4 
p 1.41774469083823 1 0 10 
2 3 4 
p 1.41774469083823 1 0 10 
2 1 2 
p 1.41774469083823 1 0 10 
5 1 5 6 7 3 
p 1.41774469083823 1 1.5707963267949 1.96349540849362 2.35619449019234 2.74889357189107 3.14159265358979 
5 2 8 9 10 4 
p 1.41774469083823 1 1.5707963267949 1.96349540849362 2.35619449019234 2.74889357189107 3.14159265358979 
5 1 3 4 5 2 
p 1.41774469083823 1 1.5707963267949 1.96349540849362 2.35619449019234 2.74889357189107 3.14159265358979 
5 1 4 5 6 3 
p 1.41774469083823 1 1.5707963267949 1.96349540849362 2.35619449019234 2.74889357189107 3.14159265358979 
2 3 4 
p 1.41774469083823 1 0 10 
2 3 4 
p 1.41774469083823 1 0 10 
2 3 4 
p 1.41774469083823 1 0 10 
2 2 4 
p 1.41774469083823 1 10 15 
2 1 3 
p 1.41774469083823 1 10 15 
2 3 7 
p 1.41774469083823 1 10 15 
5 1 5 6 7 3 
p 1.41774469083823 1 1.5707963267949 1.96349540849362 2.35619449019234 2.74889357189107 3.14159265358979 
5 2 8 9 10 4 
p 1.41774469083823 1 1.5707963267949 1.96349540849362 2.35619449019234 2.74889357189107 3.14159265358979 
5 17 18 19 20 16 
p 1.41774469083823 1 1.5707963267949 1.96349540849362 2.35619449019234 2.74889357189107 3.14159265358979 
5 2 8 9 10 7 
p 1.41774469083823 1 1.5707963267949 1.96349540849362 2.35619449019234 2.74889357189107 3.14159265358979 
2 1 2 
p 1.41774469083823 1 0 10 
2 3 4 
p 1.41774469083823 1 0 10 
2 1 2 
p 1.41774469083823 1 0 10 
2 3 4 
p 1.41774469083823 1 0 10 
2 3 4 
p 1.41774469083823 1 0 10 
2 1 2 
p 1.41774469083823 1 0 10 
5 1 5 6 7 3 
p 1.41774469083823 1 4.71238898038469 5.10508806208341 5.49778714378214 5.89048622548086 6.28318530717959 
5 2 8 9 10 4 
p 1.41774469083823 1 4.71238898038469 5.10508806208341 5.49778714378214 5.89048622548086 6.28318530717959 
5 2 8 9 10 7 
p 1.41774469083823 1 4.71238898038469 5.10508806208341 5.49778714378214 5.89048622548086 6.28318530717959 
5 1 3 4 5 2 
p 1.41774469083823 1 4.71238898038469 5.10508806208341 5.49778714378214 5.89048622548086 6.28318530717959 
2 3 4 
p 1.41774469083823 1 0 10 
2 3 4 
p 1.41774469083823 1 0 10 
2 3 4 
p 1.41774469083823 1 0 10 
2 2 4 
p 1.41774469083823 1 0 70 
2 1 3 
p 1.41774469083823 1 0 70 
2 1 6 
p 1.41774469083823 1 0 70 
2 1 3 
p 1.41774469083823 1 0 70 
2 2 4 
p 1.41774469083823 1 0 70 
2 2 7 
p 1.41774469083823 1 0 70 
2 1 2 
p 1.41774469083823 1 0 10 
2 1 2 
p 1.41774469083823 1 0 10 
2 3 4 
p 1.41774469083823 1 0 10 
5 2 8 9 10 4 
p 1.41774469083823 1 0 0.392699081698724 0.785398163397448 1.17809724509617 1.5707963267949 
5 1 5 6 7 3 
p 1.41774469083823 1 0 0.392699081698724 0.785398163397448 1.17809724509617 1.5707963267949 
5 8 9 10 11 6 
p 1.41774469083823 1 0 0.392699081698724 0.785398163397448 1.17809724509617 1.5707963267949 
5 2 8 9 10 7 
p 1.41774469083823 1 0 0.392699081698724 0.785398163397448 1.17809724509617 1.5707963267949 
2 1 3 
p 1.41774469083823 1 0 70 
2 2 4 
p 1.41774469083823 1 0 70 
2 8 16 
p 1.41774469083823 1 0 70 
2 1 3 
p 1.41774469083823 1 0 70 
2 2 4 
p 1.41774469083823 1 0 70 
2 12 17 
p 1.41774469083823 1 0 70 
2 1 2 
p 1.41774469083823 1 0 10 
2 3 4 
p 1.41774469083823 1 0 10 
14 2 17 18 19 20 21 22 23 24 25 26 27 28 4 
p 1.41774469083823 1 0 0.483321946706122 0.966643893412244 1.44996584011837 1.93328778682449 2.41660973353061 2.89993168023673 3.38325362694285 3.86657557364898 4.3498975203551 4.83321946706122 5.31654141376734 5.79986336047346 6.28318530717959 
14 1 5 6 7 8 9 10 11 12 13 14 15 16 3 
p 1.41774469083823 1 0 0.483321946706122 0.966643893412244 1.44996584011837 1.93328778682449 2.41660973353061 2.89993168023673 3.38325362694285 3.86657557364898 4.3498975203551 4.83321946706122 5.31654141376734 5.79986336047346 6.28318530717959 
14 21 22 23 24 25 26 27 28 29 30 31 32 33 21 
p 1.41774469083823 1 0 0.483321946706122 0.966643893412244 1.44996584011837 1.93328778682449 2.41660973353061 2.89993168023673 3.38325362694285 3.86657557364898 4.3498975203551 4.83321946706122 5.31654141376734 5.79986336047346 6.28318530717959 
14 1 2 3 4 5 6 7 8 9 10 11 12 13 1 
p 1.41774469083823 1 0 0.483321946706122 0.966643893412244 1.44996584011837 1.93328778682449 2.41660973353061 2.89993168023673 3.38325362694285 3.86657557364898 4.3498975203551 4.83321946706122 5.31654141376734 5.79986336047346 6.28318530717959 
2 1 2 
p 1.41774469083823 1 0 10 
2 3 4 
p 1.41774469083823 1 0 10 
2 1 2 
p 1.41774469083823 1 0 10 
2 2 4 
p 1.41774469083823 1 10 15 
2 1 3 
p 1.41774469083823 1 10 15 
2 1 2 
p 1.41774469083823 1 10 15 
2 3 4 
p 1.41774469083823 1 0 10 
2 3 4 
p 1.41774469083823 1 0 10 
2 1 2 
p 1.41774469083823 1 0 10 
5 2 8 9 10 4 
p 1.41774469083823 1 4.71238898038469 5.10508806208341 5.49778714378214 5.89048622548086 6.28318530717959 
5 1 5 6 7 3 
p 1.41774469083823 1 4.71238898038469 5.10508806208341 5.49778714378214 5.89048622548086 6.28318530717959 
5 1 3 4 5 2 
p 1.41774469083823 1 4.71238898038469 5.10508806208341 5.49778714378214 5.89048622548086 6.28318530717959 
5 1 4 5 6 3 
p 1.41774469083823 1 4.71238898038469 5.10508806208341 5.49778714378214 5.89048622548086 6.28318530717959 
2 2 4 
p 1.41774469083823 1 10 15 
2 1 3 
p 1.41774469083823 1 10 15 
2 3 7 
p 1.41774469083823 1 10 15 
2 1 2 
p 1.41774469083823 1 0 10 
2 3 4 
p 1.41774469083823 1 0 10 
2 1 2 
p 1.41774469083823 1 0 10 
2 3 4 
p 1.41774469083823 1 0 10 
2 3 4 
p 1.41774469083823 1 0 10 
2 1 2 
p 1.41774469083823 1 0 10 
5 2 8 9 10 4 
p 1.41774469083823 1 0 0.392699081698724 0.785398163397448 1.17809724509617 1.5707963267949 
5 1 5 6 7 3 
p 1.41774469083823 1 0 0.392699081698724 0.785398163397448 1.17809724509617 1.5707963267949 
5 1 3 4 5 2 
p 1.41774469083823 1 0 0.392699081698724 0.785398163397448 1.17809724509617 1.5707963267949 
5 1 4 5 6 3 
p 1.41774469083823 1 0 0.392699081698724 0.785398163397448 1.17809724509617 1.5707963267949 
2 1 2 
p 1.41774469083823 1 0 10 
2 1 2 
p 1.41774469083823 1 0 10 
2 2 4 
p 1.41774469083823 1 0 10 
2 1 3 
p 1.41774469083823 1 0 10 
2 6 1 
p 1.41774469083823 1 0 10 
2 2 4 
p 1.41774469083823 1 0 10 
2 1 3 
p 1.41774469083823 1 0 10 
2 6 2 
p 1.41774469083823 1 0 10 
2 1 3 
p 1.41774469083823 1 10 15 
2 2 4 
p 1.41774469083823 1 10 15 
2 1 2 
p 1.41774469083823 1 10 15 
2 1 3 
p 1.41774469083823 1 10 15 
2 2 4 
p 1.41774469083823 1 10 15 
2 3 7 
p 1.41774469083823 1 10 15 
2 1 2 
p 1.41774469083823 1 0 10 
2 1 2 
p 1.41774469083823 1 0 10 
2 1 3 
p 1.41774469083823 1 0 10 
2 2 4 
p 1.41774469083823 1 0 10 
2 6 1 
p 1.41774469083823 1 0 10 
2 2 4 
p 1.41774469083823 1 0 10 
2 1 3 
p 1.41774469083823 1 0 10 
2 6 2 
p 1.41774469083823 1 0 10 
2 1 2 
p 1.41774469083823 1 0 10 
2 3 4 
p 1.41774469083823 1 0 10 
14 2 17 18 19 20 21 22 23 24 25 26 27 28 4 
p 1.41774469083823 1 0 0.483321946706122 0.966643893412244 1.44996584011837 1.93328778682449 2.41660973353061 2.89993168023673 3.38325362694285 3.86657557364898 4.3498975203551 4.83321946706122 5.31654141376734 5.79986336047346 6.28318530717959 
14 1 5 6 7 8 9 10 11 12 13 14 15 16 3 
p 1.41774469083823 1 0 0.483321946706122 0.966643893412244 1.44996584011837 1.93328778682449 2.41660973353061 2.89993168023673 3.38325362694285 3.86657557364898 4.3498975203551 4.83321946706122 5.31654141376734 5.79986336047346 6.28318530717959 
14 1 2 3 4 5 6 7 8 9 10 11 12 13 1 
p 1.41774469083823 1 0 0.483321946706122 0.966643893412244 1.44996584011837 1.93328778682449 2.41660973353061 2.89993168023673 3.38325362694285 3.86657557364898 4.3498975203551 4.83321946706122 5.31654141376734 5.79986336047346 6.28318530717959 
14 14 15 16 17 18 19 20 21 22 23 24 25 26 14 
p 1.41774469083823 1 0 0.483321946706122 0.966643893412244 1.44996584011837 1.93328778682449 2.41660973353061 2.89993168023673 3.38325362694285 3.86657557364898 4.3498975203551 4.83321946706122 5.31654141376734 5.79986336047346 6.28318530717959 
2 1 2 
p 1.41774469083823 1 0 10 
2 3 4 
p 1.41774469083823 1 0 10 
14 1 5 6 7 8 9 10 11 12 13 14 15 16 3 
p 1.41774469083823 1 0 0.483321946706122 0.966643893412244 1.44996584011837 1.93328778682449 2.41660973353061 2.89993168023673 3.38325362694285 3.86657557364898 4.3498975203551 4.83321946706122 5.31654141376734 5.79986336047346 6.28318530717959 
14 2 17 18 19 20 21 22 23 24 25 26 27 28 4 
p 1.41774469083823 1 0 0.483321946706122 0.966643893412244 1.44996584011837 1.93328778682449 2.41660973353061 2.89993168023673 3.38325362694285 3.86657557364898 4.3498975203551 4.83321946706122 5.31654141376734 5.79986336047346 6.28318530717959 
14 1 2 3 4 5 6 7 8 9 10 11 12 13 1 
p 1.41774469083823 1 0 0.483321946706122 0.966643893412244 1.44996584011837 1.93328778682449 2.41660973353061 2.89993168023673 3.38325362694285 3.86657557364898 4.3498975203551 4.83321946706122 5.31654141376734 5.79986336047346 6.28318530717959 
14 14 15 16 17 18 19 20 21 22 23 24 25 26 14 
p 1.41774469083823 1 0 0.483321946706122 0.966643893412244 1.44996584011837 1.93328778682449 2.41660973353061 2.89993168023673 3.38325362694285 3.86657557364898 4.3498975203551 4.83321946706122 5.31654141376734 5.79986336047346 6.28318530717959 
2 1 2 
p 1.41774469083823 1 0 10 
2 1 2 
p 1.41774469083823 1 0 10 
2 2 4 
p 1.41774469083823 1 0 10 
2 1 3 
p 1.41774469083823 1 0 10 
2 6 1 
p 1.41774469083823 1 0 10 
2 1 3 
p 1.41774469083823 1 0 10 
2 2 4 
p 1.41774469083823 1 0 10 
2 6 2 
p 1.41774469083823 1 0 10 
2 1 2 
p 1.41774469083823 1 0 10 
2 1 2 
p 1.41774469083823 1 0 10 
2 1 3 
p 1.41774469083823 1 0 10 
2 2 4 
p 1.41774469083823 1 0 10 
2 6 1 
p 1.41774469083823 1 0 10 
2 2 4 
p 1.41774469083823 1 0 10 
2 1 3 
p 1.41774469083823 1 0 10 
2 6 2 
p 1.41774469083823 1 0 10 
Surfaces 32
1 40 50 0 0 -1 0 -1 0 0 -0 -0 -1 
2 50 50 0 -0 -0 -1 1 0 -0 -0 1 0 10
2 50 50 0 -0 -0 -1 1 0 -0 -0 1 0 15
1 0 0 0 0 0 1 1 0 -0 -0 1 0 
1 50 40 0 1 0 -0 0 -1 0 0 -0 -1 
1 50 -40 0 -1 0 0 0 1 0 0 0 -1 
2 50 -50 0 -0 -0 -1 1 0 -0 -0 1 0 10
2 50 -50 0 -0 -0 -1 1 0 -0 -0 1 0 15
1 40 -50 0 0 -1 0 -1 0 0 -0 -0 -1 
2 -50 50 0 -0 -0 -1 1 0 -0 -0 1 0 15
1 -50 35 0 1 0 -0 0 -1 0 0 -0 -1 
2 -50 -50 0 -0 -0 -1 1 0 -0 -0 1 0 15
1 -35 50 0 0 1 0 1 0 0 0 0 -1 
1 -35 -50 0 0 1 0 1 0 0 0 0 -1 
1 50 35 0 1 0 -0 0 -1 0 0 -0 -1 
2 0 0 0 -0 -0 -1 1 0 -0 -0 1 0 20
1 -50 40 0 1 0 -0 0 -1 0 0 -0 -1 
2 -50 50 0 -0 -0 -1 1 0 -0 -0 1 0 10
1 -40 49.999999999999993 0 4.7369515717340012e-016 1 -0 1 -4.7369515717340012e-016 0 0 -0 -1 
2 -50 -50 0 -0 -0 -1 1 0 -0 -0 1 0 10
1 -50 -50 0 0 1 0 1 0 0 0 0 -1 
1 -50 -50 0 -1 0 0 0 1 0 0 0 -1 
1 -40 -50 0 0 1 0 1 0 0 0 0 -1 
1 -50 -40 0 -1 0 0 0 1 0 0 0 -1 
1 50 50 0 0 -1 0 -1 0 0 -0 -0 -1 
1 50 50 0 1 0 -0 0 -1 0 0 -0 -1 
2 0 0 0 -0 -0 -1 1 0 -0 -0 1 0 15
2 0 0 0 -0 -0 -1 1 0 -0 -0 1 0 10
1 50 -50 0 -1 0 0 0 1 0 0 0 -1 
1 50 -50 0 0 -1 0 -1 0 0 -0 -0 -1 
1 -50 50 0 1 0 -0 0 -1 0 0 -0 -1 
1 -50 50 0 0 1 0 1 0 0 0 0 -1 
Triangulations 43
4 2 1 0
40 50 0 40 50 10 35 50 0 35 50 10 0 0 0 -10 5 0 5 -10 3 1 2 3 2 4 
10 8 1 0.1921471959677
40 50 0 40 50 10 50 40 0 50 40 10 40.7612046748871 46.1731656763491 0 42.9289321881345 42.9289321881345 0 46.1731656763491 40.7612046748871 0 40.7612046748871 46.1731656763491 10 42.9289321881345 42.9289321881345 10 46.1731656763491 40.7612046748871 10 3.14159265358979 0 3.14159265358979 -10 4.71238898038469 0 4.71238898038469 -10 3.53429173528852 0 3.92699081698724 0 4.31968989868597 0 3.53429173528852 -10 3.92699081698724 -10 4.31968989868597 -10 1 2 8 5 1 8 6 8 9 6 5 8 7 9 10 7 6 9 3 10 4 3 7 10 
4 2 1 0
50 50 0 50 50 10 40 50 0 40 50 10 0 0 0 -10 10 0 10 -10 3 1 2 3 2 4 
10 8 1 0.288220793951543
35 50 0 35 50 10 50 35 0 50 35 10 36.1418070123307 44.2597485145237 0 39.3933982822018 39.3933982822018 0 44.2597485145236 36.1418070123307 0 36.1418070123307 44.2597485145237 10 39.3933982822018 39.3933982822018 10 44.2597485145236 36.1418070123307 10 3.14159265358979 0 3.14159265358979 -10 4.71238898038469 0 4.71238898038469 -10 3.53429173528852 0 3.92699081698724 0 4.31968989868597 0 3.53429173528852 -10 3.92699081698724 -10 4.31968989868597 -10 5 1 2 5 2 8 6 8 9 6 5 8 7 9 10 7 6 9 3 10 4 3 7 10 
4 2 1 0
-35 50 0 -35 50 10 35 50 0 35 50 10 0 0 0 -10 70 0 70 -10 3 1 2 3 2 4 
10 8 1 3.5527136788005e-015
40 50 0 35 50 0 50 40 0 40.7612046748871 46.1731656763491 0 42.9289321881345 42.9289321881345 0 46.1731656763491 40.7612046748871 0 50 35 0 36.1418070123307 44.2597485145237 0 39.3933982822018 39.3933982822018 0 44.2597485145236 36.1418070123307 0 40 50 35 50 50 40 40.7612046748871 46.1731656763491 42.9289321881345 42.9289321881345 46.1731656763491 40.7612046748871 50 35 36.1418070123307 44.2597485145237 39.3933982822018 39.3933982822018 44.2597485145236 36.1418070123307 5 9 10 4 8 9 4 9 5 6 5 10 1 2 8 1 8 4 3 10 7 3 6 10 
4 2 1 0
50 50 0 50 50 10 50 40 0 50 40 10 0 0 0 -10 10 0 10 -10 3 1 2 3 2 4 
4 2 1 0
50 40 0 50 40 10 50 35 0 50 35 10 0 0 0 -10 5 0 5 -10 3 1 2 3 2 4 
6 4 1 1.55431223447522e-015
40 50 0 50 40 0 40.7612046748871 46.1731656763491 0 42.9289321881345 42.9289321881345 0 46.1731656763491 40.7612046748871 0 50 50 0 40 50 50 40 40.7612046748871 46.1731656763491 42.9289321881345 42.9289321881345 46.1731656763491 40.7612046748871 50 50 6 1 3 6 3 4 6 4 5 6 5 2 
4 2 1 0
50 35 0 50 35 10 50 -35 0 50 -35 10 0 0 0 -10 70 0 70 -10 3 1 2 3 2 4 
33 33 1 3.5527136788005e-015
-50 35 0 -35 50 0 -44.2597485145237 36.1418070123307 0 -39.3933982822018 39.3933982822018 0 -36.1418070123307 44.2597485145237 0 -50 -35 0 35 50 0 -35 -50 0 -36.1418070123307 -44.2597485145237 0 -39.3933982822018 -39.3933982822018 0 -44.2597485145237 -36.1418070123307 0 50 35 0 36.1418070123307 44.2597485145237 0 39.3933982822018 39.3933982822018 0 44.2597485145236 36.1418070123307 0 35 -50 0 50 -35 0 44.2597485145237 -36.1418070123307 0 39.3933982822018 -39.3933982822018 0 36.1418070123307 -44.2597485145237 0 20 0 0 17.7091205130642 9.29446344087537 0 11.3612949346231 16.4596773178731 0 2.41073360510646 19.8541774819611 0 -7.09209774085071 18.7003248537083 0 -14.970214963422 13.2624531648159 0 -19.418836348521 4.78631328575116 0 -19.418836348521 -4.78631328575115 0 -14.970214963422 -13.2624531648159 0 -7.09209774085072 -18.7003248537083 0 2.41073360510645 -19.8541774819611 0 11.3612949346231 -16.4596773178731 0 17.7091205130642 -9.2944634408754 0 -50 35 -35 50 -44.2597485145237 36.1418070123307 -39.3933982822018 39.3933982822018 -36.1418070123307 44.2597485145237 -50 -35 35 50 -35 -50 -36.1418070123307 -44.2597485145237 -39.3933982822018 -39.3933982822018 -44.2597485145237 -36.1418070123307 50 35 36.1418070123307 44.2597485145237 39.3933982822018 39.3933982822018 44.2597485145236 36.1418070123307 35 -50 50 -35 44.2597485145237 -36.1418070123307 39.3933982822018 -39.3933982822018 36.1418070123307 -44.2597485145237 20 0 17.7091205130642 9.29446344087537 11.3612949346231 16.4596773178731 2.41073360510646 19.8541774819611 -7.09209774085071 18.7003248537083 -14.970214963422 13.2624531648159 -19.418836348521 4.78631328575116 -19.418836348521 -4.78631328575115 -14.970214963422 -13.2624531648159 -7.09209774085072 -18.7003248537083 2.41073360510644 -19.8541774819611 11.3612949346231 -16.4596773178731 17.7091205130642 -9.2944634408754 29 10 9 29 11 10 30 9 8 30 29 9 28 6 11 28 11 29 31 30 8 1 6 28 16 31 8 27 1 28 20 31 16 3 1 27 32 31 20 26 3 27 4 3 26 19 32 20 5 4 26 33 19 18 33 32 19 25 5 26 17 33 18 2 5 25 21 33 17 24 2 25 14 23 22 15 14 22 13 24 23 13 23 14 12 22 21 12 21 17 12 15 22 7 2 24 7 24 13 
4 2 1 0
50 -40 0 50 -40 10 50 -35 0 50 -35 10 0 0 0 -10 5 0 5 -10 3 1 2 3 2 4 
10 8 1 0.192147195967699
50 -40 0 50 -40 10 40 -50 0 40 -50 10 46.1731656763491 -40.7612046748871 0 42.9289321881345 -42.9289321881345 0 40.7612046748871 -46.1731656763491 0 46.1731656763491 -40.7612046748871 10 42.9289321881345 -42.9289321881345 10 40.7612046748871 -46.1731656763491 10 1.5707963267949 0 1.5707963267949 -10 3.14159265358979 0 3.14159265358979 -10 1.96349540849362 0 2.35619449019234 0 2.74889357189107 0 1.96349540849362 -10 2.35619449019234 -10 2.74889357189107 -10 1 2 8 5 1 8 6 8 9 6 5 8 7 9 10 7 6 9 3 10 4 3 7 10 
4 2 1 0
50 -50 0 50 -50 10 50 -40 0 50 -40 10 0 0 0 -10 10 0 10 -10 3 1 2 3 2 4 
10 8 1 0.288220793951543
50 -35 0 50 -35 10 35 -50 0 35 -50 10 44.2597485145237 -36.1418070123307 0 39.3933982822018 -39.3933982822018 0 36.1418070123307 -44.2597485145237 0 44.2597485145237 -36.1418070123307 10 39.3933982822018 -39.3933982822018 10 36.1418070123307 -44.2597485145237 10 1.5707963267949 0 1.5707963267949 -10 3.14159265358979 0 3.14159265358979 -10 1.96349540849362 0 2.35619449019234 0 2.74889357189107 0 1.96349540849362 -10 2.35619449019234 -10 2.74889357189107 -10 5 1 2 5 2 8 6 8 9 6 5 8 7 9 10 7 6 9 3 10 4 3 7 10 
10 8 1 2.22044604925031e-015
50 -40 0 50 -35 0 40 -50 0 46.1731656763491 -40.7612046748871 0 42.9289321881345 -42.9289321881345 0 40.7612046748871 -46.1731656763491 0 35 -50 0 44.2597485145237 -36.1418070123307 0 39.3933982822018 -39.3933982822018 0 36.1418070123307 -44.2597485145237 0 50 -40 50 -35 40 -50 46.1731656763491 -40.7612046748871 42.9289321881345 -42.9289321881345 40.7612046748871 -46.1731656763491 35 -50 44.2597485145237 -36.1418070123307 39.3933982822018 -39.3933982822018 36.1418070123307 -44.2597485145237 6 7 3 6 10 7 5 9 10 5 10 6 8 5 4 8 9 5 2 4 1 2 8 4 
4 2 1 0
50 -50 0 50 -50 10 40 -50 0 40 -50 10 0 0 0 -10 10 0 10 -10 3 1 2 3 2 4 
4 2 1 0
40 -50 0 40 -50 10 35 -50 0 35 -50 10 0 0 0 -10 5 0 5 -10 3 1 2 3 2 4 
6 4 1 1.55431223447522e-015
50 -40 0 40 -50 0 46.1731656763491 -40.7612046748871 0 42.9289321881345 -42.9289321881345 0 40.7612046748871 -46.1731656763491 0 50 -50 0 50 -40 40 -50 46.1731656763491 -40.7612046748871 42.9289321881345 -42.9289321881345 40.7612046748871 -46.1731656763491 50 -50 6 4 5 6 5 2 3 4 6 1 3 6 
4 2 1 0
-35 -50 0 -35 -50 10 35 -50 0 35 -50 10 0 0 0 -10 70 0 70 -10 3 1 2 3 2 4 
10 8 1 0.288220793951547
-50 35 0 -50 35 10 -35 50 0 -35 50 10 -44.2597485145237 36.1418070123307 0 -39.3933982822018 39.3933982822018 0 -36.1418070123307 44.2597485145237 0 -44.2597485145237 36.1418070123307 10 -39.3933982822018 39.3933982822018 10 -36.1418070123307 44.2597485145237 10 4.71238898038469 0 4.71238898038469 -10 6.28318530717959 0 6.28318530717959 -10 5.10508806208341 0 5.49778714378214 0 5.89048622548086 0 5.10508806208341 -10 5.49778714378214 -10 5.89048622548086 -10 5 1 2 5 2 8 6 8 9 6 5 8 7 9 10 7 6 9 3 10 4 3 7 10 
4 2 1 0
-50 40 0 -50 40 10 -50 35 0 -50 35 10 0 0 0 -10 5 0 5 -10 3 1 2 3 2 4 
4 2 1 0
-50 35 0 -50 35 10 -50 -35 0 -50 -35 10 0 0 0 -10 70 0 70 -10 3 1 2 3 2 4 
4 2 1 7.105427357601e-015
-40 50 0 -40 50 10 -35 50 0 -35 50 10 0 0 0 -10 5 0 5 -10 3 1 2 3 2 4 
10 8 1 5.77315972805081e-015
-50 40 0 -50 35 0 -40 50 0 -46.1731656763491 40.7612046748871 0 -42.9289321881345 42.9289321881345 0 -40.7612046748871 46.1731656763491 0 -35 50 0 -44.2597485145237 36.1418070123307 0 -39.3933982822018 39.3933982822018 0 -36.1418070123307 44.2597485145237 0 -50 40 -50 35 -40 50 -46.1731656763491 40.7612046748871 -42.9289321881345 42.9289321881345 -40.7612046748871 46.1731656763491 -35 50 -44.2597485145237 36.1418070123307 -39.3933982822018 39.3933982822018 -36.1418070123307 44.2597485145237 4 1 2 4 2 8 9 4 8 5 4 9 10 6 5 10 5 9 7 3 6 7 6 10 
10 8 1 0.288220793951543
-35 -50 0 -35 -50 10 -50 -35 0 -50 -35 10 -36.1418070123307 -44.2597485145237 0 -39.3933982822018 -39.3933982822018 0 -44.2597485145237 -36.1418070123307 0 -36.1418070123307 -44.2597485145237 10 -39.3933982822018 -39.3933982822018 10 -44.2597485145237 -36.1418070123307 10 0 0 0 -10 1.5707963267949 0 1.5707963267949 -10 0.392699081698724 0 0.785398163397448 0 1.17809724509617 0 0.392699081698724 -10 0.785398163397448 -10 1.17809724509617 -10 5 1 2 5 2 8 6 8 9 6 5 8 7 9 10 7 6 9 3 10 4 3 7 10 
4 2 1 0
-50 -40 0 -50 -40 10 -50 -35 0 -50 -35 10 0 0 0 -10 5 0 5 -10 3 1 2 3 2 4 
4 2 1 0
-40 -50 0 -40 -50 10 -35 -50 0 -35 -50 10 0 0 0 -10 5 0 5 -10 3 1 2 3 2 4 
10 8 1 1.33226762955019e-015
-40 -50 0 -35 -50 0 -50 -40 0 -40.7612046748871 -46.1731656763491 0 -42.9289321881345 -42.9289321881345 0 -46.1731656763491 -40.7612046748871 0 -50 -35 0 -36.1418070123307 -44.2597485145237 0 -39.3933982822018 -39.3933982822018 0 -44.2597485145237 -36.1418070123307 0 -40 -50 -35 -50 -50 -40 -40.7612046748871 -46.1731656763491 -42.9289321881345 -42.9289321881345 -46.1731656763491 -40.7612046748871 -50 -35 -36.1418070123307 -44.2597485145237 -39.3933982822018 -39.3933982822018 -44.2597485145237 -36.1418070123307 8 1 2 8 4 1 8 5 4 10 6 5 10 3 6 10 7 3 9 5 8 9 10 5 
28 26 1 0.581163651478964
20 0 0 20 0 10 20 0 0 20 0 10 17.7091205130642 9.29446344087537 0 11.3612949346231 16.4596773178731 0 2.41073360510646 19.8541774819611 0 -7.09209774085071 18.7003248537083 0 -14.970214963422 13.2624531648159 0 -19.418836348521 4.78631328575116 0 -19.418836348521 -4.78631328575115 0 -14.970214963422 -13.2624531648159 0 -7.09209774085072 -18.7003248537083 0 2.41073360510645 -19.8541774819611 0 11.3612949346231 -16.4596773178731 0 17.7091205130642 -9.2944634408754 0 17.7091205130642 9.29446344087537 10 11.3612949346231 16.4596773178731 10 2.41073360510646 19.8541774819611 10 -7.09209774085071 18.7003248537083 10 -14.970214963422 13.2624531648159 10 -19.418836348521 4.78631328575116 10 -19.418836348521 -4.78631328575115 10 -14.970214963422 -13.2624531648159 10 -7.09209774085072 -18.7003248537083 10 2.41073360510645 -19.8541774819611 10 11.3612949346231 -16.4596773178731 10 17.7091205130642 -9.2944634408754 10 0 0 0 -10 6.28318530717959 0 6.28318530717959 -10 0.483321946706122 0 0.966643893412244 0 1.44996584011837 0 1.93328778682449 0 2.41660973353061 0 2.89993168023673 0 3.38325362694285 0 3.86657557364898 0 4.3498975203551 0 4.83321946706122 0 5.31654141376734 0 5.79986336047346 0 0.483321946706122 -10 0.966643893412244 -10 1.44996584011837 -10 1.93328778682449 -10 2.41660973353061 -10 2.89993168023673 -10 3.38325362694285 -10 3.86657557364898 -10 4.3498975203551 -10 4.83321946706122 -10 5.31654141376734 -10 5.79986336047346 -10 5 1 2 5 2 17 6 17 18 6 5 17 7 18 19 7 6 18 8 19 20 8 7 19 9 20 21 9 8 20 10 21 22 10 9 21 11 22 23 11 10 22 12 23 24 12 11 23 13 24 25 13 12 24 14 25 26 14 13 25 15 26 27 15 14 26 16 27 28 16 15 27 3 28 4 3 16 28 
26 26 1 1.77635683940025e-015
20 0 0 17.7091205130642 9.29446344087537 0 11.3612949346231 16.4596773178731 0 2.41073360510646 19.8541774819611 0 -7.09209774085071 18.7003248537083 0 -14.970214963422 13.2624531648159 0 -19.418836348521 4.78631328575116 0 -19.418836348521 -4.78631328575115 0 -14.970214963422 -13.2624531648159 0 -7.09209774085072 -18.7003248537083 0 2.41073360510645 -19.8541774819611 0 11.3612949346231 -16.4596773178731 0 17.7091205130642 -9.2944634408754 0 15 0 0 13.2818403847981 6.97084758065653 0 8.52097120096734 12.3447579884048 0 1.80805020382985 14.8906331114708 0 -5.31907330563803 14.0252436402812 0 -11.2276612225665 9.94683987361193 0 -14.5641272613908 3.58973496431337 0 -14.5641272613908 -3.58973496431336 0 -11.2276612225665 -9.94683987361192 0 -5.31907330563804 -14.0252436402812 0 1.80805020382983 -14.8906331114708 0 8.52097120096732 -12.3447579884049 0 13.2818403847981 -6.97084758065655 0 20 0 17.7091205130642 9.29446344087537 11.3612949346231 16.4596773178731 2.41073360510646 19.8541774819611 -7.09209774085071 18.7003248537083 -14.970214963422 13.2624531648159 -19.418836348521 4.78631328575116 -19.418836348521 -4.78631328575115 -14.970214963422 -13.2624531648159 -7.09209774085072 -18.7003248537083 2.41073360510645 -19.8541774819611 11.3612949346231 -16.4596773178731 17.7091205130642 -9.2944634408754 15 -3.5527136788005e-015 13.2818403847981 6.97084758065653 8.52097120096734 12.3447579884048 1.80805020382985 14.8906331114708 -5.31907330563803 14.0252436402812 -11.2276612225665 9.94683987361194 -14.5641272613908 3.58973496431337 -14.5641272613908 -3.58973496431336 -11.2276612225665 -9.94683987361192 -5.31907330563804 -14.0252436402812 1.80805020382984 -14.8906331114708 8.52097120096732 -12.3447579884049 13.2818403847981 -6.97084758065655 23 9 10 23 22 9 21 8 9 21 9 22 24 10 11 24 23 10 20 7 8 20 8 21 12 24 11 25 24 12 19 6 7 19 7 20 13 26 25 13 25 12 5 19 18 5 6 19 1 14 26 1 26 13 4 18 17 4 5 18 2 15 14 2 14 1 3 16 15 3 17 16 3 4 17 3 15 2 
10 8 1 0.192147195967698
-50 40 0 -50 40 10 -40 50 0 -40 50 10 -46.1731656763491 40.7612046748871 0 -42.9289321881345 42.9289321881345 0 -40.7612046748871 46.1731656763491 0 -46.1731656763491 40.7612046748871 10 -42.9289321881345 42.9289321881345 10 -40.7612046748871 46.1731656763491 10 4.71238898038469 0 4.71238898038469 -10 6.28318530717959 0 6.28318530717959 -10 5.10508806208341 0 5.49778714378214 0 5.89048622548086 0 5.10508806208341 -10 5.49778714378214 -10 5.89048622548086 -10 5 1 2 5 2 8 6 8 9 6 5 8 7 9 10 7 6 9 3 10 4 3 7 10 
4 2 1 0
-50 50 0 -50 50 10 -50 40 0 -50 40 10 0 0 0 -10 10 0 10 -10 3 1 2 3 2 4 
4 2 1 0
-50 50 0 -50 50 10 -40 50 0 -40 50 10 0 0 0 -10 10 0 10 -10 3 1 2 3 2 4 
6 4 1 4.88498130835069e-015
-50 40 0 -40 50 0 -46.1731656763491 40.7612046748871 0 -42.9289321881345 42.9289321881345 0 -40.7612046748871 46.1731656763491 0 -50 50 0 -50 40 -40 50 -46.1731656763491 40.7612046748871 -42.9289321881345 42.9289321881345 -40.7612046748871 46.1731656763491 -50 50 6 1 3 4 6 3 5 6 4 2 6 5 
10 8 1 0.192147195967698
-40 -50 0 -40 -50 10 -50 -40 0 -50 -40 10 -40.7612046748871 -46.1731656763491 0 -42.9289321881345 -42.9289321881345 0 -46.1731656763491 -40.7612046748871 0 -40.7612046748871 -46.1731656763491 10 -42.9289321881345 -42.9289321881345 10 -46.1731656763491 -40.7612046748871 10 0 0 0 -10 1.5707963267949 0 1.5707963267949 -10 0.392699081698724 0 0.785398163397448 0 1.17809724509617 0 0.392699081698724 -10 0.785398163397448 -10 1.17809724509617 -10 1 2 8 5 1 8 6 8 9 6 5 8 7 9 10 7 6 9 3 10 4 3 7 10 
4 2 1 0
-50 -50 0 -50 -50 10 -40 -50 0 -40 -50 10 0 0 0 -10 10 0 10 -10 3 1 2 3 2 4 
4 2 1 0
-50 -50 0 -50 -50 10 -50 -40 0 -50 -40 10 0 0 0 -10 10 0 10 -10 3 1 2 3 2 4 
6 4 1 1.55431223447522e-015
-40 -50 0 -50 -40 0 -40.7612046748871 -46.1731656763491 0 -42.9289321881345 -42.9289321881345 0 -46.1731656763491 -40.7612046748871 0 -50 -50 0 -40 -50 -50 -40 -40.7612046748871 -46.1731656763491 -42.9289321881345 -42.9289321881345 -46.1731656763491 -40.7612046748871 -50 -50 5 2 6 3 6 1 4 5 6 4 6 3 
28 26 1 0.435872738609222
15 0 0 15 0 10 15 0 0 15 0 10 13.2818403847981 6.97084758065653 0 8.52097120096734 12.3447579884048 0 1.80805020382985 14.8906331114708 0 -5.31907330563803 14.0252436402812 0 -11.2276612225665 9.94683987361193 0 -14.5641272613908 3.58973496431337 0 -14.5641272613908 -3.58973496431336 0 -11.2276612225665 -9.94683987361192 0 -5.31907330563804 -14.0252436402812 0 1.80805020382983 -14.8906331114708 0 8.52097120096732 -12.3447579884049 0 13.2818403847981 -6.97084758065655 0 13.2818403847981 6.97084758065653 10 8.52097120096734 12.3447579884048 10 1.80805020382985 14.8906331114708 10 -5.31907330563803 14.0252436402812 10 -11.2276612225665 9.94683987361193 10 -14.5641272613908 3.58973496431337 10 -14.5641272613908 -3.58973496431336 10 -11.2276612225665 -9.94683987361192 10 -5.31907330563804 -14.0252436402812 10 1.80805020382983 -14.8906331114708 10 8.52097120096732 -12.3447579884049 10 13.2818403847981 -6.97084758065655 10 0 0 0 -10 6.28318530717959 0 6.28318530717959 -10 0.483321946706122 0 0.966643893412244 0 1.44996584011837 0 1.93328778682449 0 2.41660973353061 0 2.89993168023673 0 3.38325362694285 0 3.86657557364898 0 4.3498975203551 0 4.83321946706122 0 5.31654141376734 0 5.79986336047346 0 0.483321946706122 -10 0.966643893412244 -10 1.44996584011837 -10 1.93328778682449 -10 2.41660973353061 -10 2.89993168023673 -10 3.38325362694285 -10 3.86657557364898 -10 4.3498975203551 -10 4.83321946706122 -10 5.31654141376734 -10 5.79986336047346 -10 5 1 2 5 2 17 6 17 18 6 5 17 7 18 19 7 6 18 8 19 20 8 7 19 9 20 21 9 8 20 10 21 22 10 9 21 11 22 23 11 10 22 12 23 24 12 11 23 13 24 25 13 12 24 14 25 26 14 13 25 15 26 27 15 14 26 16 27 28 16 15 27 3 28 4 3 16 28 
26 26 1 2.66453525910038e-015
15 0 0 13.2818403847981 6.97084758065653 0 8.52097120096734 12.3447579884048 0 1.80805020382985 14.8906331114708 0 -5.31907330563803 14.0252436402812 0 -11.2276612225665 9.94683987361193 0 -14.5641272613908 3.58973496431337 0 -14.5641272613908 -3.58973496431336 0 -11.2276612225665 -9.94683987361192 0 -5.31907330563804 -14.0252436402812 0 1.80805020382983 -14.8906331114708 0 8.52097120096732 -12.3447579884049 0 13.2818403847981 -6.97084758065655 0 10 0 0 8.8545602565321 4.64723172043769 0 5.68064746731156 8.22983865893656 0 1.20536680255323 9.92708874098054 0 -3.54604887042535 9.35016242685415 0 -7.48510748171101 6.63122658240796 0 -9.70941817426052 2.39315664287558 0 -9.70941817426052 -2.39315664287557 0 -7.48510748171101 -6.63122658240795 0 -3.54604887042536 -9.35016242685415 0 1.20536680255322 -9.92708874098054 0 5.68064746731155 -8.22983865893657 0 8.85456025653209 -4.6472317204377 0 15 -3.5527136788005e-015 13.2818403847982 6.97084758065653 8.52097120096734 12.3447579884048 1.80805020382985 14.8906331114708 -5.31907330563803 14.0252436402812 -11.2276612225665 9.94683987361193 -14.5641272613908 3.58973496431337 -14.5641272613908 -3.58973496431336 -11.2276612225665 -9.94683987361192 -5.31907330563804 -14.0252436402812 1.80805020382983 -14.8906331114708 8.52097120096732 -12.3447579884049 13.2818403847981 -6.97084758065655 10 -1.77635683940025e-015 8.8545602565321 4.64723172043769 5.68064746731156 8.22983865893656 1.20536680255323 9.92708874098054 -3.54604887042535 9.35016242685415 -7.48510748171101 6.63122658240796 -9.70941817426052 2.39315664287558 -9.70941817426052 -2.39315664287557 -7.48510748171101 -6.63122658240795 -3.54604887042536 -9.35016242685415 1.20536680255322 -9.92708874098054 5.68064746731155 -8.22983865893657 8.85456025653209 -4.6472317204377 22 8 9 23 9 10 23 22 9 21 8 22 7 8 21 24 10 11 24 23 10 20 7 21 25 11 12 25 24 11 19 6 7 19 7 20 18 6 19 13 26 25 13 25 12 5 6 18 1 15 14 1 14 26 1 26 13 4 18 17 4 5 18 2 15 1 3 16 15 3 17 16 3 4 17 3 15 2 
28 26 1 0.290581825739482
10 0 0 10 0 10 10 0 0 10 0 10 8.8545602565321 4.64723172043769 0 5.68064746731156 8.22983865893656 0 1.20536680255323 9.92708874098054 0 -3.54604887042535 9.35016242685415 0 -7.48510748171101 6.63122658240796 0 -9.70941817426052 2.39315664287558 0 -9.70941817426052 -2.39315664287557 0 -7.48510748171101 -6.63122658240795 0 -3.54604887042536 -9.35016242685415 0 1.20536680255322 -9.92708874098054 0 5.68064746731155 -8.22983865893657 0 8.85456025653209 -4.6472317204377 0 8.8545602565321 4.64723172043769 10 5.68064746731156 8.22983865893656 10 1.20536680255323 9.92708874098054 10 -3.54604887042535 9.35016242685415 10 -7.48510748171101 6.63122658240796 10 -9.70941817426052 2.39315664287558 10 -9.70941817426052 -2.39315664287557 10 -7.48510748171101 -6.63122658240795 10 -3.54604887042536 -9.35016242685415 10 1.20536680255322 -9.92708874098054 10 5.68064746731155 -8.22983865893657 10 8.85456025653209 -4.6472317204377 10 0 0 0 -10 6.28318530717959 0 6.28318530717959 -10 0.483321946706122 0 0.966643893412244 0 1.44996584011837 0 1.93328778682449 0 2.41660973353061 0 2.89993168023673 0 3.38325362694285 0 3.86657557364898 0 4.3498975203551 0 4.83321946706122 0 5.31654141376734 0 5.79986336047346 0 0.483321946706122 -10 0.966643893412244 -10 1.44996584011837 -10 1.93328778682449 -10 2.41660973353061 -10 2.89993168023673 -10 3.38325362694285 -10 3.86657557364898 -10 4.3498975203551 -10 4.83321946706122 -10 5.31654141376734 -10 5.79986336047346 -10 5 1 2 5 2 17 6 17 18 6 5 17 7 18 19 7 6 18 8 19 20 8 7 19 9 20 21 9 8 20 10 21 22 10 9 21 11 22 23 11 10 22 12 23 24 12 11 23 13 24 25 13 12 24 14 25 26 14 13 25 15 26 27 15 14 26 16 27 28 16 28 4 16 15 27 3 16 4 
13 11 1 1.77635683940025e-015
10 0 0 8.8545602565321 4.64723172043769 0 5.68064746731156 8.22983865893656 0 1.20536680255323 9.92708874098054 0 -3.54604887042535 9.35016242685415 0 -7.48510748171101 6.63122658240796 0 -9.70941817426052 2.39315664287558 0 -9.70941817426052 -2.39315664287557 0 -7.48510748171101 -6.63122658240795 0 -3.54604887042536 -9.35016242685415 0 1.20536680255322 -9.92708874098054 0 5.68064746731155 -8.22983865893657 0 8.85456025653209 -4.6472317204377 0 10 -1.77635683940025e-015 8.8545602565321 4.64723172043768 5.68064746731156 8.22983865893656 1.20536680255323 9.92708874098054 -3.54604887042535 9.35016242685415 -7.48510748171101 6.63122658240795 -9.70941817426052 2.39315664287558 -9.70941817426052 -2.39315664287557 -7.48510748171101 -6.63122658240795 -3.54604887042536 -9.35016242685415 1.20536680255322 -9.92708874098054 5.68064746731155 -8.22983865893657 8.85456025653209 -4.6472317204377 11 9 10 7 8 9 12 9 11 13 9 12 1 6 7 1 7 9 1 9 13 3 1 2 3 4 5 3 5 6 3 6 1 

TShapes 191
Ve
1e-007
40 50 0
0 0

0101101
*
Ed
 1e-007 1 1 0
1  1 0 0 10
2  1 2 0 0 10
6  1 2 0
6  2 3 0
6  3 1 0
0

0101000
+191 0 -191 1 *
Ve
1e-007
35 50 0
0 0

0101101
*
Ed
 1e-007 1 1 0
1  2 0 0 10
2  2 3 0 0 10
6  4 4 0
6  5 5 0
6  6 1 0
0

0101000
+189 0 -189 1 *
Ed
 1e-007 1 1 0
1  3 0 10 15
2  3 4 0 10 15
6  7 1 0
6  8 1 2
6  9 6 0
0

0101000
+191 0 -189 0 *
Wi

0101100
+190 0 -188 0 -187 0 +187 1 *
Fa
0  1e-007 1 0
2  1
0101000
+186 0 *
Ve
1e-007
50 40 0
0 0

0101101
*
Ed
 1e-007 1 1 0
1  4 0 0 10
2  4 2 0 0 10
6  10 2 0
6  11 7 0
6  12 8 0
0

0101000
+184 0 -184 1 *
Ed
 1e-007 1 1 0
1  5 0 3.14159265358979 4.71238898038469
2  5 4 0 3.14159265358979 4.71238898038469
2  6 2 0 3.14159265358979 4.71238898038469
2  7 2 2 3.14159265358979 4.71238898038469
6  13 2 2
6  14 2 0
6  15 9 0
6  16 6 0
0

0101000
+191 0 -184 0 *
Wi

0101100
+190 0 -183 0 -182 0 +182 1 *
Fa
0  1e-007 2 0
2  2
0101000
+181 0 *
Ve
1e-007
50 35 0
0 0

0101101
*
Ed
 1e-007 1 1 0
1  6 0 0 10
2  8 3 0 0 10
6  17 4 0
6  18 10 0
6  19 8 0
0

0101000
+179 0 -179 1 *
Ed
 1e-007 1 1 0
1  7 0 10 15
2  9 4 0 10 15
6  20 8 2
6  21 8 0
6  22 6 0
0

0101000
+184 0 -179 0 *
Wi

0101100
+183 0 -178 0 -177 0 +177 1 *
Fa
0  1e-007 5 0
2  8
0101000
+176 0 *
Ed
 1e-007 1 1 0
1  8 0 3.14159265358979 4.71238898038469
2  10 4 0 3.14159265358979 4.71238898038469
4 CN 4 0 4 0
2  11 3 0 3.14159265358979 4.71238898038469
2  12 3 2 3.14159265358979 4.71238898038469
6  23 4 0
6  24 4 2
6  25 11 0
6  26 6 0
0

0101000
+189 0 -179 0 *
Wi

0101100
+188 0 -178 0 -174 0 +174 1 *
Fa
0  1e-007 3 0
2  4
0101000
+173 0 *
Wi

0101100
+187 0 -182 0 -177 0 +174 0 *
Fa
0  1e-007 4 0
2  6
0101000
+171 0 *
Sh

0101100
+185 0 -180 0 -175 0 +172 0 +170 0 -170 1 *
So

0100000
-169 0 *
Ve
1e-007
50 -40 0
0 0

0101101
*
Ed
 1e-007 1 1 0
1  9 0 0 10
2  13 7 0 0 10
6  27 13 0
6  28 14 0
6  29 12 0
0

0101000
+167 0 -167 1 *
Ve
1e-007
50 -35 0
0 0

0101101
*
Ed
 1e-007 1 1 0
1  10 0 0 10
2  14 8 0 0 10
6  30 15 0
6  31 10 0
6  32 12 0
0

0101000
+165 0 -165 1 *
Ed
 1e-007 1 1 0
1  11 0 10 15
2  15 4 0 10 15
6  33 12 2
6  34 12 0
6  35 16 0
0

0101000
+167 0 -165 0 *
Wi

0101100
+166 0 -164 0 -163 0 +163 1 *
Fa
0  1e-007 6 0
2  12
0101000
+162 0 *
Ve
1e-007
40 -50 0
0 0

0101101
*
Ed
 1e-007 1 1 0
1  12 0 0 10
2  16 7 0 0 10
6  36 13 0
6  37 17 0
6  38 18 0
0

0101000
+160 0 -160 1 *
Ed
 1e-007 1 1 0
1  13 0 1.5707963267949 3.14159265358979
2  17 4 0 1.5707963267949 3.14159265358979
2  18 7 0 1.5707963267949 3.14159265358979
2  19 7 2 1.5707963267949 3.14159265358979
6  39 13 0
6  40 13 2
6  41 19 0
6  42 16 0
0

0101000
+167 0 -160 0 *
Wi

0101100
+166 0 -159 0 -158 0 +158 1 *
Fa
0  1e-007 7 0
2  13
0101000
+157 0 *
Ve
1e-007
35 -50 0
0 0

0101101
*
Ed
 1e-007 1 1 0
1  14 0 0 10
2  20 8 0 0 10
6  43 15 0
6  44 20 0
6  45 18 0
0

0101000
+155 0 -155 1 *
Ed
 1e-007 1 1 0
1  15 0 10 15
2  21 4 0 10 15
6  46 18 2
6  47 18 0
6  48 16 0
0

0101000
+160 0 -155 0 *
Wi

0101100
+159 0 -154 0 -153 0 +153 1 *
Fa
0  1e-007 9 0
2  18
0101000
+152 0 *
Ed
 1e-007 1 1 0
1  16 0 1.5707963267949 3.14159265358979
2  22 4 0 1.5707963267949 3.14159265358979
4 CN 4 0 4 0
2  23 8 0 1.5707963267949 3.14159265358979
2  24 8 2 1.5707963267949 3.14159265358979
6  49 15 0
6  50 15 2
6  51 11 0
6  52 16 0
0

0101000
+165 0 -155 0 *
Wi

0101100
+164 0 -154 0 -150 0 +150 1 *
Fa
0  1e-007 8 0
2  15
0101000
+149 0 *
Wi

0101100
+163 0 -158 0 -153 0 +150 0 *
Fa
0  1e-007 4 0
2  16
0101000
+147 0 *
Sh

0101100
+161 0 -156 0 -151 0 +148 0 +146 0 -146 1 *
So

0100000
-145 0 *
Ve
1e-007
-50 35 0
0 0

0101101
*
Ed
 1e-007 1 1 0
1  17 0 0 10
2  25 10 0 0 10
6  53 21 0
6  54 22 0
6  55 23 0
0

0101000
+143 0 -143 1 *
Ve
1.00000003552714e-007
-35 50 0
0 0

0101101
*
Ed
 1.00000003552714e-007 1 1 0
1  18 0 0 10
2  26 10 0 0 10
6  56 21 0
6  57 24 0
6  58 5 0
0

0101000
+141 0 -141 1 *
Ed
 1e-007 1 1 0
1  19 0 4.71238898038469 6.28318530717959
2  27 4 0 4.71238898038469 6.28318530717959
2  28 10 0 4.71238898038469 6.28318530717959
2  29 10 2 4.71238898038469 6.28318530717959
6  59 21 0
6  60 21 2
6  61 25 0
6  62 11 0
0

0101000
+143 0 -141 0 *
Wi

0101100
+142 0 -140 0 -139 0 +139 1 *
Fa
0  1e-007 10 0
2  21
0101000
+138 0 *
Ve
1e-007
-50 -35 0
0 0

0101101
*
Ed
 1e-007 1 1 0
1  20 0 0 10
2  30 12 0 0 10
6  63 26 0
6  64 23 0
6  65 27 0
0

0101000
+136 0 -136 1 *
Ed
 1e-007 1 1 0
1  21 0 0 70
2  31 4 0 0 70
6  66 23 2
6  67 23 0
6  68 11 0
0

0101000
+143 0 -136 0 *
Wi

0101100
+142 0 -135 0 -134 0 +134 1 *
Fa
0  1e-007 11 0
2  23
0101000
+133 0 *
Ed
 1e-007 1 1 0
1  22 0 0 70
2  32 4 0 0 70
6  69 5 0
6  70 5 2
6  71 11 0
0

0101000
+141 0 -189 0 *
Wi

0101100
+140 0 -188 0 -131 0 +131 1 *
Fa
0  1e-007 13 0
2  5
0101000
+130 0 *
Ve
1e-007
-35 -50 0
0 0

0101101
*
Ed
 1e-007 1 1 0
1  23 0 0 10
2  33 12 0 0 10
6  72 26 0
6  73 20 0
6  74 28 0
0

0101000
+128 0 -128 1 *
Ed
 1e-007 1 1 0
1  24 0 0 1.5707963267949
2  34 4 0 0 1.5707963267949
4 CN 4 0 4 0
2  35 12 0 0 1.5707963267949
2  36 12 2 0 1.5707963267949
6  75 26 2
6  76 26 0
6  77 11 0
6  78 29 0
0

0101000
+128 0 -136 0 *
Wi

0101100
+127 0 -135 0 -126 0 +126 1 *
Fa
0  1e-007 12 0
2  26
0101000
+125 0 *
Ed
 1e-007 1 1 0
1  25 0 0 70
2  37 4 0 0 70
6  79 20 0
6  80 20 2
6  81 11 0
0

0101000
+128 0 -155 0 *
Wi

0101100
+127 0 -154 0 -123 0 +123 1 *
Fa
0  1e-007 14 0
2  20
0101000
+122 0 *
Ed
 1e-007 1 1 0
1  26 0 0 70
2  38 4 0 0 70
6  82 10 0
6  83 10 2
6  84 11 0
0

0101000
+179 0 -165 0 *
Wi

0101100
+178 0 -164 0 -120 0 +120 1 *
Fa
0  1e-007 15 0
2  10
0101000
+119 0 *
Ve
1e-007
20 0 0
0 0

0101101
*
Ed
 1e-007 1 1 0
1  27 0 0 10
3  39 40CN 16 0 0 10
7  85 86 30 0
0

0101000
+117 0 -117 1 *
Ed
 1e-007 1 1 0
1  28 0 0 6.28318530717959
2  41 4 0 0 6.28318530717959
2  42 16 0 0 6.28318530717959
2  43 16 2 0 6.28318530717959
6  87 30 2
6  88 30 0
6  89 11 0
6  90 31 0
0

0101000
+117 0 -117 0 *
Wi

0101100
+116 0 -116 0 -115 0 +115 1 *
Fa
0  1e-007 16 0
2  30
0101000
+114 0 *
Wi

0101100
-139 0 +134 0 -131 0 -126 0 -174 0 +123 0 -120 0 -150 0 *
Wi

0101100
-115 0 *
Fa
0  1e-007 4 0
2  11
0101000
+112 0 +111 0 *
Sh

0101100
-137 0 +132 0 -129 0 -124 0 -172 0 +121 0 -118 0 -148 0 -113 0 +110 0 
-110 1 *
So

0100000
-109 0 *
Ve
1e-007
-50 40 0
0 0

0101101
*
Ed
 1e-007 1 1 0
1  29 0 0 10
2  44 18 0 0 10
6  91 32 0
6  92 33 0
6  93 22 0
0

0101000
+107 0 -107 1 *
Ed
 1e-007 1 1 0
1  30 0 10 15
2  45 4 0 10 15
6  94 22 2
6  95 22 0
6  96 25 0
0

0101000
+107 0 -143 0 *
Wi

0101100
+106 0 -142 0 -105 0 +105 1 *
Fa
0  1e-007 17 0
2  22
0101000
+104 0 *
Ve
1.00000007105427e-007
-40 50 0
0 0

0101101
*
Ed
 1.00000007105427e-007 1 1 0
1  31 0 0 10
2  46 18 0 0 10
6  97 32 0
6  98 34 0
6  99 24 0
0

0101000
+102 0 -102 1 *
Ed
 1e-007 1 1 0
1  32 0 4.71238898038469 6.28318530717959
2  47 4 0 4.71238898038469 6.28318530717959
2  48 18 0 4.71238898038469 6.28318530717959
2  49 18 2 4.71238898038469 6.28318530717959
6  100 32 2
6  101 32 0
6  102 35 0
6  103 25 0
0

0101000
+107 0 -102 0 *
Wi

0101100
+106 0 -101 0 -100 0 +100 1 *
Fa
0  1e-007 18 0
2  32
0101000
+99 0 *
Ed
 1e-007 1 1 0
1  33 0 10 15
2  50 4 0 10 15
6  104 24 2
6  105 24 0
6  106 25 0
0

0101000
+102 0 -141 0 *
Wi

0101100
+101 0 -140 0 -97 0 +97 1 *
Fa
0  1e-007 19 0
2  24
0101000
+96 0 *
Wi

0101100
+105 0 -100 0 -97 0 +139 0 *
Fa
0  1e-007 4 0
2  25
0101000
+94 0 *
Sh

0101100
+103 0 -98 0 -95 0 +137 0 +93 0 -93 1 *
So

0100000
-92 0 *
Ve
1e-007
-40 -50 0
0 0

0101101
*
Ed
 1e-007 1 1 0
1  34 0 0 10
2  51 20 0 0 10
6  107 36 0
6  108 37 0
6  109 28 0
0

0101000
+90 0 -90 1 *
Ve
1e-007
-50 -40 0
0 0

0101101
*
Ed
 1e-007 1 1 0
1  35 0 0 10
2  52 20 0 0 10
6  110 36 0
6  111 38 0
6  112 27 0
0

0101000
+88 0 -88 1 *
Ed
 1e-007 1 1 0
1  36 0 0 1.5707963267949
2  53 4 0 0 1.5707963267949
2  54 20 0 0 1.5707963267949
2  55 20 2 0 1.5707963267949
6  113 36 2
6  114 36 0
6  115 39 0
6  116 29 0
0

0101000
+90 0 -88 0 *
Wi

0101100
+89 0 -87 0 -86 0 +86 1 *
Fa
0  1e-007 20 0
2  36
0101000
+85 0 *
Ve
1e-007
-50 -50 0
0 0

0101101
*
Ed
 1e-007 1 1 0
1  37 0 0 10
6  117 37 0
6  118 38 0
0

0101000
+83 0 -83 1 *
Ed
 1e-007 1 1 0
1  38 0 0 10
2  56 4 0 0 10
6  119 37 2
6  120 37 0
6  121 39 0
0

0101000
+83 0 -90 0 *
Wi

0101100
+82 0 -89 0 -81 0 +81 1 *
Fa
0  1e-007 21 0
2  37
0101000
+80 0 *
Ed
 1e-007 1 1 0
1  39 0 0 10
2  57 4 0 0 10
6  122 38 2
6  123 38 0
6  124 39 0
0

0101000
+83 0 -88 0 *
Wi

0101100
+82 0 -87 0 -78 0 +78 1 *
Fa
0  1e-007 22 0
2  38
0101000
+77 0 *
Wi

0101100
+86 0 +81 0 -78 0 *
Fa
0  1e-007 4 0
2  39
0101000
+75 0 *
Sh

0101100
+84 0 +79 0 -76 0 +74 0 -74 1 *
So

0100000
-73 0 *
Ed
 1e-007 1 1 0
1  40 0 10 15
2  58 4 0 10 15
6  125 28 0
6  126 28 2
6  127 29 0
0

0101000
+90 0 -128 0 *
Wi

0101100
+89 0 -127 0 -71 0 +71 1 *
Fa
0  1e-007 23 0
2  28
0101000
+70 0 *
Ed
 1e-007 1 1 0
1  41 0 10 15
2  59 4 0 10 15
6  128 27 0
6  129 27 2
6  130 29 0
0

0101000
+88 0 -136 0 *
Wi

0101100
+87 0 -135 0 -68 0 +68 1 *
Fa
0  1e-007 24 0
2  27
0101000
+67 0 *
Wi

0101100
+71 0 -86 0 -68 0 +126 0 *
Fa
0  1e-007 4 0
2  29
0101000
+65 0 *
Sh

0101100
+69 0 -84 0 -66 0 +124 0 +64 0 -64 1 *
So

0100000
-63 0 *
Ve
1e-007
50 50 0
0 0

0101101
*
Ed
 1e-007 1 1 0
1  42 0 0 10
6  131 3 0
6  132 7 0
0

0101000
+61 0 -61 1 *
Ed
 1e-007 1 1 0
1  43 0 0 10
2  60 4 0 0 10
6  133 3 0
6  134 3 2
6  135 9 0
0

0101000
+61 0 -191 0 *
Wi

0101100
+60 0 -190 0 -59 0 +59 1 *
Fa
0  1e-007 25 0
2  3
0101000
+58 0 *
Ed
 1e-007 1 1 0
1  44 0 0 10
2  61 4 0 0 10
6  136 7 2
6  137 7 0
6  138 9 0
0

0101000
+61 0 -184 0 *
Wi

0101100
+60 0 -183 0 -56 0 +56 1 *
Fa
0  1e-007 26 0
2  7
0101000
+55 0 *
Wi

0101100
+182 0 +59 0 -56 0 *
Fa
0  1e-007 4 0
2  9
0101000
+53 0 *
Sh

0101100
+180 0 +57 0 -54 0 +52 0 -52 1 *
So

0100000
-51 0 *
Ve
1e-007
15 0 0
0 0

0101101
*
Ed
 1e-007 1 1 0
1  45 0 0 10
3  62 63CN 27 0 0 10
7  139 140 40 0
0

0101000
+49 0 -49 1 *
Ed
 1e-007 1 1 0
1  46 0 0 6.28318530717959
2  64 4 0 0 6.28318530717959
2  65 27 0 0 6.28318530717959
2  66 27 2 0 6.28318530717959
6  141 40 2
6  142 40 0
6  143 41 0
6  144 31 0
0

0101000
+49 0 -49 0 *
Wi

0101100
+48 0 -48 0 -47 0 +47 1 *
Fa
0  1e-007 27 0
2  40
0101000
+46 0 *
Ve
1e-007
10 0 0
0 0

0101101
*
Ed
 1e-007 1 1 0
1  47 0 0 10
3  67 68CN 28 0 0 10
7  145 146 42 0
0

0101000
+44 0 -44 1 *
Ed
 1e-007 1 1 0
1  48 0 0 6.28318530717959
2  69 4 0 0 6.28318530717959
2  70 28 0 0 6.28318530717959
2  71 28 2 0 6.28318530717959
6  147 42 0
6  148 42 2
6  149 43 0
6  150 41 0
0

0101000
+44 0 -44 0 *
Wi

0101100
+43 0 -43 0 -42 0 +42 1 *
Fa
0  1e-007 28 0
2  42
0101000
+41 0 *
Wi

0101100
+47 0 *
Wi

0101100
-42 0 *
Fa
0  1e-007 4 0
2  41
0101000
+39 0 +38 0 *
Sh

0101100
+45 0 -40 0 +37 0 -37 1 *
So

0100000
-36 0 *
Wi

0101100
+115 0 *
Wi

0101100
-47 0 *
Fa
0  1e-007 4 0
2  31
0101000
+34 0 +33 0 *
Sh

0101100
+113 0 -45 0 +32 0 -32 1 *
So

0100000
-31 0 *
Ve
1e-007
50 -50 0
0 0

0101101
*
Ed
 1e-007 1 1 0
1  49 0 0 10
6  151 14 0
6  152 17 0
0

0101000
+29 0 -29 1 *
Ed
 1e-007 1 1 0
1  50 0 0 10
2  72 4 0 0 10
6  153 14 2
6  154 14 0
6  155 19 0
0

0101000
+29 0 -167 0 *
Wi

0101100
+28 0 -166 0 -27 0 +27 1 *
Fa
0  1e-007 29 0
2  14
0101000
+26 0 *
Ed
 1e-007 1 1 0
1  51 0 0 10
2  73 4 0 0 10
6  156 17 0
6  157 17 2
6  158 19 0
0

0101000
+29 0 -160 0 *
Wi

0101100
+28 0 -159 0 -24 0 +24 1 *
Fa
0  1e-007 30 0
2  17
0101000
+23 0 *
Wi

0101100
+158 0 +27 0 -24 0 *
Fa
0  1e-007 4 0
2  19
0101000
+21 0 *
Sh

0101100
+156 0 +25 0 -22 0 +20 0 -20 1 *
So

0100000
-19 0 *
Ve
1e-007
-50 50 0
0 0

0101101
*
Ed
 1e-007 1 1 0
1  52 0 0 10
6  159 33 0
6  160 34 0
0

0101000
+17 0 -17 1 *
Ed
 1e-007 1 1 0
1  53 0 0 10
2  74 4 0 0 10
6  161 33 0
6  162 33 2
6  163 35 0
0

0101000
+17 0 -107 0 *
Wi

0101100
+16 0 -106 0 -15 0 +15 1 *
Fa
0  1e-007 31 0
2  33
0101000
+14 0 *
Ed
 1e-007 1 1 0
1  54 0 0 10
2  75 4 0 0 10
6  164 34 2
6  165 34 0
6  166 35 0
0

0101000
+17 0 -102 0 *
Wi

0101100
+16 0 -101 0 -12 0 +12 1 *
Fa
0  1e-007 32 0
2  34
0101000
+11 0 *
Wi

0101100
+100 0 +15 0 -12 0 *
Fa
0  1e-007 4 0
2  35
0101000
+9 0 *
Sh

0101100
+98 0 +13 0 -10 0 +8 0 -8 1 *
So

0100000
-7 0 *
Wi

0101100
+42 0 *
Fa
0  1e-007 4 0
2  43
0101000
+5 0 *
Sh

0101100
+40 0 +4 0 -4 1 *
So

0100000
-3 0 *
Co

1100000
+168 0 +144 0 +108 0 +91 0 +72 0 +62 0 +50 0 +35 0 +30 0 +18 0 
+6 0 +2 0 *

+1 0 