DBRep_DrawableShape

CASCADE Topology V1, (c) Matra-Datavision
Locations 2
1
              1               0               0               0 
              0               1               0               0 
              0               0               1              10 
2  1 -1 0
Curve2ds 75
1 4.7123889803846897 0 0 -1 
1 6.2831853071795862 0 0 -1 
2 -50 50 1 0 -0 1 20
1 0 0 1 0 
1 0 -10 1 0 
1 -50 50 -3.5527136788005011e-016 -1 
1 -50 50 1 -3.5527136788005011e-016 
1 4.7123889803846897 0 0 -1 
1 -50 50 -2.3684757858670006e-016 -1 
1 6.2831853071795862 0 0 -1 
1 -50 50 1 -2.3684757858670006e-016 
2 -50 50 1 0 -0 1 30
1 0 0 1 0 
1 0 -10 1 0 
1 1.5707963267948966 0 0 -1 
1 -50 20 0 -1 
1 3.1415926535897931 0 0 -1 
1 -20 50 1 0 
1 0 0 0 -1 
2 -50 -50 1 0 -0 1 30
1 0 0 1 0 
1 0 -10 1 0 
1 4.7123889803846897 0 0 -1 
2 50 50 1 0 -0 1 30
1 0 0 1 0 
1 0 -10 1 0 
1 3.1415926535897931 0 0 -1 
1 -20 -50 1 0 
1 1.5707963267948966 0 0 -1 
1 50 20 0 -1 
2 50 -50 1 0 -0 1 30
1 0 0 1 0 
1 0 -10 1 0 
1 0 0 0 -1 
1 6.2831853071795862 0 0 -1 
2 0 0 1 0 -0 1 30
1 0 0 1 0 
1 0 -10 1 0 
1 0 0 0 -1 
1 1.5707963267948966 0 0 -1 
2 -50 -50 1 0 -0 1 20
1 0 0 1 0 
1 0 -10 1 0 
1 -50 -50 1 0 
1 -50 -50 0 1 
1 -50 -50 1 0 
1 -50 -50 0 1 
1 3.1415926535897931 0 0 -1 
1 4.7123889803846897 0 0 -1 
2 50 50 1 0 -0 1 20
1 0 0 1 0 
1 0 -10 1 0 
1 50 50 -1 0 
1 50 50 -3.5527136788005011e-016 -1 
1 50 50 -1 2.3684757858670006e-016 
1 50 50 -2.3684757858670006e-016 -1 
1 1.5707963267948966 0 0 -1 
1 3.1415926535897931 0 0 -1 
2 50 -50 1 0 -0 1 20
1 0 0 1 0 
1 0 -10 1 0 
1 50 -50 0 1 
1 50 -50 -1 0 
1 50 -50 0 1 
1 50 -50 -1 2.3684757858670006e-016 
1 0 0 0 -1 
1 6.2831853071795862 0 0 -1 
2 0 0 1 0 -0 1 10
1 0 0 1 0 
1 0 -10 1 0 
1 0 0 0 -1 
1 6.2831853071795862 0 0 -1 
2 0 0 1 0 -0 1 20
1 0 0 1 0 
1 0 -10 1 0 
Curves 54
1 -50.000000000000007 30 0 0 0 1 
1 -30 49.999999999999993 0 0 0 1 
2 -50 50 0 0 0 1 1 0 -0 -0 1 0 20
1 -50 50 0 0 0 1 
1 -50 50 0 -3.5527136788005011e-016 -1 0 
1 -50 50 0 1 -3.5527136788005011e-016 0 
1 -50 20 0 0 0 1 
1 -50 50 0 -2.3684757858670006e-016 -1 0 
1 -20 50 0 0 0 1 
1 -50 50 0 1 -2.3684757858670006e-016 0 
2 -50 50 0 0 0 1 1 0 -0 -0 1 0 30
1 -50 -20 0 0 0 1 
1 -50 20 0 0 -1 0 
1 20 50 0 0 0 1 
1 -20 50 0 1 0 0 
1 -20 -50 0 0 0 1 
2 -50 -50 0 0 0 1 1 0 -0 -0 1 0 30
1 50 20 0 0 0 1 
2 50 50 0 0 0 1 1 0 -0 -0 1 0 30
1 20 -50 0 0 0 1 
1 -20 -50 0 1 0 0 
1 50 -20 0 0 0 1 
1 50 20 0 0 -1 0 
2 50 -50 0 0 0 1 1 0 -0 -0 1 0 30
1 30 0 0 0 0 1 
2 0 0 0 0 0 1 1 0 -0 -0 1 0 30
1 -30 -50 0 0 0 1 
1 -50 -30 0 0 0 1 
2 -50 -50 0 0 0 1 1 0 -0 -0 1 0 20
1 -50 -50 0 0 0 1 
1 -50 -50 0 1 0 0 
1 -50 -50 0 0 1 0 
1 -50 -50 0 1 0 0 
1 -50 -50 0 0 1 0 
1 30 50 0 0 0 1 
1 49.999999999999993 30 0 0 0 1 
2 50 50 0 0 0 1 1 0 -0 -0 1 0 20
1 50 50 0 0 0 1 
1 50 50 0 -1 0 0 
1 50 50 0 -3.5527136788005011e-016 -1 0 
1 50 50 0 -1 2.3684757858670006e-016 0 
1 50 50 0 -2.3684757858670006e-016 -1 0 
1 50 -30 0 0 0 1 
1 30 -50 0 0 0 1 
2 50 -50 0 0 0 1 1 0 -0 -0 1 0 20
1 50 -50 0 0 0 1 
1 50 -50 0 0 1 0 
1 50 -50 0 -1 0 0 
1 50 -50 0 0 1 0 
1 50 -50 0 -1 2.3684757858670006e-016 0 
1 10 0 0 0 0 1 
2 0 0 0 0 0 1 1 0 -0 -0 1 0 10
1 20 0 0 0 0 1 
2 0 0 0 0 0 1 1 0 -0 -0 1 0 20
Polygon3D 0
PolygonOnTriangulations 166
2 1 2 
p 1.41774469083823 1 0 10 
2 3 4 
p 1.41774469083823 1 0 10 
2 1 2 
p 1.41774469083823 1 0 10 
2 3 4 
p 1.41774469083823 1 0 10 
2 3 4 
p 1.41774469083823 1 0 10 
2 1 2 
p 1.41774469083823 1 0 10 
5 1 5 6 7 3 
p 1.41774469083823 1 4.71238898038469 5.10508806208341 5.49778714378214 5.89048622548086 6.28318530717959 
5 2 8 9 10 4 
p 1.41774469083823 1 4.71238898038469 5.10508806208341 5.49778714378214 5.89048622548086 6.28318530717959 
5 1 3 4 5 2 
p 1.41774469083823 1 4.71238898038469 5.10508806208341 5.49778714378214 5.89048622548086 6.28318530717959 
5 1 4 5 6 3 
p 1.41774469083823 1 4.71238898038469 5.10508806208341 5.49778714378214 5.89048622548086 6.28318530717959 
2 1 2 
p 1.41774469083823 1 0 10 
2 1 2 
p 1.41774469083823 1 0 10 
2 1 3 
p 1.41774469083823 1 0 20 
2 2 4 
p 1.41774469083823 1 0 20 
2 6 1 
p 1.41774469083823 1 0 20 
2 2 4 
p 1.41774469083823 1 0 20 
2 1 3 
p 1.41774469083823 1 0 20 
2 6 2 
p 1.41774469083823 1 0 20 
2 1 2 
p 1.41774469083823 1 0 10 
2 3 4 
p 1.41774469083823 1 0 10 
2 1 2 
p 1.41774469083823 1 0 10 
2 2 4 
p 1.41774469083823 1 20 30 
2 1 3 
p 1.41774469083823 1 20 30 
2 1 2 
p 1.41774469083823 1 20 30 
2 3 4 
p 1.41774469083823 1 0 10 
2 3 4 
p 1.41774469083823 1 0 10 
2 1 2 
p 1.41774469083823 1 0 10 
2 2 4 
p 1.41774469083823 1 20 30 
2 1 3 
p 1.41774469083823 1 20 30 
2 3 7 
p 1.41774469083823 1 20 30 
5 2 8 9 10 4 
p 1.41774469083823 1 4.71238898038469 5.10508806208341 5.49778714378214 5.89048622548086 6.28318530717959 
5 1 5 6 7 3 
p 1.41774469083823 1 4.71238898038469 5.10508806208341 5.49778714378214 5.89048622548086 6.28318530717959 
5 2 8 9 10 7 
p 1.41774469083823 1 4.71238898038469 5.10508806208341 5.49778714378214 5.89048622548086 6.28318530717959 
5 1 3 4 5 2 
p 1.41774469083823 1 4.71238898038469 5.10508806208341 5.49778714378214 5.89048622548086 6.28318530717959 
2 3 4 
p 1.41774469083823 1 0 10 
2 3 4 
p 1.41774469083823 1 0 10 
2 3 4 
p 1.41774469083823 1 0 10 
2 1 3 
p 1.41774469083823 1 0 40 
2 2 4 
p 1.41774469083823 1 0 40 
2 1 6 
p 1.41774469083823 1 0 40 
2 1 2 
p 1.41774469083823 1 0 10 
2 3 4 
p 1.41774469083823 1 0 10 
2 3 4 
p 1.41774469083823 1 0 10 
2 2 4 
p 1.41774469083823 1 0 40 
2 1 3 
p 1.41774469083823 1 0 40 
2 2 7 
p 1.41774469083823 1 0 40 
2 1 2 
p 1.41774469083823 1 0 10 
2 1 2 
p 1.41774469083823 1 0 10 
2 3 4 
p 1.41774469083823 1 0 10 
5 1 5 6 7 3 
p 1.41774469083823 1 0 0.392699081698724 0.785398163397448 1.17809724509617 1.5707963267949 
5 2 8 9 10 4 
p 1.41774469083823 1 0 0.392699081698724 0.785398163397448 1.17809724509617 1.5707963267949 
5 8 9 10 11 6 
p 1.41774469083823 1 0 0.392699081698724 0.785398163397448 1.17809724509617 1.5707963267949 
5 2 8 9 10 7 
p 1.41774469083823 1 0 0.392699081698724 0.785398163397448 1.17809724509617 1.5707963267949 
2 3 4 
p 1.41774469083823 1 0 10 
2 1 2 
p 1.41774469083823 1 0 10 
2 3 4 
p 1.41774469083823 1 0 10 
5 1 5 6 7 3 
p 1.41774469083823 1 3.14159265358979 3.53429173528852 3.92699081698724 4.31968989868597 4.71238898038469 
5 2 8 9 10 4 
p 1.41774469083823 1 3.14159265358979 3.53429173528852 3.92699081698724 4.31968989868597 4.71238898038469 
5 7 13 14 15 12 
p 1.41774469083823 1 3.14159265358979 3.53429173528852 3.92699081698724 4.31968989868597 4.71238898038469 
5 2 8 9 10 7 
p 1.41774469083823 1 3.14159265358979 3.53429173528852 3.92699081698724 4.31968989868597 4.71238898038469 
2 3 4 
p 1.41774469083823 1 0 10 
2 3 4 
p 1.41774469083823 1 0 10 
2 3 4 
p 1.41774469083823 1 0 10 
2 2 4 
p 1.41774469083823 1 0 40 
2 1 3 
p 1.41774469083823 1 0 40 
2 8 16 
p 1.41774469083823 1 0 40 
2 1 2 
p 1.41774469083823 1 0 10 
2 3 4 
p 1.41774469083823 1 0 10 
2 3 4 
p 1.41774469083823 1 0 10 
2 2 4 
p 1.41774469083823 1 0 40 
2 1 3 
p 1.41774469083823 1 0 40 
2 12 17 
p 1.41774469083823 1 0 40 
5 1 5 6 7 3 
p 1.41774469083823 1 1.5707963267949 1.96349540849362 2.35619449019234 2.74889357189107 3.14159265358979 
5 2 8 9 10 4 
p 1.41774469083823 1 1.5707963267949 1.96349540849362 2.35619449019234 2.74889357189107 3.14159265358979 
5 17 18 19 20 16 
p 1.41774469083823 1 1.5707963267949 1.96349540849362 2.35619449019234 2.74889357189107 3.14159265358979 
5 2 8 9 10 7 
p 1.41774469083823 1 1.5707963267949 1.96349540849362 2.35619449019234 2.74889357189107 3.14159265358979 
2 1 2 
p 1.41774469083823 1 0 10 
2 3 4 
p 1.41774469083823 1 0 10 
16 1 5 6 7 8 9 10 11 12 13 14 15 16 17 18 3 
p 1.41774469083823 1 0 0.418879020478639 0.837758040957278 1.25663706143592 1.67551608191456 2.0943951023932 2.51327412287183 2.93215314335047 3.35103216382911 3.76991118430775 4.18879020478639 4.60766922526503 5.02654824574367 5.44542726622231 5.86430628670095 6.28318530717959 
16 2 19 20 21 22 23 24 25 26 27 28 29 30 31 32 4 
p 1.41774469083823 1 0 0.418879020478639 0.837758040957278 1.25663706143592 1.67551608191456 2.0943951023932 2.51327412287183 2.93215314335047 3.35103216382911 3.76991118430775 4.18879020478639 4.60766922526503 5.02654824574367 5.44542726622231 5.86430628670095 6.28318530717959 
16 21 22 23 24 25 26 27 28 29 30 31 32 33 34 35 21 
p 1.41774469083823 1 0 0.418879020478639 0.837758040957278 1.25663706143592 1.67551608191456 2.0943951023932 2.51327412287183 2.93215314335047 3.35103216382911 3.76991118430775 4.18879020478639 4.60766922526503 5.02654824574367 5.44542726622231 5.86430628670095 6.28318530717959 
16 1 2 3 4 5 6 7 8 9 10 11 12 13 14 15 1 
p 1.41774469083823 1 0 0.418879020478639 0.837758040957278 1.25663706143592 1.67551608191456 2.0943951023932 2.51327412287183 2.93215314335047 3.35103216382911 3.76991118430775 4.18879020478639 4.60766922526503 5.02654824574367 5.44542726622231 5.86430628670095 6.28318530717959 
2 1 2 
p 1.41774469083823 1 0 10 
2 3 4 
p 1.41774469083823 1 0 10 
2 1 2 
p 1.41774469083823 1 0 10 
2 3 4 
p 1.41774469083823 1 0 10 
2 3 4 
p 1.41774469083823 1 0 10 
2 1 2 
p 1.41774469083823 1 0 10 
5 1 5 6 7 3 
p 1.41774469083823 1 0 0.392699081698724 0.785398163397448 1.17809724509617 1.5707963267949 
5 2 8 9 10 4 
p 1.41774469083823 1 0 0.392699081698724 0.785398163397448 1.17809724509617 1.5707963267949 
5 1 3 4 5 2 
p 1.41774469083823 1 0 0.392699081698724 0.785398163397448 1.17809724509617 1.5707963267949 
5 1 4 5 6 3 
p 1.41774469083823 1 0 0.392699081698724 0.785398163397448 1.17809724509617 1.5707963267949 
2 1 2 
p 1.41774469083823 1 0 10 
2 1 2 
p 1.41774469083823 1 0 10 
2 2 4 
p 1.41774469083823 1 0 20 
2 1 3 
p 1.41774469083823 1 0 20 
2 6 1 
p 1.41774469083823 1 0 20 
2 1 3 
p 1.41774469083823 1 0 20 
2 2 4 
p 1.41774469083823 1 0 20 
2 6 2 
p 1.41774469083823 1 0 20 
2 2 4 
p 1.41774469083823 1 20 30 
2 1 3 
p 1.41774469083823 1 20 30 
2 1 2 
p 1.41774469083823 1 20 30 
2 2 4 
p 1.41774469083823 1 20 30 
2 1 3 
p 1.41774469083823 1 20 30 
2 3 7 
p 1.41774469083823 1 20 30 
2 1 2 
p 1.41774469083823 1 0 10 
2 3 4 
p 1.41774469083823 1 0 10 
2 1 2 
p 1.41774469083823 1 0 10 
2 3 4 
p 1.41774469083823 1 0 10 
2 3 4 
p 1.41774469083823 1 0 10 
2 1 2 
p 1.41774469083823 1 0 10 
5 1 5 6 7 3 
p 1.41774469083823 1 3.14159265358979 3.53429173528852 3.92699081698724 4.31968989868597 4.71238898038469 
5 2 8 9 10 4 
p 1.41774469083823 1 3.14159265358979 3.53429173528852 3.92699081698724 4.31968989868597 4.71238898038469 
5 1 3 4 5 2 
p 1.41774469083823 1 3.14159265358979 3.53429173528852 3.92699081698724 4.31968989868597 4.71238898038469 
5 1 4 5 6 3 
p 1.41774469083823 1 3.14159265358979 3.53429173528852 3.92699081698724 4.31968989868597 4.71238898038469 
2 1 2 
p 1.41774469083823 1 0 10 
2 1 2 
p 1.41774469083823 1 0 10 
2 1 3 
p 1.41774469083823 1 0 20 
2 2 4 
p 1.41774469083823 1 0 20 
2 6 1 
p 1.41774469083823 1 0 20 
2 2 4 
p 1.41774469083823 1 0 20 
2 1 3 
p 1.41774469083823 1 0 20 
2 6 2 
p 1.41774469083823 1 0 20 
2 2 4 
p 1.41774469083823 1 20 30 
2 1 3 
p 1.41774469083823 1 20 30 
2 1 2 
p 1.41774469083823 1 20 30 
2 2 4 
p 1.41774469083823 1 20 30 
2 1 3 
p 1.41774469083823 1 20 30 
2 3 7 
p 1.41774469083823 1 20 30 
2 1 2 
p 1.41774469083823 1 0 10 
2 3 4 
p 1.41774469083823 1 0 10 
2 1 2 
p 1.41774469083823 1 0 10 
2 3 4 
p 1.41774469083823 1 0 10 
2 3 4 
p 1.41774469083823 1 0 10 
2 1 2 
p 1.41774469083823 1 0 10 
5 1 5 6 7 3 
p 1.41774469083823 1 1.5707963267949 1.96349540849362 2.35619449019234 2.74889357189107 3.14159265358979 
5 2 8 9 10 4 
p 1.41774469083823 1 1.5707963267949 1.96349540849362 2.35619449019234 2.74889357189107 3.14159265358979 
5 1 3 4 5 2 
p 1.41774469083823 1 1.5707963267949 1.96349540849362 2.35619449019234 2.74889357189107 3.14159265358979 
5 1 4 5 6 3 
p 1.41774469083823 1 1.5707963267949 1.96349540849362 2.35619449019234 2.74889357189107 3.14159265358979 
2 1 2 
p 1.41774469083823 1 0 10 
2 1 2 
p 1.41774469083823 1 0 10 
2 2 4 
p 1.41774469083823 1 0 20 
2 1 3 
p 1.41774469083823 1 0 20 
2 6 1 
p 1.41774469083823 1 0 20 
2 2 4 
p 1.41774469083823 1 0 20 
2 1 3 
p 1.41774469083823 1 0 20 
2 6 2 
p 1.41774469083823 1 0 20 
2 2 4 
p 1.41774469083823 1 20 30 
2 1 3 
p 1.41774469083823 1 20 30 
2 1 2 
p 1.41774469083823 1 20 30 
2 2 4 
p 1.41774469083823 1 20 30 
2 1 3 
p 1.41774469083823 1 20 30 
2 3 7 
p 1.41774469083823 1 20 30 
2 1 2 
p 1.41774469083823 1 0 10 
2 3 4 
p 1.41774469083823 1 0 10 
14 2 17 18 19 20 21 22 23 24 25 26 27 28 4 
p 1.41774469083823 1 0 0.483321946706122 0.966643893412244 1.44996584011837 1.93328778682449 2.41660973353061 2.89993168023673 3.38325362694285 3.86657557364898 4.3498975203551 4.83321946706122 5.31654141376734 5.79986336047346 6.28318530717959 
14 1 5 6 7 8 9 10 11 12 13 14 15 16 3 
p 1.41774469083823 1 0 0.483321946706122 0.966643893412244 1.44996584011837 1.93328778682449 2.41660973353061 2.89993168023673 3.38325362694285 3.86657557364898 4.3498975203551 4.83321946706122 5.31654141376734 5.79986336047346 6.28318530717959 
14 1 2 3 4 5 6 7 8 9 10 11 12 13 1 
p 1.41774469083823 1 0 0.483321946706122 0.966643893412244 1.44996584011837 1.93328778682449 2.41660973353061 2.89993168023673 3.38325362694285 3.86657557364898 4.3498975203551 4.83321946706122 5.31654141376734 5.79986336047346 6.28318530717959 
14 14 15 16 17 18 19 20 21 22 23 24 25 26 14 
p 1.41774469083823 1 0 0.483321946706122 0.966643893412244 1.44996584011837 1.93328778682449 2.41660973353061 2.89993168023673 3.38325362694285 3.86657557364898 4.3498975203551 4.83321946706122 5.31654141376734 5.79986336047346 6.28318530717959 
2 1 2 
p 1.41774469083823 1 0 10 
2 3 4 
p 1.41774469083823 1 0 10 
14 2 17 18 19 20 21 22 23 24 25 26 27 28 4 
p 1.41774469083823 1 0 0.483321946706122 0.966643893412244 1.44996584011837 1.93328778682449 2.41660973353061 2.89993168023673 3.38325362694285 3.86657557364898 4.3498975203551 4.83321946706122 5.31654141376734 5.79986336047346 6.28318530717959 
14 1 5 6 7 8 9 10 11 12 13 14 15 16 3 
p 1.41774469083823 1 0 0.483321946706122 0.966643893412244 1.44996584011837 1.93328778682449 2.41660973353061 2.89993168023673 3.38325362694285 3.86657557364898 4.3498975203551 4.83321946706122 5.31654141376734 5.79986336047346 6.28318530717959 
14 1 2 3 4 5 6 7 8 9 10 11 12 13 1 
p 1.41774469083823 1 0 0.483321946706122 0.966643893412244 1.44996584011837 1.93328778682449 2.41660973353061 2.89993168023673 3.38325362694285 3.86657557364898 4.3498975203551 4.83321946706122 5.31654141376734 5.79986336047346 6.28318530717959 
14 16 17 18 19 20 21 22 23 24 25 26 27 28 16 
p 1.41774469083823 1 0 0.483321946706122 0.966643893412244 1.44996584011837 1.93328778682449 2.41660973353061 2.89993168023673 3.38325362694285 3.86657557364898 4.3498975203551 4.83321946706122 5.31654141376734 5.79986336047346 6.28318530717959 
Surfaces 32
2 -50 50 0 -0 -0 -1 1 0 -0 -0 1 0 20
1 0 0 0 0 0 1 1 0 -0 -0 1 0 
1 -50 50 0 1 -3.5527136788005011e-016 0 -3.5527136788005011e-016 -1 0 0 -0 -1 
1 -50 50 0 3.5527136788005011e-016 1 -0 1 -3.5527136788005011e-016 0 0 -0 -1 
1 -50.000000000000007 30 0 1 -2.3684757858670006e-016 0 -2.3684757858670006e-016 -1 0 0 -0 -1 
2 -50 50 0 -0 -0 -1 1 0 -0 -0 1 0 30
1 -30 49.999999999999993 0 2.3684757858670006e-016 1 -0 1 -2.3684757858670006e-016 0 0 -0 -1 
1 -50 20 0 1 0 -0 0 -1 0 0 -0 -1 
2 -50 -50 0 -0 -0 -1 1 0 -0 -0 1 0 30
1 -20 50 0 0 1 0 1 0 0 0 0 -1 
2 50 50 0 -0 -0 -1 1 0 -0 -0 1 0 30
1 -20 -50 0 0 1 0 1 0 0 0 0 -1 
2 50 -50 0 -0 -0 -1 1 0 -0 -0 1 0 30
1 50 20 0 1 0 -0 0 -1 0 0 -0 -1 
2 0 0 0 -0 -0 -1 1 0 -0 -0 1 0 30
2 -50 -50 0 -0 -0 -1 1 0 -0 -0 1 0 20
1 -50 -50 0 0 1 0 1 0 0 0 0 -1 
1 -50 -50 0 -1 0 0 0 1 0 0 0 -1 
1 -30 -50 0 0 1 0 1 0 0 0 0 -1 
1 -50 -30 0 -1 0 0 0 1 0 0 0 -1 
2 50 50 0 -0 -0 -1 1 0 -0 -0 1 0 20
1 50 50 0 0 -1 0 -1 0 0 -0 -0 -1 
1 50 50 0 1 -3.5527136788005011e-016 0 -3.5527136788005011e-016 -1 0 0 -0 -1 
1 30 50.000000000000007 0 -2.3684757858670006e-016 -1 0 -1 2.3684757858670006e-016 0 -0 0 -1 
1 49.999999999999993 30 0 1 -2.3684757858670006e-016 0 -2.3684757858670006e-016 -1 0 0 -0 -1 
2 50 -50 0 -0 -0 -1 1 0 -0 -0 1 0 20
1 50 -50 0 -1 0 0 0 1 0 0 0 -1 
1 50 -50 0 0 -1 0 -1 0 0 -0 -0 -1 
1 50 -30 0 -1 0 0 0 1 0 0 0 -1 
1 30 -49.999999999999993 0 -2.3684757858670006e-016 -1 0 -1 2.3684757858670006e-016 0 -0 0 -1 
2 0 0 0 -0 -0 -1 1 0 -0 -0 1 0 10
2 0 0 0 -0 -0 -1 1 0 -0 -0 1 0 20
Triangulations 43
10 8 1 0.384294391935394
-50 30 0 -50 30 10 -30 50 0 -30 50 10 -42.3463313526982 31.5224093497743 0 -35.857864376269 35.8578643762691 0 -31.5224093497743 42.3463313526982 0 -42.3463313526982 31.5224093497743 10 -35.857864376269 35.8578643762691 10 -31.5224093497743 42.3463313526982 10 4.71238898038469 0 4.71238898038469 -10 6.28318530717959 0 6.28318530717959 -10 5.10508806208341 0 5.49778714378214 0 5.89048622548086 0 5.10508806208341 -10 5.49778714378214 -10 5.89048622548086 -10 5 1 2 5 2 8 6 8 9 6 5 8 7 9 10 7 6 9 3 10 4 3 7 10 
4 2 1 3.5527136788005e-015
-50 50 0 -50 50 10 -50 30 0 -50 30 10 0 0 0 -10 20 0 20 -10 3 1 2 3 2 4 
4 2 1 4.736951571734e-015
-50 30 0 -50 30 10 -50 20 0 -50 20 10 0 0 0 -10 10 0 10 -10 3 1 2 3 2 4 
4 2 1 3.5527136788005e-015
-50 50 0 -50 50 10 -30 50 0 -30 50 10 0 0 0 -10 20 0 20 -10 3 1 2 3 2 4 
4 2 1 4.736951571734e-015
-30 50 0 -30 50 10 -20 50 0 -20 50 10 0 0 0 -10 10 0 10 -10 3 1 2 3 2 4 
6 4 1 3.5527136788005e-015
-50 30 0 -30 50 0 -42.3463313526982 31.5224093497743 0 -35.857864376269 35.8578643762691 0 -31.5224093497743 42.3463313526982 0 -50 50 0 -50 30 -30 50 -42.3463313526982 31.5224093497743 -35.857864376269 35.8578643762691 -31.5224093497743 42.3463313526982 -50 50 6 1 3 4 6 3 5 6 4 2 6 5 
10 8 1 3.10862446895044e-015
-50 30 0 -50 20 0 -30 50 0 -42.3463313526982 31.5224093497743 0 -35.857864376269 35.8578643762691 0 -31.5224093497743 42.3463313526982 0 -20 50 0 -38.5194970290473 22.2836140246614 0 -28.7867965644036 28.7867965644036 0 -22.2836140246614 38.5194970290473 0 -50 30 -50 20 -30 50 -42.3463313526982 31.5224093497743 -35.857864376269 35.8578643762691 -31.5224093497743 42.3463313526982 -20 50 -38.5194970290473 22.2836140246614 -28.7867965644036 28.7867965644036 -22.2836140246614 38.5194970290473 4 1 2 4 2 8 9 5 4 9 4 8 10 6 5 10 5 9 3 6 10 7 3 10 
10 8 1 0.57644158790309
-50 20 0 -50 20 10 -20 50 0 -20 50 10 -38.5194970290473 22.2836140246614 0 -28.7867965644036 28.7867965644036 0 -22.2836140246614 38.5194970290473 0 -38.5194970290473 22.2836140246614 10 -28.7867965644036 28.7867965644036 10 -22.2836140246614 38.5194970290473 10 4.71238898038469 0 4.71238898038469 -10 6.28318530717959 0 6.28318530717959 -10 5.10508806208341 0 5.49778714378214 0 5.89048622548086 0 5.10508806208341 -10 5.49778714378214 -10 5.89048622548086 -10 5 1 2 5 2 8 6 8 9 6 5 8 7 9 10 7 10 4 7 6 9 3 7 4 
4 2 1 0
-50 20 0 -50 20 10 -50 -20 0 -50 -20 10 0 0 0 -10 40 0 40 -10 3 1 2 3 2 4 
4 2 1 0
-20 50 0 -20 50 10 20 50 0 20 50 10 0 0 0 -10 40 0 40 -10 3 1 2 3 2 4 
35 35 1 5.32907051820075e-015
-50 20 0 -20 50 0 -38.5194970290473 22.2836140246614 0 -28.7867965644036 28.7867965644036 0 -22.2836140246614 38.5194970290473 0 -50 -20 0 20 50 0 -20 -50 0 -22.2836140246614 -38.5194970290473 0 -28.7867965644036 -28.7867965644036 0 -38.5194970290473 -22.2836140246614 0 50 20 0 22.2836140246614 38.5194970290473 0 28.7867965644036 28.7867965644036 0 38.5194970290473 22.2836140246614 0 20 -50 0 50 -20 0 38.5194970290473 -22.2836140246614 0 28.7867965644036 -28.7867965644036 0 22.2836140246614 -38.5194970290473 0 30 0 0 27.406363729278 12.202099292274 0 20.0739181907657 22.2943447643218 0 9.27050983124842 28.5316954888546 0 -3.1358538980296 29.8356568610482 0 -15 25.9807621135332 0 -24.2705098312484 17.6335575687742 0 -29.3444280220142 6.23735072453278 0 -29.3444280220142 -6.23735072453279 0 -24.2705098312484 -17.6335575687742 0 -15 -25.9807621135332 0 -3.1358538980296 -29.8356568610482 0 9.27050983124842 -28.5316954888546 0 20.0739181907657 -22.2943447643218 0 27.406363729278 -12.202099292274 0 -50 20 -20 50 -38.5194970290473 22.2836140246614 -28.7867965644036 28.7867965644036 -22.2836140246614 38.5194970290473 -50 -20 20 50 -20 -50 -22.2836140246614 -38.5194970290473 -28.7867965644036 -28.7867965644036 -38.5194970290473 -22.2836140246614 50 20 22.2836140246614 38.5194970290473 28.7867965644036 28.7867965644036 38.5194970290473 22.2836140246614 20 -50 50 -20 38.5194970290473 -22.2836140246614 28.7867965644036 -28.7867965644036 22.2836140246614 -38.5194970290473 30 0 27.406363729278 12.202099292274 20.0739181907657 22.2943447643218 9.27050983124843 28.5316954888546 -3.1358538980296 29.8356568610482 -15 25.9807621135332 -24.2705098312484 17.6335575687742 -29.3444280220142 6.23735072453278 -29.3444280220142 -6.23735072453279 -24.2705098312484 -17.6335575687742 -15 -25.9807621135332 -3.1358538980296 -29.8356568610482 9.27050983124842 -28.5316954888546 20.0739181907657 -22.2943447643218 27.406363729278 -12.202099292274 7 2 25 7 24 13 30 11 10 31 10 9 31 30 10 29 6 11 29 11 30 32 9 8 32 31 9 16 32 8 28 1 6 28 6 29 33 32 16 20 33 16 3 1 28 27 3 28 34 33 20 19 34 20 4 3 27 26 4 27 35 34 19 18 35 19 5 4 26 25 5 26 21 18 17 21 35 18 2 5 25 14 23 22 15 22 21 15 14 22 13 24 23 13 23 14 12 15 21 12 21 17 7 25 24 
10 8 1 0.576441587903087
-20 -50 0 -20 -50 10 -50 -20 0 -50 -20 10 -22.2836140246614 -38.5194970290473 0 -28.7867965644036 -28.7867965644036 0 -38.5194970290473 -22.2836140246614 0 -22.2836140246614 -38.5194970290473 10 -28.7867965644036 -28.7867965644036 10 -38.5194970290473 -22.2836140246614 10 0 0 0 -10 1.5707963267949 0 1.5707963267949 -10 0.392699081698724 0 0.785398163397448 0 1.17809724509617 0 0.392699081698724 -10 0.785398163397448 -10 1.17809724509617 -10 5 1 2 5 2 8 6 8 9 6 5 8 7 9 10 7 6 9 3 10 4 3 7 10 
4 2 1 0
-50 -30 0 -50 -30 10 -50 -20 0 -50 -20 10 0 0 0 -10 10 0 10 -10 3 1 2 3 2 4 
10 8 1 0.576441587903089
20 50 0 20 50 10 50 20 0 50 20 10 22.2836140246614 38.5194970290473 0 28.7867965644036 28.7867965644036 0 38.5194970290473 22.2836140246614 0 22.2836140246614 38.5194970290473 10 28.7867965644036 28.7867965644036 10 38.5194970290473 22.2836140246614 10 3.14159265358979 0 3.14159265358979 -10 4.71238898038469 0 4.71238898038469 -10 3.53429173528852 0 3.92699081698724 0 4.31968989868597 0 3.53429173528852 -10 3.92699081698724 -10 4.31968989868597 -10 5 1 2 5 2 8 6 8 9 6 5 8 7 9 10 7 6 9 3 10 4 3 7 10 
4 2 1 7.105427357601e-015
30 50 0 30 50 10 20 50 0 20 50 10 0 0 0 -10 10 0 10 -10 3 1 2 3 2 4 
4 2 1 0
-20 -50 0 -20 -50 10 20 -50 0 20 -50 10 0 0 0 -10 40 0 40 -10 3 1 2 3 2 4 
4 2 1 0
-30 -50 0 -30 -50 10 -20 -50 0 -20 -50 10 0 0 0 -10 10 0 10 -10 3 1 2 3 2 4 
10 8 1 3.33066907387547e-015
-30 -50 0 -20 -50 0 -50 -30 0 -31.5224093497743 -42.3463313526982 0 -35.857864376269 -35.857864376269 0 -42.3463313526982 -31.5224093497743 0 -50 -20 0 -22.2836140246614 -38.5194970290473 0 -28.7867965644036 -28.7867965644036 0 -38.5194970290473 -22.2836140246614 0 -30 -50 -20 -50 -50 -30 -31.5224093497743 -42.3463313526982 -35.857864376269 -35.857864376269 -42.3463313526982 -31.5224093497743 -50 -20 -22.2836140246614 -38.5194970290473 -28.7867965644036 -28.7867965644036 -38.5194970290473 -22.2836140246614 7 3 6 8 1 2 8 4 1 10 7 6 9 5 4 9 6 5 9 4 8 9 10 6 
4 2 1 0
50 20 0 50 20 10 50 -20 0 50 -20 10 0 0 0 -10 40 0 40 -10 3 1 2 3 2 4 
4 2 1 4.736951571734e-015
50 30 0 50 30 10 50 20 0 50 20 10 0 0 0 -10 10 0 10 -10 3 1 2 3 2 4 
10 8 1 5.32907051820075e-015
30 50 0 20 50 0 50 30 0 31.5224093497743 42.3463313526982 0 35.857864376269 35.857864376269 0 42.3463313526982 31.5224093497743 0 50 20 0 22.2836140246614 38.5194970290473 0 28.7867965644036 28.7867965644036 0 38.5194970290473 22.2836140246614 0 30 50 20 50 50 30 31.5224093497743 42.3463313526982 35.857864376269 35.857864376269 42.3463313526982 31.5224093497743 50 20 22.2836140246614 38.5194970290473 28.7867965644036 28.7867965644036 38.5194970290473 22.2836140246614 5 9 10 6 5 10 4 8 9 4 9 5 1 2 8 1 8 4 3 10 7 3 6 10 
10 8 1 0.576441587903089
50 -20 0 50 -20 10 20 -50 0 20 -50 10 38.5194970290473 -22.2836140246614 0 28.7867965644036 -28.7867965644036 0 22.2836140246614 -38.5194970290473 0 38.5194970290473 -22.2836140246614 10 28.7867965644036 -28.7867965644036 10 22.2836140246614 -38.5194970290473 10 1.5707963267949 0 1.5707963267949 -10 3.14159265358979 0 3.14159265358979 -10 1.96349540849362 0 2.35619449019234 0 2.74889357189107 0 1.96349540849362 -10 2.35619449019234 -10 2.74889357189107 -10 5 1 2 5 2 8 6 8 9 6 5 8 7 9 10 7 6 9 3 10 4 3 7 10 
4 2 1 7.105427357601e-015
30 -50 0 30 -50 10 20 -50 0 20 -50 10 0 0 0 -10 10 0 10 -10 3 1 2 3 2 4 
4 2 1 0
50 -30 0 50 -30 10 50 -20 0 50 -20 10 0 0 0 -10 10 0 10 -10 3 1 2 3 2 4 
10 8 1 3.5527136788005e-015
50 -30 0 50 -20 0 30 -50 0 42.3463313526982 -31.5224093497743 0 35.857864376269 -35.857864376269 0 31.5224093497743 -42.3463313526982 0 20 -50 0 38.5194970290473 -22.2836140246614 0 28.7867965644036 -28.7867965644036 0 22.2836140246614 -38.5194970290473 0 50 -30 50 -20 30 -50 42.3463313526982 -31.5224093497743 35.857864376269 -35.857864376269 31.5224093497743 -42.3463313526982 20 -50 38.5194970290473 -22.2836140246614 28.7867965644036 -28.7867965644036 22.2836140246614 -38.5194970290473 6 7 3 6 10 7 9 6 5 9 10 6 8 5 4 8 9 5 2 4 1 2 8 4 
32 30 1 0.655571977985835
30 0 0 30 0 10 30 0 0 30 0 10 27.406363729278 12.202099292274 0 20.0739181907657 22.2943447643218 0 9.27050983124842 28.5316954888546 0 -3.1358538980296 29.8356568610482 0 -15 25.9807621135332 0 -24.2705098312484 17.6335575687742 0 -29.3444280220142 6.23735072453278 0 -29.3444280220142 -6.23735072453279 0 -24.2705098312484 -17.6335575687742 0 -15 -25.9807621135332 0 -3.1358538980296 -29.8356568610482 0 9.27050983124842 -28.5316954888546 0 20.0739181907657 -22.2943447643218 0 27.406363729278 -12.202099292274 0 27.406363729278 12.202099292274 10 20.0739181907657 22.2943447643218 10 9.27050983124842 28.5316954888546 10 -3.1358538980296 29.8356568610482 10 -15 25.9807621135332 10 -24.2705098312484 17.6335575687742 10 -29.3444280220142 6.23735072453278 10 -29.3444280220142 -6.23735072453279 10 -24.2705098312484 -17.6335575687742 10 -15 -25.9807621135332 10 -3.1358538980296 -29.8356568610482 10 9.27050983124842 -28.5316954888546 10 20.0739181907657 -22.2943447643218 10 27.406363729278 -12.202099292274 10 0 0 0 -10 6.28318530717959 0 6.28318530717959 -10 0.418879020478639 0 0.837758040957278 0 1.25663706143592 0 1.67551608191456 0 2.0943951023932 0 2.51327412287183 0 2.93215314335047 0 3.35103216382911 0 3.76991118430775 0 4.18879020478639 0 4.60766922526503 0 5.02654824574367 0 5.44542726622231 0 5.86430628670095 0 0.418879020478639 -10 0.837758040957278 -10 1.25663706143592 -10 1.67551608191456 -10 2.0943951023932 -10 2.51327412287183 -10 2.93215314335047 -10 3.35103216382911 -10 3.76991118430775 -10 4.18879020478639 -10 4.60766922526503 -10 5.02654824574367 -10 5.44542726622231 -10 5.86430628670095 -10 5 1 2 5 2 19 6 19 20 6 5 19 7 20 21 7 6 20 8 21 22 8 7 21 9 22 23 9 8 22 10 23 24 10 9 23 11 24 25 11 10 24 12 25 26 12 11 25 13 26 27 13 12 26 14 27 28 14 13 27 15 28 29 15 14 28 16 29 30 16 15 29 17 30 31 17 16 30 18 31 32 18 17 31 3 32 4 3 18 32 
28 28 1 2.44249065417534e-015
30 0 0 27.406363729278 12.202099292274 0 20.0739181907657 22.2943447643218 0 9.27050983124842 28.5316954888546 0 -3.1358538980296 29.8356568610482 0 -15 25.9807621135332 0 -24.2705098312484 17.6335575687742 0 -29.3444280220142 6.23735072453278 0 -29.3444280220142 -6.23735072453279 0 -24.2705098312484 -17.6335575687742 0 -15 -25.9807621135332 0 -3.1358538980296 -29.8356568610482 0 9.27050983124842 -28.5316954888546 0 20.0739181907657 -22.2943447643218 0 27.406363729278 -12.202099292274 0 20 0 0 17.7091205130642 9.29446344087537 0 11.3612949346231 16.4596773178731 0 2.41073360510646 19.8541774819611 0 -7.09209774085071 18.7003248537083 0 -14.970214963422 13.2624531648159 0 -19.418836348521 4.78631328575116 0 -19.418836348521 -4.78631328575115 0 -14.970214963422 -13.2624531648159 0 -7.09209774085072 -18.7003248537083 0 2.41073360510645 -19.8541774819611 0 11.3612949346231 -16.4596773178731 0 17.7091205130642 -9.2944634408754 0 30 0 27.406363729278 12.202099292274 20.0739181907657 22.2943447643218 9.27050983124843 28.5316954888546 -3.1358538980296 29.8356568610482 -15 25.9807621135332 -24.2705098312484 17.6335575687742 -29.3444280220142 6.23735072453278 -29.3444280220142 -6.23735072453279 -24.2705098312484 -17.6335575687742 -15 -25.9807621135332 -3.1358538980296 -29.8356568610482 9.27050983124842 -28.5316954888546 20.0739181907657 -22.2943447643218 27.406363729278 -12.202099292274 20 0 17.7091205130642 9.29446344087537 11.3612949346231 16.4596773178731 2.41073360510646 19.8541774819611 -7.09209774085071 18.7003248537083 -14.970214963422 13.2624531648159 -19.418836348521 4.78631328575116 -19.418836348521 -4.78631328575115 -14.970214963422 -13.2624531648159 -7.09209774085072 -18.7003248537083 2.41073360510645 -19.8541774819611 11.3612949346231 -16.4596773178731 17.7091205130642 -9.2944634408754 24 10 11 25 11 12 25 24 11 23 9 10 23 10 24 8 9 23 26 12 13 26 25 12 22 8 23 7 8 22 27 26 13 14 27 13 21 7 22 28 27 14 6 7 21 20 6 21 15 28 14 16 28 15 5 20 19 5 6 20 1 16 15 4 19 18 4 5 19 2 17 16 2 16 1 3 18 17 3 4 18 3 17 2 
10 8 1 0.384294391935391
-30 -50 0 -30 -50 10 -50 -30 0 -50 -30 10 -31.5224093497743 -42.3463313526982 0 -35.857864376269 -35.857864376269 0 -42.3463313526982 -31.5224093497743 0 -31.5224093497743 -42.3463313526982 10 -35.857864376269 -35.857864376269 10 -42.3463313526982 -31.5224093497743 10 0 0 0 -10 1.5707963267949 0 1.5707963267949 -10 0.392699081698724 0 0.785398163397448 0 1.17809724509617 0 0.392699081698724 -10 0.785398163397448 -10 1.17809724509617 -10 5 1 2 5 2 8 6 8 9 6 5 8 7 9 10 7 6 9 3 10 4 3 7 10 
4 2 1 0
-50 -50 0 -50 -50 10 -30 -50 0 -30 -50 10 0 0 0 -10 20 0 20 -10 3 1 2 3 2 4 
4 2 1 0
-50 -50 0 -50 -50 10 -50 -30 0 -50 -30 10 0 0 0 -10 20 0 20 -10 3 1 2 3 2 4 
6 4 1 0
-30 -50 0 -50 -30 0 -31.5224093497743 -42.3463313526982 0 -35.857864376269 -35.857864376269 0 -42.3463313526982 -31.5224093497743 0 -50 -50 0 -30 -50 -50 -30 -31.5224093497743 -42.3463313526982 -35.857864376269 -35.857864376269 -42.3463313526982 -31.5224093497743 -50 -50 5 2 6 3 6 1 4 5 6 4 6 3 
10 8 1 0.384294391935395
30 50 0 30 50 10 50 30 0 50 30 10 31.5224093497743 42.3463313526982 0 35.857864376269 35.857864376269 0 42.3463313526982 31.5224093497743 0 31.5224093497743 42.3463313526982 10 35.857864376269 35.857864376269 10 42.3463313526982 31.5224093497743 10 3.14159265358979 0 3.14159265358979 -10 4.71238898038469 0 4.71238898038469 -10 3.53429173528852 0 3.92699081698724 0 4.31968989868597 0 3.53429173528852 -10 3.92699081698724 -10 4.31968989868597 -10 5 1 2 5 2 8 6 8 9 6 5 8 7 9 10 7 6 9 3 10 4 3 7 10 
4 2 1 0
50 50 0 50 50 10 30 50 0 30 50 10 0 0 0 -10 20 0 20 -10 3 1 2 3 2 4 
4 2 1 3.5527136788005e-015
50 50 0 50 50 10 50 30 0 50 30 10 0 0 0 -10 20 0 20 -10 3 1 2 3 2 4 
6 4 1 3.5527136788005e-015
30 50 0 50 30 0 31.5224093497743 42.3463313526982 0 35.857864376269 35.857864376269 0 42.3463313526982 31.5224093497743 0 50 50 0 30 50 50 30 31.5224093497743 42.3463313526982 35.857864376269 35.857864376269 42.3463313526982 31.5224093497743 50 50 6 1 3 6 3 4 6 4 5 6 5 2 
10 8 1 0.384294391935392
50 -30 0 50 -30 10 30 -50 0 30 -50 10 42.3463313526982 -31.5224093497743 0 35.857864376269 -35.857864376269 0 31.5224093497743 -42.3463313526982 0 42.3463313526982 -31.5224093497743 10 35.857864376269 -35.857864376269 10 31.5224093497743 -42.3463313526982 10 1.5707963267949 0 1.5707963267949 -10 3.14159265358979 0 3.14159265358979 -10 1.96349540849362 0 2.35619449019234 0 2.74889357189107 0 1.96349540849362 -10 2.35619449019234 -10 2.74889357189107 -10 5 1 2 5 2 8 6 8 9 6 5 8 7 9 10 7 6 9 3 10 4 3 7 10 
4 2 1 0
50 -50 0 50 -50 10 50 -30 0 50 -30 10 0 0 0 -10 20 0 20 -10 3 1 2 3 2 4 
4 2 1 0
50 -50 0 50 -50 10 30 -50 0 30 -50 10 0 0 0 -10 20 0 20 -10 3 1 2 3 2 4 
6 4 1 3.10862446895044e-015
50 -30 0 30 -50 0 42.3463313526982 -31.5224093497743 0 35.857864376269 -35.857864376269 0 31.5224093497743 -42.3463313526982 0 50 -50 0 50 -30 30 -50 42.3463313526982 -31.5224093497743 35.857864376269 -35.857864376269 31.5224093497743 -42.3463313526982 50 -50 6 4 5 6 5 2 3 4 6 1 3 6 
28 26 1 0.290581825739482
10 0 0 10 0 10 10 0 0 10 0 10 8.8545602565321 4.64723172043769 0 5.68064746731156 8.22983865893656 0 1.20536680255323 9.92708874098054 0 -3.54604887042535 9.35016242685415 0 -7.48510748171101 6.63122658240796 0 -9.70941817426052 2.39315664287558 0 -9.70941817426052 -2.39315664287557 0 -7.48510748171101 -6.63122658240795 0 -3.54604887042536 -9.35016242685415 0 1.20536680255322 -9.92708874098054 0 5.68064746731155 -8.22983865893657 0 8.85456025653209 -4.6472317204377 0 8.8545602565321 4.64723172043769 10 5.68064746731156 8.22983865893656 10 1.20536680255323 9.92708874098054 10 -3.54604887042535 9.35016242685415 10 -7.48510748171101 6.63122658240796 10 -9.70941817426052 2.39315664287558 10 -9.70941817426052 -2.39315664287557 10 -7.48510748171101 -6.63122658240795 10 -3.54604887042536 -9.35016242685415 10 1.20536680255322 -9.92708874098054 10 5.68064746731155 -8.22983865893657 10 8.85456025653209 -4.6472317204377 10 0 0 0 -10 6.28318530717959 0 6.28318530717959 -10 0.483321946706122 0 0.966643893412244 0 1.44996584011837 0 1.93328778682449 0 2.41660973353061 0 2.89993168023673 0 3.38325362694285 0 3.86657557364898 0 4.3498975203551 0 4.83321946706122 0 5.31654141376734 0 5.79986336047346 0 0.483321946706122 -10 0.966643893412244 -10 1.44996584011837 -10 1.93328778682449 -10 2.41660973353061 -10 2.89993168023673 -10 3.38325362694285 -10 3.86657557364898 -10 4.3498975203551 -10 4.83321946706122 -10 5.31654141376734 -10 5.79986336047346 -10 5 1 2 5 2 17 6 17 18 6 5 17 7 18 19 7 6 18 8 19 20 8 7 19 9 20 21 9 8 20 10 21 22 10 9 21 11 22 23 11 10 22 12 23 24 12 11 23 13 24 25 13 12 24 14 25 26 14 13 25 15 26 27 15 14 26 16 27 28 16 28 4 16 15 27 3 16 4 
13 11 1 1.33226762955019e-015
10 0 0 8.8545602565321 4.64723172043769 0 5.68064746731156 8.22983865893656 0 1.20536680255323 9.92708874098054 0 -3.54604887042535 9.35016242685415 0 -7.48510748171101 6.63122658240796 0 -9.70941817426052 2.39315664287558 0 -9.70941817426052 -2.39315664287557 0 -7.48510748171101 -6.63122658240795 0 -3.54604887042536 -9.35016242685415 0 1.20536680255322 -9.92708874098054 0 5.68064746731155 -8.22983865893657 0 8.85456025653209 -4.6472317204377 0 10 0 8.8545602565321 4.64723172043768 5.68064746731156 8.22983865893656 1.20536680255323 9.92708874098054 -3.54604887042535 9.35016242685415 -7.48510748171101 6.63122658240795 -9.70941817426052 2.39315664287558 -9.70941817426052 -2.39315664287557 -7.48510748171101 -6.63122658240795 -3.54604887042536 -9.35016242685415 1.20536680255322 -9.92708874098054 5.68064746731155 -8.22983865893657 8.85456025653209 -4.6472317204377 11 9 10 7 8 9 12 9 11 13 9 12 1 7 9 1 9 13 3 1 2 3 4 5 3 5 6 3 6 7 3 7 1 
26 26 1 2.22044604925031e-015
20 0 0 17.7091205130642 9.29446344087537 0 11.3612949346231 16.4596773178731 0 2.41073360510646 19.8541774819611 0 -7.09209774085071 18.7003248537083 0 -14.970214963422 13.2624531648159 0 -19.418836348521 4.78631328575116 0 -19.418836348521 -4.78631328575115 0 -14.970214963422 -13.2624531648159 0 -7.09209774085072 -18.7003248537083 0 2.41073360510645 -19.8541774819611 0 11.3612949346231 -16.4596773178731 0 17.7091205130642 -9.2944634408754 0 10 0 0 8.8545602565321 4.64723172043769 0 5.68064746731156 8.22983865893656 0 1.20536680255323 9.92708874098054 0 -3.54604887042535 9.35016242685415 0 -7.48510748171101 6.63122658240796 0 -9.70941817426052 2.39315664287558 0 -9.70941817426052 -2.39315664287557 0 -7.48510748171101 -6.63122658240795 0 -3.54604887042536 -9.35016242685415 0 1.20536680255322 -9.92708874098054 0 5.68064746731155 -8.22983865893657 0 8.85456025653209 -4.6472317204377 0 20 0 17.7091205130642 9.29446344087537 11.3612949346231 16.4596773178731 2.41073360510646 19.8541774819611 -7.09209774085071 18.7003248537083 -14.970214963422 13.2624531648159 -19.418836348521 4.78631328575116 -19.418836348521 -4.78631328575115 -14.970214963422 -13.2624531648159 -7.09209774085072 -18.7003248537083 2.41073360510645 -19.8541774819611 11.3612949346231 -16.4596773178731 17.7091205130642 -9.2944634408754 10 0 8.8545602565321 4.64723172043768 5.68064746731156 8.22983865893656 1.20536680255323 9.92708874098054 -3.54604887042536 9.35016242685415 -7.48510748171101 6.63122658240795 -9.70941817426052 2.39315664287558 -9.70941817426052 -2.39315664287557 -7.48510748171101 -6.63122658240795 -3.54604887042536 -9.35016242685415 1.20536680255322 -9.92708874098054 5.68064746731155 -8.22983865893657 8.85456025653209 -4.6472317204377 22 8 9 23 9 10 23 22 9 21 8 22 24 10 11 24 23 10 20 7 8 20 8 21 25 11 12 25 24 11 19 6 7 19 7 20 13 26 25 13 25 12 5 18 17 5 19 18 5 6 19 1 14 26 1 26 13 4 5 17 2 15 14 2 14 1 3 16 15 3 17 16 3 4 17 3 15 2 
28 26 1 0.581163651478964
20 0 0 20 0 10 20 0 0 20 0 10 17.7091205130642 9.29446344087537 0 11.3612949346231 16.4596773178731 0 2.41073360510646 19.8541774819611 0 -7.09209774085071 18.7003248537083 0 -14.970214963422 13.2624531648159 0 -19.418836348521 4.78631328575116 0 -19.418836348521 -4.78631328575115 0 -14.970214963422 -13.2624531648159 0 -7.09209774085072 -18.7003248537083 0 2.41073360510645 -19.8541774819611 0 11.3612949346231 -16.4596773178731 0 17.7091205130642 -9.2944634408754 0 17.7091205130642 9.29446344087537 10 11.3612949346231 16.4596773178731 10 2.41073360510646 19.8541774819611 10 -7.09209774085071 18.7003248537083 10 -14.970214963422 13.2624531648159 10 -19.418836348521 4.78631328575116 10 -19.418836348521 -4.78631328575115 10 -14.970214963422 -13.2624531648159 10 -7.09209774085072 -18.7003248537083 10 2.41073360510645 -19.8541774819611 10 11.3612949346231 -16.4596773178731 10 17.7091205130642 -9.2944634408754 10 0 0 0 -10 6.28318530717959 0 6.28318530717959 -10 0.483321946706122 0 0.966643893412244 0 1.44996584011837 0 1.93328778682449 0 2.41660973353061 0 2.89993168023673 0 3.38325362694285 0 3.86657557364898 0 4.3498975203551 0 4.83321946706122 0 5.31654141376734 0 5.79986336047346 0 0.483321946706122 -10 0.966643893412244 -10 1.44996584011837 -10 1.93328778682449 -10 2.41660973353061 -10 2.89993168023673 -10 3.38325362694285 -10 3.86657557364898 -10 4.3498975203551 -10 4.83321946706122 -10 5.31654141376734 -10 5.79986336047346 -10 5 1 2 5 2 17 6 17 18 6 5 17 7 18 19 7 6 18 8 19 20 8 7 19 9 20 21 9 8 20 10 21 22 10 9 21 11 22 23 11 10 22 12 23 24 12 11 23 13 24 25 13 12 24 14 25 26 14 13 25 15 26 27 15 14 26 16 27 28 16 15 27 3 28 4 3 16 28 

TShapes 192
Ve
1e-007
-50 30 0
0 0

0101101
*
Ed
 1e-007 1 1 0
1  1 0 0 10
2  1 1 0 0 10
6  1 1 0
6  2 2 0
6  3 3 0
0

0101000
+192 0 -192 1 *
Ve
1e-007
-30 50 0
0 0

0101101
*
Ed
 1e-007 1 1 0
1  2 0 0 10
2  2 1 0 0 10
6  4 1 0
6  5 4 0
6  6 5 0
0

0101000
+190 0 -190 1 *
Ed
 1e-007 1 1 0
1  3 0 4.71238898038469 6.28318530717959
2  3 2 0 4.71238898038469 6.28318530717959
2  4 1 0 4.71238898038469 6.28318530717959
2  5 1 2 4.71238898038469 6.28318530717959
6  7 1 0
6  8 1 2
6  9 6 0
6  10 7 0
0

0101000
+192 0 -190 0 *
Wi

0101100
+191 0 -189 0 -188 0 +188 1 *
Fa
0  1e-007 1 0
2  1
0101000
+187 0 *
Ve
1e-007
-50 50 0
0 0

0101101
*
Ed
 1e-007 1 1 0
1  4 0 0 10
6  11 2 0
6  12 4 0
0

0101000
+185 0 -185 1 *
Ed
 1e-007 1 1 0
1  5 0 0 20
2  6 2 0 0 20
6  13 2 0
6  14 2 2
6  15 6 0
0

0101000
+185 0 -192 0 *
Wi

0101100
+184 0 -191 0 -183 0 +183 1 *
Fa
0  1e-007 3 0
2  2
0101000
+182 0 *
Ed
 1e-007 1 1 0
1  6 0 0 20
2  7 2 0 0 20
6  16 4 2
6  17 4 0
6  18 6 0
0

0101000
+185 0 -190 0 *
Wi

0101100
+184 0 -189 0 -180 0 +180 1 *
Fa
0  1e-007 4 0
2  4
0101000
+179 0 *
Wi

0101100
+188 0 +183 0 -180 0 *
Fa
0  1e-007 2 0
2  6
0101000
+177 0 *
Sh

0101100
+186 0 +181 0 -178 0 +176 0 -176 1 *
So

0100000
-175 0 *
Ve
1.00000003552714e-007
-50 20 0
0 0

0101101
*
Ed
 1.00000003552714e-007 1 1 0
1  7 0 0 10
2  8 6 0 0 10
6  19 8 0
6  20 3 0
6  21 9 0
0

0101000
+173 0 -173 1 *
Ed
 1e-007 1 1 0
1  8 0 20 30
2  9 2 0 20 30
6  22 3 2
6  23 3 0
6  24 7 0
0

0101000
+192 0 -173 0 *
Wi

0101100
+191 0 -172 0 -171 0 +171 1 *
Fa
0  1e-007 5 0
2  3
0101000
+170 0 *
Ve
1.00000003552714e-007
-20 50 0
0 0

0101101
*
Ed
 1.00000003552714e-007 1 1 0
1  9 0 0 10
2  10 6 0 0 10
6  25 8 0
6  26 5 0
6  27 10 0
0

0101000
+168 0 -168 1 *
Ed
 1e-007 1 1 0
1  10 0 20 30
2  11 2 0 20 30
6  28 5 2
6  29 5 0
6  30 7 0
0

0101000
+190 0 -168 0 *
Wi

0101100
+189 0 -167 0 -166 0 +166 1 *
Fa
0  1e-007 7 0
2  5
0101000
+165 0 *
Ed
 1e-007 1 1 0
1  11 0 4.71238898038469 6.28318530717959
2  12 2 0 4.71238898038469 6.28318530717959
2  13 6 0 4.71238898038469 6.28318530717959
2  14 6 2 4.71238898038469 6.28318530717959
6  31 8 2
6  32 8 0
6  33 7 0
6  34 11 0
0

0101000
+173 0 -168 0 *
Wi

0101100
+172 0 -167 0 -163 0 +163 1 *
Fa
0  1e-007 6 0
2  8
0101000
+162 0 *
Wi

0101100
+171 0 -188 0 -166 0 +163 0 *
Fa
0  1e-007 2 0
2  7
0101000
+160 0 *
Sh

0101100
+169 0 -186 0 -164 0 +161 0 +159 0 -159 1 *
So

0100000
-158 0 *
Ve
1e-007
-50 -20 0
0 0

0101101
*
Ed
 1e-007 1 1 0
1  12 0 0 10
2  15 9 0 0 10
6  35 12 0
6  36 9 0
6  37 13 0
0

0101000
+156 0 -156 1 *
Ed
 1e-007 1 1 0
1  13 0 0 40
2  16 2 0 0 40
6  38 9 0
6  39 9 2
6  40 11 0
0

0101000
+173 0 -156 0 *
Wi

0101100
+172 0 -155 0 -154 0 +154 1 *
Fa
0  1e-007 8 0
2  9
0101000
+153 0 *
Ve
1.00000005329071e-007
20 50 0
0 0

0101101
*
Ed
 1.00000005329071e-007 1 1 0
1  14 0 0 10
2  17 11 0 0 10
6  41 14 0
6  42 10 0
6  43 15 0
0

0101000
+151 0 -151 1 *
Ed
 1e-007 1 1 0
1  15 0 0 40
2  18 2 0 0 40
6  44 10 2
6  45 10 0
6  46 11 0
0

0101000
+168 0 -151 0 *
Wi

0101100
+167 0 -150 0 -149 0 +149 1 *
Fa
0  1e-007 10 0
2  10
0101000
+148 0 *
Ve
1e-007
-20 -50 0
0 0

0101101
*
Ed
 1e-007 1 1 0
1  16 0 0 10
2  19 9 0 0 10
6  47 12 0
6  48 16 0
6  49 17 0
0

0101000
+146 0 -146 1 *
Ed
 1e-007 1 1 0
1  17 0 0 1.5707963267949
2  20 2 0 0 1.5707963267949
4 CN 2 0 2 0
2  21 9 0 0 1.5707963267949
2  22 9 2 0 1.5707963267949
6  50 12 0
6  51 12 2
6  52 11 0
6  53 18 0
0

0101000
+146 0 -156 0 *
Wi

0101100
+145 0 -155 0 -144 0 +144 1 *
Fa
0  1e-007 9 0
2  12
0101000
+143 0 *
Ve
1.00000003552714e-007
50 20 0
0 0

0101101
*
Ed
 1.00000003552714e-007 1 1 0
1  18 0 0 10
2  23 11 0 0 10
6  54 14 0
6  55 19 0
6  56 20 0
0

0101000
+141 0 -141 1 *
Ed
 1e-007 1 1 0
1  19 0 3.14159265358979 4.71238898038469
2  24 2 0 3.14159265358979 4.71238898038469
4 CN 2 0 2 0
2  25 11 0 3.14159265358979 4.71238898038469
2  26 11 2 3.14159265358979 4.71238898038469
6  57 14 0
6  58 14 2
6  59 11 0
6  60 21 0
0

0101000
+151 0 -141 0 *
Wi

0101100
+150 0 -140 0 -139 0 +139 1 *
Fa
0  1e-007 11 0
2  14
0101000
+138 0 *
Ve
1.00000003552714e-007
20 -50 0
0 0

0101101
*
Ed
 1.00000003552714e-007 1 1 0
1  20 0 0 10
2  27 13 0 0 10
6  61 22 0
6  62 16 0
6  63 23 0
0

0101000
+136 0 -136 1 *
Ed
 1e-007 1 1 0
1  21 0 0 40
2  28 2 0 0 40
6  64 16 2
6  65 16 0
6  66 11 0
0

0101000
+146 0 -136 0 *
Wi

0101100
+145 0 -135 0 -134 0 +134 1 *
Fa
0  1e-007 12 0
2  16
0101000
+133 0 *
Ve
1e-007
50 -20 0
0 0

0101101
*
Ed
 1e-007 1 1 0
1  22 0 0 10
2  29 13 0 0 10
6  67 22 0
6  68 19 0
6  69 24 0
0

0101000
+131 0 -131 1 *
Ed
 1e-007 1 1 0
1  23 0 0 40
2  30 2 0 0 40
6  70 19 2
6  71 19 0
6  72 11 0
0

0101000
+141 0 -131 0 *
Wi

0101100
+140 0 -130 0 -129 0 +129 1 *
Fa
0  1e-007 14 0
2  19
0101000
+128 0 *
Ed
 1e-007 1 1 0
1  24 0 1.5707963267949 3.14159265358979
2  31 2 0 1.5707963267949 3.14159265358979
4 CN 2 0 2 0
2  32 13 0 1.5707963267949 3.14159265358979
2  33 13 2 1.5707963267949 3.14159265358979
6  73 22 0
6  74 22 2
6  75 11 0
6  76 25 0
0

0101000
+131 0 -136 0 *
Wi

0101100
+130 0 -135 0 -126 0 +126 1 *
Fa
0  1e-007 13 0
2  22
0101000
+125 0 *
Ve
1e-007
30 0 0
0 0

0101101
*
Ed
 1e-007 1 1 0
1  25 0 0 10
3  34 35CN 15 0 0 10
7  77 78 26 0
0

0101000
+123 0 -123 1 *
Ed
 1e-007 1 1 0
1  26 0 0 6.28318530717959
2  36 2 0 0 6.28318530717959
2  37 15 0 0 6.28318530717959
2  38 15 2 0 6.28318530717959
6  79 26 0
6  80 26 2
6  81 11 0
6  82 27 0
0

0101000
+123 0 -123 0 *
Wi

0101100
+122 0 -122 0 -121 0 +121 1 *
Fa
0  1e-007 15 0
2  26
0101000
+120 0 *
Wi

0101100
-163 0 +154 0 -149 0 -144 0 -139 0 +134 0 -129 0 -126 0 *
Wi

0101100
-121 0 *
Fa
0  1e-007 2 0
2  11
0101000
+118 0 +117 0 *
Sh

0101100
-161 0 +152 0 -147 0 -142 0 -137 0 +132 0 -127 0 -124 0 -119 0 +116 0 
-116 1 *
So

0100000
-115 0 *
Ve
1e-007
-30 -50 0
0 0

0101101
*
Ed
 1e-007 1 1 0
1  27 0 0 10
2  39 16 0 0 10
6  83 28 0
6  84 29 0
6  85 17 0
0

0101000
+113 0 -113 1 *
Ve
1e-007
-50 -30 0
0 0

0101101
*
Ed
 1e-007 1 1 0
1  28 0 0 10
2  40 16 0 0 10
6  86 28 0
6  87 30 0
6  88 13 0
0

0101000
+111 0 -111 1 *
Ed
 1e-007 1 1 0
1  29 0 0 1.5707963267949
2  41 2 0 0 1.5707963267949
2  42 16 0 0 1.5707963267949
2  43 16 2 0 1.5707963267949
6  89 28 0
6  90 28 2
6  91 31 0
6  92 18 0
0

0101000
+113 0 -111 0 *
Wi

0101100
+112 0 -110 0 -109 0 +109 1 *
Fa
0  1e-007 16 0
2  28
0101000
+108 0 *
Ve
1e-007
-50 -50 0
0 0

0101101
*
Ed
 1e-007 1 1 0
1  30 0 0 10
6  93 29 0
6  94 30 0
0

0101000
+106 0 -106 1 *
Ed
 1e-007 1 1 0
1  31 0 0 20
2  44 2 0 0 20
6  95 29 2
6  96 29 0
6  97 31 0
0

0101000
+106 0 -113 0 *
Wi

0101100
+105 0 -112 0 -104 0 +104 1 *
Fa
0  1e-007 17 0
2  29
0101000
+103 0 *
Ed
 1e-007 1 1 0
1  32 0 0 20
2  45 2 0 0 20
6  98 30 0
6  99 30 2
6  100 31 0
0

0101000
+106 0 -111 0 *
Wi

0101100
+105 0 -110 0 -101 0 +101 1 *
Fa
0  1e-007 18 0
2  30
0101000
+100 0 *
Wi

0101100
+109 0 +104 0 -101 0 *
Fa
0  1e-007 2 0
2  31
0101000
+98 0 *
Sh

0101100
+107 0 +102 0 -99 0 +97 0 -97 1 *
So

0100000
-96 0 *
Ed
 1e-007 1 1 0
1  33 0 20 30
2  46 2 0 20 30
6  101 17 2
6  102 17 0
6  103 18 0
0

0101000
+113 0 -146 0 *
Wi

0101100
+112 0 -145 0 -94 0 +94 1 *
Fa
0  1e-007 19 0
2  17
0101000
+93 0 *
Ed
 1e-007 1 1 0
1  34 0 20 30
2  47 2 0 20 30
6  104 13 2
6  105 13 0
6  106 18 0
0

0101000
+111 0 -156 0 *
Wi

0101100
+110 0 -155 0 -91 0 +91 1 *
Fa
0  1e-007 20 0
2  13
0101000
+90 0 *
Wi

0101100
+94 0 -109 0 -91 0 +144 0 *
Fa
0  1e-007 2 0
2  18
0101000
+88 0 *
Sh

0101100
+92 0 -107 0 -89 0 +142 0 +87 0 -87 1 *
So

0100000
-86 0 *
Ve
1.00000007105427e-007
30 50 0
0 0

0101101
*
Ed
 1.00000007105427e-007 1 1 0
1  35 0 0 10
2  48 21 0 0 10
6  107 32 0
6  108 33 0
6  109 15 0
0

0101000
+84 0 -84 1 *
Ve
1e-007
50 30 0
0 0

0101101
*
Ed
 1e-007 1 1 0
1  36 0 0 10
2  49 21 0 0 10
6  110 32 0
6  111 34 0
6  112 20 0
0

0101000
+82 0 -82 1 *
Ed
 1e-007 1 1 0
1  37 0 3.14159265358979 4.71238898038469
2  50 2 0 3.14159265358979 4.71238898038469
2  51 21 0 3.14159265358979 4.71238898038469
2  52 21 2 3.14159265358979 4.71238898038469
6  113 32 0
6  114 32 2
6  115 35 0
6  116 21 0
0

0101000
+84 0 -82 0 *
Wi

0101100
+83 0 -81 0 -80 0 +80 1 *
Fa
0  1e-007 21 0
2  32
0101000
+79 0 *
Ve
1e-007
50 50 0
0 0

0101101
*
Ed
 1e-007 1 1 0
1  38 0 0 10
6  117 33 0
6  118 34 0
0

0101000
+77 0 -77 1 *
Ed
 1e-007 1 1 0
1  39 0 0 20
2  53 2 0 0 20
6  119 33 0
6  120 33 2
6  121 35 0
0

0101000
+77 0 -84 0 *
Wi

0101100
+76 0 -83 0 -75 0 +75 1 *
Fa
0  1e-007 22 0
2  33
0101000
+74 0 *
Ed
 1e-007 1 1 0
1  40 0 0 20
2  54 2 0 0 20
6  122 34 2
6  123 34 0
6  124 35 0
0

0101000
+77 0 -82 0 *
Wi

0101100
+76 0 -81 0 -72 0 +72 1 *
Fa
0  1e-007 23 0
2  34
0101000
+71 0 *
Wi

0101100
+80 0 +75 0 -72 0 *
Fa
0  1e-007 2 0
2  35
0101000
+69 0 *
Sh

0101100
+78 0 +73 0 -70 0 +68 0 -68 1 *
So

0100000
-67 0 *
Ed
 1e-007 1 1 0
1  41 0 20 30
2  55 2 0 20 30
6  125 15 2
6  126 15 0
6  127 21 0
0

0101000
+84 0 -151 0 *
Wi

0101100
+83 0 -150 0 -65 0 +65 1 *
Fa
0  1e-007 24 0
2  15
0101000
+64 0 *
Ed
 1e-007 1 1 0
1  42 0 20 30
2  56 2 0 20 30
6  128 20 2
6  129 20 0
6  130 21 0
0

0101000
+82 0 -141 0 *
Wi

0101100
+81 0 -140 0 -62 0 +62 1 *
Fa
0  1e-007 25 0
2  20
0101000
+61 0 *
Wi

0101100
+65 0 -80 0 -62 0 +139 0 *
Fa
0  1e-007 2 0
2  21
0101000
+59 0 *
Sh

0101100
+63 0 -78 0 -60 0 +137 0 +58 0 -58 1 *
So

0100000
-57 0 *
Ve
1e-007
50 -30 0
0 0

0101101
*
Ed
 1e-007 1 1 0
1  43 0 0 10
2  57 26 0 0 10
6  131 36 0
6  132 37 0
6  133 24 0
0

0101000
+55 0 -55 1 *
Ve
1.00000007105427e-007
30 -50 0
0 0

0101101
*
Ed
 1.00000007105427e-007 1 1 0
1  44 0 0 10
2  58 26 0 0 10
6  134 36 0
6  135 38 0
6  136 23 0
0

0101000
+53 0 -53 1 *
Ed
 1e-007 1 1 0
1  45 0 1.5707963267949 3.14159265358979
2  59 2 0 1.5707963267949 3.14159265358979
2  60 26 0 1.5707963267949 3.14159265358979
2  61 26 2 1.5707963267949 3.14159265358979
6  137 36 0
6  138 36 2
6  139 39 0
6  140 25 0
0

0101000
+55 0 -53 0 *
Wi

0101100
+54 0 -52 0 -51 0 +51 1 *
Fa
0  1e-007 26 0
2  36
0101000
+50 0 *
Ve
1e-007
50 -50 0
0 0

0101101
*
Ed
 1e-007 1 1 0
1  46 0 0 10
6  141 37 0
6  142 38 0
0

0101000
+48 0 -48 1 *
Ed
 1e-007 1 1 0
1  47 0 0 20
2  62 2 0 0 20
6  143 37 2
6  144 37 0
6  145 39 0
0

0101000
+48 0 -55 0 *
Wi

0101100
+47 0 -54 0 -46 0 +46 1 *
Fa
0  1e-007 27 0
2  37
0101000
+45 0 *
Ed
 1e-007 1 1 0
1  48 0 0 20
2  63 2 0 0 20
6  146 38 2
6  147 38 0
6  148 39 0
0

0101000
+48 0 -53 0 *
Wi

0101100
+47 0 -52 0 -43 0 +43 1 *
Fa
0  1e-007 28 0
2  38
0101000
+42 0 *
Wi

0101100
+51 0 +46 0 -43 0 *
Fa
0  1e-007 2 0
2  39
0101000
+40 0 *
Sh

0101100
+49 0 +44 0 -41 0 +39 0 -39 1 *
So

0100000
-38 0 *
Ed
 1e-007 1 1 0
1  49 0 20 30
2  64 2 0 20 30
6  149 24 2
6  150 24 0
6  151 25 0
0

0101000
+55 0 -131 0 *
Wi

0101100
+54 0 -130 0 -36 0 +36 1 *
Fa
0  1e-007 29 0
2  24
0101000
+35 0 *
Ed
 1e-007 1 1 0
1  50 0 20 30
2  65 2 0 20 30
6  152 23 2
6  153 23 0
6  154 25 0
0

0101000
+53 0 -136 0 *
Wi

0101100
+52 0 -135 0 -33 0 +33 1 *
Fa
0  1e-007 30 0
2  23
0101000
+32 0 *
Wi

0101100
+36 0 -51 0 -33 0 +126 0 *
Fa
0  1e-007 2 0
2  25
0101000
+30 0 *
Sh

0101100
+34 0 -49 0 -31 0 +124 0 +29 0 -29 1 *
So

0100000
-28 0 *
Ve
1e-007
10 0 0
0 0

0101101
*
Ed
 1e-007 1 1 0
1  51 0 0 10
3  66 67CN 31 0 0 10
7  155 156 40 0
0

0101000
+26 0 -26 1 *
Ed
 1e-007 1 1 0
1  52 0 0 6.28318530717959
2  68 2 0 0 6.28318530717959
2  69 31 0 0 6.28318530717959
2  70 31 2 0 6.28318530717959
6  157 40 2
6  158 40 0
6  159 41 0
6  160 42 0
0

0101000
+26 0 -26 0 *
Wi

0101100
+25 0 -25 0 -24 0 +24 1 *
Fa
0  1e-007 31 0
2  40
0101000
+23 0 *
Wi

0101100
+24 0 *
Fa
0  1e-007 2 0
2  41
0101000
+21 0 *
Sh

0101100
+22 0 +20 0 -20 1 *
So

0100000
-19 0 *
Ve
1e-007
20 0 0
0 0

0101101
*
Ed
 1e-007 1 1 0
1  53 0 0 10
3  71 72CN 32 0 0 10
7  161 162 43 0
0

0101000
+17 0 -17 1 *
Ed
 1e-007 1 1 0
1  54 0 0 6.28318530717959
2  73 2 0 0 6.28318530717959
2  74 32 0 0 6.28318530717959
2  75 32 2 0 6.28318530717959
6  163 43 2
6  164 43 0
6  165 42 0
6  166 27 0
0

0101000
+17 0 -17 0 *
Wi

0101100
+16 0 -16 0 -15 0 +15 1 *
Fa
0  1e-007 32 0
2  43
0101000
+14 0 *
Wi

0101100
+15 0 *
Wi

0101100
-24 0 *
Fa
0  1e-007 2 0
2  42
0101000
+12 0 +11 0 *
Sh

0101100
+13 0 -22 0 +10 0 -10 1 *
So

0100000
-9 0 *
Wi

0101100
+121 0 *
Wi

0101100
-15 0 *
Fa
0  1e-007 2 0
2  27
0101000
+7 0 +6 0 *
Sh

0101100
+119 0 -13 0 +5 0 -5 1 *
So

0100000
-4 0 *
CS

0101000
+174 0 +157 0 +114 0 +95 0 +85 0 +66 0 +56 0 +37 0 +27 0 +18 0 
+8 0 +3 0 *
Co

1100000
+2 0 *

+1 0 