DBRep_DrawableShape

CASCADE Topology V1, (c) Matra-Datavision
Locations 0
Curve2ds 96
1 0 0 1 0 
1 0 0 1 0 
1 0 0 0 -1 
1 0 0 0 1 
1 0 0 0 -1 
1 0 0 0 1 
1 1 0 0 -1 
1 0 0 0 1 
1 0 -1 1 0 
1 0 0 1 0 
1 0 0 0 1 
1 0 0 1 0 
1 0 0 1 0 
1 0 0 1 0 
1 0 0 1 0 
1 0 1 1 0 
1 0 0 0 1 
1 0 0 1 0 
1 1 0 0 1 
1 0 0 1 0 
1 0 0 0 1 
1 0 1 1 0 
1 0 0 0 -1 
1 0 0 0 1 
1 0 0 0 -1 
1 1 0 0 1 
1 0 0 0 1 
1 0 1 1 0 
1 1 0 0 1 
1 0 1 1 0 
1 1 0 0 -1 
1 0 0 0 1 
1 1 0 0 -1 
1 1 0 0 1 
1 0 0 0 -1 
1 1 0 0 1 
1 0 0 0 -1 
1 0 0 0 1 
1 0 -1 1 0 
1 0 0 1 0 
1 0 -1 1 0 
1 0 1 1 0 
1 0 0 0 1 
1 0 0 1 0 
1 0 0 1 0 
1 0 1 1 0 
1 0 0 0 1 
1 0 0 1 0 
1 1 0 0 1 
1 0 0 1 0 
1 0 0 0 1 
1 0 1 1 0 
1 0 0 0 -1 
1 1 0 0 1 
1 0 0 0 1 
1 0 1 1 0 
1 1 0 0 1 
1 0 1 1 0 
1 0 0 0 -1 
1 1 0 0 1 
1 1 0 0 -1 
1 1 0 0 1 
1 0 -1 1 0 
1 0 1 1 0 
1 0 0 1 0 
1 0 0 1 0 
1 1 0 0 -1 
1 0 0 0 1 
1 0 -1 1 0 
1 0 0 1 0 
1 0 0 1 0 
1 0 0 1 0 
1 0 0 1 0 
1 0 1 1 0 
1 1 0 0 1 
1 0 0 1 0 
1 1 0 0 1 
1 0 1 1 0 
1 1 0 0 -1 
1 0 0 0 1 
1 1 0 0 -1 
1 1 0 0 1 
1 0 -1 1 0 
1 0 0 1 0 
1 0 -1 1 0 
1 0 1 1 0 
1 0 0 1 0 
1 0 1 1 0 
1 1 0 0 1 
1 0 0 1 0 
1 1 0 0 1 
1 0 1 1 0 
1 1 0 0 -1 
1 1 0 0 1 
1 0 -1 1 0 
1 0 1 1 0 
Curves 33
1 0 0 0 0 0 1 
1 0 0 0 -0 1 0 
1 0 0 1 -0 1 0 
1 0 1 0 0 0 1 
1 0 0 0 1 0 -0 
1 1 0 0 0 0 1 
1 0 0 1 1 0 -0 
1 0 1 0 1 0 -0 
1 1 0 0 -0 1 0 
1 0 1 1 1 0 -0 
1 1 0 1 -0 1 0 
1 1 1 0 0 0 1 
1 1 0 0 1 0 -0 
1 2 0 0 0 0 1 
1 1 0 1 1 0 -0 
1 1 1 0 1 0 -0 
1 2 0 0 -0 1 0 
1 1 1 1 1 0 -0 
1 2 0 1 -0 1 0 
1 2 1 0 0 0 1 
1 0 0 1 0 0 1 
1 0 0 2 -0 1 0 
1 0 1 1 0 0 1 
1 1 0 1 0 0 1 
1 0 0 2 1 0 -0 
1 0 1 2 1 0 -0 
1 1 0 2 -0 1 0 
1 1 1 1 0 0 1 
1 2 0 1 0 0 1 
1 1 0 2 1 0 -0 
1 1 1 2 1 0 -0 
1 2 0 2 -0 1 0 
1 2 1 1 0 0 1 
Polygon3D 0
PolygonOnTriangulations 0
Surfaces 24
1 0 0 0 1 0 -0 0 0 1 0 -1 0 
1 0 0 0 -0 1 0 0 0 1 1 0 -0 
1 0 0 0 0 0 1 1 0 -0 -0 1 0 
1 0 0 1 1 0 -0 0 0 1 0 -1 0 
1 0 0 1 0 0 1 1 0 -0 -0 1 0 
1 0 0 1 0 0 1 1 0 -0 -0 1 0 
1 0 1 0 -0 1 0 0 0 1 1 0 -0 
1 1 0 0 1 0 -0 0 0 1 0 -1 0 
1 1 0 0 -0 1 0 0 0 1 1 0 -0 
1 1 0 0 1 0 -0 0 0 1 0 -1 0 
1 0 0 1 -0 1 0 0 0 1 1 0 -0 
1 1 0 0 0 0 1 1 0 -0 -0 1 0 
1 0 1 1 -0 1 0 0 0 1 1 0 -0 
1 1 0 1 0 0 1 1 0 -0 -0 1 0 
1 1 0 1 1 0 -0 0 0 1 0 -1 0 
1 1 0 1 1 0 -0 0 0 1 0 -1 0 
1 1 0 1 0 0 1 1 0 -0 -0 1 0 
1 1 1 0 -0 1 0 0 0 1 1 0 -0 
1 2 0 0 1 0 -0 0 0 1 0 -1 0 
1 1 0 1 -0 1 0 0 0 1 1 0 -0 
1 1 1 1 -0 1 0 0 0 1 1 0 -0 
1 2 0 1 1 0 -0 0 0 1 0 -1 0 
1 0 0 2 0 0 1 1 0 -0 -0 1 0 
1 1 0 2 0 0 1 1 0 -0 -0 1 0 
Triangulations 0

TShapes 100
Ve
1e-007
0 0 0
0 0

0101101
*
Ve
1e-007
0 0 1
0 0

0101101
*
Ed
 1e-007 1 1 0
1  1 0 0 1
2  1 1 0 0 1
2  2 2 0 0 1
0

0101000
+100 0 -99 0 *
Ve
1e-007
0 1 0
0 0

0101101
*
Ed
 1e-007 1 1 0
1  2 0 0 1
2  3 1 0 0 1
2  4 3 0 0 1
0

0101000
-97 0 +100 0 *
Ve
1e-007
0 1 1
0 0

0101101
*
Ed
 1e-007 1 1 0
1  3 0 0 1
2  5 4 0 0 1
2  6 5 0 0 1
2  7 1 0 0 1
2  8 6 0 0 1
0

0101000
+99 0 -95 0 *
Ed
 1e-007 1 1 0
1  4 0 0 1
2  9 1 0 0 1
2  10 7 0 0 1
0

0101000
+97 0 -95 0 *
Wi

0101100
-98 0 +96 0 -94 0 +93 0 *
Fa
0  1e-007 1 0

0111000
+92 0 *
Ve
1e-007
1 0 0
0 0

0101101
*
Ed
 1e-007 1 1 0
1  5 0 0 1
2  11 2 0 0 1
2  12 3 0 0 1
0

0101000
+100 0 -90 0 *
Ve
1e-007
1 0 1
0 0

0101101
*
Ed
 1e-007 1 1 0
1  6 0 0 1
2  13 8 0 0 1
2  14 9 0 0 1
2  15 10 0 0 1
2  16 2 0 0 1
0

0101000
+90 0 -88 0 *
Ed
 1e-007 1 1 0
1  7 0 0 1
2  17 11 0 0 1
2  18 5 0 0 1
2  19 2 0 0 1
2  20 6 0 0 1
0

0101000
+99 0 -88 0 *
Wi

0101100
-89 0 +98 0 -87 0 +86 0 *
Fa
0  1e-007 2 0

0111000
+85 0 *
Ve
1e-007
1 1 0
0 0

0101101
*
Ed
 1e-007 1 1 0
1  8 0 0 1
2  21 7 0 0 1
2  22 3 0 0 1
0

0101000
+97 0 -83 0 *
Ed
 1e-007 1 1 0
1  9 0 0 1
2  23 8 0 0 1
2  24 12 0 0 1
2  25 10 0 0 1
2  26 3 0 0 1
0

0101000
+90 0 -83 0 *
Wi

0101100
-96 0 -82 0 +89 0 +81 0 *
Fa
0  1e-007 3 0

0111000
+80 0 *
Ve
1e-007
1 1 1
0 0

0101101
*
Ed
 1e-007 1 1 0
1  10 0 0 1
2  27 13 0 0 1
2  28 5 0 0 1
2  29 7 0 0 1
2  30 6 0 0 1
0

0101000
+95 0 -78 0 *
Ed
 1e-007 1 1 0
1  11 0 0 1
2  31 8 0 0 1
2  32 14 0 0 1
2  33 10 0 0 1
2  34 6 0 0 1
2  35 15 0 0 1
2  36 5 0 0 1
2  37 16 0 0 1
2  38 17 0 0 1
0

0101000
+88 0 -78 0 *
Wi

0101100
-94 0 +86 0 -77 0 +76 0 *
Fa
0  1e-007 6 0

0111000
+75 0 *
Ed
 1e-007 1 1 0
1  12 0 0 1
2  39 8 0 0 1
2  40 18 0 0 1
2  41 10 0 0 1
2  42 7 0 0 1
0

0101000
+83 0 -78 0 *
Wi

0101100
-82 0 +93 0 -73 0 +77 0 *
Fa
0  1e-007 7 0

0111000
+72 0 *
Wi

0101100
-87 0 +81 0 -76 0 +73 0 *
Fa
0  1e-007 8 0

0111000
+70 0 *
Sh

0101100
-91 0 -84 0 -79 0 +74 0 +71 0 +69 0 *
So

0100000
+68 0 *
Ve
1e-007
2 0 0
0 0

0101101
*
Ed
 1e-007 1 1 0
1  13 0 0 1
2  43 9 0 0 1
2  44 12 0 0 1
0

0101000
+90 0 -66 0 *
Ve
1e-007
2 0 1
0 0

0101101
*
Ed
 1e-007 1 1 0
1  14 0 0 1
2  45 19 0 0 1
2  46 9 0 0 1
0

0101000
+66 0 -64 0 *
Ed
 1e-007 1 1 0
1  15 0 0 1
2  47 20 0 0 1
2  48 17 0 0 1
2  49 9 0 0 1
2  50 14 0 0 1
0

0101000
+88 0 -64 0 *
Wi

0101100
-65 0 +87 0 -63 0 +62 0 *
Fa
0  1e-007 9 0

0111000
+61 0 *
Ve
1e-007
2 1 0
0 0

0101101
*
Ed
 1e-007 1 1 0
1  16 0 0 1
2  51 18 0 0 1
2  52 12 0 0 1
0

0101000
+83 0 -59 0 *
Ed
 1e-007 1 1 0
1  17 0 0 1
2  53 19 0 0 1
2  54 12 0 0 1
0

0101000
-59 0 +66 0 *
Wi

0101100
-81 0 +65 0 -58 0 +57 0 *
Fa
0  1e-007 12 0

0111000
+56 0 *
Ve
1e-007
2 1 1
0 0

0101101
*
Ed
 1e-007 1 1 0
1  18 0 0 1
2  55 21 0 0 1
2  56 17 0 0 1
2  57 18 0 0 1
2  58 14 0 0 1
0

0101000
+78 0 -54 0 *
Ed
 1e-007 1 1 0
1  19 0 0 1
2  59 22 0 0 1
2  60 17 0 0 1
2  61 19 0 0 1
2  62 14 0 0 1
0

0101000
+64 0 -54 0 *
Wi

0101100
-76 0 +62 0 -53 0 +52 0 *
Fa
0  1e-007 17 0

0111000
+51 0 *
Ed
 1e-007 1 1 0
1  20 0 0 1
2  63 19 0 0 1
2  64 18 0 0 1
0

0101000
+59 0 -54 0 *
Wi

0101100
-58 0 +73 0 -49 0 +53 0 *
Fa
0  1e-007 18 0

0111000
+48 0 *
Wi

0101100
-63 0 +57 0 -52 0 +49 0 *
Fa
0  1e-007 19 0

0111000
+46 0 *
Sh

0101100
-69 0 -60 0 -55 0 +50 0 +47 0 +45 0 *
So

0100000
+44 0 *
Ve
1e-007
0 0 2
0 0

0101101
*
Ed
 1e-007 1 1 0
1  21 0 0 1
2  65 4 0 0 1
2  66 11 0 0 1
0

0101000
+99 0 -42 0 *
Ve
1e-007
0 1 2
0 0

0101101
*
Ed
 1e-007 1 1 0
1  22 0 0 1
2  67 4 0 0 1
2  68 23 0 0 1
0

0101000
-40 0 +42 0 *
Ed
 1e-007 1 1 0
1  23 0 0 1
2  69 4 0 0 1
2  70 13 0 0 1
0

0101000
+95 0 -40 0 *
Wi

0101100
-41 0 +94 0 -39 0 +38 0 *
Fa
0  1e-007 4 0

0111000
+37 0 *
Ve
1e-007
1 0 2
0 0

0101101
*
Ed
 1e-007 1 1 0
1  24 0 0 1
2  71 16 0 0 1
2  72 20 0 0 1
2  73 15 0 0 1
2  74 11 0 0 1
0

0101000
+88 0 -35 0 *
Ed
 1e-007 1 1 0
1  25 0 0 1
2  75 11 0 0 1
2  76 23 0 0 1
0

0101000
+42 0 -35 0 *
Wi

0101100
-86 0 +41 0 -34 0 +33 0 *
Fa
0  1e-007 11 0

0111000
+32 0 *
Ve
1e-007
1 1 2
0 0

0101101
*
Ed
 1e-007 1 1 0
1  26 0 0 1
2  77 13 0 0 1
2  78 23 0 0 1
0

0101000
+40 0 -30 0 *
Ed
 1e-007 1 1 0
1  27 0 0 1
2  79 16 0 0 1
2  80 24 0 0 1
2  81 15 0 0 1
2  82 23 0 0 1
0

0101000
+35 0 -30 0 *
Wi

0101100
-39 0 -29 0 +33 0 +28 0 *
Fa
0  1e-007 23 0

0111000
+27 0 *
Ed
 1e-007 1 1 0
1  28 0 0 1
2  83 16 0 0 1
2  84 21 0 0 1
2  85 15 0 0 1
2  86 13 0 0 1
0

0101000
+78 0 -30 0 *
Wi

0101100
-77 0 +38 0 -25 0 +29 0 *
Fa
0  1e-007 13 0

0111000
+24 0 *
Wi

0101100
-34 0 +76 0 -28 0 +25 0 *
Fa
0  1e-007 16 0

0111000
+22 0 *
Sh

0101100
-36 0 -31 0 -74 0 +26 0 +23 0 +21 0 *
So

0100000
+20 0 *
Ve
1e-007
2 0 2
0 0

0101101
*
Ed
 1e-007 1 1 0
1  29 0 0 1
2  87 22 0 0 1
2  88 20 0 0 1
0

0101000
+64 0 -18 0 *
Ed
 1e-007 1 1 0
1  30 0 0 1
2  89 20 0 0 1
2  90 24 0 0 1
0

0101000
+35 0 -18 0 *
Wi

0101100
-62 0 +34 0 -17 0 +16 0 *
Fa
0  1e-007 20 0

0111000
+15 0 *
Ve
1e-007
2 1 2
0 0

0101101
*
Ed
 1e-007 1 1 0
1  31 0 0 1
2  91 21 0 0 1
2  92 24 0 0 1
0

0101000
+30 0 -13 0 *
Ed
 1e-007 1 1 0
1  32 0 0 1
2  93 22 0 0 1
2  94 24 0 0 1
0

0101000
-13 0 +18 0 *
Wi

0101100
-28 0 +16 0 -12 0 +11 0 *
Fa
0  1e-007 24 0

0111000
+10 0 *
Ed
 1e-007 1 1 0
1  33 0 0 1
2  95 22 0 0 1
2  96 21 0 0 1
0

0101000
+54 0 -13 0 *
Wi

0101100
-53 0 +25 0 -8 0 +12 0 *
Fa
0  1e-007 21 0

0111000
+7 0 *
Wi

0101100
-17 0 +52 0 -11 0 +8 0 *
Fa
0  1e-007 22 0

0111000
+5 0 *
Sh

0101100
-21 0 -14 0 -50 0 +9 0 +6 0 +4 0 *
So

0100000
+3 0 *
Co

1100000
+67 0 +43 0 +19 0 +2 0 *

+1 0 
0

