DBRep_DrawableShape

CASCADE Topology V1, (c) Matra-Datavision
Locations 0
Curve2ds 4
1 0 0 1 0 
1 0 6.2831853071795862 1 0 
1 6.2831853071795862 -0 0 1 
1 0 -0 0 1 
Curves 2
2 0 0 -1.2246467991473533e-015 0 0 1 1 0 -0 -0 1 0 15
2 10 -2.4492935982947065e-015 0 -2.4492935982947064e-016 -1 0 1 -2.4492935982947064e-016 0 0 0 1 5
Polygon3D 0
PolygonOnTriangulations 0
Surfaces 1
5 0 0 0 0 0 1 1 0 -0 -0 1 0 10 5
Triangulations 0

TShapes 7
Ve
1e-007
15 -3.67394039744206e-015 -1.22464679914735e-015
0 0

0101101
*
Ed
 1e-007 1 1 0
1  1 0 0 6.28318530717959
3  1 2CN 1 0 0 6.28318530717959
0

0101000
+7 0 -7 0 *
Ed
 1e-007 1 1 0
1  2 0 0 6.28318530717959
3  3 4CN 1 0 0 6.28318530717959
0

0101000
+7 0 -7 0 *
Wi

0101100
-6 0 +5 0 +6 0 -5 0 *
Fa
0  1e-007 1 0

0111000
+4 0 *
Sh

0101100
+3 0 *
So

1100000
+2 0 *

+1 0 
0

