DBRep_DrawableShape

CASCADE Topology V1, (c) Matra-Datavision
Locations 0
Curve2ds 48
1 0 -7.0710678118654755 1 0 
2 0 0 -1 0 0 1 15
8 -7.0710678118654755 0
1 6.2831853071795862 0 0 1 
8 -7.0710678118654755 0
1 0 0 0 1 
1 0 0 1 0 
1 0 5 1 0 
1 6.2831853071795862 0 0 1 
1 0 0 0 1 
1 0 55 1 0 
1 0 0 1 0 
1 0 36.055512754639892 1 0 
2 0 0 -1 0 0 1 40
1 6.2831853071795862 0 0 1 
1 0 0 0 1 
2 0 0 -1 0 0 1 70
1 0 0 1 0 
1 6.2831853071795862 0 0 1 
1 0 0 0 1 
1 0 50 1 0 
2 0 0 1 0 -0 1 70
7 0 0  7 32 6  3.3575531522747495 25  3.3575531504736209 26.231503038161186  3.355827986992324 27.457749109355852  3.3524040367576302 28.671509972982701  3.3472874853259142 29.865562387871577  3.3404677732147765 31.03199494683281  3.3319207221532143 32.161275907738329  3.3183377744987932 33.583918003175022  3.314884150103341 33.922053110705406  3.3112459899640969 34.255333540057961  3.3074189613106499 34.583487764200569  3.3033982522236309 34.906164330439807  3.2991786798852831 35.222921675441611  3.2895249170768777 35.900048050089481  3.2840131032006039 36.257595296579169  3.2782037326924089 36.605501154325133  3.2720796024066048 36.943049799567007  3.2656226637972408 37.269130081921404  3.2588148080419486 37.582192036442116  3.2466019306492093 38.089362642111368  3.2413841548297624 38.291093188334301  3.2359721060304087 38.484991330415369  3.2303524531545862 38.670421025723392  3.2245122274765712 38.84649288679833  3.2184392465446536 39.012048634900907  3.2036282482213685 39.37219248498274  3.1947114975203381 39.556670306906831  3.1852982179988238 39.716967946226902  3.1753237850549207 39.848847981597139  3.1647343963524803 39.946015546497861  3.1534944114744023 40  3.1415926535897931 40 
 0 8 0.4328420150448623 6 0.57024302960256978 6 0.73267756387820859 6 0.84668729212432881 6 1 8
7 0 0  7 32 6  0 1.6260283441132799  0.082100202544079459 1.6260283170963536  0.16384991748955038 1.600150823842031  0.24567128237054026 1.5487917921963992  0.32795151764818398 1.4733248976429945  0.41108979869919665 1.3760498824375231  0.4954976043583319 1.2603863444171663  0.60900652360031571 1.0901470958864112  0.63655927087314335 1.0477223809848466  0.66434726002835398 1.0040173614158883  0.69240295349235625 0.95916994431471758  0.72075886731041494 0.91333584075894236  0.74944782144968802 0.8666934403024954  0.81285224706141179 0.76359626137375636  0.84768973599641939 0.70694048331334736  0.88311773621325984 0.64974560023861849  0.91923525091425429 0.59233362774850928  0.95613886302808315 0.53511151956228209  0.99392420908485513 0.47859471793109687  1.0598960333273266 0.38470596321855904  1.0875836935096443 0.34665287093457903  1.1158244156246893 0.30943288009071018  1.144688377668686 0.27325985817609738  1.1742435534189855 0.23840317648822423  1.2045564941604747 0.20519442036529081  1.2775635632675495 0.13213177006385007  1.3208334867540601 0.094023256570342301  1.3659024789202348 0.06040070141674448  1.4131174205581045 0.032389251041129066  1.4628015198463011 0.01156819956068093  1.5152547900000541 -5.3995431729927098e-017  1.5707963267948972 0 
 0 8 0.4328420150448623 6 0.57024302960256978 6 0.73267756387820859 6 0.84668729212432881 6 1 8
7 0 0  7 80 14  3.1415926535897931 40  3.129690901096613 40  3.1184509161969367 39.946015595879054  3.1078615230146593 39.84884803316158  3.0978870830324983 39.716967913441373  3.088473795394532 39.556670093324882  3.0795570413231044 39.372192056167805  3.0647848114834941 39.012990899526848  3.0587478759873221 38.848530181847536  3.0529410968349251 38.673681072042754  3.0473523572214596 38.489578523672016  3.0419687621716909 38.297092406726996  3.0367771114026003 38.096845142022843  3.0246121561746082 37.593001458808466  3.0178253007965994 37.281820326873579  3.0113866008020098 36.957700786944812  3.0052781290029764 36.622177578811204  2.9994820407849443 36.276354083283522  2.9939813351390177 35.920945937372416  2.9842893094479019 35.244039383123635  2.9800258653604565 34.925171332293367  2.975964636284584 34.600273646796197  2.9721002876003166 34.269800495368663  2.9684278670534203 33.93411259490491  2.9649429180725813 33.593487872912995  2.9589838773412214 32.970105156051247  2.956445529855305 32.689050048118062  2.9540251140656708 32.405140816907  2.951721356403858 32.118534483210404  2.9495331417608663 31.829370904070977  2.9474595089518871 31.537772598975184  2.9439523290646834 31.011787583270927  2.942475982708995 30.778286817514974  2.941070330295545 30.543413253988358  2.9397351385798385 30.307234549237652  2.9384702178913149 30.069815041146512  2.9372754221333537 29.831215748935641  2.9331528325189704 28.952573972765077  2.9306505899245039 28.30529136580077  2.9286458196104292 27.651304462874332  2.9271402013892933 26.992217843816185  2.9261352143454453 26.329601542132952  2.9256321549048363 25.665009829457656  2.9256321549048363 24.09250602261498  2.9265689723883406 23.186541592344788  2.9284368917801822 22.285623343561014  2.931232517667655 21.393234338834464  2.9349542731432146 20.512976390681082  2.9396021656791569 19.648704967072717  2.9471603862943043 18.504520309643475  2.9492612235129099 18.206802494386839  2.9514811744063372 17.911603946312585  2.9538212421902665 17.61905415878622  2.9562825960619499 17.329301215411796  2.9588665761823445 17.042511598274519  2.9648475320395171 16.416082063990544  2.9683011570383617 16.077946886081239  2.9719393177723257 15.744666405494124  2.9757663463946931 15.416512196456249  2.9797870548415553 15.093835685859876  2.9840066265788758 14.777078374739334  2.9936603901027028 14.099951949910905  2.9991722039789828 13.742404703420915  3.004981574487172 13.39449884567502  3.0111057047729801 13.056950200433032  3.0175626433823517 12.730869918078374  3.024370499137635 12.417807963557953  3.0365833765285752 11.910637357963418  3.041801152349799 11.708906811656103  3.0472132011508988 11.515008669519407  3.0528328540266032 11.329578974234023  3.0586730797026545 11.153507113222853  3.0647460606327153 10.987951365153011  3.0795570589582031 10.627807515017599  3.0884738096592197 10.443329693093355  3.0978870891808779 10.283032053771706  3.1078615221245389 10.151152018404392  3.1184509108271516 10.053984453501595  3.1296908957051808 10  3.1415926535897931 10 
 0 8 0.076562925374216911 6 0.13314915044942324 6 0.21388682450724422 6 0.2830336831626577 6 0.33870002797065429 6 0.38264876224327515 6 0.49978367692457748 6 0.65962977980321147 6 0.71646712333959706 6 0.7851564669285761 6 0.86636052329668234 6 0.92335611500988923 6 1 8
7 0 0  7 80 14  1.5707963267948972 0  1.6263378384297384 5.399540727030211e-017  1.6787911086955805 0.011568188995588057  1.7284752284667391 0.032389239966154046  1.7756902032450741 0.060400708784196899  1.8207592343147267 0.09402330253492383  1.864029177250071 0.13213185705785466  1.9368451469251557 0.20500326244091921  1.9669757957120362 0.23799447187002612  1.9963565794814433 0.27261438124143461  2.0250536199233462 0.3085378843831556  2.0531345210188383 0.3455010726279345  2.0806688195842757 0.38329419202549625  2.1463373105459049 0.4766302160220155  2.1839736090347341 0.53285505556606305  2.2207335981444736 0.58979267522179679  2.2567119927768178 0.64693298508178565  2.292004268376334 0.70387259894516629  2.3267081067575086 0.76029171721512234  2.3902277649713883 0.86357621053171862  2.4191573681394773 0.91062388338375533  2.4477470603262304 0.95685874881209387  2.4760305409009589 1.0020976042319023  2.5040411924000519 1.0461807637598468  2.5318123398916197 1.0889669647114306  2.5815687177603457 1.1636259965807854  2.6036233945214442 1.1959957118755737  2.6255538564295322 1.2273633163317932  2.6473719568419192 1.2576607276916894  2.6690893201478496 1.2868253148984168  2.6907175752492236 1.3147993279037975  2.7292831744559338 1.3626327365891022  2.7462490197684359 1.3829599301436417  2.76317050701648 1.4024830432010451  2.7800519854827788 1.4211758914761516  2.7968977716951042 1.4390139713372929  2.8137121494262956 1.455974459806294  2.875241718851008 1.5148450076594895  2.919818718253965 1.5512955379795206  2.9642705107909633 1.5809323578561503  3.0086358037788563 1.6034076291274417  3.0529525560367579 1.6184824770327073  3.0972586649592837 1.6260283441132799  3.202092252082128 1.6260283441132799  3.2624899183756644 1.6119760518710093  3.3229126946433922 1.5839573766625175  3.3834850289109575 1.5424008281201458  3.4443306644107152 1.4880741135546984  3.5055773234411274 1.4220901040800835  3.5893340746108651 1.3188387250026909  3.6113830302206011 1.2904544081244553  3.6335235962344967 1.2608255502289456  3.6557680533500005 1.2300131144312731  3.6781286754336371 1.1980833185307811  3.7006179856663914 1.1651082579033907  3.7505991718311429 1.0901471039237325  3.7781519245144 1.0477223810595111  3.805939918066815 1.004017354624146  3.833995610659914 0.95916993855477028  3.8623515197202147 0.91333584242096022  3.8910404703406627 0.86669344794289827  3.9544449006511688 0.76359626137382131  3.9892823895862262 0.70694048331332737  4.0247103898030163 0.64974560023867578  4.0608279045040243 0.59233362774854637  4.0977315166179205 0.53511151956221426  4.1355168626746375 0.47859471793112063  4.2014886869073917 0.38470596323241324  4.2291763470995827 0.34665287093302682  4.2574170692235951 0.30943288007842762  4.2862810312664781 0.2732598581675959  4.3158362070066643 0.23840317649200435  4.3461491477393368 0.20519442037623672  4.4191562168572718 0.13213177006392685  4.4624261403438554 0.094023256570393662  4.5074951325102459 0.060400701416433653  4.5547100741476196 0.032389251041457678  4.60439417343619 0.011568199560567205  4.6568474435898324 1.6397380909819209e-017  4.7123889803846897 0 
 0 8 0.076562925374216911 6 0.13314915044942324 6 0.21388682450724422 6 0.2830336831626577 6 0.33870002797065429 6 0.38264876224327515 6 0.49978367692457748 6 0.65962977980321147 6 0.71646712333959706 6 0.7851564669285761 6 0.86636052329668234 6 0.92335611500988923 6 1 8
7 0 0  7 32 6  3.1415926535897931 10  3.1534944060829586 10  3.1647343909826833 10.053984404121074  3.1753237841648869 10.151151966838095  3.1852982241471173 10.283032086559032  3.1947115117850298 10.44332990667464  3.2036282658564925 10.627807943832458  3.218400495688901 10.98700910029828  3.2244374311922002 11.151469818120514  3.2302442103503197 11.326318928109247  3.2358329499626461 11.510421476501538  3.2412165450063943 11.702907593255109  3.2464081957711799 11.903154857736714  3.2585731506897084 12.406998528133823  3.265360006682767 12.718179683465996  3.271798706557314 13.042299225140512  3.2779071779715667 13.377822413052712  3.2837032662189301 13.723645901947085  3.2892039722227295 14.079054075350014  3.2988959969131111 14.755960559705867  3.3031594417575549 15.07482865574524  3.3072206714995609 15.399726398089483  3.3110850201205273 15.730199557242255  3.3147574400255562 16.065887403474932  3.3182423884878283 16.406512062314047  3.3318733150067747 17.83246036335629  3.3404362922204518 18.962620805570019  3.3472685842553229 20.130029600667434  3.3523945277666916 21.325126237029608  3.3558247788326891 22.539979933317696  3.3575531504719471 23.767352397103966  3.3575531522747495 24.999999999999996 
 0 8 0.15331320774449814 6 0.2666241298142295 6 0.42829704344729025 6 0.566759942970956 6 1 8
7 0 0  7 32 6  4.7123889803846897 0  4.7679304920194614 -1.6397373481873889e-017  4.8203837622855277 0.01156818899560258  4.8700678820563708 0.032389239966119338  4.9172828568349738 0.060400708784267537  4.9623518879044157 0.094023302534796196  5.0056218308399156 0.13213185705791511  5.0784378004795006 0.20500326240545069  5.1085684493006687 0.23799447186488903  5.1379492330995058 0.27261438127172877  5.1666462735371415 0.3085378844157089  5.1947271746017307 0.34550107262354002  5.2222614731427299 0.38329419198095771  5.2879299624338207 0.47663021360310215  5.3255662641558432 0.53285505765964203  5.3623262528912701 0.58979267709690897  5.3983046452753509 0.64693298354085815  5.433596920715579 0.70387259679872882  5.4683007615411512 0.76029171915635718  5.5318204131964075 0.86357620180847605  5.5607500209287997 0.91062388232052638  5.5893397180124174 0.95685875541306575  5.6176231987985759 1.002097610817567  5.645633845606695 1.0461807629930209  5.6734049883114457 1.08896695695393  5.7872195368525183 1.2597447420479897  5.8717117384747155 1.3756008582883745  5.9549300188482146 1.473046149362645  6.0372872483765825 1.548649159494472  6.1191839928577778 1.6001027009303974  6.2010088003198502 1.6260283170712437  6.2831853071795862 1.6260283441132799 
 0 8 0.15331320774449814 6 0.2666241298142295 6 0.42829704344729025 6 0.566759942970956 6 1 8
2 0 0 1 0 -0 1 20
1 0 0 1 0 
1 6.2831853071795862 -0 0 1 
1 0 -0 0 1 
1 0 55 1 0 
2 0 0 1 0 -0 1 15
1 0 20 1 0 
2 0 0 -1 0 0 1 20
1 6.2831853071795862 0 0 1 
1 0 0 0 1 
2 0 0 -1 0 0 1 30
1 0 0 1 0 
1 0 30 1 0 
2 0 0 1 0 -0 1 30
1 6.2831853071795862 0 0 1 
1 0 0 0 1 
2 0 0 1 0 -0 1 20
1 0 0 1 0 
1 0 15 1 0 
2 0 0 -1 0 0 1 20
1 6.2831853071795862 0 0 1 
1 0 0 0 1 
Curves 24
2 200 0 0 1 0 -0 0 1 0 0 -0 1 15
1 195 20 0 -0.70710678118654746 0.70710678118654757 0 
2 195 0 0 1 0 -0 0 1 0 0 -0 1 20
1 200 20 0 -1 0 0 
2 145 0 0 1 0 0 -0 1 0 0 -0 1 20
2 115 0 0 1 0 0 -0 1 0 0 -0 1 40
1 145 20 0 -0.83205029433784372 0.55470019622522915 0 
2 115 0 0 1 0 0 -0 1 0 0 -0 1 70
1 115 70 0 -1 0 0 
2 65 0 0 1 0 0 -0 1 0 0 -0 1 70
7 0 0  7 32 6  90 -68.37397165588672 -14.999999999999996  88.768496961838821 -68.373971682903644 -14.999999876849692  87.542250890644212 -68.399849176157971 -14.882043569410133  86.328490027017168 -68.451208207803603 -14.647934652441572  85.134437612128508 -68.526675102357004 -14.297813980880031  83.968005053167175 -68.623950117562472 -13.830423267118041  82.838724092261671 -68.739613655582829 -13.243352175805461  81.416081996824985 -68.909852904113606 -12.307910415739544  81.07794688929458 -68.952277619015163 -12.069906684679392  80.744666459942053 -68.995982638584124 -11.819010427447633  80.416512235799431 -69.040830055685277 -11.554894257636123  80.093835669560193 -69.086664159241039 -11.277196258540593  79.777078324558389 -69.133306559697488 -10.985527782882432  79.099951949910519 -69.236403738626237 -10.31767514953764  78.742404703420874 -69.29305951668664 -9.9360240501385473  78.394498845674818 -69.350254399761369 -9.5333970223233582  78.056950200432951 -69.407666372251484 -9.1085504949318725  77.730869918078625 -69.464888480437722 -8.6601792156028985  77.417807963557877 -69.521405282068912 -8.1869738226102182  76.910637357888632 -69.615294036781449 -7.3372436681682327  76.70890681166567 -69.653347129065409 -6.9739810918106837  76.515008669584603 -69.690567119909289 -6.5969594485853245  76.329578974276615 -69.72674014182391 -6.2052354447134714  76.153507113201684 -69.76159682351178 -5.7978920113944099  75.987951365099093 -69.794805579634698 -5.3740699706349124  75.627807515017253 -69.86786822993615 -4.3398777067596708  75.443329693093261 -69.905976743429662 -3.7168417541123748  75.283032053772786 -69.939599298583261 -3.0587153067860449  75.151152018403252 -69.967610748958876 -2.3609863094589159  75.053984453501954 -69.988431800439315 -1.619922023512526  75 -70 -0.83312305192263203  75 -70 1.2434497875801753e-014 
 0 8 0.4328420150448623 6 0.57024302960256978 6 0.73267756387820859 6 0.84668729212432881 6 1 8
7 0 0  7 80 14  75 -70 1.3109288655164421e-014  75 -70 0.83312267452263067  75.053984404121024 -69.988431811004418 1.6199216476376619  75.151151966838228 -69.96761076003385 2.3609862473791106  75.283032086558762 -69.939599291215799 3.0587157373724141  75.443329906675103 -69.905976697465078 3.7168427518321949  75.627807943832195 -69.867868142942143 4.3398789381484981  75.987009100473173 -69.794996737559089 5.3713641552046791  76.151469818152435 -69.762005528129976 5.7926720973196906  76.326318927957203 -69.727385618758575 6.1976856922156509  76.510421476328005 -69.691462115616844 6.5872593552776211  76.702907593273039 -69.654498927372074 6.9623047347194662  76.903154857977142 -69.616705807974512 7.3237556938194217  77.406998541191541 -69.523369783977969 8.1701719339459373  77.718179673126883 -69.46714494443394 8.6419315175761966  78.042299213054875 -69.410207324778213 9.0890518329758834  78.377822421188441 -69.35306701491821 9.5128288546833684  78.723645916716876 -69.296127401054832 9.9145529489411945  79.079054062627591 -69.239708282784889 10.295453030625881  79.755960616876379 -69.136423789468296 10.965986838294715  80.074828667706626 -69.089376116616251 11.260700677866273  80.399726353203818 -69.043141251187905 11.541207468584556  80.730199504631372 -68.997902395768108 11.807907102139577  81.065887405095125 -68.953819236240165 12.061171918221463  81.406512127087026 -68.911033035288568 12.301338539688075  82.029894843948782 -68.836374003419195 12.711735718658101  82.310949951881909 -68.804004288124432 12.886447630107046  82.594859183092964 -68.772636683668239 13.052948965373462  82.881465516789589 -68.742339272308314 13.211341405174243  83.17062909592903 -68.713174685101578 13.361715038891839  83.462227401024819 -68.685200672096201 13.504148615816913  83.988212416729084 -68.637367263410923 13.744946223245723  84.221713182485033 -68.617040069856358 13.846271800834685  84.456586746011652 -68.597516956798955 13.942711432999145  84.692765450762337 -68.578824108523847 14.034286700506454  84.930184958853474 -68.560986028662711 14.121015861050108  85.168784251064352 -68.544025540193701 14.202913849249734  86.047426027234934 -68.485154992340526 14.485426521046426  86.694708634199202 -68.448704462020459 14.656750239313181  87.348695537125664 -68.419067642143844 14.793919984163333  88.007782156183836 -68.396592370872568 14.896889000592779  88.670398457867094 -68.381517522967314 14.965603677615889  89.334990170542355 -68.373971655886734 15.000000000000012  90.907493977385016 -68.373971655886734 15.000000000000012  91.813458407655062 -68.388023948129003 14.935946076564369  92.7143766564391 -68.416042623337475 14.808228979129575  93.606765661165653 -68.457599171879863 14.616998037911369  94.487023609318797 -68.511925886445297 14.362197887645376  95.351295032927283 -68.577909895919916 14.043596588826517  96.495479690356532 -68.681161274997308 13.524693922454389  96.793197505613165 -68.709545591875539 13.380400235377108  97.088396053687418 -68.739174449771056 13.22785368903679  97.380945841213787 -68.769986885568741 13.06697192960265  97.670698784588197 -68.801916681469237 12.897660369752275  97.957488401725499 -68.83489174209663 12.719811912832183  98.583917936009442 -68.909852896076274 12.307910459903511  98.922053113918764 -68.952277618940485 12.069906687354939  99.255333594505899 -68.995982645375861 11.819010389066628  99.583487803543761 -69.040830061445234 11.554894221288027  99.906164314140128 -69.086664157579051 11.277196266380896  100.22292162526067 -69.133306552057107 10.985527832376132  100.9000480500891 -69.236403738626194 10.317675149538044  101.25759529657905 -69.293059516686668 9.9360240501385828  101.60550115432501 -69.350254399761326 9.5333970223237205  101.94304979956699 -69.407666372251441 9.1085504949320146  102.26913008192159 -69.464888480437779 8.6601792156024811  102.58219203644205 -69.521405282068869 8.1869738226103674  103.08936264203656 -69.615294036767565 7.3372436682935582  103.29109318834391 -69.653347129066972 6.9739810918125986  103.48499133048061 -69.690567119921567 6.5969594484655003  103.670421025766 -69.726740141832394 6.2052354446015912  103.84649288677716 -69.761596823507986 5.7978920114194059  104.01204863484701 -69.79480557962377 5.3740699707897708  104.37219248498241 -69.867868229936079 4.3398777067607019  104.55667030690718 -69.905976743429605 3.7168417541146406  104.71696794622676 -69.939599298583573 3.0587153067772253  104.84884798159723 -69.967610748958535 2.3609863094686228  104.94601554649776 -69.988431800439429 1.6199220235089473  105 -70 0.83312305192286262  105 -70 9.950255243072245e-015 
 0 8 0.076562925374216911 6 0.13314915044942324 6 0.21388682450724422 6 0.2830336831626577 6 0.33870002797065429 6 0.38264876224327515 6 0.49978367692457748 6 0.65962977980321147 6 0.71646712333959706 6 0.7851564669285761 6 0.86636052329668234 6 0.92335611500988923 6 1 8
7 0 0  7 32 6  105 -70 1.0658141036401503e-014  105 -70 -0.83312267452156696  104.94601559587916 -69.988431811004403 -1.619921647639794  104.8488480331611 -69.967610760033878 -2.3609862473770598  104.71696791344201 -69.939599291215728 -3.0587157373735394  104.55667009332485 -69.905976697465206 -3.7168427518308604  104.37219205616755 -69.867868142942086 -4.3398789381492051  104.01299089970175 -69.794996737594531 -5.3713641547025004  103.84853018187947 -69.762005528135106 -5.7926720973156431  103.67368107189074 -69.727385618728277 -6.1976856926105812  103.48957852349847 -69.691462115584301 -6.5872593555922672  103.29709240674491 -69.654498927376466 -6.9623047346143556  103.09684514226328 -69.616705808019049 -7.3237556934154764  102.59300147186617 -69.523369786396884 -8.17017191201003  102.28182031653409 -69.46714494234034 -8.6419315384623019  101.9577007748594 -69.410207322903091 -9.0890518454170586  101.62217758694723 -69.353067016459136 -9.5128288404123857  101.27635409805301 -69.296127403201268 -9.9145529368198861  100.92094592464998 -69.239708280843644 -10.29545304322852  100.24403944029413 -69.136423798191501 -10.965986781662451  99.92517134425475 -69.089376117679478 -11.260700673674677  99.60027360191053 -69.04314124458692 -11.54120751038425  99.269800442757756 -68.997902389182428 -11.80790713944954  98.934112596525082 -68.953819237006968 -12.061171911210208  98.593487937685964 -68.911033043046061 -12.30133849704548  97.16753963664371 -68.740255257952015 -13.240095931725275  96.037379194430741 -68.624399141711621 -13.828265708577447  94.869970399330839 -68.526953850637355 -14.29652058973705  93.674873762971913 -68.451350840505526 -14.647284485940643  92.460020066681778 -68.399897299069607 -14.881824214598391  91.232647602896023 -68.373971682928754 -14.999999876735236  90 -68.37397165588672 -14.999999999999996 
 0 8 0.15331320774449814 6 0.2666241298142295 6 0.42829704344729025 6 0.566759942970956 6 1 8
2 65 0 0 1 0 0 -0 1 0 0 -0 1 20
1 90 -70 -14.999999999999991 0 1 -1.2246467991473532e-016 
2 90 -15 1.8369701987210304e-015 0 1 -1.2246467991473532e-016 0 -1.2246467991473532e-016 -1 -1 0 -0 15
2 45 0 0 1 0 0 -0 1 0 0 -0 1 20
1 65 20 0 -1 0 0 
2 45 0 0 1 0 0 -0 1 0 0 -0 1 30
2 15 0 0 1 0 0 -0 1 0 0 -0 1 30
1 45 30 0 -1 0 0 
2 15 0 0 1 0 0 -0 1 0 0 -0 1 20
2 0 0 0 1 0 0 -0 1 0 0 -0 1 20
1 15 20 0 -1 0 0 
Polygon3D 0
PolygonOnTriangulations 0
Surfaces 15
1 200 0 0 1 0 0 0 -1 -0 0 -0 1 
3 195 0 0 -1 -0 0 0 1 0 0 -0 1 20
0.78539816339744839
2 200 0 0 -1 -0 -0 0 1 0 -0 -0 1 20
3 145 0 0 -1 -0 -0 0 1 0 -0 -0 1 20
0.58800260354756761
1 115 0 0 1 0 0 0 -1 -0 0 -0 1 
2 115 0 0 -1 -0 -0 0 1 0 -0 -0 1 70
1 65 0 0 1 0 0 -0 1 0 0 -0 1 
2 90 -70 8.572527594031473e-015 0 1 -1.2246467991473532e-016 0 -1.2246467991473532e-016 -1 -1 0 -0 15
2 65 0 0 -1 -0 -0 0 1 0 -0 -0 1 20
1 90 -15 1.8369701987210304e-015 0 1 -1.2246467991473532e-016 0 -1.2246467991473532e-016 -1 -1 0 -0 
1 45 0 0 1 0 0 0 -1 -0 0 -0 1 
2 45 0 0 -1 -0 -0 0 1 0 -0 -0 1 30
1 15 0 0 1 0 0 -0 1 0 0 -0 1 
2 15 0 0 -1 -0 -0 0 1 0 -0 -0 1 20
1 0 0 0 1 0 0 0 -1 -0 0 -0 1 
Triangulations 0

TShapes 78
Ve
1e-007
200 15 0
0 0

0101101
*
Ed
 1e-007 1 1 0
1  1 0 0 6.28318530717959
2  1 2 0 0 6.28318530717959
2  2 1 0 0 6.28318530717959
0

0101000
+78 0 -78 0 *
Wi

0101100
-77 0 *
Fa
0  1e-007 1 0

0111000
+76 0 *
Ve
1e-007
195 20 0
0 0

0101101
*
Ed
 1e-007 1 1 0
1  2 0 -7.07106781186548 0
3  3 4CN 2 0 -7.07106781186548 0
0

0101000
+78 0 -74 0 *
Ed
 1e-007 1 1 0
1  3 0 0 6.28318530717959
2  5 2 0 0 6.28318530717959
2  6 3 0 0 6.28318530717959
0

0101000
+74 0 -74 0 *
Wi

0101100
-73 0 +77 0 -72 0 +73 0 *
Fa
0  0 2 0

0101000
+71 0 *
Ve
1e-007
145 20 0
0 0

0101101
*
Ed
 1e-007 1 1 0
1  4 0 5 55
3  7 8CN 3 0 5 55
0

0101000
+74 0 -69 0 *
Ed
 1e-007 1 1 0
1  5 0 0 6.28318530717959
2  9 3 0 0 6.28318530717959
2  10 4 0 0 6.28318530717959
0

0101000
+69 0 -69 0 *
Wi

0101100
-68 0 +72 0 -67 0 +68 0 *
Fa
0  1e-007 3 0

0101000
+66 0 *
Ve
1e-007
115 40 0
0 0

0101101
*
Ed
 1e-007 1 1 0
1  6 0 0 6.28318530717959
2  11 4 0 0 6.28318530717959
2  12 5 0 0 6.28318530717959
0

0101000
+64 0 -64 0 *
Ed
 1e-007 1 1 0
1  7 0 0 36.0555127546399
3  13 14CN 4 0 0 36.0555127546399
0

0101000
+69 0 -64 0 *
Wi

0101100
+67 0 -63 0 -62 0 +62 0 *
Fa
0  1e-007 4 0

0101000
+61 0 *
Wi

0101100
+63 0 *
Ve
1e-007
115 70 0
0 0

0101101
*
Ed
 1e-007 1 1 0
1  8 0 0 6.28318530717959
2  15 5 0 0 6.28318530717959
2  16 6 0 0 6.28318530717959
0

0101000
+58 0 -58 0 *
Wi

0101100
-57 0 *
Fa
0  1e-007 5 0

0111000
+59 0 +56 0 *
Ve
1e-007
65 70 0
0 0

0101101
*
Ed
 1e-007 1 1 0
1  9 0 0 50
3  17 18CN 6 0 0 50
0

0101000
+58 0 -54 0 *
Ed
 1e-007 1 1 0
1  10 0 0 6.28318530717959
2  19 6 0 0 6.28318530717959
2  20 7 0 0 6.28318530717959
0

0101000
+54 0 -54 0 *
Wi

0101100
-53 0 -52 0 +53 0 +57 0 *
Ve
1.28316681466549e-007
90 -68.3739716558867 -15
0 0

0101101
*
Ve
1.2831686040573e-007
75 -70 7.65404249467096e-015
0 0

0101101
*
Ed
 1.28001624666575e-007 1 1 0
1  11 0 0 1
2  21 6 0 0 1
2  22 8 0 0 1
0

0101000
+50 0 -49 0 *
Ve
1.28316856328212e-007
105 -70 1.1327982892113e-014
0 0

0101101
*
Ed
 1.28316854950484e-007 1 1 0
1  12 0 0 1
2  23 6 0 0 1
2  24 8 0 0 1
0

0101000
+49 0 -47 0 *
Ed
 1.28316676137479e-007 1 1 0
1  13 0 0 1
2  25 6 0 0 1
2  26 8 0 0 1
0

0101000
+47 0 -50 0 *
Wi

0101100
-48 0 -46 0 -45 0 *
Fa
0  1e-007 6 0

0111000
+51 0 +44 0 *
Wi

0101100
+52 0 *
Ve
1e-007
65 20 0
0 0

0101101
*
Ed
 1e-007 1 1 0
1  14 0 0 6.28318530717959
2  27 7 0 0 6.28318530717959
2  28 9 0 0 6.28318530717959
0

0101000
+41 0 -41 0 *
Wi

0101100
-40 0 *
Fa
0  1e-007 7 0

0111000
+42 0 +39 0 *
Ve
1e-007
90 -15 -15
0 0

0101101
*
Ed
 1e-007 1 1 0
1  15 0 1.62602834411328 55
3  29 30CN 8 0 1.62602834411328 55
0

0101000
+50 0 -37 0 *
Ed
 1e-007 1 1 0
1  16 0 0 6.28318530717959
2  31 8 0 0 6.28318530717959
2  32 10 0 0 6.28318530717959
0

0101000
+37 0 -37 0 *
Wi

0101100
+36 0 +45 0 +46 0 +48 0 -36 0 -35 0 *
Fa
0  1e-007 8 0

0111000
+34 0 *
Ve
1e-007
45 20 0
0 0

0101101
*
Ed
 1e-007 1 1 0
1  17 0 0 6.28318530717959
2  33 9 0 0 6.28318530717959
2  34 11 0 0 6.28318530717959
0

0101000
+32 0 -32 0 *
Ed
 1e-007 1 1 0
1  18 0 0 20
3  35 36CN 9 0 0 20
0

0101000
+41 0 -32 0 *
Wi

0101100
+40 0 -31 0 -30 0 +30 0 *
Fa
0  1e-007 9 0

0101000
+29 0 *
Wi

0101100
+35 0 *
Fa
0  1e-007 10 0

0111000
+27 0 *
Wi

0101100
+31 0 *
Ve
1e-007
45 30 0
0 0

0101101
*
Ed
 1e-007 1 1 0
1  19 0 0 6.28318530717959
2  37 11 0 0 6.28318530717959
2  38 12 0 0 6.28318530717959
0

0101000
+24 0 -24 0 *
Wi

0101100
-23 0 *
Fa
0  1e-007 11 0

0111000
+25 0 +22 0 *
Ve
1e-007
15 30 0
0 0

0101101
*
Ed
 1e-007 1 1 0
1  20 0 0 6.28318530717959
2  39 12 0 0 6.28318530717959
2  40 13 0 0 6.28318530717959
0

0101000
+20 0 -20 0 *
Ed
 1e-007 1 1 0
1  21 0 0 30
3  41 42CN 12 0 0 30
0

0101000
+24 0 -20 0 *
Wi

0101100
+23 0 -19 0 -18 0 +18 0 *
Fa
0  1e-007 12 0

0101000
+17 0 *
Wi

0101100
+19 0 *
Ve
1e-007
15 20 0
0 0

0101101
*
Ed
 1e-007 1 1 0
1  22 0 0 6.28318530717959
2  43 13 0 0 6.28318530717959
2  44 14 0 0 6.28318530717959
0

0101000
+14 0 -14 0 *
Wi

0101100
-13 0 *
Fa
0  1e-007 13 0

0111000
+15 0 +12 0 *
Ve
1e-007
0 20 0
0 0

0101101
*
Ed
 1e-007 1 1 0
1  23 0 0 6.28318530717959
2  45 14 0 0 6.28318530717959
2  46 15 0 0 6.28318530717959
0

0101000
+10 0 -10 0 *
Ed
 1e-007 1 1 0
1  24 0 0 15
3  47 48CN 14 0 0 15
0

0101000
+14 0 -10 0 *
Wi

0101100
+13 0 -9 0 -8 0 +8 0 *
Fa
0  1e-007 14 0

0101000
+7 0 *
Wi

0101100
-9 0 *
Fa
0  1e-007 15 0

0111000
+5 0 *
Sh

0101100
-75 0 -70 0 -65 0 -60 0 -55 0 -43 0 -38 0 -33 0 -28 0 -26 0 
-21 0 -16 0 -11 0 -6 0 +4 0 *
So

0100000
+3 0 *
Co

1100000
+2 0 *

+1 0 
0

