DBRep_DrawableShape

CASCADE Topology V1, (c) Matra-Datavision
Locations 0
Curve2ds 20
1 6.2831853071795862 9.999999999998181 -1 0 
1 0 9.999999999998181 0 -1 
1 0 0 1 0 
1 2.3561944901924221 0 0 1 
1 6.2831853071795862 9.999999999998181 -1 0 
1 0 9.999999999998181 0 -1 
1 0 0 1 0 
1 2.3561944901923448 0 0 1 
1 6.2831853071795862 9.999999999998181 -1 0 
1 0 9.999999999998181 0 -1 
1 0 0 1 0 
1 3.1415926535897931 0 0 1 
1 6.283185307179652 9.999999999998181 -1 0 
1 0 9.999999999998181 0 -1 
1 0 0 1 0 
1 3.1394851728101507 0 0 1 
1 6.2831853071795862 9.999999999998181 -1 0 
1 0 9.999999999998181 0 -1 
1 0 0 1 0 
1 1.5707963267948966 0 0 1 
Curves 64
1 12972.699999999997 3690.0021798790331 17305.000000000004 0 0 -1 
1 12972.699999999997 3690.0021798790331 17270.010000000002 -1 0 0 
1 12962.699999999999 3690.0021798790331 17270.010000000002 0 0 1 
1 12962.699999999999 3690.0021798790331 17305.000000000004 1 0 0 
2 12972.699999999997 3665.0021798790335 17305.000000000004 -1 8.8817841970012523e-16 0 8.8817841970012523e-16 1 0 0 0 -1 25
1 12972.699999999997 3690.0021798790331 17305.000000000004 -1 0 0 
2 12962.699999999999 3665.0021798790335 17305.000000000004 1 -8.8817841970012523e-16 0 8.8817841970012523e-16 1 0 -0 0 1 25
1 12962.699999999999 3647.3245103493696 17322.677669529665 1 0 0 
1 12972.699999999997 3572.3245103493696 17247.677669529665 0 0.70710678118655168 0.70710678118654335 
1 12972.699999999997 3647.3245103493696 17322.677669529665 -1 0 0 
1 12962.699999999999 3647.3245103493696 17322.677669529665 0 -0.70710678118655168 -0.70710678118654335 
1 12962.699999999999 3572.3245103493696 17247.677669529665 1 0 0 
2 12972.699999999997 3590.0021798790331 17230 -1 8.8817841970012523e-16 0 -6.2803698347351007e-16 -0.70710678118654757 0.70710678118654757 6.2803698347351007e-16 0.70710678118654757 0.70710678118654757 25
1 12972.699999999997 3572.3245103493696 17247.677669529665 -1 0 0 
2 12962.699999999999 3590.0021798790331 17230 1 -8.8817841970012523e-16 0 -6.2803698347351007e-16 -0.70710678118654757 0.70710678118654757 -6.2803698347351007e-16 -0.70710678118654757 -0.70710678118654757 25
1 12962.699999999999 3590.0021798790331 17205.000000000004 1 0 0 
1 12972.699999999997 3665.0021798790335 17205.000000000004 0 -1 0 
1 12972.699999999997 3590.0021798790331 17205.000000000004 -1 0 0 
1 12962.699999999999 3590.0021798790331 17205.000000000004 0 1 0 
1 12962.699999999999 3665.0021798790335 17205.000000000004 1 0 0 
1 12972.699999999997 3690.0021798790331 17269.990000000005 0 0 -1 
1 12972.699999999997 3690.0021798790331 17230 -1 0 0 
1 12962.699999999999 3690.0021798790331 17230 0 0 1 
1 12962.699999999999 3690.0021798790331 17269.990000000005 1 0 0 
1 12972.699999999997 3634.5021798790335 17270.000000000004 0 0.99999998376755173 -0.00018018017724859389 
1 12972.699999999997 3690.0021798790331 17269.990000000005 -1 0 0 
1 12962.699999999999 3690.0021798790331 17269.990000000005 0 -0.99999998376755173 0.00018018017724859389 
1 12962.699999999999 3634.5021798790335 17270.000000000004 1 0 0 
2 12972.699999999997 3625.0021798790331 17270.000000000004 1 -8.8817841970012523e-16 0 8.8817841970012523e-16 1 4.5650617788863342e-17 -4.0545893566047068e-32 -4.5650617788863342e-17 1 9.5
1 12972.699999999997 3634.5021798790335 17270.000000000004 -1 0 0 
2 12962.699999999999 3625.0021798790331 17270.000000000004 -1 8.8817841970012523e-16 0 8.8817841970012523e-16 1 4.5650617788863342e-17 4.0545893566047068e-32 4.5650617788863342e-17 -1 9.5
1 12962.699999999999 3615.5021798790331 17270.000000000004 1 0 0 
2 12972.699999999997 3625.002190416441 17269.999989462594 1 -8.8817841970012523e-16 0 -8.8817841969957885e-16 -0.99999999999938483 1.1091995905048152e-06 -9.8516713942659282e-22 -1.1091995905048152e-06 -0.99999999999938483 9.5000105374136421
1 12972.699999999997 3615.5021798790331 17270.000000000004 -1 0 0 
2 12962.699999999999 3625.002190416441 17269.999989462594 -1 8.8817841970012523e-16 0 -8.8817841969957885e-16 -0.99999999999938483 1.1091995905048152e-06 9.8516713942659282e-22 1.1091995905048152e-06 0.99999999999938483 9.5000105374136421
1 12962.699999999999 3634.5021798790335 17270.020000000004 1 0 0 
1 12972.699999999997 3690.0021798790331 17270.010000000002 0 -0.99999998376755173 0.00018018017724859389 
1 12972.699999999997 3634.5021798790335 17270.020000000004 -1 0 0 
1 12962.699999999999 3634.5021798790335 17270.020000000004 0 0.99999998376755173 -0.00018018017724859389 
1 12962.699999999999 3690.0021798790331 17270.010000000002 1 0 0 
2 12972.699999999997 3665.0021798790335 17230 -1 8.8817841970012523e-16 0 0 0 -1 -8.8817841970012523e-16 -1 -0 25
1 12972.699999999997 3665.0021798790335 17205.000000000004 -1 0 0 
2 12962.699999999999 3665.0021798790335 17230 1 -8.8817841970012523e-16 0 0 0 -1 8.8817841970012523e-16 1 0 25
1 12962.699999999999 3690.0021798790331 17230 1 0 0 
2 12972.699999999997 3665.0021798790335 17230 1 -8.8817841970012523e-16 0 0 0 -1 8.8817841970012523e-16 1 0 25
1 12972.699999999997 3690.0021798790331 17230 0 0 1 
1 12972.699999999997 3690.0021798790331 17269.990000000005 0 -0.99999998376755173 0.00018018017724859389 
2 12972.699999999997 3625.0021798790331 17270.000000000004 -1 8.8817841970012523e-16 0 8.8817841970012523e-16 1 4.5650617788863342e-17 4.0545893566047068e-32 4.5650617788863342e-17 -1 9.5
1 12972.699999999997 3634.5021798790335 17270.020000000004 0 0.99999998376755173 -0.00018018017724859389 
1 12972.699999999997 3690.0021798790331 17270.010000000002 0 0 1 
2 12972.699999999997 3665.0021798790335 17305.000000000004 1 -8.8817841970012523e-16 0 8.8817841970012523e-16 1 0 -0 0 1 25
1 12972.699999999997 3647.3245103493696 17322.677669529665 0 -0.70710678118655168 -0.70710678118654335 
2 12972.699999999997 3590.0021798790331 17230 1 -8.8817841970012523e-16 0 -6.2803698347351007e-16 -0.70710678118654757 0.70710678118654757 -6.2803698347351007e-16 -0.70710678118654757 -0.70710678118654757 25
1 12972.699999999997 3590.0021798790331 17205.000000000004 0 1 0 
2 12962.699999999999 3665.0021798790335 17230 -1 8.8817841970012523e-16 0 0 0 -1 -8.8817841970012523e-16 -1 -0 25
1 12962.699999999999 3665.0021798790335 17205.000000000004 0 -1 0 
2 12962.699999999999 3590.0021798790331 17230 -1 8.8817841970012523e-16 0 -6.2803698347351007e-16 -0.70710678118654757 0.70710678118654757 6.2803698347351007e-16 0.70710678118654757 0.70710678118654757 25
1 12962.699999999999 3572.3245103493696 17247.677669529665 0 0.70710678118655168 0.70710678118654335 
2 12962.699999999999 3665.0021798790335 17305.000000000004 -1 8.8817841970012523e-16 0 8.8817841970012523e-16 1 0 0 0 -1 25
1 12962.699999999999 3690.0021798790331 17305.000000000004 0 0 -1 
1 12962.699999999999 3690.0021798790331 17270.010000000002 0 -0.99999998376755173 0.00018018017724859389 
2 12962.699999999999 3625.002190416441 17269.999989462594 1 -8.8817841970012523e-16 0 -8.8817841969957885e-16 -0.99999999999938483 1.1091995905048152e-06 -9.8516713942659282e-22 -1.1091995905048152e-06 -0.99999999999938483 9.5000105374136421
1 12962.699999999999 3634.5021798790335 17270.000000000004 0 0.99999998376755173 -0.00018018017724859389 
1 12962.699999999999 3690.0021798790331 17269.990000000005 0 0 -1 
Polygon3D 0
PolygonOnTriangulations 0
Surfaces 13
1 12962.699999999999 3690.0021798790331 17287.505000000005 2.497562975288524e-26 1 0 0 -0 1 1 -2.497562975288524e-26 -0 
2 12962.699999999999 3665.0021798790335 17305.000000000004 1 -8.8817841970012523e-16 0 8.8817841970012523e-16 1 0 -0 0 1 25
1 12962.699999999999 3609.8245103493696 17285.177669529661 -8.8128423054081888e-26 -0.70710678118654746 0.70710678118654746 1 -1.1479437019748904e-41 1.2463241111363634e-25 -8.8128423054081876e-26 0.70710678118654757 0.70710678118654757 
2 12962.699999999999 3590.0021798790331 17230 1 -8.8817841970012523e-16 0 -6.2803698347351007e-16 -0.70710678118654757 0.70710678118654757 -6.2803698347351007e-16 -0.70710678118654757 -0.70710678118654757 25
1 12962.699999999999 3627.5021798790331 17205.000000000004 9.9656781360751091e-26 -8.85130025813928e-41 -1 -1 0 -9.9656781360751091e-26 8.8209209458374592e-66 1 -8.85130025813928e-41 
1 12962.699999999999 3690.0021798790331 17249.995000000003 2.497562975288524e-26 1 0 0 -0 1 1 -2.497562975288524e-26 -0 
1 12962.699999999999 3662.2521798790335 17269.995000000006 -9.9652279629681593e-26 0.00018018017725541518 0.99999998376755173 1 2.8025969286496341e-45 9.9652281247282089e-26 1.795536569904177e-29 0.99999998376755173 -0.00018018017725541518 
2 12962.699999999999 3625.0021798790331 17270.000000000004 1 -8.8817841970012523e-16 -0 8.8817841970012523e-16 1 4.5650617788863342e-17 4.0545893566047068e-32 4.5650617788863342e-17 -1 9.5
2 12962.699999999999 3625.002190416441 17269.999989462594 1 -8.8817841970012523e-16 -0 -8.8817841969957885e-16 -0.99999999999938483 1.1091995905048152e-06 9.8516713942659282e-22 1.1091995905048152e-06 0.99999999999938483 9.5000105374136421
1 12962.699999999999 3662.2521798790331 17270.014999999999 9.9652279629681593e-26 -0.00018018017725541518 -0.99999998376755173 -1 -2.8025969286496341e-45 -9.9652281247282089e-26 1.795536569904177e-29 0.99999998376755173 -0.00018018017725541518 
2 12962.699999999999 3665.0021798790335 17230 1 -8.8817841970012523e-16 0 0 0 -1 8.8817841970012523e-16 1 0 25
1 12972.699999999999 3641.2229604254371 17260.860226189798 1 -2.497562975288524e-26 9.9656781360751091e-26 9.9656781360751091e-26 0 -1 2.497562975288524e-26 1 2.4889908736303541e-51 
1 12962.700000000001 3641.2229604254371 17260.860226189798 1 -2.497562975288524e-26 9.9656781360751091e-26 9.9656781360751091e-26 0 -1 -2.497562975288524e-26 -1 -2.4889908736303541e-51 
Triangulations 0

TShapes 169
Ve
1e-07
12972.7 3690.00217987903 17305
0 0

0101101
*
Ve
1e-07
12972.7 3690.00217987903 17270.01
0 0

0101101
*
Ed
 1e-07 1 1 0
1  1 0 0 34.9900000000016
0

0101000
+169 0 -168 0 *
Ve
1e-07
12962.7 3690.00217987903 17270.01
0 0

0101101
*
Ed
 1e-07 1 1 0
1  2 0 0 9.99999999999818
0

0101000
+168 0 -166 0 *
Ve
1e-07
12962.7 3690.00217987903 17305
0 0

0101101
*
Ed
 1e-07 1 1 0
1  3 0 0 34.9900000000016
0

0101000
+166 0 -164 0 *
Ed
 1e-07 1 1 0
1  4 0 0 9.99999999999818
0

0101000
+164 0 -169 0 *
Wi

0101000
+167 0 +165 0 +163 0 +162 0 *
Fa
0  1e-07 1 0

0111000
+161 0 *
Sh

0101000
+160 0 *
Ve
1e-07
12972.7 3647.32451034937 17322.6776695297
0 0

0101101
*
Ve
1e-07
12972.7 3690.00217987903 17305
0 0

0101101
*
Ed
 1e-07 1 1 0
1  5 0 3.9269908169871 6.28318530717959
2  1 2 0 3.9269908169871 6.28318530717959
0

0101000
+158 0 -157 0 *
Ve
1e-07
12962.7 3690.00217987903 17305
0 0

0101101
*
Ed
 1e-07 1 1 0
1  6 0 0 9.99999999999818
2  2 2 0 0 9.99999999999818
0

0101000
+157 0 -155 0 *
Ve
1e-07
12962.7 3647.32451034937 17322.6776695297
0 0

0101101
*
Ed
 1e-07 1 1 0
1  7 0 0 2.35619449019249
2  3 2 0 0 2.35619449019249
0

0101000
+155 0 -153 0 *
Ed
 1e-07 1 1 0
1  8 0 0 9.99999999999818
2  4 2 0 0 9.99999999999818
0

0101000
+153 0 -158 0 *
Wi

0101000
+156 0 +154 0 +152 0 +151 0 *
Fa
0  1e-07 2 0

0111000
+150 0 *
Sh

0101000
+149 0 *
Ve
1e-07
12972.7 3572.32451034937 17247.6776695297
0 0

0101101
*
Ve
1e-07
12972.7 3647.32451034937 17322.6776695297
0 0

0101101
*
Ed
 1e-07 1 1 0
1  9 0 0 106.066017177982
0

0101000
+147 0 -146 0 *
Ve
1e-07
12962.7 3647.32451034937 17322.6776695297
0 0

0101101
*
Ed
 1e-07 1 1 0
1  10 0 0 9.99999999999818
0

0101000
+146 0 -144 0 *
Ve
1e-07
12962.7 3572.32451034937 17247.6776695297
0 0

0101101
*
Ed
 1e-07 1 1 0
1  11 0 0 106.066017177982
0

0101000
+144 0 -142 0 *
Ed
 1e-07 1 1 0
1  12 0 0 9.99999999999818
0

0101000
+142 0 -147 0 *
Wi

0101000
+145 0 +143 0 +141 0 +140 0 *
Fa
0  1e-07 3 0

0111000
+139 0 *
Sh

0101000
+138 0 *
Ve
1e-07
12972.7 3590.00217987903 17205
0 0

0101101
*
Ve
1e-07
12972.7 3572.32451034937 17247.6776695297
0 0

0101101
*
Ed
 1e-07 1 1 0
1  13 0 3.92699081698724 6.28318530717959
2  5 4 0 3.92699081698724 6.28318530717959
0

0101000
+136 0 -135 0 *
Ve
1e-07
12962.7 3572.32451034937 17247.6776695297
0 0

0101101
*
Ed
 1e-07 1 1 0
1  14 0 0 9.99999999999818
2  6 4 0 0 9.99999999999818
0

0101000
+135 0 -133 0 *
Ve
1e-07
12962.7 3590.00217987903 17205
0 0

0101101
*
Ed
 1e-07 1 1 0
1  15 0 0 2.35619449019234
2  7 4 0 0 2.35619449019234
0

0101000
+133 0 -131 0 *
Ed
 1e-07 1 1 0
1  16 0 0 9.99999999999818
2  8 4 0 0 9.99999999999818
0

0101000
+131 0 -136 0 *
Wi

0101100
+134 0 +132 0 +130 0 +129 0 *
Fa
0  1e-07 4 0

0111000
+128 0 *
Sh

0101000
+127 0 *
Ve
1e-07
12972.7 3665.00217987903 17205
0 0

0101101
*
Ve
1e-07
12972.7 3590.00217987903 17205
0 0

0101101
*
Ed
 1e-07 1 1 0
1  17 0 0 75.0000000000005
0

0101000
+125 0 -124 0 *
Ve
1e-07
12962.7 3590.00217987903 17205
0 0

0101101
*
Ed
 1e-07 1 1 0
1  18 0 0 9.99999999999818
0

0101000
+124 0 -122 0 *
Ve
1e-07
12962.7 3665.00217987903 17205
0 0

0101101
*
Ed
 1e-07 1 1 0
1  19 0 0 75.0000000000005
0

0101000
+122 0 -120 0 *
Ed
 1e-07 1 1 0
1  20 0 0 9.99999999999818
0

0101000
+120 0 -125 0 *
Wi

0101000
+123 0 +121 0 +119 0 +118 0 *
Fa
0  1e-07 5 0

0111000
+117 0 *
Sh

0101000
+116 0 *
Ve
1e-07
12972.7 3690.00217987903 17269.99
0 0

0101101
*
Ve
1e-07
12972.7 3690.00217987903 17230
0 0

0101101
*
Ed
 1e-07 1 1 0
1  21 0 0 39.9900000000052
0

0101000
+114 0 -113 0 *
Ve
1e-07
12962.7 3690.00217987903 17230
0 0

0101101
*
Ed
 1e-07 1 1 0
1  22 0 0 9.99999999999818
0

0101000
+113 0 -111 0 *
Ve
1e-07
12962.7 3690.00217987903 17269.99
0 0

0101101
*
Ed
 1e-07 1 1 0
1  23 0 0 39.9900000000052
0

0101000
+111 0 -109 0 *
Ed
 1e-07 1 1 0
1  24 0 0 9.99999999999818
0

0101000
+109 0 -114 0 *
Wi

0101000
+112 0 +110 0 +108 0 +107 0 *
Fa
0  1e-07 6 0

0111000
+106 0 *
Sh

0101000
+105 0 *
Ve
1e-07
12972.7 3634.50217987903 17270
0 0

0101101
*
Ve
1e-07
12972.7 3690.00217987903 17269.99
0 0

0101101
*
Ed
 1e-07 1 1 0
1  25 0 0 55.5000009009004
0

0101000
+103 0 -102 0 *
Ve
1e-07
12962.7 3690.00217987903 17269.99
0 0

0101101
*
Ed
 1e-07 1 1 0
1  26 0 0 9.99999999999818
0

0101000
+102 0 -100 0 *
Ve
1e-07
12962.7 3634.50217987903 17270
0 0

0101101
*
Ed
 1e-07 1 1 0
1  27 0 0 55.5000009009004
0

0101000
+100 0 -98 0 *
Ed
 1e-07 1 1 0
1  28 0 0 9.99999999999818
0

0101000
+98 0 -103 0 *
Wi

0101000
+101 0 +99 0 +97 0 +96 0 *
Fa
0  1e-07 7 0

0111000
+95 0 *
Sh

0101000
+94 0 *
Ve
1e-07
12972.7 3615.50217987903 17270
0 0

0101101
*
Ve
1e-07
12972.7 3634.50217987903 17270
0 0

0101101
*
Ed
 1e-07 1 1 0
1  29 0 3.14159265358979 6.28318530717959
2  9 8 0 3.14159265358979 6.28318530717959
0

0101000
+92 0 -91 0 *
Ve
1e-07
12962.7 3634.50217987903 17270
0 0

0101101
*
Ed
 1e-07 1 1 0
1  30 0 0 9.99999999999818
2  10 8 0 0 9.99999999999818
0

0101000
+91 0 -89 0 *
Ve
1e-07
12962.7 3615.50217987903 17270
0 0

0101101
*
Ed
 1e-07 1 1 0
1  31 0 0 3.14159265358979
2  11 8 0 0 3.14159265358979
0

0101000
+89 0 -87 0 *
Ed
 1e-07 1 1 0
1  32 0 0 9.99999999999818
2  12 8 0 0 9.99999999999818
0

0101000
+87 0 -92 0 *
Wi

0101000
+90 0 +88 0 +86 0 +85 0 *
Fa
0  1e-07 8 0

0111000
+84 0 *
Sh

0101000
+83 0 *
Ve
1e-07
12972.7 3634.50217987903 17270.02
0 0

0101101
*
Ve
1e-07
12972.7 3615.50217987903 17270
0 0

0101101
*
Ed
 1e-07 1 1 0
1  33 0 3.1437001343695 6.28318530717959
2  13 9 0 3.1437001343695 6.28318530717959
0

0101000
+81 0 -80 0 *
Ve
1e-07
12962.7 3615.50217987903 17270
0 0

0101101
*
Ed
 1e-07 1 1 0
1  34 0 0 9.99999999999818
2  14 9 0 0 9.99999999999818
0

0101000
+80 0 -78 0 *
Ve
1e-07
12962.7 3634.50217987903 17270.02
0 0

0101101
*
Ed
 1e-07 1 1 0
1  35 0 0 3.13948517281008
2  15 9 0 0 3.13948517281008
0

0101000
+78 0 -76 0 *
Ed
 1e-07 1 1 0
1  36 0 0 9.99999999999818
2  16 9 0 0 9.99999999999818
0

0101000
+76 0 -81 0 *
Wi

0101000
+79 0 +77 0 +75 0 +74 0 *
Fa
0  1e-07 9 0

0111000
+73 0 *
Sh

0101000
+72 0 *
Ve
1e-07
12972.7 3690.00217987903 17270.01
0 0

0101101
*
Ve
1e-07
12972.7 3634.50217987903 17270.02
0 0

0101101
*
Ed
 1e-07 1 1 0
1  37 0 0 55.5000009009004
0

0101000
+70 0 -69 0 *
Ve
1e-07
12962.7 3634.50217987903 17270.02
0 0

0101101
*
Ed
 1e-07 1 1 0
1  38 0 0 9.99999999999818
0

0101000
+69 0 -67 0 *
Ve
1e-07
12962.7 3690.00217987903 17270.01
0 0

0101101
*
Ed
 1e-07 1 1 0
1  39 0 0 55.5000009009004
0

0101000
+67 0 -65 0 *
Ed
 1e-07 1 1 0
1  40 0 0 9.99999999999818
0

0101000
+65 0 -70 0 *
Wi

0101000
+68 0 +66 0 +64 0 +63 0 *
Fa
0  1e-07 10 0

0111000
+62 0 *
Sh

0101000
+61 0 *
Ve
1e-07
12972.7 3690.00217987903 17230
0 0

0101101
*
Ve
1e-07
12972.7 3665.00217987903 17205
0 0

0101101
*
Ed
 1e-07 1 1 0
1  41 0 4.71238898038469 6.28318530717959
2  17 11 0 4.71238898038469 6.28318530717959
0

0101000
+59 0 -58 0 *
Ve
1e-07
12962.7 3665.00217987903 17205
0 0

0101101
*
Ed
 1e-07 1 1 0
1  42 0 0 9.99999999999818
2  18 11 0 0 9.99999999999818
0

0101000
+58 0 -56 0 *
Ve
1e-07
12962.7 3690.00217987903 17230
0 0

0101101
*
Ed
 1e-07 1 1 0
1  43 0 0 1.5707963267949
2  19 11 0 0 1.5707963267949
0

0101000
+56 0 -54 0 *
Ed
 1e-07 1 1 0
1  44 0 0 9.99999999999818
2  20 11 0 0 9.99999999999818
0

0101000
+54 0 -59 0 *
Wi

0101000
+57 0 +55 0 +53 0 +52 0 *
Fa
0  1e-07 11 0

0111000
+51 0 *
Sh

0101000
+50 0 *
Ve
1e-07
12972.7 3665.00217987903 17205
0 0

0101101
*
Ve
1e-07
12972.7 3690.00217987903 17230
0 0

0101101
*
Ed
 1e-07 1 1 0
1  45 0 0 1.5707963267949
0

0101000
+48 0 -47 0 *
Ve
1e-07
12972.7 3690.00217987903 17269.99
0 0

0101101
*
Ed
 1e-07 1 1 0
1  46 0 0 39.9900000000052
0

0101000
+47 0 -45 0 *
Ve
1e-07
12972.7 3634.50217987903 17270
0 0

0101101
*
Ed
 1e-07 1 1 0
1  47 0 0 55.5000009009004
0

0101000
+45 0 -43 0 *
Ve
2.10526110203367e-05
12972.7 3634.50217987903 17270.02
0 0

0101101
*
Ed
 1e-07 1 1 0
1  48 0 0 6.28108004713191
0

0101000
+43 0 -41 0 *
Ve
1e-07
12972.7 3690.00217987903 17270.01
0 0

0101101
*
Ed
 1e-07 1 1 0
1  49 0 0 55.5000009009004
0

0101000
+41 0 -39 0 *
Ve
1e-07
12972.7 3690.00217987903 17305
0 0

0101101
*
Ed
 1e-07 1 1 0
1  50 0 0 34.9900000000016
0

0101000
+39 0 -37 0 *
Ve
1e-07
12972.7 3647.32451034937 17322.6776695297
0 0

0101101
*
Ed
 1e-07 1 1 0
1  51 0 0 2.35619449019249
0

0101000
+37 0 -35 0 *
Ve
1e-07
12972.7 3572.32451034937 17247.6776695297
0 0

0101101
*
Ed
 1e-07 1 1 0
1  52 0 1.6077746776922e-12 106.066017177982
0

0101000
+35 0 -33 0 *
Ve
1e-07
12972.7 3590.00217987903 17205
0 0

0101101
*
Ed
 1e-07 1 1 0
1  53 0 0 2.35619449019234
0

0101000
+33 0 -31 0 *
Ed
 1e-07 1 1 0
1  54 0 0 75.0000000000005
0

0101000
+31 0 -48 0 *
Wi

0101100
+46 0 +44 0 +42 0 +40 0 +38 0 +36 0 +34 0 +32 0 +30 0 +29 0 
*
Fa
0  1e-07 12 0

0111000
+28 0 *
Sh

0101000
+27 0 *
Ve
1e-07
12962.7 3690.00217987903 17230
0 0

0101101
*
Ve
1e-07
12962.7 3665.00217987903 17205
0 0

0101101
*
Ed
 1e-07 1 1 0
1  55 0 4.71238898038469 6.28318530717959
0

0101000
+25 0 -24 0 *
Ve
1e-07
12962.7 3590.00217987903 17205
0 0

0101101
*
Ed
 1e-07 1 1 0
1  56 0 0 75.0000000000005
0

0101000
+24 0 -22 0 *
Ve
1e-07
12962.7 3572.32451034937 17247.6776695297
0 0

0101101
*
Ed
 1e-07 1 1 0
1  57 0 3.92699081698724 6.28318530717959
0

0101000
+22 0 -20 0 *
Ve
1e-07
12962.7 3647.32451034937 17322.6776695297
0 0

0101101
*
Ed
 1e-07 1 1 0
1  58 0 0 106.066017177982
0

0101000
+20 0 -18 0 *
Ve
1e-07
12962.7 3690.00217987903 17305
0 0

0101101
*
Ed
 1e-07 1 1 0
1  59 0 3.92699081698716 6.28318530717959
0

0101000
+18 0 -16 0 *
Ve
1e-07
12962.7 3690.00217987903 17270.01
0 0

0101101
*
Ed
 1e-07 1 1 0
1  60 0 0 34.9900000000016
0

0101000
+16 0 -14 0 *
Ve
1e-07
12962.7 3634.50217987903 17270.02
0 0

0101101
*
Ed
 1e-07 1 1 0
1  61 0 0 55.5000009009004
0

0101000
+14 0 -12 0 *
Ve
2.10748174297014e-05
12962.7 3634.50217987903 17270
0 0

0101101
*
Ed
 1e-07 1 1 0
1  62 0 3.1437001343695 9.42478017917117
0

0101000
+12 0 -10 0 *
Ve
1e-07
12962.7 3690.00217987903 17269.99
0 0

0101101
*
Ed
 1e-07 1 1 0
1  63 0 0 55.5000009009004
0

0101000
+10 0 -8 0 *
Ed
 1e-07 1 1 0
1  64 0 0 39.9900000000052
0

0101000
+8 0 -25 0 *
Wi

0101100
+23 0 +21 0 +19 0 +17 0 +15 0 +13 0 +11 0 +9 0 +7 0 +6 0 
*
Fa
0  1e-07 13 0

0111000
+5 0 *
Sh

0101000
+4 0 *
Co

0100000
+159 0 +148 0 +137 0 +126 0 +115 0 +104 0 +93 0 +82 0 +71 0 +60 0 
+49 0 +26 0 +3 0 *
Co

1100000
+2 0 *

+1 0 
0

