DBRep_DrawableShape

CASCADE Topology V1, (c) Matra-Datavision
Locations 0
Curve2ds 8
1 6.2831853071795862 5032811 -1 0 
1 2.2533710213945812 0 0 1 
1 0 5032800 1 0 
1 5.1991354292082583 0 0 1 
1 0 -5032811 1 0 
1 5.1155482427860699 0 0 -1 
1 6.2831853071795827 -5032800 -1 0 
1 2.3369154807557697 0 0 -1 
Curves 8
2 32810.999999999694 -16097.459284033803 4615.5600977399026 -1 -0 -0 0 -1 0 -0 0 1 115.00000000000045
1 -5000000 -16024.91809479109 4526.3257105158445 1 0 0 
2 32800.000000000182 -16097.459284033803 4615.5600977399026 1 0 0 0 -1 0 0 0 -1 115.00000000000045
1 -5000000 -16151.250843061842 4717.2039277412023 1 0 0 
2 32810.999999999694 -16097.459284033803 4615.5600977399026 1 0 0 0 -1 0 0 0 -1 65.000000000000441
1 -5000000 -16122.960491418517 4675.3487958518563 1 0 0 
2 32800.000000000182 -16097.459284033803 4615.5600977399026 -1 -0 -0 0 -1 0 -0 0 1 65.000000000000441
1 -5000000 -16052.391930363872 4568.7206524700296 1 0 0 
Polygon3D 0
PolygonOnTriangulations 0
Surfaces 4
2 -5000000 -16097.459284033803 4615.5600977399026 1 0 0 0 -1 0 0 0 -1 115.00000000000045
1 32811 0 0 1 0 0 -0 1 0 0 -0 1 
1 32800 0 0 1 0 0 -0 1 0 0 -0 1 
2 -5000000 -16097.459284033803 4615.5600977399026 -1 -0 -0 0 -1 0 0 -0 -1 65.000000000000441
Triangulations 0

TShapes 30
Ve
1e-007
32810.9999999997 -16151.2508430618 4717.2039277412
0 0

0101101
*
Ve
1e-007
32810.9999999997 -16024.9180947911 4526.32571051584
0 0

0101101
*
Ed
 1e-007 0 0 0
1  1 0 1.08404987797133 4.029814285785
2  1 1 0 1.08404987797133 4.029814285785
4 C0 1 0 2 0
0

0101000
+30 0 -29 0 *
Ve
1e-007
32800.0000000002 -16024.9180947911 4526.32571051584
0 0

0101101
*
Ed
 1e-007 0 0 0
1  2 0 5032800 5032811
2  2 1 0 5032800 5032811
0

0101000
+27 0 -29 0 *
Ve
1e-007
32800.0000000002 -16151.2508430618 4717.2039277412
0 0

0101101
*
Ed
 1e-007 0 0 0
1  3 0 2.25337102139458 5.19913542920826
2  3 1 0 2.25337102139458 5.19913542920826
4 C0 1 0 3 0
0

0101000
+27 0 -25 0 *
Ed
 1e-007 0 0 0
1  4 0 5032800 5032811
2  4 1 0 5032800 5032811
0

0101000
+25 0 -30 0 *
Wi

0101000
+28 0 -26 0 +24 0 +23 0 *
Fa
0  1e-007 1 0

0101000
+22 0 *
Ve
1e-007
32810.9999999997 -16052.3919303639 4568.72065247003
0 0

0101101
*
Ve
1e-007
32810.9999999997 -16122.9604914185 4675.34879585186
0 0

0101101
*
Ed
 1e-007 0 0 0
1  5 0 2.33691548075577 5.11554824278607
2  5 4 0 2.33691548075577 5.11554824278607
4 C0 4 0 2 0
0

0101000
+20 0 -19 0 *
Ve
1e-007
32800.0000000002 -16122.9604914185 4675.34879585186
0 0

0101101
*
Ed
 1e-007 0 0 0
1  6 0 5032800 5032811
2  6 4 0 5032800 5032811
0

0101000
+17 0 -19 0 *
Ve
1e-007
32800.0000000002 -16052.3919303639 4568.72065247003
0 0

0101101
*
Ed
 1e-007 0 0 0
1  7 0 1.16763706439352 3.94626982642382
2  7 4 0 1.16763706439352 3.94626982642382
4 C0 4 0 3 0
0

0101000
+17 0 -15 0 *
Ed
 1e-007 0 0 0
1  8 0 5032800 5032811
2  8 4 0 5032800 5032811
0

0101000
+15 0 -20 0 *
Wi

0101000
+18 0 -16 0 +14 0 +13 0 *
Fa
0  1e-007 4 0

0101000
+12 0 *
Ed
 2.22044604925031e-016 0 1 0
0

0101000
+29 0 -20 0 *
Ed
 2.22044604925031e-016 0 1 0
0

0101000
+19 0 -30 0 *
Wi

0101000
-18 0 -10 0 -28 0 -9 0 *
Fa
0  1e-007 2 0

0111000
+8 0 *
Ed
 2.22044604925031e-016 0 0 0
0

0101000
+25 0 -17 0 *
Ed
 2.22044604925031e-016 0 0 0
0

0101000
+15 0 -27 0 *
Wi

0101000
-14 0 -6 0 -24 0 -5 0 *
Fa
0  1e-007 3 0

0111000
-4 0 *
Sh

0101000
+21 0 +11 0 +7 0 -3 0 *
Co

1100000
+2 0 *

+1 0 