DBRep_DrawableShape

CASCADE Topology V1, (c) Matra-Datavision
Locations 0
Curve2ds 5
1 0.99999999999999989 3.2127977721892966e-016 -1 -2.9550721506258082e-015 
1 0.99999999999999989 3.2127977721892966e-016 3.3306690738754706e-016 1 
1 1.0000000000000002 1 -1 -3.0413394644104432e-016 
1 0.99999999999999978 2.5671211476724797e-017 -1 4.39335981620957e-016 
1 0.99999999999999978 2.5671211476724797e-017 2.4747561353848516e-015 1 
Curves 4
7 0 0  3 6 4  4499.4810485799999 -13993.128220390001 11693.780793739999  4499.3711523600005 -14701.77553203 12050.04534696  4499.1331018500005 -16000.692574310002 12920.960037249999  4498.62213729 -17347.967529310001 14668.229703210001  4498.2000675500003 -17655.560587379998 16144.326297580001  4497.9537864700005 -17649.69482044 17000 
 0 4 0.33333333332999998 1 0.66666666666999996 1 1 4
7 0 0  3 6 4  4499.4810485799999 -13993.128220390001 11693.780793739999  4244.0521349799992 -13876.82803563 11705.56527377  3733.1517182299999 -13644.52601541 11731.03401985  2966.6650999000003 -13296.96537484 11774.30030889  2455.5727111399997 -13065.849133 11805.989448909999  2200 -12950.438384390001 11822.42565015 
 0 4 0.33333333332999998 1 0.66666666666999996 1 1 4
7 0 0  3 6 4  2200 -12950.438384390001 11822.42565015  2200 -13688.723979 12142.14478294  2200 -15068.48399083 12940.73281623  2200 -16550.824908949999 14629.706182310001  2200 -16900.771621160002 16114.055441819999  2200 -16893.867808119998 17000 
 0 4 0.33333333332999998 1 0.66666666666999996 1 1 4
7 0 0  3 6 4  2200 -12950.438384390001 11822.42565015  1403.55076293 -12590.780257069999 11873.64629839  -196.78232796 -11871.204358700001 11992.342903120001  -2607.0994496000003 -10796.902034229999 12184.768017799999  -4205.2019899300003 -10090.90030078 12363.520569529999  -5000 -9741.3223074800007 12481.88409747 
 0 4 0.33333333332999998 1 0.66666666666999996 1 1 4
Polygon3D 0
PolygonOnTriangulations 0
Surfaces 2
10 0.63456514497696725 1 0 1
9 0 0 0 0 3 3 6 6 4 4 4497.9537864700005 -17649.69482044 17000  4241.9927386499994 -17567.65418338 17000  3730.5029331199999 -17402.226872130002 17000  2964.5338072600002 -17150.206047689997 17000  2454.7112194199999 -16979.709088530002 17000  2200 -16893.867808119998 17000  
4498.2000675500003 -17655.560587379998 16144.326297580001  4236.5131351 -17574.926460619998 16157.06283631  3724.9808454500003 -17409.100130620001 16151.406516540001  2957.5571236000001 -17157.571351720002 16142.90756661  2447.6518858300001 -16986.89129725 16136.651540759998  2200 -16900.771621160002 16114.055441819999  
4498.62213729 -17347.967529310001 14668.229703210001  4245.22050356 -17264.861322960001 14657.88114757  3733.8845875299999 -17090.32659352 14647.230496460001  2968.3633183699999 -16824.83793139 14634.046971869999  2458.3839073700001 -16646.64154873 14627.71879529  2200 -16550.824908949999 14629.706182310001  
4499.1331018500005 -16000.692574310002 12920.960037249999  4241.3553794999998 -15886.652900019999 12918.079183170001  3729.7895490000001 -15680.087706229999 12919.853779609999  2963.1127076299999 -15368.6878361 12926.971768559999  2453.0095420500002 -15158.2342783 12933.79432868  2200 -15068.48399083 12940.73281623  
4499.3711523600005 -14701.77553203 12050.04534696  4246.42275264 -14612.552598080001 12068.556243699999  3736.02203775 -14388.136846699999 12086.20943089  2969.9222980100003 -14051.66757616 12117.5216064  2459.0740562000001 -13829.210797629999 12140.145852990001  2200 -13688.723979 12142.14478294  
4499.4810485799999 -13993.128220390001 11693.780793739999  4244.0521349799992 -13876.82803563 11705.56527377  3733.1517182299999 -13644.52601541 11731.03401985  2966.6650999000003 -13296.96537484 11774.30030889  2455.5727111399997 -13065.849133 11805.989448909999  2200 -12950.438384390001 11822.42565015  

0 4
0.33333333332999998 1
0.66666666666999996 1
1 4

0 4
0.33333333332999998 1
0.66666666666999996 1
1 4

10 0.59790337194165333 1 0 0.13934823951924111
9 0 0 0 0 3 3 6 6 4 4 2200 -16893.867808119998 17000  1394.63932067 -16622.449878200001 17000  -212.24334969 -16067.56766715 17000  -2612.4988267099998 -15205.686660590001 17000  -4205.5376701799996 -14612.23122254 17000  -5000 -14310.4 17000  
2200 -16900.771621160002 16114.055441819999  1385.9403779299998 -16628.889672140001 16124.67090714  -221.8732286 -16073.074475999998 16110.58445783  -2626.4274844500001 -15208.81587644 16086.85777814  -4219.3885807199995 -14614.919982989999 16086.15085066  -5000 -14310.4 16049.375507410001  
2200 -16550.824908949999 14629.706182310001  1399.2946183099998 -16271.673945020002 14607.9158154  -205.76996371999999 -15690.683111140001 14582.12400064  -2605.66527262 -14784.36021941 14557.55565276  -4199.20954987 -14178.080929529999 14559.095331789998  -5000 -13865.25958285 14586.03204523  
2200 -15068.48399083 12940.73281623  1398.27029135 -14722.34399526 12951.652855529999  -199.57573894000001 -14058.286667440001 12991.881083259999  -2603.52822315 -13053.040532380001 13063.47823359  -4201.2916668100006 -12398.112691819999 13134.496057350001  -5000 -12097.64274411 13153.151759869999  
2200 -13688.723979 12142.14478294  1404.7971365200001 -13367.19959835 12189.134728110001  -192.08135005999998 -12664.72110886 12276.858979449999  -2595.7245593399998 -11603.806527750001 12442.835942220001  -4199.9232111900001 -10930.500565639999 12558.247154979999  -5000 -10548.552191320001 12647.239756379999  
2200 -12950.438384390001 11822.42565015  1403.55076293 -12590.780257069999 11873.64629839  -196.78232796 -11871.204358700001 11992.342903120001  -2607.0994496000003 -10796.902034229999 12184.768017799999  -4205.2019899300003 -10090.90030078 12363.520569529999  -5000 -9741.3223074800007 12481.88409747  

0 4
0.33333333332999998 1
0.66666666666999996 1
1 4

0 4
0.33333333332999998 1
0.66666666666999996 1
1 4

Triangulations 0

TShapes 21
Ve
1e-007
4499.17549334159 -15627.2168398679 12754.0512276303
0 0

0101101
*
Ve
1e-007
2200 -15136.8441766198 13162.1268550696
0 0

0101101
*
Ed
 2.22044604925031e-016 0 1 0
0

0101000
+21 0 -20 0 *
Ve
1e-007
4499.48104858 -13993.12822039 11693.78079374
0 0

0101101
*
Ed
 1e-007 0 0 0
1  1 0 0 0.279595280672858
2  1 1 0 0 0.279595280672858
0

0101000
+18 0 -21 0 *
Ve
1e-007
2200 -12950.43838439 11822.42565015
0 0

0101101
*
Ed
 1e-007 0 0 0
1  2 0 0 1
2  2 1 0 0 1
0

0101000
+18 0 -16 0 *
Ed
 1e-007 0 0 0
1  3 0 0 0.365044099028377
2  3 1 0 0 0.365044099028377
2  4 2 0 0 0.365044099028377
4 C0 1 0 2 0
0

0101000
+16 0 -20 0 *
Wi

0101000
-19 0 -17 0 +15 0 +14 0 *
Fa
0  1e-007 1 0

0111000
+13 0 *
Ve
1e-007
1200 -14919.8436043396 13341.9899999996
0 0

0101101
*
Ve
1e-007
1200 -12660 11956.3205104955
0 0

0101101
*
Ed
 2.22044604925031e-016 0 1 0
0

0101000
+11 0 -10 0 *
Ed
 2.22044604925031e-016 0 1 0
0

0101000
+20 0 -11 0 *
Ve
1e-007
1556.0882905305 -12660 11865.441924761
0 0

0101101
*
Ed
 1e-007 0 0 0
1  4 0 0 0.0897238324819835
2  5 2 0 0 0.0897238324819835
0

0101000
+16 0 -7 0 *
Ed
 2.22044604925031e-016 0 1 0
0

0101000
+7 0 -10 0 *
Wi

0101000
-9 0 -8 0 -14 0 +6 0 +5 0 *
Fa
0  1e-007 2 0

0111000
+4 0 *
Sh

0101000
+12 0 +3 0 *
Co

1100000
+2 0 *

+1 0 