DBRep_DrawableShape

CASCADE Topology V1, (c) Matra-Datavision
Locations 0
Curve2ds 23
1 1.5707963267948601 0 1 0 
1 7.8539816339744464 0 0 1 
1 1.5707963267948601 0 0 1 
7 0 0  3 81 79  7.85398163397441 75.700000000011642  7.8386756239333124 75.699966175883873  7.8083141960673013 75.717749094856629  7.7632705108739701 75.797023770712897  7.7180289488119724 75.928770871462419  7.6734437234171367 76.109980163358202  7.6294606388036552 76.337903089489586  7.5858201984632156 76.612777835483939  7.5425252354946037 76.932384770775343  7.499703440996667 77.293627921127168  7.4574470126314232 77.693677834889201  7.415900982096252 78.129515313649122  7.375001874485549 78.598730115321587  7.3347127101069578 79.099337781179912  7.2950228712277543 79.629240022576738  7.2559226325377395 80.186369221583448  7.2174097387128864 80.768648907404454  7.1794869212460251 81.374007350124288  7.142163247791907 82.000362708955478  7.1054489071839004 82.645668845806057  7.0693721914289096 83.307746922673729  7.0339140942873275 83.984913198545996  6.9988291696959255 84.679566702309316  6.9641846043286053 85.390520982428527  6.9299821505720836 86.117399290428537  6.8962466097714001 86.859608003816888  6.86300171125162 87.616611292979655  6.8302753994173973 88.387859030937278  6.7981000513794161 89.172800487206572  6.7665035740687856 89.970901642728236  6.7355421182494553 90.781562236207691  6.7051707497446351 91.604423411704943  6.6755505406828686 92.444590643015971  6.646882777462082 93.306879245640118  6.6193946904888117 94.196305427221716  6.5932019117668723 95.117371985165192  6.5689284641345811 96.076650536310893  6.5478576254827798 97.076321860756536  6.5312100296080384 98.132879853122745  6.520955014463901 99.241863610745114  6.5194114369148055 100.37489759519094  6.5269318523794775 101.49682108325483  6.5417321384445462 102.58155291983212  6.5616327429772072 103.60268432218709  6.5850478179933143 104.57438581640729  6.6107594144034341 105.51087471659349  6.6380064512659711 106.4155784772168  6.666614498112108 107.29287090447491  6.6962847257996918 108.1471124114187  6.7267310346095037 108.98243853950447  6.7577773531716474 109.80389770971416  6.7895427720191242 110.61218257975509  6.8218856053308272 111.40619517306212  6.8547372708418095 112.1853507614908  6.8880029683944777 112.94874232613672  6.9216434087175021 113.69624760243583  6.9557152585800761 114.42832437408278  6.9902449381121938 115.14488916438046  7.0252821278263013 115.84613766665262  7.0608347910588156 116.53169015461901  7.0971047721978522 117.20361789171297  7.1340415846667709 117.85923389180221  7.1715740584615384 118.49563392520156  7.2096449198828907 119.11005463778085  7.2481903580826943 119.69938641709236  7.2871948833869471 120.26228714366025  7.3267525206586566 120.79773814872163  7.3669482428772248 121.30455492489413  7.4078732624149168 121.78156224321162  7.4496399214260762 122.22771360009831  7.4919536298572487 122.63659815996908  7.5348189474898817 123.00646606339237  7.5781954858482097 123.3347111696401  7.6220578688838572 123.6190577329353  7.6664019149284028 123.85676470894948  7.7111393026933488 124.04563240451965  7.7561308373242337 124.18467673633045  7.8012700161462369 124.27257893671688  7.8338663914257491 124.29835159448699  7.8514486337531082 124.2999814874448  7.8539816339744455 124.29996277249793 
 0.03125 4 0.037743518930510103 1 0.044237037861020206 1 0.050730556791530303 1 0.057224075722040406 1 0.063717594652550516 1 0.070211113583060605 1 0.076704632513570709 1 0.083198151444080812 1 0.089691670374590915 1 0.096185189305101018 1 0.10267870823561112 1 0.10917222716612121 1 0.11566574609663131 1 0.12215926502714142 1 0.12865278395765153 1 0.13514630288816165 1 0.14163982181867177 1 0.14813334074918189 1 0.154626859679692 1 0.16112037861020212 1 0.16761389754071224 1 0.17410741647122235 1 0.18060093540173247 1 0.18709445433224256 1 0.19358797326275268 1 0.20008149219326279 1 0.20657501112377291 1 0.21306853005428303 1 0.21956204898479315 1 0.22605556791530326 1 0.23254908684581338 1 0.2390426057763235 1 0.24553612470683361 1 0.2520296436373437 1 0.25852316256785379 1 0.26501668149836388 1 0.27151020042887397 1 0.27800371935938406 1 0.28449723828989415 1 0.29099075722040424 1 0.29748427615091433 1 0.30397779508142442 1 0.31047131401193451 1 0.3169648329424446 1 0.32345835187295469 1 0.32995187080346478 1 0.33644538973397486 1 0.3429389086644849 1 0.34943242759499499 1 0.35592594652550508 1 0.36241946545601517 1 0.36891298438652526 1 0.37540650331703534 1 0.38190002224754543 1 0.38839354117805552 1 0.39488706010856561 1 0.4013805790390757 1 0.40787409796958579 1 0.41436761690009588 1 0.42086113583060597 1 0.42735465476111606 1 0.43384817369162615 1 0.44034169262213624 1 0.44683521155264633 1 0.45332873048315642 1 0.45982224941366651 1 0.4663157683441766 1 0.47280928727468668 1 0.47930280620519677 1 0.48579632513570686 1 0.49228984406621695 1 0.49878336299672704 1 0.50527688192723708 1 0.51177040085774728 1 0.51826391978825748 1 0.52475743871876757 1 0.53125095764927766 1 0.53234368879218485 4
1 7.8539816339744464 0 0 1 
1 1.5707963267948601 0 0 1 
1 7.8539816339744464 133.27097661623702 -1 0 
7 0 0  3 80 78  1.5707963267948601 124.29996277249793  1.5833155972029491 124.29987027448767  1.6109106068146437 124.28602939420065  1.6536857892480628 124.21893580293299  1.6988605107318913 124.09657076928617  1.7437366223538309 123.92420713334742  1.7879778569128597 123.70373415404767  1.8319076954135081 123.43469096146958  1.8755396403354414 123.11995592747344  1.9186803841759557 122.76302496215098  1.9612063880236281 122.36707817570358  2.0028831246118495 121.93594133940142  2.0439708282786042 121.47030978151321  2.0845094458129849 120.97198347425874  2.1245070402304629 120.44295112516829  2.1639707447161634 119.88520040041688  2.2029113615685132 119.30053439620285  2.2410327784687984 118.6959215090892  2.2784711300367508 118.07111413711415  2.3152902452231019 117.42697282494922  2.3515586350460191 116.76421426172561  2.3873656345492247 116.08302241201606  2.4227981533405019 115.38245255599915  2.4577921937821743 114.66470065504056  2.492313531460685 113.93129503953297  2.5263174710610921 113.18373345633712  2.5597526966707629 112.42430361776394  2.5926171847109534 111.65305260779708  2.6249109009160194 110.86881429791526  2.6566405621455167 110.07064044877383  2.6877619450949015 109.25791050995718  2.7184156490552991 108.42841043100594  2.7483891321213432 107.57917202345762  2.7773901843853186 106.70805280644674  2.805121344787969 105.81244662788164  2.8313508046719269 104.8907763130658  2.8555371094557196 103.93765185081031  2.8766721312753347 102.93706003725508  2.8935556737474308 101.87083091351415  2.9038767350289305 100.75477664853256  2.9053503406569017 99.605487965541244  2.8976002032409292 98.478898092981183  2.8827163206461712 97.399315950823407  2.8627037627211878 96.377776468751435  2.8390774330950279 95.400145426159511  2.8132117127210408 94.461325602304498  2.7857288436012477 93.551595637791209  2.7568719606204053 92.669052619955977  2.7269705079802442 91.810027338611405  2.6963332815997099 90.97151493870264  2.665228075959635 90.149619441994034  2.6335767590172563 89.342829521668264  2.6014018661524907 88.551184284076712  2.568695927160642 87.774321940245457  2.5354550220306913 87.011991049667373  2.5016691467525063 86.263899673293082  2.4673265799985047 85.529807517731825  2.4324056305112283 84.809308205413672  2.3969030887574307 84.102608050000725  2.3607287474628471 83.407628684232193  2.3241533373145531 82.732265192956646  2.2871694000759319 82.078396429760502  2.2497058325846773 81.446145049202926  2.2116968480741779 80.836078910252539  2.1730936030012358 80.248741253441821  2.1336406069569147 79.683302225511937  2.0934658198303908 79.143733456031214  2.0526528495296974 78.633435739620268  2.0112908164883518 78.155946828144479  1.9694531890878202 77.714827479394501  1.9268839946965595 77.30959489616005  1.8837183106360498 76.943664081517994  1.8400219999311305 76.619769050693805  1.795841985842173 76.340751342870334  1.7513304605097482 76.109703389077893  1.706715644266481 75.928249409807435  1.6618276127034812 75.797281768631777  1.6165883310288645 75.717876869070764  1.5861224577091186 75.700000000006781  1.5707963267948239 75.700000000011642 
 0.53234368879218497 4 0.53774445584627328 1 0.54423794984829599 1 0.5507314438503188 1 0.55722493785234151 1 0.56371843185436432 1 0.57021192585638703 1 0.57670541985840984 1 0.58319891386043254 1 0.58969240786245536 1 0.59618590186447806 1 0.60267939586650088 1 0.60917288986852358 1 0.6156663838705464 1 0.6221598778725691 1 0.62865337187459192 1 0.63514686587661462 1 0.64164035987863743 1 0.64813385388066014 1 0.65462734788268284 1 0.66112084188470566 1 0.66761433588672836 1 0.67410782988875118 1 0.68060132389077388 1 0.68709481789279669 1 0.6935883118948194 1 0.70008180589684221 1 0.70657529989886492 1 0.71306879390088773 1 0.71956228790291044 1 0.72605578190493325 1 0.73254927590695595 1 0.73904276990897877 1 0.74553626391100147 1 0.75202975791302429 1 0.75852325191504699 1 0.76501674591706981 1 0.77151023991909251 1 0.77800373392111533 1 0.78449722792313803 1 0.79099072192516084 1 0.79748421592718355 1 0.80397770992920636 1 0.81047120393122907 1 0.81696469793325188 1 0.82345819193527459 1 0.8299516859372974 1 0.8364451799393201 1 0.84293867394134292 1 0.84943216794336562 1 0.85592566194538844 1 0.86241915594741114 1 0.86891264994943385 1 0.87540614395145666 1 0.88189963795347937 1 0.88839313195550218 1 0.89488662595752488 1 0.9013801199595477 1 0.9078736139615704 1 0.91436710796359322 1 0.92086060196561592 1 0.92735409596763874 1 0.93384758996966144 1 0.94034108397168426 1 0.94683457797370696 1 0.95332807197572977 1 0.95982156597775248 1 0.96631505997977529 1 0.972808553981798 1 0.97930204798382081 1 0.98579554198584352 1 0.99228903598786633 1 0.99878252998988903 1 1.0052760239919118 1 1.0117695179939343 1 1.018263011995957 1 1.0247565059979795 1 1.0312500000000022 4
1 7.853981633974457 146.43466299862484 -1 0 
1 7.853981633974457 0 0 1 
1 1.5707963267948708 0 0 1 
1 1.5707963267948708 133.27097661623702 1 0 
1 1.5707963267948966 -325.77241176437389 1 0 
1 7.8539816339744828 0 0 1 
1 1.5707963267948966 0 0 1 
1 7.8539816339745192 -279.84819543448509 -1 0 
1 7.8539816339744268 346.52269601100852 -1 0 
1 7.8539816339744268 0 0 1 
1 1.5707963267948406 0 0 1 
1 1.5707963267948406 194.70151306740445 1 0 
1 1.5707963267948966 -343.74883970306399 1 0 
1 4.7123889803846897 -136.29048964460301 -1 0 
1 -1.5707963267948966 -136.29048964460301 1 0 
Curves 20
2 35666.000000000007 559.99999999999989 6862.9999999999973 -1 -1.227272601283844e-16 -1.9989977555199953e-17 1.2272726012838415e-16 -1 1.2128336176014919e-14 -1.9989977555201442e-17 1.2128336176014919e-14 1 25
7 0 0  1 2 2  35666.000000000007 534.99999999999989 6862.9999999999964  35590.299999999996 534.99999999999989 6862.9999999999964 
 0 2 75.700000000011642 2
7 0 1  3 69 35  35590.299999999996 534.99999999999989 6862.9999999999964  35590.299999999996 534.99999999999989 6862.078025718728  35590.24868224989 535.04988950083828 6861.1794799485315  35590.045459778681 535.24735248438947 6859.376638557068  35589.894876466307 535.39364034613641 6858.4944600087556  35589.311872195474 535.95952077103675 6855.9185691732782  35588.737780891286 536.51631120048921 6854.2661089861167  35586.621162390358 538.56147912241829 6849.716634836007  35584.681631547712 540.42987356367018 6847.1835158486756  35580.362165604885 544.49973250838332 6843.178478178218  35577.933860435871 546.77194129680174 6841.6436667898151  35574.010668003168 550.0906897366641 6840.0146960773855  35572.657588084738 551.19187825726931 6839.5801380975263  35570.423487399232 552.66756362773549 6839.093858281014  35569.644020055515 553.12730135688946 6838.9603870644369  35567.991665680987 553.84192914470475 6838.7674776370295  35567.097305194708 554.09285799233908 6838.7078902801186  35565.285540964833 554.15186356851348 6838.6936176772406  35564.377223679519 553.95593309772312 6838.7392234433619  35562.678822818714 553.29719763065918 6838.9128983842411  35561.891761886698 552.85521428986124 6839.0373438396109  35559.621648439563 551.40728573607373 6839.5012197338374  35558.242229796073 550.29563753267325 6839.9272850027264  35555.590681313726 548.06913381716572 6840.9959262778466  35554.31442836592 546.93058122079378 6841.6461487010956  35551.887863079246 544.72225372376181 6843.1660104557632  35550.734701519956 543.64754977870405 6844.0355674690418  35548.546641750268 541.5882373264094 6846.0276894704166  35547.501990342862 540.59350507832551 6847.1639336561902  35545.617127084675 538.78921990704737 6849.6772431441932  35544.774348153987 537.97720548112079 6851.0506024772203  35543.331019049423 536.58295749949946 6854.0874414387381  35542.745404136491 536.01507323497424 6855.7292550729408  35541.935750838631 535.22927996910221 6859.1853082865255  35541.714876207756 535.01445965015182 6861.0019107495609  35541.686608496078 534.98698348075311 6864.6182063633769  35541.881694635871 535.17673622061432 6866.4541937597332  35542.63700880394 535.90993713891999 6869.9133747576661  35543.205951749762 536.46180858364869 6871.5869688679186  35544.602306036162 537.81128380260679 6874.6380137052211  35545.436951604723 538.61596093870116 6876.0447380663754  35547.306468758929 540.40698396036021 6878.6062820769685  35548.322397324475 541.37537884453423 6879.739112428003  35550.492375385365 543.42093796322638 6881.7672347468333  35551.655158224668 544.50676452130665 6882.666841487212  35554.075585164486 546.71626824990562 6884.2218630302077  35555.328834942906 547.83875053208635 6884.8778905997469  35557.955956922699 550.06376057179853 6885.9740991497119  35559.334940186083 551.18601116459479 6886.4176643719829  35561.567235780494 552.6618978718875 6886.904405621447  35562.337844774964 553.11828923937037 6887.0371018137912  35564.004106998305 553.84125410696799 6887.2324174531677  35564.901967231766 554.09461502115357 6887.2925351612839  35566.738152735918 554.15083208910835 6887.3061323756128  35567.647338256989 553.94868181991717 6887.2589798012159  35569.337581135798 553.28850417405454 6887.0846917458111  35570.132033263559 552.84153641883381 6886.9586404108722  35572.408551590903 551.38494681965085 6886.4908719170135  35573.801162795127 550.26082173560815 6886.0583135840852  35577.785698885928 546.91006083024683 6884.4430214047125  35580.201245351149 544.6498192023297 6882.9461146471913  35583.525003277835 541.52037851747116 6879.9003690750351  35584.553444325116 540.54063847591704 6878.7714190061897  35586.433181576198 538.74085222955512 6876.2458689585919  35587.29308242118 537.91218894774647 6874.8294102323916  35588.722216937917 536.5314001129467 6871.7767398769511  35589.303490006183 535.96765460008726 6870.1149889185435  35590.092989013421 535.2013488561721 6866.6336750237824  35590.299999999996 534.99999999999989 6864.8439485625349 
 0.03125 3 0.046875 2 0.0625 2 0.09375 2 0.15625 2 0.21875 2 0.25 2 0.265625 2 0.28125 2 0.29687499999999989 2 0.31249999999999989 2 0.34374999999999989 2 0.37499999999999989 2 0.40624999999999989 2 0.43749999999999989 2 0.46874999999999989 2 0.49999999999999989 2 0.53124999999999989 2 0.56249999999999989 2 0.59374999999999989 2 0.62499999999999989 2 0.65624999999999989 2 0.68749999999999978 2 0.71874999999999978 2 0.74999999999999978 2 0.76562499999999978 2 0.78124999999999978 2 0.79687499999999989 2 0.81249999999999989 2 0.84375 2 0.90625 2 0.9375 2 0.96875 2 1 2 1.03125 3
7 0 0  1 2 2  35541.700037227507 534.99999999999989 6862.9999999999964  35532.72902338377 534.99999999999989 6862.9999999999964 
 124.29996277249793 2 133.27097661623702 2
2 35532.72902338377 559.99999999999989 6862.9999999999973 1 1.227272601283844e-16 1.9989977555199953e-17 1.2272726012838415e-16 -1 1.2128336176014919e-14 1.9989977555201442e-17 -1.2128336176014919e-14 -1 25
2 35532.72902338377 559.99999999999989 6862.9999999999973 1 1.227272601283844e-16 1.9989977555199953e-17 1.2272726012838415e-16 -1 1.2128336176014915e-14 1.9989977555201442e-17 -1.2128336176014915e-14 -1 35.541953232462177
2 35532.72902338377 559.99999999999989 6862.9999999999973 -1 -1.227272601283844e-16 -1.9989977555199953e-17 1.2272726012838415e-16 -1 1.2128336176014919e-14 -1.9989977555201442e-17 1.2128336176014919e-14 1 25
2 35519.565337001382 559.99999999999989 6862.9999999999973 1 1.227272601283844e-16 1.9989977555199953e-17 1.2272726012838415e-16 -1 1.2128336176014915e-14 1.9989977555201442e-17 -1.2128336176014915e-14 -1 35.541953232462177
7 0 0  1 2 2  35532.72902338377 524.45804676753767 6862.9999999999964  35519.56533700139 524.45804676753767 6862.9999999999964 
 133.27097661623702 2 146.43466299862484 2
2 35532.72902338377 559.99999999999989 6862.9999999999973 -1 -1.227272601283844e-16 -1.9989977555199953e-17 1.2272726012838415e-16 -1 1.2128336176014915e-14 -1.9989977555201442e-17 1.2128336176014915e-14 1 35.541953232462177
2 35519.565337001382 559.99999999999989 6862.9999999999973 -1 -1.227272601283844e-16 -1.9989977555199953e-17 1.2272726012838415e-16 -1 1.2128336176014915e-14 -1.9989977555201442e-17 1.2128336176014915e-14 1 35.541953232462177
2 35519.565337001382 559.99999999999989 6862.9999999999973 1 1.227272601283844e-16 1.9989977555199953e-17 1.2272726012838415e-16 -1 1.2128336176014919e-14 1.9989977555201442e-17 -1.2128336176014919e-14 -1 25
2 35471.298486932603 559.99999999999989 6862.9999999999973 1 1.227272601283844e-16 1.9989977555199953e-17 1.2272726012838415e-16 -1 1.2128336176014919e-14 1.9989977555201442e-17 -1.2128336176014919e-14 -1 16.235213204951858
7 0 0  1 2 2  35474.380070433363 526.79479855880629 6862.9999999999982  35519.565337001382 534.99999999999966 6862.9999999999982 
 -325.77241176437389 2 -279.84819543448509 2
2 35519.565337001382 559.99999999999989 6862.9999999999973 -1 -1.227272601283844e-16 -1.9989977555199953e-17 1.2272726012838415e-16 -1 1.2128336176014919e-14 -1.9989977555201442e-17 1.2128336176014919e-14 1 25
2 35319.477303988999 559.99999999999989 6862.9999999999973 1 1.227272601283844e-16 1.9989977555199953e-17 1.2272726012838415e-16 -1 1.2128336176014919e-14 1.9989977555201442e-17 -1.2128336176014919e-14 -1 16.235213204951858
7 0 0  1 2 2  35471.298486932603 543.76478679504805 6862.9999999999964  35319.477303988999 543.76478679504805 6862.9999999999964 
 194.70151306740445 2 346.52269601100852 2
2 35471.298486932603 559.99999999999989 6862.9999999999973 -1 -1.227272601283844e-16 -1.9989977555199953e-17 1.2272726012838415e-16 -1 1.2128336176014919e-14 -1.9989977555201442e-17 1.2128336176014919e-14 1 16.235213204951858
2 35319.477303988999 559.99999999999989 6862.9999999999973 -1 -1.227272601283844e-16 -1.9989977555199953e-17 1.2272726012838415e-16 -1 1.2128336176014919e-14 -1.9989977555201442e-17 1.2128336176014919e-14 1 16.235213204951858
2 35116 559.99999999999989 6862.9999999999973 1 1.227272601283844e-16 1.9989977555199953e-17 1.2272726012838415e-16 -1 1.2128336176014917e-14 1.9989977555201442e-17 -1.2128336176014917e-14 -1 35.541953232462134
Polygon3D 0
PolygonOnTriangulations 0
Surfaces 7
10 1.5707963267948601 7.8539816339744464 0 133.27097661623702
2 35666.000000000007 559.99999999999989 6862.9999999999973 -1 -1.227272601283844e-16 -1.9989977555199953e-17 1.9989977555201442e-17 -1.2128336176014919e-14 -1 1.2272726012838415e-16 -1 1.2128336176014919e-14 25
1 35532.72902338377 524.45804676753767 6862.9999999999973 1 1.227272601283844e-16 1.9989977555199953e-17 1.9989977555201442e-17 -1.2128336176014917e-14 -1 -1.2272726012838415e-16 1 -1.2128336176014917e-14 
10 1.5707963267948708 7.853981633974457 133.27097661623702 146.43466299862484
2 35666.000000000007 559.99999999999989 6862.9999999999973 -1 -1.227272601283844e-16 -1.9989977555199953e-17 1.9989977555201442e-17 -1.2128336176014915e-14 -1 1.2272726012838415e-16 -1 1.2128336176014915e-14 35.541953232462177
1 35519.565337001382 524.45804676753767 6862.9999999999973 -1 -1.227272601283844e-16 -1.9989977555199953e-17 -1.9989977555201442e-17 1.2128336176014917e-14 1 -1.2272726012838415e-16 1 -1.2128336176014917e-14 
10 1.5707963267948966 7.8539816339744828 -325.77241176437389 -279.84819543448509
3 35794.910597516136 559.99999999999989 6862.9999999999973 1 1.227272601283844e-16 1.998997755519995e-17 1.9989977555201454e-17 -1.2250800855929654e-14 -1 -1.2272726012838415e-16 1 -1.2250800855929654e-14 25
0.17963280128527431
10 1.5707963267948406 7.8539816339744268 194.70151306740445 346.52269601100852
2 35666.000000000007 559.99999999999989 6862.9999999999973 -1 -1.227272601283844e-16 -1.9989977555199953e-17 1.9989977555201442e-17 -1.2128336176014919e-14 -1 1.2272726012838415e-16 -1 1.2128336176014919e-14 16.235213204951858
3 34977.265474552958 560 6862.9999999999964 -1 -1.227272601283844e-16 -1.9989977555199957e-17 -1.9989977555201429e-17 1.2005871496100183e-14 1 -1.2272726012838415e-16 1 -1.2005871496100183e-14 16.235213204951858
0.094600779911344912
Triangulations 0

TShapes 67
Ve
1e-05
35666 535 6863
0 0

0101101
*
Ed
 1e-07 1 1 0
1  1 0 0 6.28318530717959
2  1 1 0 0 6.28318530717959
0

0101000
+67 0 -67 0 *
Ve
0.00213980775730544
35590.3 535 6863
0 0

0101101
*
Ed
 1e-05 1 1 0
1  2 0 0 75.7000000000116
3  2 3CN 1 0 0 75.7000000000116
0

0101000
+67 0 -65 0 *
Ve
0.00213980775730544
35541.7000372275 535 6863
0 0

0101101
*
Ed
 0.00213980775730544 1 1 0
1  3 0 0.03125 0.532343688792185
2  4 1 0 0.03125 0.532343688792185
0

0101000
+65 0 -63 0 *
Ve
1e-05
35532.7290233838 535 6863
0 0

0101101
*
Ed
 1e-05 1 1 0
1  4 0 124.299962772498 133.270976616237
3  5 6CN 1 0 124.299962772498 133.270976616237
0

0101000
+63 0 -61 0 *
Ed
 1e-07 1 1 0
1  5 0 0 6.28318530717959
2  7 1 0 0 6.28318530717959
0

0101000
+61 0 -61 0 *
Ed
 0.00112107604466619 1 1 0
1  3 0 0.532343688792185 1.03125
2  8 1 0 0.532343688792185 1.03125
0

0101000
+63 0 -65 0 *
Wi

0101100
+66 0 +64 0 +62 0 +60 0 +59 0 -60 0 +58 0 -64 0 *
Fa
0  1e-07 1 0

0111000
+57 0 *
Sh

0101000
+56 0 *
Ve
1e-07
35532.7290233838 524.458046767538 6863
0 0

0101101
*
Ed
 1e-07 1 1 0
1  6 0 0 6.28318530717959
0

0101000
+54 0 -54 0 *
Wi

0101000
+53 0 *
Ve
1e-07
35532.7290233838 535 6863
0 0

0101101
*
Ed
 1e-07 1 1 0
1  7 0 0 6.28318530717959
0

0101000
+51 0 -51 0 *
Wi

0101000
+50 0 *
Fa
0  1e-07 2 0

0111000
+52 0 +49 0 *
Sh

0101000
+48 0 *
Ve
1e-05
35519.5653370014 524.458046767538 6863
0 0

0101101
*
Ed
 1e-07 1 1 0
1  8 0 0 6.28318530717959
2  9 3 0 0 6.28318530717959
0

0101000
+46 0 -46 0 *
Ve
1e-05
35532.7290233838 524.458046767538 6863
0 0

0101101
*
Ed
 1e-05 1 1 0
1  9 0 133.270976616237 146.434662998625
3  10 11CN 3 0 133.270976616237 146.434662998625
0

0101000
-46 0 +44 0 *
Ed
 1e-07 1 1 0
1  10 0 0 6.28318530717959
2  12 3 0 0 6.28318530717959
0

0101000
+44 0 -44 0 *
Wi

0101100
+45 0 -43 0 +42 0 +43 0 *
Fa
0  1e-07 3 0

0111000
+41 0 *
Sh

0101000
+40 0 *
Ve
1e-07
35519.5653370014 524.458046767538 6863
0 0

0101101
*
Ed
 1e-07 1 1 0
1  11 0 0 6.28318530717959
0

0101000
+38 0 -38 0 *
Wi

0101000
+37 0 *
Ve
1e-07
35519.5653370014 535 6863
0 0

0101101
*
Ed
 1e-07 1 1 0
1  12 0 0 6.28318530717959
0

0101000
+35 0 -35 0 *
Wi

0101000
+34 0 *
Fa
0  1e-07 4 0

0111000
+36 0 +33 0 *
Sh

0101000
+32 0 *
Ve
17.2476841104308
35471.2984869326 543.764786795048 6863
0 0

0101101
*
Ed
 17.2476841104308 1 1 0
1  13 0 0 6.28318530717959
2  13 5 0 0 6.28318530717959
0

0101000
+30 0 -30 0 *
Ve
1e-05
35519.5653370014 535 6863
0 0

0101101
*
Ed
 1e-05 1 1 0
1  14 0 -325.772411764374 -279.848195434485
3  14 15CN 5 0 -325.772411764374 -279.848195434485
0

0101000
+30 0 -28 0 *
Ed
 1e-07 1 1 0
1  15 0 0 6.28318530717959
2  16 5 0 0 6.28318530717959
0

0101000
+28 0 -28 0 *
Wi

0101100
+29 0 +27 0 +26 0 -27 0 *
Fa
0  1e-07 5 0

0111000
+25 0 *
Sh

0101000
+24 0 *
Ve
1e-05
35319.477303989 543.764786795048 6863
0 0

0101101
*
Ed
 1e-07 1 1 0
1  16 0 0 6.28318530717959
2  17 6 0 0 6.28318530717959
0

0101000
+22 0 -22 0 *
Ve
1e-05
35471.2984869326 543.764786795048 6863
0 0

0101101
*
Ed
 1e-05 1 1 0
1  17 0 194.701513067404 346.522696011009
3  18 19CN 6 0 194.701513067404 346.522696011009
0

0101000
-22 0 +20 0 *
Ed
 1e-07 1 1 0
1  18 0 0 6.28318530717959
2  20 6 0 0 6.28318530717959
0

0101000
+20 0 -20 0 *
Wi

0101100
+21 0 -19 0 +18 0 +19 0 *
Fa
0  1e-07 6 0

0111000
+17 0 *
Sh

0101000
+16 0 *
Ve
1e-07
35319.477303989 543.764786795048 6863
0 0

0101101
*
Ed
 1e-07 1 1 0
1  19 0 0 6.28318530717959
2  21 7 0 0 6.28318530717959
0

0101000
+14 0 -14 0 *
Wi

0101100
+13 0 *
Fa
0  1e-07 7 0

0111000
+12 0 *
Sh

0101000
+11 0 *
Ve
32.3255640703855
35116 524.458046767538 6863
0 0

0101101
*
Ed
 32.3255640703855 1 1 0
1  20 0 0 6.28318530717959
2  22 7 0 0 6.28318530717959
0

0101000
+9 0 -9 0 *
Ed
 1e-07 1 1 1
2  23 7 0 0 6.28318530717959
0

0101000
+9 0 -9 0 *
Wi

0101100
-8 0 -7 0 *
Fa
0  1e-07 7 0

0111000
+6 0 *
Sh

0101000
+5 0 *
Co

0100000
+10 0 +4 0 *
Co

0100000
+55 0 +47 0 +39 0 +31 0 +23 0 +15 0 +3 0 *
Co

1100000
+2 0 *

+1 0 
0

