DBRep_DrawableShape

CASCADE Topology V1, (c) Matra-Datavision
Locations 0
Curve2ds 0
Curves 18
1 47988 -22403.710485265867 9459.7238473628986 0 0.15771930538145112 -0.98748398503975376 
7 0 0  1 2 2  47990.012318705652 -22385.675102908725 9346.8039280247358  47973.987681294333 -22385.675102908725 9346.8039280247358 
 0 2 1 2
1 47976 -22403.710485265867 9459.7238473628986 0 -0.15771930538145112 0.98748398503975376 
1 47980.658512643517 -22407.497526084266 9483.4345919024872 0.99902519582870131 -0.0069622991410701598 0.043591105630569067 
1 47988 -22428.647791362644 9287.0578721504826 0 -0.58390668662953149 -0.81182078152097226 
7 0 0  1 2 2  47990.012318705652 -22410.534949884834 9312.2406307329511  47973.987681294333 -22410.534949884834 9312.2406307329511 
 0 2 1 2
1 47976 -22428.647791362644 9287.0578721504826 -0 0.58390668662953149 0.81182078152097226 
1 47976 -22636.625427495561 9276.5596167204749 -0 0.98777472912158093 0.15588805120594576 
1 47990.012318705652 -22703.699678838126 9265.973878590823 0.99895198030231436 -0.045206093945104782 -0.0071658998256402843 
1 47988 -22636.625427495561 9276.5596167204749 0 -0.98777472912158093 -0.15588805120594576 
1 47976 -22734.24645573083 9437.0355755634428 0 0.17198839266803595 -0.98509897613765973 
1 47990.012318705652 -22732.226069879125 9421.7309057094026 -0.99895198030231436 0.045206093945104782 0.0071658998256402843 
1 47985.574000990804 -22731.997101551155 9421.6016872424862 0.99794317117889864 -0.037309019629548842 -0.052129302236702015 
1 47976 -22725.233262367386 9431.0523300251771 0 -0.58200028464783926 -0.81318858124658522 
1 47989.224109869014 -22723.013059342975 9434.1544655311645 0.99808415035045983 0.036008978076257706 0.050312844454517065 
1 47988 -22725.233262367386 9431.0523300251771 -0 0.58200028464783926 0.81318858124658522 
1 47988 -22650.097611277215 9445.5768620455055 -0 0.98783759816457462 0.15548916249193842 
1 47976 -22650.015164887049 9445.0530722023013 0 -0.98783759816457462 -0.15548916249193842 
Polygon3D 0
PolygonOnTriangulations 0
Surfaces 8
1 47981.999999999985 -22397.854686312079 9423.0605633565956 -0 -0.98748398503975376 -0.15771930538145112 0 0.15771930538145112 -0.98748398503975376 1 -0 0 
1 47988 -22736.636488847267 9444.1480203898354 1 0 0 0 0 -1 -0 1 0 
1 47981.999999999985 -22398.105026396777 9329.5222793788435 0 -0.81182078152097226 0.58390668662953149 1 0 0 -0 0.58390668662953149 0.81182078152097226 
1 47976 -22736.636488847267 9444.1480203898354 1 0 0 0 0 -1 -0 1 0 
1 47981.999999999985 -22565.3902832614 9458.6417141058882 0.044143495369194055 0.15533759177941819 -0.98687465485580328 -0.99900108545625543 -2.6020852139652106e-018 -0.044685917884983696 -0.0069414028707062026 0.98786144401943887 0.15518242279979946 
1 47981.999999999985 -22564.850387486098 9287.8869677676648 0 -0.15588805120594576 0.98777472912158093 1 0 0 -0 0.98777472912158093 0.15588805120594576 
1 47981.999999999985 -22733.241510065847 9429.6813083717298 0.045764940177915596 0.98406682511152332 0.1718081894597534 8.6736173798840335e-019 -0.17198839266803595 0.98509897613765973 0.99895223622078755 -0.0450829957122659 -0.0078710385017485233 
1 47990.012318705652 -22727.568587869497 9427.7893418756812 -0 0.81318858124658522 -0.58200028464783937 1 0 -0 0 -0.58200028464783937 -0.81318858124658522 
Triangulations 0

TShapes 50
Ve
1e-007
47988 -22407.5486895898 9483.75492771802
0 0

0101101
*
Ve
1e-007
47988 -22385.6751029087 9346.80392802474
0 0

0101101
*
Ed
 1e-007 1 1 0
1  1 0 -24.3356659137626 114.351139916074
4 C0 1 0 2 0
0

0101000
+50 0 -49 0 *
Ve
1e-007
47976 -22385.6751029087 9346.80392802474
0 0

0101101
*
Ed
 1e-007 1 1 0
1  2 0 0.125576551531266 0.874423448467825
4 C0 1 0 3 0
0

0101000
+49 0 -47 0 *
Ve
1e-007
47976 -22407.4650604781 9483.2313240394
0 0

0101101
*
Ed
 1e-007 1 1 0
1  3 0 -114.351139916074 23.8054257412148
4 C0 1 0 4 0
0

0101000
+47 0 -45 0 *
Ed
 1e-007 1 1 0
1  4 0 -4.66305821211277 7.34865085198729
4 C0 1 0 5 0
0

0101000
+45 0 -50 0 *
Wi

0101000
+48 0 +46 0 +44 0 +43 0 *
Fa
0  1e-007 1 0

0101000
-42 0 *
Ve
1e-007
47988 -22410.5349498848 9312.24063073295
0 0

0101101
*
Ed
 1e-007 1 1 0
1  5 0 -73.5951299033232 -31.0200960060278
4 C0 3 0 2 0
0

0101000
+49 0 -40 0 *
Ve
1e-007
47976 -22410.5349498848 9312.24063073295
0 0

0101101
*
Ed
 1e-007 1 1 0
1  6 0 0.125576551531266 0.874423448467825
4 C0 3 0 6 0
0

0101000
+40 0 -38 0 *
Ed
 1e-007 1 1 0
1  7 0 31.0200960060278 73.5951299033232
4 C0 3 0 4 0
0

0101000
+38 0 -47 0 *
Wi

0101100
+39 0 +37 0 +36 0 -46 0 *
Fa
0  1e-007 3 0

0101000
-35 0 *
Ve
0.000187435028008982
47976 -22703.065572086 9266.07439480597
0 0

0101101
*
Ed
 1e-007 1 1 0
1  8 0 -67.2624166362997 228.888704018362
4 C0 6 0 4 0
0

0101000
+33 0 -38 0 *
Ve
0.000187435028008982
47988 -22703.6086143323 9265.98831379346
0 0

0101101
*
Ed
 0.000187435028008982 1 1 0
1  9 0 -14.0270192981766 -2.01442986783349
0

0101000
+33 0 -31 0 *
Ed
 1e-007 1 1 0
1  10 0 -228.888704018362 67.8122390453359
4 C0 6 0 2 0
0

0101000
+40 0 -31 0 *
Wi

0101100
+37 0 -32 0 +30 0 -29 0 *
Fa
0  1e-007 6 0

0101000
+28 0 *
Ve
1e-007
47976 -22731.6391687538 9422.10180188396
0 0

0101101
*
Ve
1e-007
47976 -22731.591963127 9421.83142192455
0 0

0101101
*
Ed
 1e-007 1 1 0
1  11 0 15.1596682579417 15.4341380990052
4 C0 7 0 4 0
0

0101000
+26 0 -25 0 *
Ve
1e-007
47982 -22731.8634842501 9421.78838141829
0 0

0101101
*
Ed
 1e-007 1 1 0
1  12 0 8.02072458301976 14.0270192981766
0

0101000
+23 0 -25 0 *
Ed
 1e-007 1 1 0
1  13 0 -9.59373365869522 -3.58136725019782
4 C0 7 0 8 0
0

0101000
+26 0 -23 0 *
Wi

0101000
+24 0 -22 0 -21 0 *
Fa
0  1e-007 7 0

0101000
-20 0 *
Ve
1e-007
47976 -22723.4901600786 9433.48784580511
0 0

0101101
*
Ed
 1e-007 1 1 0
1  14 0 -2.99501964992779 11.0067066208628
4 C0 8 0 4 0
0

0101000
+18 0 -26 0 *
Ve
1e-007
47988 -22723.0572228991 9434.09275886103
0 0

0101101
*
Ed
 1e-007 1 1 0
1  15 0 -13.2494939072725 -1.22645958117255
4 C0 8 0 5 0
0

0101000
+18 0 -16 0 *
Ve
1e-007
47988 -22732.0877965504 9421.47496541833
0 0

0101101
*
Ed
 1e-007 1 1 0
1  16 0 -11.7775443823411 3.73889760132768
4 C0 8 0 2 0
0

0101000
+14 0 -16 0 *
Wi

0101000
-21 0 -17 0 +15 0 -13 0 *
Fa
0  1e-007 8 0

0111000
+12 0 *
Ed
 1e-007 1 1 0
1  17 0 -73.8579010937522 245.535219694103
4 C0 5 0 2 0
0

0101000
+16 0 -50 0 *
Ed
 1e-007 1 1 0
1  18 0 -245.53641697748 74.3796301417082
4 C0 5 0 4 0
0

0101000
+45 0 -18 0 *
Wi

0101000
+10 0 -43 0 +9 0 +15 0 *
Fa
0  1e-007 5 0

0101000
-8 0 *
Wi

0101000
-29 0 -39 0 -48 0 -10 0 -13 0 *
Fa
0  1e-007 2 0

0111000
+6 0 *
Wi

0101000
+32 0 +36 0 +44 0 +9 0 +17 0 +24 0 *
Fa
0  1e-007 4 0

0111000
+4 0 *
Sh

0101000
-41 0 -34 0 -27 0 -19 0 -11 0 -7 0 +5 0 -3 0 *
Co

1100000
+2 0 *

+1 0 