DBRep_DrawableShape

CASCADE Topology V1, (c) Matra-Datavision
Locations 0
Curve2ds 16
1 0 0 1 0 
1 6.2831853071795862 0 0 1 
1 0 0 0 1 
1 6.2831853071795862 12 -1 0 
7 0 0  1 2 2  0 0  1 0 
 0 2 1 2
7 0 0  1 2 2  1 0  1 1 
 0 2 1 2
7 0 0  1 2 2  0 0  0 1 
 0 2 1 2
7 0 0  1 2 2  0 1  1 1 
 0 2 1 2
1 0 0 1 0 
1 6.2831853071795862 0 0 1 
1 0 0 0 1 
1 6.2831853071795862 12 -1 0 
1 0 0 1 0 
1 6.2831853071795862 0 0 1 
1 0 0 0 1 
1 6.2831853071795862 12 -1 0 
Curves 25
2 11989.000000000002 -9050.0048387160641 23330.000000000007 -1 -1.0569615929018064e-16 2.1572912727535082e-16 1.0569615929018015e-16 -1 -2.3091608920139395e-15 2.1572912727535107e-16 -2.3091608920139395e-15 1 18.000000000000728
7 0 0  1 2 2  11989.000000000002 -9068.0048387160641 23330.000000000007  11977.000000000002 -9068.0048387160641 23330.000000000007 
 0 2 12 2
2 11977.000000000002 -9050.0048387160641 23330.000000000007 1 1.0569615929018064e-16 -2.1572912727535082e-16 1.0569615929018015e-16 -1 -2.3091608920139395e-15 -2.1572912727535107e-16 2.3091608920139395e-15 -1 18.000000000000728
1 11989 -8986.0988045017657 23476.279307186313 0 -0.72240818263082474 0.69146685941412189 
2 11989 -9269.9999999999964 23530.000000000007 1 1.0569615929018064e-16 -2.157291272703032e-16 -1.0569615929018015e-16 1 2.3091608920139399e-15 2.1572912727030344e-16 -2.3091608920139399e-15 1 157.49999996986713
1 11988.999999999998 -9427.4999999698666 23530.000000009004 0 -1.7988397190963395e-10 -1 
2 11988.999999999998 -9269.9999999999964 23362.500003251862 1 1.0569615929018064e-16 -2.157291272703032e-16 -1.0569615929018015e-16 1 2.3091608920139399e-15 2.1572912727030344e-16 -2.3091608920139399e-15 1 157.49999316091396
1 11988.999999999998 -9269.9999897139187 23205.000010090949 0 0.99999999999999933 3.8633703083317564e-08 
2 11989 -9095.0048387160623 23362.50001685166 1 1.0569615929018064e-16 -2.157291272703032e-16 1.0569615929018015e-16 -1 -2.3091608920139395e-15 -2.1572912727030344e-16 2.3091608920139395e-15 -1 157.5000038010923
2 11989.000000000002 -9269.9999999999964 23530.000000000004 -1 -1.0569615929018064e-16 2.1572912727320253e-16 1.0569615929019332e-16 -1 5.8786517161305619e-14 2.1572912727319632e-16 5.8786517161305619e-14 1 58.149999999999622
2 11989 -9269.9999999999964 23330.000000000007 -1 -1.0569615929018064e-16 2.1572912726774731e-16 1.0569615929018015e-16 -1 -2.3091608920139395e-15 2.1572912726774756e-16 -2.3091608920139395e-15 1 25.29999999999972
2 11989.000000000002 -9050.0048387160641 23330.000000000007 -1 -1.0569615929018064e-16 2.1572912727535082e-16 1.0569615929018015e-16 -1 -2.3091608920139395e-15 2.1572912727535107e-16 -2.3091608920139395e-15 1 18.000000000000728
7 1 0  2 17 9  11977 -8986.0988042161262 23476.279306912911  1 11977 -8909.1703431564201 23402.645751352924  0.82841815308739852 11977 -8948.8431284352191 23303.822886339654  1 11977 -8988.5159137140217 23205.000021326381  0.82841815308739808 11976.999999999998 -9095.0048264759098 23205.000013050565  1 11976.999999999998 -9182.5024090719526 23205.000013471301  1 11976.999999999998 -9269.9999897139187 23205.000010090949  1 11976.999999999998 -9427.4999931609109 23204.999997850791  0.70710675371004406 11976.999999999998 -9427.4999931609109 23362.500003251862  1 11976.999999999998 -9427.4999999849315 23446.25000163493  1 11976.999999999998 -9427.4999999698666 23530.000000009004  1 11976.999999999998 -9427.4999999698648 23633.996466335429  0.83449620289320059 11977 -9331.8609324707595 23674.842932255455  1 11977 -9236.221864971656 23715.68939817548  0.83449620289319903 11977 -9161.0939678635823 23643.779287020145  1 11977 -9073.5963864683144 23560.029297376634  1 11977 -8986.0988042161262 23476.279306912911  1
 0 3 0.083333333333333329 2 0.16666666666666666 2 0.33333333333333331 2 0.5 2 0.66666666666666663 2 0.75 2 0.83333333333333337 2 1 3
2 11977 -9269.9999999999964 23530.000000000004 1 1.0569615929018064e-16 -2.1572912727320253e-16 1.0569615929019332e-16 -1 5.8786517161305619e-14 -2.1572912727319632e-16 -5.8786517161305619e-14 -1 58.149999999999622
2 11976.999999999998 -9269.9999999999964 23330.000000000007 1 1.0569615929018064e-16 -2.1572912726774731e-16 1.0569615929018015e-16 -1 -2.3091608920139395e-15 -2.1572912726774756e-16 2.3091608920139395e-15 -1 25.29999999999972
2 11977 -9050.0048387160641 23330.000000000007 1 1.0569615929018064e-16 -2.1572912727535082e-16 1.0569615929018015e-16 -1 -2.3091608920139395e-15 -2.1572912727535107e-16 2.3091608920139395e-15 -1 18.000000000000728
7 1 1  2 16 9  11989 -8986.0988042161262 23476.279306912911  1 11989 -8909.1703431564201 23402.645751352924  0.82841815308739852 11989 -8948.8431284352191 23303.822886339654  1 11989 -8988.5159137140217 23205.000021326381  0.82841815308739808 11988.999999999998 -9095.0048264759098 23205.000013050565  1 11988.999999999998 -9182.5024090719526 23205.000013471301  1 11988.999999999998 -9269.9999897139187 23205.000010090949  1 11988.999999999998 -9427.4999931609109 23204.999997850791  0.70710675371004406 11988.999999999998 -9427.4999931609109 23362.500003251862  1 11988.999999999998 -9427.4999999849315 23446.25000163493  1 11988.999999999998 -9427.4999999698666 23530.000000009004  1 11988.999999999998 -9427.4999999698648 23633.996466335429  0.83449620289320059 11989 -9331.8609324707595 23674.842932255455  1 11989 -9236.221864971656 23715.68939817548  0.83449620289319903 11989 -9161.0939678635823 23643.779287020145  1 11989 -9073.5963864683144 23560.029297376634  1
 0 2 0.083333333333333329 2 0.16666666666666666 2 0.33333333333333331 2 0.5 2 0.66666666666666663 2 0.75 2 0.83333333333333337 2 1 2
7 0 0  1 2 2  11989 -8986.0988042161262 23476.279306912911  11977 -8986.0988042161262 23476.279306912911 
 0 2 1 2
7 1 1  2 16 9  11977 -8986.0988042161262 23476.279306912911  1 11977 -8909.1703431564201 23402.645751352924  0.82841815308739852 11977 -8948.8431284352191 23303.822886339654  1 11977 -8988.5159137140217 23205.000021326381  0.82841815308739808 11976.999999999998 -9095.0048264759098 23205.000013050565  1 11976.999999999998 -9182.5024090719526 23205.000013471301  1 11976.999999999998 -9269.9999897139187 23205.000010090949  1 11976.999999999998 -9427.4999931609109 23204.999997850791  0.70710675371004406 11976.999999999998 -9427.4999931609109 23362.500003251862  1 11976.999999999998 -9427.4999999849315 23446.25000163493  1 11976.999999999998 -9427.4999999698666 23530.000000009004  1 11976.999999999998 -9427.4999999698648 23633.996466335429  0.83449620289320059 11977 -9331.8609324707595 23674.842932255455  1 11977 -9236.221864971656 23715.68939817548  0.83449620289319903 11977 -9161.0939678635823 23643.779287020145  1 11977 -9073.5963864683144 23560.029297376634  1
 0 2 0.083333333333333329 2 0.16666666666666666 2 0.33333333333333331 2 0.5 2 0.66666666666666663 2 0.75 2 0.83333333333333337 2 1 2
2 11989.000000000002 -9269.9999999999964 23530.000000000004 -1 -1.0569615929018064e-16 2.1572912727320253e-16 1.0569615929019332e-16 -1 5.8786517161305619e-14 2.1572912727319632e-16 5.8786517161305619e-14 1 58.149999999999622
7 0 0  1 2 2  11989.000000000002 -9328.149999999996 23530.000000000007  11977.000000000002 -9328.149999999996 23530.000000000007 
 0 2 12 2
2 11977.000000000002 -9269.9999999999964 23530.000000000004 1 1.0569615929018064e-16 -2.1572912727320253e-16 1.0569615929019332e-16 -1 5.8786517161305619e-14 -2.1572912727319632e-16 -5.8786517161305619e-14 -1 58.149999999999622
2 11989 -9269.9999999999964 23330.000000000007 -1 -1.0569615929018064e-16 2.1572912726774731e-16 1.0569615929018015e-16 -1 -2.3091608920139395e-15 2.1572912726774756e-16 -2.3091608920139395e-15 1 25.29999999999972
7 0 0  1 2 2  11989 -9295.2999999999956 23330.000000000007  11977 -9295.2999999999956 23330.000000000007 
 0 2 12 2
2 11977 -9269.9999999999964 23330.000000000007 1 1.0569615929018064e-16 -2.1572912726774731e-16 1.0569615929018015e-16 -1 -2.3091608920139395e-15 -2.1572912726774756e-16 2.3091608920139395e-15 -1 25.29999999999972
Polygon3D 0
PolygonOnTriangulations 0
Surfaces 6
10 0 6.2831853071795862 0 12
2 11989.000000000002 -9050.0048387160641 23330.000000000007 -1 -1.0569615929018064e-16 2.1572912727535082e-16 1.0569615929018015e-16 -1 -2.3091608920139395e-15 2.1572912727535107e-16 -2.3091608920139395e-15 1 18.000000000000728
1 11989 -8986.0988039304866 23476.279306639506 1 1.0569615929018064e-16 -2.157291272703032e-16 -2.255253137705337e-16 0.72240817169464866 -0.69146687083966296 8.2759091888470124e-17 0.69146687083966296 0.72240817169464866 
1 11977 -8986.0988042161262 23476.279306912911 -1 -1.0641811165506581e-16 2.1476674408425645e-16 -2.2538140196829618e-16 0.7224081716946521 -0.69146687083965941 -8.1564652267927107e-17 -0.69146687083965941 -0.7224081716946521 
9 0 1 1 0 2 1 16 2 9 2 11989 -8986.0988042161262 23476.279306912911  1 11977 -8986.0988042161262 23476.279306912911  1 
11989 -8909.1703431564201 23402.645751352924  0.82841815308739852 11977 -8909.1703431564201 23402.645751352924  0.82841815308739852 
11989 -8948.8431284352191 23303.822886339654  1 11977 -8948.8431284352191 23303.822886339654  1 
11989 -8988.5159137140217 23205.000021326381  0.82841815308739808 11977 -8988.5159137140217 23205.000021326381  0.82841815308739808 
11988.999999999998 -9095.0048264759098 23205.000013050565  1 11976.999999999998 -9095.0048264759098 23205.000013050565  1 
11988.999999999998 -9182.5024090719526 23205.000013471301  1 11976.999999999998 -9182.5024090719526 23205.000013471301  1 
11988.999999999998 -9269.9999897139187 23205.000010090949  1 11976.999999999998 -9269.9999897139187 23205.000010090949  1 
11988.999999999998 -9427.4999931609109 23204.999997850791  0.70710675371004406 11976.999999999998 -9427.4999931609109 23204.999997850791  0.70710675371004406 
11988.999999999998 -9427.4999931609109 23362.500003251862  1 11976.999999999998 -9427.4999931609109 23362.500003251862  1 
11988.999999999998 -9427.4999999849315 23446.25000163493  1 11976.999999999998 -9427.4999999849315 23446.25000163493  1 
11988.999999999998 -9427.4999999698666 23530.000000009004  1 11976.999999999998 -9427.4999999698666 23530.000000009004  1 
11988.999999999998 -9427.4999999698648 23633.996466335429  0.83449620289320059 11976.999999999998 -9427.4999999698648 23633.996466335429  0.83449620289320059 
11989 -9331.8609324707595 23674.842932255455  1 11977 -9331.8609324707595 23674.842932255455  1 
11989 -9236.221864971656 23715.68939817548  0.83449620289319903 11977 -9236.221864971656 23715.68939817548  0.83449620289319903 
11989 -9161.0939678635823 23643.779287020145  1 11977 -9161.0939678635823 23643.779287020145  1 
11989 -9073.5963864683144 23560.029297376634  1 11977 -9073.5963864683144 23560.029297376634  1 

0 2
0.083333333333333329 2
0.16666666666666666 2
0.33333333333333331 2
0.5 2
0.66666666666666663 2
0.75 2
0.83333333333333337 2
1 2

0 2
1 2

10 0 6.2831853071795862 0 12
2 11989.000000000002 -9269.9999999999964 23530.000000000004 -1 -1.0569615929018064e-16 2.1572912727320253e-16 1.0569615929019332e-16 -1 5.8786517161305619e-14 2.1572912727319632e-16 5.8786517161305619e-14 1 58.149999999999622
10 0 6.2831853071795862 0 12
2 11989 -9269.9999999999964 23330.000000000007 -1 -1.0569615929018064e-16 2.1572912726774731e-16 1.0569615929018015e-16 -1 -2.3091608920139395e-15 2.1572912726774756e-16 -2.3091608920139395e-15 1 25.29999999999972
Triangulations 0

TShapes 72
Ve
1e-05
11989 -9068.00483871606 23330
0 0

0101101
*
Ed
 1e-07 1 1 0
1  1 0 0 6.28318530717959
2  1 1 0 0 6.28318530717959
0

0101000
+72 0 -72 0 *
Ve
1e-05
11977 -9068.00483871606 23330
0 0

0101101
*
Ed
 1e-05 1 1 0
1  2 0 0 12
3  2 3CN 1 0 0 12
0

0101000
+72 0 -70 0 *
Ed
 1e-07 1 1 0
1  3 0 0 6.28318530717959
2  4 1 0 0 6.28318530717959
0

0101000
+70 0 -70 0 *
Wi

0101100
+71 0 +69 0 +68 0 -69 0 *
Fa
0  1e-07 1 0

0111000
+67 0 *
Sh

0101000
+66 0 *
Ve
1e-07
11989 -8986.09880450177 23476.2793071863
0 0

0101101
*
Ve
1e-07
11989 -9161.09396843486 23643.779287567
0 0

0101101
*
Ed
 1e-07 1 1 0
1  4 0 0 242.238623731819
0

0101000
+64 0 -63 0 *
Ve
1e-07
11989 -9427.49999996986 23530
0 0

0101101
*
Ed
 1e-07 1 1 0
1  5 0 0.807278717946176 3.14159265358979
0

0101000
+63 0 -61 0 *
Ve
6.8390861560744e-06
11989 -9427.5 23362.5000032609
0 0

0101101
*
Ed
 1e-07 1 1 0
1  6 0 8.99672158993715e-09 167.499996748145
0

0101000
+61 0 -59 0 *
Ve
1e-07
11989 -9269.99998775984 23205.0000100909
0 0

0101101
*
Ed
 1e-07 1 1 0
1  7 0 3.14159265353267 4.71238905809998
0

0101000
+59 0 -57 0 *
Ve
3.80109160499603e-06
11989 -9095.00482842999 23205.0000168517
0 0

0101101
*
Ed
 1e-07 1 1 0
1  8 0 1.954080289579e-06 174.995161283932
0

0101000
+57 0 -55 0 *
Ed
 1e-07 1 1 0
1  9 0 1.57079639210331 3.94887137153598
0

0101000
+55 0 -64 0 *
Wi

0101100
+62 0 +60 0 +58 0 +56 0 +54 0 +53 0 *
Ve
1e-07
11989 -9328.15 23530
0 0

0101101
*
Ed
 1e-07 1 1 0
1  10 0 0 6.28318530717959
0

0101000
+51 0 -51 0 *
Wi

0101000
+50 0 *
Ve
1e-07
11989 -9295.3 23330
0 0

0101101
*
Ed
 1e-07 1 1 0
1  11 0 0 6.28318530717959
0

0101000
+48 0 -48 0 *
Wi

0101000
+47 0 *
Ve
1e-07
11989 -9068.00483871606 23330
0 0

0101101
*
Ed
 1e-07 1 1 0
1  12 0 0 6.28318530717959
0

0101000
+45 0 -45 0 *
Wi

0101000
+44 0 *
Fa
0  1e-07 2 0

0111000
+52 0 +49 0 +46 0 +43 0 *
Sh

0101000
+42 0 *
Ve
1e-07
11977 -8986.09880421613 23476.2793069129
0 0

0101101
*
Ed
 1e-07 1 1 0
1  13 0 0 1
0

0101000
+40 0 -40 0 *
Wi

0101000
+39 0 *
Ve
1e-07
11977 -9328.15 23530
0 0

0101101
*
Ed
 1e-07 1 1 0
1  14 0 0 6.28318530717959
0

0101000
+37 0 -37 0 *
Wi

0101000
+36 0 *
Ve
1e-07
11977 -9295.3 23330
0 0

0101101
*
Ed
 1e-07 1 1 0
1  15 0 0 6.28318530717959
0

0101000
+34 0 -34 0 *
Wi

0101000
+33 0 *
Ve
1e-07
11977 -9068.00483871606 23330
0 0

0101101
*
Ed
 1e-07 1 1 0
1  16 0 0 6.28318530717959
0

0101000
+31 0 -31 0 *
Wi

0101000
+30 0 *
Fa
0  1e-07 3 0

0111000
+38 0 +35 0 +32 0 +29 0 *
Sh

0101000
+28 0 *
Ve
1e-07
11989 -8986.09880421613 23476.2793069129
0 0

0101101
*
Ed
 1e-07 1 1 0
1  17 0 0 1
2  5 4 0 0 1
0

0101000
+26 0 -26 0 *
Ve
1e-07
11977 -8986.09880421613 23476.2793069129
0 0

0101101
*
Ed
 1e-07 1 1 0
1  18 0 0 1
3  6 7G1 4 0 0 1
0

0101000
+26 0 -24 0 *
Ed
 1e-07 1 1 0
1  19 0 0 1
2  8 4 0 0 1
0

0101000
+24 0 -24 0 *
Wi

0101000
+25 0 +23 0 -22 0 -23 0 *
Fa
0  1e-07 4 0

0111000
+21 0 *
Sh

0101000
+20 0 *
Ve
1e-05
11989 -9328.15 23530
0 0

0101101
*
Ed
 1e-07 1 1 0
1  20 0 0 6.28318530717959
2  9 5 0 0 6.28318530717959
0

0101000
+18 0 -18 0 *
Ve
1e-05
11977 -9328.15 23530
0 0

0101101
*
Ed
 1e-05 1 1 0
1  21 0 0 12
3  10 11CN 5 0 0 12
0

0101000
+18 0 -16 0 *
Ed
 1e-07 1 1 0
1  22 0 0 6.28318530717959
2  12 5 0 0 6.28318530717959
0

0101000
+16 0 -16 0 *
Wi

0101100
+17 0 +15 0 +14 0 -15 0 *
Fa
0  1e-07 5 0

0111000
+13 0 *
Sh

0101000
+12 0 *
Ve
1e-05
11989 -9295.3 23330
0 0

0101101
*
Ed
 1e-07 1 1 0
1  23 0 0 6.28318530717959
2  13 6 0 0 6.28318530717959
0

0101000
+10 0 -10 0 *
Ve
1e-05
11977 -9295.3 23330
0 0

0101101
*
Ed
 1e-05 1 1 0
1  24 0 0 12
3  14 15CN 6 0 0 12
0

0101000
+10 0 -8 0 *
Ed
 1e-07 1 1 0
1  25 0 0 6.28318530717959
2  16 6 0 0 6.28318530717959
0

0101000
+8 0 -8 0 *
Wi

0101100
+9 0 +7 0 +6 0 -7 0 *
Fa
0  1e-07 6 0

0111000
+5 0 *
Sh

0101000
+4 0 *
Co

0100000
+65 0 +41 0 +27 0 +19 0 +11 0 +3 0 *
Co

1100000
+2 0 *

+1 0 
0

