DBRep_DrawableShape

CASCADE Topology V1, (c) Matra-Datavision
Locations 0
Curve2ds 19
1 0 95.188636484330345 1 0 
1 1.5707963267946958 99.838636484325647 4.0461461341894592e-15 -1 
1 6.2831853071795862 104.18863648433035 -1 0 
1 3.1415926535897931 99.719934026979345 0 1 
1 6.2831853071795862 109.55112644395558 -1 0 
1 3.1415926535897931 105.08259915543333 0 1 
1 2.1508504724260735 -1.6768808563938364e-12 0 1 
1 1.2434497875801753e-14 100.55112644396286 1 0 
1 3.1415926535897931 4.5474735088646412e-13 0 1 
1 3.3489837931631645 6889.461505439881 1.0487368955564516e-13 -1 
7 0 0  3 25 23  4.7123889803841701 6436.0582161316988  4.6885890360390903 6435.7696548962213  4.6409891473483098 6435.1925403490459  4.5695893143114352 6434.3312734495375  4.4981894812756336 6433.4788083593403  4.4267896482405042 6432.6394868829802  4.3553898152030532 6431.8175865896601  4.2839899821678999 6431.0172955396383  4.2125901491314721 6430.2426918742649  4.1411903160957255 6429.497722785115  4.069790483058684 6428.7861844668851  3.9983906500227584 6428.111702754949  3.9269908169873315 6427.4777146537608  3.8555909839502562 6426.8874508211184  3.7841911509150394 6426.3439191069019  3.7127913178785774 6425.8498892216667  3.6413914848428046 6425.4078786376222  3.5699916518062111 6425.020139705257  3.4985918187697607 6424.6886483806766  3.4271919857344657 6424.4150933922265  3.3557921526981334 6424.2008704879117  3.2843923196620475 6424.0470646760559  3.2129924866260424 6423.9544844312977  3.165392597935254 6423.933834331724  3.1415926535897931 6423.9338604785689 
 1.5707963267948966 4 1.6421961598310282 1 1.7135959928671598 1 1.7849958259032914 1 1.8563956589394233 1 1.9277954919755549 1 1.9991953250116865 1 2.0705951580478184 1 2.14199499108395 1 2.2133948241200816 1 2.2847946571562132 1 2.3561944901923448 1 2.4275943232284765 1 2.4989941562646081 1 2.5703939893007397 1 2.6417938223368713 1 2.7131936553730034 1 2.7845934884091346 1 2.8559933214452666 1 2.9273931544813983 1 2.9987929875175299 1 3.0701928205536615 1 3.1415926535897931 4
7 0 0  3 25 23  3.3489837931972737 6563.7103606510946  3.3696414475486702 6563.6072457033606  3.4109567562513408 6563.370528604195  3.472929719305168 6562.9257313870621  3.5349026823592622 6562.3928194123409  3.5968756454131525 6561.7738658024864  3.6588486084669438 6561.0712397317611  3.7208215715211495 6560.2876408182365  3.7827945345750162 6559.426077106139  3.8447674976287423 6558.4898566390839  3.906740460683074 6557.4825739224316  3.9687134237368773 6556.4080963467059  4.0306863867910057 6555.2705492789155  4.0926593498447605 6554.0743002397439  4.1546323128988263 6552.8239421303379  4.2166052759524657 6551.5242755997542  4.2785782390068139 6550.1802906116782  4.3405512020604604 6548.7971472906875  4.4025241651147624 6547.3801560926577  4.4644971281685262 6545.9347574816711  4.526470091222496 6544.4665007956901  4.5884430542765244 6542.9810238586633  4.6504160173304898 6541.4840279073851  4.6917313260331177 6540.4821882973629  4.7123889803844294 6539.9812645871107 
 3.3489837931973572 4 3.410956756251327 1 3.4729297193052964 1 3.5349026823592662 1 3.596875645413236 1 3.6588486084672054 1 3.7208215715211752 1 3.782794534575145 1 3.8447674976291144 1 3.9067404606830842 1 3.9687134237370536 1 4.0306863867910234 1 4.0926593498449932 1 4.1546323128989631 1 4.2166052759529329 1 4.2785782390069018 1 4.3405512020608716 1 4.4025241651148415 1 4.4644971281688113 1 4.5264700912227802 1 4.58844305427675 1 4.6504160173307199 1 4.7123889803846897 4
1 3.1415926535897931 9565.2226555498983 0 -1 
7 0 0  3 25 23  3.1415926535897931 3267.332023134195  3.165392597935254 3267.3320492810417  3.2129924866260429 3267.3113991814671  3.2843923196620444 3267.2188189367071  3.3557921526981462 3267.0650131248567  3.4271919857344186 3266.8507902205438  3.4985918187699343 3266.5772352321001  3.5699916518066535 3266.2457439075283  3.641391484842154 3265.8580049751649  3.7127913178792418 3265.4159943911291  3.7841911509147188 3264.9219645059065  3.855590983950874 3264.3784327916946  3.9269908169872272 3263.7881689590681  3.9983906500225577 3263.1541808578895  4.0697904830595988 3262.4796991459625  4.141190316094761 3261.768160827753  4.2125901491317848 3261.0231917386141  4.2839899821676113 3260.2485880732543  4.3553898152038935 3259.4482970232489  4.4267896482403488 3258.6263967299433  4.4981894812754124 3257.7870752535969  4.5695893143124726 3256.9346101634187  4.6409891473474572 3256.0733432639258  4.6885890360383158 3255.4962287167614  4.7123889803841701 3255.2076674812879 
 3.1415926535897931 4 3.2129924866259247 1 3.2843923196620564 1 3.355792152698188 1 3.4271919857343196 1 3.4985918187704517 1 3.5699916518065828 1 3.6413914848427149 1 3.7127913178788465 1 3.7841911509149782 1 3.8555909839511098 1 3.9269908169872414 1 3.998390650023373 1 4.0697904830595046 1 4.1411903160956367 1 4.2125901491317679 1 4.2839899821678999 1 4.3553898152040311 1 4.4267896482401632 1 4.4981894812762953 1 4.5695893143124264 1 4.6409891473485576 1 4.7123889803846897 4
1 4.7123889803841701 4.5474735088646412e-13 0 1 
1 4.7123889803844294 4.5474735088646412e-13 0 1 
7 0 0  3 25 23  4.7123889803844294 3151.2846190277878  4.6917313260330173 3150.783695317542  4.6504160173304419 3149.7818557075379  4.5884430542768451 3148.2848597562893  4.5264700912228113 3146.7993828192875  4.464497128168472 3145.3311261333351  4.4025241651146647 3143.8857275223709  4.3405512020609063 3142.4687363243734  4.2785782390065759 3141.0855930034049  4.2166052759529693 3139.7416080153562  4.1546323128984222 3138.4419414847957  4.0926593498445483 3137.1915833754083  4.0306863867909923 3135.9953343362599  3.9687134237366513 3134.8577872684937  3.9067404606828449 3133.7833096927857  3.8447674976288075 3132.7760269761548  3.7827945345749852 3131.8398065091133  3.7208215715212072 3130.9782427970345  3.6588486084667471 3130.1946438835189  3.5968756454132054 3129.4920178128109  3.5349026823592467 3128.8730642029677  3.4729297193051809 3128.3401522282584  3.4109567562510792 3127.8953550111328  3.3696414475484944 3127.6586379119726  3.3489837931972737 3127.5555229642387 
 1.5707963267948966 4 1.6327692898488693 1 1.6947422529028422 1 1.7567152159568149 1 1.8186881790107878 1 1.8806611420647605 1 1.9426341051187332 1 2.0046070681727062 1 2.0665800312266791 1 2.1285529942806516 1 2.1905259573346245 1 2.2524989203885974 1 2.3144718834425699 1 2.3764448464965429 1 2.4384178095505158 1 2.5003907726044883 1 2.5623637356584612 1 2.6243366987124341 1 2.6863096617664066 1 2.7482826248203795 1 2.8102555878743525 1 2.872228550928325 1 2.9342015139822979 4
1 3.3489837931972737 2782.3761658424573 0 -1 
1 0 6564.2227369641578 1 0 
Curves 45
2 19190.954517064056 -12859.999999999673 11240.999918586254 0.99999999983633958 -0 1.80920147656171e-05 -1.80920147656171e-05 0 0.99999999983633958 -0 -1 0 49.999999999999979
1 19195.60451706329 -12909.999999999673 11241.000002714132 -0.99999999983633958 -0 -1.8092014766390807e-05 
2 19199.954517062582 -12859.999999999673 11241.000081414388 -0.99999999983633958 -0 -1.80920147656171e-05 -1.80920147656171e-05 0 0.99999999983633958 0 1 -0 49.999999999999979
1 19195.486719206703 -12859.999999999673 11191.000000574739 0.99999999983633958 0 1.8092014766390807e-05 
1 19191.07327707874 -12859.999999999673 4676.7771826964427 -1.80920147656171e-05 0 0.99999999983633958 
2 19191.018921382009 -12859.999999999673 7681.179811730879 0.99999999983633958 -0 1.80920147656171e-05 1.80920147656171e-05 0 -0.99999999983633958 0 1 0 49.999999999999993
1 19191.017555969156 -12980.0033396502 7756.6502812725648 -9.6316959330420018e-06 -0.8465100345679859 0.53237276534674249 
1 19191.07327707874 -13059.999999999673 4676.7771826964427 -1.80920147656171e-05 0 0.99999999983633958 
1 19190.954517064059 -13072.472500000016 11240.999918586249 -3.2067326044875762e-18 1 1.7724574324673799e-13 
1 19190.954517064059 -12993.30766666664 11240.999918586262 -2.8293778525264251e-18 1 1.5638821262960988e-13 
1 19200.073277077267 -12859.999999999673 4676.7773455245751 -1.80920147656171e-05 0 0.99999999983633958 
1 19195.486544069063 -12859.999999999673 7731.1798925673575 -0.99999999983633958 0 -1.8092014767518672e-05 
1 19300.569552024212 -12901.821648779027 7708.585255066324 -0.99999999983633958 0 -1.8092014767518672e-05 
1 19200.020971789443 -12994.038144106687 7567.8477152902087 -1.5132757744770625e-05 0.54806922678666403 0.8364329754501959 
2 19200.018921380532 -12859.999999999673 7681.1799745590124 -0.99999999983633958 -0 -1.80920147656171e-05 1.80920147656171e-05 0 -0.99999999983633958 0 -1 0 49.999999999999993
1 19199.954517062586 -12893.30766666664 11241.000081414386 2.8293778525264251e-18 -1 -1.5638821262960988e-13 
1 19200.073277077267 -13031.999999999673 4676.7773455245751 -1.80920147656171e-05 0 0.99999999983633958 
1 19200.324577919673 -13059.999999999673 7368.5260682892686 -1.8092014765617107e-05 0 0.99999999983633958 
1 19200.254526332454 -13046.899999999836 11240.487710529052 0 1 -0 
1 19200.248632837935 -13034.882707060751 11566.238855264526 1.80920147656171e-05 0 -0.99999999983633958 
1 19200.254517062534 -12995.95766666664 11241.000086841974 -2.8293778525264263e-18 1 1.5638821262960988e-13 
1 19200.254517062534 -13075.122500000016 11241.000086841961 -3.2067326044875774e-18 1 1.7724574324673799e-13 
1 20231.281119997981 -13059.999999999673 9454.7718773792094 -0.50001566805796693 0 0.86601635763797502 
1 19280.957055157756 -13040.749999999836 11100.712670404993 0 -1 0 
3 19273.956835804878 -13052.999999999673 11112.836899412037 -0.86601635763797502 -0 -0.50001566805796704 -0.50001566805796704 0 0.86601635763797502 0 1 -0 14.000000000128676 7
1 20222.905857558086 -13045.999999999673 9469.2776513695153 0.50001566805796704 -0 -0.86601635763797491 
3 19213.954955637368 -13031.999999999673 11216.758862329554 0.86601635763797502 0 0.50001566805796704 0.50001566805796704 0 -0.86601635763797502 -0 1 0 28.000000000257351 14
1 19281.07327706401 -13059.999999999673 4676.7788109777712 -1.80920147656171e-05 0 0.99999999983633958 
1 19281.014164444805 -13052.999999999834 7944.1108335772333 -5.7421285536734109e-19 1 3.1738469303298695e-14 
1 19280.90022291449 -13052.999999999673 14242.001464962219 1.80920147656171e-05 0 -0.99999999983633958 
3 19274.014383799971 -13052.999999999673 7931.9863512822067 -0.86603444964876086 -1.5869234654319433e-14 0.4999843317760746 -0.4999843317760746 7.8886090522101181e-31 -0.86603444964876086 1.3743303900200574e-14 -1 -7.934368684437628e-15 13.999999999935671 6.9999999999999991
1 19274.073277065156 -13045.999999999673 4676.778684333668 -1.80920147656171e-05 0 0.99999999983633958 
1 19290.27393316017 -13045.999999999673 7960.149893590974 -0.49998433177607465 0 -0.86603444964876086 
1 19214.073277074975 -13045.999999999673 4676.7775988127823 -1.80920147656171e-05 0 0.99999999983633958 
1 19238.204517061473 -13059.999999999673 11241.000773433823 -0.99999999983633958 0 -1.8092012107860283e-05 
1 19299.053456753667 -13059.999999999673 7768.1388852560976 0.94108632399012282 -0 -0.33816642470647135 
1 19200.324577919673 -13059.999999999673 7368.5260682892686 -1.8092014765617107e-05 0 0.99999999983633958 
1 19298.648670717459 -13059.999999999673 7974.6559706226572 0.49998433177607465 0 0.86603444964876086 
3 19214.016263987116 -13031.999999999673 7828.0622173248294 0.86603444964876086 1.5869234654319433e-14 -0.4999843317760746 0.4999843317760746 -7.8886090522101181e-31 0.86603444964876086 1.3743303900200574e-14 -1 -7.934368684437628e-15 27.999999999871342 13.999999999999998
1 19200.322938286539 -13034.882707060751 7459.1535163392728 1.80920147656171e-05 0 -0.99999999983633958 
2 19213.954517060291 -13031.999999999673 11241.000334702598 -1.8092012107860286e-05 -1.5638821265520444e-13 0.99999999983633958 0.99999999983633958 4.1218090111356144e-25 1.8092012107860286e-05 -2.829377849065489e-18 1 1.5638821262960988e-13 14.000000000000002
7 0 0  1 2 2  19179.654517065905 -13059.889999999672 11240.999714146516  19211.254517060734 -13059.889999999672 11241.000285854097 
 0 2 1 2
1 19200.316693296514 -13059.149999999832 7804.332873404559 5.7421285536734129e-19 -1 -3.1738469303298695e-14 
1 19200.317577688431 -12983.40838431997 7755.449875549125 -9.6316959330420052e-06 -0.8465100345679859 0.53237276534674249 
7 0 0  1 2 2  19211.316778976561 -13059.889999999672 7799.5966745988544  19179.716573534799 -13059.889999999672 7810.9517737240039 
 0 2 1 2
Polygon3D 0
PolygonOnTriangulations 0
Surfaces 18
2 19095.765880595307 -12859.999999999673 11240.998196432038 0.99999999983633958 0 1.8092014766390807e-05 -1.8092014766390807e-05 0 0.99999999983633958 0 -1 0 49.999999999999979
1 19191.024577921195 -13059.999999999673 7368.5259000335309 -0.99999999983633958 0 -1.80920147656171e-05 -1.80920147656171e-05 0 0.99999999983633958 0 1 0 
1 19195.454517063321 -12926.615333333004 11241.000000000327 -1.8092012107860286e-05 -1.5638821265520444e-13 0.99999999983633958 0.99999999983633958 0 1.8092012107860286e-05 -2.8293774368845878e-18 1 1.5638821262960988e-13 
1 19200.024577919721 -12859.999999999673 7368.5260628616643 0.99999999983633958 0 1.80920147656171e-05 1.80920147656171e-05 0 -0.99999999983633958 -0 1 0 
1 19191.024577921195 -12859.999999999673 7368.5259000335309 0 1 -0 0 0 1 1 -0 0 
2 19300.570047808036 -12859.999999999673 7681.1817937314763 -0.99999999983633958 0 -1.8092014767518675e-05 1.8092014767518675e-05 0 -0.99999999983633958 0 -1 -0 49.999999999999993
1 19195.516238996057 -13098.31985854585 7829.4428804450308 -0.29101667281600369 -0.50932822474029282 -0.80987286386568413 -0.94108632399012282 0 0.33816642470647146 -0.17223770476251901 0.8605723441308708 -0.47932182672525731 
1 19281.024577906464 -13059.999999999673 7368.5275283148603 -0 -1 0 0 -0 -1 1 0 0 
1 19195.454517063321 -13084.944999999672 11241.000000000302 -1.8092012107860286e-05 -1.7724574327574611e-13 0.99999999983633958 0.99999999983633958 0 1.8092012107860286e-05 -3.2067321334114944e-18 1 1.7724574324673799e-13 
1 19300.570686981038 -12942.926840788024 7645.852781907558 -9.9156765446468641e-06 -0.83643297558708696 0.54806922669696667 -1.5132757743193316e-05 0.54806922678666392 0.83643297545019579 -0.99999999983633958 1.73619731330503e-15 -1.8092014764868987e-05 
2 19214.073277074975 -13031.999999999673 4676.7775988127823 -1.80920147656171e-05 0 0.99999999983633958 0.99999999983633958 0 1.80920147656171e-05 0 1 -0 14.000000000000002
1 19200.32457791967 -13065.299999999672 7368.5260682892686 -0.99999999983633958 0 -1.8092014765617107e-05 -1.8092014765617107e-05 0 0.99999999983633958 0 1 0 
1 19565.470970448128 -13028.5 10607.940702730322 -0.86601635763797502 -0 -0.50001566805796704 0.50001566805796704 -0 -0.86601635763797502 0 -1 0 
1 19281.024577906464 -13052.999999999673 7368.5275283148603 0.99999999983633958 0 1.80920147656171e-05 1.80920147656171e-05 0 -0.99999999983633958 -0 1 0 
2 19274.073277065156 -13052.999999999673 4676.778684333668 -1.80920147656171e-05 0 0.99999999983633958 -0.99999999983633958 0 -1.80920147656171e-05 -0 -1 0 7.0000000000000009
1 19214.024577917429 -13045.999999999673 7368.5263161498706 0 1 -0 0 0 1 1 -0 0 
1 19565.510249070343 -13052.999999999996 8436.893095774707 0.86603444964876086 1.5869234654319433e-14 -0.4999843317760746 -0.4999843317760746 0 -0.86603444964876086 -1.3743303900200574e-14 1 7.934368684437628e-15 
1 19200.32457791967 -13065.299999999672 7368.5260682892686 -0.99999999983633958 0 -1.8092014765617107e-05 -1.8092014765617107e-05 0 0.99999999983633958 0 1 0 
Triangulations 0

TShapes 121
Ve
1e-07
19190.9545170641 -12909.9999999997 11240.9999185863
0 0

0101101
*
Ve
1e-07
19190.9554216648 -12859.9999999997 11190.9999185944
0 0

0101101
*
Ed
 1e-07 0 0 0
1  1 0 1.57079632679446 3.14159265358979
2  1 1 0 1.57079632679446 3.14159265358979
4 C0 1 0 2 0
0

0101000
+121 0 -120 0 *
Ve
1e-07
19199.9545170626 -12909.9999999997 11241.0000814144
0 0

0101101
*
Ed
 1e-07 0 0 0
1  2 0 -4.35000000000834 4.64999999999123
2  2 1 0 -4.35000000000834 4.64999999999123
4 C0 1 0 3 0
0

0101000
+118 0 -121 0 *
Ve
1e-07
19199.9554216633 -12859.9999999997 11191.0000814226
0 0

0101101
*
Ed
 1e-07 0 0 0
1  3 0 3.14159265358979 4.71238898038458
2  3 1 0 3.14159265358979 4.71238898038458
4 C0 1 0 4 0
0

0101000
+116 0 -118 0 *
Ed
 1e-07 0 0 0
1  4 0 -4.531297542649 4.46870245735056
2  4 1 0 -4.531297542649 4.46870245735056
4 C0 1 0 5 0
0

0101000
+120 0 -116 0 *
Wi

0101000
-119 0 -117 0 -115 0 -114 0 *
Fa
0  1e-07 1 0

0111000
-113 0 *
Ve
1e-07
19191.0180167813 -12859.9999999997 7731.1798117227
0 0

0101101
*
Ed
 1e-07 0 0 0
1  5 0 3054.40262952614 6514.22273696412
4 C0 2 0 5 0
0

0101000
+111 0 -120 0 *
Ve
1e-07
19191.0184255016 -12901.821648779 7708.58327306572
0 0

0101101
*
Ed
 1e-07 0 0 0
1  6 0 3.14159265358979 4.13233483475351
2  5 6 0 3.14159265358979 4.13233483475351
4 C0 2 0 6 0
0

0101000
+111 0 -109 0 *
Ve
1e-07
19191.0166470089 -13059.8899999997 7806.89124776775
0 0

0101101
*
Ed
 2.22044604925031e-16 0 1 0
0

0101000
+109 0 -107 0 *
Ve
1e-07
19191.0166457573 -13059.9999999997 7806.9604271062
0 0

0101101
*
Ed
 1e-07 0 0 0
1  7 0 94.3717818894401 94.5017271889746
4 C0 2 0 7 0
0

0101000
+107 0 -105 0 *
Ve
1e-07
19190.9545170641 -13059.9999999997 11240.9999185863
0 0

0101101
*
Ed
 1e-07 0 0 0
1  8 0 3130.18324492205 6564.22273696411
4 C0 2 0 8 0
0

0101000
+105 0 -103 0 *
Ve
1e-07
19190.9545170641 -13059.8899999997 11240.9999185863
0 0

0101101
*
Ed
 1e-07 0 0 0
1  9 0 12.4725000003436 12.5825000003442
4 C0 2 0 9 0
0

0101000
+103 0 -101 0 *
Ed
 1e-07 0 0 0
1  10 0 -66.5823333330318 83.3076666669676
4 C0 2 0 3 0
0

0101000
+101 0 -121 0 *
Wi

0101000
+119 0 -110 0 +108 0 +106 0 +104 0 +102 0 +100 0 +99 0 *
Fa
0  1e-07 2 0

0101000
+98 0 *
Ve
1e-07
19200.0180167798 -12859.9999999997 7731.17997455083
0 0

0101101
*
Ed
 1e-07 0 0 0
1  11 0 3054.40262952614 6514.22273696412
4 C0 5 0 4 0
0

0101000
+96 0 -116 0 *
Ed
 1e-07 0 0 0
1  12 0 -4.53147271147411 4.46852728852545
2  6 6 0 -4.53147271147411 4.46852728852545
4 C0 5 0 6 0
0

0101000
+96 0 -111 0 *
Wi

0101000
+114 0 -95 0 +94 0 +110 0 *
Fa
0  1e-07 5 0

0111000
+93 0 *
Ve
1e-07
19200.018466679 -12903.309543802 7706.31269275817
0 0

0101101
*
Ed
 2.22044604925031e-16 0 1 0
0

0101000
+109 0 -91 0 *
Ve
1e-07
19200.0184255967 -12901.821648779 7708.58343589386
0 0

0101101
*
Ed
 1e-07 0 0 0
1  13 0 100.551126443961 109.551126540545
2  7 6 0 100.551126443961 109.551126540545
4 G1 10 0 6 0
0

0101000
+89 0 -109 0 *
Ed
 1e-07 0 0 0
1  14 0 165.542226953508 168.257020866377
4 C0 10 0 4 0
0

0101000
+91 0 -89 0 *
Wi

0101000
-90 0 -88 0 -87 0 *
Fa
0  1e-07 10 0

0101000
-86 0 *
Ed
 1e-07 0 0 0
1  15 0 2.15085047242608 3.14159265358979
2  8 6 0 2.15085047242608 3.14159265358979
4 C0 6 0 4 0
0

0101000
+89 0 -96 0 *
Wi

0101000
-108 0 -94 0 -84 0 +88 0 *
Fa
0  1e-07 6 0

0111000
-83 0 *
Ve
1e-07
19199.9545170626 -13031.9999999997 11241.0000814144
0 0

0101101
*
Ed
 1e-07 0 0 0
1  16 0 16.6923333330324 138.692333333032
4 C0 4 0 3 0
0

0101000
+118 0 -81 0 *
Ve
1e-07
19200.0170096144 -13031.9999999997 7786.84903228461
0 0

0101101
*
Ed
 1e-07 0 0 0
1  17 0 3110.07168726903 6564.22273696409
2  9 11 0 3110.07168726903 6564.22273696409
4 G1 4 0 11 0
0

0101000
+79 0 -81 0 *
Ed
 2.22044604925031e-16 0 0 0
0

0101000
+79 0 -91 0 *
Wi

0101000
+115 0 +80 0 -78 0 +77 0 +87 0 +84 0 +95 0 *
Fa
0  1e-07 4 0

0101000
+76 0 *
Ve
1e-07
19200.2545263325 -13059.9999999997 11240.4877105291
0 0

0101101
*
Ve
1e-07
19200.2545170625 -13059.9999999997 11241.000086842
0 0

0101101
*
Ed
 1e-07 0 0 0
1  18 0 3871.96164287347 3872.47401918647
4 C0 12 0 8 0
0

0101000
+74 0 -73 0 *
Ve
1e-07
19200.2545263325 -13034.8827070608 11240.4877105291
0 0

0101101
*
Ed
 1e-07 0 0 0
1  19 0 -13.0999999998367 12.0172929390847
4 C0 12 0 13 0
0

0101000
+74 0 -71 0 *
Ve
1e-07
19200.2545170625 -13034.8827070608 11241.000086842
0 0

0101101
*
Ed
 1e-07 0 0 0
1  20 0 325.238768475723 325.751144788786
2  10 11 0 325.238768475723 325.751144788786
4 C0 12 0 11 0
0

0101000
+69 0 -71 0 *
Ve
1e-07
19200.2545170625 -13059.8899999997 11241.000086842
0 0

0101101
*
Ed
 1e-07 0 0 0
1  21 0 -63.9323333330321 -38.9250403941296
4 C0 12 0 3 0
0

0101000
+67 0 -69 0 *
Ed
 1e-07 0 0 0
1  22 0 15.1225000003433 15.2325000003439
4 C0 12 0 9 0
0

0101000
+73 0 -67 0 *
Wi

0101000
-72 0 +70 0 -68 0 -66 0 -65 0 *
Fa
0  1e-07 12 0

0111000
-64 0 *
Ve
1e-07
19280.9570551578 -13059.9999999997 11100.712670405
0 0

0101101
*
Ed
 1e-07 0 0 0
1  23 0 1900.5885726166 2061.98857261809
4 C0 13 0 8 0
0

0101000
+62 0 -74 0 *
Ve
1e-07
19280.9570551578 -13052.9999999997 11100.712670405
0 0

0101101
*
Ed
 1e-07 0 0 0
1  24 0 12.2499999998363 19.2499999998363
4 C0 13 0 14 0
0

0101000
+60 0 -62 0 *
Ve
1e-07
19273.9568358049 -13045.9999999997 11112.836899412
0 0

0101101
*
Ed
 1e-07 0 0 0
1  25 0 1.5707963267949 3.14159265358979
2  11 15 0 1.5707963267949 3.14159265358979
4 C0 13 0 15 0
0

0101000
+58 0 -60 0 *
Ve
1e-07
19213.9549556374 -13045.9999999997 11216.7588623296
0 0

0101101
*
Ed
 1e-07 0 0 0
1  26 0 -2017.83857261799 -1897.83857261688
4 C0 13 0 16 0
0

0101000
+56 0 -58 0 *
Ed
 1e-07 0 0 0
1  27 0 3.34898379319736 4.71238898038469
2  12 11 0 3.34898379319736 4.71238898038469
4 C0 13 0 11 0
0

0101000
+71 0 -56 0 *
Wi

0101000
-61 0 -59 0 -57 0 -55 0 -54 0 -70 0 *
Fa
0  1e-07 13 0

0111000
-53 0 *
Ve
1e-07
19281.0141644448 -13059.9999999997 7944.11083357723
0 0

0101101
*
Ed
 1e-07 0 0 0
1  28 0 3267.3320231342 6423.93386047857
4 C0 14 0 8 0
0

0101000
+51 0 -62 0 *
Ve
1e-07
19281.0141644448 -13052.9999999997 7944.11083357723
0 0

0101101
*
Ed
 1e-07 0 0 0
1  29 0 -6.99999999983811 1.61890056915581e-10
4 C0 14 0 17 0
0

0101000
+51 0 -49 0 *
Ed
 1e-07 0 0 0
1  30 0 3141.28879507133 6297.8906324157
2  13 15 0 3141.28879507133 6297.8906324157
4 G1 14 0 15 0
0

0101000
+60 0 -49 0 *
Wi

0101000
+59 0 -50 0 +48 0 -47 0 *
Fa
0  1e-07 14 0

0111000
+46 0 *
Ve
1e-07
19274.0143838 -13045.9999999997 7931.98635128221
0 0

0101101
*
Ed
 1e-07 0 0 0
1  31 0 3.14159265358979 4.71238898038469
2  14 15 0 3.14159265358979 4.71238898038469
4 C0 15 0 17 0
0

0101000
+49 0 -44 0 *
Ed
 1e-07 0 0 0
1  32 0 3255.20766748129 6436.0582161317
2  15 15 0 3255.20766748129 6436.0582161317
4 G1 15 0 16 0
0

0101000
+44 0 -58 0 *
Wi

0101000
+57 0 +47 0 +43 0 +42 0 *
Fa
0  1e-07 15 0

0111000
+41 0 *
Ve
1e-07
19214.0162639871 -13045.9999999997 7828.06221732483
0 0

0101101
*
Ed
 1e-07 0 0 0
1  33 0 32.5201177853718 152.520117784824
4 C0 16 0 17 0
0

0101000
+44 0 -39 0 *
Ed
 1e-07 0 0 0
1  34 0 3151.28461902779 6539.98126458711
2  16 11 0 3151.28461902779 6539.98126458711
4 G1 16 0 11 0
0

0101000
+39 0 -56 0 *
Wi

0101000
+55 0 -42 0 +38 0 +37 0 *
Fa
0  1e-07 16 0

0111000
+36 0 *
Ed
 1e-07 0 0 0
1  35 0 37.9500000051494 47.25000000515
4 C0 8 0 9 0
0

0101000
+73 0 -103 0 *
Ve
1e-07
19200.3167062196 -13059.9999999997 7803.61857831304
0 0

0101101
*
Ed
 1e-07 0 0 0
1  36 0 -114.800107325271 -104.917846553628
4 C0 8 0 7 0
0

0101000
+105 0 -33 0 *
Ve
1e-07
19200.3166932965 -13059.9999999997 7804.33287340456
0 0

0101101
*
Ed
 1e-07 0 0 0
1  37 0 435.092510094979 435.806805186615
4 C0 8 0 18 0
0

0101000
+33 0 -31 0 *
Ed
 1e-07 0 0 0
1  38 0 -196.670117784779 -35.2701177855154
4 C0 8 0 17 0
0

0101000
+31 0 -51 0 *
Wi

0101000
+61 0 +72 0 +34 0 -102 0 +32 0 +30 0 +29 0 +50 0 *
Fa
0  1e-07 8 0

0111000
+28 0 *
Ve
1e-07
19200.3166932965 -13034.8827070608 7804.33287340456
0 0

0101101
*
Ed
 1e-07 0 0 0
1  39 0 1.5707963267949 2.9342015139823
2  17 11 0 1.5707963267949 2.9342015139823
4 C0 11 0 17 0
0

0101000
+39 0 -26 0 *
Ve
3.43493595925029e-06
19200.3169803759 -13034.8827104768 7788.48499768982
0 0

0101101
*
Ed
 1e-07 0 0 0
1  40 0 -345.179357121779 -329.331481404435
2  18 11 0 -345.179357121779 -329.331481404435
4 C0 11 0 18 0
0

0101000
+26 0 -24 0 *
Ed
 2.22044604925031e-16 0 0 0
0

0101000
+24 0 -79 0 *
Ed
 1e-07 0 0 0
1  41 0 3.14159265358979 3.34898379319864
2  19 11 0 3.14159265358979 3.34898379319864
4 C0 11 0 3 0
0

0101000
+81 0 -69 0 *
Wi

0101000
+54 0 -37 0 +25 0 +23 0 +22 0 +78 0 +21 0 +68 0 *
Fa
0  1e-07 11 0

0101000
-20 0 *
Ed
 1e-07 0 0 0
1  42 0 0.357594936708997 0.651898734177108
4 CN 9 0 3 0
0

0101000
+101 0 -67 0 *
Wi

0101000
+65 0 -18 0 -100 0 -34 0 *
Fa
0  1e-07 9 0

0111000
+17 0 *
Wi

0101000
+117 0 -99 0 +18 0 +66 0 -21 0 -80 0 *
Fa
0  1e-07 3 0

0111000
+15 0 *
Ed
 1e-07 0 0 0
1  43 0 -24.267292939081 0.849999999840293
4 C0 17 0 18 0
0

0101000
+26 0 -31 0 *
Wi

0101000
-29 0 -13 0 -25 0 -38 0 -43 0 -48 0 *
Fa
0  1e-07 17 0

0111000
+12 0 *
Ve
1e-07
19200.3167074711 -13059.8899999997 7803.54939897458
0 0

0101101
*
Ed
 1e-07 0 0 0
1  44 0 90.3493314390938 90.4792767386279
4 C0 18 0 7 0
0

0101000
+10 0 -33 0 *
Ed
 2.22044604925031e-16 0 0 0
0

0101000
+24 0 -10 0 *
Wi

0101000
-30 0 -9 0 -8 0 -23 0 +13 0 *
Fa
0  1e-07 18 0

0101000
-7 0 *
Ed
 1e-07 0 0 0
1  45 0 0.348101265534134 0.642405063002564
0

0101000
+10 0 -107 0 *
Wi

0101000
+9 0 -32 0 -104 0 -5 0 *
Fa
0  1e-07 7 0

0111000
+4 0 *
Sh

0101000
-112 0 +97 0 +92 0 -85 0 -82 0 +75 0 -63 0 -52 0 +45 0 +40 0 
+35 0 +27 0 -19 0 +16 0 +14 0 +11 0 -6 0 +3 0 *
Co

1100000
+2 0 *

+1 0 
0

