DBRep_DrawableShape

CASCADE Topology V1, (c) Matra-Datavision
Locations 0
Curve2ds 4
1 0 -818.88300830512981 1 0 
1 6.2831853071795862 -812.8830083051289 -1 0 
1 0 -818.88300830512981 1 0 
1 6.2831853071795862 -812.8830083051289 -1 0 
Curves 44
2 8775.9999999999982 -5531.0000000000036 15837 0 -1 0 -1 0 0 -0 -0 -1 6
2 8775.9999999999982 -5525.0000000000027 15837 0 1 0 -1 0 0 0 -0 1 6
2 8775.9999999999982 -5531.0000000000036 15537 0 -1 0 -1 0 0 -0 -0 -1 6
2 8775.9999999999982 -5525.0000000000027 15537 0 1 0 -1 0 0 0 -0 1 6
1 8749.9999999999982 -5525.0000000000027 15862 0 -1 0 
1 8749.9999999999982 -5531.0000000000036 15862 1 0 0 
1 8793.9999999999982 -5531.0000000000036 15862 0 -1 0 
1 8793.9999999999982 -5575.0000000000036 15862 1 0 0 
1 8799.9999999999964 -5575.0000000000036 15862 0 1 0 
1 8799.9999999999964 -5525.0000000000027 15862 -1 0 0 
1 8749.9999999999982 -5531.0000000000036 15512 0 1 0 
1 8749.9999999999982 -5525.0000000000027 15512 1 0 0 
1 8799.9999999999964 -5525.0000000000027 15512 0 -1 0 
1 8799.9999999999964 -5575.0000000000036 15512 -1 0 0 
1 8793.9999999999982 -5575.0000000000036 15512 0 1 0 
1 8793.9999999999982 -5531.0000000000036 15512 -1 0 0 
1 8749.9999999999982 -5531.0000000000036 15512 0 0 1 
1 8749.9999999999982 -5531.0000000000036 15862 0 1 0 
1 8749.9999999999982 -5525.0000000000027 15862 0 0 -1 
1 8749.9999999999982 -5525.0000000000027 15512 0 -1 0 
1 8749.9999999999982 -5525.0000000000027 15512 0 0 1 
1 8749.9999999999982 -5525.0000000000027 15862 1 0 0 
1 8799.9999999999964 -5525.0000000000027 15862 0 0 -1 
1 8799.9999999999964 -5525.0000000000027 15512 -1 0 0 
2 8775.9999999999982 -5525.0000000000027 15537 -0 -1 -0 -1 0 0 0 0 -1 6
2 8775.9999999999982 -5525.0000000000027 15837 -0 -1 -0 -1 0 0 0 0 -1 6
1 8799.9999999999964 -5525.0000000000027 15512 0 0 1 
1 8799.9999999999964 -5525.0000000000027 15862 0 -1 0 
1 8799.9999999999964 -5575.0000000000036 15862 0 0 -1 
1 8799.9999999999964 -5575.0000000000036 15512 0 1 0 
1 8799.9999999999964 -5575.0000000000036 15512 0 0 1 
1 8799.9999999999964 -5575.0000000000036 15862 -1 0 0 
1 8793.9999999999982 -5575.0000000000036 15862 0 0 -1 
1 8793.9999999999982 -5575.0000000000036 15512 1 0 0 
1 8793.9999999999982 -5575.0000000000036 15512 0 0 1 
1 8793.9999999999982 -5575.0000000000036 15862 0 1 0 
1 8793.9999999999982 -5531.0000000000036 15862 0 0 -1 
1 8793.9999999999982 -5531.0000000000036 15512 0 -1 0 
1 8793.9999999999982 -5531.0000000000036 15512 0 0 1 
1 8793.9999999999982 -5531.0000000000036 15862 -1 0 0 
1 8749.9999999999982 -5531.0000000000036 15862 0 0 -1 
1 8749.9999999999982 -5531.0000000000036 15512 1 0 0 
2 8775.9999999999982 -5531.0000000000036 15537 -0 1 -0 -1 0 0 0 0 1 6
2 8775.9999999999982 -5531.0000000000036 15837 -0 1 -0 -1 0 0 0 0 1 6
Polygon3D 0
PolygonOnTriangulations 0
Surfaces 10
10 0 6.2831853071795862 -818.88300830512981 -812.8830083051289
2 8775.9999999999982 -4712.1169916948738 15837 -0 1 -0 -1 0 0 -0 -0 -1 6
10 0 6.2831853071795862 -818.88300830512981 -812.8830083051289
2 8775.9999999999982 -4712.1169916948738 15537 -0 1 -0 -1 0 0 -0 -0 -1 6
1 8784.6799999999967 -5540.3200000000043 15861.999999999995 -1.2353540538782671e-25 -1.6449170042487751e-25 1 1 0 1.2353540538782671e-25 -2.032054889492019e-50 1 1.6449170042487751e-25 
1 8784.6799999999967 -5540.3200000000043 15512 -2.6766004500695789e-25 -3.5639868425390134e-25 1 1 0 2.6766004500695789e-25 9.5393687867819801e-50 -1 -3.5639868425390134e-25 
1 8749.9999999999982 -5531.0000000000036 15512 -1 0 0 0 0 1 0 1 -0 
1 8749.9999999999982 -5525.0000000000027 15512 0 1 0 0 -0 1 1 0 -0 
1 8799.9999999999964 -5525.0000000000027 15512 1 0 -0 -0 0 -1 0 1 0 
1 8799.9999999999964 -5575.0000000000036 15512 0 -1 0 0 0 -1 1 0 0 
1 8793.9999999999982 -5575.0000000000036 15512 -1 0 0 0 0 1 0 1 -0 
1 8793.9999999999982 -5531.0000000000036 15512 0 -1 0 0 0 -1 1 0 0 
Triangulations 0

TShapes 132
Ve
1.00020001e-07
8770 -5531 15837
0 0

0101101
*
Ed
 1e-07 1 1 0
1  1 0 0 6.28318530717959
2  1 1 0 0 6.28318530717959
0

0101000
+132 0 -132 0 *
Wi

0101100
+131 0 *
Fa
0  1e-07 1 0

0111000
+130 0 *
Sh

0101000
+129 0 *
Ve
1e-07
8770 -5525 15837
0 0

0101101
*
Ed
 1e-07 1 1 0
1  2 0 0 6.28318530717959
2  2 1 0 0 6.28318530717959
0

0101000
+127 0 -127 0 *
Wi

0101100
+126 0 *
Fa
0  1e-07 1 0

0111000
+125 0 *
Sh

0101000
+124 0 *
Co

0100000
+128 0 +123 0 *
Ve
1.00020001e-07
8770 -5531 15537
0 0

0101101
*
Ed
 1e-07 1 1 0
1  3 0 0 6.28318530717959
2  3 2 0 0 6.28318530717959
0

0101000
+121 0 -121 0 *
Wi

0101100
+120 0 *
Fa
0  1e-07 2 0

0111000
+119 0 *
Sh

0101000
+118 0 *
Ve
1e-07
8770 -5525 15537
0 0

0101101
*
Ed
 1e-07 1 1 0
1  4 0 0 6.28318530717959
2  4 2 0 0 6.28318530717959
0

0101000
+116 0 -116 0 *
Wi

0101100
+115 0 *
Fa
0  1e-07 2 0

0111000
+114 0 *
Sh

0101000
+113 0 *
Co

0100000
+117 0 +112 0 *
Ve
1e-07
8750 -5525 15862
0 0

0101101
*
Ve
1e-07
8750 -5531 15862
0 0

0101101
*
Ed
 1e-07 1 1 0
1  5 0 0 6.00000000000091
0

0101000
+110 0 -109 0 *
Ve
1e-07
8794 -5531 15862
0 0

0101101
*
Ed
 1e-07 1 1 0
1  6 0 0 44
0

0101000
+109 0 -107 0 *
Ve
1e-07
8794 -5575 15862
0 0

0101101
*
Ed
 1e-07 1 1 0
1  7 0 0 44
0

0101000
+107 0 -105 0 *
Ve
1e-07
8800 -5575 15862
0 0

0101101
*
Ed
 1e-07 1 1 0
1  8 0 0 5.99999999999818
0

0101000
+105 0 -103 0 *
Ve
1e-07
8800 -5525 15862
0 0

0101101
*
Ed
 1e-07 1 1 0
1  9 0 0 50.0000000000009
0

0101000
+103 0 -101 0 *
Ed
 1e-07 1 1 0
1  10 0 0 49.9999999999982
0

0101000
+101 0 -110 0 *
Wi

0101000
+108 0 +106 0 +104 0 +102 0 +100 0 +99 0 *
Fa
0  1e-07 3 0

0111000
+98 0 *
Sh

0101000
+97 0 *
Ve
1e-07
8750 -5531 15512
0 0

0101101
*
Ve
1e-07
8750 -5525 15512
0 0

0101101
*
Ed
 1e-07 1 1 0
1  11 0 0 6.00000000000091
0

0101000
+95 0 -94 0 *
Ve
1e-07
8800 -5525 15512
0 0

0101101
*
Ed
 1e-07 1 1 0
1  12 0 0 49.9999999999982
0

0101000
+94 0 -92 0 *
Ve
1e-07
8800 -5575 15512
0 0

0101101
*
Ed
 1e-07 1 1 0
1  13 0 0 50.0000000000009
0

0101000
+92 0 -90 0 *
Ve
1e-07
8794 -5575 15512
0 0

0101101
*
Ed
 1e-07 1 1 0
1  14 0 0 5.99999999999818
0

0101000
+90 0 -88 0 *
Ve
1e-07
8794 -5531 15512
0 0

0101101
*
Ed
 1e-07 1 1 0
1  15 0 0 44
0

0101000
+88 0 -86 0 *
Ed
 1e-07 1 1 0
1  16 0 0 44
0

0101000
+86 0 -95 0 *
Wi

0101000
+93 0 +91 0 +89 0 +87 0 +85 0 +84 0 *
Fa
0  1e-07 4 0

0111000
+83 0 *
Sh

0101000
+82 0 *
Ve
1e-07
8750 -5531 15512
0 0

0101101
*
Ve
1e-07
8750 -5531 15862
0 0

0101101
*
Ed
 1e-07 1 1 0
1  17 0 0 350
0

0101000
+80 0 -79 0 *
Ve
1e-07
8750 -5525 15862
0 0

0101101
*
Ed
 1e-07 1 1 0
1  18 0 0 6.00000000000091
0

0101000
+79 0 -77 0 *
Ve
1e-07
8750 -5525 15512
0 0

0101101
*
Ed
 1e-07 1 1 0
1  19 0 0 350
0

0101000
+77 0 -75 0 *
Ed
 1e-07 1 1 0
1  20 0 0 6.00000000000091
0

0101000
+75 0 -80 0 *
Wi

0101000
+78 0 +76 0 +74 0 +73 0 *
Fa
0  1e-07 5 0

0111000
+72 0 *
Sh

0101000
+71 0 *
Ve
1e-07
8750 -5525 15512
0 0

0101101
*
Ve
1e-07
8750 -5525 15862
0 0

0101101
*
Ed
 1e-07 1 1 0
1  21 0 0 350
0

0101000
+69 0 -68 0 *
Ve
1e-07
8800 -5525 15862
0 0

0101101
*
Ed
 1e-07 1 1 0
1  22 0 0 49.9999999999982
0

0101000
+68 0 -66 0 *
Ve
1e-07
8800 -5525 15512
0 0

0101101
*
Ed
 1e-07 1 1 0
1  23 0 0 350
0

0101000
+66 0 -64 0 *
Ed
 1e-07 1 1 0
1  24 0 0 49.9999999999982
0

0101000
+64 0 -69 0 *
Wi

0101000
+67 0 +65 0 +63 0 +62 0 *
Ve
1e-07
8770 -5525 15537
0 0

0101101
*
Ed
 1e-07 1 1 0
1  25 0 0 6.28318530717959
0

0101000
+60 0 -60 0 *
Wi

0101000
+59 0 *
Ve
1e-07
8770 -5525 15837
0 0

0101101
*
Ed
 1e-07 1 1 0
1  26 0 0 6.28318530717959
0

0101000
+57 0 -57 0 *
Wi

0101000
+56 0 *
Fa
0  1e-07 6 0

0111000
+61 0 +58 0 +55 0 *
Sh

0101000
+54 0 *
Ve
1e-07
8800 -5525 15512
0 0

0101101
*
Ve
1e-07
8800 -5525 15862
0 0

0101101
*
Ed
 1e-07 1 1 0
1  27 0 0 350
0

0101000
+52 0 -51 0 *
Ve
1e-07
8800 -5575 15862
0 0

0101101
*
Ed
 1e-07 1 1 0
1  28 0 0 50.0000000000009
0

0101000
+51 0 -49 0 *
Ve
1e-07
8800 -5575 15512
0 0

0101101
*
Ed
 1e-07 1 1 0
1  29 0 0 350
0

0101000
+49 0 -47 0 *
Ed
 1e-07 1 1 0
1  30 0 0 50.0000000000009
0

0101000
+47 0 -52 0 *
Wi

0101000
+50 0 +48 0 +46 0 +45 0 *
Fa
0  1e-07 7 0

0111000
+44 0 *
Sh

0101000
+43 0 *
Ve
1e-07
8800 -5575 15512
0 0

0101101
*
Ve
1e-07
8800 -5575 15862
0 0

0101101
*
Ed
 1e-07 1 1 0
1  31 0 0 350
0

0101000
+41 0 -40 0 *
Ve
1e-07
8794 -5575 15862
0 0

0101101
*
Ed
 1e-07 1 1 0
1  32 0 0 5.99999999999818
0

0101000
+40 0 -38 0 *
Ve
1e-07
8794 -5575 15512
0 0

0101101
*
Ed
 1e-07 1 1 0
1  33 0 0 350
0

0101000
+38 0 -36 0 *
Ed
 1e-07 1 1 0
1  34 0 0 5.99999999999818
0

0101000
+36 0 -41 0 *
Wi

0101000
+39 0 +37 0 +35 0 +34 0 *
Fa
0  1e-07 8 0

0111000
+33 0 *
Sh

0101000
+32 0 *
Ve
1e-07
8794 -5575 15512
0 0

0101101
*
Ve
1e-07
8794 -5575 15862
0 0

0101101
*
Ed
 1e-07 1 1 0
1  35 0 0 350
0

0101000
+30 0 -29 0 *
Ve
1e-07
8794 -5531 15862
0 0

0101101
*
Ed
 1e-07 1 1 0
1  36 0 0 44
0

0101000
+29 0 -27 0 *
Ve
1e-07
8794 -5531 15512
0 0

0101101
*
Ed
 1e-07 1 1 0
1  37 0 0 350
0

0101000
+27 0 -25 0 *
Ed
 1e-07 1 1 0
1  38 0 0 44
0

0101000
+25 0 -30 0 *
Wi

0101000
+28 0 +26 0 +24 0 +23 0 *
Fa
0  1e-07 9 0

0111000
+22 0 *
Sh

0101000
+21 0 *
Ve
1e-07
8794 -5531 15512
0 0

0101101
*
Ve
1e-07
8794 -5531 15862
0 0

0101101
*
Ed
 1e-07 1 1 0
1  39 0 0 350
0

0101000
+19 0 -18 0 *
Ve
1e-07
8750 -5531 15862
0 0

0101101
*
Ed
 1e-07 1 1 0
1  40 0 0 44
0

0101000
+18 0 -16 0 *
Ve
1e-07
8750 -5531 15512
0 0

0101101
*
Ed
 1e-07 1 1 0
1  41 0 0 350
0

0101000
+16 0 -14 0 *
Ed
 1e-07 1 1 0
1  42 0 0 44
0

0101000
+14 0 -19 0 *
Wi

0101000
+17 0 +15 0 +13 0 +12 0 *
Ve
1e-07
8770 -5531 15537
0 0

0101101
*
Ed
 1e-07 1 1 0
1  43 0 0 6.28318530717959
0

0101000
+10 0 -10 0 *
Wi

0101000
+9 0 *
Ve
1e-07
8770 -5531 15837
0 0

0101101
*
Ed
 1e-07 1 1 0
1  44 0 0 6.28318530717959
0

0101000
+7 0 -7 0 *
Wi

0101000
+6 0 *
Fa
0  1e-07 10 0

0111000
+11 0 +8 0 +5 0 *
Sh

0101000
+4 0 *
Co

0100000
+122 0 +111 0 +96 0 +81 0 +70 0 +53 0 +42 0 +31 0 +20 0 +3 0 
*
Co

1100000
+2 0 *

+1 0 
0

