DBRep_DrawableShape

CASCADE Topology V1, (c) Matra-Datavision
Locations 0
Curve2ds 13
1 0 0 0 -1 
1 0 -42 1 0 
1 3.1415926535897931 -42 0 1 
1 3.1415926535897931 0 -1 0 
1 6.2831853071795862 0 -1 0 
1 6.2831853071795862 0 0 1 
1 0 0 0 1 
1 0 -42 1 0 
1 1.8189894035458565e-09 -2206.7601477142434 -1 0 
1 0 -4413.5155630211539 1 0 
1 6.2831853071795862 0 0 1 
1 0 0 0 1 
1 6.2831853089985756 -2206.7601477142434 -1 0 
Curves 34
1 -1694.4968800677532 11148 14603.226994730907 0 0 -1 
1 -1694.4968800677532 11148 14498.226994730907 1 0 0 
1 -1505.496880067753 11148 14498.226994730907 0 0 1 
2 -1599.9968800677532 11148 14603.226994730907 9.8274410820023334e-32 -1 1.6155445744325867e-15 1 2.263990201259599e-31 7.9307381135513767e-17 -7.9307381135513767e-17 1.6155445744325867e-15 1 94.499999999999986
2 -1599.9968800677532 11148 14603.226994730907 -9.8274410820023334e-32 1 -1.6155445744325867e-15 1 9.8274410820023334e-32 -1.587666912058478e-46 0 -1.6155445744325867e-15 -1 52.5
2 -1599.9968800677532 11190 14603.226994730907 -9.8274410820023334e-32 1 -1.6155445744325867e-15 -1 -2.263990201259599e-31 -7.9307381135513767e-17 -7.9307381135513767e-17 1.6155445744325867e-15 1 94.499999999999986
1 -1505.496880067753 11190 14603.226994730907 0 0 -1 
1 -1505.496880067753 11190 14498.226994730907 -1 0 0 
1 -1694.4968800677532 11190 14498.226994730907 0 0 1 
2 -1599.9968800677532 11190 14603.226994730907 9.8274410820023334e-32 -1 1.6155445744325867e-15 1 9.8274410820023334e-32 -1.587666912058478e-46 0 1.6155445744325867e-15 1 52.5
1 -1505.496880067753 11148 14603.226994730907 0 1 0 
2 -1599.9968800677532 11190 14603.226994730907 9.8274410820023334e-32 -1 1.6155445744325867e-15 1 2.263990201259599e-31 7.9307381135513767e-17 -7.9307381135513767e-17 1.6155445744325867e-15 1 94.499999999999986
1 -1694.4968800677532 11190 14603.226994730907 0 -1 0 
2 -1599.9968800677532 11148 14603.226994730907 -9.8274410820023334e-32 1 -1.6155445744325867e-15 -1 -2.263990201259599e-31 -7.9307381135513767e-17 -7.9307381135513767e-17 1.6155445744325867e-15 1 94.499999999999986
1 -1505.496880067753 11148 14498.226994730907 0 1 0 
1 -1505.496880067753 11190 14498.226994730907 0 0 1 
1 -1505.496880067753 11190 14603.226994730907 0 -1 0 
1 -1505.496880067753 11148 14603.226994730907 0 0 -1 
1 -1694.4968800677532 11148 14498.226994730907 0 1 0 
1 -1694.4968800677532 11190 14498.226994730907 1 0 0 
1 -1505.496880067753 11190 14498.226994730907 0 -1 0 
1 -1505.496880067753 11148 14498.226994730907 -1 0 0 
1 -1694.4968800677532 11148 14603.226994730907 0 1 0 
1 -1694.4968800677532 11190 14603.226994730907 0 0 -1 
1 -1694.4968800677532 11190 14498.226994730907 0 -1 0 
1 -1694.4968800677532 11148 14498.226994730907 0 0 1 
2 -1599.9968800677532 11148 14603.226994730907 -9.8274410820023334e-32 1 -1.6155445744325867e-15 1 9.8274410820023334e-32 -1.587666912058478e-46 0 -1.6155445744325867e-15 -1 52.5
7 0 0  1 2 2  -1547.4968800677532 11190 14603.226994730907  -1547.4968800677532 11148 14603.226994730907 
 -42 2 0 2
2 -1599.9968800677532 11190 14603.226994730907 9.8274410820023334e-32 -1 1.6155445744325867e-15 1 9.8274410820023334e-32 -1.587666912058478e-46 0 1.6155445744325867e-15 1 52.5
2 -1599.9968800677532 11168.999999999998 14603.226994730907 6.0830516455752624e-17 -8.0556221429392848e-17 1 1 4.900276553273934e-33 -6.0830516455752624e-17 0 1 8.0556221429392848e-17 0.001
2 -1599.996880067753 11168.999999999998 16603.226994730907 -6.0830516455752624e-17 8.0556221429392848e-17 -1 1 4.900276553273934e-33 -6.0830516455752624e-17 0 -1 -8.0556221429392848e-17 932.61531630999718
7 0 0  1 2 2  -667.38156375775418 11169 16603.226994730911  -1599.9958800677528 11169 14603.226994730907 
 -4413.5155630211539 2 -2206.7601477142434 2
7 1 1  2 6 4  -667.38156375775566 11168.999999999998 16603.226994730907  1 -667.38156375775566 12784.337111765835 16603.226994730907  0.5 -2066.3045382227515 11976.668555882916 16603.226994730907  1 -3465.2275126877471 11168.999999999998 16603.226994730907  0.5 -2066.3045382227515 10361.331444117081 16603.226994730907  1 -667.38156375775566 9553.6628882341647 16603.226994730907  0.5
 0 2 0.33333333333333331 2 0.66666666666666663 2 1 2
7 1 1  2 6 4  -1599.995880067753 11168.999999999998 14603.226994730907  1 -1599.995880067753 11168.998267949191 14603.226994730907  0.5 -1599.9973800677531 11168.999133974594 14603.226994730907  1 -1599.9988800677531 11168.999999999998 14603.226994730907  0.5 -1599.9973800677531 11169.000866025403 14603.226994730907  1 -1599.995880067753 11169.001732050805 14603.226994730907  0.5
 0 2 0.33333333333333337 2 0.66666666666666674 2 1 2
Polygon3D 0
PolygonOnTriangulations 0
Surfaces 10
1 -1694.4968800677532 11148 14603.226994730907 -9.8274410820023334e-32 1 -1.6155445744325867e-15 -1.8476864679761143e-17 1.6155445744325867e-15 1 -1 -1.2812460930593655e-31 -1.8476864679761143e-17 
1 -1694.4968800677532 11190 14603.226994730907 9.8274410820023334e-32 -1 1.6155445744325867e-15 -6.0830516455752624e-17 -1.6155445744325867e-15 -1 -1 0 6.0830516455752624e-17 
2 -1599.9968800677532 11148 14603.226994730907 9.8274410820023334e-32 -1 1.6155445744325867e-15 1 2.263990201259599e-31 7.9307381135513767e-17 -7.9307381135513767e-17 1.6155445744325867e-15 1 94.499999999999986
1 -1505.496880067753 11148 14498.226994730907 -1 -0 -0 -0 1.5349883530031939e-15 1 0 -1 1.5349883530031939e-15 
1 -1694.4968800677532 11148 14498.226994730907 6.0830516455752624e-17 1.5349883530031939e-15 1 1 -9.3374134266749405e-32 -6.0830516455752624e-17 0 -1 1.5349883530031939e-15 
1 -1694.4968800677532 11148 14603.226994730907 1 -0 -0 -0 -1.5349883530031939e-15 -1 0 -1 1.5349883530031939e-15 
10 0 6.2831853071795862 -42 0
2 -1599.9968800677532 11148 14603.226994730907 9.8274410820023334e-32 -1 1.6155445744325867e-15 1 9.8274410820023334e-32 -1.587666912058478e-46 0 1.6155445744325867e-15 1 52.5
10 0 6.2831853071795862 -4413.5155630211539 -2206.7601477142434
3 -1599.9968800677534 11169 12603.222705712466 -6.0830516455752637e-17 8.0556221429392836e-17 -1 -1 -1.2246467991473532e-16 6.0830516455752624e-17 -1.2246467991473532e-16 1 8.0556221429392848e-17 932.61531630999718
0.43633190230160129
1 -667.38156375775566 11168.999999999998 16603.226994730907 0 0 1 0 1 -0 -1 0 0 
1 -1599.9958800677532 11168.999999999998 14603.226994730907 -3.4895179120537732e-44 -1.8957812152538491e-27 -1 -2.8110237761186563e-60 1 -1.8957812152538491e-27 1 2.8110237760525024e-60 -3.4895179120537732e-44 
Triangulations 0

TShapes 105
Ve
1e-07
-1694.49688006775 11148 14603.2269947309
0 0

0101101
*
Ve
1e-07
-1694.49688006775 11148 14498.2269947309
0 0

0101101
*
Ed
 1e-07 1 1 0
1  1 0 0 105
0

0101000
+105 0 -104 0 *
Ve
1e-07
-1505.49688006775 11148 14498.2269947309
0 0

0101101
*
Ed
 1e-07 1 1 0
1  2 0 0 189
0

0101000
+104 0 -102 0 *
Ve
1e-07
-1505.49688006775 11148 14603.2269947309
0 0

0101101
*
Ed
 1e-07 1 1 0
1  3 0 0 105
0

0101000
+102 0 -100 0 *
Ed
 1e-07 1 1 0
1  4 0 0 3.14159265358979
0

0101000
+100 0 -105 0 *
Wi

0101000
+103 0 +101 0 +99 0 +98 0 *
Ve
1e-07
-1547.49688006775 11148 14603.2269947309
0 0

0101101
*
Ed
 1e-07 1 1 0
1  5 0 0 6.28318530717959
0

0101000
+96 0 -96 0 *
Wi

0101000
+95 0 *
Fa
0  1e-07 1 0

0111000
+97 0 +94 0 *
Sh

0101000
+93 0 *
Ve
1e-07
-1694.49688006775 11190 14603.2269947309
0 0

0101101
*
Ve
1e-07
-1505.49688006775 11190 14603.2269947309
0 0

0101101
*
Ed
 1e-07 1 1 0
1  6 0 0 3.14159265358979
0

0101000
+91 0 -90 0 *
Ve
1e-07
-1505.49688006775 11190 14498.2269947309
0 0

0101101
*
Ed
 1e-07 1 1 0
1  7 0 0 105
0

0101000
+90 0 -88 0 *
Ve
1e-07
-1694.49688006775 11190 14498.2269947309
0 0

0101101
*
Ed
 1e-07 1 1 0
1  8 0 0 189
0

0101000
+88 0 -86 0 *
Ed
 1e-07 1 1 0
1  9 0 0 105
0

0101000
+86 0 -91 0 *
Wi

0101000
+89 0 +87 0 +85 0 +84 0 *
Ve
1e-07
-1547.49688006775 11190 14603.2269947309
0 0

0101101
*
Ed
 1e-07 1 1 0
1  10 0 0 6.28318530717959
0

0101000
+82 0 -82 0 *
Wi

0101000
+81 0 *
Fa
0  1e-07 2 0

0111000
+83 0 +80 0 *
Sh

0101000
+79 0 *
Ve
1e-07
-1505.49688006775 11148 14603.2269947309
0 0

0101101
*
Ve
1e-07
-1505.49688006775 11190 14603.2269947309
0 0

0101101
*
Ed
 1e-07 1 1 0
1  11 0 0 42
2  1 3 0 0 42
0

0101000
+77 0 -76 0 *
Ve
1e-07
-1694.49688006775 11190 14603.2269947309
0 0

0101101
*
Ed
 1e-07 1 1 0
1  12 0 0 3.14159265358979
2  2 3 0 0 3.14159265358979
0

0101000
+76 0 -74 0 *
Ve
1e-07
-1694.49688006775 11148 14603.2269947309
0 0

0101101
*
Ed
 1e-07 1 1 0
1  13 0 0 42
2  3 3 0 0 42
0

0101000
+74 0 -72 0 *
Ed
 1e-07 1 1 0
1  14 0 0 3.14159265358979
2  4 3 0 0 3.14159265358979
0

0101000
+72 0 -77 0 *
Wi

0101000
+75 0 +73 0 +71 0 +70 0 *
Fa
0  1e-07 3 0

0111000
+69 0 *
Sh

0101000
+68 0 *
Ve
1e-07
-1505.49688006775 11148 14498.2269947309
0 0

0101101
*
Ve
1e-07
-1505.49688006775 11190 14498.2269947309
0 0

0101101
*
Ed
 1e-07 1 1 0
1  15 0 0 42
0

0101000
+66 0 -65 0 *
Ve
1e-07
-1505.49688006775 11190 14603.2269947309
0 0

0101101
*
Ed
 1e-07 1 1 0
1  16 0 0 105
0

0101000
+65 0 -63 0 *
Ve
1e-07
-1505.49688006775 11148 14603.2269947309
0 0

0101101
*
Ed
 1e-07 1 1 0
1  17 0 0 42
0

0101000
+63 0 -61 0 *
Ed
 1e-07 1 1 0
1  18 0 0 105
0

0101000
+61 0 -66 0 *
Wi

0101000
+64 0 +62 0 +60 0 +59 0 *
Fa
0  1e-07 4 0

0111000
+58 0 *
Sh

0101000
+57 0 *
Ve
1e-07
-1694.49688006775 11148 14498.2269947309
0 0

0101101
*
Ve
1e-07
-1694.49688006775 11190 14498.2269947309
0 0

0101101
*
Ed
 1e-07 1 1 0
1  19 0 0 42
0

0101000
+55 0 -54 0 *
Ve
1e-07
-1505.49688006775 11190 14498.2269947309
0 0

0101101
*
Ed
 1e-07 1 1 0
1  20 0 0 189
0

0101000
+54 0 -52 0 *
Ve
1e-07
-1505.49688006775 11148 14498.2269947309
0 0

0101101
*
Ed
 1e-07 1 1 0
1  21 0 0 42
0

0101000
+52 0 -50 0 *
Ed
 1e-07 1 1 0
1  22 0 0 189
0

0101000
+50 0 -55 0 *
Wi

0101000
+53 0 +51 0 +49 0 +48 0 *
Fa
0  1e-07 5 0

0111000
+47 0 *
Sh

0101000
+46 0 *
Ve
1e-07
-1694.49688006775 11148 14603.2269947309
0 0

0101101
*
Ve
1e-07
-1694.49688006775 11190 14603.2269947309
0 0

0101101
*
Ed
 1e-07 1 1 0
1  23 0 0 42
0

0101000
+44 0 -43 0 *
Ve
1e-07
-1694.49688006775 11190 14498.2269947309
0 0

0101101
*
Ed
 1e-07 1 1 0
1  24 0 0 105
0

0101000
+43 0 -41 0 *
Ve
1e-07
-1694.49688006775 11148 14498.2269947309
0 0

0101101
*
Ed
 1e-07 1 1 0
1  25 0 0 42
0

0101000
+41 0 -39 0 *
Ed
 1e-07 1 1 0
1  26 0 0 105
0

0101000
+39 0 -44 0 *
Wi

0101000
+42 0 +40 0 +38 0 +37 0 *
Fa
0  1e-07 6 0

0111000
+36 0 *
Sh

0101000
+35 0 *
Ve
1e-05
-1547.49688006775 11148 14603.2269947309
0 0

0101101
*
Ed
 1e-07 1 1 0
1  27 0 0 6.28318530717959
2  5 7 0 0 6.28318530717959
0

0101000
+33 0 -33 0 *
Ve
1e-05
-1547.49688006775 11190 14603.2269947309
0 0

0101101
*
Ed
 1e-05 1 1 0
1  28 0 -42 0
3  6 7CN 7 0 -42 0
0

0101000
-33 0 +31 0 *
Ed
 1e-07 1 1 0
1  29 0 0 6.28318530717959
2  8 7 0 0 6.28318530717959
0

0101000
+31 0 -31 0 *
Wi

0101100
+32 0 -30 0 +29 0 +30 0 *
Fa
0  1e-07 7 0

0111000
+28 0 *
Sh

0101000
+27 0 *
Ve
1e-05
-1599.99588006775 11169 14603.2269947309
0 0

0101101
*
Ed
 1e-07 1 1 0
1  30 0 0 1.81898940354586e-09
2  9 8 0 0 1.81898940354586e-09
0

0101000
+25 0 -25 0 *
Wi

0101100
+24 0 *
Fa
0  1e-07 8 0

0111000
+23 0 *
Sh

0101000
+22 0 *
Ve
1e-05
-667.381563757756 11169 16603.2269947309
0 0

0101101
*
Ed
 1e-07 1 1 0
1  31 0 0 6.28318530717959
2  10 8 0 0 6.28318530717959
0

0101000
+20 0 -20 0 *
Ed
 1e-05 1 1 0
1  32 0 -4413.51556302115 -2206.76014771424
3  11 12CN 8 0 -4413.51556302115 -2206.76014771424
0

0101000
+20 0 -25 0 *
Ed
 1e-07 1 1 0
1  30 0 1.81898940354586e-09 6.28318530717959
2  13 8 0 1.81898940354586e-09 6.28318530717959
0

0101000
+25 0 -25 0 *
Wi

0101100
+19 0 +18 0 +17 0 -18 0 *
Fa
0  1e-07 8 0

0111000
+16 0 *
Sh

0101000
+15 0 *
Co

0100000
+21 0 +14 0 *
Ve
1e-07
-667.381563757756 11169 16603.2269947309
0 0

0101101
*
Ed
 1e-07 1 1 0
1  33 0 0 1
0

0101000
+12 0 -12 0 *
Wi

0101000
+11 0 *
Fa
0  1e-07 9 0

0111000
+10 0 *
Sh

0101000
+9 0 *
Ve
1e-07
-1599.99588006775 11169 14603.2269947309
0 0

0101101
*
Ed
 1e-07 1 1 0
1  34 0 0 1
0

0101000
+7 0 -7 0 *
Wi

0101000
+6 0 *
Fa
0  1e-07 10 0

0111000
+5 0 *
Sh

0101000
+4 0 *
Co

0100000
+92 0 +78 0 +67 0 +56 0 +45 0 +34 0 +26 0 +13 0 +8 0 +3 0 
*
Co

1100000
+2 0 *

+1 0 
0

