DBRep_DrawableShape

CASCADE Topology V1, (c) Matra-Datavision
Locations 0
Curve2ds 90
1 1 0 0 -1 
1 0 0 0 1 
1 0 0 1 0 
2 0.90000000000000002 -0.90000000000000002 1 0 0 -1 0.10000000000000001
1 0 0 1 0 
1 0 0 1 0 
1 0 -1 1 0 
1 0 0 1 0 
1 0 0 0 -1 
1 0 0 0 1 
1 0 0 0 1 
1 0.5 0.5 0 1 
1 0 0 0 -1 
1 0 0 0 1 
1 0 0.90000000000000002 1 0 
1 0 0 0 1 
1 0 0 1 0 
1 0.5 0.5 1 0 
1 1 0 0 -1 
1 1 0 0 1 
1 1 0 0 1 
1 0 0 1 0 
1 1.5707963267948966 0 0 1 
1 0.90000000000000002 0 0 1 
1 0 0.5 1 0 
2 -0.099999999999999992 -0.40000000000000002 1 0 0 -1 0.10000000000000001
1 0 0 0 1 
1 0 0 1 0 
1 0 0 1 0 
1 0 1 1 0 
1 0 0 0 1 
1 0 1 1 0 
1 0.5 0.5 -1 0 
1 -0.5 -0.5 -1 -0 
1 0 -1 1 0 
1 0 1 1 0 
1 1 0 0 1 
1 0 1 1 0 
1 -0.5 0.5 1 0 
1 0 0 0 -1 
1 1 0 0 1 
1 0 0 1 0 
1 0 0 1 0 
1 0 0 0 1 
1 1 0 0 -1 
1 0 0 1 0 
1 0 -1 1 0 
1 0 0 1 0 
1 0 1 1 0 
1 1 0 0 1 
1 0 0 1 0 
1 0.5 -0.5 0 1 
1 0 0 0 1 
1 0 1 1 0 
1 0 0 0 -1 
1 1 0 0 1 
1 1 0 0 1 
1 0 1 1 0 
1 0 0 0 -1 
1 0 0 0 1 
1 0.5 0.5 0 1 
1 0 0 0 1 
1 0 0 1 0 
1 0.5 0.5 1 0 
1 1 0 0 -1 
1 1 0 0 1 
1 0 -1 1 0 
1 0 1 1 0 
1 -0.5 0.5 1 0 
1 0.5 -0.5 0 1 
1 0 0 1 0 
1 0 0 1 0 
1 1 0 0 -1 
1 0 0 0 1 
1 0 -1 1 0 
1 0 0 1 0 
1 0 0 1 0 
1 0 1 1 0 
1 1 0 0 1 
1 0 0 1 0 
1 0 0 0 1 
1 0 1 1 0 
1 0 0 0 -1 
1 1 0 0 1 
1 1 0 0 1 
1 0 1 1 0 
1 1 0 0 -1 
1 1 0 0 1 
1 0 -1 1 0 
1 0 1 1 0 
Curves 41
1 -0.5 -0.5 0 -0 1 0 
8 0 1.5707963267948966
2 -0.5 0.40000000000000002 -0.099999999999999992 -1 -0 0 0 0 1 -0 1 0 0.10000000000000001
1 -0.5 -0.5 -1 0 0 1 
1 -0.5 0.5 -1 0 0 1 
1 -0.5 -0.5 -1 -0 1 0 
1 0 0 0 -0 1 0 
1 -0.5 0.40000000000000002 1.3877787807814457e-017 1 0 -0 
1 0 0 0 1 0 -0 
1 0.5 -0.5 0 -0 1 0 
1 -0.5 -0.5 0 1 0 -0 
1 -0.5 0.5 -0.099999999999999992 1 0 -0 
8 0 1.5707963267948966
2 0 0.40000000000000002 -0.099999999999999992 -1 -0 0 0 0 1 -0 1 0 0.10000000000000001
1 -0.5 -0.5 -1 1 0 -0 
1 0.5 -0.5 -1 0 0 1 
1 -0.5 0.5 -1 1 0 -0 
8 -0.5 -0.40000000000000002
1 0 0.5 -0.5 -0 0 -1 
1 0.5 0.5 -1 0 0 1 
1 -0.5 0.5 0 1 0 -0 
1 0.5 -0.5 -1 -0 1 0 
1 0 0 0 0 0 1 
1 0 0 1 -0 1 0 
1 0 1 0 0 0 1 
1 1 0 0 0 0 1 
1 0 0 1 1 0 -0 
1 0 1 0 1 0 -0 
1 1 0 0 -0 1 0 
1 0 1 1 1 0 -0 
1 0.5 0.5 1 -0 1 0 
1 0.5 0.5 1 1 0 -0 
1 1 0 1 -0 1 0 
1 1 1 0 0 0 1 
1 0.5 0.5 1 0 0 1 
1 0.5 0.5 2 -0 1 0 
1 0.5 1.5 1 0 0 1 
1 1.5 0.5 1 0 0 1 
1 0.5 0.5 2 1 0 -0 
1 0.5 1.5 1 1 0 -0 
1 1.5 0.5 1 -0 1 0 
1 0.5 1.5 2 1 0 -0 
1 1.5 0.5 2 -0 1 0 
1 1.5 1.5 1 0 0 1 
Polygon3D 0
PolygonOnTriangulations 54
2 1 2 
p 0.00412310596516754 1 0 1 
2 1 4 
p 0.00412310596516754 1 0 1 
2 1 4 
p 0.00412344517606334 1 0 0.5 
2 3 4 
p 0.00412310596516754 1 0 0.5 
2 6 4 
p 0.00412344517606334 1 0 0.5 
2 5 4 
p 0.00412310596516754 1 0 0.5 
2 1 4 
p 0.00173205115397904 1 0 1 
2 6 5 
p 0.00412310596516754 1 0 1 
2 11 10 
p 0.00412344517606334 1 0 1 
2 1 10 
p 0.00412344517606334 1 0 1 
2 1 2 
p 0.00173205115397904 1 0 1 
2 10 2 
p 0.00412344517606334 1 0 1 
2 1 2 
p 0.00173205115397904 1 0 1 
2 1 2 
p 0.00412310596516754 1 0 1 
2 4 3 
p 0.00173205115397904 1 0 1 
2 2 3 
p 0.00173205115397904 1 0 1 
2 2 4 
p 0.00412344517606334 1 0 1 
2 2 3 
p 0.00412310596516754 1 0 1 
2 6 4 
p 0.00412344517606334 1 0.5 1 
2 5 3 
p 0.00412310596516754 1 0.5 1 
2 1 4 
p 0.00173205115397904 1 0 1 
2 10 11 
p 0.00412344517606334 1 0 1 
2 1 2 
p 0.00291547629041982 1 0 1 
2 1 4 
p 0.00291547629041982 1 0 1 
2 1 10 
p 0.00412344517606334 1 0 1 
2 1 2 
p 0.00412310596516754 1 0 1 
2 1 2 
p 0.00173205115397904 1 0 1 
2 2 3 
p 0.00291547629041982 1 0 1 
2 10 12 
p 0.00412344517606334 1 0 1 
2 2 3 
p 0.00412310596516754 1 0 1 
2 11 13 
p 0.00412344517606334 1 0.5 1 
2 5 4 
p 0.00412310596516754 1 0.5 1 
2 1 4 
p 0.00173205115397904 1 0 1 
2 4 3 
p 0.00291547629041982 1 0 1 
2 13 12 
p 0.00412344517606334 1 0 1 
2 4 3 
p 0.00412310596516754 1 0 1 
2 1 2 
p 0.00173205115397904 1 0 1 
2 2 3 
p 0.00291547629041982 1 0 1 
2 1 4 
p 0.00173205115397904 1 0 1 
2 4 3 
p 0.00291547629041982 1 0 1 
2 1 2 
p 0.00173205115397904 1 0 1 
2 2 3 
p 0.00291547629041982 1 0 1 
2 1 4 
p 0.00173205115397904 1 0 1 
2 4 3 
p 0.00291547629041982 1 0 1 
2 4 3 
p 0.00173205115397904 1 0 1 
2 2 3 
p 0.00173205115397904 1 0 1 
2 1 2 
p 0.00173205115397904 1 0 1 
2 1 4 
p 0.00173205115397904 1 0 1 
2 2 3 
p 0.00173205115397904 1 0 1 
2 4 3 
p 0.00173205115397904 1 0 1 
2 2 3 
p 0.00173205115397904 1 0 1 
2 4 3 
p 0.00173205115397904 1 0 1 
2 2 3 
p 0.00173205115397904 1 0 1 
2 4 3 
p 0.00173205115397904 1 0 1 
Surfaces 19
1 -0.5 -0.5 -1 1 0 -0 0 0 1 0 -1 0 
1 -0.5 -0.5 0 0 0 1 1 0 -0 -0 1 0 
2 -0.5 0.40000000000000002 -0.099999999999999992 1 0 -0 0 0 1 -0 1 -0 0.10000000000000001
1 -0.5 -0.5 -1 -0 1 0 0 0 1 1 0 -0 
1 -0.5 0.5 -1 -0 1 0 0 0 1 1 0 -0 
1 -0.5 -0.5 -1 0 0 1 1 0 -0 -0 1 0 
1 0 0 0 0 0 1 1 0 -0 -0 1 0 
1 0 0 0 1 0 -0 0 0 1 0 -1 0 
1 0 0 0 -0 1 0 0 0 1 1 0 -0 
1 0.5 -0.5 -1 1 0 -0 0 0 1 0 -1 0 
1 0 0 1 0 0 1 1 0 -0 -0 1 0 
1 0 1 0 -0 1 0 0 0 1 1 0 -0 
1 1 0 0 1 0 -0 0 0 1 0 -1 0 
1 0.5 0.5 1 1 0 -0 0 0 1 0 -1 0 
1 0.5 0.5 1 0 0 1 1 0 -0 -0 1 0 
1 0.5 0.5 1 -0 1 0 0 0 1 1 0 -0 
1 0.5 0.5 2 0 0 1 1 0 -0 -0 1 0 
1 0.5 1.5 1 -0 1 0 0 0 1 1 0 -0 
1 1.5 0.5 1 1 0 -0 0 0 1 0 -1 0 
Triangulations 21
4 2 1 0
-0.5 -0.5 -1 -0.5 -0.5 0 -0.5 0.5 0 -0.5 0.5 -1 0 0 1 0 1 -1 0 -1 2 4 3 2 1 4 
6 4 1 5.59431511413976e-017
0 0 0 0 0.4 1.38777878078145e-017 -0.4 0.4 1.38777878078145e-017 0.5 0 0 -0.4 -0.5 1.38777878078145e-017 0.5 -0.5 0 0.5 0.5 0.5 0.9 0.1 0.9 1 0.5 0.1 0 1 0 1 3 5 6 1 5 2 3 1 4 1 6 
6 4 1 0
-0.5 0.5 0 0 0.5 0 0 0 0 0.5 0 0 0.5 -0.5 0 -0.5 -0.5 0 0 1 0.5 1 0.5 0.5 1 0.5 1 0 0 0 3 6 5 3 1 6 2 1 3 4 3 5 
4 2 1 0
-0.5 -0.5 0 -0.5 0.5 0 0.5 0.5 0 0.5 -0.5 0 0 0 0 1 1 1 1 0 3 2 1 3 1 4 
11 9 1 5.55111512312578e-017
-0.4 -0.5 1.38777878078145e-017 0.5 -0.5 0 -0.5 -0.5 -0.1 -0.497492791218182 -0.5 -0.0777479066043686 -0.490096886790242 -0.5 -0.0566116260882442 -0.478183148246803 -0.5 -0.0376510198141266 -0.462348980185873 -0.5 -0.021816851753197 -0.443388373911756 -0.5 -0.00990311320975808 -0.422252093395631 -0.5 -0.00250720878181764 0.5 -0.5 -1 -0.5 -0.5 -1 1 0.1 1 1 0.9 -2.77555756156289e-017 0.922252093395631 0.00250720878181761 0.943388373911756 0.00990311320975805 0.962348980185873 0.021816851753197 0.978183148246803 0.0376510198141266 0.990096886790242 0.0566116260882441 0.997492791218182 0.0777479066043685 0 1 0 0 10 11 3 1 3 4 1 4 5 1 5 6 1 6 7 1 7 8 1 8 9 1 10 3 2 10 1 
11 9 1 5.55111512312578e-017
-0.5 -0.5 -1 -0.5 0.4 -1 -0.4 0.5 -1 -0.497492791218182 0.422252093395631 -1 -0.490096886790242 0.443388373911756 -1 -0.478183148246803 0.462348980185873 -1 -0.462348980185873 0.478183148246803 -1 -0.443388373911756 0.490096886790242 -1 -0.422252093395631 0.497492791218182 -1 0.5 -0.5 -1 0.5 0.5 -1 0 0 0 0.9 0.1 1 0.00250720878181761 0.922252093395631 0.00990311320975806 0.943388373911756 0.021816851753197 0.962348980185873 0.0376510198141266 0.978183148246803 0.0566116260882442 0.990096886790242 0.0777479066043685 0.997492791218182 1 0 1 1 10 2 1 3 4 2 3 5 4 3 6 5 3 7 6 3 8 7 3 9 8 3 2 10 11 3 10 
4 2 1 0
0.5 -0.5 -1 0.5 -0.5 0 0.5 0.5 0 0.5 0.5 -1 0 0 1 0 1 -1 0 -1 2 4 3 2 1 4 
4 2 1 0
-0.5 0.5 -1 0.5 0.5 -1 0.5 0.5 0 -0.5 0.5 0 0 0 0 1 1 1 1 0 3 2 1 3 1 4 
5 3 1 0
-0.5 0.5 -1 0.5 0.5 -1 0.5 0.5 0 -0.5 0.5 0 0 0.5 0 0 0 0 1 1 1 1 0 1 0.5 5 2 1 5 1 4 3 2 5 
6 4 1 4.16333634234434e-017
-0.4 0.5 -1 0.5 0.5 -1 -0.4 0.5 -0.1 0.5 0.5 0 0 0.5 -0.1 0 0.5 0 0 0.1 0 1 0.9 0.1 1 1 0.9 0.5 1 0.5 5 2 1 5 1 3 4 5 6 4 2 5 
4 2 1 0
0 0 0 0 0 1 0 1 1 0 1 0 0 0 1 0 1 -1 0 -1 2 4 3 2 1 4 
4 2 1 0
0 0 0 1 0 0 1 0 1 0 0 1 0 0 0 1 1 1 1 0 3 2 1 3 1 4 
13 11 1 2.77555756156289e-017
0 0 0 0 0.4 1.38777878078145e-017 0 0.5 -0.1 0 0.422252093395631 -0.00250720878181762 0 0.443388373911756 -0.00990311320975808 0 0.462348980185873 -0.021816851753197 0 0.478183148246803 -0.0376510198141266 0 0.490096886790242 -0.0566116260882442 0 0.497492791218182 -0.0777479066043685 0 0 1 0 0.5 0 0 1 1 0 1 0 0 0 0 -0.4 -0.1 -0.5 -0.00250720878181762 -0.422252093395632 -0.00990311320975808 -0.443388373911756 -0.021816851753197 -0.462348980185873 -0.0376510198141266 -0.478183148246803 -0.0566116260882442 -0.490096886790242 -0.0777479066043685 -0.497492791218182 1 0 0 -0.5 1 -1 0 -1 11 7 8 11 8 9 6 7 11 5 6 11 4 5 11 2 4 11 12 11 13 10 1 2 10 11 12 10 2 11 3 11 9 
5 3 1 0
0 0 0 0 0 1 0 1 1 0 1 0 0 0.5 0 0 0 1 0 1 -1 0 -1 0 -0.5 3 5 4 2 1 5 2 5 3 
4 2 1 0
0 0 1 0 1 1 1 1 1 1 0 1 0 0 0 1 1 1 1 0 3 2 1 3 1 4 
4 2 1 0
0 1 0 1 1 0 1 1 1 0 1 1 0 0 0 1 1 1 1 0 3 2 1 3 1 4 
4 2 1 0
1 0 0 1 0 1 1 1 1 1 1 0 0 0 1 0 1 -1 0 -1 2 4 3 2 1 4 
4 2 1 0
0 0 0 0 1 0 1 1 0 1 0 0 0 0 0 1 1 1 1 0 3 2 1 3 1 4 
4 2 1 0
0.5 0.5 1 0.5 0.5 2 0.5 1.5 2 0.5 1.5 1 0 0 1 0 1 -1 0 -1 2 4 3 2 1 4 
4 2 1 0
0.5 0.5 1 1.5 0.5 1 1.5 0.5 2 0.5 0.5 2 0 0 0 1 1 1 1 0 3 2 1 3 1 4 
4 2 1 0
0.5 0.5 1 0.5 1.5 1 1.5 1.5 1 1.5 0.5 1 0 0 0 1 1 1 1 0 3 2 1 3 1 4 

TShapes 120
Ve
1e-007
-0.5 0.4 1.38777878078145e-017
0 0

0101101
*
Ve
1e-007
-0.5 -0.5 0
0 0

0101101
*
Ed
 1e-007 1 1 0
1  1 0 0 0.9
2  1 1 0 0 0.9
2  2 2 0 0 0.9
0

0101000
-120 0 +119 0 *
Ve
1e-007
-0.5 0.5 -0.1
0 0

0101101
*
Ed
 1e-007 1 1 0
1  2 0 0 1.5707963267949
2  3 3 0 0 1.5707963267949
2  4 1 0 0 1.5707963267949
0

0101000
+120 0 -117 0 *
Ve
1e-007
-0.5 -0.5 -1
0 0

0101101
*
Ed
 1e-007 1 1 0
1  3 0 0 1
2  5 1 0 0 1
2  6 4 0 0 1
6  1 1 0
0

0101000
-119 0 +115 0 *
Ve
1e-007
-0.5 0.5 -1
0 0

0101101
*
Ed
 1e-007 1 1 0
1  4 0 0 0.9
2  7 1 0 0 0.9
2  8 5 0 0 0.9
0

0101000
-117 0 +113 0 *
Ed
 1e-007 1 1 0
1  5 0 0 1
2  9 1 0 0 1
2  10 6 0 0 1
6  2 1 0
0

0101000
-113 0 +115 0 *
Wi

0101100
-118 0 -116 0 -114 0 +112 0 +111 0 *
Fa
0  1e-007 1 0

0101000
+110 0 *
Ve
1e-007
0 0.4 1.38777878078145e-017
0 0

0101101
*
Ve
2.12133034355964e-007
0 0 0
0 0

0101101
*
Ed
 1e-007 1 1 0
1  6 0 0 0.4
2  11 7 0 0 0.4
2  12 2 0 0 0.4
2  13 8 0 0 0.4
0

0101000
-108 0 +107 0 *
Ed
 1e-007 1 1 0
1  7 0 0 0.5
2  14 3 0 0 0.5
2  15 2 0 0 0.5
4 G1 3 0 2 0
0

0101000
+120 0 -108 0 *
Ve
2.12133034355964e-007
0.5 0 0
0 0

0101101
*
Ed
 1e-007 1 1 0
1  8 0 0 0.5
2  16 9 0 0 0.5
2  17 7 0 0 0.5
2  18 2 0 0 0.5
6  3 2 0
6  4 3 0
0

0101000
+107 0 -104 0 *
Ve
1e-007
0.5 -0.5 0
0 0

0101101
*
Ed
 1e-007 1 1 0
1  9 0 0 0.5
2  19 10 0 0 0.5
2  20 2 0 0 0.5
6  5 2 0
6  6 3 0
0

0101000
+102 0 -104 0 *
Ed
 1e-007 1 1 0
1  10 0 0 1
2  21 4 0 0 1
2  22 2 0 0 1
6  7 4 0
6  8 3 0
0

0101000
-102 0 +119 0 *
Wi

0101100
+106 0 -105 0 -103 0 -118 0 +101 0 +100 0 *
Fa
0  1e-007 2 0

0101000
+99 0 *
Ve
0.0001
0 0.5 -0.1
0 0

0101101
*
Ed
 1e-007 1 1 0
1  11 0 0 0.5
2  23 3 0 0 0.5
2  24 5 0 0 0.5
4 G1 3 0 5 0
0

0101000
+117 0 -97 0 *
Ed
 1e-007 1 1 0
1  12 0 0 1.5707963267949
2  25 3 0 0 1.5707963267949
2  26 8 0 0 1.5707963267949
0

0101000
+108 0 -97 0 *
Wi

0101100
+116 0 -105 0 +96 0 -95 0 *
Fa
0  0 3 0

0101000
+94 0 *
Ve
1e-007
0.5 -0.5 -1
0 0

0101101
*
Ed
 1e-007 1 1 0
1  13 0 0 1
2  27 4 0 0 1
2  28 6 0 0 1
6  9 5 0
6  10 6 0
0

0101000
-92 0 +115 0 *
Ed
 1e-007 1 1 0
1  14 0 0 1
2  29 10 0 0 1
2  30 4 0 0 1
6  11 7 0
6  12 5 0
0

0101000
-102 0 +92 0 *
Wi

0101100
-91 0 -90 0 +100 0 +114 0 *
Fa
0  1e-007 4 0

0101000
+89 0 *
Ve
1e-007
0.5 0.5 -1
0 0

0101101
*
Ed
 1e-007 1 1 0
1  15 0 0 1
2  31 5 0 0 1
2  32 6 0 0 1
6  13 8 0
6  14 9 0
0

0101000
-87 0 +113 0 *
Ve
0.0001
0 0.5 0
0 0

0101101
*
Ed
 0.0001 1 1 0
1  16 0 -0.5 -0.4
2  33 5 0 -0.5 -0.4
2  34 8 0 -0.5 -0.4
0

0101000
+85 0 -97 0 *
Ve
2.12133034355964e-007
0.5 0.5 0
0 0

0101101
*
Ed
 1e-007 1 1 0
1  17 0 0 1
2  35 10 0 0 1
2  36 5 0 0 1
6  15 7 0
6  16 8 0
6  17 10 0
6  18 9 0
0

0101000
-83 0 +87 0 *
Ed
 1e-007 1 1 0
1  18 0 0.5 1
2  37 5 0 0.5 1
2  38 2 0 0.5 1
2  39 7 0 0.5 1
6  19 10 0
6  20 9 0
0

0101000
+85 0 -83 0 *
Wi

0101100
+112 0 +96 0 -86 0 -84 0 -82 0 +81 0 *
Fa
0  1e-007 5 0

0101000
+80 0 *
Ed
 1e-007 1 1 0
1  19 0 0 1
2  40 10 0 0 1
2  41 6 0 0 1
6  21 7 0
6  22 6 0
0

0101000
-87 0 +92 0 *
Wi

0101100
-111 0 -86 0 +78 0 +91 0 *
Fa
0  1e-007 6 0

0101000
+77 0 *
Ve
1e-007
0 0 1
0 0

0101101
*
Ed
 1e-007 1 1 0
1  20 0 0 1
2  42 9 0 0 1
6  23 11 0
6  24 12 0
6  25 13 0
6  26 14 0
2  43 8 0 0 1
0

0101000
-75 0 +107 0 *
Ve
1e-007
0 1 1
0 0

0101101
*
Ed
 1e-007 1 1 0
1  21 0 0 1
2  44 11 0 0 1
6  27 15 0
6  28 11 0
6  29 13 0
6  30 14 0
2  45 8 0 0 1
0

0101000
-73 0 +75 0 *
Ve
1e-007
0 1 0
0 0

0101101
*
Ed
 1e-007 1 1 0
1  6 0 0.5 1
2  11 7 0 0.5 1
6  31 13 0
6  32 14 0
2  13 8 0 0.5 1
0

0101000
+85 0 -71 0 *
Ed
 1e-007 1 1 0
1  22 0 0 1
2  46 12 0 0 1
6  33 16 0
6  34 11 0
6  35 13 0
6  36 14 0
2  47 8 0 0 1
0

0101000
-73 0 +71 0 *
Wi

0101100
+106 0 +95 0 -74 0 -84 0 -72 0 +70 0 +69 0 *
Fa
0  1e-007 8 0

0101000
+68 0 *
Ve
1e-007
1 0 0
0 0

0101101
*
Ed
 1e-007 1 1 0
1  8 0 0.5 1
2  16 9 0 0.5 1
2  17 7 0 0.5 1
0

0101000
+104 0 -66 0 *
Ve
1e-007
1 0 1
0 0

0101101
*
Ed
 1e-007 1 1 0
1  23 0 0 1
2  48 13 0 0 1
2  49 9 0 0 1
6  37 17 0
6  38 12 0
0

0101000
-64 0 +66 0 *
Ed
 1e-007 1 1 0
1  24 0 0 1
2  50 9 0 0 1
2  51 11 0 0 1
6  39 15 0
6  40 12 0
0

0101000
-64 0 +75 0 *
Wi

0101100
-103 0 -65 0 -63 0 +62 0 +74 0 *
Fa
0  1e-007 9 0

0101000
+61 0 *
Ed
 1e-007 1 1 0
1  9 0 0.5 1
2  19 10 0 0.5 1
2  20 2 0 0.5 1
2  52 7 0 0.5 1
0

0101000
+104 0 -83 0 *
Wi

0101100
-90 0 -101 0 -59 0 +82 0 +78 0 *
Fa
0  1e-007 10 0

0101000
+58 0 *
Ve
1e-007
1 1 0
0 0

0101101
*
Ed
 1e-007 1 1 0
1  25 0 0 1
2  53 12 0 0 1
2  54 7 0 0 1
6  41 16 0
6  42 18 0
0

0101000
-56 0 +71 0 *
Ed
 1e-007 1 1 0
1  26 0 0 1
2  55 13 0 0 1
2  56 7 0 0 1
6  43 17 0
6  44 18 0
0

0101000
-56 0 +66 0 *
Wi

0101100
-70 0 -55 0 +54 0 +65 0 -59 0 +81 0 *
Fa
0  1e-007 7 0

0101000
+53 0 *
Ve
2.12133034355964e-007
0.5 1 1
0 0

0101101
*
Ed
 1e-007 1 1 0
1  27 0 0 0.5
2  57 12 0 0 0.5
2  58 11 0 0 0.5
0

0101000
+73 0 -51 0 *
Ve
2.12133034355964e-007
0.5 0.5 1
0 0

0101101
*
Ed
 1e-007 1 1 0
1  28 0 0 0.5
2  59 14 0 0 0.5
2  60 15 0 0 0.5
2  61 11 0 0 0.5
0

0101000
+49 0 -51 0 *
Ve
2.12133034355964e-007
1 0.5 1
0 0

0101101
*
Ed
 1e-007 1 1 0
1  29 0 0 0.5
2  62 16 0 0 0.5
2  63 15 0 0 0.5
2  64 11 0 0 0.5
0

0101000
+49 0 -47 0 *
Ed
 1e-007 1 1 0
1  30 0 0 0.5
2  65 13 0 0 0.5
2  66 11 0 0 0.5
0

0101000
+64 0 -47 0 *
Wi

0101100
-50 0 +48 0 -46 0 +45 0 +62 0 -72 0 *
Fa
0  1e-007 11 0

0101000
+44 0 *
Ve
2.12133034355964e-007
1 1 1
0 0

0101101
*
Ed
 1e-007 1 1 0
1  31 0 0 1
2  67 13 0 0 1
2  68 12 0 0 1
6  45 17 0
6  46 16 0
0

0101000
-42 0 +56 0 *
Ed
 1e-007 1 1 0
1  27 0 0.5 1
2  57 12 0 0.5 1
2  58 11 0 0.5 1
2  69 15 0 0.5 1
0

0101000
+51 0 -42 0 *
Wi

0101100
-55 0 -41 0 +50 0 +40 0 +69 0 *
Fa
0  1e-007 12 0

0101000
+39 0 *
Ed
 1e-007 1 1 0
1  30 0 0.5 1
2  65 13 0 0.5 1
2  66 11 0 0.5 1
2  70 15 0 0.5 1
0

0101000
+47 0 -42 0 *
Wi

0101100
-63 0 -45 0 -37 0 +41 0 +54 0 *
Fa
0  1e-007 13 0

0101000
+36 0 *
Ve
1e-007
0.5 0.5 2
0 0

0101101
*
Ed
 1e-007 1 1 0
1  32 0 0 1
2  71 14 0 0 1
2  72 16 0 0 1
6  47 19 0
6  48 20 0
0

0101000
-34 0 +49 0 *
Ve
1e-007
0.5 1.5 2
0 0

0101101
*
Ed
 1e-007 1 1 0
1  33 0 0 1
2  73 14 0 0 1
2  74 17 0 0 1
6  49 19 0
0

0101000
-32 0 +34 0 *
Ve
1e-007
0.5 1.5 1
0 0

0101101
*
Ed
 1e-007 1 1 0
1  34 0 0 1
2  75 14 0 0 1
2  76 18 0 0 1
6  50 19 0
0

0101000
-32 0 +30 0 *
Ed
 1e-007 1 1 0
1  28 0 0.5 1
2  59 14 0 0.5 1
2  60 15 0 0.5 1
0

0101000
+51 0 -30 0 *
Wi

0101100
-33 0 -31 0 +29 0 +48 0 +28 0 *
Fa
0  1e-007 14 0

0101000
+27 0 *
Ve
1e-007
1.5 0.5 1
0 0

0101101
*
Ed
 1e-007 1 1 0
1  29 0 0.5 1
2  62 16 0 0.5 1
2  63 15 0 0.5 1
0

0101000
+47 0 -25 0 *
Ve
1e-007
1.5 0.5 2
0 0

0101101
*
Ed
 1e-007 1 1 0
1  35 0 0 1
2  77 19 0 0 1
2  78 16 0 0 1
6  51 20 0
0

0101000
-23 0 +25 0 *
Ed
 1e-007 1 1 0
1  36 0 0 1
2  79 16 0 0 1
2  80 17 0 0 1
6  52 20 0
0

0101000
-23 0 +34 0 *
Wi

0101100
-46 0 -24 0 -22 0 +21 0 +33 0 *
Fa
0  1e-007 16 0

0101000
+20 0 *
Ve
1e-007
1.5 1.5 1
0 0

0101101
*
Ed
 1e-007 1 1 0
1  37 0 0 1
2  81 18 0 0 1
2  82 15 0 0 1
6  53 21 0
0

0101000
-18 0 +30 0 *
Ed
 1e-007 1 1 0
1  38 0 0 1
2  83 19 0 0 1
2  84 15 0 0 1
6  54 21 0
0

0101000
-18 0 +25 0 *
Wi

0101100
-28 0 -17 0 +16 0 +24 0 -37 0 +40 0 *
Fa
0  1e-007 15 0

0101000
+15 0 *
Ve
1e-007
1.5 1.5 2
0 0

0101101
*
Ed
 1e-007 1 1 0
1  39 0 0 1
2  85 18 0 0 1
2  86 17 0 0 1
0

0101000
-13 0 +32 0 *
Ed
 1e-007 1 1 0
1  40 0 0 1
2  87 19 0 0 1
2  88 17 0 0 1
0

0101000
-13 0 +23 0 *
Wi

0101100
-31 0 -12 0 +11 0 +21 0 *
Fa
0  1e-007 17 0

0101000
+10 0 *
Ed
 1e-007 1 1 0
1  41 0 0 1
2  89 19 0 0 1
2  90 18 0 0 1
0

0101000
-13 0 +18 0 *
Wi

0101100
-17 0 -8 0 +12 0 +29 0 *
Fa
0  1e-007 18 0

0101000
+7 0 *
Wi

0101100
-22 0 -11 0 +8 0 +16 0 *
Fa
0  1e-007 19 0

0101000
+5 0 *
Sh

0101100
-109 0 +98 0 -93 0 -88 0 +79 0 -76 0 -67 0 -60 0 +57 0 -52 0 
+43 0 +38 0 +35 0 -26 0 -19 0 -14 0 +9 0 +6 0 +4 0 *
So

0100000
+3 0 *
Co

1100000
+2 0 *

+1 0 