DBRep_DrawableShape

CASCADE Topology V1, (c) Matra-Datavision
Locations 0
Curve2ds 97
1 0.5 0.5 1 0 
1 -0.5 -0.5 1 0 
1 -1.5707963267948966 0.5 1 0 
2 1.05 0.45000000000000001 1 0 -0 1 0.050000000000000003
1 -1.5707963267948966 0 1 0 
2 1.1000000000000001 0.59999999999999998 1 0 0 -1 0.10000000000000001
1 0 1 1 0 
1 1 0 0 1 
1 -0.5 0.5 1 0 
1 0 -1 1 0 
1 0 0 1 0 
1 0 -1 1 0 
1 0 1 1 0 
1 0 1 1 0 
1 0 0 0 1 
1 0 0 0 1 
1 0.050000000000000044 0 0 -1 
1 0 0 0 1 
1 0.10000000000000009 -0.5 0 -1 
1 0 0 1 0 
1 0 0 1 0 
1 0 -1 1 0 
1 0 0 1 0 
1 1 0 0 -1 
1 0 0 0 1 
1 -1.5707963267948966 0 1 0 
2 0.050000000000000044 -0.049999999999999989 1 0 -0 1 0.050000000000000003
1 1.5707963267948966 0 0 1 
1 0.45000000000000001 0.5 0 1 
1 1.5707963267948966 0 0 1 
1 0.099999999999999978 0.5 0 1 
1 -1.5707963267948966 0.5 1 0 
2 0.10000000000000009 0.099999999999999978 1 0 0 -1 0.10000000000000001
1 0 0 0 1 
1 1 0 0 -1 
1 0.25 0.5 -1 0 
1 0 -0.25 0 -1 
1 1 0 0 1 
1 0 0 1 0 
1 0 0 0 1 
1 0 0 1 0 
1 0.5 0.5 1 0 
1 1 0 0 -1 
1 1 0 0 1 
1 0 0 0 1 
1 0 1 1 0 
1 0 0 0 -1 
1 1 0 0 1 
1 0.5 -0.5 0 1 
1 0 0 1 0 
1 0 0 1 0 
1 0 0 0 1 
1 0.5 0.5 0 1 
1 0 0 0 -1 
1 0 0 1 0 
1 0 1 1 0 
1 0 0 0 -1 
1 1 0 0 1 
1 0 0 0 1 
1 0 0 1 0 
1 1 0 0 -1 
1 1 0 0 1 
1 0.5 -0.5 0 1 
1 1 0 0 1 
1 0 1 1 0 
1 -0.5 0.5 1 0 
1 1 0 0 1 
1 0 0 1 0 
1 0 0 1 0 
1 0 1 1 0 
1 0 -1 1 0 
1 0 1 1 0 
1 1 0 0 1 
1 0 1 1 0 
1 1 0 0 -1 
1 1 0 0 1 
1 0.5 0.5 1 0 
1 1 0 0 1 
1 0 0 1 0 
1 1 0 0 -1 
1 0 0 0 1 
1 0 0 1 0 
1 0 1 1 0 
1 0 -1 1 0 
1 0 1 1 0 
1 0 0 0 -1 
1 1 0 0 1 
1 0 0 0 1 
1 0 1 1 0 
1 0 -1 1 0 
1 0 0 1 0 
1 0 0 0 1 
1 0 0 1 0 
1 0 0 1 0 
1 0 0 1 0 
1 0 0 0 -1 
1 0 0 0 1 
Curves 45
8 0.5 0.60000000000000009
1 0.5 1 0.5 0 0 1 
8 1.5707963267948966 3.1415926535897931
2 0.45000000000000001 1 1.05 -0 1 0 0 0 1 1 0 -0 0.050000000000000003
8 1.5707963267948966 3.1415926535897931
2 0.59999999999999998 1 1.1000000000000001 0 -1 -0 0 0 1 -1 -0 0 0.10000000000000001
1 0 1 1 1 0 -0 
1 0 1 0 0 0 1 
1 1 1 0 0 0 1 
1 0 1 0 1 0 -0 
1 0.5 0.5 1.05 -0 1 0 
1 0.5 1 1.1000000000000001 -0 1 0 
1 0.5 0.5 1 0 0 1 
1 0.5 1.5 1 0 0 1 
1 0.5 0.5 2 -0 1 0 
8 1.5707963267948966 3.1415926535897931
2 0.45000000000000001 0.5 1.05 -0 1 0 0 0 1 1 0 -0 0.050000000000000003
1 0.45000000000000001 0.5 1 -0 1 0 
1 0.59999999999999998 1 1 -0 1 0 
8 1.5707963267948966 3.1415926535897931
2 0.59999999999999998 1.5 1.1000000000000001 0 -1 -0 0 0 1 -1 -0 0 0.10000000000000001
1 0 0 1 -0 1 0 
8 -0.25 -0.20000000000000001
1 0.25 0.5 1 -1 -0 0 
1 0 0 1 1 0 -0 
1 0.5 0.5 1 1 0 -0 
1 1 0 1 -0 1 0 
1 0.5 1.5 1 1 0 -0 
1 1.5 0.5 1 -0 1 0 
1 0 0 0 0 0 1 
1 0 0 0 -0 1 0 
1 1 0 0 0 0 1 
1 1 0 0 -0 1 0 
1 0 0 0 1 0 -0 
1 0.5 -0.5 0 -0 1 0 
1 -0.5 0.5 0 1 0 -0 
1 0.5 0.5 2 1 0 -0 
1 1.5 0.5 1 0 0 1 
1 1.5 1.5 1 0 0 1 
1 0.5 1.5 2 1 0 -0 
1 1.5 0.5 2 -0 1 0 
1 -0.5 -0.5 0 1 0 -0 
1 -0.5 -0.5 0 -0 1 0 
1 0.5 -0.5 -1 0 0 1 
1 0.5 0.5 -1 0 0 1 
1 0.5 -0.5 -1 -0 1 0 
1 -0.5 0.5 -1 1 0 -0 
1 -0.5 0.5 -1 0 0 1 
1 -0.5 -0.5 -1 1 0 -0 
1 -0.5 -0.5 -1 0 0 1 
1 -0.5 -0.5 -1 -0 1 0 
Polygon3D 0
PolygonOnTriangulations 85
8 3 4 5 6 7 8 9 1 
p 0.00412524100607039 1 1.5707963267949 1.79519580205131 2.01959527730772 2.24399475256414 2.46839422782055 2.69279370307697 2.91719317833338 3.14159265358979 
2 1 2 
p 0.00412524100607039 1 0.6 1 
2 1 4 
p 0.00173205115397904 1 0 1 
2 4 3 
p 0.00291547629041982 1 0 1 
2 13 12 
p 0.00412344517606334 1 0 1 
2 1 4 
p 0.00412310596516754 1 0 1 
2 12 13 
p 0.00412524100607039 1 0 1 
2 4 3 
p 0.00173205115397904 1 0 1 
2 2 3 
p 0.00173205115397904 1 0 1 
2 2 10 
p 20.6745691448814 1 0 1 
2 2 3 
p 0.00412310596516754 1 0 1 
2 10 2 
p 0.00412524100607039 1 0 1 
2 1 2 
p 0.00173205115397904 1 0 1 
2 2 3 
p 0.00291547629041982 1 0 1 
2 1 2 
p 0.00412310596516754 1 0 1 
2 12 10 
p 0.00412524100607039 1 0 1 
2 3 1 
p 0.00412524100607039 1 -0 0.5 
2 1 2 
p 0.00412524100607039 1 0.1 1 
2 2 3 
p 0.00173205115397904 1 0 1 
2 2 3 
p 0.00412310596516754 1 0 1 
2 4 2 
p 0.00416284248518868 1 0 1 
2 4 2 
p 0.00412524100607039 1 0 1 
2 1 2 
p 0.00173205115397904 1 0 1 
2 2 3 
p 0.00291547629041982 1 0 1 
2 10 12 
p 0.00412344517606334 1 0 1 
2 2 4 
p 20.6745691448814 1 0 1 
2 4 1 
p 0.00416284248518868 1 0 1 
2 6 1 
p 0.00412524100607039 1 0 1 
2 1 4 
p 0.00173205115397904 1 0 1 
2 4 3 
p 0.00291547629041982 1 0 1 
2 2 10 
p 20.6745691448814 1 0 1 
2 4 6 
p 0.00416284248518868 1 0 1 
2 6 5 
p 0.00412524100607039 1 0 1 
2 5 7 
p 0.00416284248518868 1 0 0.5 
2 11 13 
p 0.00416284248518868 1 0 0.5 
2 3 4 
p 0.00412524100607039 1 0 0.5 
2 1 2 
p 0.00412524100607039 1 0 0.5 
2 6 7 
p 0.00416284248518868 1 0 0.5 
2 5 4 
p 0.00412524100607039 1 0 0.5 
2 4 3 
p 0.00173205115397904 1 0 1 
2 4 3 
p 0.00412310596516754 1 0 1 
2 5 4 
p 0.00412310596516754 1 0.5 1 
2 13 12 
p 0.00416284248518868 1 0.5 1 
2 2 3 
p 0.00412524100607039 1 0.5 1 
2 5 6 
p 0.00412310596516754 1 0.5 1 
2 1 2 
p 0.00291547629041982 1 0 1 
2 1 4 
p 0.00291547629041982 1 0 1 
2 1 10 
p 0.00412344517606334 1 0 1 
2 11 13 
p 0.00412344517606334 1 0.5 1 
2 1 2 
p 0.00173205115397904 1 0 1 
2 2 3 
p 0.00291547629041982 1 0 1 
2 12 10 
p 20.6745691448814 1 0 1 
2 1 4 
p 0.00173205115397904 1 0 1 
2 4 3 
p 0.00291547629041982 1 0 1 
2 13 12 
p 20.6745691448814 1 0.5 1 
2 6 4 
p 0.00412344517606334 1 0.5 1 
2 4 3 
p 0.00173205115397904 1 0 1 
2 2 10 
p 0.00416284248518868 1 0 1 
2 5 4 
p 0.00412524100607039 1 0 1 
2 2 3 
p 0.00173205115397904 1 0 1 
2 12 10 
p 0.00416284248518868 1 0 1 
2 3 4 
p 0.00412524100607039 1 0 1 
2 2 3 
p 0.00412310596516754 1 0 1 
2 4 3 
p 0.00412310596516754 1 0 1 
2 1 4 
p 0.00412344517606334 1 0 0.5 
2 15 13 
p 20.6745691448814 1 0 0.5 
2 11 13 
p 20.6745691448814 1 0 0.5 
2 6 4 
p 0.00412344517606334 1 0 0.5 
2 4 13 
p 20.6745691448814 1 0 0.5 
2 1 4 
p 0.00173205115397904 1 0 1 
2 1 4 
p 20.6745691448814 1 0 1 
2 1 2 
p 0.00173205115397904 1 0 1 
2 1 2 
p 0.00173205115397904 1 0 1 
2 10 2 
p 0.00412344517606334 1 0 1 
2 4 3 
p 0.00173205115397904 1 0 1 
2 2 3 
p 0.00173205115397904 1 0 1 
2 2 4 
p 0.00412344517606334 1 0 1 
2 1 4 
p 0.00173205115397904 1 0 1 
2 10 11 
p 0.00412344517606334 1 0 1 
2 1 2 
p 0.00173205115397904 1 0 1 
2 1 4 
p 0.00173205115397904 1 0 1 
2 11 10 
p 0.00412344517606334 1 0 1 
2 1 10 
p 0.00412344517606334 1 0 1 
2 10 1 
p 20.6745691448814 1 0 1 
2 10 11 
p 20.6745691448814 1 0 1 
Surfaces 20
1 0 1 0 -0 1 0 0 0 1 1 0 -0 
1 0.5 0.5 1 1 0 -0 0 0 1 0 -1 0 
2 0.45000000000000001 0.5 1.05 -0 1 0 1 0 -0 -0 0 -1 0.050000000000000003
2 0.59999999999999998 1 1.1000000000000001 -0 1 0 -1 -0 0 -0 -0 -1 0.10000000000000001
1 0 0 1 0 0 1 1 0 -0 -0 1 0 
1 0.5 0.5 1 0 0 1 1 0 -0 -0 1 0 
1 0 0 0 1 0 -0 0 0 1 0 -1 0 
1 1 0 0 1 0 -0 0 0 1 0 -1 0 
1 0 0 0 0 0 1 1 0 -0 -0 1 0 
1 0.5 0.5 1 -0 1 0 0 0 1 1 0 -0 
1 0.5 1.5 1 -0 1 0 0 0 1 1 0 -0 
1 0.5 0.5 2 0 0 1 1 0 -0 -0 1 0 
1 0 0 0 -0 1 0 0 0 1 1 0 -0 
1 1.5 0.5 1 1 0 -0 0 0 1 0 -1 0 
1 -0.5 -0.5 0 0 0 1 1 0 -0 -0 1 0 
1 0.5 -0.5 -1 1 0 -0 0 0 1 0 -1 0 
1 -0.5 0.5 -1 -0 1 0 0 0 1 1 0 -0 
1 -0.5 -0.5 -1 -0 1 0 0 0 1 1 0 -0 
1 -0.5 -0.5 -1 1 0 -0 0 0 1 0 -1 0 
1 -0.5 -0.5 -1 0 0 1 1 0 -0 -0 1 0 
Triangulations 33
13 11 1 1.0842021724855e-016
0.6 1 1 1 1 1 0.5 1 1.1 0.502507208781818 1 1.07774790660437 0.509903113209758 1 1.05661162608824 0.521816851753197 1 1.03765101981413 0.537651019814127 1 1.0218168517532 0.556611626088244 1 1.00990311320976 0.577747906604368 1 1.00250720878182 1 1 0 0.5 1 1 0 1 0 0 1 1 1 0.6 1 1 1.1 0.5 1.07774790660437 0.502507208781818 1.05661162608824 0.509903113209758 1.03765101981413 0.521816851753197 1.0218168517532 0.537651019814127 1.00990311320976 0.556611626088244 1.00250720878182 0.577747906604368 0 1 1 0.5 0 0 1 0 11 10 12 11 12 13 7 11 6 8 11 7 5 6 11 9 11 8 4 5 11 1 10 11 1 11 9 2 10 1 11 3 4 
4 2 1 0
0 1 0 1 1 0 1 1 1 0 1 1 0 0 0 1 1 1 1 0 3 2 1 3 1 4 
4 2 1 0
0 0 0 0 0 1 0 1 1 0 1 0 0 0 1 0 1 -1 0 -1 2 4 3 2 1 4 
13 11 1 2.77555756156289e-017
0 0 0 0 0.4 1.38777878078145e-017 0 0.5 -0.1 0 0.422252093395631 -0.00250720878181762 0 0.443388373911756 -0.00990311320975808 0 0.462348980185873 -0.021816851753197 0 0.478183148246803 -0.0376510198141266 0 0.490096886790242 -0.0566116260882442 0 0.497492791218182 -0.0777479066043685 0 0 1 0 0.5 0 0 1 1 0 1 0 0 0 0 -0.4 -0.1 -0.5 -0.00250720878181762 -0.422252093395632 -0.00990311320975808 -0.443388373911756 -0.021816851753197 -0.462348980185873 -0.0376510198141266 -0.478183148246803 -0.0566116260882442 -0.490096886790242 -0.0777479066043685 -0.497492791218182 1 0 0 -0.5 1 -1 0 -1 11 7 8 11 8 9 6 7 11 5 6 11 4 5 11 2 4 11 12 11 13 10 1 2 10 11 12 10 2 11 3 11 9 
5 3 1 0
0 1 0 1 1 0 1 1 1 0 1 1 0.5 1 1 0 0 0 1 1 1 1 0 1 0.5 5 2 1 5 1 4 3 2 5 
4 2 1 0
1 0 0 1 0 1 1 1 1 1 1 0 0 0 1 0 1 -1 0 -1 2 4 3 2 1 4 
12 10 1 2.77555756156289e-017
0.1 1 -1.38777878078145e-017 1 1 0 -1.38777878078145e-017 1 0.1 0.00250720878181762 1 0.0777479066043686 0.00990311320975808 1 0.0566116260882442 0.021816851753197 1 0.0376510198141266 0.0376510198141266 1 0.021816851753197 0.0566116260882442 1 0.00990311320975808 0.0777479066043685 1 0.00250720878181762 1 1 1 0 1 1 0.5 1 1 0 0.1 0 1 0.1 -1.38777878078145e-017 0.0777479066043686 0.00250720878181762 0.0566116260882442 0.00990311320975808 0.0376510198141266 0.021816851753197 0.021816851753197 0.0376510198141266 0.00990311320975808 0.0566116260882442 0.00250720878181762 0.0777479066043685 1 1 1 0 1 0.5 1 4 3 1 5 4 1 6 5 1 7 6 1 8 7 1 9 8 12 2 1 12 3 11 12 1 3 10 2 12 
4 2 1 0
0 0 0 0 1 0 1 1 0 1 0 0 0 0 0 1 1 1 1 0 3 2 1 3 1 4 
6 4 1 0
0.5 1.5 1.1 0.5 1.5 2 0.5 1 1.1 0.5 0.5 2 0.5 1 1 0.5 0.5 1 0.1 -1 1 -1 0.1 -0.5 1 0 0 -0.5 0 0 2 3 1 6 5 3 4 6 3 4 3 2 
4 2 1 0
0.5 0.5 1 0.5 0.5 2 0.5 1.5 2 0.5 1.5 1 0 0 1 0 1 -1 0 -1 2 4 3 2 1 4 
5 3 1 0
0.5 0.5 1 0.5 0.5 2 0.5 1.5 2 0.5 1.5 1 0.5 1 1 0 0 1 0 1 -1 0 -1 0 -0.5 3 5 4 2 1 5 2 5 3 
4 2 1 1.11022302462516e-016
0.5 1.5 1.2 0.5 1.5 2 0.5 0.5 1.2 0.5 0.5 2 0.2 -1 1 -1 0.2 0 1 0 4 1 2 4 3 1 
4 2 1 0
0 0 1 0 1 1 1 1 1 1 0 1 0 0 0 1 1 1 1 0 3 2 1 3 1 4 
24 22 1 1.05004518624757e-016
1.38777878078145e-017 0 0.1 0 0 1 1.38777878078145e-017 0.031519404878031 0.1 0 1 1 -2.77555756156289e-017 0.909901951359279 0.1 0 0.896177224070509 0.1 0 0.88245249678174 0.1 0 0.86872776949297 0.1 0 0.855003042204201 0.1 0 0.841278314915431 0.1 0 0.827553587626662 0.1 0 0.813828860337892 0.1 0 0.800104133049123 0.1 0 0.786379405760353 0.1 0 0.772654678471584 0.1 0 0.758929951182814 0.1 0 0.745205223894045 0.1 0 0.731480496605275 0.1 0 0.717755769316506 0.1 0 0.690306314738967 0.1 0 0.635407405583889 0.1 0 0.580508496428811 0.1 0 0.470710678118655 0.1 -1.38777878078145e-017 1 0.1 0.1 0 1 0 0.1 -0.031519404878031 1 -1 0.1 -0.909901951359279 0.1 -0.896177224070509 0.1 -0.88245249678174 0.1 -0.86872776949297 0.1 -0.855003042204201 0.1 -0.841278314915431 0.1 -0.827553587626662 0.1 -0.813828860337892 0.1 -0.800104133049123 0.1 -0.786379405760353 0.1 -0.772654678471584 0.1 -0.758929951182814 0.1 -0.745205223894045 0.1 -0.731480496605275 0.1 -0.717755769316506 0.1 -0.690306314738967 0.1 -0.635407405583889 0.1 -0.580508496428811 0.1 -0.470710678118655 0.1 -1 4 6 5 4 7 6 4 8 7 4 9 8 4 10 9 4 11 10 4 12 11 4 13 12 4 14 13 4 15 14 4 16 15 4 17 16 4 18 17 4 19 18 4 20 19 4 21 20 4 22 21 4 23 22 4 5 24 2 1 3 2 3 23 2 23 4 
7 5 1 0
0 1 1 0.3 1 1 0.3 0.5 1 0 0 1 0.5 0.5 1 1 0 1 1 0.5 1 0 1 0.3 1 0.3 0.5 0 0 0.5 0.5 1 0 1 0.5 5 3 4 1 4 3 6 5 4 2 1 3 7 5 6 
6 4 1 0
0 1 1 0.5 1 1 0.5 0.5 1 1 0.5 1 1 0 1 0 0 1 0 1 0.5 1 0.5 0.5 1 0.5 1 0 0 0 3 6 5 3 1 6 2 1 3 4 3 5 
4 2 1 0
0 0 0 1 0 0 1 0 1 0 0 1 0 0 0 1 1 1 1 0 3 2 1 3 1 4 
13 11 1 1.73472347597681e-018
1.38777878078145e-017 0 0.1 0 0 1 -0.1 0 -1.38777878078145e-017 -0.0777479066043686 0 0.00250720878181762 -0.0566116260882442 0 0.00990311320975808 -0.0376510198141266 0 0.021816851753197 -0.021816851753197 0 0.0376510198141266 -0.00990311320975808 0 0.0566116260882442 -0.00250720878181762 0 0.0777479066043685 1 0 1 0 0 0 1 0 0 0.5 0 0 0.1 0 1 0 -1.38777878078145e-017 -0.1 0.00250720878181762 -0.0777479066043686 0.00990311320975808 -0.0566116260882442 0.021816851753197 -0.0376510198141266 0.0376510198141266 -0.021816851753197 0.0566116260882442 -0.00990311320975808 0.0777479066043685 -0.00250720878181762 1 1 0 0 0 1 0 0.5 11 3 4 11 4 5 11 5 6 7 11 6 8 11 7 9 11 8 13 9 1 13 11 9 2 13 1 10 12 13 10 13 2 
13 11 1 1.2490009027033e-016
0.5 0.5 1.2 0.5 0.5 2 0.3 0.5 1 0.494985582436365 0.5 1.15549581320874 0.480193773580484 0.5 1.11322325217649 0.456366296493606 0.5 1.07530203962825 0.424697960371747 0.5 1.04363370350639 0.386776747823512 0.5 1.01980622641952 0.344504186791263 0.5 1.00501441756364 1.5 0.5 2 0.5 0.5 1 1.5 0.5 1 1 0.5 1 0.2 0 1 0 -5.55111512312578e-017 -0.2 0.155495813208737 -0.00501441756363522 0.113223252176488 -0.0198062264195161 0.0753020396282533 -0.043633703506394 0.043633703506394 -0.0753020396282532 0.0198062264195161 -0.113223252176488 0.00501441756363522 -0.155495813208737 1 1 0 0 0 1 0 0.5 11 8 7 11 9 8 11 3 9 6 11 7 5 11 6 4 11 5 13 4 1 13 11 4 2 13 1 10 12 13 10 13 2 
5 3 1 0
0.5 0.5 1 1 0.5 1 1.5 0.5 1 1.5 0.5 2 0.5 0.5 2 0 0 0 0.5 0 1 1 1 1 0 5 2 1 4 3 2 4 2 5 
4 2 1 0
0.5 0.5 1 0.5 1.5 1 1.5 1.5 1 1.5 0.5 1 0 0 0 1 1 1 1 0 3 2 1 3 1 4 
6 4 1 0
0.5 1 1 0.5 1.5 1 1.5 1.5 1 1.5 0.5 1 1 0.5 1 1 1 1 0 0.5 0 1 1 1 1 0 0.5 0 0.5 0.5 6 2 1 6 5 4 3 2 6 3 6 4 
6 4 1 4.16333634234434e-017
-0.4 0.5 -1 0.5 0.5 -1 -0.4 0.5 -0.1 0.5 0.5 0 0 0.5 -0.1 0 0.5 0 0 0.1 0 1 0.9 0.1 1 1 0.9 0.5 1 0.5 5 2 1 5 1 3 4 5 6 4 2 5 
4 2 1 0
0.5 0.5 1 1.5 0.5 1 1.5 0.5 2 0.5 0.5 2 0 0 0 1 1 1 1 0 3 2 1 3 1 4 
4 2 1 0
0.5 1.5 1 1.5 1.5 1 1.5 1.5 2 0.5 1.5 2 0 0 0 1 1 1 1 0 3 2 1 3 1 4 
6 4 1 5.59431511413976e-017
0 0 0 0 0.4 1.38777878078145e-017 -0.4 0.4 1.38777878078145e-017 0.5 0 0 -0.4 -0.5 1.38777878078145e-017 0.5 -0.5 0 0.5 0.5 0.5 0.9 0.1 0.9 1 0.5 0.1 0 1 0 1 3 5 6 1 5 2 3 1 4 1 6 
15 13 1 5.59431511413976e-017
-0.5 -0.5 0 -0.5 0.4 1.38777878078145e-017 -0.468480595121969 0.4 1.38777878078145e-017 0.5 -0.5 0 -0.1 0.031519404878031 -2.77555756156289e-017 -0.111643642454395 0.12752885647231 0 -0.14256605795828 0.208906784423903 0 -0.186410495253031 0.273868372558696 0 -0.243561286554877 0.327493677903796 0 -0.31114986625202 0.367173450744935 0 -0.385694771413648 0.391416703864436 0 -0.426861670217127 0.397880293512998 0 0.5 0 0 -0.1 0 -1.38777878078145e-017 0 0 0 0 0 0 0.9 0.031519404878031 0.9 1 0 0.4 0.531519404878031 0.388356357545605 0.62752885647231 0.35743394204172 0.708906784423903 0.313589504746969 0.773868372558696 0.256438713445123 0.827493677903796 0.18885013374798 0.867173450744935 0.114305228586352 0.891416703864436 0.0731383297828726 0.897880293512998 1 0.5 0.4 0.5 0.5 0.5 2 1 14 3 14 5 3 2 14 12 3 5 15 1 4 15 14 1 6 11 12 6 12 5 10 11 6 7 10 6 9 10 7 8 9 7 13 15 4 
4 2 1 0
-0.5 -0.5 0 -0.5 0.5 0 0.5 0.5 0 0.5 -0.5 0 0 0 0 1 1 1 1 0 3 2 1 3 1 4 
4 2 1 0
0.5 -0.5 -1 0.5 -0.5 0 0.5 0.5 0 0.5 0.5 -1 0 0 1 0 1 -1 0 -1 2 4 3 2 1 4 
11 9 1 5.55111512312578e-017
-0.4 -0.5 1.38777878078145e-017 0.5 -0.5 0 -0.5 -0.5 -0.1 -0.497492791218182 -0.5 -0.0777479066043686 -0.490096886790242 -0.5 -0.0566116260882442 -0.478183148246803 -0.5 -0.0376510198141266 -0.462348980185873 -0.5 -0.021816851753197 -0.443388373911756 -0.5 -0.00990311320975808 -0.422252093395631 -0.5 -0.00250720878181764 0.5 -0.5 -1 -0.5 -0.5 -1 1 0.1 1 1 0.9 -2.77555756156289e-017 0.922252093395631 0.00250720878181761 0.943388373911756 0.00990311320975805 0.962348980185873 0.021816851753197 0.978183148246803 0.0376510198141266 0.990096886790242 0.0566116260882441 0.997492791218182 0.0777479066043685 0 1 0 0 10 11 3 1 3 4 1 4 5 1 5 6 1 6 7 1 7 8 1 8 9 1 10 3 2 10 1 
4 2 1 0
-0.5 0.5 -1 0.5 0.5 -1 0.5 0.5 0 -0.5 0.5 0 0 0 0 1 1 1 1 0 3 2 1 3 1 4 
11 9 1 5.55111512312578e-017
-0.5 -0.5 -1 -0.5 0.4 -1 -0.4 0.5 -1 -0.497492791218182 0.422252093395631 -1 -0.490096886790242 0.443388373911756 -1 -0.478183148246803 0.462348980185873 -1 -0.462348980185873 0.478183148246803 -1 -0.443388373911756 0.490096886790242 -1 -0.422252093395631 0.497492791218182 -1 0.5 -0.5 -1 0.5 0.5 -1 0 0 0 0.9 0.1 1 0.00250720878181761 0.922252093395631 0.00990311320975806 0.943388373911756 0.021816851753197 0.962348980185873 0.0376510198141266 0.978183148246803 0.0566116260882442 0.990096886790242 0.0777479066043685 0.997492791218182 1 0 1 1 10 2 1 3 4 2 3 5 4 3 6 5 3 7 6 3 8 7 3 9 8 3 2 10 11 3 10 
11 9 1 9.8879238130678e-017
-0.5 -0.5 0 -0.5 0.4 1.38777878078145e-017 -0.5 0.5 -0.1 -0.5 0.422252093395631 -0.00250720878181762 -0.5 0.443388373911756 -0.00990311320975808 -0.5 0.462348980185873 -0.021816851753197 -0.5 0.478183148246803 -0.0376510198141266 -0.5 0.490096886790242 -0.0566116260882442 -0.5 0.497492791218182 -0.0777479066043685 -0.5 -0.5 -1 -0.5 0.5 -1 1 0 1 -0.9 0.9 -1 0.997492791218182 -0.922252093395631 0.990096886790242 -0.943388373911756 0.978183148246803 -0.962348980185873 0.962348980185873 -0.978183148246803 0.943388373911756 -0.990096886790242 0.922252093395632 -0.997492791218182 0 0 0 -1 10 11 3 2 5 4 2 6 5 2 7 6 2 8 7 2 9 8 2 3 9 2 10 3 1 10 2 

TShapes 129
Ve
0.0001
0.5 1 1.05
0 0

0101101
*
Ve
0.0001
0.5 1 1.1
0 0

0101101
*
Ed
 0.0001 1 1 0
1  1 0 0.55 0.6
2  1 1 0 0.55 0.6
2  2 2 0 0.55 0.6
0

0101000
+129 0 -128 0 *
Ve
1e-007
0.45 1 1
0 0

0101101
*
Ed
 1e-007 1 1 0
1  2 0 1.5707963267949 3.14159265358979
2  3 3 0 1.5707963267949 3.14159265358979
2  4 1 0 1.5707963267949 3.14159265358979
0

0101000
+129 0 -126 0 *
Ve
1e-007
0.6 1 1
0 0

0101101
*
Ed
 1e-007 1 1 0
1  3 0 1.5707963267949 3.14159265358979
2  5 4 0 1.5707963267949 3.14159265358979
2  6 1 0 1.5707963267949 3.14159265358979
6  1 1 0
0

0101000
+128 0 -124 0 *
Ve
1e-007
0 1 1
0 0

0101101
*
Ed
 1e-007 1 1 0
1  4 0 0 0.45
2  7 5 0 0 0.45
2  8 1 0 0 0.45
0

0101000
-126 0 +122 0 *
Ve
2.12133034355964e-007
1 1 1
0 0

0101101
*
Ed
 1e-007 1 1 0
1  4 0 0.6 1
2  7 5 0 0.6 1
2  9 6 0 0.6 1
2  8 1 0 0.6 1
6  2 1 0
0

0101000
+124 0 -120 0 *
Ve
1e-007
0 1 0
0 0

0101101
*
Ed
 1e-007 1 1 0
1  5 0 0 1
6  3 2 0
6  4 3 0
6  5 4 0
2  10 7 0 0 1
6  6 5 0
2  11 1 0 0 1
6  7 1 0
0

0101000
-122 0 +118 0 *
Ve
1e-007
1 1 0
0 0

0101101
*
Ed
 1e-007 1 1 0
1  6 0 0 1
2  12 8 0 0 1
6  8 6 0
6  9 2 0
6  10 7 0
6  11 5 0
2  13 1 0 0 1
6  12 1 0
0

0101000
-120 0 +116 0 *
Ed
 1e-007 1 1 0
1  7 0 0 1
2  14 9 0 0 1
6  13 2 0
6  14 8 0
6  15 5 0
2  15 1 0 0 1
6  16 1 0
0

0101000
-116 0 +118 0 *
Wi

0101100
+127 0 -125 0 +123 0 +121 0 +119 0 +117 0 -115 0 -114 0 *
Fa
0  1e-007 1 0

0101000
+113 0 *
Ve
1e-007
0.5 0.5 1.05
0 0

0101101
*
Ed
 1e-007 1 1 0
1  8 0 -0 0.5
2  16 3 0 -0 0.5
2  17 2 0 -0 0.5
4 G1 3 0 2 0
0

0101000
+111 0 -129 0 *
Ve
1e-007
0.5 1.5 1.1
0 0

0101101
*
Ed
 1e-007 1 1 0
1  9 0 -0 0.5
2  18 4 0 -0 0.5
2  19 2 0 -0 0.5
4 G1 4 0 2 0
6  17 9 0
0

0101000
+128 0 -109 0 *
Ve
1e-007
0.5 0.5 2
0 0

0101101
*
Ed
 1e-007 1 1 0
1  10 0 0.05 1
2  20 2 0 0.05 1
2  21 10 0 0.05 1
0

0101000
+111 0 -107 0 *
Ve
1e-007
0.5 1.5 2
0 0

0101101
*
Ed
 1e-007 1 1 0
1  11 0 0.1 1
2  22 2 0 0.1 1
2  23 11 0 0.1 1
6  18 9 0
0

0101000
+109 0 -105 0 *
Ed
 1e-007 1 1 0
1  12 0 0 1
2  24 2 0 0 1
2  25 12 0 0 1
6  19 10 0
6  20 11 0
6  21 12 0
6  22 9 0
0

0101000
-105 0 +107 0 *
Wi

0101100
+127 0 +110 0 +108 0 -106 0 +104 0 -103 0 *
Fa
0  1e-007 2 0

0101000
+102 0 *
Ve
0.0001
0.45 0.5 1
0 0

0101101
*
Ed
 1e-007 1 1 0
1  13 0 1.5707963267949 3.14159265358979
2  26 3 0 1.5707963267949 3.14159265358979
2  27 10 0 1.5707963267949 3.14159265358979
0

0101000
+111 0 -100 0 *
Ed
 1e-007 1 1 0
1  14 0 -0 0.5
2  28 3 0 -0 0.5
2  29 5 0 -0 0.5
4 G1 3 0 5 0
0

0101000
+100 0 -126 0 *
Wi

0101100
+99 0 -110 0 +98 0 -125 0 *
Fa
0  0 3 0

0101000
+97 0 *
Ve
1e-007
0.6 1.5 1
0 0

0101101
*
Ed
 1e-007 1 1 0
1  15 0 0 0.5
2  30 4 0 0 0.5
2  31 6 0 0 0.5
4 G1 4 0 6 0
0

0101000
+124 0 -95 0 *
Ed
 1e-007 1 1 0
1  16 0 1.5707963267949 3.14159265358979
2  32 4 0 1.5707963267949 3.14159265358979
2  33 11 0 1.5707963267949 3.14159265358979
0

0101000
+109 0 -95 0 *
Wi

0101100
+123 0 -108 0 +94 0 -93 0 *
Fa
0  0 4 0

0101000
+92 0 *
Ve
1e-007
0 0 1
0 0

0101101
*
Ed
 1e-007 1 1 0
1  17 0 0 1
2  34 5 0 0 1
6  23 13 0
6  24 3 0
6  25 4 0
6  26 14 0
2  35 7 0 0 1
6  27 15 0
6  28 16 0
0

0101000
-122 0 +90 0 *
Ve
0.0001
0.5 0.5 1
0 0

0101101
*
Ed
 0.0001 1 1 0
1  18 0 -0.25 -0.2
2  36 5 0 -0.25 -0.2
2  37 10 0 -0.25 -0.2
0

0101000
+88 0 -100 0 *
Ve
1e-007
1 0 1
0 0

0101101
*
Ed
 1e-007 1 1 0
1  19 0 0 1
2  38 13 0 0 1
2  39 5 0 0 1
6  29 13 0
6  30 17 0
6  31 18 0
6  32 15 0
6  33 16 0
0

0101000
-86 0 +90 0 *
Ve
2.12133034355964e-007
1 0.5 1
0 0

0101101
*
Ed
 1e-007 1 1 0
1  20 0 0 0.5
2  40 10 0 0 0.5
2  41 6 0 0 0.5
2  42 5 0 0 0.5
6  34 15 0
6  35 19 0
6  36 16 0
6  37 20 0
0

0101000
+88 0 -84 0 *
Ed
 1e-007 1 1 0
1  21 0 0 0.5
2  43 8 0 0 0.5
2  44 5 0 0 0.5
6  38 15 0
6  39 16 0
0

0101000
+86 0 -84 0 *
Wi

0101100
-121 0 +98 0 -89 0 +87 0 +85 0 -83 0 +82 0 *
Fa
0  1e-007 5 0

0101000
+81 0 *
Ve
1e-007
1.5 1.5 1
0 0

0101101
*
Ed
 1e-007 1 1 0
1  22 0 0.1 1
2  45 11 0 0.1 1
2  46 6 0 0.1 1
0

0101000
+95 0 -79 0 *
Ve
1e-007
1.5 0.5 1
0 0

0101101
*
Ed
 1e-007 1 1 0
1  23 0 0 1
2  47 14 0 0 1
2  48 6 0 0 1
6  40 21 0
6  41 22 0
0

0101000
-79 0 +77 0 *
Ed
 1e-007 1 1 0
1  20 0 0.5 1
2  40 10 0 0.5 1
2  41 6 0 0.5 1
6  42 22 0
6  43 19 0
6  44 20 0
0

0101000
+84 0 -77 0 *
Ed
 1e-007 1 1 0
1  21 0 0.5 1
2  43 8 0 0.5 1
2  44 5 0 0.5 1
2  49 6 0 0.5 1
6  45 22 0
0

0101000
+84 0 -120 0 *
Wi

0101100
-78 0 -94 0 +76 0 +119 0 +75 0 -74 0 *
Fa
0  1e-007 6 0

0101000
+73 0 *
Ve
0.0001
0 0 0
0 0

0101101
*
Ed
 1e-007 1 1 0
1  24 0 0 1
2  50 13 0 0 1
6  46 3 0
6  47 17 0
6  48 4 0
2  51 7 0 0 1
0

0101000
-90 0 +71 0 *
Ve
0.0001
0 0.5 0
0 0

0101101
*
Ed
 1e-007 1 1 0
1  25 0 0 0.5
2  52 9 0 0 0.5
2  53 15 0 0 0.5
2  54 7 0 0 0.5
0

0101000
+71 0 -69 0 *
Ed
 1e-007 1 1 0
1  25 0 0.5 1
2  52 9 0 0.5 1
6  49 4 0
2  54 7 0 0.5 1
0

0101000
+69 0 -118 0 *
Wi

0101100
-70 0 -89 0 +117 0 +68 0 +67 0 *
Fa
0  1e-007 7 0

0101000
+66 0 *
Ve
1e-007
1 0 0
0 0

0101101
*
Ed
 1e-007 1 1 0
1  26 0 0 1
2  55 8 0 0 1
2  56 13 0 0 1
6  50 6 0
6  51 17 0
6  52 18 0
0

0101000
-86 0 +64 0 *
Ed
 1e-007 1 1 0
1  27 0 0 1
2  57 8 0 0 1
2  58 9 0 0 1
6  53 6 0
6  54 8 0
0

0101000
-116 0 +64 0 *
Wi

0101100
-63 0 -82 0 -74 0 +115 0 +62 0 *
Fa
0  1e-007 8 0

0101000
+61 0 *
Ve
2.12133034355964e-007
0.5 0 0
0 0

0101101
*
Ed
 1e-007 1 1 0
1  28 0 0.5 1
2  59 13 0 0.5 1
2  60 9 0 0.5 1
6  55 18 0
0

0101000
+59 0 -64 0 *
Ve
0.0001
0.5 0.5 0
0 0

0101101
*
Ed
 1e-007 1 1 0
1  29 0 0.5 1
2  61 16 0 0.5 1
2  62 15 0 0.5 1
2  63 9 0 0.5 1
0

0101000
+59 0 -57 0 *
Ed
 1e-007 1 1 0
1  30 0 0.5 1
2  64 17 0 0.5 1
2  65 15 0 0.5 1
2  66 9 0 0.5 1
6  56 23 0
0

0101000
+69 0 -57 0 *
Wi

0101100
-67 0 -114 0 +62 0 +58 0 -56 0 +55 0 *
Fa
0  1e-007 9 0

0101000
+54 0 *
Ve
1e-007
1.5 0.5 2
0 0

0101101
*
Ed
 1e-007 1 1 0
1  31 0 0 1
2  67 10 0 0 1
2  68 12 0 0 1
6  57 24 0
6  58 19 0
6  59 20 0
0

0101000
-52 0 +107 0 *
Ed
 1e-007 1 1 0
1  32 0 0 1
2  69 14 0 0 1
2  70 10 0 0 1
6  60 24 0
6  61 19 0
6  62 20 0
0

0101000
-52 0 +77 0 *
Wi

0101100
+106 0 -99 0 +51 0 +87 0 -50 0 -83 0 -75 0 *
Fa
0  1e-007 10 0

0101000
+49 0 *
Ve
1e-007
1.5 1.5 2
0 0

0101101
*
Ed
 1e-007 1 1 0
1  33 0 0 1
2  71 14 0 0 1
2  72 11 0 0 1
6  63 25 0
0

0101000
-47 0 +79 0 *
Ed
 1e-007 1 1 0
1  34 0 0 1
2  73 11 0 0 1
2  74 12 0 0 1
6  64 25 0
0

0101000
-47 0 +105 0 *
Wi

0101100
-78 0 -93 0 -46 0 +104 0 +45 0 *
Fa
0  1e-007 11 0

0101000
+44 0 *
Ed
 1e-007 1 1 0
1  35 0 0 1
2  75 14 0 0 1
2  76 12 0 0 1
0

0101000
-47 0 +52 0 *
Wi

0101100
-103 0 -45 0 +42 0 +51 0 *
Fa
0  1e-007 12 0

0101000
+41 0 *
Ed
 1e-007 1 1 0
1  28 0 0 0.5
2  59 13 0 0 0.5
2  60 9 0 0 0.5
2  77 15 0 0 0.5
6  65 26 0
6  66 27 0
6  67 18 0
0

0101000
+71 0 -59 0 *
Wi

0101100
-39 0 -58 0 -63 0 +85 0 +70 0 *
Fa
0  1e-007 13 0

0101000
+38 0 *
Wi

0101100
-50 0 -42 0 +46 0 +76 0 *
Fa
0  1e-007 14 0

0101000
+36 0 *
Ve
1e-007
-0.5 0.5 0
0 0

0101101
*
Ed
 1e-007 1 1 0
1  30 0 0 0.5
2  64 17 0 0 0.5
2  65 15 0 0 0.5
0

0101000
+34 0 -69 0 *
Ve
1e-007
0.5 -0.5 0
0 0

0101101
*
Ed
 1e-007 1 1 0
1  29 0 0 0.5
2  61 16 0 0 0.5
2  62 15 0 0 0.5
6  68 26 0
6  69 27 0
0

0101000
+32 0 -59 0 *
Ve
1e-007
-0.5 -0.5 0
0 0

0101101
*
Ed
 1e-007 1 1 0
1  36 0 0 1
2  78 18 0 0 1
2  79 15 0 0 1
6  70 28 0
6  71 27 0
0

0101000
-32 0 +30 0 *
Ed
 1e-007 1 1 0
1  37 0 0 1
2  80 19 0 0 1
2  81 15 0 0 1
6  72 28 0
0

0101000
-34 0 +30 0 *
Wi

0101100
-33 0 +68 0 -39 0 +31 0 +29 0 -28 0 *
Fa
0  1e-007 15 0

0101000
+27 0 *
Ve
1e-007
0.5 -0.5 -1
0 0

0101101
*
Ed
 1e-007 1 1 0
1  38 0 0 1
2  82 16 0 0 1
2  83 18 0 0 1
6  73 29 0
6  74 30 0
0

0101000
-32 0 +25 0 *
Ve
1e-007
0.5 0.5 -1
0 0

0101101
*
Ed
 1e-007 1 1 0
1  39 0 0 1
2  84 16 0 0 1
2  85 17 0 0 1
6  75 29 0
6  76 31 0
6  77 23 0
0

0101000
-57 0 +23 0 *
Ed
 1e-007 1 1 0
1  40 0 0 1
2  86 16 0 0 1
2  87 20 0 0 1
6  78 29 0
6  79 32 0
0

0101000
-23 0 +25 0 *
Wi

0101100
-24 0 -31 0 -56 0 +22 0 +21 0 *
Fa
0  1e-007 16 0

0101000
+20 0 *
Ve
1e-007
-0.5 0.5 -1
0 0

0101101
*
Ed
 1e-007 1 1 0
1  41 0 0 1
2  88 17 0 0 1
2  89 20 0 0 1
6  80 31 0
0

0101000
-23 0 +18 0 *
Ed
 1e-007 1 1 0
1  42 0 0 1
2  90 19 0 0 1
2  91 17 0 0 1
6  81 31 0
0

0101000
-34 0 +18 0 *
Wi

0101100
-17 0 -22 0 +33 0 +55 0 +16 0 *
Fa
0  1e-007 17 0

0101000
+15 0 *
Ve
1e-007
-0.5 -0.5 -1
0 0

0101101
*
Ed
 1e-007 1 1 0
1  43 0 0 1
2  92 18 0 0 1
2  93 20 0 0 1
6  82 30 0
6  83 32 0
0

0101000
-25 0 +13 0 *
Ed
 1e-007 1 1 0
1  44 0 0 1
2  94 19 0 0 1
2  95 18 0 0 1
6  84 33 0
0

0101000
-30 0 +13 0 *
Wi

0101100
-12 0 -24 0 +29 0 +11 0 *
Fa
0  1e-007 18 0

0101000
+10 0 *
Ed
 1e-007 1 1 0
1  45 0 0 1
2  96 19 0 0 1
2  97 20 0 0 1
6  85 33 0
0

0101000
-18 0 +13 0 *
Wi

0101100
-11 0 -28 0 +16 0 +8 0 *
Fa
0  1e-007 19 0

0101000
+7 0 *
Wi

0101100
-8 0 -17 0 +21 0 +12 0 *
Fa
0  1e-007 20 0

0101000
+5 0 *
Sh

0101100
+112 0 -101 0 -96 0 -91 0 +80 0 -72 0 -65 0 +60 0 -53 0 -48 0 
+43 0 +40 0 -37 0 +35 0 +26 0 +19 0 +14 0 -9 0 -6 0 -4 0 
*
So

0100000
+3 0 *
Co

1100000
+2 0 *

+1 0 