DBRep_DrawableShape

CASCADE Topology V1, (c) Matra-Datavision
Locations 0
Curve2ds 98
1 0 0 0 1 
1 1 0 0 -1 
1 -4.7123889803846897 1 1 0 
2 0.19999999999999998 0.19999999999999998 0 -1 1 0 0.20000000000000001
1 0 1 1 0 
1 1 0 0 1 
1 1 0 0 1 
1 0 0 1 0 
1 0 0 0 -1 
1 0 0 0 1 
1 0.5 0.5 0 1 
1 1 0 0 -1 
1 1 0 0 1 
1 -4.7123889803846897 0 1 0 
2 0.69999999999999996 0.69999999999999996 0 -1 1 0 0.20000000000000001
1 0 0 0 1 
1 0 0 1 0 
1 0.5 0.5 1 0 
1 0 0 0 1 
1 0 -0.19999999999999998 1 0 
1 0 -1 1 0 
1 0 0 1 0 
1 0 0 0 1 
1 0.5 0.5 0 1 
1 0 0 0 -1 
1 -4.7123889803846897 0 1 0 
2 0.69999999999999996 0.69999999999999996 0 -1 1 0 0.20000000000000001
1 1.5707963267948966 0 0 1 
1 0 0.19999999999999998 1 0 
1 0 1 1 0 
1 0 0 0 1 
1 0 -1 1 0 
1 0 1 1 0 
1 -0.5 0.5 1 0 
1 0 0 0 1 
1 0 0 1 0 
1 0.5 0.5 1 0 
1 0 0 1 0 
1 0 1 1 0 
1 1 0 0 -1 
1 0 0 0 1 
1 0 0 0 1 
1 0 -0.19999999999999996 1 0 
1 0 -1 1 0 
1 0 0 1 0 
1 0.5 -0.5 0 1 
1 0 0 0 -1 
1 1 0 0 1 
1 1.5707963267948966 0 0 1 
1 0 0.19999999999999996 1 0 
1 -4.7123889803846897 1 1 0 
2 0.19999999999999996 0.19999999999999996 0 -1 1 0 0.20000000000000001
1 1 0 0 1 
1 0 0 1 0 
1 0 0 1 0 
1 0 1 1 0 
1 1 0 0 1 
1 0 1 1 0 
1 1 0 0 -1 
1 0 0 0 1 
1 1 0 0 -1 
1 1 0 0 1 
1 0 1 1 0 
2 0.19999999999999996 0.19999999999999996 0 -1 -1 -0 0.20000000000000001
1 1 0 0 1 
1 0 0 1 0 
1 0.5 -0.5 0 1 
1 -0.5 0.5 1 0 
1 0 0 0 1 
1 0 1 1 0 
1 0 0 0 -1 
1 1 0 0 1 
1 1 0 0 1 
1 0 1 1 0 
1 1 0 0 -1 
1 1 0 0 1 
1 0 -1 1 0 
1 0 1 1 0 
1 0 0 0 1 
1 0 1 1 0 
1 0 -1 1 0 
1 0 1 1 0 
1 0 -1 1 0 
1 0 0 1 0 
1 1.5707963267948966 0 0 1 
1 0 -0.19999999999999996 1 0 
1 0 0 0 -1 
1 0 0 0 1 
1 0 0 1 0 
1 0 1 1 0 
1 0 0 0 -1 
1 1 0 0 1 
1 0 0 1 0 
2 0.19999999999999996 0.19999999999999996 0 -1 -1 -0 0.20000000000000001
1 0 0 0 1 
1 0 0.19999999999999996 1 0 
1 0 0 0 1 
1 0 0 1 0 
Curves 45
1 0 0 1 -0 1 0 
8 4.7123889803846897 6.2831853071795862
2 0.19999999999999998 0.19999999999999998 1 0 0 1 0 -1 0 1 0 -0 0.20000000000000001
1 0 1 1 1 0 -0 
1 0 0 1 1 0 -0 
1 0.5 0.5 1 -0 1 0 
1 1 0 1 -0 1 0 
8 4.7123889803846897 6.2831853071795862
2 0.69999999999999996 0.69999999999999996 1 0 0 1 0 -1 0 1 0 -0 0.20000000000000001
1 0.5 0.5 1 1 0 -0 
1 -2.7755575615628914e-017 0.19999999999999998 0 0 0 1 
1 0 1 0 0 0 1 
1 0 0 0 -0 1 0 
8 4.7123889803846897 6.2831853071795862
2 0.19999999999999998 0.19999999999999998 0 0 0 1 0 -1 0 1 0 -0 0.20000000000000001
1 0.19999999999999998 -2.7755575615628914e-017 0 0 0 1 
1 0 1 0 1 0 -0 
1 1 1 0 0 0 1 
1 0 0 0 1 0 -0 
1 1 0 0 0 0 1 
1 0.5 0.5 2 -0 1 0 
1 0.49999999999999994 0.69999999999999996 1 0 0 1 
1 0.5 1.5 1 0 0 1 
1 1 0 0 -0 1 0 
1 0.69999999999999996 0.49999999999999994 1 0 0 1 
8 4.7123889803846897 6.2831853071795862
2 0.69999999999999996 0.69999999999999996 2 0 0 1 0 -1 0 1 0 -0 0.20000000000000001
1 0.5 0.5 2 1 0 -0 
1 1.5 0.5 1 0 0 1 
1 -0.5 0.5 0 1 0 -0 
1 -0.5 -0.5 0 -0 1 0 
1 0.5 -0.5 0 -0 1 0 
8 0 1.5707963267948966
2 -0.30000000000000004 -0.30000000000000004 0 -0 -0 -1 0 -1 0 -1 0 0 0.20000000000000001
1 -0.5 -0.5 0 1 0 -0 
1 0.5 1.5 1 1 0 -0 
1 1.5 0.5 1 -0 1 0 
1 0.5 1.5 2 1 0 -0 
1 1.5 0.5 2 -0 1 0 
1 1.5 1.5 1 0 0 1 
1 -0.5 0.5 -1 1 0 -0 
1 0.5 0.5 -1 0 0 1 
1 -0.5 0.5 -1 0 0 1 
1 -0.5 -0.30000000000000004 -1 0 0 1 
1 -0.5 -0.5 -1 -0 1 0 
1 0.5 -0.5 -1 0 0 1 
1 0.5 -0.5 -1 -0 1 0 
8 0 1.5707963267948966
2 -0.30000000000000004 -0.30000000000000004 -1 -0 -0 -1 0 -1 0 -1 0 0 0.20000000000000001
1 -0.30000000000000004 -0.5 -1 0 0 1 
1 -0.5 -0.5 -1 1 0 -0 
Polygon3D 0
PolygonOnTriangulations 79
2 11 12 
p 20.6745691448814 1 0 0.5 
2 13 11 
p 0.00412310596516754 1 0 0.5 
2 1 2 
p 0.00412310596516754 1 0 0.5 
2 10 2 
p 0.00412310596516754 1 0 0.5 
2 1 2 
p 0.00412310596516754 1 0.2 0.5 
2 6 7 
p 0.00416284248518868 1 0 0.5 
2 13 12 
p 0.292533815322363 1 0 0.5 
2 5 4 
p 0.00412310596516754 1 0 0.5 
2 13 11 
p 0.00412310596516754 1 0 0.5 
8 1 4 5 6 7 8 9 3 
p 0.00412310596516754 1 4.71238898038469 4.9367884556411 5.16118793089752 5.38558740615393 5.60998688141034 5.83438635666676 6.05878583192317 6.28318530717959 
2 3 11 
p 0.00412310596516754 1 0.2 0.5 
2 1 4 
p 0.00173205115397904 1 0 1 
2 4 3 
p 0.00291547629041982 1 0 1 
2 13 12 
p 0.00412344517606334 1 0 1 
2 12 13 
p 0.00412310596516754 1 0 1 
2 4 3 
p 0.00412310596516754 1 0 1 
2 11 13 
p 0.00412344517606334 1 0.5 1 
2 5 4 
p 0.00412310596516754 1 0.5 1 
2 1 2 
p 0.00173205115397904 1 0 1 
2 2 3 
p 0.00291547629041982 1 0 1 
2 12 10 
p 0.00412310596516754 1 0 1 
2 4 3 
p 0.00173205115397904 1 0 1 
2 2 3 
p 0.00173205115397904 1 0 1 
2 2 10 
p 20.6745691448814 1 0 1 
2 10 2 
p 0.00412310596516754 1 0 1 
2 2 4 
p 0.292533815322363 1 0 1 
2 12 10 
p 20.6745691448814 1 0.5 1 
2 5 4 
p 0.292533815322363 1 0.5 1 
2 13 12 
p 20.6745691448814 1 0.5 1 
2 36 4 
p 0.292533815322363 1 0.5 1 
2 2 3 
p 0.00412310596516754 1 0.5 1 
2 1 2 
p 0.00173205115397904 1 0 1 
2 2 3 
p 0.00291547629041982 1 0 1 
2 12 10 
p 20.6745691448814 1 0 1 
2 3 4 
p 0.00412310596516754 1 0 1 
2 4 3 
p 0.00173205115397904 1 0 1 
2 4 3 
p 0.00412310596516754 1 0 1 
2 5 4 
p 0.00412310596516754 1 0.5 1 
2 6 5 
p 0.00412310596516754 1 0.5 1 
2 1 4 
p 0.00173205115397904 1 0 1 
2 4 3 
p 0.00291547629041982 1 0 1 
2 4 2 
p 0.292533815322363 1 0 1 
2 13 12 
p 0.00416284248518868 1 0.5 1 
2 6 4 
p 0.00412310596516754 1 0.5 1 
2 2 3 
p 0.00412310596516754 1 0.5 1 
2 2 3 
p 0.00173205115397904 1 0 1 
2 12 10 
p 0.00416284248518868 1 0 1 
2 3 4 
p 0.00412310596516754 1 0 1 
2 1 2 
p 0.00412310596516754 1 0 0.5 
2 6 4 
p 0.00412344517606334 1 0 0.5 
2 4 13 
p 20.6745691448814 1 0 0.5 
2 12 13 
p 0.292533815322363 1 0 0.5 
2 5 4 
p 0.00412310596516754 1 0 0.5 
2 13 11 
p 0.292533815322363 1 0.5 1 
2 36 38 
p 0.292533815322363 1 0.5 1 
2 6 4 
p 0.00412344517606334 1 0.5 1 
2 2 3 
p 0.00173205115397904 1 0 1 
2 4 3 
p 0.00173205115397904 1 0 1 
2 4 2 
p 0.00412310596516754 1 0 1 
2 11 10 
p 0.00412310596516754 1 0 1 
2 2 3 
p 0.00412310596516754 1 0 1 
2 4 3 
p 0.00412310596516754 1 0 1 
2 2 10 
p 0.00412310596516754 1 0 1 
2 1 2 
p 0.00173205115397904 1 0 1 
2 4 1 
p 0.292533815322363 1 0 1 
2 2 3 
p 0.00412310596516754 1 0 1 
2 4 3 
p 0.00173205115397904 1 0 1 
2 2 3 
p 0.00173205115397904 1 0 1 
2 2 4 
p 0.00412344517606334 1 0 1 
2 1 4 
p 0.00173205115397904 1 0 1 
2 4 3 
p 0.00412310596516754 1 0 1 
2 1 2 
p 0.00173205115397904 1 0 1 
2 10 2 
p 0.00412344517606334 1 0 1 
2 10 12 
p 0.292533815322363 1 0 1 
2 2 3 
p 0.00412310596516754 1 0 1 
2 1 4 
p 0.00173205115397904 1 0 1 
2 10 11 
p 0.00412344517606334 1 0 1 
2 10 1 
p 0.292533815322363 1 0 1 
2 4 3 
p 0.00412310596516754 1 0 1 
Surfaces 21
1 0 0 1 0 0 1 1 0 -0 -0 1 0 
1 0 0 0 1 0 -0 0 0 1 0 -1 0 
2 0.19999999999999998 0.19999999999999998 0 0 0 1 -1 -0 0 0 -1 0 0.20000000000000001
1 0 1 0 -0 1 0 0 0 1 1 0 -0 
1 0 0 0 -0 1 0 0 0 1 1 0 -0 
1 0.5 0.5 1 1 0 -0 0 0 1 0 -1 0 
1 0.5 0.5 1 0 0 1 1 0 -0 -0 1 0 
1 1 0 0 1 0 -0 0 0 1 0 -1 0 
2 0.69999999999999996 0.69999999999999996 1 0 0 1 -1 -0 0 0 -1 0 0.20000000000000001
1 0.5 0.5 1 -0 1 0 0 0 1 1 0 -0 
1 0 0 0 0 0 1 1 0 -0 -0 1 0 
1 -0.5 -0.5 0 0 0 1 1 0 -0 -0 1 0 
1 0.5 0.5 2 0 0 1 1 0 -0 -0 1 0 
1 0.5 1.5 1 -0 1 0 0 0 1 1 0 -0 
1 1.5 0.5 1 1 0 -0 0 0 1 0 -1 0 
1 -0.5 0.5 -1 -0 1 0 0 0 1 1 0 -0 
1 -0.5 -0.5 -1 1 0 -0 0 0 1 0 -1 0 
1 0.5 -0.5 -1 1 0 -0 0 0 1 0 -1 0 
2 -0.30000000000000004 -0.30000000000000004 -1 0 0 1 0 -1 0 -1 -0 0 0.20000000000000001
1 -0.5 -0.5 -1 -0 1 0 0 0 1 1 0 -0 
1 -0.5 -0.5 -1 0 0 1 1 0 -0 -0 1 0 
Triangulations 39
12 10 1 2.77555756156289e-017
0.1 1 -1.38777878078145e-017 1 1 0 -1.38777878078145e-017 1 0.1 0.00250720878181762 1 0.0777479066043686 0.00990311320975808 1 0.0566116260882442 0.021816851753197 1 0.0376510198141266 0.0376510198141266 1 0.021816851753197 0.0566116260882442 1 0.00990311320975808 0.0777479066043685 1 0.00250720878181762 1 1 1 0 1 1 0.5 1 1 0 0.1 0 1 0.1 -1.38777878078145e-017 0.0777479066043686 0.00250720878181762 0.0566116260882442 0.00990311320975808 0.0376510198141266 0.021816851753197 0.021816851753197 0.0376510198141266 0.00990311320975808 0.0566116260882442 0.00250720878181762 0.0777479066043685 1 1 1 0 1 0.5 1 4 3 1 5 4 1 6 5 1 7 6 1 8 7 1 9 8 12 2 1 12 3 11 12 1 3 10 2 12 
13 11 1 1.0842021724855e-016
0.6 1 1 1 1 1 0.5 1 1.1 0.502507208781818 1 1.07774790660437 0.509903113209758 1 1.05661162608824 0.521816851753197 1 1.03765101981413 0.537651019814127 1 1.0218168517532 0.556611626088244 1 1.00990311320976 0.577747906604368 1 1.00250720878182 1 1 0 0.5 1 1 0 1 0 0 1 1 1 0.6 1 1 1.1 0.5 1.07774790660437 0.502507208781818 1.05661162608824 0.509903113209758 1.03765101981413 0.521816851753197 1.0218168517532 0.537651019814127 1.00990311320976 0.556611626088244 1.00250720878182 0.577747906604368 0 1 1 0.5 0 0 1 0 11 10 12 11 12 13 7 11 6 8 11 7 5 6 11 9 11 8 4 5 11 1 10 11 1 11 9 2 10 1 11 3 4 
6 4 1 0
0 1 1 0.5 1 1 0.5 0.5 1 1 0.5 1 1 0 1 0 0 1 0 1 0.5 1 0.5 0.5 1 0.5 1 0 0 0 3 6 5 3 1 6 2 1 3 4 3 5 
13 11 1 5.55111512312578e-017
0.5 0.7 1 0.5 1 1 0.7 0.5 1 0.505014417563635 0.655495813208737 1 0.519806226419516 0.613223252176488 1 0.543633703506394 0.575302039628253 1 0.575302039628253 0.543633703506394 1 0.613223252176488 0.519806226419516 1 0.655495813208737 0.505014417563635 1 0 1 1 1 0.5 1 0 0 1 1 0 1 0.5 0.7 0.5 1 0.7 0.5 0.505014417563635 0.655495813208737 0.519806226419516 0.613223252176488 0.543633703506394 0.575302039628253 0.575302039628253 0.543633703506394 0.613223252176488 0.519806226419516 0.655495813208737 0.505014417563635 0 1 1 0.5 0 0 1 0 7 6 12 8 7 12 5 12 6 4 10 12 4 12 5 9 12 13 9 8 12 1 10 4 3 9 13 2 10 1 11 3 13 
7 5 1 0
0 1 1 0.3 1 1 0.3 0.5 1 0 0 1 0.5 0.5 1 1 0 1 1 0.5 1 0 1 0.3 1 0.3 0.5 0 0 0.5 0.5 1 0 1 0.5 5 3 4 1 4 3 6 5 4 2 1 3 7 5 6 
13 11 1 5.46437894932694e-017
0.05 1 1 0.5 1 1 -6.93889390390723e-018 0.95 1 0.00125360439090881 0.961126046697816 1 0.00495155660487904 0.971694186955878 1 0.0109084258765985 0.981174490092937 1 0.0188255099070633 0.989091574123401 1 0.0283058130441221 0.995048443395121 1 0.0388739533021843 0.998746395609091 1 0.5 0.5 1 0 0 1 1 0.5 1 1 0 1 0.05 1 0.5 1 -6.93889390390723e-018 0.95 0.00125360439090881 0.961126046697816 0.00495155660487904 0.971694186955878 0.0109084258765985 0.981174490092937 0.0188255099070633 0.989091574123401 0.0283058130441221 0.995048443395121 0.0388739533021843 0.998746395609091 0.5 0.5 0 0 1 0.5 1 0 10 3 11 13 10 11 1 4 3 1 5 4 1 6 5 1 7 6 1 8 7 1 9 8 1 3 10 2 1 10 12 10 13 
4 2 1 0
0 1 0 1 1 0 1 1 1 0 1 1 0 0 0 1 1 1 1 0 3 2 1 3 1 4 
4 2 1 0
0 0 0 0 0 1 0 1 1 0 1 0 0 0 1 0 1 -1 0 -1 2 4 3 2 1 4 
13 11 1 2.77555756156289e-017
0 0 0 0 0.4 1.38777878078145e-017 0 0.5 -0.1 0 0.422252093395631 -0.00250720878181762 0 0.443388373911756 -0.00990311320975808 0 0.462348980185873 -0.021816851753197 0 0.478183148246803 -0.0376510198141266 0 0.490096886790242 -0.0566116260882442 0 0.497492791218182 -0.0777479066043685 0 0 1 0 0.5 0 0 1 1 0 1 0 0 0 0 -0.4 -0.1 -0.5 -0.00250720878181762 -0.422252093395632 -0.00990311320975808 -0.443388373911756 -0.021816851753197 -0.462348980185873 -0.0376510198141266 -0.478183148246803 -0.0566116260882442 -0.490096886790242 -0.0777479066043685 -0.497492791218182 1 0 0 -0.5 1 -1 0 -1 11 7 8 11 8 9 6 7 11 5 6 11 4 5 11 2 4 11 12 11 13 10 1 2 10 11 12 10 2 11 3 11 9 
5 3 1 0
0 0 0 0 0 1 0 1 1 0 1 0 0 0.5 0 0 0 1 0 1 -1 0 -1 0 -0.5 3 5 4 2 1 5 2 5 3 
4 2 1 0
0 0 0 0 1 0 1 1 0 1 0 0 0 0 0 1 1 1 1 0 3 2 1 3 1 4 
4 2 1 0
1 0 0 1 0 1 1 1 1 1 1 0 0 0 1 0 1 -1 0 -1 2 4 3 2 1 4 
5 3 1 2.77555756156289e-017
0.05 1 0 1 1 0 0.05 1 1 1 1 1 0.5 1 1 0 0.05 0 1 1 0.05 1 1 1 0.5 5 2 1 5 1 3 4 2 5 
13 11 1 1.73472347597681e-018
1.38777878078145e-017 0 0.1 0 0 1 -0.1 0 -1.38777878078145e-017 -0.0777479066043686 0 0.00250720878181762 -0.0566116260882442 0 0.00990311320975808 -0.0376510198141266 0 0.021816851753197 -0.021816851753197 0 0.0376510198141266 -0.00990311320975808 0 0.0566116260882442 -0.00250720878181762 0 0.0777479066043685 1 0 1 0 0 0 1 0 0 0.5 0 0 0.1 0 1 0 -1.38777878078145e-017 -0.1 0.00250720878181762 -0.0777479066043686 0.00990311320975808 -0.0566116260882442 0.021816851753197 -0.0376510198141266 0.0376510198141266 -0.021816851753197 0.0566116260882442 -0.00990311320975808 0.0777479066043685 -0.00250720878181762 1 1 0 0 0 1 0 0.5 11 3 4 11 4 5 11 5 6 7 11 6 8 11 7 9 11 8 13 9 1 13 11 9 2 13 1 10 12 13 10 13 2 
38 36 1 5.56194657756796e-017
0.05 1 0 1 1 0 0.05 0.98178310293739 -6.93889390390723e-018 1 0 0 0.48178310293739 0.55 6.93889390390723e-018 0.481612707409853 0.550000029759821 0 0.481442311899435 0.550000119046249 0 0.481101521013362 0.550000476240674 0 0.480419940364725 0.550001905407385 0 0.479056788245975 0.5500076251753 0 0.476330558340163 0.550030528878522 0 0.470878699049517 0.550122337893269 0 0.459979843739248 0.550491081341102 0 0.438221830762819 0.551977354112228 0 0.395034857168581 0.557999985076869 0 0.35422673321098 0.56769638193079 0 0.315095317029765 0.581023162107122 0 0.277861302869261 0.597838675245869 0 0.242746385429708 0.617986256410112 0 0.22607388176867 0.629240825864866 0 0.209968971640797 0.641293583580249 0 0.194534198466579 0.654064541631131 0 0.179740468573758 0.667572869590015 0 0.164124312660077 0.68338109079048 0 0.14938671060527 0.700011408029217 0 0.13555736865997 0.717429788688434 0 0.122687355617668 0.735568539856595 0 0.110765861834702 0.754445342705444 0 0.0998724319202642 0.773933558159791 0 0.0899666941948851 0.794111922764147 0 0.0811449741387649 0.814787264033475 0 0.0733492427410742 0.836108245249681 0 0.0666802774624425 0.85780814336929 0 0.0566268152561129 0.90267884065399 0 0.0516391131405562 0.942090281138235 0 0.5 0 0 0.5 0.55 6.93889390390723e-018 0.5 0.5 0 0.05 1 1 1 0.05 0.98178310293739 1 0 0.48178310293739 0.55 0.481612707409853 0.550000029759821 0.481442311899435 0.550000119046249 0.481101521013362 0.550000476240674 0.480419940364725 0.550001905407385 0.479056788245975 0.5500076251753 0.476330558340163 0.550030528878522 0.470878699049517 0.550122337893269 0.459979843739248 0.550491081341102 0.438221830762819 0.551977354112228 0.395034857168581 0.557999985076869 0.35422673321098 0.56769638193079 0.315095317029765 0.581023162107122 0.277861302869261 0.597838675245869 0.242746385429708 0.617986256410112 0.22607388176867 0.629240825864866 0.209968971640797 0.641293583580249 0.194534198466579 0.654064541631131 0.179740468573758 0.667572869590015 0.164124312660077 0.68338109079048 0.14938671060527 0.700011408029217 0.13555736865997 0.717429788688434 0.122687355617668 0.735568539856595 0.110765861834702 0.754445342705444 0.0998724319202642 0.773933558159791 0.0899666941948851 0.794111922764147 0.0811449741387649 0.814787264033475 0.0733492427410742 0.836108245249681 0.0666802774624425 0.85780814336929 0.0566268152561129 0.90267884065399 0.0516391131405562 0.942090281138235 0.5 0 0.5 0.55 0.5 0.5 22 24 23 25 24 22 21 25 22 26 25 21 20 26 21 27 26 20 19 27 20 28 27 19 18 29 28 18 28 19 30 29 18 17 31 30 17 30 18 32 31 17 16 32 17 33 32 16 15 33 16 34 33 15 14 34 15 35 34 14 38 36 4 13 35 14 3 6 5 3 7 6 3 8 7 3 9 8 3 10 9 3 11 10 3 12 11 3 13 12 3 35 13 37 1 3 37 3 5 2 1 37 2 37 38 2 38 4 
5 3 1 0
0 0 0 0.5 0 0 1 0 0 1 0 1 0 0 1 0 0 0 0.5 0 1 1 1 1 0 5 2 1 4 3 2 4 2 5 
4 2 1 0
0 0 0 1 0 0 1 0 1 0 0 1 0 0 0 1 1 1 1 0 3 2 1 3 1 4 
4 2 1 0
0.5 0.5 1 0.5 0.5 2 0.5 1.5 2 0.5 1.5 1 0 0 1 0 1 -1 0 -1 2 4 3 2 1 4 
5 3 1 0
0.5 0.5 1 0.5 0.5 2 0.5 1.5 2 0.5 1.5 1 0.5 1 1 0 0 1 0 1 -1 0 -1 0 -0.5 3 5 4 2 1 5 2 5 3 
6 4 1 5.55111512312578e-017
0.6 1.5 1 1.5 1.5 1 0.6 1 1 1.5 0.5 1 1 1 1 1 0.5 1 0.1 1 1 1 0.1 0.5 1 0 0.5 0.5 0.5 0 4 5 6 1 3 5 2 5 4 2 1 5 
13 11 1 1.2490009027033e-016
0.5 0.5 1.2 0.5 0.5 2 0.3 0.5 1 0.494985582436365 0.5 1.15549581320874 0.480193773580484 0.5 1.11322325217649 0.456366296493606 0.5 1.07530203962825 0.424697960371747 0.5 1.04363370350639 0.386776747823512 0.5 1.01980622641952 0.344504186791263 0.5 1.00501441756364 1.5 0.5 2 0.5 0.5 1 1.5 0.5 1 1 0.5 1 0.2 0 1 0 -5.55111512312578e-017 -0.2 0.155495813208737 -0.00501441756363522 0.113223252176488 -0.0198062264195161 0.0753020396282533 -0.043633703506394 0.043633703506394 -0.0753020396282532 0.0198062264195161 -0.113223252176488 0.00501441756363522 -0.155495813208737 1 1 0 0 0 1 0 0.5 11 8 7 11 9 8 11 3 9 6 11 7 5 11 6 4 11 5 13 4 1 13 11 4 2 13 1 10 12 13 10 13 2 
5 3 1 0
0.5 0.5 1 1 0.5 1 1.5 0.5 1 1.5 0.5 2 0.5 0.5 2 0 0 0 0.5 0 1 1 1 1 0 5 2 1 4 3 2 4 2 5 
4 2 1 0
0.5 0.5 1 1.5 0.5 1 1.5 0.5 2 0.5 0.5 2 0 0 0 1 1 1 1 0 3 2 1 3 1 4 
6 4 1 0
-0.5 0.5 0 0 0.5 0 0 0 0 0.5 0 0 0.5 -0.5 0 -0.5 -0.5 0 0 1 0.5 1 0.5 0.5 1 0.5 1 0 0 0 3 6 5 3 1 6 2 1 3 4 3 5 
6 4 1 5.59431511413976e-017
0 0 0 0 0.4 1.38777878078145e-017 -0.4 0.4 1.38777878078145e-017 0.5 0 0 -0.4 -0.5 1.38777878078145e-017 0.5 -0.5 0 0.5 0.5 0.5 0.9 0.1 0.9 1 0.5 0.1 0 1 0 1 3 5 6 1 5 2 3 1 4 1 6 
15 13 1 5.59431511413976e-017
-0.5 -0.5 0 -0.5 0.4 1.38777878078145e-017 -0.468480595121969 0.4 1.38777878078145e-017 0.5 -0.5 0 -0.1 0.031519404878031 -2.77555756156289e-017 -0.111643642454395 0.12752885647231 0 -0.14256605795828 0.208906784423903 0 -0.186410495253031 0.273868372558696 0 -0.243561286554877 0.327493677903796 0 -0.31114986625202 0.367173450744935 0 -0.385694771413648 0.391416703864436 0 -0.426861670217127 0.397880293512998 0 0.5 0 0 -0.1 0 -1.38777878078145e-017 0 0 0 0 0 0 0.9 0.031519404878031 0.9 1 0 0.4 0.531519404878031 0.388356357545605 0.62752885647231 0.35743394204172 0.708906784423903 0.313589504746969 0.773868372558696 0.256438713445123 0.827493677903796 0.18885013374798 0.867173450744935 0.114305228586352 0.891416703864436 0.0731383297828726 0.897880293512998 1 0.5 0.4 0.5 0.5 0.5 2 1 14 3 14 5 3 2 14 12 3 5 15 1 4 15 14 1 6 11 12 6 12 5 10 11 6 7 10 6 9 10 7 8 9 7 13 15 4 
13 11 1 1.79110198894605e-016
0.5 0.5 -1 0.5 0.5 -0.05 0.5 0.55 6.93889390390723e-018 0.5 0.501253604390909 -0.0388739533021843 0.5 0.504951556604879 -0.0283058130441221 0.5 0.510908425876599 -0.0188255099070633 0.5 0.518825509907063 -0.0109084258765985 0.5 0.528305813044122 -0.00495155660487904 0.5 0.538873953302184 -0.00125360439090882 0.5 -0.5 -1 0.5 0.5 0 0.5 -0.5 0 0.5 0 0 0 -1 0.95 -1 1 -1.05 0.961126046697816 -1.00125360439091 0.971694186955878 -1.00495155660488 0.981174490092937 -1.0109084258766 0.989091574123401 -1.01882550990706 0.995048443395121 -1.02830581304412 0.998746395609091 -1.03887395330218 0 0 1 -1 1 0 1 -0.5 11 2 4 11 4 5 11 5 6 11 6 7 11 7 8 11 8 9 11 9 3 13 1 2 13 10 1 13 2 11 12 10 13 
6 4 1 4.16333634234434e-017
-0.4 0.5 -1 0.5 0.5 -1 -0.4 0.5 -0.1 0.5 0.5 0 0 0.5 -0.1 0 0.5 0 0 0.1 0 1 0.9 0.1 1 1 0.9 0.5 1 0.5 5 2 1 5 1 3 4 5 6 4 2 5 
4 2 1 0
0.5 0.5 1 0.5 1.5 1 1.5 1.5 1 1.5 0.5 1 0 0 0 1 1 1 1 0 3 2 1 3 1 4 
11 9 1 5.89805981832114e-017
0.6 1.5 1 1.5 1.5 1 0.5 1.5 1.1 0.502507208781818 1.5 1.07774790660437 0.509903113209758 1.5 1.05661162608824 0.521816851753197 1.5 1.03765101981413 0.537651019814127 1.5 1.0218168517532 0.556611626088244 1.5 1.00990311320976 0.577747906604368 1.5 1.00250720878182 1.5 1.5 2 0.5 1.5 2 0 0.1 0 1 0.1 -2.77555756156289e-017 0.0777479066043687 0.00250720878181761 0.0566116260882443 0.00990311320975806 0.0376510198141267 0.021816851753197 0.0218168517531971 0.0376510198141266 0.00990311320975817 0.0566116260882442 0.00250720878181772 0.0777479066043685 1 1 1 0 3 5 4 3 6 5 3 7 6 3 8 7 3 9 8 3 1 9 10 2 1 10 3 11 10 1 3 
4 2 1 0
0.5 0.5 2 0.5 1.5 2 1.5 1.5 2 1.5 0.5 2 0 0 0 1 1 1 1 0 3 2 1 3 1 4 
4 2 1 0
-0.5 0.5 -1 0.5 0.5 -1 0.5 0.5 0 -0.5 0.5 0 0 0 0 1 1 1 1 0 3 2 1 3 1 4 
65 63 1 5.55111512312578e-017
0.5 0.5 -1 0.5 0.5 -0.05 0.48178310293739 0.5 -0.05 -0.5 0.5 -1 -0.452493781056044 0.5 -0.05 -0.437895704743647 0.5 -0.0499999999999999 -0.42329762843125 0.5 -0.0499999999999999 -0.408699552118852 0.5 -0.0499999999999999 -0.401400513962654 0.5 -0.0499999999999999 -0.394101475806455 0.5 -0.0499999999999999 -0.386802437650256 0.5 -0.0499999999999999 -0.379503399494057 0.5 -0.0499999999999999 -0.36490532318166 0.5 -0.0499999999999999 -0.350307246869263 0.5 -0.0499999999999999 -0.335709170556865 0.5 -0.0499999999999999 -0.321111094244468 0.5 -0.0499999999999999 -0.313812056088269 0.5 -0.0499999999999999 -0.30651301793207 0.5 -0.0499999999999999 -0.299213979775872 0.5 -0.0499999999999999 -0.291914941619673 0.5 -0.0499999999999999 -0.284615903463474 0.5 -0.0499999999999999 -0.277316865307276 0.5 -0.0499999999999999 -0.270017827151077 0.5 -0.0499999999999999 -0.262718788994878 0.5 -0.0499999999999999 -0.255419750838679 0.5 -0.0499999999999999 -0.248120712682481 0.5 -0.0499999999999999 -0.233522636370083 0.5 -0.0499999999999999 -0.218924560057686 0.5 -0.0499999999999999 -0.204326483745288 0.5 -0.0499999999999999 -0.189728407432891 0.5 -0.0499999999999999 -0.175130331120494 0.5 -0.0499999999999999 -0.160532254808096 0.5 -0.0499999999999999 -0.145934178495699 0.5 -0.0499999999999999 -0.131336102183301 0.5 -0.0499999999999999 -0.116738025870904 0.5 -0.0499999999999999 -0.102139949558507 0.5 -0.0499999999999999 -0.0875418732461091 0.5 -0.0499999999999999 -0.0729437969337117 0.5 -0.0499999999999999 -0.0437476443089169 0.5 -0.0499999999999999 -0.014551491684122 0.5 -0.0499999999999999 0.0146446609406728 0.5 -0.0499999999999999 0.0438408135654676 0.5 -0.0499999999999999 0.058438889877865 0.5 -0.0499999999999999 0.0730369661902624 0.5 -0.0499999999999999 0.0876350425026599 0.5 -0.0499999999999999 0.102233118815057 0.5 -0.0499999999999999 0.116831195127455 0.5 -0.0499999999999999 0.131429271439852 0.5 -0.0499999999999999 0.160625424064647 0.5 -0.0499999999999999 0.189821576689442 0.5 -0.0499999999999999 0.204419653001839 0.5 -0.0499999999999999 0.219017729314237 0.5 -0.0499999999999999 0.233615805626634 0.5 -0.0499999999999999 0.248213881939032 0.5 -0.0499999999999999 0.277410034563826 0.5 -0.0499999999999999 0.292008110876224 0.5 -0.0499999999999999 0.306606187188621 0.5 -0.0499999999999999 0.321204263501019 0.5 -0.0499999999999999 0.335802339813416 0.5 -0.0499999999999999 0.364998492438211 0.5 -0.0499999999999999 0.4233907976878 0.5 -0.0499999999999999 0.437988874000198 0.5 -0.0499999999999999 0.452586950312595 0.5 -0.0499999999999999 0.467185026624993 0.5 -0.0499999999999999 -0.5 0.5 -0.05 0 1 0.95 1 0.95 0.98178310293739 0 0 0.95 0.0475062189439555 0.95 0.0621042952563529 0.95 0.0767023715687503 0.95 0.0913004478811478 0.95 0.0985994860373465 0.95 0.105898524193545 0.95 0.113197562349744 0.95 0.120496600505943 0.95 0.13509467681834 0.95 0.149692753130737 0.95 0.164290829443135 0.95 0.178888905755532 0.95 0.186187943911731 0.95 0.19348698206793 0.95 0.200786020224128 0.95 0.208085058380327 0.95 0.215384096536526 0.95 0.222683134692725 0.95 0.229982172848923 0.95 0.237281211005122 0.95 0.244580249161321 0.95 0.251879287317519 0.95 0.266477363629917 0.95 0.281075439942314 0.95 0.295673516254712 0.95 0.310271592567109 0.95 0.324869668879506 0.95 0.339467745191904 0.95 0.354065821504301 0.95 0.368663897816699 0.95 0.383261974129096 0.95 0.397860050441493 0.95 0.412458126753891 0.95 0.427056203066288 0.95 0.456252355691083 0.95 0.485448508315878 0.95 0.514644660940673 0.95 0.543840813565468 0.95 0.558438889877865 0.95 0.573036966190262 0.95 0.58763504250266 0.95 0.602233118815057 0.95 0.616831195127455 0.95 0.631429271439852 0.95 0.660625424064647 0.95 0.689821576689442 0.95 0.704419653001839 0.95 0.719017729314237 0.95 0.733615805626634 0.95 0.748213881939032 0.95 0.777410034563826 0.95 0.792008110876224 0.95 0.806606187188621 0.95 0.821204263501019 0.95 0.835802339813416 0.95 0.864998492438211 0.95 0.9233907976878 0.95 0.937988874000198 0.95 0.952586950312595 0.95 0.967185026624993 0.95 0 43 1 42 44 1 43 45 1 44 5 4 65 46 1 45 47 1 46 48 1 47 6 4 5 49 1 48 7 4 6 50 1 49 8 4 7 51 1 50 9 4 8 52 1 51 53 1 52 10 4 9 54 1 53 11 4 10 12 4 11 55 1 54 56 1 55 13 4 12 57 1 56 14 4 13 58 1 57 15 4 14 59 1 58 16 4 15 60 1 59 61 1 60 17 4 16 62 1 61 18 4 17 63 1 62 19 4 18 64 1 63 20 4 19 3 1 64 21 4 20 2 1 3 22 4 21 23 4 22 24 4 23 25 4 24 26 4 25 27 4 26 28 4 27 29 4 28 30 4 29 31 4 30 32 4 31 33 4 32 34 4 33 35 4 34 36 4 35 37 4 36 38 4 37 39 4 38 40 1 4 40 4 39 41 1 40 42 1 41 
4 2 1 0
-0.5 -0.5 -1 -0.5 0.5 -1 0.5 0.5 -1 0.5 -0.5 -1 0 0 0 1 1 1 1 0 3 2 1 3 1 4 
4 2 1 0
0.5 -0.5 -1 0.5 -0.5 0 0.5 0.5 0 0.5 0.5 -1 0 0 1 0 1 -1 0 -1 2 4 3 2 1 4 
4 2 1 0
-0.5 -0.5 -1 -0.5 -0.5 0 -0.5 0.5 0 -0.5 0.5 -1 0 0 1 0 1 -1 0 -1 2 4 3 2 1 4 
11 9 1 5.55111512312578e-017
-0.4 -0.5 1.38777878078145e-017 0.5 -0.5 0 -0.5 -0.5 -0.1 -0.497492791218182 -0.5 -0.0777479066043686 -0.490096886790242 -0.5 -0.0566116260882442 -0.478183148246803 -0.5 -0.0376510198141266 -0.462348980185873 -0.5 -0.021816851753197 -0.443388373911756 -0.5 -0.00990311320975808 -0.422252093395631 -0.5 -0.00250720878181764 0.5 -0.5 -1 -0.5 -0.5 -1 1 0.1 1 1 0.9 -2.77555756156289e-017 0.922252093395631 0.00250720878181761 0.943388373911756 0.00990311320975805 0.962348980185873 0.021816851753197 0.978183148246803 0.0376510198141266 0.990096886790242 0.0566116260882441 0.997492791218182 0.0777479066043685 0 1 0 0 10 11 3 1 3 4 1 4 5 1 5 6 1 6 7 1 7 8 1 8 9 1 10 3 2 10 1 
4 2 1 0
-0.5 -0.5 -1 0.5 -0.5 -1 0.5 -0.5 0 -0.5 -0.5 0 0 0 0 1 1 1 1 0 3 2 1 3 1 4 
11 9 1 5.55111512312578e-017
-0.5 -0.5 -1 -0.5 0.4 -1 -0.4 0.5 -1 -0.497492791218182 0.422252093395631 -1 -0.490096886790242 0.443388373911756 -1 -0.478183148246803 0.462348980185873 -1 -0.462348980185873 0.478183148246803 -1 -0.443388373911756 0.490096886790242 -1 -0.422252093395631 0.497492791218182 -1 0.5 -0.5 -1 0.5 0.5 -1 0 0 0 0.9 0.1 1 0.00250720878181761 0.922252093395631 0.00990311320975806 0.943388373911756 0.021816851753197 0.962348980185873 0.0376510198141266 0.978183148246803 0.0566116260882442 0.990096886790242 0.0777479066043685 0.997492791218182 1 0 1 1 10 2 1 3 4 2 3 5 4 3 6 5 3 7 6 3 8 7 3 9 8 3 2 10 11 3 10 

TShapes 132
Ve
1e-007
-2.77555756156289e-017 0.2 1
0 0

0101101
*
Ve
1e-007
0 1 1
0 0

0101101
*
Ed
 1e-007 1 1 0
1  1 0 0.2 1
2  1 1 0 0.2 1
2  2 2 0 0.2 1
0

0101000
+132 0 -131 0 *
Ve
1e-007
0.2 -2.77555756156289e-017 1
0 0

0101101
*
Ed
 1e-007 1 1 0
1  2 0 4.71238898038469 6.28318530717959
2  3 3 0 4.71238898038469 6.28318530717959
2  4 1 0 4.71238898038469 6.28318530717959
0

0101000
+132 0 -129 0 *
Ve
0.0001
0.5 1 1
0 0

0101101
*
Ed
 1e-007 1 1 0
1  3 0 0 0.5
2  5 1 0 0 0.5
6  1 1 0
2  6 4 0 0 0.5
6  2 2 0
6  3 3 0
6  4 4 0
0

0101000
+131 0 -127 0 *
Ve
1e-007
1 0 1
0 0

0101101
*
Ed
 1e-007 1 1 0
1  4 0 0.2 1
2  7 5 0 0.2 1
2  8 1 0 0.2 1
0

0101000
+129 0 -125 0 *
Ve
1e-007
0.5 0.7 1
0 0

0101101
*
Ed
 1e-007 1 1 0
1  5 0 0.2 0.5
2  9 6 0 0.2 0.5
2  10 7 0 0.2 0.5
2  11 1 0 0.2 0.5
6  5 4 0
0

0101000
+123 0 -127 0 *
Ve
2.12133034355964e-007
1 0.5 1
0 0

0101101
*
Ed
 1e-007 1 1 0
1  6 0 0 0.5
2  12 8 0 0 0.5
2  13 1 0 0 0.5
6  6 5 0
6  7 6 0
6  8 3 0
6  9 4 0
0

0101000
+125 0 -121 0 *
Ve
1e-007
0.7 0.5 1
0 0

0101101
*
Ed
 1e-007 1 1 0
1  7 0 4.71238898038469 6.28318530717959
2  14 9 0 4.71238898038469 6.28318530717959
2  15 1 0 4.71238898038469 6.28318530717959
6  10 4 0
0

0101000
+123 0 -119 0 *
Ed
 1e-007 1 1 0
1  8 0 0.2 0.5
2  16 10 0 0.2 0.5
2  17 7 0 0.2 0.5
2  18 1 0 0.2 0.5
6  11 4 0
0

0101000
+119 0 -121 0 *
Wi

0101100
-130 0 +128 0 -126 0 +124 0 +122 0 +120 0 -118 0 -117 0 *
Fa
0  1e-007 1 0

0101000
+116 0 *
Ve
1e-007
-2.77555756156289e-017 0.2 0
0 0

0101101
*
Ed
 1e-007 1 1 0
1  9 0 0 1
2  19 3 0 0 1
2  20 2 0 0 1
4 G1 3 0 2 0
0

0101000
+114 0 -132 0 *
Ve
1e-007
0 1 0
0 0

0101101
*
Ed
 1e-007 1 1 0
1  10 0 0 1
6  12 7 0
6  13 8 0
6  14 9 0
2  21 2 0 0 1
2  22 4 0 0 1
6  15 2 0
6  16 10 0
0

0101000
-131 0 +112 0 *
Ve
0.0001
0 0.5 0
0 0

0101101
*
Ed
 1e-007 1 1 0
1  11 0 0.2 0.5
2  23 11 0 0.2 0.5
2  24 12 0 0.2 0.5
2  25 2 0 0.2 0.5
0

0101000
+114 0 -110 0 *
Ed
 1e-007 1 1 0
1  11 0 0.5 1
2  23 11 0 0.5 1
6  17 9 0
2  25 2 0 0.5 1
6  18 10 0
0

0101000
+110 0 -112 0 *
Wi

0101100
-130 0 -113 0 +111 0 +109 0 +108 0 *
Fa
0  1e-007 2 0

0101000
+107 0 *
Ve
1e-007
0.2 -2.77555756156289e-017 0
0 0

0101101
*
Ed
 1e-007 1 1 0
1  12 0 4.71238898038469 6.28318530717959
2  26 3 0 4.71238898038469 6.28318530717959
2  27 12 0 4.71238898038469 6.28318530717959
0

0101000
+114 0 -105 0 *
Ed
 1e-007 1 1 0
1  13 0 0 1
2  28 3 0 0 1
2  29 5 0 0 1
4 G1 3 0 5 0
0

0101000
+105 0 -129 0 *
Wi

0101100
+104 0 -113 0 +103 0 -128 0 *
Fa
0  0 3 0

0101000
+102 0 *
Ve
1e-007
1 1 0
0 0

0101101
*
Ed
 1e-007 1 1 0
1  14 0 0 1
2  30 11 0 0 1
6  19 7 0
6  20 11 0
2  31 4 0 0 1
6  21 2 0
0

0101000
-100 0 +112 0 *
Ve
2.12133034355964e-007
1 1 1
0 0

0101101
*
Ed
 1e-007 1 1 0
1  15 0 0 1
2  32 8 0 0 1
6  22 12 0
6  23 7 0
6  24 1 0
2  33 4 0 0 1
6  25 2 0
6  26 13 0
0

0101000
-98 0 +100 0 *
Ed
 1e-007 1 1 0
1  3 0 0.5 1
2  6 4 0 0.5 1
2  5 1 0 0.5 1
2  34 7 0 0.5 1
6  27 1 0
6  28 13 0
0

0101000
+127 0 -98 0 *
Wi

0101100
-99 0 -97 0 +126 0 +96 0 +111 0 *
Fa
0  1e-007 4 0

0101000
+95 0 *
Ve
2.12133034355964e-007
0.5 0 0
0 0

0101101
*
Ed
 1e-007 1 1 0
1  16 0 0.2 0.5
2  35 5 0 0.2 0.5
2  36 11 0 0.2 0.5
2  37 12 0 0.2 0.5
0

0101000
+105 0 -93 0 *
Ve
1e-007
1 0 0
0 0

0101101
*
Ed
 1e-007 1 1 0
1  16 0 0.5 1
2  35 5 0 0.5 1
2  36 11 0 0.5 1
6  29 14 0
6  30 15 0
6  31 16 0
0

0101000
+93 0 -91 0 *
Ed
 1e-007 1 1 0
1  17 0 0 1
2  38 8 0 0 1
2  39 5 0 0 1
6  32 12 0
6  33 17 0
6  34 14 0
6  35 16 0
0

0101000
-125 0 +91 0 *
Wi

0101100
-92 0 +103 0 -90 0 +124 0 -89 0 *
Fa
0  1e-007 5 0

0101000
+88 0 *
Ve
1e-007
0.5 0.7 2
0 0

0101101
*
Ve
1e-007
0.5 1.5 2
0 0

0101101
*
Ed
 1e-007 1 1 0
1  18 0 0.2 1
2  40 6 0 0.2 1
2  41 13 0 0.2 1
0

0101000
+86 0 -85 0 *
Ed
 1e-007 1 1 0
1  19 0 0 1
2  42 9 0 0 1
2  43 6 0 0 1
4 G1 9 0 6 0
0

0101000
+123 0 -86 0 *
Ve
1e-007
0.5 1.5 1
0 0

0101101
*
Ed
 1e-007 1 1 0
1  20 0 0 1
2  44 6 0 0 1
2  45 14 0 0 1
6  36 18 0
6  37 19 0
0

0101000
-85 0 +82 0 *
Ed
 1e-007 1 1 0
1  5 0 0.5 1
2  9 6 0 0.5 1
2  10 7 0 0.5 1
6  38 19 0
0

0101000
+127 0 -82 0 *
Wi

0101100
-84 0 -83 0 +81 0 +122 0 +80 0 *
Fa
0  1e-007 6 0

0101000
+79 0 *
Ed
 1e-007 1 1 0
1  6 0 0.5 1
2  12 8 0 0.5 1
2  13 1 0 0.5 1
2  46 7 0 0.5 1
6  39 20 0
0

0101000
+121 0 -98 0 *
Ed
 1e-007 1 1 0
1  21 0 0 1
2  47 8 0 0 1
2  48 11 0 0 1
6  40 12 0
6  41 11 0
6  42 15 0
0

0101000
-100 0 +91 0 *
Wi

0101100
-89 0 -120 0 -77 0 +97 0 +76 0 *
Fa
0  1e-007 8 0

0101000
+75 0 *
Ve
1e-007
0.7 0.5 2
0 0

0101101
*
Ed
 1e-007 1 1 0
1  22 0 0 1
2  49 9 0 0 1
2  50 10 0 0 1
4 G1 9 0 10 0
0

0101000
+119 0 -73 0 *
Ed
 1e-007 1 1 0
1  23 0 4.71238898038469 6.28318530717959
2  51 9 0 4.71238898038469 6.28318530717959
2  52 13 0 4.71238898038469 6.28318530717959
0

0101000
+86 0 -73 0 *
Wi

0101100
+118 0 -83 0 +72 0 -71 0 *
Fa
0  0 9 0

0101000
+70 0 *
Ve
1e-007
1.5 0.5 1
0 0

0101101
*
Ed
 1e-007 1 1 0
1  8 0 0.5 1
2  16 10 0 0.5 1
2  17 7 0 0.5 1
6  43 21 0
6  44 20 0
6  45 22 0
0

0101000
+121 0 -68 0 *
Ve
1e-007
1.5 0.5 2
0 0

0101101
*
Ed
 1e-007 1 1 0
1  24 0 0.2 1
2  53 10 0 0.2 1
2  54 13 0 0.2 1
0

0101000
+73 0 -66 0 *
Ed
 1e-007 1 1 0
1  25 0 0 1
2  55 15 0 0 1
2  56 10 0 0 1
6  46 23 0
6  47 21 0
6  48 22 0
0

0101000
-66 0 +68 0 *
Wi

0101100
-117 0 +72 0 -67 0 +65 0 -64 0 *
Fa
0  1e-007 10 0

0101000
+63 0 *
Ve
1e-007
-0.5 0.5 0
0 0

0101101
*
Ed
 1e-007 1 1 0
1  26 0 0 0.5
2  57 16 0 0 0.5
2  58 12 0 0 0.5
6  49 24 0
0

0101000
+61 0 -110 0 *
Ve
1e-007
-0.5 -0.3 0
0 0

0101101
*
Ed
 1e-007 1 1 0
1  27 0 0.2 1
2  59 17 0 0.2 1
2  60 12 0 0.2 1
0

0101000
+59 0 -61 0 *
Ve
1e-007
0.5 -0.5 0
0 0

0101101
*
Ed
 1e-007 1 1 0
1  28 0 0 0.5
2  61 18 0 0 0.5
2  62 12 0 0 0.5
6  50 25 0
6  51 26 0
6  52 27 0
6  53 24 0
0

0101000
+57 0 -93 0 *
Ve
1e-007
-0.3 -0.5 0
0 0

0101101
*
Ed
 1e-007 1 1 0
1  29 0 0 1.5707963267949
2  63 19 0 0 1.5707963267949
2  64 12 0 0 1.5707963267949
0

0101000
+55 0 -59 0 *
Ed
 1e-007 1 1 0
1  30 0 0.2 1
2  65 20 0 0.2 1
2  66 12 0 0.2 1
0

0101000
+55 0 -57 0 *
Wi

0101100
+109 0 -104 0 -60 0 -92 0 -58 0 +56 0 -54 0 +53 0 *
Fa
0  1e-007 12 0

0101000
+52 0 *
Ve
0.0001
0.5 0.5 0
0 0

0101101
*
Ed
 1e-007 1 1 0
1  28 0 0.5 1
2  61 18 0 0.5 1
2  62 12 0 0.5 1
2  67 11 0 0.5 1
6  54 27 0
6  55 15 0
0

0101000
+93 0 -50 0 *
Ed
 1e-007 1 1 0
1  26 0 0.5 1
2  57 16 0 0.5 1
2  58 12 0 0.5 1
2  68 11 0 0.5 1
6  56 28 0
0

0101000
+110 0 -50 0 *
Wi

0101100
-108 0 -99 0 +76 0 +90 0 -49 0 +48 0 *
Fa
0  1e-007 11 0

0101000
+47 0 *
Ve
1e-007
1.5 1.5 1
0 0

0101101
*
Ed
 1e-007 1 1 0
1  31 0 0 1
2  69 14 0 0 1
2  70 7 0 0 1
6  57 29 0
0

0101000
-45 0 +82 0 *
Ed
 1e-007 1 1 0
1  32 0 0 1
2  71 15 0 0 1
2  72 7 0 0 1
6  58 29 0
6  59 20 0
0

0101000
-45 0 +68 0 *
Wi

0101100
-80 0 -44 0 +43 0 +67 0 -77 0 +96 0 *
Fa
0  1e-007 7 0

0101000
+42 0 *
Ve
1e-007
1.5 1.5 2
0 0

0101101
*
Ed
 1e-007 1 1 0
1  33 0 0 1
2  73 14 0 0 1
2  74 13 0 0 1
6  60 30 0
6  61 31 0
0

0101000
-40 0 +85 0 *
Ed
 1e-007 1 1 0
1  34 0 0 1
2  75 15 0 0 1
2  76 13 0 0 1
6  62 31 0
0

0101000
-40 0 +66 0 *
Wi

0101100
-84 0 +71 0 -39 0 +65 0 +38 0 *
Fa
0  1e-007 13 0

0101000
+37 0 *
Ed
 1e-007 1 1 0
1  35 0 0 1
2  77 15 0 0 1
2  78 14 0 0 1
6  63 30 0
0

0101000
-40 0 +45 0 *
Wi

0101100
-44 0 -35 0 +39 0 +81 0 *
Fa
0  1e-007 14 0

0101000
+34 0 *
Wi

0101100
-64 0 -38 0 +35 0 +43 0 *
Fa
0  1e-007 15 0

0101000
+32 0 *
Ve
1e-007
0.5 0.5 -1
0 0

0101101
*
Ve
1e-007
-0.5 0.5 -1
0 0

0101101
*
Ed
 1e-007 1 1 0
1  36 0 0 1
2  79 16 0 0 1
2  80 21 0 0 1
6  64 32 0
6  65 33 0
6  66 34 0
0

0101000
-30 0 +29 0 *
Ed
 1e-007 1 1 0
1  37 0 0 1
2  81 18 0 0 1
2  82 16 0 0 1
6  67 35 0
6  68 32 0
6  69 28 0
0

0101000
-50 0 +30 0 *
Ed
 1e-007 1 1 0
1  38 0 0 1
2  83 17 0 0 1
2  84 16 0 0 1
6  70 32 0
6  71 36 0
0

0101000
-61 0 +29 0 *
Wi

0101100
-28 0 -27 0 +60 0 +48 0 +26 0 *
Fa
0  1e-007 16 0

0101000
+25 0 *
Ve
1e-007
-0.5 -0.3 -1
0 0

0101101
*
Ed
 1e-007 1 1 0
1  39 0 0 1
2  85 19 0 0 1
2  86 17 0 0 1
4 G1 19 0 17 0
0

0101000
+23 0 -59 0 *
Ed
 1e-007 1 1 0
1  40 0 0.2 1
2  87 17 0 0.2 1
2  88 21 0 0.2 1
0

0101000
+23 0 -29 0 *
Wi

0101100
-58 0 -22 0 +26 0 +21 0 *
Fa
0  1e-007 17 0

0101000
+20 0 *
Ve
1e-007
0.5 -0.5 -1
0 0

0101101
*
Ed
 1e-007 1 1 0
1  41 0 0 1
2  89 18 0 0 1
2  90 20 0 0 1
6  72 35 0
6  73 37 0
6  74 27 0
6  75 38 0
0

0101000
-57 0 +18 0 *
Ed
 1e-007 1 1 0
1  42 0 0 1
2  91 18 0 0 1
2  92 21 0 0 1
6  76 35 0
6  77 39 0
6  78 27 0
6  79 34 0
0

0101000
-30 0 +18 0 *
Wi

0101100
-17 0 -56 0 -49 0 +27 0 +16 0 *
Fa
0  1e-007 18 0

0101000
+15 0 *
Ve
1e-007
-0.3 -0.5 -1
0 0

0101101
*
Ed
 1e-007 1 1 0
1  43 0 0 1.5707963267949
2  93 19 0 0 1.5707963267949
2  94 21 0 0 1.5707963267949
0

0101000
+13 0 -23 0 *
Ed
 1e-007 1 1 0
1  44 0 0 1
2  95 19 0 0 1
2  96 20 0 0 1
4 G1 19 0 20 0
0

0101000
+13 0 -55 0 *
Wi

0101100
+12 0 -11 0 +22 0 -54 0 *
Fa
0  0 19 0

0101000
+10 0 *
Ed
 1e-007 1 1 0
1  45 0 0.2 1
2  97 20 0 0.2 1
2  98 21 0 0.2 1
0

0101000
+13 0 -18 0 *
Wi

0101100
-8 0 +11 0 -17 0 +53 0 *
Fa
0  1e-007 20 0

0101000
+7 0 *
Wi

0101100
-21 0 -12 0 -28 0 +8 0 +16 0 *
Fa
0  1e-007 21 0

0101000
+5 0 *
Sh

0101100
+115 0 -106 0 +101 0 +94 0 -87 0 -78 0 +74 0 +69 0 -62 0 +51 0 
-46 0 -41 0 +36 0 +33 0 +31 0 +24 0 -19 0 +14 0 -9 0 -6 0 
-4 0 *
So

0100000
+3 0 *
Co

1100000
+2 0 *

+1 0 