DBRep_DrawableShape

CASCADE Topology V1, (c) Matra-Datavision
Locations 0
Curve2ds 43
1 0 0 1 0 
1 0 0 1 0 
1 -4.7123889803846897 0 1 0 
2 0.80000000000000004 -0.19999999999999998 1 0 0 -1 0.20000000000000001
1 0 0 0 -1 
1 0 0 0 1 
1 1 0 0 -1 
1 0 0 0 1 
1 0 -1 1 0 
1 0 0 1 0 
1 0 0 0 1 
1 0 0 1 0 
1 1.5707963267948966 0 0 1 
1 0 0.80000000000000004 1 0 
1 0 0 0 1 
1 0.80000000000000004 0 0 1 
1 1.5707963267948966 0 0 1 
1 0 0.19999999999999998 1 0 
8 4.7123889803846897 6.2831853071795862
1 -4.7123889803846897 0.80000000000000004 1 0 
8 4.7123889803846897 6.2831853071795862
1 0 -6.2831853071795862 0 1 
1 0 0 0 -1 
1 1 0 0 1 
1 -4.7123889803846897 0 1 0 
2 0.80000000000000004 0.19999999999999998 0 -1 -1 -0 0.20000000000000001
1 0 0 0 1 
1 0 1 1 0 
1 1 0 0 1 
1 0 1 1 0 
1 1.5707963267948966 0 0 1 
1 0.80000000000000004 0 0 1 
1 0 -1 1 0 
1 0 1 1 0 
1 -4.7123889803846897 1 1 0 
2 0.80000000000000004 0.80000000000000004 1 0 0 -1 0.20000000000000001
1 0 0 0 1 
1 0 -0.19999999999999998 1 0 
8 4.7123889803846897 6.2831853071795862
1 6.2831853071795862 0.80000000000000004 -1 -0 
8 4.7123889803846897 6.2831853071795862
1 1.5707963267948966 -6.2831853071795862 0 1 
1 0 -1.5707963267948966 1 0 
1 1.5707963267948966 0.20000000000000001 -1 -0 
1 0 0 1 0 
1 0 0 0 1 
1 0.80000000000000004 0 0 -1 
Curves 21
1 0 0 0 0 0 1 
8 4.7123889803846897 6.2831853071795862
2 0 0.19999999999999998 0.80000000000000004 -1 -0 0 0 0 1 -0 1 0 0.20000000000000001
1 0 0 0 -0 1 0 
1 0 0 1 -0 1 0 
1 0 1 0 0 0 1 
1 0 0 0 1 0 -0 
1 0.80000000000000004 -2.7755575615628914e-017 0 0 0 1 
1 0 -2.7755575615628914e-017 0.80000000000000004 1 0 -0 
1 0 0.19999999999999998 1 1 0 -0 
2 0.80000000000000004 0.20000000000000001 0.80000000000000004 -1 -0 0 0 0 1 -0 1 0 0.20000000000000001
1 1 0 0 -0 1 0 
8 4.7123889803846897 6.2831853071795862
2 0.80000000000000004 0.19999999999999998 0 -0 -0 -1 0 -1 0 -1 0 0 0.20000000000000001
1 0 1 0 1 0 -0 
1 0 1 1 1 0 -0 
1 0.80000000000000004 0 1 0 1 0 
1 1 1 0 0 0 1 
8 4.7123889803846897 6.2831853071795862
2 0.80000000000000004 1 0.80000000000000004 -0 -1 -0 0 -0 1 -1 0 0 0.20000000000000001
1 1 0.19999999999999998 0 0 0 1 
2 0.80000000000000004 0.20000000000000001 0.80000000000000004 -6.123233995736766e-017 -0 1 1 0 6.123233995736766e-017 -0 1 0 0.20000000000000001
2 0.80000000000000004 0.20000000000000001 0.80000000000000004 -0 1 0 0 0 1 1 0 -0 0.20000000000000001
1 1 0 0.80000000000000004 0 1 0 
Polygon3D 0
PolygonOnTriangulations 0
Surfaces 10
1 0 0 0 1 0 -0 0 0 1 0 -1 0 
1 0 0 0 -0 1 0 0 0 1 1 0 -0 
2 0 0.19999999999999998 0.80000000000000004 1 0 -0 0 -1 0 -0 0 1 0.20000000000000001
1 0 0 0 0 0 1 1 0 -0 -0 1 0 
1 0 0 1 0 0 1 1 0 -0 -0 1 0 
1 0 1 0 -0 1 0 0 0 1 1 0 -0 
2 0.80000000000000004 0.19999999999999998 0 0 0 1 1 0 -0 0 -1 -0 0.20000000000000001
4 0.80000000000000004 0.20000000000000001 0.80000000000000004 -0 1 0 0 0 1 1 0 -0 0.20000000000000001
1 1 0 0 1 0 -0 0 0 1 0 -1 0 
2 0.80000000000000004 0 0.80000000000000004 0 1 0 1 0 -0 0 -0 1 0.20000000000000001
Triangulations 0

TShapes 58
Ve
1e-007
0 -2.77555756156289e-017 0.8
0 0

0101101
*
Ve
1e-007
0 0 0
0 0

0101101
*
Ed
 1e-007 1 1 0
1  1 0 0 0.8
2  1 1 0 0 0.8
2  2 2 0 0 0.8
0

0101000
-58 0 +57 0 *
Ve
1e-007
0 0.2 1
0 0

0101101
*
Ed
 1e-007 1 1 0
1  2 0 4.71238898038469 6.28318530717959
2  3 3 0 4.71238898038469 6.28318530717959
2  4 1 0 4.71238898038469 6.28318530717959
0

0101000
+58 0 -55 0 *
Ve
1e-007
0 1 0
0 0

0101101
*
Ed
 1e-007 1 1 0
1  3 0 0 1
2  5 1 0 0 1
2  6 4 0 0 1
0

0101000
-53 0 +57 0 *
Ve
1e-007
0 1 1
0 0

0101101
*
Ed
 1e-007 1 1 0
1  4 0 0.2 1
2  7 1 0 0.2 1
2  8 5 0 0.2 1
0

0101000
+55 0 -51 0 *
Ed
 1e-007 1 1 0
1  5 0 0 1
2  9 1 0 0 1
2  10 6 0 0 1
0

0101000
-51 0 +53 0 *
Wi

0101100
-56 0 -54 0 +52 0 -50 0 +49 0 *
Fa
0  1e-007 1 0

0101000
+48 0 *
Ve
1e-007
0.8 -2.77555756156289e-017 0
0 0

0101101
*
Ed
 1e-007 1 1 0
1  6 0 0 0.8
2  11 2 0 0 0.8
2  12 4 0 0 0.8
0

0101000
-46 0 +57 0 *
Ve
1e-007
0.8 0 0.8
0 0

0101101
*
Ed
 1e-007 1 1 0
1  7 0 0 0.8
2  13 7 0 0 0.8
2  14 2 0 0 0.8
4 G1 7 0 2 0
0

0101000
+46 0 -44 0 *
Ed
 1e-007 1 1 0
1  8 0 0 0.8
2  15 3 0 0 0.8
2  16 2 0 0 0.8
4 G1 3 0 2 0
0

0101000
+58 0 -44 0 *
Wi

0101100
-45 0 -43 0 +56 0 +42 0 *
Fa
0  1e-007 2 0

0101000
+41 0 *
Ve
1e-007
0.8 0.2 1
0 0

0101101
*
Ed
 1e-007 1 1 0
1  9 0 0 0.8
2  17 3 0 0 0.8
2  18 5 0 0 0.8
4 G1 3 0 5 0
0

0101000
+55 0 -39 0 *
Ed
 1e-007 1 1 0
1  10 0 4.71238898038469 6.28318530717959
2  19 3 0 4.71238898038469 6.28318530717959
2  20 8 0 4.71238898038469 6.28318530717959
4 G1 8 0 3 0
0

0101000
+44 0 -39 0 *
Wi

0101100
+54 0 -42 0 +38 0 -37 0 *
Fa
0  0 3 0

0101000
+36 0 *
Ve
1e-007
1 0.2 0
0 0

0101101
*
Ve
1e-007
1 1 0
0 0

0101101
*
Ed
 1e-007 1 1 0
1  11 0 0.2 1
2  21 9 0 0.2 1
2  22 4 0 0.2 1
0

0101000
+34 0 -33 0 *
Ed
 1e-007 1 1 0
1  12 0 4.71238898038469 6.28318530717959
2  23 7 0 4.71238898038469 6.28318530717959
2  24 4 0 4.71238898038469 6.28318530717959
0

0101000
+34 0 -46 0 *
Ed
 1e-007 1 1 0
1  13 0 0 1
2  25 6 0 0 1
2  26 4 0 0 1
0

0101000
-33 0 +53 0 *
Wi

0101100
+32 0 -31 0 -30 0 +45 0 -52 0 *
Fa
0  1e-007 4 0

0101000
+29 0 *
Ve
1e-007
0.8 1 1
0 0

0101101
*
Ed
 1e-007 1 1 0
1  14 0 0 0.8
2  27 6 0 0 0.8
2  28 5 0 0 0.8
0

0101000
-27 0 +51 0 *
Ed
 1e-007 1 1 0
1  15 0 0.2 1
2  29 10 0 0.2 1
2  30 5 0 0.2 1
4 G1 10 0 5 0
0

0101000
+39 0 -27 0 *
Wi

0101100
-50 0 +38 0 -26 0 +25 0 *
Fa
0  1e-007 5 0

0101000
+24 0 *
Ve
1e-007
1 1 0.8
0 0

0101101
*
Ed
 1e-007 1 1 0
1  16 0 0 0.8
2  31 9 0 0 0.8
2  32 6 0 0 0.8
0

0101000
-22 0 +33 0 *
Ed
 1e-007 1 1 0
1  17 0 4.71238898038469 6.28318530717959
2  33 10 0 4.71238898038469 6.28318530717959
2  34 6 0 4.71238898038469 6.28318530717959
0

0101000
+22 0 -27 0 *
Wi

0101100
-21 0 -20 0 -30 0 +26 0 +49 0 *
Fa
0  1e-007 6 0

0101000
+19 0 *
Ve
1e-007
1 0.2 0.8
0 0

0101101
*
Ed
 1e-007 1 1 0
1  18 0 0 0.8
2  35 7 0 0 0.8
2  36 9 0 0 0.8
4 G1 7 0 9 0
0

0101000
+34 0 -17 0 *
Ed
 1e-007 1 1 0
1  19 0 4.71238898038469 6.28318530717959
2  37 7 0 4.71238898038469 6.28318530717959
2  38 8 0 4.71238898038469 6.28318530717959
4 G1 8 0 7 0
0

0101000
+44 0 -17 0 *
Wi

0101100
+31 0 -16 0 +43 0 +15 0 *
Fa
0  0 7 0

0101000
+14 0 *
Ed
 1e-007 1 1 1
2  39 8 0 0 1.5707963267949
0

0101000
+44 0 -44 0 *
Ed
 1e-007 1 1 0
1  20 0 0 1.5707963267949
2  40 10 0 0 1.5707963267949
2  41 8 0 0 1.5707963267949
4 G1 8 0 10 0
0

0101000
+39 0 -17 0 *
Wi

0101100
-37 0 +12 0 +15 0 -11 0 *
Fa
0  0 8 0

0101000
+10 0 *
Ed
 1e-007 1 1 0
1  21 0 0.2 1
2  42 10 0 0.2 1
2  43 9 0 0.2 1
4 G1 10 0 9 0
0

0101000
+17 0 -22 0 *
Wi

0101100
+21 0 -8 0 +32 0 -16 0 *
Fa
0  1e-007 9 0

0101000
+7 0 *
Wi

0101100
-8 0 -11 0 -20 0 +25 0 *
Fa
0  0 10 0

0101000
+5 0 *
Sh

0101100
-47 0 -40 0 -35 0 -28 0 +23 0 +18 0 -13 0 +9 0 +6 0 -4 0 
*
So

0100000
+3 0 *
Co

1100000
+2 0 *

+1 0 
0

