DBRep_DrawableShape

CASCADE Topology V1, (c) Matra-Datavision
Locations 0
Curve2ds 87
1 0 0 1 0 
1 0 0 1 0 
1 -1.5707963267948966 0 1 0 
2 0.49999999999999989 0.5 1 0 0 -1 0.5
1 0 0 1 0 
2 2.5 -0.5 1 0 -0 1 0.5
1 0 0.75 0 1 
1 1.5 0.75 0 -1 
1 3 0 0 -1 
1 0 0 0 1 
1 0 0 0 -1 
1 0 0 0 1 
1 1.5 1.5 0 1 
1 0 -3 1 0 
1 0 0 1 0 
1 1.5707963267948966 0 0 1 
1 0 2.5 1 0 
1 0 0 0 1 
1 0.49999999999999989 0 0 1 
1 1.5707963267948966 0 0 1 
1 2.5 0 0 1 
1 1.5707963267948966 0 0 1 
1 1.5 1 1 0 
8 0 1.5707963267948966
1 0 2.5 1 0 
8 0 1.5707963267948966
1 -4.4408920985006262e-016 3.1415926535897931 0 1 
1 0 0 0 1 
1 0 0.5 1 0 
1 0 2.5 1 0 
1 0 0 1 0 
1 0 0 0 1 
1 0 3 1 0 
1 1.5 4.5 1 0 
1 0 4.7123889803846897 1 0 
2 4 2 0 -1 1 0 1
1 0 -0.75 0 1 
1 0.75 4.5 1 0 
1 1.5707963267948966 0 0 1 
1 5 2 0 1 
1 3 0 0 -1 
1 0 0 0 1 
1 3 0 0 1 
1 0 6 1 0 
1 3 0 0 1 
1 0 0 1 0 
1 3 0 0 -1 
1 6 0 0 1 
1 3 0 0 1 
1 0 3 1 0 
1 0 0 0 1 
1 2.5 0 0 1 
1 0 -3 1 0 
1 0 3 1 0 
1 -1.5707963267948966 2.5 1 0 
2 0.49999999999999989 3.5 1 0 0 -1 0.5
1 0 3 1 0 
2 2.5 2.5 1 0 -0 1 0.5
1 0 0 0 1 
1 0 -0.5 1 0 
1 0 3.1415926535897931 1 0 
1 1.5707963267948961 0.5 -1 -0 
8 4.7123889803846897 6.2831853071795862
1 -4.7123889803846897 2.5 1 0 
8 4.7123889803846897 6.2831853071795862
1 1.5707963267948966 -6.2831853071795862 0 1 
8 3.1415926535897931 4.7123889803846897
1 1.5707963267948961 0 0 1 
8 3.1415926535897931 4.7123889803846897
1 -3.1415926535897931 0 1 0 
8 4.7123889803846897 6.2831853071795862
1 6.2831853071795862 0.5 -1 -0 
8 4.7123889803846897 6.2831853071795862
1 0 -6.2831853071795862 0 1 
1 0 -1.5707963267948966 1 0 
1 0 0 0 1 
1 0.49999999999999989 -0.5 0 -1 
1 0 0 1 0 
1 0 0 1 0 
1 0 -6 1 0 
1 0 0 1 0 
1 0 0 0 -1 
1 0 0 0 1 
1 0 0 0 1 
1 0 6 1 0 
1 0 -6 1 0 
1 0 6 1 0 
1 0 0 0 1 
1 0 0 1 0 
1 0 0 1 0 
1 0 6 1 0 
1 0 0 0 -1 
1 6 0 0 1 
1 1.5707963267948966 0 0 1 
1 2.5 0 0 -1 
Curves 42
1 -1.5 -1.5 0 0 0 1 
8 1.5707963267948966 3.1415926535897931
2 -1.5 -2 0.49999999999999989 -1 -0 0 0 0 1 -0 1 0 0.5
8 0 1.5707963267948966
2 -1.5 -1 2.5 1 0 -0 0 0 1 0 -1 0 0.5
8 -0.75 -0.25
1 -1.5 -2.25 0 0 -1 -0 
1 -1.5 -1.5 3 -0 1 0 
1 -1.5 -1.5 0 -0 1 0 
1 -1.5 1.5 0 0 0 1 
1 1 -1.5 0 0 0 1 
1 -1.5 -1.5 0.49999999999999989 1 0 -0 
1 -1.5 -1.5 2.5 1 0 -0 
1 -1.5 -2 -1.1102230246251565e-016 1 0 -0 
2 1 -2 0.49999999999999989 -1 -0 0 0 1 0 -0 0 -1 0.5
1 -1.5 -1 3 1 0 -0 
2 1 -1 2.5 1 0 -0 0 0 1 0 -1 0 0.5
1 -1.5 1.5 0 1 0 -0 
2 1 -1 0 0 0 1 4.4408920985006262e-016 -1 0 1 4.4408920985006262e-016 -0 1
8 3.75 4.25
1 -2.25 1.5 0 1 0 -0 
1 2 -1 -1.1102230246251565e-016 -0 1 0 
1 -3 -3 0 -0 1 0 
1 -3 3 0 1 0 -0 
1 -3 -3 0 1 0 -0 
1 3 -3 0 0 1 0 
1 -1.5 1.5 3 1 0 -0 
1 1 -1.5 3 0 1 0 
1 1.5 1.5 0 0 0 1 
8 1.5707963267948966 3.1415926535897931
2 2 1.5 0.49999999999999989 0 -1 -0 0 0 1 -1 -0 0 0.5
8 0 1.5707963267948966
2 1 1.5 2.5 0 1 0 0 -0 1 1 0 -0 0.5
1 1.5 -1 0 0 0 1 
2 1 -1 0.5 0 0 1 4.4408920985006262e-016 -1 0 1 4.4408920985006262e-016 -0 0.5
2 1 -1 2.5 0 -6.123233995736766e-017 -1 0 -1 6.123233995736766e-017 -1 -0 0 0.5
2 2 -1 0.5 -6.1232339957367673e-017 -1 0 1 -6.1232339957367673e-017 0 0 0 1 0.5
2 1 -1 2.5 0 -1 0 0 0 1 -1 0 0 0.5
1 1.5 -1 0.49999999999999989 -0 1 0 
1 -3 -3 -3 0 0 1 
1 -3 3 -3 0 0 1 
1 -3 -3 -3 -0 1 0 
1 -3 3 -3 1 0 -0 
1 3 3 -3 0 0 1 
1 -3 -3 -3 1 0 -0 
1 3 -3 -3 0 0 1 
1 3 -3 -3 -0 1 0 
1 1.5 -1.5 2.5 0 1 0 
Polygon3D 0
PolygonOnTriangulations 0
Surfaces 19
1 -1.5 -1.5 0 1 0 -0 0 0 1 0 -1 0 
1 -1.5 -1.5 0 -0 1 0 0 0 1 1 0 -0 
2 -1.5 -2 0.49999999999999989 1 0 -0 0 1 0 -0 0 -1 0.5
2 -1.5 -1 2.5 1 0 -0 0 0 1 0 -1 0 0.5
1 -3 -3 0 0 0 1 1 0 -0 -0 1 0 
1 -1.5 -1.5 3 0 0 1 1 0 -0 -0 1 0 
1 -1.5 -1.5 0 0 0 1 1 0 -0 -0 1 0 
1 -1.5 1.5 0 -0 1 0 0 0 1 1 0 -0 
2 1 -1 0 0 0 1 1 0 -0 0 -1 -0 0.5
5 1 -1 0.5 0 0 1 4.4408920985006262e-016 -1 0 1 4.4408920985006262e-016 -0 1 0.5
4 1 -1 2.5 -1 -0 0 0 0 1 0 -1 -0 0.5
2 2 -1 0.49999999999999989 -0 1 0 -1 -0 0 -0 -0 -1 0.5
1 -3 -3 -3 1 0 -0 0 0 1 0 -1 0 
1 -3 3 -3 -0 1 0 0 0 1 1 0 -0 
1 -3 -3 -3 -0 1 0 0 0 1 1 0 -0 
1 3 -3 -3 1 0 -0 0 0 1 0 -1 0 
2 1 -1.5 2.5 0 1 0 0 -0 1 1 0 -0 0.5
1 1.5 -1.5 0 1 0 -0 0 0 1 0 -1 0 
1 -3 -3 -3 0 0 1 1 0 -0 -0 1 0 
Triangulations 0

TShapes 110
Ve
1e-007
-1.5 -1.5 0.5
0 0

0101101
*
Ve
1e-007
-1.5 -1.5 2.5
0 0

0101101
*
Ed
 1e-007 1 1 0
1  1 0 0.5 2.5
2  1 1 0 0.5 2.5
2  2 2 0 0.5 2.5
0

0101000
+110 0 -109 0 *
Ve
0.0001
-1.5 -2 -1.11022302462516e-016
0 0

0101101
*
Ed
 1e-007 1 1 0
1  2 0 1.5707963267949 3.14159265358979
2  3 3 0 1.5707963267949 3.14159265358979
2  4 1 0 1.5707963267949 3.14159265358979
0

0101000
+110 0 -107 0 *
Ve
1e-007
-1.5 -1 3
0 0

0101101
*
Ed
 1e-007 1 1 0
1  3 0 0 1.5707963267949
2  5 4 0 0 1.5707963267949
2  6 1 0 0 1.5707963267949
0

0101000
+105 0 -109 0 *
Ve
0.0001
-1.5 -1.5 0
0 0

0101101
*
Ed
 0.0001 1 1 0
1  4 0 -0.75 -0.25
2  7 1 0 -0.75 -0.25
2  8 5 0 -0.75 -0.25
0

0101000
+103 0 -107 0 *
Ve
1e-007
-1.5 1.5 3
0 0

0101101
*
Ed
 1e-007 1 1 0
1  5 0 0.5 3
2  9 1 0 0.5 3
2  10 6 0 0.5 3
0

0101000
+105 0 -101 0 *
Ve
1e-007
-1.5 1.5 0
0 0

0101101
*
Ed
 1e-007 1 1 0
1  6 0 0 3
2  11 1 0 0 3
2  12 7 0 0 3
2  13 5 0 0 3
0

0101000
-99 0 +103 0 *
Ed
 1e-007 1 1 0
1  7 0 0 3
2  14 1 0 0 3
2  15 8 0 0 3
0

0101000
-101 0 +99 0 *
Wi

0101100
-108 0 +106 0 +104 0 -102 0 -100 0 +98 0 +97 0 *
Fa
0  1e-007 1 0

0101000
+96 0 *
Ve
1e-007
1 -1.5 0.5
0 0

0101101
*
Ve
1e-007
1 -1.5 2.5
0 0

0101101
*
Ed
 1e-007 1 1 0
1  8 0 0.5 2.5
2  16 9 0 0.5 2.5
2  17 2 0 0.5 2.5
4 G1 9 0 2 0
0

0101000
+94 0 -93 0 *
Ed
 1e-007 1 1 0
1  9 0 0 2.5
2  18 3 0 0 2.5
2  19 2 0 0 2.5
4 G1 3 0 2 0
0

0101000
+110 0 -94 0 *
Ed
 1e-007 1 1 0
1  10 0 0 2.5
2  20 4 0 0 2.5
2  21 2 0 0 2.5
4 G1 4 0 2 0
0

0101000
+109 0 -93 0 *
Wi

0101100
-92 0 -91 0 +90 0 +108 0 *
Fa
0  1e-007 2 0

0101000
+89 0 *
Ve
1e-007
1 -2 -1.11022302462516e-016
0 0

0101101
*
Ed
 1e-007 1 1 0
1  11 0 -0 2.5
2  22 3 0 -0 2.5
2  23 5 0 -0 2.5
4 G1 3 0 5 0
0

0101000
+107 0 -87 0 *
Ed
 1e-007 1 1 0
1  12 0 0 1.5707963267949
2  24 3 0 0 1.5707963267949
2  25 10 0 0 1.5707963267949
4 G1 3 0 10 0
0

0101000
+94 0 -87 0 *
Wi

0101100
+106 0 -91 0 +86 0 -85 0 *
Fa
0  0 3 0

0101000
+84 0 *
Ve
1e-007
1 -1 3
0 0

0101101
*
Ed
 1e-007 1 1 0
1  13 0 0 2.5
2  26 4 0 0 2.5
2  27 6 0 0 2.5
4 G1 4 0 6 0
0

0101000
+105 0 -82 0 *
Ed
 1e-007 1 1 0
1  14 0 0 1.5707963267949
2  28 4 0 0 1.5707963267949
2  29 11 0 0 1.5707963267949
4 G1 11 0 4 0
0

0101000
+82 0 -93 0 *
Wi

0101100
+104 0 -81 0 +90 0 -80 0 *
Fa
0  0 4 0

0101000
+79 0 *
Ve
0.0001
1.5 1.5 0
0 0

0101101
*
Ed
 1e-007 1 1 0
1  15 0 0 3
2  30 8 0 0 3
2  31 7 0 0 3
2  32 5 0 0 3
0

0101000
-77 0 +99 0 *
Ve
1e-007
2 -1 0
0 0

0101101
*
Ed
 1e-007 1 1 0
1  16 0 -4.44089209850063e-016 1.5707963267949
2  33 10 0 -4.44089209850063e-016 1.5707963267949
2  34 5 0 -4.44089209850063e-016 1.5707963267949
4 G1 10 0 5 0
0

0101000
+87 0 -75 0 *
Ve
0.0001
2 1.5 -1.11022302462516e-016
0 0

0101101
*
Ed
 0.0001 1 1 0
1  17 0 3.75 4.25
2  35 8 0 3.75 4.25
2  36 5 0 3.75 4.25
0

0101000
+77 0 -73 0 *
Ed
 1e-007 1 1 0
1  18 0 -0 2.5
2  37 12 0 -0 2.5
2  38 5 0 -0 2.5
4 G1 12 0 5 0
0

0101000
+75 0 -73 0 *
Wi

0101100
-102 0 +98 0 -86 0 +76 0 -74 0 +72 0 -71 0 *
Ve
1e-007
-3 3 0
0 0

0101101
*
Ve
1e-007
-3 -3 0
0 0

0101101
*
Ed
 1e-007 1 1 0
1  19 0 0 6
2  39 13 0 0 6
2  40 5 0 0 6
0

0101000
-69 0 +68 0 *
Ve
1e-007
3 3 0
0 0

0101101
*
Ed
 1e-007 1 1 0
1  20 0 0 6
2  41 14 0 0 6
2  42 5 0 0 6
0

0101000
-66 0 +69 0 *
Ve
1e-007
3 -3 0
0 0

0101101
*
Ed
 1e-007 1 1 0
1  21 0 0 6
2  43 15 0 0 6
2  44 5 0 0 6
0

0101000
-64 0 +68 0 *
Ed
 1e-007 1 1 0
1  22 0 0 6
2  45 16 0 0 6
2  46 5 0 0 6
0

0101000
-66 0 +64 0 *
Wi

0101100
-67 0 -65 0 +63 0 +62 0 *
Fa
0  1e-007 5 0

0101000
+70 0 +61 0 *
Ve
1e-007
1 1.5 3
0 0

0101101
*
Ed
 1e-007 1 1 0
1  23 0 0 2.5
2  47 8 0 0 2.5
2  48 6 0 0 2.5
0

0101000
-59 0 +101 0 *
Ed
 1e-007 1 1 0
1  24 0 0.5 3
2  49 17 0 0.5 3
2  50 6 0 0.5 3
4 G1 17 0 6 0
0

0101000
+82 0 -59 0 *
Wi

0101100
-100 0 +81 0 -58 0 +57 0 *
Fa
0  1e-007 6 0

0101000
+56 0 *
Ve
1e-007
1.5 1.5 0.5
0 0

0101101
*
Ve
1e-007
1.5 1.5 2.5
0 0

0101101
*
Ed
 1e-007 1 1 0
1  25 0 0.5 2.5
2  51 18 0 0.5 2.5
2  52 8 0 0.5 2.5
0

0101000
+54 0 -53 0 *
Ed
 1e-007 1 1 0
1  26 0 1.5707963267949 3.14159265358979
2  53 12 0 1.5707963267949 3.14159265358979
2  54 8 0 1.5707963267949 3.14159265358979
0

0101000
+54 0 -73 0 *
Ed
 1e-007 1 1 0
1  27 0 0 1.5707963267949
2  55 17 0 0 1.5707963267949
2  56 8 0 0 1.5707963267949
0

0101000
+59 0 -53 0 *
Wi

0101100
-52 0 +51 0 +50 0 -72 0 +58 0 -76 0 +97 0 *
Fa
0  1e-007 8 0

0101000
+49 0 *
Ve
1e-007
1.5 -1 0.5
0 0

0101101
*
Ve
1e-007
1.5 -1 2.5
0 0

0101101
*
Ed
 1e-007 1 1 0
1  28 0 0.5 2.5
2  57 9 0 0.5 2.5
2  58 18 0 0.5 2.5
4 G1 9 0 18 0
0

0101000
+47 0 -46 0 *
Ed
 1e-007 1 1 0
1  29 0 -4.44089209850063e-016 1.5707963267949
2  59 10 0 -4.44089209850063e-016 1.5707963267949
2  60 9 0 -4.44089209850063e-016 1.5707963267949
4 G1 10 0 9 0
0

0101000
+94 0 -47 0 *
Ed
 1e-007 1 1 0
1  30 0 4.71238898038469 6.28318530717959
2  61 9 0 4.71238898038469 6.28318530717959
2  62 11 0 4.71238898038469 6.28318530717959
4 G1 11 0 9 0
0

0101000
+46 0 -93 0 *
Wi

0101100
-45 0 -44 0 -43 0 +92 0 *
Fa
0  0 9 0

0101000
+42 0 *
Ed
 1e-007 1 1 0
1  31 0 3.14159265358979 4.71238898038469
2  63 10 0 3.14159265358979 4.71238898038469
2  64 12 0 3.14159265358979 4.71238898038469
4 G1 10 0 12 0
0

0101000
+47 0 -75 0 *
Wi

0101100
-85 0 +44 0 -74 0 +40 0 *
Fa
0  0 10 0

0101000
+39 0 *
Ed
 1e-007 1 1 0
1  32 0 4.71238898038469 6.28318530717959
2  65 17 0 4.71238898038469 6.28318530717959
2  66 11 0 4.71238898038469 6.28318530717959
4 G1 11 0 17 0
0

0101000
+46 0 -82 0 *
Ed
 1e-007 1 1 1
2  67 11 0 0 1.5707963267949
0

0101000
+46 0 -46 0 *
Wi

0101100
-37 0 +36 0 +43 0 -80 0 *
Fa
0  0 11 0

0101000
+35 0 *
Ed
 1e-007 1 1 0
1  33 0 -0 2.5
2  68 12 0 -0 2.5
2  69 18 0 -0 2.5
4 G1 12 0 18 0
0

0101000
+47 0 -54 0 *
Wi

0101100
+40 0 -33 0 +71 0 -51 0 *
Fa
0  0 12 0

0101000
+32 0 *
Ve
1e-007
-3 -3 -3
0 0

0101101
*
Ed
 1e-007 1 1 0
1  34 0 0 3
2  70 13 0 0 3
2  71 15 0 0 3
0

0101000
-68 0 +30 0 *
Ve
1e-007
-3 3 -3
0 0

0101101
*
Ed
 1e-007 1 1 0
1  35 0 0 3
2  72 13 0 0 3
2  73 14 0 0 3
0

0101000
-69 0 +28 0 *
Ed
 1e-007 1 1 0
1  36 0 0 6
2  74 13 0 0 6
2  75 19 0 0 6
0

0101000
-28 0 +30 0 *
Wi

0101100
-29 0 -67 0 +27 0 +26 0 *
Fa
0  1e-007 13 0

0111000
+25 0 *
Ve
1e-007
3 3 -3
0 0

0101101
*
Ed
 1e-007 1 1 0
1  37 0 0 6
2  76 14 0 0 6
2  77 19 0 0 6
0

0101000
-23 0 +28 0 *
Ed
 1e-007 1 1 0
1  38 0 0 3
2  78 16 0 0 3
2  79 14 0 0 3
0

0101000
-66 0 +23 0 *
Wi

0101100
-22 0 -21 0 +65 0 +27 0 *
Fa
0  1e-007 14 0

0111000
+20 0 *
Ve
1e-007
3 -3 -3
0 0

0101101
*
Ed
 1e-007 1 1 0
1  39 0 0 6
2  80 15 0 0 6
2  81 19 0 0 6
0

0101000
-18 0 +30 0 *
Ed
 1e-007 1 1 0
1  40 0 0 3
2  82 16 0 0 3
2  83 15 0 0 3
0

0101000
-64 0 +18 0 *
Wi

0101100
-17 0 -16 0 +63 0 +29 0 *
Fa
0  1e-007 15 0

0111000
+15 0 *
Ed
 1e-007 1 1 0
1  41 0 0 6
2  84 16 0 0 6
2  85 19 0 0 6
0

0101000
-23 0 +18 0 *
Wi

0101100
-16 0 -62 0 +21 0 +13 0 *
Fa
0  1e-007 16 0

0111000
+12 0 *
Ed
 1e-007 1 1 0
1  42 0 0.5 3
2  86 17 0 0.5 3
2  87 18 0 0.5 3
4 G1 17 0 18 0
0

0101000
+46 0 -53 0 *
Wi

0101100
-37 0 +10 0 -57 0 -50 0 *
Fa
0  0 17 0

0101000
+9 0 *
Wi

0101100
-45 0 +33 0 -10 0 +52 0 *
Fa
0  1e-007 18 0

0101000
+7 0 *
Wi

0101100
-26 0 -22 0 +13 0 +17 0 *
Fa
0  1e-007 19 0

0111000
+5 0 *
Sh

0101100
-95 0 -88 0 +83 0 +78 0 +60 0 +55 0 +48 0 -41 0 -38 0 -34 0 
+31 0 -24 0 +19 0 -14 0 +11 0 +8 0 +6 0 -4 0 *
So

0100000
+3 0 *
Co

1100000
+2 0 *

+1 0 
0

