DBRep_DrawableShape

CASCADE Topology V1, (c) Matra-Datavision
Locations 0
Curve2ds 74
1 0 0 0 1 
1 0 -0.5 1 0 
1 0 0 0 1 
1 0.49999999999999989 -0.5 0 -1 
1 3 0 0 -1 
1 3 0 0 1 
1 0 -3 1 0 
1 0 3 1 0 
1 0 3.1415926535897931 1 0 
1 1.5707963267948961 0.5 -1 -0 
1 -4.7123889803846897 3 1 0 
2 2.5 0.5 0 -1 -1 -0 0.5
1 1.5707963267948966 0 0 1 
1 0 2.5 1 0 
8 3.1415926535897931 4.7123889803846897
1 1.5707963267948961 0 0 1 
8 3.1415926535897931 4.7123889803846897
1 -3.1415926535897931 0 1 0 
1 1.5707963267948966 0 0 1 
1 5 2 0 1 
1 -1.5707963267948966 2.5 1 0 
2 0.49999999999999989 3.5 1 0 0 -1 0.5
1 3 0 0 1 
1 0 3 1 0 
1 3 0 0 1 
1 0 0 1 0 
1 3 0 0 -1 
1 0 0 0 1 
1 0 -0.75 0 1 
1 0.75 4.5 1 0 
1 0 -3 1 0 
1 0 0 1 0 
1 0 0 0 1 
1 0 3 1 0 
1 1.5 4.5 1 0 
8 0 1.5707963267948966
1 0 2.5 1 0 
8 0 1.5707963267948966
1 -4.4408920985006262e-016 3.1415926535897931 0 1 
1 0 4.7123889803846897 1 0 
2 4 2 0 -1 1 0 1
1 0 0 0 1 
1 0.49999999999999989 0 0 1 
1 0 0 1 0 
1 0 0 1 0 
1 0 0.75 0 1 
1 1.5 0.75 0 -1 
1 0 0 0 -1 
1 0 0 0 1 
1 1.5 1.5 0 1 
1 1.5707963267948966 0 0 1 
1 1.5 1 1 0 
1 3 0 0 -1 
1 0 0 0 1 
1 3 0 0 1 
1 0 6 1 0 
1 3 0 0 1 
1 0 0 1 0 
1 3 0 0 -1 
1 6 0 0 1 
1 -1.5707963267948966 0 1 0 
2 0.49999999999999989 0.5 1 0 0 -1 0.5
1 0 0 1 0 
1 0 0 1 0 
1 0 -6 1 0 
1 0 0 1 0 
1 0 0 0 -1 
1 0 0 0 1 
1 0 0 0 1 
1 0 6 1 0 
1 0 -6 1 0 
1 0 6 1 0 
1 0 0 0 1 
1 0 0 1 0 
1 0 0 1 0 
1 0 6 1 0 
1 0 0 0 -1 
1 6 0 0 1 
Curves 36
1 1.5 -1 0 0 0 1 
1 1.5 -1 0.49999999999999989 -0 1 0 
1 1.5 -1.5 3 0 1 0 
1 1.5 1.5 0 0 0 1 
2 1 -1 0.5 0 0 1 4.4408920985006262e-016 -1 0 1 4.4408920985006262e-016 -0 0.5
8 4.7123889803846897 6.2831853071795862
2 1 -1 3 -0 -0 -1 0 -1 0 -1 0 0 0.5
1 1 -1.5 0 0 0 1 
2 2 -1 0.5 -6.1232339957367673e-017 -1 0 1 -6.1232339957367673e-017 0 0 0 1 0.5
1 2 -1 -1.1102230246251565e-016 -0 1 0 
8 1.5707963267948966 3.1415926535897931
2 2 1.5 0.49999999999999989 0 -1 -0 0 0 1 -1 -0 0 0.5
1 -1.5 1.5 3 1 0 -0 
1 -1.5 -1.5 3 1 0 -0 
1 -1.5 -1.5 3 -0 1 0 
8 3.75 4.25
1 -2.25 1.5 0 1 0 -0 
1 -1.5 1.5 0 0 0 1 
1 -1.5 1.5 0 1 0 -0 
2 1 -2 0.49999999999999989 -1 -0 0 0 1 0 -0 0 -1 0.5
2 1 -1 0 0 0 1 4.4408920985006262e-016 -1 0 1 4.4408920985006262e-016 -0 1
1 -1.5 -1.5 0.49999999999999989 1 0 -0 
1 -1.5 -1.5 0 0 0 1 
8 -0.75 -0.25
1 -1.5 -2.25 0 0 -1 -0 
1 -1.5 -1.5 0 -0 1 0 
1 -1.5 -2 -1.1102230246251565e-016 1 0 -0 
1 -3 -3 0 -0 1 0 
1 -3 3 0 1 0 -0 
1 -3 -3 0 1 0 -0 
1 3 -3 0 0 1 0 
8 1.5707963267948966 3.1415926535897931
2 -1.5 -2 0.49999999999999989 -1 -0 0 0 0 1 -0 1 0 0.5
1 -3 -3 -3 0 0 1 
1 -3 3 -3 0 0 1 
1 -3 -3 -3 -0 1 0 
1 -3 3 -3 1 0 -0 
1 3 3 -3 0 0 1 
1 -3 -3 -3 1 0 -0 
1 3 -3 -3 0 0 1 
1 3 -3 -3 -0 1 0 
Polygon3D 0
PolygonOnTriangulations 0
Surfaces 16
1 1.5 -1.5 0 1 0 -0 0 0 1 0 -1 0 
2 1 -1 0 0 0 1 1 0 -0 0 -1 -0 0.5
2 2 -1 0.49999999999999989 -0 1 0 -1 -0 0 -0 -0 -1 0.5
1 -1.5 -1.5 3 0 0 1 1 0 -0 -0 1 0 
1 -1.5 1.5 0 -0 1 0 0 0 1 1 0 -0 
5 1 -1 0.5 0 0 1 4.4408920985006262e-016 -1 0 1 4.4408920985006262e-016 -0 1 0.5
1 -1.5 -1.5 0 -0 1 0 0 0 1 1 0 -0 
1 -3 -3 0 0 0 1 1 0 -0 -0 1 0 
1 -1.5 -1.5 0 1 0 -0 0 0 1 0 -1 0 
1 -1.5 -1.5 0 0 0 1 1 0 -0 -0 1 0 
2 -1.5 -2 0.49999999999999989 1 0 -0 0 1 0 -0 0 -1 0.5
1 -3 -3 -3 1 0 -0 0 0 1 0 -1 0 
1 -3 3 -3 -0 1 0 0 0 1 1 0 -0 
1 -3 -3 -3 -0 1 0 0 0 1 1 0 -0 
1 3 -3 -3 1 0 -0 0 0 1 0 -1 0 
1 -3 -3 -3 0 0 1 1 0 -0 -0 1 0 
Triangulations 0

TShapes 94
Ve
1e-007
1.5 -1 0.5
0 0

0101101
*
Ve
1e-007
1.5 -1 3
0 0

0101101
*
Ed
 1e-007 1 1 0
1  1 0 0.5 3
2  1 2 0 0.5 3
2  2 1 0 0.5 3
4 G1 2 0 1 0
0

0101000
+94 0 -93 0 *
Ve
1e-007
1.5 1.5 0.5
0 0

0101101
*
Ed
 1e-007 1 1 0
1  2 0 -0 2.5
2  3 3 0 -0 2.5
2  4 1 0 -0 2.5
4 G1 3 0 1 0
0

0101000
+94 0 -91 0 *
Ve
1e-007
1.5 1.5 3
0 0

0101101
*
Ed
 1e-007 1 1 0
1  3 0 0.5 3
2  5 1 0 0.5 3
2  6 4 0 0.5 3
0

0101000
+93 0 -89 0 *
Ed
 1e-007 1 1 0
1  4 0 0.5 3
2  7 1 0 0.5 3
2  8 5 0 0.5 3
0

0101000
+91 0 -89 0 *
Wi

0101100
-92 0 +90 0 -88 0 +87 0 *
Fa
0  1e-007 1 0

0101000
+86 0 *
Ve
1e-007
1 -1.5 0.5
0 0

0101101
*
Ed
 1e-007 1 1 0
1  5 0 -4.44089209850063e-016 1.5707963267949
2  9 6 0 -4.44089209850063e-016 1.5707963267949
2  10 2 0 -4.44089209850063e-016 1.5707963267949
4 G1 6 0 2 0
0

0101000
+84 0 -94 0 *
Ve
1e-007
1 -1.5 3
0 0

0101101
*
Ed
 1e-007 1 1 0
1  6 0 4.71238898038469 6.28318530717959
2  11 2 0 4.71238898038469 6.28318530717959
2  12 4 0 4.71238898038469 6.28318530717959
0

0101000
+93 0 -82 0 *
Ed
 1e-007 1 1 0
1  7 0 0.5 3
2  13 2 0 0.5 3
2  14 7 0 0.5 3
4 G1 2 0 7 0
0

0101000
+84 0 -82 0 *
Wi

0101100
-92 0 -83 0 -81 0 +80 0 *
Fa
0  0 2 0

0101000
+79 0 *
Ve
1e-007
2 -1 0
0 0

0101101
*
Ed
 1e-007 1 1 0
1  8 0 3.14159265358979 4.71238898038469
2  15 6 0 3.14159265358979 4.71238898038469
2  16 3 0 3.14159265358979 4.71238898038469
4 G1 6 0 3 0
0

0101000
+94 0 -77 0 *
Ve
0.0001
2 1.5 -1.11022302462516e-016
0 0

0101101
*
Ed
 1e-007 1 1 0
1  9 0 -0 2.5
2  17 3 0 -0 2.5
2  18 8 0 -0 2.5
4 G1 3 0 8 0
0

0101000
+77 0 -75 0 *
Ed
 1e-007 1 1 0
1  10 0 1.5707963267949 3.14159265358979
2  19 3 0 1.5707963267949 3.14159265358979
2  20 5 0 1.5707963267949 3.14159265358979
0

0101000
+91 0 -75 0 *
Wi

0101100
+76 0 -90 0 +74 0 -73 0 *
Fa
0  0 3 0

0101000
+72 0 *
Ve
1e-007
-1.5 1.5 3
0 0

0101101
*
Ed
 1e-007 1 1 0
1  11 0 0 3
2  21 5 0 0 3
2  22 4 0 0 3
0

0101000
-89 0 +70 0 *
Ve
1e-007
-1.5 -1.5 3
0 0

0101101
*
Ed
 1e-007 1 1 0
1  12 0 0 2.5
2  23 7 0 0 2.5
2  24 4 0 0 2.5
0

0101000
-82 0 +68 0 *
Ed
 1e-007 1 1 0
1  13 0 0 3
2  25 9 0 0 3
2  26 4 0 0 3
0

0101000
-70 0 +68 0 *
Wi

0101100
+88 0 -81 0 -69 0 +67 0 -66 0 *
Fa
0  1e-007 4 0

0101000
+65 0 *
Ve
0.0001
1.5 1.5 0
0 0

0101101
*
Ed
 0.0001 1 1 0
1  14 0 3.75 4.25
2  27 5 0 3.75 4.25
2  28 8 0 3.75 4.25
0

0101000
+63 0 -75 0 *
Ve
1e-007
-1.5 1.5 0
0 0

0101101
*
Ed
 1e-007 1 1 0
1  15 0 0 3
2  29 9 0 0 3
2  30 5 0 0 3
0

0101000
-70 0 +61 0 *
Ed
 1e-007 1 1 0
1  16 0 0 3
2  31 5 0 0 3
2  32 10 0 0 3
2  33 8 0 0 3
0

0101000
-63 0 +61 0 *
Wi

0101100
-87 0 +73 0 +69 0 -62 0 +60 0 -59 0 *
Fa
0  1e-007 5 0

0101000
+58 0 *
Ve
1e-007
1 -2 -1.11022302462516e-016
0 0

0101101
*
Ed
 1e-007 1 1 0
1  17 0 0 1.5707963267949
2  34 11 0 0 1.5707963267949
2  35 6 0 0 1.5707963267949
4 G1 11 0 6 0
0

0101000
+84 0 -56 0 *
Ed
 1e-007 1 1 0
1  18 0 -4.44089209850063e-016 1.5707963267949
2  36 6 0 -4.44089209850063e-016 1.5707963267949
2  37 8 0 -4.44089209850063e-016 1.5707963267949
4 G1 6 0 8 0
0

0101000
+56 0 -77 0 *
Wi

0101100
-55 0 +83 0 -54 0 +76 0 *
Fa
0  0 6 0

0101000
+53 0 *
Ve
1e-007
-1.5 -1.5 0.5
0 0

0101101
*
Ed
 1e-007 1 1 0
1  19 0 0 2.5
2  38 11 0 0 2.5
2  39 7 0 0 2.5
4 G1 11 0 7 0
0

0101000
+51 0 -84 0 *
Ed
 1e-007 1 1 0
1  20 0 0.5 3
2  40 9 0 0.5 3
2  41 7 0 0.5 3
0

0101000
+51 0 -68 0 *
Wi

0101100
-80 0 -50 0 +67 0 +49 0 *
Fa
0  1e-007 7 0

0101000
+48 0 *
Ve
0.0001
-1.5 -1.5 0
0 0

0101101
*
Ve
0.0001
-1.5 -2 -1.11022302462516e-016
0 0

0101101
*
Ed
 0.0001 1 1 0
1  21 0 -0.75 -0.25
2  42 9 0 -0.75 -0.25
2  43 8 0 -0.75 -0.25
0

0101000
+46 0 -45 0 *
Ed
 1e-007 1 1 0
1  22 0 0 3
2  44 9 0 0 3
2  45 10 0 0 3
2  46 8 0 0 3
0

0101000
-61 0 +46 0 *
Ed
 1e-007 1 1 0
1  23 0 -0 2.5
2  47 11 0 -0 2.5
2  48 8 0 -0 2.5
4 G1 11 0 8 0
0

0101000
+45 0 -56 0 *
Wi

0101100
-44 0 +43 0 -42 0 +59 0 -54 0 +62 0 -74 0 *
Ve
1e-007
-3 3 0
0 0

0101101
*
Ve
1e-007
-3 -3 0
0 0

0101101
*
Ed
 1e-007 1 1 0
1  24 0 0 6
2  49 12 0 0 6
2  50 8 0 0 6
0

0101000
-40 0 +39 0 *
Ve
1e-007
3 3 0
0 0

0101101
*
Ed
 1e-007 1 1 0
1  25 0 0 6
2  51 13 0 0 6
2  52 8 0 0 6
0

0101000
-37 0 +40 0 *
Ve
1e-007
3 -3 0
0 0

0101101
*
Ed
 1e-007 1 1 0
1  26 0 0 6
2  53 14 0 0 6
2  54 8 0 0 6
0

0101000
-35 0 +39 0 *
Ed
 1e-007 1 1 0
1  27 0 0 6
2  55 15 0 0 6
2  56 8 0 0 6
0

0101000
-37 0 +35 0 *
Wi

0101100
-38 0 -36 0 +34 0 +33 0 *
Fa
0  1e-007 8 0

0101000
+41 0 +32 0 *
Ed
 1e-007 1 1 0
1  28 0 1.5707963267949 3.14159265358979
2  57 11 0 1.5707963267949 3.14159265358979
2  58 9 0 1.5707963267949 3.14159265358979
0

0101000
+51 0 -45 0 *
Wi

0101100
-49 0 +30 0 -66 0 -44 0 +60 0 +43 0 *
Fa
0  1e-007 9 0

0101000
+29 0 *
Wi

0101100
+30 0 -50 0 +42 0 -55 0 *
Fa
0  0 11 0

0101000
+27 0 *
Ve
1e-007
-3 -3 -3
0 0

0101101
*
Ed
 1e-007 1 1 0
1  29 0 0 3
2  59 12 0 0 3
2  60 14 0 0 3
0

0101000
-39 0 +25 0 *
Ve
1e-007
-3 3 -3
0 0

0101101
*
Ed
 1e-007 1 1 0
1  30 0 0 3
2  61 12 0 0 3
2  62 13 0 0 3
0

0101000
-40 0 +23 0 *
Ed
 1e-007 1 1 0
1  31 0 0 6
2  63 12 0 0 6
2  64 16 0 0 6
0

0101000
-23 0 +25 0 *
Wi

0101100
-24 0 -38 0 +22 0 +21 0 *
Fa
0  1e-007 12 0

0111000
+20 0 *
Ve
1e-007
3 3 -3
0 0

0101101
*
Ed
 1e-007 1 1 0
1  32 0 0 6
2  65 13 0 0 6
2  66 16 0 0 6
0

0101000
-18 0 +23 0 *
Ed
 1e-007 1 1 0
1  33 0 0 3
2  67 15 0 0 3
2  68 13 0 0 3
0

0101000
-37 0 +18 0 *
Wi

0101100
-17 0 -16 0 +36 0 +22 0 *
Fa
0  1e-007 13 0

0111000
+15 0 *
Ve
1e-007
3 -3 -3
0 0

0101101
*
Ed
 1e-007 1 1 0
1  34 0 0 6
2  69 14 0 0 6
2  70 16 0 0 6
0

0101000
-13 0 +25 0 *
Ed
 1e-007 1 1 0
1  35 0 0 3
2  71 15 0 0 3
2  72 14 0 0 3
0

0101000
-35 0 +13 0 *
Wi

0101100
-12 0 -11 0 +34 0 +24 0 *
Fa
0  1e-007 14 0

0111000
+10 0 *
Ed
 1e-007 1 1 0
1  36 0 0 6
2  73 15 0 0 6
2  74 16 0 0 6
0

0101000
-18 0 +13 0 *
Wi

0101100
-11 0 -33 0 +16 0 +8 0 *
Fa
0  1e-007 15 0

0111000
+7 0 *
Wi

0101100
-21 0 -17 0 +8 0 +12 0 *
Fa
0  1e-007 16 0

0111000
+5 0 *
Sh

0101100
+85 0 -78 0 +71 0 +64 0 +57 0 -52 0 -47 0 +31 0 -28 0 +26 0 
-19 0 +14 0 -9 0 +6 0 -4 0 *
So

0100000
+3 0 *
Co

1100000
+2 0 *

+1 0 
0

