DBRep_DrawableShape

CASCADE Topology V1, (c) Matra-Datavision
Locations 0
Curve2ds 43
1 0 0 0 1 
1 0 -0.099999999999999992 1 0 
1 1.5707963267948966 0 0 1 
1 0.80000000000000004 -0.099999999999999992 0 -1 
1 0 0 0 -1 
1 1 0 0 1 
1 0 -1 1 0 
1 0 1 1 0 
1 0 1 1 0 
7 0 0  9 18 3  1.5707963267948966 0.80000000000000004  1.4835298672956292 0.79999999999998928  1.3962575404580873 0.8000000000000439  1.3090313391026835 0.79999999999990723  1.2216755405204351 0.80000000000012095  1.1345159155367308 0.79999999999989024  1.0471703696361763 0.80000000000006977  0.95993380000793427 0.79999999999997118  0.87266500424510518 0.80000000000000593  0.69813132254979604 0.79999999999999716  0.61086252678686936 0.80000000000000271  0.52362595715922566 0.79999999999999949  0.43628041125738082 0.79999999999999272  0.34912078627505855 0.80000000000001703  0.26176498769199591 0.79999999999997851  0.17453878633687248 0.80000000000001492  0.08726645949926054 0.79999999999999538  1.6653345369377348e-016 0.80000000000000016 
 0 10 0.5 8 1 10
1 -4.7123889803846897 0 1 0 
2 0.90000000000000002 0.099999999999999992 0 -1 -1 -0 0.10000000000000001
1 1.5707963267948966 0 0 1 
1 0 0.90000000000000002 1 0 
8 0 1
7 0 0  1 2 2  0 0.099999999999999992  1.5707963267948966 0 
 0 2 1 2
8 0 1
1 1 0 0 1 
1 0 0 0 1 
1 0.80000000000000004 0.099999999999999992 0 1 
1 0 0.90000000000000002 1 0 
2 0.80000000000000004 0.80000000000000004 1 0 -0 1 0.20000000000000001
1 0 0 0 1 
1 0 1 1 0 
1 0 0 0 1 
1 0 0 1 0 
1 0 0 0 -1 
1 0 0 0 1 
1 1 0 0 1 
1 0 1 1 0 
1 0 -1 1 0 
1 0 0 1 0 
7 0 0  1 2 2  -4.4408920985006262e-016 0.80000000000000016  1.5707963267948855 0.89999999999999936 
 0 2 1 2
7 0 0  5 6 2  0 -5.5511151231257827e-017  0 0.19999999999999085  0 0.40003117777029884  0 0.59996882222968773  0 0.79999999999999361  0 1 
 0 6 1 6
1 0 0 1 0 
1 1.5707963267948966 0 0 1 
1 0.80000000000000004 0 0 1 
1 0 0 1 0 
1 0 0 1 0 
1 1 0 0 -1 
1 0 0 0 1 
1 0 0 0 1 
1 0 0.19999999999999998 1 0 
1 0 0 1 0 
2 0.80000000000000004 -0.19999999999999998 1 0 -0 1 0.20000000000000001
Curves 21
1 1 0.099999999999999992 0 0 0 1 
1 1 0.099999999999999992 0.80000000000000004 0 1 0 
1 1 0 0 -0 1 0 
1 1 1 0 0 0 1 
7 0 0  6 7 2  0.8999999999999998 -2.7755575615628914e-017 0.80000000000000004  0.92617993784977826 -2.7177334456969989e-017 0.79999999999999949  0.95235765204487988 0.0082227680488760665 0.79999999999999194  0.97531901328910209 0.024680986710901253 0.80000000000000382  0.99177723195111955 0.047642347955114545 0.79999999999999227  1 0.07382006215022166 0.80000000000000027  1 0.10000000000000001 0.80000000000000004 
 0 7 1 7
8 4.7123889803846897 6.2831853071795862
2 0.90000000000000002 0.099999999999999992 0 -0 -0 -1 0 -1 0 -1 0 0 0.10000000000000001
1 0.90000000000000002 -1.3877787807814457e-017 0 0 0 1 
7 0 0  7 8 2  0.80000000000000004 0.19999999999999998 1  0.84487989505128214 0.18571428571428458 0.99999999999999845  0.88975957299669428 0.17142857142857407 0.98825022268967833  0.9309493881645774 0.15714285714285259 0.96475254444042813  0.96475254444045377 0.14285714285714624 0.93094938816460437  0.98825022268965979 0.12857142857142626 0.88975957299668329  1 0.11428571428571427 0.84487989505128269  1 0.10000000000000001 0.80000000000000004 
 0 8 1 8
1 0.80000000000000004 0.099999999999999992 1 0 1 0 
8 0 1.5707963267948966
2 0.80000000000000004 1 0.80000000000000004 0 1 0 0 -0 1 1 0 -0 0.20000000000000001
1 0 1 0 1 0 -0 
1 0 0 0 1 0 -0 
1 0 0 0 -0 1 0 
1 0 1 1 1 0 -0 
1 0 1 0 0 0 1 
7 0 0  5 6 2  0.80000000000000016 0.19999999999999998 0.99999999999999989  0.81999999999999884 0.13716814692820378 0.99999999999999689  0.84000000000000141 0.074277671327420469 0.97539699919085721  0.85999999999999943 0.024603000809146805 0.92572232867257676  0.88 1.6161840384517259e-016 0.86283185307179711  0.90000000000000013 -3.4694469519536142e-017 0.79999999999999993 
 0 6 1 6
1 0 -2.7755575615628914e-017 0.80000000000000004 1 0 -0 
1 0 0 0 0 0 1 
1 0 0 1 -0 1 0 
1 0 0.19999999999999998 1 1 0 -0 
8 0 1.5707963267948966
2 0 0.19999999999999998 0.80000000000000004 1 0 -0 0 0 1 0 -1 0 0.20000000000000001
Polygon3D 0
PolygonOnTriangulations 19
2 3 4 
p 0.00173205115397904 1 0.1 1 
8 1 3 4 5 6 7 8 2 
p 0.00173205115397904 1 4.71238898038469 4.9367884556411 5.16118793089752 5.38558740615393 5.60998688141034 5.83438635666676 6.05878583192317 6.28318530717959 
2 10 1 
p 0.00173205115397904 1 0 1 
2 10 2 
p 0.00173205115397904 1 0 1 
2 10 2 
p 0.00173205115397904 1 0 1 
2 10 1 
p 0.00173205115397904 1 0 1 
2 2 3 
p 0.00173205115397904 1 0 1 
2 1 2 
p 0.00173205115397904 1 0 1 
2 1 2 
p 0.00173205115397904 1 0 0.9 
2 11 10 
p 0.00173205115397904 1 0 1 
2 1 10 
p 0.00173205115397904 1 0 1 
2 11 10 
p 0.00173205115397904 1 0 1 
2 1 2 
p 0.00173205115397904 1 0 1 
2 1 4 
p 0.00173205115397904 1 0 1 
2 10 11 
p 0.00173205115397904 1 0 1 
2 10 11 
p 0.00173205115397904 1 0 1 
2 10 11 
p 0.00173205115397904 1 0 1 
2 1 4 
p 0.00173205115397904 1 0 1 
2 4 3 
p 0.00173205115397904 1 0 1 
Surfaces 10
1 1 0 0 1 0 -0 0 0 1 0 -1 0 
2 0.90000000000000002 0.099999999999999992 0 0 0 1 1 0 -0 0 -1 -0 0.10000000000000001
2 0.80000000000000004 0.099999999999999992 0.80000000000000004 0 1 0 0 -0 1 1 0 -0 0.20000000000000001
1 0 0 0 0 0 1 1 0 -0 -0 1 0 
1 0 1 0 -0 1 0 0 0 1 1 0 -0 
9 0 0 0 0 6 7 7 8 2 2 0.80000000000000004 0.20000000000000004 1  0.81428571428571295 0.15512010494871473 0.99999999999999534  0.8285714285714354 0.11024042700331509 0.98825022268968787  0.84285714285712687 0.069050611835401315 0.96475254444040603  0.85714285714287086 0.035247455559564302 0.93094938816462003  0.87142857142856034 0.011749777310325185 0.88975957299666553  0.88571428571428557 -2.2946364550533012e-017 0.84487989505128269  0.8999999999999998 -2.7755575615628914e-017 0.80000000000000004  
0.80000000000000004 0.20000000000000004 1  0.82074378315375252 0.15783818269535727 0.99999999999999534  0.84148753012320066 0.11500630519825369 0.98963228301926232  0.86161629996303601 0.073974737527425949 0.96917948747687033  0.8805139599875792 0.035440839011904764 0.93684935956535864  0.89769404034096667 0.0092303917838465512 0.89219498951606913  0.91291613720457188 -0.0018699955606985385 0.84487989505128236  0.92617993784977826 -2.7177334456969989e-017 0.79999999999999949  
0.80000000000000016 0.20000000000000007 1  0.8311462260838931 0.16599663095265996 0.99999999999999645  0.8589453188703704 0.12474347147912015 0.99046151921700154  0.88727266780538527 0.0851147099769273 0.97183565329875232  0.91363099509955725 0.045488676488566956 0.94038934240579164  0.93374561363578468 0.017652091507804196 0.89365623942771055  0.94458412901152211 0.0035424250252756497 0.84487989505127403  0.95235765204487988 0.0082227680488760665 0.79999999999999194  
0.80000000000000016 0.20000000000000007 1  0.8329487966777549 0.16705120332224269 0.99999999999999689  0.86917037354846494 0.13082962645154594 0.9907379312829182  0.90531018816662556 0.094689811833355189 0.97272104190605457  0.94061523487511778 0.05938476512490206 0.94156933668594456  0.96567142335956957 0.034328576640418752 0.89414332273160435  0.97728183032198057 0.022718169678022586 0.84487989505128691  0.97531901328910209 0.024680986710901253 0.80000000000000382  
0.80000000000000004 0.20000000000000001 0.99999999999999989  0.83400336904733674 0.16885377391610426 0.99999999999999722  0.87525652852088798 0.14105468112963718 0.99046151921699832  0.91488529002304919 0.11272733219459204 0.97183565329875932  0.95451132351144785 0.086369004900457236 0.94038934240578631  0.98234790849217779 0.066254386364197781 0.8936562394277171  0.99645757497471987 0.055415870988472359 0.8448798950512747  0.99177723195111955 0.047642347955114545 0.79999999999999227  
0.80000000000000004 0.19999999999999998 1  0.84216181730463935 0.17925621684624515 0.99999999999999845  0.88499369480175627 0.15851246987680834 0.98963228301925277  0.92602526247255201 0.13838370003694395 0.96917948747689242  0.96455916098811345 0.11948604001243772 0.93684935956534321  0.99076960821613813 0.10230595965902006 0.89219498951608744  1.0018699955606984 0.087083862795428083 0.84487989505128303  1 0.07382006215022166 0.80000000000000027  
0.80000000000000004 0.19999999999999998 1  0.84487989505128214 0.18571428571428458 0.99999999999999845  0.88975957299669428 0.17142857142857407 0.98825022268967833  0.9309493881645774 0.15714285714285259 0.96475254444042813  0.96475254444045377 0.14285714285714624 0.93094938816460437  0.98825022268965979 0.12857142857142626 0.88975957299668329  1 0.11428571428571427 0.84487989505128269  1 0.10000000000000001 0.80000000000000004  

0 7
1 7

0 8
1 8

1 0 0 0 -0 1 0 0 0 1 1 0 -0 
1 0 0 1 0 0 1 1 0 -0 -0 1 0 
1 0 0 0 1 0 -0 0 0 1 0 -1 0 
2 0 0.19999999999999998 0.80000000000000004 1 0 -0 0 0 1 0 -1 0 0.20000000000000001
Triangulations 11
4 2 1 5.55111512312578e-017
1 0.1 1 1 1 1 1 0.1 0 1 1 0 1 -0.1 1 -1 0 -0.1 0 -1 1 4 2 1 3 4 
16 14 1 0.000628779010675782
1 0.1 0 0.9 -1.38777878078145e-017 0 0.997492791218182 0.0777479066043686 0 0.990096886790242 0.0566116260882442 0 0.978183148246803 0.0376510198141266 0 0.962348980185873 0.021816851753197 0 0.943388373911756 0.00990311320975808 0 0.922252093395632 0.00250720878181764 0 1 0.1 1 0.9 -1.38777878078145e-017 1 0.997492791218182 0.0777479066043686 1 0.990096886790242 0.0566116260882442 1 0.978183148246803 0.0376510198141266 1 0.962348980185873 0.021816851753197 1 0.943388373911756 0.00990311320975808 1 0.922252093395632 0.00250720878181764 1 0 0 1.5707963267949 0 0.224399475256414 0 0.448798950512828 0 0.673198425769241 0 0.897597901025655 0 1.12199737628207 0 1.34639685153848 0 0 1 1.5707963267949 1 0.224399475256414 1 0.448798950512828 1 0.673198425769241 1 0.897597901025655 1 1.12199737628207 1 1.34639685153848 1 11 1 3 11 9 1 12 3 4 12 11 3 13 4 5 13 12 4 14 5 6 14 13 5 15 6 7 15 14 6 16 7 8 16 15 7 10 8 2 10 16 8 
11 9 1 7.63278329429795e-017
1 1 0 1 1 0.9 0.9 1 1 0.997492791218182 1 0.922252093395631 0.990096886790242 1 0.943388373911756 0.978183148246803 1 0.962348980185873 0.962348980185873 1 0.978183148246803 0.943388373911756 1 0.990096886790242 0.922252093395632 1 0.997492791218182 0 1 0 0 1 1 0 1 0.9 1 1 0.9 0.922252093395631 0.997492791218182 0.943388373911756 0.990096886790242 0.962348980185873 0.978183148246803 0.978183148246803 0.962348980185873 0.990096886790242 0.943388373911756 0.997492791218182 0.922252093395632 0 0 1 0 2 1 10 3 10 11 3 2 10 6 4 2 6 5 4 6 8 7 6 9 8 6 3 9 6 2 3 
11 9 1 5.55111512312578e-017
1 0.1 0 1 1 0 0.9 -1.38777878078145e-017 0 0.997492791218182 0.0777479066043686 0 0.990096886790242 0.0566116260882442 0 0.978183148246803 0.0376510198141266 0 0.962348980185873 0.021816851753197 0 0.943388373911756 0.00990311320975808 0 0.922252093395632 0.00250720878181764 0 0 1 0 0 0 0 1 0.1 1 1 0.9 -1.38777878078145e-017 0.997492791218182 0.0777479066043686 0.990096886790242 0.0566116260882442 0.978183148246803 0.0376510198141266 0.962348980185873 0.021816851753197 0.943388373911756 0.00990311320975808 0.922252093395632 0.00250720878181764 0 1 0 0 10 11 3 1 5 4 1 6 5 1 7 6 1 8 7 1 9 8 1 3 9 1 10 3 2 10 1 
11 9 1 5.55111512312578e-017
1 0.1 0 1 1 0 0.9 -1.38777878078145e-017 0 0.997492791218182 0.0777479066043686 0 0.990096886790242 0.0566116260882442 0 0.978183148246803 0.0376510198141266 0 0.962348980185873 0.021816851753197 0 0.943388373911756 0.00990311320975808 0 0.922252093395632 0.00250720878181764 0 0 1 0 0 0 0 1 0.1 1 1 0.9 -1.38777878078145e-017 0.997492791218182 0.0777479066043686 0.990096886790242 0.0566116260882442 0.978183148246803 0.0376510198141266 0.962348980185873 0.021816851753197 0.943388373911756 0.00990311320975808 0.922252093395632 0.00250720878181764 0 1 0 0 10 11 3 1 5 4 1 6 5 1 7 6 1 8 7 1 9 8 1 3 9 1 10 3 2 10 1 
11 9 1 7.63278329429795e-017
1 1 0 1 1 0.9 0.9 1 1 0.997492791218182 1 0.922252093395631 0.990096886790242 1 0.943388373911756 0.978183148246803 1 0.962348980185873 0.962348980185873 1 0.978183148246803 0.943388373911756 1 0.990096886790242 0.922252093395632 1 0.997492791218182 0 1 0 0 1 1 0 1 0.9 1 1 0.9 0.922252093395631 0.997492791218182 0.943388373911756 0.990096886790242 0.962348980185873 0.978183148246803 0.978183148246803 0.962348980185873 0.990096886790242 0.943388373911756 0.997492791218182 0.922252093395632 0 0 1 0 2 1 10 3 10 11 3 2 10 6 4 2 6 5 4 6 8 7 6 9 8 6 3 9 6 2 3 
4 2 1 0
0 0 0 0 1 0 1 1 0 1 0 0 0 0 0 1 1 1 1 0 3 2 1 3 1 4 
4 2 1 0
0 1 0 1 1 0 1 1 1 0 1 1 0 0 0 1 1 1 1 0 3 2 1 3 1 4 
4 2 1 9.25185853854297e-018
0 0 0 0.9 -1.38777878078145e-017 0 0.9 -1.38777878078145e-017 1 0 0 1 0 0 0 0.9 1 0.9 1 0 3 2 1 3 1 4 
11 9 1 5.72458747072346e-017
0 0 0 0 -1.38777878078145e-017 0.9 0 0.1 1 0 0.00250720878181762 0.922252093395631 0 0.00990311320975806 0.943388373911756 0 0.021816851753197 0.962348980185873 0 0.0376510198141266 0.978183148246803 0 0.0566116260882442 0.990096886790242 0 0.0777479066043685 0.997492791218182 0 1 0 0 1 1 0 0 0.9 0 1 -0.1 0.922252093395631 -0.00250720878181765 0.943388373911756 -0.00990311320975801 0.962348980185873 -0.021816851753197 0.978183148246803 -0.0376510198141267 0.990096886790242 -0.0566116260882441 0.997492791218182 -0.0777479066043685 0 -1 1 -1 2 1 10 3 10 11 3 2 10 7 4 2 7 5 4 7 6 5 7 9 8 7 3 9 7 2 3 
4 2 1 0
0 0 0 0 0 1 0 1 1 0 1 0 0 0 1 0 1 -1 0 -1 2 4 3 2 1 4 

TShapes 58
Ve
0.0001
1 0.1 0.8
0 0

0101101
*
Ve
1e-007
1 0.1 0
0 0

0101101
*
Ed
 1e-007 1 1 0
1  1 0 0 0.8
2  1 2 0 0 0.8
2  2 1 0 0 0.8
4 G1 2 0 1 0
0

0101000
-58 0 +57 0 *
Ve
1e-007
1 1 0.8
0 0

0101101
*
Ed
 1e-007 1 1 0
1  2 0 -0 0.9
2  3 3 0 -0 0.9
2  4 1 0 -0 0.9
4 G1 3 0 1 0
0

0101000
+58 0 -55 0 *
Ve
1e-007
1 1 0
0 0

0101101
*
Ed
 1e-007 1 1 0
1  3 0 0.1 1
2  5 1 0 0.1 1
2  6 4 0 0.1 1
6  1 1 0
0

0101000
+57 0 -53 0 *
Ed
 1e-007 1 1 0
1  4 0 0 0.8
2  7 1 0 0 0.8
2  8 5 0 0 0.8
0

0101000
-55 0 +53 0 *
Wi

0101100
-56 0 -54 0 +52 0 +51 0 *
Fa
0  1e-007 1 0

0101000
+50 0 *
Ve
0.0001
0.9 -2.77555756156289e-017 0.8
0 0

0101101
*
Ed
 0.0001 1 1 0
1  5 0 0 1
2  9 6 0 0 1
2  10 2 0 0 1
4 G1 6 0 2 0
0

0101000
+48 0 -58 0 *
Ve
1e-007
0.9 -1.38777878078145e-017 0
0 0

0101101
*
Ed
 1e-007 1 1 0
1  6 0 4.71238898038469 6.28318530717959
2  11 2 0 4.71238898038469 6.28318530717959
2  12 4 0 4.71238898038469 6.28318530717959
6  2 2 0
0

0101000
+57 0 -46 0 *
Ed
 1e-007 1 1 0
1  7 0 0 0.8
2  13 2 0 0 0.8
2  14 7 0 0 0.8
4 G1 2 0 7 0
0

0101000
-48 0 +46 0 *
Wi

0101100
-56 0 +47 0 +45 0 +44 0 *
Fa
0  0 2 0

0101000
+43 0 *
Ve
0.0001
0.8 0.2 1
0 0

0101101
*
Ed
 0.0001 1 1 0
1  8 0 0 1
2  15 3 0 0 1
2  16 6 0 0 1
4 G1 6 0 3 0
0

0101000
+41 0 -58 0 *
Ve
1e-007
0.8 1 1
0 0

0101101
*
Ed
 1e-007 1 1 0
1  9 0 0.1 0.9
2  17 3 0 0.1 0.9
2  18 8 0 0.1 0.9
4 G1 3 0 8 0
0

0101000
+41 0 -39 0 *
Ed
 1e-007 1 1 0
1  10 0 0 1.5707963267949
2  19 3 0 0 1.5707963267949
2  20 5 0 0 1.5707963267949
0

0101000
+39 0 -55 0 *
Wi

0101100
+40 0 -38 0 +54 0 -37 0 *
Fa
0  0 3 0

0101000
+36 0 *
Ve
1e-007
0 1 0
0 0

0101101
*
Ed
 1e-007 1 1 0
1  11 0 0 1
2  21 5 0 0 1
2  22 4 0 0 1
6  3 3 0
6  4 4 0
6  5 5 0
6  6 6 0
6  7 7 0
6  8 8 0
0

0101000
-53 0 +34 0 *
Ve
1e-007
0 0 0
0 0

0101101
*
Ed
 1e-007 1 1 0
1  12 0 0 0.9
2  23 7 0 0 0.9
2  24 4 0 0 0.9
6  9 9 0
0

0101000
-46 0 +32 0 *
Ed
 1e-007 1 1 0
1  13 0 0 1
2  25 9 0 0 1
2  26 4 0 0 1
6  10 4 0
6  11 10 0
6  12 5 0
6  13 7 0
6  14 11 0
0

0101000
-34 0 +32 0 *
Wi

0101100
+52 0 -45 0 -33 0 +31 0 -30 0 *
Fa
0  1e-007 4 0

0101000
+29 0 *
Ve
1e-007
0 1 1
0 0

0101101
*
Ed
 1e-007 1 1 0
1  14 0 0 0.8
2  27 5 0 0 0.8
2  28 8 0 0 0.8
0

0101000
-39 0 +27 0 *
Ed
 1e-007 1 1 0
1  15 0 0 1
2  29 9 0 0 1
2  30 5 0 0 1
6  15 3 0
6  16 10 0
6  17 6 0
6  18 8 0
6  19 11 0
0

0101000
-27 0 +34 0 *
Wi

0101100
-51 0 +37 0 -33 0 +26 0 +25 0 *
Fa
0  1e-007 5 0

0101000
+24 0 *
Ed
 0.0001 1 1 0
1  16 0 0 1
2  31 10 0 0 1
2  32 6 0 0 1
4 G1 10 0 6 0
0

0101000
+41 0 -48 0 *
Ed
 0.0001 1 1 1
2  33 6 0 0 1
0

0101000
+41 0 -41 0 *
Wi

0101100
-22 0 +21 0 +40 0 -47 0 *
Fa
0  0.0001 6 0

0101000
+20 0 *
Ve
1e-007
0 -2.77555756156289e-017 0.8
0 0

0101101
*
Ed
 1e-007 1 1 0
1  17 0 0 0.9
2  34 10 0 0 0.9
2  35 7 0 0 0.9
4 G1 10 0 7 0
0

0101000
+18 0 -48 0 *
Ed
 1e-007 1 1 0
1  18 0 0 0.8
2  36 9 0 0 0.8
2  37 7 0 0 0.8
0

0101000
-18 0 +32 0 *
Wi

0101100
-44 0 +17 0 -31 0 +16 0 *
Fa
0  1e-007 7 0

0101000
+15 0 *
Ve
1e-007
0 0.2 1
0 0

0101101
*
Ed
 1e-007 1 1 0
1  19 0 0.2 1
2  38 9 0 0.2 1
2  39 8 0 0.2 1
0

0101000
+13 0 -27 0 *
Ed
 1e-007 1 1 0
1  20 0 0 0.8
2  40 10 0 0 0.8
2  41 8 0 0 0.8
4 G1 10 0 8 0
0

0101000
+13 0 -41 0 *
Wi

0101100
-26 0 +38 0 -12 0 +11 0 *
Fa
0  1e-007 8 0

0101000
+10 0 *
Ed
 1e-007 1 1 0
1  21 0 0 1.5707963267949
2  42 10 0 0 1.5707963267949
2  43 9 0 0 1.5707963267949
0

0101000
+13 0 -18 0 *
Wi

0101100
-16 0 +8 0 +30 0 -12 0 +25 0 *
Fa
0  1e-007 9 0

0101000
+7 0 *
Wi

0101100
+8 0 -11 0 +17 0 -22 0 *
Fa
0  0 10 0

0101000
+5 0 *
Sh

0101100
+49 0 -42 0 +35 0 -28 0 +23 0 -19 0 -14 0 +9 0 -6 0 +4 0 
*
So

0100000
+3 0 *
Co

1100000
+2 0 *

+1 0 