DBRep_DrawableShape

CASCADE Topology V1, (c) Matra-Datavision
Locations 4
1
              1 1.232595164408e-032 1.68675167091688e-080               0 
-1.232595164408e-032               1 3.08148791102e-033               0 
3.79822709830496e-065 -3.08148791102e-033               1               0 
1
              0              -1               0              32 
0.999847695156391               0 -0.0174524064372868 -0.983268578676 
0.0174524064372868               0 0.999847695156391 56.331419145111 
1
              1               0               0               0 
              0               1               0               0 
              0               0               1               0 
2  1 1 2 1 3 1 0
Curve2ds 200
1 6.2831853071800001 -0.070710678118623055 -1 0 
1 3.1415926535900001 0 0 1 
1 3.1415926535900001 0 0 1 
1 0 0 1 0 
1 3.1415926535900001 2.0750000000000002 -1 0 
1 0 0 0 1 
1 6.2831853071800001 0 0 1 
1 3.1415926535900001 0 -1 0 
1 3.1415926535900001 -2.6512257811760116e-034 0 1 
1 3.1415926535900001 -2.6512257811760116e-034 0 1 
1 -3.1415926535900001 0.070710678118623055 1 0 
1 -3.1415926535900001 2.9249999999999998 1 0 
1 0 0 0 1 
1 6.2831853071800001 0 0 1 
1 0 -13.032137876489999 1 0 
1 3.1415926535900001 0 0 1 
1 3.1415926535900001 0 0 1 
1 0 -12.282137876489999 1 0 
1 0 0 0 1 
1 6.2831853071800001 0 0 1 
1 6.2831853071800001 0 -1 0 
1 6.2831853071800001 1.8999999999999999 -1 0 
1 6.2831853071800001 -1.570796326795 0 1 
1 0 -1.570796326795 0 1 
1 0 1.5707963267949088 1 -2.6492639102294395e-015 
1 5.1936072349920002 0 -5.6543194337130007e-016 1 
1 3.1415926535900001 4.8753743505299996 -1 0 
1 3.1415926535900001 0 -1 0 
1 3.1415926535900001 -5.302451562353437e-034 0 1 
1 3.1415926535900001 -5.302451562353437e-034 0 1 
1 -3.1415926535900001 0.14142135623724611 1 0 
1 -3.1415926535900001 0.10000000000000001 1 0 
1 0 0 0 1 
1 6.2831853071800001 0 0 1 
1 6.2831853071800001 3.3306690738744535e-016 0 1 
1 0 3.3306690738744535e-016 0 1 
1 9.4247779607689992 0 -1 0 
1 3.1415926535900001 3.3306690738744535e-016 0 1 
1 3.1415926535900001 3.3306690738744535e-016 0 1 
1 3.1415926535900001 -0.14142135623724611 1 0 
1 6.2831853071800001 -4.4000000000000004 -1 0 
1 6.2831853071800001 -0.14142135623724611 -1 0 
1 3.1415926535900001 3.3306690738744535e-016 0 1 
1 3.1415926535900001 3.3306690738744535e-016 0 1 
1 0 0 1 0 
1 0 0.10000000000000001 1 0 
1 0 3.3306690738744535e-016 0 1 
1 6.2831853071800001 3.3306690738744535e-016 0 1 
1 6.2831853071800001 3.3306690738744535e-016 0 1 
1 0 3.3306690738744535e-016 0 1 
1 9.4247779607689992 -3.1401849173656995e-016 -1 0 
1 3.1415926535900001 3.3306690738744535e-016 0 1 
1 3.1415926535900001 3.3306690738744535e-016 0 1 
1 3.1415926535900001 -0.14142135623724611 1 0 
1 6.2831853071800001 0.10000000000000001 -1 0 
1 6.2831853071800001 0 0 1 
1 0 0 0 1 
1 6.2831853071800001 0.14142135623724611 -1 0 
1 3.1415926535900001 2.1347464950107607e-048 0 1 
1 3.1415926535900001 2.1347464950107607e-048 0 1 
1 0 0 1 0 
1 0 1.8999999999999999 1 0 
1 6.2831853071800001 0 0 1 
1 0 0 0 1 
1 9.4247779607689992 0.14142135623723195 -1 0 
1 3.1415926535900001 1.0604903124705461e-032 0 1 
1 3.1415926535900001 1.0604903124705461e-032 0 1 
1 3.1415926535900001 0 1 0 
1 6.2831853071800001 0.09999999999999 -1 0 
1 6.2831853071800001 -3.6082248300299513e-016 0 1 
1 0 -3.6082248300299513e-016 0 1 
1 6.2831853071800001 1.5700924586828497e-016 -1 0 
1 3.1415926535900001 -3.6082248300299513e-016 0 1 
1 3.1415926535900001 -3.6082248300299513e-016 0 1 
1 0 -0.14142135623724611 1 0 
1 0 1.8999999999999999 1 0 
1 6.2831853071800001 0 0 1 
1 0 0 0 1 
1 0 1.414213562372461 1 0 
1 9.4247779607689992 0 -1 0 
1 3.1415926535900001 0 0 1 
1 3.1415926535900001 0 0 1 
1 0 0 1 0 
1 0 9 1 0 
1 3.1415926535900001 0 0 1 
1 3.1415926535900001 0 0 1 
1 0 4.5 1 0 
1 0 0 0 1 
1 6.2831853071800001 0 0 1 
1 3.1415926535900001 0 -1 0 
1 0 1.414213562372461 1 0 
1 3.1415926535900001 0 0 1 
1 3.1415926535900001 0 0 1 
1 0 0 0 1 
1 6.2831853071800001 0 0 1 
1 3.1415926535900001 0 0 1 
1 3.1415926535900001 0 0 1 
1 3.1415926535900001 3 -1 0 
1 0 0 0 1 
1 6.2831853071800001 0 0 1 
1 6.2831853071800001 0 0 1 
1 0 0 0 1 
1 3.1415926535900001 0 0 1 
1 3.1415926535900001 0 0 1 
1 6.2831853071800001 0 0 1 
1 0 0 0 1 
1 3.1415926535900001 0 0 1 
1 3.1415926535900001 0 0 1 
1 6.2831853071800001 0 0 1 
1 0 0 0 1 
1 3.1415926535900001 0 0 1 
1 3.1415926535900001 0 0 1 
1 6.2831853071800001 0 -1 0 
1 6.2831853071800001 0 0 1 
1 0 0 0 1 
1 5.1936072349920002 0 0 1 
1 3.1415926535900001 0 0 1 
1 3.1415926535900001 0 0 1 
1 -3.1415926535900001 5 1 0 
1 0 0 0 1 
1 6.2831853071800001 0 0 1 
1 3.1415926535900001 2.9249999999999998 1 0 
1 3.1415926535900001 0.070710678118623055 1 0 
1 3.1415926535900001 5 1 0 
1 9.4247779607689992 0 -1 0 
1 -8.8817841970009999e-016 1.570796326795 1 9.2284364859090012e-016 
1 1.570796326795 4.8753743505299996 0 1 
1 0 1.570796326795 1 -4.0757906311230001e-015 
1 1.570796326795 0 0 1 
1 0 1.570796326795 1 -1.1535545607389999e-015 
1 1.570796326795 4.8753743505299996 0 1 
1 0 1.570796326795 1 1.1208424235590001e-015 
1 1.570796326795 -8.8817841970009999e-016 -1.320355640372e-015 1 
1 6.2831853071800001 1.5700924586828497e-016 -1 0 
1 6.2831853071800001 0.14142135623724611 -1 0 
1 9.4247779607689992 3 -1 0 
1 6.2831853071800001 0 -1 0 
1 1.089578072188 0 0 1 
1 6.2831853071800001 1.8999999999999999 -1 0 
1 6.2831853071800001 0 -1 0 
1 3.1415926535900001 -1.8514376730069999 0 -1 
1 5.1936072349920002 0 0 1 
1 6.2831853071800001 1.8999999999999999 -1 0 
1 6.2831853071800001 0 -1 0 
1 4.231170725778 0 0 1 
1 6.2831853071800001 0 -1 0 
1 3.1415926535900001 1.110223024625e-015 0 -1 
1 4.231170725778 0 0 1 
1 6.2831853071800001 1.8999999999999999 -1 0 
1 6.2831853071800001 0 -1 0 
1 2.0520145814020001 0 0 1 
1 0 0 1 0 
1 3.1415926535900001 -1.8514376730069999 0 -1 
1 2.0520145814020001 0 0 1 
1 6.2831853071800001 1.8999999999999999 -1 0 
1 6.2831853071800001 0 -1 0 
1 1.089578072188 0 0 1 
1 2.22044604925e-016 0 1 0 
1 0 1.8999999999999999 1 0 
1 0 -0.14142135623724611 1 0 
1 6.2831853071800001 0.09999999999999 -1 0 
1 -3.1415926535900001 0 1 0 
1 0 1.8999999999999999 1 0 
1 0 0 1 0 
1 6.2831853071800001 0.10000000000000001 -1 0 
1 -3.1415926535900001 -0.14142135623724611 1 0 
1 3.1415926535900001 -4.4408920985009999e-016 0 -1 
1 0 9 1 0 
1 0 0 1 0 
1 6.2831853071800001 -4.4000000000000004 -1 0 
1 -3.1415926535900001 -0.14142135623724611 1 0 
1 3.1415926535900001 0.14142135623723195 -1 0 
1 3.1415926535900001 -3.1401849173656995e-016 -1 0 
1 0 4.5 1 0 
1 3.1415926535900001 0.10000000000000001 1 0 
1 3.1415926535900001 0.14142135623724611 1 0 
1 9.4247779607689992 2.0750000000000002 -1 0 
1 0 0 1 0 
1 0 0.10000000000000001 1 0 
1 0 0 1 0 
1 6.2831853071800001 -0.14142135623724611 -1 0 
1 3.1415926535900001 0 -1 0 
1 0 4.8753743505299996 1 0 
1 2.0520145814016266 3.1415926535913616 1.6680242329436451e-014 -1 
1 3.1415926535900001 -1.8514376730069999 -1 -4.240739575285e-016 
1 2.0520145814020001 0 0 1 
1 1.089578072188 0 2.8271597168559999e-016 1 
1 3.1415926535900001 1.8514376730069999 -1 5.6543194337130007e-016 
1 4.2311707257779592 3.1415926535913621 -1.6397526357751086e-014 -1 
1 -8.8817841970009999e-015 -4.8753743505299996 1 0 
1 3.1415926535900001 -4.8753743505299996 -1 0 
1 1.089578072188 0 1.413579858428e-016 1 
1 8.8817841970009999e-015 1.8514376730069999 1 -1.413579858428e-016 
1 4.231170725778 3.1415926535900001 0 -1 
1 5.1936072349920002 3.1415926535900001 0 -1 
1 -8.8817841970009999e-015 -1.8514376730069999 1 1.413579858428e-016 
1 6.2831853071800001 -0.070710678118623055 -1 0 
1 0 -13.032137876489999 1 0 
1 9.4247779607689992 0 -1 0 
1 0 -12.282137876489999 1 0 
Curves 131
2 0 0 5.875 0 0 -1 1 0 0 0 -1 0 3.4500000000000002
1 -3.5 4.2862637970160004e-016 5.9249999999999998 -0.70710678118654757 8.6595605623434599e-017 0.70710678118654757 
2 0 0 5.9249999999999998 0 -0 1 1 0 0 -0 1 0 3.5
1 3.5 0 5.9249999999999998 0.70710678118654757 0 0.70710678118654757 
2 0 0 5.125 0 0 1 1 0 -0 -0 1 0 3.4500000000000002
1 3.4500000000000002 4.225031457058e-016 5.125 0.70710678118654757 8.6595605623434599e-017 -0.70710678118654757 
2 0 0 5.0750000000000002 0 0 -1 1 0 0 0 -1 0 3.5
1 -3.4500000000000002 0 5.125 -0.70710678118654757 0 -0.70710678118654757 
2 0 0 5.875 0 0 -1 -1 0 0 0 1 0 2.75
1 2.75 3.3677786976550001e-016 -7.1571378764939997 -0 -0 -1 
2 0 0 5.125 0 0 -1 -1 0 0 0 1 0 2.75
1 -2.75 0 -7.1571378764939997 -0 -0 -1 
2 5.5 0 -0.10000000000000001 0 0 -1 1 0 0 0 -1 0 2
2 7.4000000000000004 0 -0.10000000000000001 0 -1 0 0 0 -1 1 0 0 0.10000000000000001
2 5.5 0 0 -0 0 1 1 0 0 0 1 -0 1.8999999999999999
2 6.3794328946779997 -1.684220230183 -0.10000000000000001 -0.88643170009614869 -0.4628594182520776 -2.0073327472963363e-015 0.4628594182520776 -0.88643170009614869 -1.7749370367472762e-030 -1.7793633798445632e-015 -9.291128676519284e-016 1 0.10000000000000001
2 0 0 3 0 0 1 1 0 -0 -0 1 0 3.8999999999999999
1 3.8999999999999999 4.7761225166749997e-016 3 0.70710678118654757 8.6595605623434599e-017 -0.70710678118654757 
2 0 0 2.8999999999999999 0 0 -1 1 0 0 0 -1 0 4
1 -3.8999999999999999 0 3 -0.70710678118654757 0 -0.70710678118654757 
1 -2.6000000000000001 0 -6.5 -0.70710678118654757 0 -0.70710678118654757 
2 0 0 -6.5 -0 0 1 1 0 0 0 1 -0 2.6000000000000001
1 2.6000000000000001 3.1840816777830004e-016 -6.5 0.70710678118654757 8.6595605623434599e-017 -0.70710678118654757 
2 0 0 -6.4000000000000004 0 0 -1 1 0 0 0 -1 0 2.5
2 0 0 -6.5 0 0 -1 1 0 0 0 -1 0 3.3999999999999999
1 -3.5 4.2862637970160004e-016 -6.4000000000000004 -0.70710678118654757 8.6595605623434599e-017 0.70710678118654757 
2 0 0 -6.4000000000000004 0 -0 1 1 0 0 -0 1 0 3.5
1 3.5 0 -6.4000000000000004 0.70710678118654757 0 0.70710678118654757 
1 -6.5999999999999996 0 -2 -0.70710678118654757 0 -0.70710678118654757 
2 -5.5 0 -2 -0 0 1 1 0 0 0 1 -0 1.1000000000000001
1 -4.4000000000000004 1.347111479062e-016 -2 0.70710678118654757 8.6595605623434599e-017 -0.70710678118654757 
2 -5.5 0 -1.8999999999999999 0 0 -1 1 0 0 0 -1 0 1
1 -4.5 0 -0.10000000000000001 0.70710678118654757 0 0.70710678118654757 
2 -5.5 0 0 0 0 -1 1 0 0 0 -1 0 1.1000000000000001
1 -6.5 1.2246467991469999e-016 -0.10000000000000001 -0.70710678118654757 8.6595605623434599e-017 0.70710678118654757 
2 -5.5 0 -0.10000000000000001 0 0 1 1 0 -0 -0 1 0 1
1 4.5 0 -1.8999999999999999 -0.70710678118654757 0 -0.70710678118654757 
2 5.5 0 -2 -0 0 1 1 0 0 0 1 -0 1.1000000000000001
1 6.5 1.2246467991469999e-016 -1.8999999999999999 0.70710678118654757 8.6595605623434599e-017 -0.70710678118654757 
2 5.5 0 -1.8999999999999999 0 0 -1 1 0 0 0 -1 0 1
1 6.5999999999999996 0 0 0.70710678118654757 0 0.70710678118654757 
2 5.5 0 0 0 0 -1 1 0 0 0 -1 0 1.1000000000000001
1 4.4000000000000004 1.347111479062e-016 0 -0.70710678118654757 8.6595605623434599e-017 0.70710678118654757 
2 5.5 0 -0.10000000000000001 0 -0 1 1 0 0 -0 1 0 1
1 2.5 0 7 0.70710678118654757 0 0.70710678118654757 
2 0 0 8 0 0 1 1 0 -0 -0 1 0 3.5
1 -2.5 3.0616169978680001e-016 7 -0.70710678118654757 8.6595605623434599e-017 0.70710678118654757 
2 0 0 7 0 0 1 1 0 -0 -0 1 0 2.5
1 -3.5 4.2862637970160004e-016 -6.5 0 0 1 
2 0 0 -2 -0 0 1 1 0 0 0 1 -0 3.5
1 3.5 0 -6.5 0 0 1 
2 0 0 8 0 0 1 1 0 -0 -0 1 0 3.5
1 3.5 4.2862637970160004e-016 8 -0 -0 -1 
1 -3.5 0 8 -0 -0 -1 
1 4 4.8985871965890006e-016 3 -0 -0 -1 
2 0 0 0 0 0 1 1 0 -0 -0 1 0 4
1 -4 0 3 -0 -0 -1 
1 2.5 0 -2 0 0 1 
1 -2.5 3.0616169978680001e-016 -2 0 0 1 
1 -4.5 0 -2 0 0 1 
1 -6.5 1.2246467991469999e-016 -2 0 0 1 
1 6.5 0 -2 0 0 1 
1 4.5 1.2246467991469999e-016 -2 0 0 1 
2 5.5 0 -2 0 0 -1 1 0 0 0 -1 0 2
1 7.5 0 -2 0 0 1 
1 6.4257188365040001 -1.7728634001929999 -2 0 0 1 
1 3.5 4.2862637970160004e-016 8 -0 -0 -1 
2 0 0 3 0 0 -1 1 0 0 0 -1 0 3.5
1 -3.5 0 8 -0 -0 -1 
2 0 0 5.0750000000000002 0 0 -1 1 0 0 0 -1 0 3.5
2 0 0 3 0 0 -1 1 0 0 0 -1 0 3.5
2 0 0 3 0 0 1 1 0 -0 -0 1 0 3.8999999999999999
2 0 -4 0 -0 0 1 1 0 0 0 1 -0 0.90000000000000002
1 6.3794328946779997 -1.684220230183 0 0.88643170009614869 0.4628594182520776 -0 
2 5.5 0 0 -0 0 1 1 0 0 0 1 -0 1.8999999999999999
1 2.0577465205330001 3.9408331658289999 0 -0.88643170009614869 0.4628594182520776 0 
2 0 4 0 -0 0 1 1 0 0 0 1 -0 0.90000000000000002
1 -6.3794328946779997 1.684220230183 0 -0.88643170009614869 -0.4628594182520776 -0 
2 -5.5 0 0 -0 0 1 1 0 0 0 1 -0 1.8999999999999999
1 -2.0577465205330001 -3.9408331658289999 0 0.88643170009614869 -0.4628594182520776 0 
2 5.5 0 0 0 0 -1 1 0 0 0 -1 0 1.1000000000000001
2 -5.5 0 0 0 0 -1 1 0 0 0 -1 0 1.1000000000000001
2 0 0 0 0 0 1 1 0 -0 -0 1 0 4
2 5.5 0 -2 0 0 -1 1 8.8817841970009999e-016 0 8.8817841970009999e-016 -1 0 2
1 6.4257188365040001 1.7728634001929999 -2 0 0 1 
2 5.5 0 -0.10000000000000001 0 0 -1 1 8.8817841970009999e-016 0 8.8817841970009999e-016 -1 0 2
1 0.462859418252 -4.8864317000959998 -0.10000000000000001 -0.88643170009614869 -0.4628594182520776 0 
1 0.462859418252 -4.8864317000959998 -2 0 0 1 
1 2.104032462358 -4.029476335839 -2 -0.88643170009614869 -0.4628594182520776 0 
2 0 -4 -0.10000000000000001 0 0 -1 1 0 0 0 -1 0 1
1 -0.462859418252 -4.8864317000959998 -2 0 0 1 
2 0 -4 -2 0 0 -1 1 0 0 0 -1 0 1
1 -2.104032462358 -4.029476335839 -0.10000000000000001 -0.88643170009614869 0.4628594182520776 -0 
1 -6.4257188365040001 -1.7728634001929999 -2 0 0 1 
1 -2.104032462358 -4.029476335839 -2 0.88643170009614869 -0.4628594182520776 0 
2 -5.5 0 -0.10000000000000001 0 0 -1 1 0 0 0 -1 0 2
1 -6.4257188365040001 1.7728634001929999 -2 0 0 1 
2 -5.5 0 -2 -0 0 1 1 0 0 0 1 -0 2
1 -0.462859418252 4.8864317000959998 -0.10000000000000001 0.88643170009614869 0.4628594182520776 0 
1 -0.462859418252 4.8864317000959998 -2 0 0 1 
1 -2.104032462358 4.029476335839 -2 0.88643170009614869 0.4628594182520776 0 
2 0 4 -0.10000000000000001 0 0 -1 1 5.20417042793e-015 0 5.20417042793e-015 -1 0 1
1 0.462859418252 4.8864317000959998 -2 0 0 1 
2 0 4 -2 -0 0 1 1 0 0 0 1 -0 1
2 5.5 0 -0.10000000000000001 0 -0 1 1 0 0 -0 1 0 1
2 5.5 0 -1.8999999999999999 0 0 -1 1 0 0 0 -1 0 1
2 -5.5 0 -0.10000000000000001 0 0 1 1 0 -0 -0 1 0 1
2 -5.5 0 -1.8999999999999999 0 0 -1 1 0 0 0 -1 0 1
1 2.104032462358 4.029476335839 -0.10000000000000001 0.88643170009614869 -0.4628594182520776 -0 
1 2.104032462358 4.029476335839 -2 -0.88643170009614869 0.4628594182520776 0 
2 0 0 7 0 0 1 1 0 -0 -0 1 0 2.5
2 0 0 -6.4000000000000004 0 0 -1 1 0 0 0 -1 0 2.5
2 5.5 0 -2 -0 0 1 1 0 0 0 1 -0 1.1000000000000001
2 -5.5 0 -2 -0 0 1 1 0 0 0 1 -0 1.1000000000000001
2 0 0 -2 -0 0 1 1 0 0 0 1 -0 3.5
2 0 0 2.8999999999999999 0 0 -1 1 0 0 0 -1 0 4
2 0 0 5.9249999999999998 0 -0 1 1 0 0 -0 1 0 3.5
2 0 0 -6.4000000000000004 0 -0 1 1 0 0 -0 1 0 3.5
2 0 0 -6.5 0 0 -1 1 0 0 0 -1 0 3.3999999999999999
2 0 0 -6.5 -0 0 1 1 0 0 0 1 -0 2.6000000000000001
2 -6.3794328946779997 1.684220230183 -0.10000000000000001 -0.88643170009614869 -0.4628594182520776 0 0.4628594182520776 -0.88643170009614869 0 0 0 1 0.10000000000000001
2 -0.41657347642699999 4.7977885300869998 -0.10000000000000001 0.88643170009614869 0.4628594182520776 -0 -0.4628594182520776 0.88643170009614869 0 0 0 1 0.10000000000000001
2 0.41657347642699999 4.7977885300869998 -0.10000000000000001 0.88643170009614869 -0.4628594182520776 9.6107117500476121e-016 0.4628594182520776 0.88643170009614869 -8.8746851837363811e-031 -8.5192395557287308e-016 4.4484084496154509e-016 1 0.10000000000000001
2 -6.3794328946779997 -1.684220230183 -0.10000000000000001 0.88643170009614869 -0.4628594182520776 0 0.4628594182520776 0.88643170009614869 0 -0 0 1 0.10000000000000001
2 6.3794328946779997 1.684220230183 -0.10000000000000001 0.88643170009614869 -0.4628594182520776 0 0.4628594182520776 0.88643170009614869 0 -0 0 1 0.10000000000000001
2 -0.41657347642699999 -4.7977885300869998 -0.10000000000000001 0.88643170009614869 -0.4628594182520776 0 0.4628594182520776 0.88643170009614869 0 -0 0 1 0.10000000000000001
2 0.41657347642699999 -4.7977885300869998 -0.10000000000000001 0.88643170009614869 0.4628594182520776 -0 -0.4628594182520776 0.88643170009614869 0 0 0 1 0.10000000000000001
2 0 0 5.875 0 0 -1 1 0 0 0 -1 0 3.4500000000000002
2 0 0 5.875 0 0 -1 -1 0 0 0 1 0 2.75
2 0 0 5.125 0 0 1 1 0 -0 -0 1 0 3.4500000000000002
2 0 0 5.125 0 0 -1 -1 0 0 0 1 0 2.75
Polygon3D 0
PolygonOnTriangulations 0
Surfaces 60
3 0 0 5.9249999999999998 -0 -0 1 1 0 0 -0 1 0 3.5
0.78539816339699997
1 0 -4.25 5.875 0 0 1 1 0 -0 -0 1 0 
3 0 0 5.9249999999999998 -0 -0 1 1 0 0 -0 1 0 3.5
0.78539816339699997
2 0 0 8 -0 -0 -1 -1 0 0 0 1 -0 3.5
3 0 0 5.125 0 0 -1 -1 0 0 0 1 0 3.4500000000000002
0.78539816339699997
1 0 -4.25 5.125 0 0 1 1 0 -0 -0 1 0 
3 0 0 5.125 0 0 -1 -1 0 0 0 1 0 3.4500000000000002
0.78539816339699997
2 0 0 8 -0 -0 -1 -1 0 0 0 1 -0 3.5
2 0 0 -7.1571378764939997 -0 -0 -1 -1 0 0 0 1 -0 2.75
2 0 0 -7.1571378764939997 -0 -0 -1 -1 0 0 0 1 -0 2.75
5 5.5 0 -0.10000000000000001 -0 0 1 1 0 0 0 1 -0 1.8999999999999999 0.10000000000000001
2 5.5 0 -2 0 0 1 1 0 -0 -0 1 0 2
5 5.5 0 -0.10000000000000001 -0 0 1 1 0 0 0 1 -0 1.8999999999999999 0.10000000000000001
1 0 0 0 -0 0 1 1 0 0 0 1 -0 
2 2.0577465205330001 -3.9408331658289999 -0.10000000000000001 0.88643170009614869 0.4628594182520776 0 -0.4628594182520776 0.88643170009614869 0 0 -0 1 0.10000000000000001
3 0 0 3 0 0 -1 -1 0 0 0 1 0 3.8999999999999999
0.78539816339699997
1 0 0 3 0 0 1 1 0 -0 -0 1 0 
3 0 0 3 0 0 -1 -1 0 0 0 1 0 3.8999999999999999
0.78539816339699997
2 0 0 3 -0 -0 -1 -1 0 0 0 1 -0 4
3 0 0 -6.5 -0 -0 -1 -1 0 0 0 1 -0 2.6000000000000001
0.78539816339699997
3 0 0 -6.5 -0 -0 -1 -1 0 0 0 1 -0 2.6000000000000001
0.78539816339699997
1 0 0 -6.5 -0 0 1 1 0 0 0 1 -0 
2 0 0 -2 0 0 1 1 0 -0 -0 1 0 2.5
3 0 0 -6.4000000000000004 -0 -0 1 1 0 0 -0 1 0 3.5
0.78539816339699997
3 0 0 -6.4000000000000004 -0 -0 1 1 0 0 -0 1 0 3.5
0.78539816339699997
2 0 0 -6.5 0 0 1 1 0 -0 -0 1 0 3.5
3 -5.5 0 -2 -0 -0 -1 -1 0 0 0 1 -0 1.1000000000000001
0.78539816339699997
3 -5.5 0 -2 -0 -0 -1 -1 0 0 0 1 -0 1.1000000000000001
0.78539816339699997
1 0 0 -2 -0 0 1 1 0 0 0 1 -0 
2 -5.5 0 -2 0 0 1 1 0 -0 -0 1 0 1
3 -5.5 0 -0.10000000000000001 0 0 1 1 0 -0 -0 1 0 1
0.78539816339699997
3 -5.5 0 -0.10000000000000001 0 0 1 1 0 -0 -0 1 0 1
0.78539816339699997
3 5.5 0 -1.8999999999999999 0 0 -1 -1 0 0 0 1 0 1
0.78539816339699997
3 5.5 0 -1.8999999999999999 0 0 -1 -1 0 0 0 1 0 1
0.78539816339699997
2 5.5 0 -2 0 0 1 1 0 -0 -0 1 0 1
3 5.5 0 0 -0 -0 1 1 0 0 -0 1 0 1.1000000000000001
0.78539816339699997
3 5.5 0 0 -0 -0 1 1 0 0 -0 1 0 1.1000000000000001
0.78539816339699997
3 0 0 7 0 0 1 1 0 -0 -0 1 0 2.5
0.78539816339699997
3 0 0 7 0 0 1 1 0 -0 -0 1 0 2.5
0.78539816339699997
2 0 0 8 -0 -0 -1 -1 0 0 0 1 -0 3.5
2 0 0 -6.5 0 0 1 1 0 -0 -0 1 0 3.5
2 0 0 3 -0 -0 -1 -1 0 0 0 1 -0 4
2 0 0 -2 0 0 1 1 0 -0 -0 1 0 2.5
2 -5.5 0 -2 0 0 1 1 0 -0 -0 1 0 1
2 5.5 0 -2 0 0 1 1 0 -0 -0 1 0 1
2 5.5 0 -2 0 0 1 1 0 -0 -0 1 0 2
1 2.104032462358 -4.029476335839 -2 -0.4628594182520776 0.88643170009614869 0 -0.88643170009614869 -0.4628594182520776 0 0 0 1 
2 0 0 8 -0 -0 -1 -1 0 0 0 1 -0 3.5
5 0 -4 -0.10000000000000001 -0 0 1 1 0 0 0 1 -0 0.90000000000000002 0.10000000000000001
2 2.0577465205330001 3.9408331658289999 -0.10000000000000001 -0.88643170009614869 0.4628594182520776 0 -0.4628594182520776 -0.88643170009614869 0 0 0 1 0.10000000000000001
5 0 4 -0.10000000000000001 -0 0 1 1 0 0 0 1 -0 0.90000000000000002 0.10000000000000001
2 -2.0577465205330001 3.9408331658289999 -0.10000000000000001 -0.88643170009614869 -0.4628594182520776 0 0.4628594182520776 -0.88643170009614869 0 0 0 1 0.10000000000000001
5 -5.5 0 -0.10000000000000001 -0 0 1 1 0 0 0 1 -0 1.8999999999999999 0.10000000000000001
2 -2.0577465205330001 -3.9408331658289999 -0.10000000000000001 0.88643170009614869 -0.4628594182520776 0 0.4628594182520776 0.88643170009614869 0 -0 0 1 0.10000000000000001
1 2.104032462358 4.029476335839 -2 0.4628594182520776 0.88643170009614869 -0 -0.88643170009614869 0.4628594182520776 0 0 0 1 
2 0 -4 -2 0 0 1 1 0 -0 -0 1 0 1
1 -2.104032462358 -4.029476335839 -2 -0.4628594182520776 -0.88643170009614869 0 0.88643170009614869 -0.4628594182520776 0 0 0 1 
2 -5.5 0 -2 0 0 1 1 0 -0 -0 1 0 2
1 -2.104032462358 4.029476335839 -2 0.4628594182520776 -0.88643170009614869 0 0.88643170009614869 0.4628594182520776 0 -0 0 1 
2 0 4 -2 0 0 1 1 0 -0 -0 1 0 1
Triangulations 0

TShapes 341
Ve
1e-007
-3.45 4.255647627037e-016 5.875
0 0

0101101
*
Ve
1e-007
3.45 0 5.875
0 0

0101101
*
Ed
 1e-007 1 1 0
1  1 0 3.14159265358979 6.28318530717959
2  1 1 0 3.14159265358979 6.28318530717959
4 C0 1 0 2 0
0

0101000
+341 0 -340 0 *
Ve
1e-007
-3.5 0 5.925
0 0

0101101
*
Ed
 1e-007 1 1 0
1  2 0 -0.0707106781186545 -3.71171609364403e-032
2  2 1 0 -0.0707106781186545 -3.71171609364403e-032
2  3 3 0 -0.0707106781186545 -3.71171609364403e-032
4 CN 1 0 3 0
0

0101000
+341 0 -338 0 *
Ve
1e-007
3.5 4.286263797016e-016 5.925
0 0

0101101
*
Ed
 1e-007 1 1 0
1  3 0 0 3.14159265358979
2  4 1 0 0 3.14159265358979
2  5 4 0 0 3.14159265358979
4 C0 1 0 4 0
0

0101000
+336 0 -338 0 *
Ed
 1e-007 1 1 0
1  4 0 -0.0707106781186545 0
2  6 1 0 -0.0707106781186545 0
2  7 3 0 -0.0707106781186545 0
4 CN 1 0 3 0
0

0101000
+340 0 -336 0 *
Wi

0101100
-339 0 +337 0 -335 0 -334 0 *
Fa
0  1e-007 1 0

0101000
+333 0 *
Ve
1e-007
3.45 4.255647627037e-016 5.125
0 0

0101101
*
Ve
1e-007
-3.45 0 5.125
0 0

0101101
*
Ed
 1e-007 1 1 0
1  5 0 0 3.14159265358979
2  8 5 0 0 3.14159265358979
4 C0 5 0 6 0
0

0101000
+331 0 -330 0 *
Ve
1e-007
3.5 4.286263797016e-016 5.075
0 0

0101101
*
Ed
 1e-007 1 1 0
1  6 0 2.65122578120152e-034 0.0707106781186545
2  9 5 0 2.65122578120152e-034 0.0707106781186545
2  10 7 0 2.65122578120152e-034 0.0707106781186545
4 CN 5 0 7 0
0

0101000
+331 0 -328 0 *
Ve
1e-007
-3.5 0 5.075
0 0

0101101
*
Ed
 1e-007 1 1 0
1  7 0 3.14159265358979 6.28318530717959
2  11 5 0 3.14159265358979 6.28318530717959
2  12 8 0 3.14159265358979 6.28318530717959
4 C0 5 0 8 0
0

0101000
+326 0 -328 0 *
Ed
 1e-007 1 1 0
1  8 0 0 0.0707106781186545
2  13 5 0 0 0.0707106781186545
2  14 7 0 0 0.0707106781186545
4 CN 5 0 7 0
0

0101000
+330 0 -326 0 *
Wi

0101100
-329 0 +327 0 -325 0 -324 0 *
Fa
0  1e-007 5 0

0101000
+323 0 *
Ve
1e-007
-2.75 0 5.875
0 0

0101101
*
Ve
1e-007
2.75 3.367778697655e-016 5.875
0 0

0101101
*
Ed
 1e-007 1 1 0
1  9 0 0 3.14159265358979
2  15 9 0 0 3.14159265358979
4 C0 9 0 2 0
0

0101000
+321 0 -320 0 *
Ve
1e-007
2.75 3.367778697655e-016 5.125
0 0

0101101
*
Ed
 1e-007 1 1 0
1  10 0 -13.032137876494 -12.282137876494
2  16 9 0 -13.032137876494 -12.282137876494
2  17 10 0 -13.032137876494 -12.282137876494
4 CN 9 0 10 0
0

0101000
+320 0 -318 0 *
Ve
1e-007
-2.75 0 5.125
0 0

0101101
*
Ed
 1e-007 1 1 0
1  11 0 0 3.14159265358979
2  18 9 0 0 3.14159265358979
4 C0 9 0 6 0
0

0101000
+316 0 -318 0 *
Ed
 1e-007 1 1 0
1  12 0 -13.032137876494 -12.282137876494
2  19 9 0 -13.032137876494 -12.282137876494
2  20 10 0 -13.032137876494 -12.282137876494
4 CN 9 0 10 0
0

0101000
+321 0 -316 0 *
Wi

0101100
+319 0 +317 0 -315 0 -314 0 *
Fa
0  1e-007 9 0

0101000
+313 0 *
Ve
1e-007
7.5 0 -0.1
0 0

0101101
*
Ve
1e-007
6.425718836504 -1.772863400193 -0.1
0 0

0101101
*
Ed
 1e-007 1 1 0
1  13 0 0 1.08957807218785
2  21 11 0 0 1.08957807218785
2  22 12 0 0 1.08957807218785
4 G1 11 0 12 0
0

0101000
+311 0 -310 0 *
Ve
1e-007
7.4 0 0
0 0

0101101
*
Ed
 1e-007 1 1 0
1  14 0 1.5707963267949 3.14159265358979
2  23 11 0 1.5707963267949 3.14159265358979
2  24 13 0 1.5707963267949 3.14159265358979
4 G2 11 0 13 0
0

0101000
+311 0 -308 0 *
Ve
1e-007
6.379432894678 -1.684220230183 0
0 0

0101101
*
Ed
 1e-007 1 1 0
1  15 0 5.19360723499145 6.28318530717959
2  25 11 0 5.19360723499145 6.28318530717959
4 G1 11 0 14 0
0

0101000
+306 0 -308 0 *
Ed
 1e-007 1 1 0
1  16 0 0 1.5707963267949
2  26 11 0 0 1.5707963267949
2  27 15 0 0 1.5707963267949
4 G1 11 0 15 0
0

0101000
+310 0 -306 0 *
Wi

0101100
-309 0 +307 0 -305 0 -304 0 *
Fa
0  1e-007 11 0

0101000
+303 0 *
Ve
1e-007
3.9 4.837354856632e-016 3
0 0

0101101
*
Ve
1e-007
-3.9 0 3
0 0

0101101
*
Ed
 1e-007 1 1 0
1  17 0 0 3.14159265358979
2  28 16 0 0 3.14159265358979
4 C0 16 0 17 0
0

0101000
+301 0 -300 0 *
Ve
1e-007
4 4.898587196589e-016 2.9
0 0

0101101
*
Ed
 1e-007 1 1 0
1  18 0 5.30245156231653e-034 0.14142135623731
2  29 16 0 5.30245156231653e-034 0.14142135623731
2  30 18 0 5.30245156231653e-034 0.14142135623731
4 CN 16 0 18 0
0

0101000
+301 0 -298 0 *
Ve
1e-007
-4 0 2.9
0 0

0101101
*
Ed
 1e-007 1 1 0
1  19 0 3.14159265358979 6.28318530717959
2  31 16 0 3.14159265358979 6.28318530717959
2  32 19 0 3.14159265358979 6.28318530717959
4 C0 16 0 19 0
0

0101000
+296 0 -298 0 *
Ed
 1e-007 1 1 0
1  20 0 0 0.14142135623731
2  33 16 0 0 0.14142135623731
2  34 18 0 0 0.14142135623731
4 CN 16 0 18 0
0

0101000
+300 0 -296 0 *
Wi

0101100
-299 0 +297 0 -295 0 -294 0 *
Fa
0  1e-007 16 0

0101000
+293 0 *
Ve
1e-007
-2.5 3.061616997868e-016 -6.4
0 0

0101101
*
Ve
1e-007
-2.6 0 -6.5
0 0

0101101
*
Ed
 1e-007 1 1 0
1  21 0 -0.141421356237309 0
2  35 20 0 -0.141421356237309 0
2  36 21 0 -0.141421356237309 0
4 CN 20 0 21 0
0

0101000
+291 0 -290 0 *
Ve
1e-007
2.6 3.184081677783e-016 -6.5
0 0

0101101
*
Ed
 1e-007 1 1 0
1  22 0 3.14159265358979 6.28318530717959
2  37 20 0 3.14159265358979 6.28318530717959
4 C0 20 0 22 0
0

0101000
+290 0 -288 0 *
Ve
1e-007
2.5 0 -6.4
0 0

0101101
*
Ed
 1e-007 1 1 0
1  23 0 -0.141421356237309 0
2  38 20 0 -0.141421356237309 0
2  39 21 0 -0.141421356237309 0
4 CN 20 0 21 0
0

0101000
+286 0 -288 0 *
Ed
 1e-007 1 1 0
1  24 0 0 3.14159265358979
2  40 20 0 0 3.14159265358979
2  41 23 0 0 3.14159265358979
4 C0 20 0 23 0
0

0101000
+286 0 -291 0 *
Wi

0101100
+289 0 +287 0 -285 0 +284 0 *
Fa
0  1e-007 20 0

0101000
+283 0 *
Ve
1e-007
-3.4 4.225031457058e-016 -6.5
0 0

0101101
*
Ve
1e-007
3.4 0 -6.5
0 0

0101101
*
Ed
 1e-007 1 1 0
1  25 0 3.14159265358979 6.28318530717959
2  42 24 0 3.14159265358979 6.28318530717959
4 C0 24 0 22 0
0

0101000
+281 0 -280 0 *
Ve
1e-007
-3.5 4.286263797016e-016 -6.4
0 0

0101101
*
Ed
 1e-007 1 1 0
1  26 0 -0.141421356237309 0
2  43 24 0 -0.141421356237309 0
2  44 25 0 -0.141421356237309 0
4 CN 24 0 25 0
0

0101000
+281 0 -278 0 *
Ve
1e-007
3.5 0 -6.4
0 0

0101101
*
Ed
 1e-007 1 1 0
1  27 0 0 3.14159265358979
2  45 24 0 0 3.14159265358979
2  46 26 0 0 3.14159265358979
4 C0 24 0 26 0
0

0101000
+276 0 -278 0 *
Ed
 1e-007 1 1 0
1  28 0 -0.141421356237309 0
2  47 24 0 -0.141421356237309 0
2  48 25 0 -0.141421356237309 0
4 CN 24 0 25 0
0

0101000
+280 0 -276 0 *
Wi

0101100
-279 0 +277 0 -275 0 -274 0 *
Fa
0  1e-007 24 0

0101000
+273 0 *
Ve
1e-007
-6.5 1.224646799147e-016 -1.9
0 0

0101101
*
Ve
1e-007
-6.6 0 -2
0 0

0101101
*
Ed
 1e-007 1 1 0
1  29 0 -0.141421356237309 0
2  49 27 0 -0.141421356237309 0
2  50 28 0 -0.141421356237309 0
4 CN 27 0 28 0
0

0101000
+271 0 -270 0 *
Ve
1e-007
-4.4 1.347111479062e-016 -2
0 0

0101101
*
Ed
 1e-007 1 1 0
1  30 0 3.14159265358979 6.28318530717959
2  51 27 0 3.14159265358979 6.28318530717959
4 C0 27 0 29 0
0

0101000
+270 0 -268 0 *
Ve
1e-007
-4.5 0 -1.9
0 0

0101101
*
Ed
 1e-007 1 1 0
1  31 0 -0.141421356237309 0
2  52 27 0 -0.141421356237309 0
2  53 28 0 -0.141421356237309 0
4 CN 27 0 28 0
0

0101000
+266 0 -268 0 *
Ed
 1e-007 1 1 0
1  32 0 0 3.14159265358979
2  54 27 0 0 3.14159265358979
2  55 30 0 0 3.14159265358979
4 C0 27 0 30 0
0

0101000
+266 0 -271 0 *
Wi

0101100
+269 0 +267 0 -265 0 +264 0 *
Fa
0  1e-007 27 0

0101000
+263 0 *
Ve
1e-007
-4.5 0 -0.1
0 0

0101101
*
Ve
1e-007
-4.4 0 -1.355252715607e-017
0 0

0101101
*
Ed
 1e-007 1 1 0
1  33 0 0 0.141421356237309
2  56 31 0 0 0.141421356237309
2  57 32 0 0 0.141421356237309
4 CN 31 0 32 0
0

0101000
+261 0 -260 0 *
Ve
1e-007
-6.6 1.347111479062e-016 -1.355252715607e-017
0 0

0101101
*
Ed
 1e-007 1 1 0
1  34 0 0 3.14159265358979
2  58 31 0 0 3.14159265358979
4 C0 31 0 14 0
0

0101000
+260 0 -258 0 *
Ve
1e-007
-6.5 1.224646799147e-016 -0.1
0 0

0101101
*
Ed
 1e-007 1 1 0
1  35 0 0 0.141421356237309
2  59 31 0 0 0.141421356237309
2  60 32 0 0 0.141421356237309
4 CN 31 0 32 0
0

0101000
+256 0 -258 0 *
Ed
 1e-007 1 1 0
1  36 0 3.14159265358979 6.28318530717959
2  61 31 0 3.14159265358979 6.28318530717959
2  62 30 0 3.14159265358979 6.28318530717959
4 C0 31 0 30 0
0

0101000
+256 0 -261 0 *
Wi

0101100
+259 0 +257 0 -255 0 +254 0 *
Fa
0  1e-007 31 0

0101000
+253 0 *
Ve
1e-007
4.5 1.224646799147e-016 -1.9
0 0

0101101
*
Ve
1e-007
4.4 0 -2
0 0

0101101
*
Ed
 1e-007 1 1 0
1  37 0 0 0.141421356237309
2  63 33 0 0 0.141421356237309
2  64 34 0 0 0.141421356237309
4 CN 33 0 34 0
0

0101000
+251 0 -250 0 *
Ve
1e-007
6.6 1.347111479062e-016 -2
0 0

0101101
*
Ed
 1e-007 1 1 0
1  38 0 3.14159265358979 6.28318530717959
2  65 33 0 3.14159265358979 6.28318530717959
4 C0 33 0 29 0
0

0101000
+250 0 -248 0 *
Ve
1e-007
6.5 0 -1.9
0 0

0101101
*
Ed
 1e-007 1 1 0
1  39 0 -1.06049031246935e-032 0.141421356237309
2  66 33 0 -1.06049031246935e-032 0.141421356237309
2  67 34 0 -1.06049031246935e-032 0.141421356237309
4 CN 33 0 34 0
0

0101000
+246 0 -248 0 *
Ed
 1e-007 1 1 0
1  40 0 0 3.14159265358979
2  68 33 0 0 3.14159265358979
2  69 35 0 0 3.14159265358979
4 C0 33 0 35 0
0

0101000
+246 0 -251 0 *
Wi

0101100
+249 0 +247 0 -245 0 +244 0 *
Fa
0  1e-007 33 0

0101000
+243 0 *
Ve
1e-007
6.5 0 -0.1
0 0

0101101
*
Ve
1e-007
6.6 0 0
0 0

0101101
*
Ed
 1e-007 1 1 0
1  41 0 -0.141421356237309 0
2  70 36 0 -0.141421356237309 0
2  71 37 0 -0.141421356237309 0
4 CN 36 0 37 0
0

0101000
+241 0 -240 0 *
Ve
1e-007
4.4 1.347111479062e-016 0
0 0

0101101
*
Ed
 1e-007 1 1 0
1  42 0 0 3.14159265358979
2  72 36 0 0 3.14159265358979
4 C0 36 0 14 0
0

0101000
+240 0 -238 0 *
Ve
1e-007
4.5 1.224646799147e-016 -0.1
0 0

0101101
*
Ed
 1e-007 1 1 0
1  43 0 -0.141421356237309 0
2  73 36 0 -0.141421356237309 0
2  74 37 0 -0.141421356237309 0
4 CN 36 0 37 0
0

0101000
+236 0 -238 0 *
Ed
 1e-007 1 1 0
1  44 0 3.14159265358979 6.28318530717959
2  75 36 0 3.14159265358979 6.28318530717959
2  76 35 0 3.14159265358979 6.28318530717959
4 C0 36 0 35 0
0

0101000
+236 0 -241 0 *
Wi

0101100
+239 0 +237 0 -235 0 +234 0 *
Fa
0  1e-007 36 0

0101000
+233 0 *
Ve
1e-007
2.5 0 7
0 0

0101101
*
Ve
1e-007
3.5 4.286263797016e-016 8
0 0

0101101
*
Ed
 1e-007 1 1 0
1  45 0 0 1.4142135623731
2  77 38 0 0 1.4142135623731
2  78 39 0 0 1.4142135623731
4 CN 38 0 39 0
0

0101000
+231 0 -230 0 *
Ve
1e-007
-3.5 0 8
0 0

0101101
*
Ed
 1e-007 1 1 0
1  46 0 3.14159265358979 6.28318530717959
2  79 38 0 3.14159265358979 6.28318530717959
2  80 40 0 3.14159265358979 6.28318530717959
4 C0 38 0 40 0
0

0101000
+228 0 -230 0 *
Ve
1e-007
-2.5 3.061616997868e-016 7
0 0

0101101
*
Ed
 1e-007 1 1 0
1  47 0 0 1.4142135623731
2  81 38 0 0 1.4142135623731
2  82 39 0 0 1.4142135623731
4 CN 38 0 39 0
0

0101000
+226 0 -228 0 *
Ed
 1e-007 1 1 0
1  48 0 3.14159265358979 6.28318530717959
2  83 38 0 3.14159265358979 6.28318530717959
2  84 23 0 3.14159265358979 6.28318530717959
4 C0 38 0 23 0
0

0101000
+226 0 -231 0 *
Wi

0101100
+229 0 -227 0 -225 0 +224 0 *
Fa
0  1e-007 38 0

0101000
+223 0 *
Ve
1e-007
-3.5 4.286263797016e-016 -2
0 0

0101101
*
Ed
 1e-007 1 1 0
1  49 0 0.0999999999999996 4.5
2  85 26 0 0.0999999999999996 4.5
2  86 41 0 0.0999999999999996 4.5
4 CN 26 0 41 0
0

0101000
+278 0 -221 0 *
Ve
1e-007
3.5 0 -2
0 0

0101101
*
Ed
 1e-007 1 1 0
1  50 0 0 3.14159265358979
2  87 26 0 0 3.14159265358979
4 C0 26 0 29 0
0

0101000
+219 0 -221 0 *
Ed
 1e-007 1 1 0
1  51 0 0.0999999999999996 4.5
2  88 26 0 0.0999999999999996 4.5
2  89 41 0 0.0999999999999996 4.5
4 CN 26 0 41 0
0

0101000
+276 0 -219 0 *
Wi

0101100
+275 0 +220 0 -218 0 -217 0 *
Fa
0  1e-007 26 0

0101000
+216 0 *
Ed
 1e-007 1 1 0
1  52 0 0 3.14159265358979
2  90 4 0 0 3.14159265358979
2  91 39 0 0 3.14159265358979
4 C0 4 0 39 0
0

0101000
+230 0 -228 0 *
Ed
 1e-007 1 1 0
1  53 0 -0 2.075
2  92 4 0 -0 2.075
2  93 40 0 -0 2.075
4 CN 4 0 40 0
0

0101000
+230 0 -336 0 *
Ed
 1e-007 1 1 0
1  54 0 -0 2.075
2  94 4 0 -0 2.075
2  95 40 0 -0 2.075
4 CN 4 0 40 0
0

0101000
+228 0 -338 0 *
Wi

0101100
-214 0 +213 0 +335 0 -212 0 *
Fa
0  1e-007 4 0

0101000
+211 0 *
Ve
1e-007
4 4.898587196589e-016 0
0 0

0101101
*
Ed
 1e-007 1 1 0
1  55 0 0.1 3
2  96 19 0 0.1 3
2  97 42 0 0.1 3
4 CN 19 0 42 0
0

0101000
+298 0 -209 0 *
Ve
1e-007
-4 0 0
0 0

0101101
*
Ed
 1e-007 1 1 0
1  56 0 0 3.14159265358979
2  98 19 0 0 3.14159265358979
4 C0 19 0 14 0
0

0101000
+209 0 -207 0 *
Ed
 1e-007 1 1 0
1  57 0 0.1 3
2  99 19 0 0.1 3
2  100 42 0 0.1 3
4 CN 19 0 42 0
0

0101000
+296 0 -207 0 *
Wi

0101100
+295 0 +208 0 +206 0 -205 0 *
Fa
0  1e-007 19 0

0101000
+204 0 *
Ed
 1e-007 1 1 0
1  58 0 -4.4 9
2  101 23 0 -4.4 9
2  102 43 0 -4.4 9
4 CN 23 0 43 0
0

0101000
+286 0 -231 0 *
Ed
 1e-007 1 1 0
1  59 0 -4.4 9
2  103 23 0 -4.4 9
2  104 43 0 -4.4 9
4 CN 23 0 43 0
0

0101000
+291 0 -226 0 *
Wi

0101100
+202 0 -224 0 -201 0 -284 0 *
Fa
0  1e-007 23 0

0101000
+200 0 *
Ed
 1e-007 1 1 0
1  60 0 0.1 1.9
2  105 30 0 0.1 1.9
2  106 44 0 0.1 1.9
4 CN 30 0 44 0
0

0101000
+266 0 -261 0 *
Ed
 1e-007 1 1 0
1  61 0 0.1 1.9
2  107 30 0 0.1 1.9
2  108 44 0 0.1 1.9
4 CN 30 0 44 0
0

0101000
+271 0 -256 0 *
Wi

0101100
+198 0 -254 0 -197 0 -264 0 *
Fa
0  1e-007 30 0

0101000
+196 0 *
Ed
 1e-007 1 1 0
1  62 0 0.1 1.9
2  109 35 0 0.1 1.9
2  110 45 0 0.1 1.9
4 CN 35 0 45 0
0

0101000
+246 0 -241 0 *
Ed
 1e-007 1 1 0
1  63 0 0.1 1.9
2  111 35 0 0.1 1.9
2  112 45 0 0.1 1.9
4 CN 35 0 45 0
0

0101000
+251 0 -236 0 *
Wi

0101100
+194 0 -234 0 -193 0 -244 0 *
Fa
0  1e-007 35 0

0101000
+192 0 *
Ve
1e-007
7.5 0 -2
0 0

0101101
*
Ve
1e-007
6.425718836504 -1.772863400193 -2
0 0

0101101
*
Ed
 1e-007 1 1 0
1  64 0 0 1.08957807218785
2  113 12 0 0 1.08957807218785
4 C0 12 0 29 0
0

0101000
+190 0 -189 0 *
Ed
 1e-007 1 1 0
1  65 0 0 1.9
2  114 12 0 0 1.9
2  115 46 0 0 1.9
4 CN 12 0 46 0
0

0101000
+190 0 -311 0 *
Ed
 1e-007 1 1 0
1  66 0 0 1.9
2  116 12 0 0 1.9
4 G1 12 0 47 0
0

0101000
+189 0 -310 0 *
Wi

0101100
-188 0 +187 0 +309 0 -186 0 *
Fa
0  1e-007 12 0

0101000
+185 0 *
Ve
1e-007
3.5 4.286263797016e-016 3
0 0

0101101
*
Ed
 1e-007 1 1 0
1  67 0 2.925 5
2  117 8 0 2.925 5
2  118 48 0 2.925 5
4 CN 8 0 48 0
0

0101000
+328 0 -183 0 *
Ve
1e-007
-3.5 0 3
0 0

0101101
*
Ed
 1e-007 1 1 0
1  68 0 3.14159265358979 6.28318530717959
2  119 8 0 3.14159265358979 6.28318530717959
4 C0 8 0 17 0
0

0101000
+181 0 -183 0 *
Ed
 1e-007 1 1 0
1  69 0 2.925 5
2  120 8 0 2.925 5
2  121 48 0 2.925 5
4 CN 8 0 48 0
0

0101000
+326 0 -181 0 *
Wi

0101100
+325 0 +182 0 -180 0 -179 0 *
Fa
0  1e-007 8 0

0101000
+178 0 *
Ed
 1e-007 1 1 0
1  70 0 0 3.14159265358979
2  122 48 0 0 3.14159265358979
2  123 7 0 0 3.14159265358979
4 C0 48 0 7 0
0

0101000
+328 0 -326 0 *
Ed
 1e-007 1 1 0
1  71 0 0 3.14159265358979
2  124 48 0 0 3.14159265358979
4 C0 48 0 17 0
0

0101000
+183 0 -181 0 *
Wi

0101100
-182 0 +176 0 +179 0 -175 0 *
Fa
0  1e-007 48 0

0101000
+174 0 *
Ed
 1e-007 1 1 0
1  72 0 3.14159265358979 6.28318530717959
2  125 18 0 3.14159265358979 6.28318530717959
4 C0 17 0 18 0
0

0101000
+300 0 -301 0 *
Wi

0101100
+172 0 +299 0 *
Wi

0101100
+180 0 +175 0 *
Fa
0  1e-007 17 0

0101000
+171 0 +170 0 *
Ve
1e-007
-0.416573476427 -4.797788530087 0
0 0

0101101
*
Ve
1e-007
0.416573476427 -4.797788530087 0
0 0

0101101
*
Ed
 1e-007 1 1 0
1  73 0 4.23117072577753 5.19360723499185
2  126 49 0 4.23117072577753 5.19360723499185
4 G1 14 0 49 0
0

0101000
+168 0 -167 0 *
Ed
 1e-007 1 1 0
1  74 0 -6.72681202353624 0
2  127 15 0 -6.72681202353624 0
4 G1 14 0 15 0
0

0101000
+167 0 -306 0 *
Ve
1e-007
6.379432894678 1.684220230183 0
0 0

0101101
*
Ed
 1e-007 1 1 0
1  75 0 0 1.08957807218814
2  128 13 0 0 1.08957807218814
4 G1 14 0 13 0
0

0101000
+308 0 -164 0 *
Ve
1e-007
0.416573476427 4.797788530087 0
0 0

0101101
*
Ed
 1e-007 1 1 0
1  76 0 -4.87537435052893 1.85143767300731
2  129 50 0 -4.87537435052893 1.85143767300731
4 G1 14 0 50 0
0

0101000
+164 0 -162 0 *
Ve
1e-007
-0.416573476427 4.797788530087 0
0 0

0101101
*
Ed
 1e-007 1 1 0
1  77 0 1.08957807218773 2.05201458140206
2  130 51 0 1.08957807218773 2.05201458140206
4 G1 14 0 51 0
0

0101000
+162 0 -160 0 *
Ve
1e-007
-6.379432894678 1.684220230183 0
0 0

0101101
*
Ed
 1e-007 1 1 0
1  78 0 -6.72681202353624 -0
2  131 52 0 -6.72681202353624 -0
4 G1 14 0 52 0
0

0101000
+160 0 -158 0 *
Ve
1e-007
-6.379432894678 -1.684220230183 0
0 0

0101101
*
Ed
 1e-007 1 1 0
1  79 0 2.05201458140165 4.23117072577793
2  132 53 0 2.05201458140165 4.23117072577793
4 G1 14 0 53 0
0

0101000
+158 0 -156 0 *
Ed
 1e-007 1 1 0
1  80 0 -4.87537435052893 1.85143767300731
2  133 54 0 -4.87537435052893 1.85143767300731
4 G1 14 0 54 0
0

0101000
+156 0 -168 0 *
Wi

0101100
+166 0 +165 0 +305 0 +163 0 +161 0 +159 0 +157 0 +155 0 +154 0 *
Ed
 1e-007 1 1 0
1  81 0 3.14159265358979 6.28318530717959
2  134 37 0 3.14159265358979 6.28318530717959
4 C0 14 0 37 0
0

0101000
+238 0 -240 0 *
Wi

0101100
+237 0 +152 0 *
Ed
 1e-007 1 1 0
1  82 0 3.14159265358979 6.28318530717959
2  135 32 0 3.14159265358979 6.28318530717959
4 C0 14 0 32 0
0

0101000
+258 0 -260 0 *
Wi

0101100
+257 0 +150 0 *
Ed
 1e-007 1 1 0
1  83 0 3.14159265358979 6.28318530717959
2  136 42 0 3.14159265358979 6.28318530717959
4 C0 14 0 42 0
0

0101000
+207 0 -209 0 *
Wi

0101100
-148 0 -206 0 *
Fa
0  1e-007 14 0

0101000
+153 0 +151 0 +149 0 +147 0 *
Ve
1e-007
6.425718836504 1.772863400193 -2
0 0

0101101
*
Ed
 1e-007 1 1 0
1  84 0 5.19360723499173 6.28318530717959
2  137 46 0 5.19360723499173 6.28318530717959
4 C0 46 0 29 0
0

0101000
+145 0 -190 0 *
Ve
1e-007
6.425718836504 1.772863400193 -0.1
0 0

0101101
*
Ed
 1e-007 1 1 0
1  85 0 0 1.9
2  138 46 0 0 1.9
4 G1 46 0 55 0
0

0101000
+145 0 -143 0 *
Ed
 1e-007 1 1 0
1  86 0 5.19360723499173 6.28318530717959
2  139 46 0 5.19360723499173 6.28318530717959
2  140 13 0 5.19360723499173 6.28318530717959
4 G1 46 0 13 0
0

0101000
+143 0 -311 0 *
Wi

0101100
-187 0 -144 0 +142 0 +141 0 *
Fa
0  1e-007 46 0

0101000
+140 0 *
Ve
1e-007
0.462859418252 -4.886431700096 -0.1
0 0

0101101
*
Ed
 1e-007 1 1 0
1  87 0 -6.72681202353667 0
2  141 15 0 -6.72681202353667 0
4 G1 47 0 15 0
0

0101000
+310 0 -138 0 *
Ve
1e-007
0.462859418252 -4.886431700096 -2
0 0

0101101
*
Ed
 1e-007 1 1 0
1  88 0 0 1.9
2  142 56 0 0 1.9
4 C1 47 0 56 0
0

0101000
+136 0 -138 0 *
Ed
 1e-007 1 1 0
1  89 0 -4.87537435052982 1.85143767300685
4 C0 47 0 29 0
0

0101000
+189 0 -136 0 *
Wi

0101100
+186 0 +137 0 -135 0 -134 0 *
Fa
0  1e-007 47 0

0101000
-133 0 *
Ve
1e-007
-0.462859418252 -4.886431700096 -0.1
0 0

0101101
*
Ed
 1e-007 1 1 0
1  90 0 1.08957807218762 2.05201458140217
2  143 56 0 1.08957807218762 2.05201458140217
2  144 49 0 1.08957807218762 2.05201458140217
4 G1 56 0 49 0
0

0101000
+138 0 -131 0 *
Ve
1e-007
-0.462859418252 -4.886431700096 -2
0 0

0101101
*
Ed
 1e-007 1 1 0
1  91 0 0 1.9
2  145 56 0 0 1.9
4 C1 56 0 57 0
0

0101000
+129 0 -131 0 *
Ed
 1e-007 1 1 0
1  92 0 1.08957807218762 2.05201458140217
2  146 56 0 1.08957807218762 2.05201458140217
4 C0 56 0 29 0
0

0101000
+136 0 -129 0 *
Wi

0101100
+135 0 +130 0 -128 0 -127 0 *
Fa
0  1e-007 56 0

0101000
+126 0 *
Ve
1e-007
-6.425718836504 -1.772863400193 -0.1
0 0

0101101
*
Ed
 1e-007 1 1 0
1  93 0 -1.85143767300685 4.87537435052982
2  147 54 0 -1.85143767300685 4.87537435052982
4 G1 57 0 54 0
0

0101000
+131 0 -124 0 *
Ve
1e-007
-6.425718836504 -1.772863400193 -2
0 0

0101101
*
Ed
 1e-007 1 1 0
1  94 0 0 1.9
2  148 58 0 0 1.9
4 G1 57 0 58 0
0

0101000
+122 0 -124 0 *
Ed
 1e-007 1 1 0
1  95 0 -4.87537435052982 1.85143767300685
4 C0 57 0 29 0
0

0101000
+122 0 -129 0 *
Wi

0101100
+128 0 +123 0 -121 0 +120 0 *
Fa
0  1e-007 57 0

0101000
+119 0 *
Ve
1e-007
-6.425718836504 1.772863400193 -0.1
0 0

0101101
*
Ed
 1e-007 1 1 0
1  96 0 2.05201458140194 4.23117072577764
2  149 58 0 2.05201458140194 4.23117072577764
2  150 53 0 2.05201458140194 4.23117072577764
4 G1 58 0 53 0
0

0101000
+124 0 -117 0 *
Ve
1e-007
-6.425718836504 1.772863400193 -2
0 0

0101101
*
Ed
 1e-007 1 1 0
1  97 0 0 1.9
2  151 58 0 0 1.9
4 G1 58 0 59 0
0

0101000
+115 0 -117 0 *
Ed
 1e-007 1 1 0
1  98 0 2.05201458140194 4.23117072577764
2  152 58 0 2.05201458140194 4.23117072577764
4 C0 58 0 29 0
0

0101000
+115 0 -122 0 *
Wi

0101100
+121 0 +116 0 -114 0 +113 0 *
Fa
0  1e-007 58 0

0101000
+112 0 *
Ve
1e-007
-0.462859418252 4.886431700096 -0.1
0 0

0101101
*
Ed
 1e-007 1 1 0
1  99 0 -6.72681202353667 0
2  153 52 0 -6.72681202353667 0
4 G1 59 0 52 0
0

0101000
+117 0 -110 0 *
Ve
1e-007
-0.462859418252 4.886431700096 -2
0 0

0101101
*
Ed
 1e-007 1 1 0
1  100 0 0 1.9
2  154 60 0 0 1.9
4 C1 59 0 60 0
0

0101000
+108 0 -110 0 *
Ed
 1e-007 1 1 0
1  101 0 -4.87537435052982 1.85143767300685
4 C0 59 0 29 0
0

0101000
+115 0 -108 0 *
Wi

0101100
+114 0 +109 0 -107 0 -106 0 *
Fa
0  1e-007 59 0

0101000
-105 0 *
Ve
1e-007
0.462859418252 4.886431700096 -0.1
0 0

0101101
*
Ed
 1e-007 1 1 0
1  102 0 4.23117072577742 5.19360723499197
2  155 60 0 4.23117072577742 5.19360723499197
2  156 51 0 4.23117072577742 5.19360723499197
4 G1 60 0 51 0
0

0101000
+110 0 -103 0 *
Ve
1e-007
0.462859418252 4.886431700096 -2
0 0

0101101
*
Ed
 1e-007 1 1 0
1  103 0 0 1.9
2  157 60 0 0 1.9
4 C1 60 0 55 0
0

0101000
+101 0 -103 0 *
Ed
 1e-007 1 1 0
1  104 0 1.08957807218762 2.05201458140217
2  158 60 0 1.08957807218762 2.05201458140217
4 C0 60 0 29 0
0

0101000
+101 0 -108 0 *
Wi

0101100
+107 0 +102 0 -100 0 +99 0 *
Fa
0  1e-007 60 0

0101000
+98 0 *
Ed
 1e-007 1 1 0
1  105 0 0 3.14159265358979
2  159 45 0 0 3.14159265358979
2  160 37 0 0 3.14159265358979
4 C0 45 0 37 0
0

0101000
+241 0 -236 0 *
Ed
 1e-007 1 1 0
1  106 0 3.14159265358979 6.28318530717959
2  161 45 0 3.14159265358979 6.28318530717959
2  162 34 0 3.14159265358979 6.28318530717959
4 C0 45 0 34 0
0

0101000
+251 0 -246 0 *
Wi

0101100
-96 0 -194 0 -95 0 +193 0 *
Fa
0  1e-007 45 0

0101000
+94 0 *
Ed
 1e-007 1 1 0
1  107 0 0 3.14159265358979
2  163 44 0 0 3.14159265358979
2  164 32 0 0 3.14159265358979
4 C0 44 0 32 0
0

0101000
+261 0 -256 0 *
Ed
 1e-007 1 1 0
1  108 0 3.14159265358979 6.28318530717959
2  165 44 0 3.14159265358979 6.28318530717959
2  166 28 0 3.14159265358979 6.28318530717959
4 C0 44 0 28 0
0

0101000
+271 0 -266 0 *
Wi

0101100
-92 0 -198 0 -91 0 +197 0 *
Fa
0  1e-007 44 0

0101000
+90 0 *
Ed
 1e-007 1 1 0
1  109 0 -1.85143767300685 4.87537435052982
2  167 50 0 -1.85143767300685 4.87537435052982
4 G1 55 0 50 0
0

0101000
+103 0 -143 0 *
Ed
 1e-007 1 1 0
1  110 0 -4.87537435052982 1.85143767300685
4 C0 55 0 29 0
0

0101000
+145 0 -101 0 *
Wi

0101100
+100 0 +88 0 -142 0 +87 0 *
Fa
0  1e-007 55 0

0101000
+86 0 *
Ed
 1e-007 1 1 0
1  111 0 0 3.14159265358979
2  168 43 0 0 3.14159265358979
2  169 39 0 0 3.14159265358979
4 C0 43 0 39 0
0

0101000
+231 0 -226 0 *
Ed
 1e-007 1 1 0
1  112 0 3.14159265358979 6.28318530717959
2  170 43 0 3.14159265358979 6.28318530717959
2  171 21 0 3.14159265358979 6.28318530717959
4 C0 43 0 21 0
0

0101000
+291 0 -286 0 *
Wi

0101100
-84 0 -202 0 -83 0 +201 0 *
Fa
0  1e-007 43 0

0101000
+82 0 *
Ed
 1e-007 1 1 0
1  113 0 0 3.14159265358979
2  172 34 0 0 3.14159265358979
4 C0 29 0 34 0
0

0101000
+248 0 -250 0 *
Wi

0101100
+247 0 +80 0 *
Ed
 1e-007 1 1 0
1  114 0 0 3.14159265358979
2  173 28 0 0 3.14159265358979
4 C0 29 0 28 0
0

0101000
+268 0 -270 0 *
Wi

0101100
+267 0 +78 0 *
Ed
 1e-007 1 1 0
1  115 0 3.14159265358979 6.28318530717959
2  174 41 0 3.14159265358979 6.28318530717959
4 C0 29 0 41 0
0

0101000
+221 0 -219 0 *
Wi

0101100
+218 0 +76 0 *
Wi

0101100
+144 0 +188 0 +134 0 +127 0 -120 0 -113 0 +106 0 -99 0 -87 0 *
Fa
0  1e-007 29 0

0101000
-79 0 -77 0 -75 0 -74 0 *
Ed
 1e-007 1 1 0
1  116 0 0 3.14159265358979
2  175 42 0 0 3.14159265358979
2  176 18 0 0 3.14159265358979
4 C0 42 0 18 0
0

0101000
+298 0 -296 0 *
Wi

0101100
-208 0 +72 0 +205 0 +148 0 *
Fa
0  1e-007 42 0

0101000
+71 0 *
Ed
 1e-007 1 1 0
1  117 0 3.14159265358979 6.28318530717959
2  177 40 0 3.14159265358979 6.28318530717959
2  178 3 0 3.14159265358979 6.28318530717959
4 C0 40 0 3 0
0

0101000
+338 0 -336 0 *
Wi

0101100
-213 0 -227 0 +212 0 +69 0 *
Fa
0  1e-007 40 0

0101000
+68 0 *
Ed
 1e-007 1 1 0
1  118 0 3.14159265358979 6.28318530717959
2  179 41 0 3.14159265358979 6.28318530717959
2  180 25 0 3.14159265358979 6.28318530717959
4 C0 41 0 25 0
0

0101000
+278 0 -276 0 *
Wi

0101100
-220 0 +66 0 +217 0 -76 0 *
Fa
0  1e-007 41 0

0101000
+65 0 *
Ed
 1e-007 1 1 0
1  119 0 0 3.14159265358979
2  181 25 0 0 3.14159265358979
4 C0 22 0 25 0
0

0101000
+280 0 -281 0 *
Wi

0101100
+63 0 +279 0 *
Ed
 1e-007 1 1 0
1  120 0 0 3.14159265358979
2  182 21 0 0 3.14159265358979
4 C0 22 0 21 0
0

0101000
+288 0 -290 0 *
Wi

0101100
+287 0 +61 0 *
Fa
0  1e-007 22 0

0101000
-62 0 -60 0 *
Wi

0101100
-214 0 -229 0 +84 0 +225 0 *
Fa
0  1e-007 39 0

0101000
+58 0 *
Wi

0101100
+152 0 -239 0 +96 0 +235 0 *
Fa
0  1e-007 37 0

0101000
+56 0 *
Wi

0101100
+80 0 -249 0 +95 0 +245 0 *
Fa
0  1e-007 34 0

0101000
+54 0 *
Wi

0101100
+150 0 -259 0 +92 0 +255 0 *
Fa
0  1e-007 32 0

0101000
+52 0 *
Wi

0101100
+78 0 -269 0 +91 0 +265 0 *
Fa
0  1e-007 28 0

0101000
+50 0 *
Wi

0101100
-277 0 -63 0 +274 0 -66 0 *
Fa
0  1e-007 25 0

0101000
+48 0 *
Wi

0101100
+61 0 -289 0 +83 0 +285 0 *
Fa
0  1e-007 21 0

0101000
+46 0 *
Wi

0101100
-297 0 -172 0 +294 0 -72 0 *
Fa
0  1e-007 18 0

0101000
+44 0 *
Ed
 1e-007 1 1 0
1  121 0 1.5707963267949 3.14159265358979
2  183 52 0 1.5707963267949 3.14159265358979
2  184 53 0 1.5707963267949 3.14159265358979
4 G1 52 0 53 0
0

0101000
+158 0 -117 0 *
Ed
 1e-007 1 1 0
1  122 0 0 1.5707963267949
2  185 52 0 0 1.5707963267949
2  186 51 0 0 1.5707963267949
4 G1 52 0 51 0
0

0101000
+110 0 -160 0 *
Wi

0101100
-42 0 -157 0 -41 0 -109 0 *
Fa
0  1e-007 52 0

0101000
+40 0 *
Ed
 1e-007 1 1 0
1  123 0 0 1.5707963267949
2  187 51 0 0 1.5707963267949
2  188 50 0 0 1.5707963267949
4 G1 51 0 50 0
0

0101000
+103 0 -162 0 *
Wi

0101100
+41 0 -159 0 -38 0 -102 0 *
Fa
0  1e-007 51 0

0101000
+37 0 *
Ed
 1e-007 1 1 0
1  124 0 1.5707963267949 3.14159265358979
2  189 53 0 1.5707963267949 3.14159265358979
2  190 54 0 1.5707963267949 3.14159265358979
4 G1 53 0 54 0
0

0101000
+156 0 -124 0 *
Wi

0101100
+42 0 -116 0 -35 0 -155 0 *
Fa
0  1e-007 53 0

0101000
+34 0 *
Ed
 1e-007 1 1 0
1  125 0 0 1.5707963267949
2  191 50 0 0 1.5707963267949
2  192 13 0 0 1.5707963267949
4 G1 50 0 13 0
0

0101000
+143 0 -164 0 *
Wi

0101100
+38 0 -161 0 -32 0 -88 0 *
Fa
0  1e-007 50 0

0101000
+31 0 *
Ed
 1e-007 1 1 0
1  126 0 1.5707963267949 3.14159265358979
2  193 54 0 1.5707963267949 3.14159265358979
2  194 49 0 1.5707963267949 3.14159265358979
4 G1 54 0 49 0
0

0101000
+168 0 -131 0 *
Wi

0101100
+35 0 -123 0 -29 0 -154 0 *
Fa
0  1e-007 54 0

0101000
+28 0 *
Wi

0101100
-307 0 -141 0 +32 0 -163 0 *
Fa
0  1e-007 13 0

0101000
+26 0 *
Ed
 1e-007 1 1 0
1  127 0 1.5707963267949 3.14159265358979
2  195 49 0 1.5707963267949 3.14159265358979
2  196 15 0 1.5707963267949 3.14159265358979
4 G1 49 0 15 0
0

0101000
+167 0 -138 0 *
Wi

0101100
+29 0 -130 0 -24 0 -166 0 *
Fa
0  1e-007 49 0

0101000
+23 0 *
Wi

0101100
+304 0 -165 0 +24 0 -137 0 *
Fa
0  1e-007 15 0

0101000
+21 0 *
Ed
 1e-007 1 1 0
1  128 0 0 3.14159265358979
2  197 3 0 0 3.14159265358979
4 C0 2 0 3 0
0

0101000
+340 0 -341 0 *
Wi

0101100
+19 0 +339 0 *
Ed
 1e-007 1 1 0
1  129 0 3.14159265358979 6.28318530717959
2  198 10 0 3.14159265358979 6.28318530717959
4 C0 2 0 10 0
0

0101000
+320 0 -321 0 *
Wi

0101100
-319 0 -17 0 *
Fa
0  1e-007 2 0

0101000
-18 0 -16 0 *
Ed
 1e-007 1 1 0
1  130 0 3.14159265358979 6.28318530717959
2  199 7 0 3.14159265358979 6.28318530717959
4 C0 6 0 7 0
0

0101000
+330 0 -331 0 *
Wi

0101100
+14 0 +329 0 *
Ed
 1e-007 1 1 0
1  131 0 3.14159265358979 6.28318530717959
2  200 10 0 3.14159265358979 6.28318530717959
4 C0 6 0 10 0
0

0101000
+318 0 -316 0 *
Wi

0101100
+315 0 +12 0 *
Fa
0  1e-007 6 0

0101000
+13 0 +11 0 *
Wi

0101100
-317 0 +17 0 +314 0 -12 0 *
Fa
0  1e-007 10 0

0101000
+9 0 *
Wi

0101100
-327 0 -14 0 +324 0 -176 0 *
Fa
0  1e-007 7 0

0101000
+7 0 *
Wi

0101100
-337 0 -19 0 +334 0 -69 0 *
Fa
0  1e-007 3 0

0101000
+5 0 *
Sh

0101100
+332 0 +322 0 +312 0 +302 0 +292 0 -282 0 +272 0 -262 0 -252 0 -242 0 
-232 0 -222 0 +215 0 +210 0 +203 0 -199 0 -195 0 -191 0 +184 0 +177 0 
+173 0 +169 0 +146 0 +139 0 -132 0 +125 0 +118 0 +111 0 -104 0 +97 0 
-93 0 -89 0 +85 0 -81 0 -73 0 +70 0 +67 0 +64 0 -59 0 -57 0 
-55 0 -53 0 -51 0 -49 0 +47 0 -45 0 +43 0 +39 0 +36 0 +33 0 
+30 0 +27 0 +25 0 +22 0 +20 0 -15 0 +10 0 +8 0 +6 0 +4 0 
*
So

0100000
+3 0 *
Co

1100000
+2 4 *

+1 0 