DBRep_DrawableShape

CASCADE Topology V1, (c) Matra-Datavision
Locations 0
Curve2ds 125
1 6.2831853071800001 0 0 1 
1 0 0 0 1 
1 3.1415926535897931 0.070710678118654655 1 0 
1 3.1415926535900001 0 0 1 
1 3.1415926535900001 0 0 1 
1 0 0 1 0 
1 9.4247779607689992 0.050000000000000003 -1 0 
1 0 0.070710678118654655 1 0 
1 3.1415926535900001 0.050000000000000003 -1 0 
1 0 0 1 0 
1 -3.5 -10 -1 0 
1 0 3.5 0 -1 
2 0 -8 -1 0 0 1 2
1 0 0 1 0 
8 4.1932428627817995 4.7123889803847163
1 0 0 1 0 
8 -23.79845456219045 27.767566069048204
1 6.2153547997926388 -6.7518708996335137 -0.86824314212427467 -0.49613893835715694 
8 -23.79845456219045 27.767566069048204
1 2.0465731207203994 0 1 0 
1 0 0 1 0 
2 7 -4 -1 0 0 1 2
8 2.0899424363007792 4.1932428673943338
1 0 0 1 0 
8 -25.783010315619578 25.783010315619077
1 4.4922778767149598 -0.26351371574982085 0.86824314212427467 -0.49613893835715694 
8 -25.783010315619578 25.783010315619077
1 -4.0311288741490268 0 1 0 
2 0 0 -1 0 0 1 2
1 0 0 1 0 
8 1.5707963267948684 2.0899424443224897
1 0 0 1 0 
1 -3.5 2 1 -0 
1 0 3.5 0 1 
1 -9 0 0 1 
1 0 0 0 1 
1 6.2831853071795862 0.070710678118654655 -1 0 
1 3.1415926535897931 0.070710678118654655 -1 0 
1 0 0 1 0 
1 3.1415926535897931 0 1 0 
1 6.2831853071795862 0.07071067811865403 -1 1.987846675914698e-016 
1 6.2831853071800001 0.070710678118637196 -1 1.9878466759132125e-016 
1 6.2831853071800001 0 0 1 
1 0 0 0 1 
1 3.1415926535900001 -0.070710678118623055 1 0 
1 3.1415926535900001 1.45 1 0 
1 3.1415926535900001 0 0 1 
1 3.1415926535900001 0 0 1 
1 -3.1415926535900001 1.45 1 0 
1 -3.1415926535900001 -0.070710678118623055 1 0 
1 4.7123889803847163 1.5 0 -1 
1 -1.5 3.5 0 -1 
1 -3.5 -10 -1 0 
1 0 -2 -1 0 
1 -0 -10 1 0 
1 4.1932428627817995 1.5 0 -1 
2 0 -8 -1 0 0 1 2
1 0 1.5 1 0 
1 4.1932428673943338 1.5 0 -1 
8 -23.786157948153956 27.75526945501171
1 6.2153547997926388 -6.7518708996335137 -0.86824314212427467 -0.49613893835715694 
8 -23.786157948153956 27.75526945501171
1 2.0465731207203994 -1.5000000000000002 1 0 
1 2.0899424363007792 1.5 0 -1 
2 7 -4 -1 0 0 1 2
1 0 1.5 1 0 
1 2.0899424443224897 1.5 0 -1 
8 -25.770713701583084 25.770713701582583
1 4.4922778767149598 -0.26351371574982085 0.86824314212427467 -0.49613893835715694 
8 -25.770713701583084 25.770713701582583
1 -4.0311288741490268 -1.5000000000000002 1 0 
1 1.5707963267948684 1.5 0 -1 
2 0 0 -1 0 0 1 2
1 0 1.5 1 0 
1 -0 -2 -1 0 
1 0 2 -1 0 
1 1.5 3.5 0 1 
1 -3.5 2 1 -0 
1 1.5 0 0 1 
1 -9 0 0 1 
1 6.2831853071800001 0 0 1 
1 0 0 0 1 
1 3.1415926535900001 0 0 1 
1 3.1415926535900001 0 0 1 
1 0 0 1 0 
1 9.4247779607689992 0.050000000000000003 -1 0 
1 3.1415926535900001 0.050000000000000003 -1 0 
1 0 0 1 0 
1 0 1.5 1 0 
1 6.2831853071800001 0 0 1 
1 0 0 0 1 
1 3.1415926535900001 0 0 1 
1 3.1415926535900001 0 0 1 
1 3.1415926535897931 1.5 1 0 
1 6.2831853071800001 0 0 1 
1 0 0 0 1 
1 3.1415926535900001 0.050000000000010002 -1 0 
1 0 0 1 0 
1 3.1415926535900001 6.280369834732813e-016 0 1 
1 3.1415926535900001 6.280369834732813e-016 0 1 
1 0 0 1 0 
1 9.4247779607689992 0.050000000000010002 -1 0 
1 6.2831853071800001 1.9428902930927241e-016 0 1 
1 0 1.9428902930927241e-016 0 1 
1 3.1415926535897931 -1.5700924586830711e-016 1 0 
1 3.1415926535900001 1.9428902930927241e-016 0 1 
1 3.1415926535900001 1.9428902930927241e-016 0 1 
1 0 -1.5700924586830711e-016 1 0 
1 6.2831853071795862 -1.5700924586830711e-016 -1 0 
1 3.1415926535897931 -1.5700924586830711e-016 -1 0 
1 9.4247779607689992 7.8504622934156639e-016 -1 -1.9991038072854209e-016 
1 3.1415926535897931 4.7102773760492136e-016 -1 -1.9991038072857459e-016 
1 6.2831853071800001 0 0 1 
1 0 0 0 1 
1 3.1415926535900001 -0.070710678118623055 1 0 
1 3.1415926535900001 1.45 1 0 
1 3.1415926535900001 0 0 1 
1 3.1415926535900001 0 0 1 
1 -3.1415926535900001 1.45 1 0 
1 -3.1415926535900001 -0.070710678118623055 1 0 
1 -3.1415926535900001 1.45 1 0 
1 -3.1415926535900001 -0.070710678118623055 1 0 
1 6.2831853071800001 0 0 1 
1 0 0 0 1 
1 3.1415926535900001 0 0 1 
1 3.1415926535900001 0 0 1 
1 3.1415926535900001 -0.070710678118623055 1 0 
1 3.1415926535900001 1.45 1 0 
1 6.2831853071800001 1.9428902930927241e-016 0 1 
1 0 1.9428902930927241e-016 0 1 
1 3.1415926535900001 1.9428902930927241e-016 0 1 
1 3.1415926535900001 1.9428902930927241e-016 0 1 
1 6.2831853071800001 1.6653345369372267e-016 0 1 
1 0 1.6653345369372267e-016 0 1 
1 3.1415926535900001 -4.5796699765763134e-016 0 1 
1 3.1415926535900001 -4.5796699765763134e-016 0 1 
Curves 72
1 -4.7445626465380002 4 1.45 0.70710678118654757 0 0.70710678118654757 
8 0 3.1415926535897611
2 -5.7445626465380002 4.0000000000000169 1.5 -0 0 1 -1 -1.6071799975526078e-014 0 1.6071799975526078e-014 -1 0 1.0499999999999996
1 -6.7445626465380002 4 1.45 -0.70710678118654757 8.6595605623434599e-017 0.70710678118654757 
2 -5.7445626465380002 4 1.45 0 0 1 1 0 -0 -0 1 0 1
8 0 3.1415926535897576
2 -5.7445626465380002 3.9999999999999813 1.5 0 0 1 1 1.7763568394002508e-014 -0 -1.7763568394002508e-014 1 0 1.0499999999999998
2 -5.7445626465380002 4 1.45 0 0 1 1 0 -0 -0 1 0 1
1 -3.5 -6 1.5 -1 0 0 
2 0 -4 1.5 -0 -0 -1 -1 0 0 0 1 -0 2
1 6.2153547997926388 -2.7518708996335137 1.5 -0.86824314212427467 -0.49613893835715694 0 
2 7 0 1.5 -0 -0 -1 -1 0 0 0 1 -0 2
1 4.4922778767149598 3.7364862842501791 1.5 0.86824314212427467 -0.49613893835715694 0 
2 0 4 1.5 -0 -0 -1 -1 0 0 0 1 -0 2
1 -3.5 6 1.5 1 -0 -0 
1 -9 4 1.5 -0 1 -0 
8 0 3.1415926535897594
2 -5.7445626465380002 -3.9999999999999822 1.5 -0 0 -1 1 -1.6917684184764293e-014 -0 -1.6917684184764293e-014 -1 0 1.0499999999999998
8 0 3.1415926535897576
2 -5.7445626465380002 -4.0000000000000187 1.5 0 0 -1 -1 1.7763568394002508e-014 0 1.7763568394002508e-014 1 0 1.0499999999999998
8 0 3.1415926535897958
2 -3.3306690738754696e-016 5.9952043329758453e-015 1.5 0 0 -1 -1 -1.3322676295501878e-015 -0 -1.3322676295501878e-015 1 0 4.5
8 0 3.141592653589806
2 3.3306690738754696e-016 -2.886579864025407e-014 1.5 -0 0 -1 1 6.5370865999711937e-015 0 6.5370865999711937e-015 -1 -0 4.5
2 7 0 1.5 0 0 -1 1 0 0 0 -1 0 1.05
2 7 0 1.5 0 0 -1 1 0 0 0 -1 0 1.05
1 -6.7445626465380002 4 1.5 -0 -0 -1 
2 -5.7445626465380002 4 0.050000000000000003 0 0 -1 1 0 0 0 -1 0 1
1 -4.7445626465380002 4 1.5 -0 -0 -1 
2 -5.7445626465380002 4 0.050000000000000003 0 0 -1 1 0 0 0 -1 0 1
8 0 1.5
1 -5.4278463526717942e-014 -6 0 0 0 1 
1 -3.5 -6 0 -1 0 0 
1 -9 -6 1.5 -0 0 -1 
8 0 1.5
1 0.99227788254302263 -5.7364862809203432 -1.1102230246251565e-016 0 0 1 
2 0 -4 0 -0 -0 -1 -1 0 0 0 1 -0 2
8 0 1.5
1 7.9922778745324292 -1.7364862854955216 -1.1102230246251565e-016 0 0 1 
1 6.2153547997926388 -2.7518708996335137 -2.2204460492503131e-016 -0.86824314212427467 -0.49613893835715694 0 
8 0 1.5
1 7.9922778684816889 1.7364862889530881 -1.1102230246251565e-016 0 0 1 
2 7 0 0 -0 -0 -1 -1 0 0 0 1 -0 2
8 0 1.5
1 0.992277882412271 5.7364862809950585 -1.1102230246251565e-016 0 0 1 
1 4.4922778767149598 3.7364862842501791 -2.2204460492503131e-016 0.86824314212427467 -0.49613893835715694 0 
8 0 1.5
1 -5.6514166079237883e-014 6 0 0 0 1 
2 0 4 0 -0 -0 -1 -1 0 0 0 1 -0 2
1 -9 6 1.5 0 0 1 
1 -3.5 6 0 1 -0 -0 
1 -9 4 0 -0 1 0 
1 -4.7445626465380002 -4 1.45 0.70710678118654757 0 0.70710678118654757 
1 -6.7445626465380002 -4 1.45 -0.70710678118654757 8.6595605623434599e-017 0.70710678118654757 
2 -5.7445626465380002 -4 1.45 0 0 1 1 0 -0 -0 1 0 1
2 -5.7445626465380002 -4 1.45 0 0 1 1 0 -0 -0 1 0 1
8 0 3.1415926535897958
2 -3.3306690738754696e-016 5.9952043329758453e-015 0 0 0 -1 -1 -1.3322676295501878e-015 -0 -1.3322676295501878e-015 1 0 4.5
1 -4.5 0 1.5 -0 -0 -1 
1 4.5 5.5109105961629998e-016 1.5 -0 -0 -1 
8 0 3.141592653589806
2 3.3306690738754696e-016 -2.886579864025407e-014 0 -0 0 -1 1 6.5370865999711937e-015 0 6.5370865999711937e-015 -1 -0 4.5
1 8 0 1.45 0.70710678118654757 0 0.70710678118654757 
2 7 0 1.45 0 0 1 1 0 -0 -0 1 0 1
1 6 1.2246467991469999e-016 1.45 -0.70710678118654757 8.6595605623434599e-017 0.70710678118654757 
2 7 0 1.45 0 0 1 1 0 -0 -0 1 0 1
1 -6.794562646538 4 0 -0.70710678118654757 0 -0.70710678118654757 
8 0 3.1415926535897576
2 -5.7445626465380002 4.0000000000000187 0 -0 0 -1 1 -1.7763568394002508e-014 -0 -1.7763568394002508e-014 -1 0 1.05
1 -4.6945626465380004 4 0 0.70710678118654757 8.6595605623434599e-017 -0.70710678118654757 
8 0 3.1415926535897611
2 -5.7445626465380002 3.9999999999999831 0 0 0 -1 -1 1.6071799975526078e-014 0 1.6071799975526078e-014 1 0 1.0499999999999996
8 0 3.1415926535897594
2 -5.7445626465380002 -3.9999999999999822 0 -0 0 1 -1 -1.6917684184764293e-014 0 1.6917684184764293e-014 -1 0 1.0499999999999998
8 0 3.1415926535897594
2 -5.7445626465380002 -4.0000000000000178 0 0 0 1 1 1.6917684184764293e-014 -0 -1.6917684184764293e-014 1 0 1.0499999999999996
2 7 0 0 0 0 1 1 0 -0 -0 1 0 1.05
2 7 0 0 0 0 1 1 0 -0 -0 1 0 1.05
1 -6.7445626465380002 -4 1.5 -0 -0 -1 
2 -5.7445626465380002 -4 0.050000000000000003 0 0 -1 1 0 0 0 -1 0 1
1 -4.7445626465380002 -4 1.5 -0 -0 -1 
2 -5.7445626465380002 -4 0.050000000000000003 0 0 -1 1 0 0 0 -1 0 1
2 7 0 0.050000000000000003 0 0 -1 1 0 0 0 -1 0 1
1 6 0 1.5 -0 -0 -1 
1 8 1.2246467991469999e-016 1.5 -0 -0 -1 
2 7 0 0.050000000000000003 0 0 -1 1 0 0 0 -1 0 1
1 -6.794562646538 -4 0 -0.70710678118654757 0 -0.70710678118654757 
1 -4.6945626465380004 -4 0 0.70710678118654757 8.6595605623434599e-017 -0.70710678118654757 
1 5.9500000000000002 0 0 -0.70710678118654757 0 -0.70710678118654757 
1 8.0500000000000007 1.285879139105e-016 0 0.70710678118654757 8.6595605623434599e-017 -0.70710678118654757 
Polygon3D 0
PolygonOnTriangulations 0
Surfaces 37
3 -5.7445626465380002 4 1.45 0 0 1 1 0 -0 -0 1 0 1
0.78539816339699997
3 -5.7445626465380002 4 1.45 0 0 1 1 0 -0 -0 1 0 1
0.78539816339699997
2 -5.7445626465380002 4 1.5 -0 -0 -1 -1 0 0 0 1 -0 1
2 -5.7445626465380002 4 1.5 -0 -0 -1 -1 0 0 0 1 -0 1
1 0 4 1.5 0 0 1 1 0 -0 -0 1 0 
1 -7 -6 1.5 0 1 0 0 -0 1 1 0 -0 
2 0 -4 1.5 -0 -0 -1 -1 0 0 0 1 -0 2
2 0 -4 1.5 -0 -0 -1 -1 0 0 0 1 -0 2
1 7.9922778767139997 -1.7364862842490001 1.5 -0.49613893835715694 0.86824314212427467 0 -0.86824314212427467 -0.49613893835715694 0 0 0 1 
2 7 0 1.5 -0 -0 -1 -1 0 0 0 1 -0 2
2 7 0 1.5 -0 -0 -1 -1 0 0 0 1 -0 2
1 7.9922778767139997 1.7364862842490001 1.5 -0.49613893835715694 -0.86824314212427467 0 0.86824314212427467 -0.49613893835715694 0 0 0 1 
2 0 4 1.5 -0 -0 -1 -1 0 0 0 1 -0 2
2 0 4 1.5 -0 -0 -1 -1 0 0 0 1 -0 2
1 -7 6 1.5 0 -1 0 0 -0 -1 1 0 0 
1 -9 4 1.5 1 0 -0 -0 0 -1 0 1 0 
3 -5.7445626465380002 -4 1.45 0 0 1 1 0 -0 -0 1 0 1
0.78539816339699997
3 -5.7445626465380002 -4 1.45 0 0 1 1 0 -0 -0 1 0 1
0.78539816339699997
2 0 0 1.5 -0 -0 -1 -1 0 0 0 1 -0 4.5
2 0 0 1.5 -0 -0 -1 -1 0 0 0 1 -0 4.5
3 7 0 1.45 0 0 1 1 0 -0 -0 1 0 1
0.78539816339699997
1 0 4 1.5 0 0 1 1 0 -0 -0 1 0 
3 7 0 1.45 0 0 1 1 0 -0 -0 1 0 1
0.78539816339699997
3 -5.7445626465380002 4 0 -0 -0 -1 -1 0 0 0 1 -0 1.05
0.78539816339699997
3 -5.7445626465380002 4 0 -0 -0 -1 -1 0 0 0 1 -0 1.05
0.78539816339699997
1 0 4 0 0 0 1 1 0 -0 -0 1 0 
1 7.9922778767139997 -1.7364862842490001 1.5 -0.49613893835715694 0.86824314212427467 0 -0.86824314212427467 -0.49613893835715694 0 0 0 1 
1 7.9922778767139997 1.7364862842490001 1.5 -0.49613893835715694 -0.86824314212427467 0 0.86824314212427467 -0.49613893835715694 0 0 0 1 
2 -5.7445626465380002 -4 1.5 -0 -0 -1 -1 0 0 0 1 -0 1
2 -5.7445626465380002 -4 1.5 -0 -0 -1 -1 0 0 0 1 -0 1
2 7 0 1.5 -0 -0 -1 -1 0 0 0 1 -0 1
2 7 0 1.5 -0 -0 -1 -1 0 0 0 1 -0 1
3 -5.7445626465380002 -4 0 -0 -0 -1 -1 0 0 0 1 -0 1.05
0.78539816339699997
3 -5.7445626465380002 -4 0 -0 -0 -1 -1 0 0 0 1 -0 1.05
0.78539816339699997
3 7 0 0 -0 -0 -1 -1 0 0 0 1 -0 1.05
0.78539816339699997
1 0 4 0 0 0 1 1 0 -0 -0 1 0 
3 7 0 0 -0 -0 -1 -1 0 0 0 1 -0 1.05
0.78539816339699997
Triangulations 0

TShapes 185
Ve
1e-007
-4.744562646538 4 1.45
0 0

0101101
*
Ve
1.00000001256074e-007
-4.694562646538 4 1.5
0 0

0101101
*
Ed
 1e-007 1 1 0
1  1 0 0 0.0707106781186547
2  1 1 0 0 0.0707106781186547
2  2 2 0 0 0.0707106781186547
4 CN 1 0 2 0
0

0101000
+185 0 -184 0 *
Ve
1.00000000888178e-007
-6.794562646538 4 1.5
0 0

0101101
*
Ed
 1e-007 1 1 0
1  2 0 0 3.14159265358976
2  3 1 0 0 3.14159265358976
0

0101000
+182 0 -184 0 *
Ve
1e-007
-6.744562646538 4 1.45
0 0

0101101
*
Ed
 1e-007 1 1 0
1  3 0 0 0.0707106781186547
2  4 1 0 0 0.0707106781186547
2  5 2 0 0 0.0707106781186547
4 CN 1 0 2 0
0

0101000
+180 0 -182 0 *
Ed
 1e-007 1 1 0
1  4 0 3.14159265358979 6.28318530717959
2  6 1 0 3.14159265358979 6.28318530717959
2  7 3 0 3.14159265358979 6.28318530717959
4 C0 1 0 3 0
0

0101000
+180 0 -185 0 *
Wi

0101100
+183 0 -181 0 -179 0 +178 0 *
Fa
0  1e-007 1 0

0101000
+177 0 *
Ed
 1e-007 1 1 0
1  5 0 0 3.14159265358976
2  8 2 0 0 3.14159265358976
0

0101000
+184 0 -182 0 *
Ed
 1e-007 1 1 0
1  6 0 0 3.14159265358979
2  9 4 0 0 3.14159265358979
2  10 2 0 0 3.14159265358979
4 C0 4 0 2 0
0

0101000
+185 0 -180 0 *
Wi

0101100
-175 0 -183 0 +174 0 +179 0 *
Fa
0  1e-007 2 0

0101000
+173 0 *
Ve
1.5000000009958e-007
0 -6 1.5
0 0

0101101
*
Ve
1.5e-007
-9 -6 1.5
0 0

0101101
*
Ed
 1e-007 1 1 0
1  7 0 -3.5 5.5
2  11 5 0 -3.5 5.5
2  12 6 0 -3.5 5.5
0

0101000
+171 0 -170 0 *
Ve
1.50001080224211e-007
0.992277882543023 -5.73648628092034 1.5
0 0

0101101
*
Ed
 1.00000003580362e-007 1 1 0
1  8 0 4.1932428627818 4.71238898038472
2  13 5 0 4.1932428627818 4.71238898038472
2  14 7 0 4.1932428627818 4.71238898038472
2  15 8 0 4.1932428627818 4.71238898038472
0

0101000
+168 0 -171 0 *
Ve
1.500000797882e-007
7.99227787453243 -1.73648628549552 1.5
0 0

0101101
*
Ed
 1.50000001256074e-007 1 1 0
1  9 0 -2.04657311820782 6.01568462086567
2  16 5 0 -2.04657311820782 6.01568462086567
2  17 9 0 -2.04657311820782 6.01568462086567
0

0101000
+166 0 -168 0 *
Ve
1.50000078065022e-007
7.99227786848169 1.73648628895309 1.5
0 0

0101101
*
Ed
 1.00000001776357e-007 1 1 0
1  10 0 2.08994243630078 4.19324286739433
2  18 10 0 2.08994243630078 4.19324286739433
2  19 5 0 2.08994243630078 4.19324286739433
2  20 11 0 2.08994243630078 4.19324286739433
0

0101000
+164 0 -166 0 *
Ve
1.50001078570789e-007
0.992277882412271 5.73648628099506 1.5
0 0

0101101
*
Ed
 1.50000000993014e-007 1 1 0
1  11 0 -4.03112886758763 4.0311288646675
2  21 5 0 -4.03112886758763 4.0311288646675
2  22 12 0 -4.03112886758763 4.0311288646675
0

0101000
+162 0 -164 0 *
Ve
1.50000000114836e-007
0 6 1.5
0 0

0101101
*
Ed
 1e-007 1 1 0
1  12 0 1.57079632679487 2.08994244432249
2  23 5 0 1.57079632679487 2.08994244432249
2  24 13 0 1.57079632679487 2.08994244432249
2  25 14 0 1.57079632679487 2.08994244432249
0

0101000
+160 0 -162 0 *
Ve
1.5e-007
-9 6 1.5
0 0

0101101
*
Ed
 1e-007 1 1 0
1  13 0 -5.5 3.5
2  26 5 0 -5.5 3.5
2  27 15 0 -5.5 3.5
0

0101000
+158 0 -160 0 *
Ed
 1e-007 1 1 0
1  14 0 -10 2
2  28 5 0 -10 2
2  29 16 0 -10 2
0

0101000
+170 0 -158 0 *
Wi

0101000
-169 0 -167 0 -165 0 -163 0 -161 0 -159 0 -157 0 -156 0 *
Ve
1.00000000993014e-007
-4.694562646538 -4 1.5
0 0

0101101
*
Ve
1e-007
-6.794562646538 -4 1.5
0 0

0101101
*
Ed
 1e-007 1 1 0
1  15 0 0 3.14159265358976
2  30 17 0 0 3.14159265358976
0

0101000
+154 0 -153 0 *
Ed
 1e-007 1 1 0
1  16 0 0 3.14159265358976
2  31 18 0 0 3.14159265358976
0

0101000
+153 0 -154 0 *
Wi

0101100
+152 0 +151 0 *
Wi

0101100
-181 0 -175 0 *
Ve
1.00000001884111e-007
-4.5 0 1.5
0 0

0101101
*
Ve
1.00000004440892e-007
4.5 5.510910596163e-016 1.5
0 0

0101101
*
Ed
 1e-007 1 1 0
1  17 0 0 3.1415926535898
2  32 19 0 0 3.1415926535898
0

0101000
+148 0 -147 0 *
Ed
 1e-007 1 1 0
1  18 0 0 3.14159265358981
2  33 20 0 0 3.14159265358981
0

0101000
+147 0 -148 0 *
Wi

0101100
+146 0 +145 0 *
Ve
1.00000000444089e-007
5.95 1.285879139105e-016 1.5
0 0

0101101
*
Ve
1.00000000444089e-007
8.05 0 1.5
0 0

0101101
*
Ed
 1.00000000444089e-007 1 1 0
1  19 0 3.14159265358979 6.28318530717959
2  34 21 0 3.14159265358979 6.28318530717959
4 C0 22 0 21 0
0

0101000
+143 0 -142 0 *
Ed
 1.00000000444089e-007 1 1 0
1  20 0 0 3.14159265358979
2  35 23 0 0 3.14159265358979
4 C0 23 0 22 0
0

0101000
+142 0 -143 0 *
Wi

0101100
+141 0 +140 0 *
Fa
0  1e-007 5 0

0101000
+155 0 +150 0 +149 0 +144 0 +139 0 *
Ve
1e-007
-6.744562646538 4 0.05
0 0

0101101
*
Ed
 1e-007 1 1 0
1  21 0 0.05 1.45
2  36 3 0 0.05 1.45
2  37 4 0 0.05 1.45
4 CN 3 0 4 0
0

0101000
+180 0 -137 0 *
Ve
1e-007
-4.744562646538 4 0.05
0 0

0101101
*
Ed
 1e-007 1 1 0
1  22 0 0 3.14159265358979
2  38 24 0 0 3.14159265358979
2  39 3 0 0 3.14159265358979
4 C0 24 0 3 0
0

0101000
+135 0 -137 0 *
Ed
 1e-007 1 1 0
1  23 0 0.05 1.45
2  40 3 0 0.05 1.45
2  41 4 0 0.05 1.45
4 CN 3 0 4 0
0

0101000
+185 0 -135 0 *
Wi

0101100
+136 0 -134 0 -133 0 -178 0 *
Fa
0  1e-007 3 0

0101000
+132 0 *
Ed
 1e-007 1 1 0
1  24 0 3.14159265358979 6.28318530717959
2  42 4 0 3.14159265358979 6.28318530717959
2  43 25 0 3.14159265358979 6.28318530717959
4 C0 4 0 25 0
0

0101000
+137 0 -135 0 *
Wi

0101100
-130 0 -136 0 -174 0 +133 0 *
Fa
0  1e-007 4 0

0101000
+129 0 *
Ve
1.5000000009958e-007
0 -6 0
0 0

0101101
*
Ed
 1e-007 1 1 0
1  25 0 0 1.5
2  44 8 0 0 1.5
0

0101000
+127 0 -171 0 *
Ve
1.5e-007
-9 -6 0
0 0

0101101
*
Ed
 1e-007 1 1 0
1  26 0 -3.5 5.5
2  45 6 0 -3.5 5.5
2  46 26 0 -3.5 5.5
0

0101000
+127 0 -125 0 *
Ed
 1e-007 1 1 0
1  27 0 0 1.5
2  47 6 0 0 1.5
2  48 16 0 0 1.5
0

0101000
+170 0 -125 0 *
Wi

0101000
-126 0 +124 0 -123 0 -169 0 *
Fa
0  1e-007 6 0

0101000
+122 0 *
Ve
1.50001080224216e-007
0.992277882543023 -5.73648628092034 -1.11022302462516e-016
0 0

0101101
*
Ed
 1e-007 1 1 0
1  28 0 0 1.5
2  49 8 0 0 1.5
0

0101000
+120 0 -168 0 *
Ed
 1e-007 1 1 0
1  29 0 4.1932428627818 4.71238898038472
2  50 26 0 4.1932428627818 4.71238898038472
2  51 8 0 4.1932428627818 4.71238898038472
0

0101000
+120 0 -127 0 *
Wi

0101100
+119 0 +167 0 -126 0 -118 0 *
Fa
0  1e-007 8 0

0101000
+117 0 *
Ve
1.50000079788277e-007
7.99227787453243 -1.73648628549552 -1.11022302462516e-016
0 0

0101101
*
Ed
 1e-007 1 1 0
1  30 0 0 1.5
2  52 11 0 0 1.5
0

0101000
+115 0 -166 0 *
Ed
 1.5e-007 1 1 0
1  31 0 -2.04657311820782 6.01568462086567
2  53 26 0 -2.04657311820782 6.01568462086567
2  54 27 0 -2.04657311820782 6.01568462086567
0

0101000
+115 0 -120 0 *
Wi

0101100
-165 0 -114 0 +113 0 +119 0 *
Fa
0  1e-007 27 0

0101000
+112 0 *
Ve
1.50000078065101e-007
7.99227786848169 1.73648628895309 -1.11022302462516e-016
0 0

0101101
*
Ed
 1e-007 1 1 0
1  32 0 0 1.5
2  55 11 0 0 1.5
0

0101000
+110 0 -164 0 *
Ed
 1e-007 1 1 0
1  33 0 2.08994243630078 4.19324286739433
2  56 26 0 2.08994243630078 4.19324286739433
2  57 11 0 2.08994243630078 4.19324286739433
0

0101000
+110 0 -115 0 *
Wi

0101100
+109 0 +163 0 -114 0 -108 0 *
Fa
0  1e-007 11 0

0101000
+107 0 *
Ve
1.50001078570795e-007
0.992277882412271 5.73648628099506 -1.11022302462516e-016
0 0

0101101
*
Ed
 1e-007 1 1 0
1  34 0 0 1.5
2  58 14 0 0 1.5
0

0101000
+105 0 -162 0 *
Ed
 1.5e-007 1 1 0
1  35 0 -4.03112886758763 4.0311288646675
2  59 26 0 -4.03112886758763 4.0311288646675
2  60 28 0 -4.03112886758763 4.0311288646675
0

0101000
+105 0 -110 0 *
Wi

0101100
-161 0 -104 0 +103 0 +109 0 *
Fa
0  1e-007 28 0

0101000
+102 0 *
Ve
1.50000000114836e-007
0 6 0
0 0

0101101
*
Ed
 1e-007 1 1 0
1  36 0 0 1.5
2  61 14 0 0 1.5
0

0101000
+100 0 -160 0 *
Ed
 1e-007 1 1 0
1  37 0 1.57079632679487 2.08994244432249
2  62 26 0 1.57079632679487 2.08994244432249
2  63 14 0 1.57079632679487 2.08994244432249
0

0101000
+100 0 -105 0 *
Wi

0101100
+99 0 +159 0 -104 0 -98 0 *
Fa
0  1e-007 14 0

0101000
+97 0 *
Ve
1.5e-007
-9 6 0
0 0

0101101
*
Ed
 1e-007 1 1 0
1  38 0 -1.5 0
2  64 15 0 -1.5 0
2  65 16 0 -1.5 0
0

0101000
+95 0 -158 0 *
Ed
 1e-007 1 1 0
1  39 0 -5.5 3.5
2  66 15 0 -5.5 3.5
2  67 26 0 -5.5 3.5
0

0101000
+95 0 -100 0 *
Wi

0101100
-157 0 -94 0 +93 0 +99 0 *
Fa
0  1e-007 15 0

0101000
+92 0 *
Ed
 1e-007 1 1 0
1  40 0 -10 2
2  68 16 0 -10 2
2  69 26 0 -10 2
0

0101000
+125 0 -95 0 *
Wi

0101000
-156 0 +123 0 +90 0 +94 0 *
Fa
0  1e-007 16 0

0101000
+89 0 *
Ve
1e-007
-4.744562646538 -4 1.45
0 0

0101101
*
Ed
 1e-007 1 1 0
1  41 0 0 0.0707106781186547
2  70 17 0 0 0.0707106781186547
2  71 18 0 0 0.0707106781186547
4 CN 17 0 18 0
0

0101000
+87 0 -154 0 *
Ve
1e-007
-6.744562646538 -4 1.45
0 0

0101101
*
Ed
 1e-007 1 1 0
1  42 0 0 0.0707106781186547
2  72 17 0 0 0.0707106781186547
2  73 18 0 0 0.0707106781186547
4 CN 17 0 18 0
0

0101000
+85 0 -153 0 *
Ed
 1e-007 1 1 0
1  43 0 3.14159265358979 6.28318530717959
2  74 17 0 3.14159265358979 6.28318530717959
2  75 29 0 3.14159265358979 6.28318530717959
4 C0 17 0 29 0
0

0101000
+85 0 -87 0 *
Wi

0101100
+86 0 +152 0 -84 0 +83 0 *
Fa
0  1e-007 17 0

0101000
+82 0 *
Ed
 1e-007 1 1 0
1  44 0 0 3.14159265358979
2  76 30 0 0 3.14159265358979
2  77 18 0 0 3.14159265358979
4 C0 30 0 18 0
0

0101000
+87 0 -85 0 *
Wi

0101100
+151 0 -86 0 +80 0 +84 0 *
Fa
0  1e-007 18 0

0101000
+79 0 *
Ve
1.00000001884111e-007
-4.5 0 0
0 0

0101101
*
Ve
1.00000004440892e-007
4.5 5.510910596163e-016 0
0 0

0101101
*
Ed
 1e-007 1 1 0
1  45 0 0 3.1415926535898
2  78 19 0 0 3.1415926535898
0

0101000
+77 0 -76 0 *
Ed
 1e-007 1 1 0
1  46 0 0 1.5
2  79 20 0 0 1.5
2  80 19 0 0 1.5
4 CN 20 0 19 0
0

0101000
+148 0 -77 0 *
Ed
 1e-007 1 1 0
1  47 0 0 1.5
2  81 20 0 0 1.5
2  82 19 0 0 1.5
4 CN 20 0 19 0
0

0101000
+147 0 -76 0 *
Wi

0101100
-75 0 -74 0 +146 0 +73 0 *
Fa
0  1e-007 19 0

0101000
+72 0 *
Ed
 1e-007 1 1 0
1  48 0 0 3.14159265358981
2  83 20 0 0 3.14159265358981
0

0101000
+76 0 -77 0 *
Wi

0101100
+74 0 -70 0 -73 0 +145 0 *
Fa
0  1e-007 20 0

0101000
+69 0 *
Ve
1e-007
8 1.224646799147e-016 1.45
0 0

0101101
*
Ed
 1e-007 1 1 0
1  49 0 0 0.0707106781186553
2  84 23 0 0 0.0707106781186553
2  85 21 0 0 0.0707106781186553
4 CN 23 0 21 0
0

0101000
+67 0 -142 0 *
Ve
1e-007
6 0 1.45
0 0

0101101
*
Ed
 1e-007 1 1 0
1  50 0 0 3.14159265358979
2  86 31 0 0 3.14159265358979
2  87 21 0 0 3.14159265358979
4 C0 31 0 21 0
0

0101000
+67 0 -65 0 *
Ed
 1e-007 1 1 0
1  51 0 -1.06049031246935e-032 0.0707106781186547
2  88 23 0 -1.06049031246935e-032 0.0707106781186547
2  89 21 0 -1.06049031246935e-032 0.0707106781186547
4 CN 23 0 21 0
0

0101000
+65 0 -143 0 *
Wi

0101100
+141 0 -66 0 +64 0 +63 0 *
Fa
0  1e-007 21 0

0101000
+62 0 *
Ed
 1e-007 1 1 0
1  52 0 3.14159265358979 6.28318530717959
2  90 23 0 3.14159265358979 6.28318530717959
2  91 32 0 3.14159265358979 6.28318530717959
4 C0 23 0 32 0
0

0101000
+65 0 -67 0 *
Wi

0101100
+66 0 +140 0 -63 0 +60 0 *
Fa
0  1e-007 23 0

0101000
+59 0 *
Ve
1.00000000888178e-007
-6.794562646538 4 0
0 0

0101101
*
Ed
 1e-007 1 1 0
1  53 0 -0.0707106781186546 0
2  92 24 0 -0.0707106781186546 0
2  93 25 0 -0.0707106781186546 0
4 CN 24 0 25 0
0

0101000
+137 0 -57 0 *
Ve
1.00000000993014e-007
-4.694562646538 4 0
0 0

0101101
*
Ed
 1e-007 1 1 0
1  54 0 0 3.14159265358976
2  94 24 0 0 3.14159265358976
0

0101000
+55 0 -57 0 *
Ed
 1e-007 1 1 0
1  55 0 -0.0707106781186546 0
2  95 24 0 -0.0707106781186546 0
2  96 25 0 -0.0707106781186546 0
4 CN 24 0 25 0
0

0101000
+135 0 -55 0 *
Wi

0101100
+56 0 -54 0 -53 0 +134 0 *
Fa
0  1e-007 24 0

0101000
+52 0 *
Ed
 1e-007 1 1 0
1  56 0 0 3.14159265358976
2  97 25 0 0 3.14159265358976
0

0101000
+57 0 -55 0 *
Wi

0101100
-50 0 -56 0 +130 0 +53 0 *
Fa
0  1e-007 25 0

0101000
+49 0 *
Wi

0101000
-124 0 -118 0 -113 0 -108 0 -103 0 -98 0 -93 0 -90 0 *
Ve
1.00000000888178e-007
-6.794562646538 -4 0
0 0

0101101
*
Ve
1.00000001256074e-007
-4.694562646538 -4 0
0 0

0101101
*
Ed
 1e-007 1 1 0
1  57 0 0 3.14159265358976
2  98 33 0 0 3.14159265358976
0

0101000
+46 0 -45 0 *
Ed
 1e-007 1 1 0
1  58 0 0 3.14159265358976
2  99 34 0 0 3.14159265358976
0

0101000
+45 0 -46 0 *
Wi

0101100
-44 0 -43 0 *
Wi

0101100
+54 0 +50 0 *
Wi

0101100
+75 0 +70 0 *
Ve
1.00000000444089e-007
5.95 0 0
0 0

0101101
*
Ve
1.00000000444089e-007
8.05 1.285879139105e-016 0
0 0

0101101
*
Ed
 1.00000000444089e-007 1 1 0
1  59 0 3.14159265358979 6.28318530717959
2  100 35 0 3.14159265358979 6.28318530717959
4 C0 35 0 36 0
0

0101000
+39 0 -38 0 *
Ed
 1.00000000444089e-007 1 1 0
1  60 0 0 3.14159265358979
2  101 37 0 0 3.14159265358979
4 C0 36 0 37 0
0

0101000
+38 0 -39 0 *
Wi

0101100
-37 0 -36 0 *
Fa
0  0 26 0

0101000
+47 0 +42 0 +41 0 +40 0 +35 0 *
Ve
1e-007
-6.744562646538 -4 0.05
0 0

0101101
*
Ed
 1e-007 1 1 0
1  61 0 0.05 1.45
2  102 29 0 0.05 1.45
2  103 30 0 0.05 1.45
4 CN 29 0 30 0
0

0101000
+85 0 -33 0 *
Ve
1e-007
-4.744562646538 -4 0.05
0 0

0101101
*
Ed
 1e-007 1 1 0
1  62 0 0 3.14159265358979
2  104 33 0 0 3.14159265358979
2  105 29 0 0 3.14159265358979
4 C0 33 0 29 0
0

0101000
+31 0 -33 0 *
Ed
 1e-007 1 1 0
1  63 0 0.05 1.45
2  106 29 0 0.05 1.45
2  107 30 0 0.05 1.45
4 CN 29 0 30 0
0

0101000
+87 0 -31 0 *
Wi

0101100
+32 0 -30 0 -29 0 -83 0 *
Fa
0  1e-007 29 0

0101000
+28 0 *
Ed
 1e-007 1 1 0
1  64 0 3.14159265358979 6.28318530717959
2  108 30 0 3.14159265358979 6.28318530717959
2  109 34 0 3.14159265358979 6.28318530717959
4 C0 30 0 34 0
0

0101000
+33 0 -31 0 *
Wi

0101100
-26 0 -32 0 -80 0 +29 0 *
Fa
0  1e-007 30 0

0101000
+25 0 *
Ve
1e-007
6 0 0.05
0 0

0101101
*
Ve
1e-007
8 1.224646799147e-016 0.05
0 0

0101101
*
Ed
 1e-007 1 1 0
1  65 0 3.14159265358979 6.28318530717959
2  110 31 0 3.14159265358979 6.28318530717959
2  111 37 0 3.14159265358979 6.28318530717959
4 C0 31 0 37 0
0

0101000
+23 0 -22 0 *
Ed
 1e-007 1 1 0
1  66 0 0.05 1.45
2  112 32 0 0.05 1.45
2  113 31 0 0.05 1.45
4 CN 32 0 31 0
0

0101000
+65 0 -23 0 *
Ed
 1e-007 1 1 0
1  67 0 0.05 1.45
2  114 32 0 0.05 1.45
2  115 31 0 0.05 1.45
4 CN 32 0 31 0
0

0101000
+67 0 -22 0 *
Wi

0101100
-21 0 -20 0 -64 0 +19 0 *
Fa
0  1e-007 31 0

0101000
+18 0 *
Ed
 1e-007 1 1 0
1  68 0 0 3.14159265358979
2  116 35 0 0 3.14159265358979
2  117 32 0 0 3.14159265358979
4 C0 35 0 32 0
0

0101000
+22 0 -23 0 *
Wi

0101100
+20 0 -16 0 -19 0 -60 0 *
Fa
0  1e-007 32 0

0101000
+15 0 *
Ed
 1e-007 1 1 0
1  69 0 -0.0707106781186546 0
2  118 33 0 -0.0707106781186546 0
2  119 34 0 -0.0707106781186546 0
4 CN 33 0 34 0
0

0101000
+33 0 -46 0 *
Ed
 1e-007 1 1 0
1  70 0 -0.0707106781186546 0
2  120 33 0 -0.0707106781186546 0
2  121 34 0 -0.0707106781186546 0
4 CN 33 0 34 0
0

0101000
+31 0 -45 0 *
Wi

0101100
+13 0 +44 0 -12 0 +30 0 *
Fa
0  1e-007 33 0

0101000
+11 0 *
Wi

0101100
+43 0 -13 0 +26 0 +12 0 *
Fa
0  1e-007 34 0

0101000
+9 0 *
Ed
 1e-007 1 1 0
1  71 0 -0.0707106781186546 0
2  122 35 0 -0.0707106781186546 0
2  123 37 0 -0.0707106781186546 0
4 CN 35 0 37 0
0

0101000
+23 0 -39 0 *
Ed
 1e-007 1 1 0
1  72 0 -0.0707106781186553 0
2  124 35 0 -0.0707106781186553 0
2  125 37 0 -0.0707106781186553 0
4 CN 35 0 37 0
0

0101000
+22 0 -38 0 *
Wi

0101100
+7 0 +37 0 -6 0 +16 0 *
Fa
0  1e-007 35 0

0101000
+5 0 *
Wi

0101100
+36 0 -7 0 +21 0 +6 0 *
Fa
0  1e-007 37 0

0101000
+3 0 *
Sh

1101000
-176 0 -172 0 +138 0 -131 0 -128 0 -121 0 +116 0 -111 0 +106 0 -101 0 
+96 0 -91 0 -88 0 -81 0 -78 0 -71 0 -68 0 -61 0 -58 0 -51 0 
-48 0 -34 0 -27 0 -24 0 -17 0 -14 0 -10 0 -8 0 -4 0 -2 0 
*

+1 0 