DBRep_DrawableShape

CASCADE Topology V1, (c) Matra-Datavision
Locations 3
1
              1 -1.110223024625e-016               0               0 
1.110223024625e-016               1               0               0 
              0               0               1               0 
1
             -1 1.110223024625e-016               0 -1.145061126907e-014 
1.110223024625e-016               1               0  1888.908979097 
              0               0              -1  10244.81452825 
2  1 1 2 1 0
Curve2ds 20
1 -6.4304117586289067e-013 128.20306341510263 1 0 
1 6.2831853071795862 -4.1580960896681063e-011 0 1 
1 0 -4.1580960896681063e-011 0 1 
1 -7.9758422089071246e-013 138.20306341513182 1 -8.6607024620849105e-013 
1 6.2503684432426345 -7.560174708487466e-012 6.2172489378860861e-016 -1 
1 0 138.20306341512639 1 0 
1 6.2831853071794477 126.01838767281768 -1 0 
1 5.8619775700208265e-013 107.42376950244204 1 1.7723544302732285e-014 
1 6.2831853071788988 104.159142095687 -1 1.8479901791184416e-014 
1 0 128.20306341510263 1 0 
1 1.5707963267933316 -9.0096818894380704e-012 1.7763568394044761e-016 1 
1 3.1744095175264455 104.15914209568648 3.2951419370796355e-014 1 
1 4.7123889803818075 3.7289282772690058e-011 8.881784197021296e-017 1 
1 6.2831853071771295 114.15914209571091 -1 -1.8479901791150842e-014 
1 4.712388980387745 97.423769502427348 0 1 
1 3.1087757896527575 -3.936406756110955e-011 4.4408920985112033e-017 -1 
1 4.4009240696141205e-013 97.423769502465262 1 0 
1 0.032816863937674988 126.01838767286296 3.2226998847231989e-014 1 
1 1.5707963267940894 4.8586912271275651e-011 0 1 
1 6.2831853071741506 136.01838767279452 -1 0 
Curves 27
2 -266.86524011709997 -146.15334463369999 574.73797094019005 -0.46947156278577484 -0.88079677689957758 -0.061591310578670462 0.8824721918406041 -0.47036457203752069 1.4599432773820802e-014 -0.028970370441579209 -0.054352618844687853 0.99810145299022679 20
1 -189.02810374480001 -42.639791029770002 582.63416563613998 -0.46947156278577484 -0.88079677689957758 -0.061591310578670462 
2 -271.55995574500002 -154.9613124027 574.12205783440004 -0.46947156278577484 -0.88079677689957758 -0.061591310578670462 0.8824721918406041 -0.47036457203752069 1.4599432773820802e-014 -0.028970370441579209 -0.054352618844687853 0.99810145299022679 20
1 -189.01859572449999 -42.599058662109996 581.97919202128003 0.46947156278577484 0.88079677689957758 0.061591310578670462 
1 -253.90100388779999 -158.39537700450001 488.62846071538002 -9.8724011466122761e-015 -0.069756473744107816 0.99756405025982553 
2 -271.55995574500002 -154.9613124027 574.12205783440004 -0.46947156278577484 -0.88079677689957758 -0.061591310578670462 0.8824721918406041 -0.47036457203752069 1.4599432773820802e-014 -0.028970370441579209 -0.054352618844687853 0.99810145299022679 20
1 -333.97561083660003 -123.089161706 594.08408689421003 -0.88247219184049286 0.47036457203772969 -0 
2 -320.1220733522 -129.77526488160001 584.10307236430003 -0.46947156278577484 -0.88079677689957758 -0.061591310578670462 -0.88247219184060455 0.47036457203752019 -3.5943470422239443e-015 0.028970370441569481 0.054352618844693036 -0.99810145299022668 10
1 -328.95154928080001 -125.091985345 584.43055917174001 -3.1243115632944493e-014 0.069756473744127703 -0.99756405025982409 
2 -311.2925974236 -127.8510095292 489.28343433023002 -0.46947156278577484 -0.88079677689957758 -0.061591310578670462 0.8824721918406041 -0.47036457203752069 1.4599432773820802e-014 -0.028970370441579209 -0.054352618844687853 0.99810145299022679 20
1 -330.35431453140001 -116.2950843504 469.32140527040002 0.88247219184049286 -0.47036457203772969 0 
2 -271.55995574500002 -149.0288179314 489.28343433023002 -0.46947156278577484 -0.88079677689957758 -0.061591310578670462 -0.88247219184060399 0.47036457203752086 -1.7357643100623925e-014 0.028970370441581652 0.054352618844686555 -0.99810145299022679 20
2 -266.86524011709997 -146.15334463369999 574.73797094019005 -0.46947156278577484 -0.88079677689957758 -0.061591310578670462 0.8824721918406041 -0.47036457203752069 1.4599432773820802e-014 -0.028970370441579209 -0.054352618844687853 0.99810145299022679 20
1 -207.25695499049999 -34.319551965919999 602.59619469593997 -0.46947156278577484 -0.88079677689957758 -0.061591310578670462 
1 -249.20628825989999 -149.58740923549999 489.24437382116002 1.5338937318697341e-014 -0.069756473744087902 0.99756405025982697 
1 -253.90100388779999 -158.39537700450001 488.62846071538002 0.46947156278579388 0.88079677689961333 0.06159131057801296 
1 -319.8803035542 -239.68480219700001 462.90610720000001 0.46947156278577484 0.88079677689957758 0.061591310578670462 
2 -266.86524011709997 -140.22085016240001 489.89934743601998 -0.46947156278577484 -0.88079677689957758 -0.061591310578670462 -0.88247219184060399 0.47036457203752086 -1.7357643100623925e-014 0.028970370441581652 0.054352618844686555 -0.99810145299022679 20
1 -306.01847438689998 -117.95598938329999 469.93731837621999 -0.46947156278577451 -0.88079677689957703 -0.061591310578680419 
1 -266.28583270830001 -139.13379778550001 469.93731837621999 -0.88247219184049286 0.47036457203772969 3.3905216059060515e-015 
1 -278.51914433209998 -23.865940515929999 496.55477869606 0.46947156278577484 0.88079677689957758 0.061591310578670462 
2 -306.59788179579999 -119.0430417602 489.89934743601998 -0.46947156278577484 -0.88079677689957758 -0.061591310578670462 0.8824721918406041 -0.47036457203752069 1.456820775125322e-014 -0.028970370441579182 -0.054352618844687867 0.99810145299022679 20
1 -324.25683365290001 -116.284017576 585.04647227753003 -1.5493362148577316e-014 0.069756473744087902 -0.99756405025982697 
1 -328.95154928080001 -125.091985345 584.43055917174001 0.46947156278618074 0.88079677689933922 0.061591310578983718 
1 -379.57382645709998 -241.31538076230001 586.32244924042004 0.46947156278577484 0.88079677689957758 0.061591310578670462 
2 -315.4273577244 -120.96729711259999 584.71898547009005 -0.46947156278577484 -0.88079677689957758 -0.061591310578670462 -0.88247219184060455 0.47036457203752019 -3.6672054282149702e-015 0.028970370441569544 0.054352618844693001 -0.99810145299022668 10
1 -315.71706142879998 -121.510823301 594.70000000000005 0.88247219184049286 -0.47036457203772969 9.5137891663955341e-016 
Polygon3D 0
PolygonOnTriangulations 54
4 1 3 4 2 
p 21.749873165918 1 6.25036844324258 6.26130739788825 6.27224635253392 6.28318530717959 
4 7 8 9 3 
p 21.749873165918 1 6.25036844324258 6.26130739788825 6.27224635253392 6.28318530717959 
2 2 5 
p 21.749873165918 1 128.203063415194 138.203063415217 
2 1 2 
p 21.749873165918 1 128.203063415194 138.203063415217 
4 6 7 8 5 
p 21.749873165918 1 6.25036844324258 6.26130739788825 6.27224635253392 6.28318530717959 
4 2 4 5 3 
p 21.749873165918 1 6.25036844324258 6.26130739788825 6.27224635253392 6.28318530717959 
2 6 1 
p 21.749873165918 1 -138.203063415135 -128.203063415111 
2 3 2 
p 21.749873165918 1 -138.203063415135 -128.203063415111 
2 1 2 
p 21.749873165918 1 -9.980071402295e-012 85.0457907761025 
2 4 3 
p 21.749873165918 1 -9.980071402295e-012 85.0457907761025 
5 2 8 9 10 7 
p 21.749873165918 1 0 0.392699081698339 0.785398163396677 1.17809724509502 1.57079632679335 
5 3 7 8 9 6 
p 21.749873165918 1 0 0.392699081698339 0.785398163396677 1.17809724509502 1.57079632679335 
2 6 10 
p 21.749873165918 1 -70.0716104762506 -15.370267647386 
2 3 1 
p 21.749873165918 1 -70.0716104762506 -15.370267647386 
5 1 8 9 10 7 
p 21.749873165918 1 4.71238898038551 5.09688384609962 5.48137871181373 5.86587357752784 6.25036844324195 
5 10 12 13 14 11 
p 21.749873165918 1 4.71238898038551 5.09688384609962 5.48137871181373 5.86587357752784 6.25036844324195 
2 11 15 
p 21.749873165918 1 0 94.7228914294018 
2 4 3 
p 21.749873165918 1 0 94.7228914294018 
5 3 4 5 6 2 
p 21.749873165918 1 3.10877578965229 3.50967908733501 3.91058238501772 4.31148568270044 4.71238898038315 
5 15 17 18 19 16 
p 21.749873165918 1 3.10877578965229 3.50967908733501 3.91058238501772 4.31148568270044 4.71238898038315 
2 16 20 
p 21.749873165918 1 22.2569330775592 67.2811752531723 
2 2 4 
p 21.749873165918 1 22.2569330775592 67.2811752531723 
5 1 8 9 10 7 
p 21.749873165918 1 1.57079632679777 1.95529119251152 2.33978605822528 2.72428092393903 3.10877578965278 
5 20 21 22 23 1 
p 21.749873165918 1 1.57079632679777 1.95529119251152 2.33978605822528 2.72428092393903 3.10877578965278 
5 1 4 5 6 3 
p 21.749873165918 1 0 0.392699081699442 0.785398163398885 1.17809724509833 1.57079632679777 
5 3 4 5 6 2 
p 21.749873165918 1 0 0.392699081699442 0.785398163398885 1.17809724509833 1.57079632679777 
2 3 7 
p 21.749873165918 1 128.20306341515 138.203063415126 
2 4 3 
p 21.749873165918 1 128.20306341515 138.203063415126 
2 1 2 
p 21.749873165918 1 0 85.0457907761125 
2 10 7 
p 21.749873165918 1 0 85.0457907761125 
2 7 3 
p 21.749873165918 1 -6.16186677105491e-013 10.0000000000232 
2 4 1 
p 21.749873165918 1 -6.16186677105491e-013 10.0000000000232 
2 1 2 
p 21.749873165918 1 104.159142095686 114.159142095664 
2 4 3 
p 21.749873165918 1 104.159142095686 114.159142095664 
5 2 4 5 6 3 
p 21.749873165918 1 1.57079632679335 1.95529119250821 2.33978605822307 2.72428092393793 3.10877578965279 
5 11 12 13 14 10 
p 21.749873165918 1 1.57079632679335 1.95529119250821 2.33978605822307 2.72428092393793 3.10877578965279 
2 1 2 
p 21.749873165918 1 -0 10.000000000025 
2 1 2 
p 21.749873165918 1 -0 10.000000000025 
2 3 1 
p 21.749873165918 1 -3.39202758050001e-026 45.0242421755249 
2 11 15 
p 21.749873165918 1 -3.39202758050001e-026 45.0242421755249 
2 3 7 
p 21.749873165918 1 -107.42376950248 -97.4237695025034 
2 3 2 
p 21.749873165918 1 -107.42376950248 -97.4237695025034 
5 7 8 9 10 1 
p 21.749873165918 1 3.10877578965279 3.50967908733648 3.91058238502017 4.31148568270387 4.71238898038756 
5 16 17 18 19 15 
p 21.749873165918 1 3.10877578965279 3.50967908733648 3.91058238502017 4.31148568270387 4.71238898038756 
2 1 2 
p 21.749873165918 1 9.98007140229501e-012 94.7228914294118 
2 20 16 
p 21.749873165918 1 9.98007140229501e-012 94.7228914294118 
2 7 3 
p 21.749873165918 1 0 10.0000000000231 
2 4 1 
p 21.749873165918 1 0 10.0000000000231 
2 1 2 
p 21.749873165918 1 126.018387672818 136.018387672795 
2 1 2 
p 21.749873165918 1 126.018387672818 136.018387672795 
5 2 4 5 6 3 
p 21.749873165918 1 4.71238898038551 5.09688384609987 5.48137871181423 5.86587357752859 6.25036844324295 
5 1 21 22 23 20 
p 21.749873165918 1 4.71238898038551 5.09688384609987 5.48137871181423 5.86587357752859 6.25036844324295 
2 2 4 
p 21.749873165918 1 -9.51801492468356e-027 54.7013428288646 
2 1 2 
p 21.749873165918 1 -9.51801492468356e-027 54.7013428288646 
Surfaces 11
2 -206.6775475817 -33.232499589020001 582.63416563613998 -0.46947156278577484 -0.88079677689957758 -0.061591310578670462 0.8824721918406041 -0.47036457203752069 1.4599432773820802e-014 -0.028970370441579209 -0.054352618844687853 0.99810145299022679 20
1 -249.20628825989999 -144.6632014763 418.82492207889999 0.46947156278577484 0.88079677689957758 0.061591310578670462 -0.8824721918406041 0.47036457203752069 -1.4613310561628617e-014 -0.028970370441579223 -0.054352618844687846 0.99810145299022679 
2 -206.6775475817 -33.232499589020001 582.63416563613998 -0.46947156278577484 -0.88079677689957758 -0.061591310578670462 0.8824721918406041 -0.47036457203752069 1.4599432773820802e-014 -0.028970370441579209 -0.054352618844687853 0.99810145299022679 20
1 -328.95154928080001 -113.6632931847 420.99264683630003 -0.46947156278577484 -0.88079677689957758 -0.061591310578670462 0.8824721918406041 -0.47036457203752069 1.4613310561628617e-014 -0.028970370441579223 -0.054352618844687846 0.99810145299022679 
1 -253.90100388779999 -153.47116924529999 418.20900897310003 0.88294759285873736 -0.46832795365486068 -0.032748680743080259 0.46857929110437513 0.88342144412965273 -1.618323530738763e-014 0.028930886835400491 -0.015345353607181761 0.99946361810202367 
1 -249.20628825989999 -156.96158497569999 594.70000000000005 0.028970370441596498 0.054352618844732192 -0.99810145299022379 -1.0759622359746146e-015 0.99852056129458977 0.054375441809124833 0.99958027073190914 -0.0015752766921347465 0.028927510554255187 
2 -379.2841227527 -240.77185457389999 576.34143471052005 0.46947156278577484 0.88079677689957758 0.061591310578670462 -0.8824721918406041 0.47036457203752069 -1.4613310561628617e-014 -0.028970370441579223 -0.054352618844687846 0.99810145299022679 10
1 -324.25683365290001 -104.85532541569999 421.608559942 -0.88294759285873736 0.46832795365486068 0.032748680743080259 -0.46857929110437513 -0.88342144412965273 1.618323530738763e-014 0.028930886835400491 -0.015345353607181761 0.99946361810202367 
2 -260.86019247500002 -33.232499589020001 495.89980508119999 -0.46947156278577484 -0.88079677689957758 -0.061591310578670462 0.8824721918406041 -0.47036457203752069 1.4599432773820802e-014 -0.028970370441579209 -0.054352618844687853 0.99810145299022679 20
1 -324.25683365290001 -108.23480141819999 469.93731837621999 -0.028970370441596498 -0.054352618844732192 0.99810145299022379 1.0759622359746146e-015 -0.99852056129458977 -0.054375441809124833 0.99958027073190914 -0.0015752766921347465 0.028927510554255187 
2 -320.45971096310001 -240.77185457389999 482.86813625981 0.46947156278577484 0.88079677689957758 0.061591310578670462 -0.8824721918406041 0.47036457203752069 -1.4599432773820802e-014 -0.028970370441579209 -0.054352618844687853 0.99810145299022679 20
Triangulations 11
8 6 1 0.000299151080340508
-249.2062882599 -155.5199037068 574.08299732533 -249.2157962803 -155.5606360745 574.73797094019 -249.207344790909 -155.534604261424 574.301278317733 -249.21051425745 -155.54818225889 574.519611564571 -253.9105119082 -164.3686038435 574.1220578344 -253.9010038878 -164.3278714758 573.46708421954 -253.902060418809 -164.342572030424 573.685365211943 -253.90522988535 -164.35615002789 573.903698458781 6.25036844324194 128.203063415103 6.28318530717894 128.203063415103 6.26130739788761 128.203063415103 6.27224635253327 128.203063415103 6.28318530717959 138.203063415176 6.25036844324178 138.203063415126 6.26130739788745 138.203063415126 6.27224635253312 138.203063415126 7 1 3 7 6 1 8 3 4 8 4 2 8 7 3 5 8 2 
23 21 1 8.81312522960087e-011
-315.7170614288 -121.510823301 594.69999999999 -267.444647526 -147.2403970106 594.69999999999 -249.2157962803 -155.5606360745 574.73797094019 -250.781009812016 -155.260545586926 582.377108737781 -254.794901603792 -153.573966311251 588.853257054641 -260.646393016334 -150.757664653267 593.180481015956 -249.2062882599 -155.5199037068 574.08299732533 -249.207344790909 -155.534604261424 574.301278317733 -249.21051425745 -155.54818225889 574.519611564571 -249.2062882599 -149.5874092355 489.24437382116 -266.2858327083 -139.1337977855 469.93731837621 -259.707990065422 -142.741755335964 471.394785598363 -254.175277386028 -145.9816003414 475.554362135952 -250.495603260535 -148.380237818705 481.808650169509 -306.0184743869 -117.9559893833 469.93731837622 -324.256833653 -109.6764826871 490.55432105088 -322.856635186563 -109.874718333877 482.716396529276 -318.878086459302 -111.52688765745 476.017560774131 -312.95211481859 -114.370985871609 471.520130465051 -324.2568336529 -116.284017576 585.04647227752 -319.005982750254 -119.70684452581 593.971266388911 -321.772339089944 -118.086922023095 591.891478120114 -323.612176152685 -116.887603284446 588.764334103338 69.5839662314457 176.209620168558 14.8826234025811 176.209620168559 -5.11737659748906 156.209620168564 -3.59496724769662 163.863288815876 0.740487778812977 170.351755792312 7.22895475526162 174.687210818803 -5.10660809839018 155.553400690172 -5.1125903592396 155.772096887587 -5.11618000212117 155.990845438833 -2.31617287528098 70.5534006901727 17.6730586256637 51.2096201685565 10.1712400018675 52.669859724151 3.76486660740802 56.8373484349701 -0.610577573860716 63.1035331147131 62.6973008011885 51.2096201685674 82.6865323021598 71.8658396469539 81.3576530673124 64.0130061517996 77.0695725348066 57.3014281503087 70.5023043129058 52.7954430166266 79.5785819818298 166.537729907752 73.3348755433374 175.479500390762 76.5380622405597 173.39575603535 78.7257843311878 170.26266369548 12 14 13 11 10 14 11 14 12 18 15 19 17 15 18 16 7 10 16 11 15 16 10 11 16 15 17 4 3 9 2 5 4 2 6 5 2 8 7 2 9 8 2 4 9 20 1 2 20 7 16 20 2 7 21 1 20 22 20 23 22 21 20 
10 8 1 0.384294391944725
-249.2157962803 -155.5606360745 574.73797094019 -253.9105119082 -164.3686038435 574.1220578344 -267.444647526 -147.2403970106 594.69999999999 -250.781009812016 -155.260545586926 582.377108737781 -254.794901603792 -153.573966311251 588.853257054641 -260.646393016334 -150.757664653267 593.180481015956 -272.1393631538 -156.0483647796 594.08408689421 -255.475725439909 -164.068513355929 581.761195631971 -259.489617231664 -162.381934080264 588.23734394882 -265.34110864418 -159.565632422295 592.56456791014 0 128.203063415152 0 138.203063415176 1.57079632679777 128.203063415103 0.392699081699442 128.203063415103 0.785398163398885 128.203063415103 1.17809724509833 128.203063415103 1.57079632679336 138.203063415117 0.392699081698339 138.203063415126 0.785398163396677 138.203063415126 1.17809724509502 138.203063415126 8 2 1 8 1 4 9 4 5 9 8 4 10 5 6 10 9 5 7 6 3 7 10 6 
23 21 1 4.71285160604482e-011
-253.9010038878 -158.3953770045 488.62846071537 -253.9010038878 -164.3278714758 573.46708421954 -253.9105119082 -164.3686038435 574.1220578344 -253.902060418809 -164.342572030424 573.685365211943 -253.90522988535 -164.35615002789 573.903698458781 -272.1393631538 -156.0483647796 594.08408689421 -255.475725439909 -164.068513355929 581.761195631971 -259.489617231664 -162.381934080264 588.23734394882 -265.34110864418 -159.565632422295 592.56456791014 -320.4117770566 -130.31879107 594.08408689421 -328.9515492808 -125.091985345 584.43055917174 -323.700698378052 -128.514812294811 593.355353283122 -326.467054717741 -126.894889792097 591.275565014328 -328.306891780483 -125.695571053447 588.148420997555 -328.9515492808 -118.4844504561 489.9384079451 -310.7131900148 -126.7639571523 469.32140527041 -327.551350814373 -118.682686102873 482.100483423514 -323.572802087134 -120.334855426436 475.401647668376 -317.646830446446 -123.178953640581 470.904217359287 -270.9805483361 -147.9417655545 469.32140527041 -264.402705693269 -151.549723104994 470.778872492598 -258.869993013901 -154.789568110416 474.938449030193 -255.190318888428 -157.18820558771 481.192737063739 87.2704067540412 67.7644679069847 90.0608419771505 152.764467906984 90.0716104762493 153.420687385376 90.0668242379998 152.983164104399 90.0704138808813 153.201912655645 70.0716104762674 173.420687385378 88.5492011264652 161.074356032668 84.2137460999784 167.562823009093 77.7252791235597 171.89827803559 15.3702676474028 173.420687385377 5.37565189693046 163.748797124574 11.6193583355134 172.690567607572 8.41617163829237 170.606823252162 6.22844954766369 167.473730912296 2.26770157668867 69.076906863773 22.2569330775717 48.4206873853595 3.59658081152539 61.2240733686362 7.88466134400774 54.5124953671531 14.4519295658795 50.0065102334625 67.2811752531848 48.4206873853557 74.7829938769541 49.8809269409878 81.1893672713839 54.0484156518128 85.5648114526299 60.3146003315452 17 18 19 16 17 19 15 17 16 20 15 16 23 20 21 23 21 22 1 15 20 1 20 23 12 13 14 10 14 11 10 12 14 2 11 15 2 15 1 6 2 4 6 11 2 6 10 11 7 5 3 9 6 4 8 4 5 8 5 7 8 9 4 
4 2 1 4.1915804160908e-011
-249.2062882599 -149.5874092355 489.24437382116 -249.2062882599 -155.5199037068 574.08299732533 -253.9010038878 -164.3278714758 573.46708421954 -253.9010038878 -158.3953770045 488.62846071537 5.63084339736736 71.0734873801187 0.389950564238944 155.957641207827 -9.59104356295646 155.341397560098 -4.35015072982807 70.4572437323902 3 4 1 2 3 1 
4 2 1 8.05011612925455e-012
-320.4117770566 -130.31879107 594.08408689421 -315.7170614288 -121.510823301 594.69999999999 -272.1393631538 -156.0483647796 594.08408689421 -267.444647526 -147.2403970106 594.69999999999 26.5698869779324 -71.2353883741246 35.3983144457417 -66.5387014093425 0.878378595551993 -22.9427046185177 9.70680606336134 -18.2460176537357 4 1 2 4 3 1 
10 8 1 0.184226922386285
-320.4117770566 -130.31879107 594.08408689421 -315.7170614288 -121.510823301 594.69999999999 -324.2568336529 -116.284017576 585.04647227752 -319.005982750254 -119.70684452581 593.971266388911 -321.772339089944 -118.086922023095 591.891478120114 -323.612176152685 -116.887603284446 588.764334103338 -328.9515492808 -125.091985345 584.43055917174 -323.700698378052 -128.514812294811 593.355353283122 -326.467054717741 -126.894889792097 591.275565014328 -328.306891780483 -125.695571053447 588.148420997555 1.57079632679409 126.018387672867 1.57079632679409 136.018387672843 0.0328168639312025 136.018387672795 1.18630146107428 136.018387672795 0.801806595359921 136.018387672795 0.417311729645562 136.018387672795 0.032816863937675 126.018387672863 1.18630146107983 126.018387672818 0.801806595365719 126.018387672818 0.417311729651608 126.018387672818 6 3 7 6 7 10 5 10 9 5 6 10 4 8 1 4 9 8 4 5 9 2 4 1 
4 2 1 5.28240240669382e-011
-324.2568336529 -116.284017576 585.04647227752 -324.256833653 -109.6764826871 490.55432105088 -328.9515492808 -118.4844504561 489.9384079451 -328.9515492808 -125.091985345 584.43055917174 10.0963517327681 163.525624520368 4.25911371912434 68.9827622138016 14.2401078462729 68.366518566086 20.0773458599635 162.909380872649 4 1 2 4 2 3 
10 8 1 0.4004650177971
-306.0184743869 -117.9559893833 469.93731837622 -310.7131900148 -126.7639571523 469.32140527041 -328.9515492808 -118.4844504561 489.9384079451 -327.551350814373 -118.682686102873 482.100483423514 -323.572802087134 -120.334855426436 475.401647668376 -317.646830446446 -123.178953640581 470.904217359287 -324.256833653 -109.6764826871 490.55432105088 -322.856635186563 -109.874718333877 482.716396529276 -318.878086459302 -111.52688765745 476.017560774131 -312.95211481859 -114.370985871609 471.520130465051 4.71238898038775 97.4237695024273 4.71238898038775 107.423769502452 3.10877578965288 107.423769502442 3.50967908733559 107.423769502442 3.91058238501831 107.423769502442 4.31148568270102 107.423769502442 3.10877578965275 97.4237695024641 3.50967908733692 97.4237695024653 3.91058238502061 97.4237695024653 4.31148568270431 97.4237695024653 4 3 7 4 7 8 5 8 9 5 4 8 6 9 10 6 5 9 2 10 1 2 6 10 
4 2 1 1.68402791711486e-011
-306.0184743869 -117.9559893833 469.93731837622 -310.7131900148 -126.7639571523 469.32140527041 -266.2858327083 -139.1337977855 469.93731837621 -270.9805483361 -147.9417655545 469.32140527041 9.7068060633619 18.2460176536354 18.5352335311729 13.5493306887526 30.8532831961165 57.9953432875905 39.681710663927 53.2986563228079 3 1 2 4 3 2 
10 8 1 0.368453844768839
-270.9805483361 -147.9417655545 469.32140527041 -266.2858327083 -139.1337977855 469.93731837621 -249.2062882599 -149.5874092355 489.24437382116 -259.707990065422 -142.741755335964 471.394785598363 -254.175277386028 -145.9816003414 475.554362135952 -250.495603260535 -148.380237818705 481.808650169509 -253.9010038878 -158.3953770045 488.62846071537 -264.402705693269 -151.549723104994 470.778872492598 -258.869993013901 -154.789568110416 474.938449030193 -255.190318888428 -157.18820558771 481.192737063739 4.71238898038182 104.159142095724 4.71238898038182 114.159142095701 3.17440951752434 114.159142095711 4.32789411466892 114.159142095711 3.94339924895406 114.159142095711 3.5589043832392 114.159142095711 3.17440951752645 104.159142095686 4.32789411466738 104.159142095687 3.94339924895362 104.159142095687 3.55890438323987 104.159142095687 6 3 7 6 7 10 5 9 8 5 10 9 5 6 10 4 8 1 4 5 8 2 4 1 

TShapes 70
Ve
1e-007
-249.2062882599 -155.5199037068 574.08299732533
0 0

0101101
*
Ve
1e-007
-249.2157962803 -155.5606360745 574.73797094019
0 0

0101101
*
Ed
 1e-007 1 1 0
1  1 0 6.25036844324258 6.28318530717959
2  1 1 0 6.25036844324258 6.28318530717959
4 C0 1 0 2 0
6  1 1 0
6  2 2 0
0

0101000
+70 0 -69 0 *
Ve
1e-007
-253.9105119082 -164.3686038435 574.1220578344
0 0

0101101
*
Ed
 1e-007 1 1 0
1  2 0 128.203063415194 138.203063415217
2  2 1 0 128.203063415194 138.203063415217
2  3 3 0 128.203063415194 138.203063415217
4 CN 1 0 3 0
6  3 1 0
6  4 3 0
0

0101000
+69 0 -67 0 *
Ve
1e-007
-253.9010038878 -164.3278714758 573.46708421954
0 0

0101101
*
Ed
 1e-007 1 1 0
1  3 0 6.25036844324258 6.28318530717959
2  4 1 0 6.25036844324258 6.28318530717959
4 C0 1 0 4 0
6  5 1 0
6  6 4 0
0

0101000
+65 0 -67 0 *
Ed
 1e-007 1 1 0
1  4 0 -138.203063415135 -128.203063415111
2  5 1 0 -138.203063415135 -128.203063415111
4 G1 1 0 5 0
6  7 1 0
6  8 5 0
0

0101000
+65 0 -70 0 *
Wi

0101100
+68 0 +66 0 -64 0 +63 0 *
Fa
0  1e-007 1 0
2  1
0101000
+62 0 *
Ve
1e-007
-253.9010038878 -158.3953770045 488.62846071537
0 0

0101101
*
Ed
 1e-007 1 1 0
1  5 0 -9.980071402295e-012 85.0457907761025
4 C0 4 0 5 0
6  9 4 0
6  10 5 0
0

0101000
+60 0 -65 0 *
Ve
1e-007
-272.1393631538 -156.0483647796 594.08408689421
0 0

0101101
*
Ed
 1e-007 1 1 0
1  6 0 0 1.57079632679335
2  6 3 0 0 1.57079632679335
4 C0 4 0 3 0
6  11 3 0
6  12 4 0
0

0101000
+67 0 -58 0 *
Ve
1e-007
-320.4117770566 -130.31879107 594.08408689421
0 0

0101101
*
Ed
 1e-007 1 1 0
1  7 0 -70.0716104762506 -15.370267647386
4 C0 4 0 6 0
6  13 4 0
6  14 6 0
0

0101000
+58 0 -56 0 *
Ve
1e-007
-328.9515492808 -125.091985345 584.43055917174
0 0

0101101
*
Ed
 1e-007 1 1 0
1  8 0 4.71238898038551 6.25036844324195
2  7 7 0 4.71238898038551 6.25036844324195
4 C0 4 0 7 0
6  15 7 0
6  16 4 0
0

0101000
+56 0 -54 0 *
Ve
1e-007
-328.9515492808 -118.4844504561 489.9384079451
0 0

0101101
*
Ed
 1e-007 1 1 0
1  9 0 0 94.7228914294018
4 C0 4 0 8 0
6  17 4 0
6  18 8 0
0

0101000
+54 0 -52 0 *
Ve
1e-007
-310.7131900148 -126.7639571523 469.32140527041
0 0

0101101
*
Ed
 1e-007 1 1 0
1  10 0 3.10877578965229 4.71238898038315
2  8 9 0 3.10877578965229 4.71238898038315
4 C0 4 0 9 0
6  19 9 0
6  20 4 0
0

0101000
+52 0 -50 0 *
Ve
1e-007
-270.9805483361 -147.9417655545 469.32140527041
0 0

0101101
*
Ed
 1e-007 1 1 0
1  11 0 22.2569330775592 67.2811752531723
4 C0 4 0 10 0
6  21 4 0
6  22 10 0
0

0101000
+50 0 -48 0 *
Ed
 1e-007 1 1 0
1  12 0 1.57079632679777 3.10877578965278
2  9 11 0 1.57079632679777 3.10877578965278
4 C0 4 0 11 0
6  23 11 0
6  24 4 0
0

0101000
+48 0 -60 0 *
Wi

0101100
+59 0 +64 0 +57 0 +55 0 +53 0 +51 0 +49 0 +47 0 +46 0 *
Fa
0  1e-007 4 0
2  4
0101000
+45 0 *
Ve
1e-007
-267.444647526 -147.2403970106 594.69999999999
0 0

0101101
*
Ed
 1e-007 1 1 0
1  13 0 0 1.57079632679777
2  10 3 0 0 1.57079632679777
4 C0 3 0 2 0
6  25 3 0
6  26 2 0
0

0101000
+69 0 -43 0 *
Ed
 1e-007 1 1 0
1  14 0 128.20306341515 138.203063415126
2  11 3 0 128.20306341515 138.203063415126
4 G1 3 0 6 0
6  27 3 0
6  28 6 0
0

0101000
+43 0 -58 0 *
Wi

0101100
-66 0 +42 0 +41 0 -57 0 *
Fa
0  1e-007 3 0
2  3
0101000
+40 0 *
Ve
1e-007
-249.2062882599 -149.5874092355 489.24437382116
0 0

0101101
*
Ed
 1e-007 1 1 0
1  15 0 0 85.0457907761125
4 C0 5 0 2 0
6  29 5 0
6  30 2 0
0

0101000
+38 0 -70 0 *
Ed
 1e-007 1 1 0
1  16 0 -6.16186677105491e-013 10.0000000000232
2  12 11 0 -6.16186677105491e-013 10.0000000000232
4 G1 5 0 11 0
6  31 11 0
6  32 5 0
0

0101000
+60 0 -38 0 *
Wi

0101100
+37 0 -63 0 -59 0 +36 0 *
Fa
0  1e-007 5 0
2  5
0101000
+35 0 *
Ve
1e-007
-266.2858327083 -139.1337977855 469.93731837621
0 0

0101101
*
Ed
 1e-007 1 1 0
1  17 0 104.159142095686 114.159142095664
2  13 11 0 104.159142095686 114.159142095664
4 G1 11 0 10 0
6  33 11 0
6  34 10 0
0

0101000
+48 0 -33 0 *
Ed
 1e-007 1 1 0
1  18 0 1.57079632679335 3.10877578965279
2  14 11 0 1.57079632679335 3.10877578965279
4 C0 11 0 2 0
6  35 11 0
6  36 2 0
0

0101000
+33 0 -38 0 *
Wi

0101100
+32 0 +31 0 -36 0 -46 0 *
Fa
0  1e-007 11 0
2  11
0101000
+30 0 *
Ve
1e-007
-306.0184743869 -117.9559893833 469.93731837622
0 0

0101101
*
Ed
 1e-007 1 1 0
1  19 0 -0 10.000000000025
2  15 9 0 -0 10.000000000025
4 G1 10 0 9 0
6  37 9 0
6  38 10 0
0

0101000
+28 0 -50 0 *
Ed
 1e-007 1 1 0
1  20 0 -3.39202758050001e-026 45.0242421755249
4 C0 10 0 2 0
6  39 10 0
6  40 2 0
0

0101000
+33 0 -28 0 *
Wi

0101100
-27 0 -26 0 -32 0 -47 0 *
Fa
0  1e-007 10 0
2  10
0101000
-25 0 *
Ve
1e-007
-324.256833653 -109.6764826871 490.55432105088
0 0

0101101
*
Ed
 1e-007 1 1 0
1  21 0 -107.42376950248 -97.4237695025034
2  16 9 0 -107.42376950248 -97.4237695025034
4 G1 9 0 8 0
6  41 9 0
6  42 8 0
0

0101000
+52 0 -23 0 *
Ed
 1e-007 1 1 0
1  22 0 3.10877578965279 4.71238898038756
2  17 9 0 3.10877578965279 4.71238898038756
4 C0 9 0 2 0
6  43 9 0
6  44 2 0
0

0101000
+23 0 -28 0 *
Wi

0101100
+27 0 -49 0 +22 0 +21 0 *
Fa
0  1e-007 9 0
2  9
0101000
+20 0 *
Ve
1e-007
-324.2568336529 -116.284017576 585.04647227752
0 0

0101101
*
Ed
 1e-007 1 1 0
1  23 0 9.98007140229501e-012 94.7228914294118
4 C0 8 0 2 0
6  45 8 0
6  46 2 0
0

0101000
+18 0 -23 0 *
Ed
 1e-007 1 1 0
1  24 0 0 10.0000000000231
2  18 7 0 0 10.0000000000231
4 G1 8 0 7 0
6  47 7 0
6  48 8 0
0

0101000
+54 0 -18 0 *
Wi

0101100
+17 0 -22 0 -51 0 +16 0 *
Fa
0  1e-007 8 0
2  8
0101000
+15 0 *
Ve
1e-007
-315.7170614288 -121.510823301 594.69999999999
0 0

0101101
*
Ed
 1e-007 1 1 0
1  25 0 126.018387672818 136.018387672795
2  19 7 0 126.018387672818 136.018387672795
4 G1 7 0 6 0
6  49 7 0
6  50 6 0
0

0101000
+56 0 -13 0 *
Ed
 1e-007 1 1 0
1  26 0 4.71238898038551 6.25036844324295
2  20 7 0 4.71238898038551 6.25036844324295
4 C0 7 0 2 0
6  51 7 0
6  52 2 0
0

0101000
+13 0 -18 0 *
Wi

0101100
+12 0 +11 0 -16 0 -53 0 *
Fa
0  1e-007 7 0
2  7
0101000
+10 0 *
Ed
 1e-007 1 1 0
1  27 0 -9.51801492468356e-027 54.7013428288646
4 C0 6 0 2 0
6  53 6 0
6  54 2 0
0

0101000
+13 0 -43 0 *
Wi

0101100
-12 0 -55 0 -41 0 -8 0 *
Fa
0  1e-007 6 0
2  6
0101000
-7 0 *
Wi

0101100
+8 0 -42 0 -68 0 -37 0 -31 0 +26 0 -21 0 -17 0 -11 0 *
Fa
0  1e-007 2 0
2  2
0101000
+5 0 *
Sh

0101100
+61 0 +44 0 +39 0 +34 0 +29 0 -24 0 +19 0 +14 0 +9 0 -6 0 
+4 0 *
So

0100000
+3 0 *
Co

1100000
+2 3 *

+1 0 