DBRep_DrawableShape

CASCADE Topology V1, (c) Matra-Datavision
Locations 3
1
              1 -1.110223024625e-016               0               0 
1.110223024625e-016               1               0               0 
              0               0               1               0 
1
             -1 1.110223024625e-016               0 -1.145061126907e-014 
1.110223024625e-016               1               0  1888.908979097 
              0               0              -1  10244.81452825 
2  1 1 2 1 0
Curve2ds 44
1 1.5707963267948966 0 0 1 
1 6.2831853071795862 20 -1 0 
1 0 0 0 1 
1 6.2831853071795862 0 0 1 
1 6.2831853071795862 0 -1 0 
1 0 26.072000000000003 1 0 
1 -4.1744385725905886e-014 26.072000000000003 1 0 
1 6.2831853071795862 46.072000000000003 -1 0 
1 6.2831853071795667 46.072000000000003 -1 0 
1 6.2831853071796022 46.072000000000003 -1 0 
1 6.2831853071795862 0 -1 0 
1 6.2831853071795862 0 -1 0 
1 6.2831853071795818 46.072000000000003 -1 0 
1 6.2831853071795862 46.072000000000003 -1 0 
1 6.2831853071795862 46.072000000000003 -1 0 
1 1.5707963267948966 46.072000000000003 0 -1 
1 3.1415926535897931 26.072000000000003 0 -1 
1 4.6687557490797431 26.072000000000003 0 1 
1 4.6687557490800051 26.072000000000003 0 -1 
1 6.2831853071795862 26.072000000000003 0 1 
1 1.5707963267948966 46.072000000000003 0 1 
1 3.1415926535897931 0 0 1 
1 0 26.072000000000003 1 0 
1 3.1415926535897931 46.072000000000003 0 1 
1 3.7689008458659257 0 0 1 
1 0 26.072000000000003 1 0 
1 3.7689008458656827 46.072000000000003 0 1 
1 4.7123889803846897 0 0 1 
1 0 26.072000000000003 1 0 
1 4.7123889803846897 0 0 -1 
1 6.2831853071795862 20 -1 0 
1 1.5707963267948966 0 0 -1 
1 4.7123889803846897 0 0 1 
1 6.2831853071795862 20 -1 0 
1 4.7123889803846897 46.072000000000003 0 1 
1 5.6558771149050457 0 0 1 
1 0 26.072000000000003 1 0 
1 5.6558771149039666 46.072000000000003 0 1 
1 6.2831853071795862 0 0 1 
1 2.6645352591003757e-015 26.072000000000003 1 0 
1 0 46.072000000000003 0 1 
1 0 26.072000000000003 1 0 
1 6.2831853071795862 46.072000000000003 -1 0 
1 6.2831853071795507 46.072000000000003 -1 0 
Curves 81
1 348.04845071915003 38.671572875300001 710.20000000000005 -1 0 0 
2 328.04845071915003 37.171572875300001 710.20000000000005 1 0 -0 0 0 1 0 -1 0 1.5
1 348.04845071915003 37.171572875300001 711.70000000000005 -1 0 0 
2 348.04845071915003 37.171572875300001 710.20000000000005 1 0 -0 0 0 1 0 -1 0 1.5
1 348.04845071915003 66.671572875300001 677.20000000000005 0 0.70710678118654757 -0.70710678118654757 
1 348.04845071915003 38.671572875300001 677.20000000000005 0 1 0 
2 348.04845071915003 58.628864617550001 678.20000000000005 -1 0 0 0 0 1 0 1 -0 1
1 348.04845071915003 55.752395850909998 721.15638061262996 0 0.043619387365194058 -0.99904822158186402 
2 348.04845071915003 56.751444072490003 721.20000000000005 -1 0 0 0 0 1 0 1 -0 1
1 348.04845071915003 38.671572875300001 722.20000000000005 -0 -1 -0 
1 348.04845071915003 70.671572875300001 726.20000000000005 -0 -0.70710678118654757 -0.70710678118654757 
1 348.04845071915003 70.671572875300001 699.70000000000005 -0 -0 -1 
2 348.04845071915003 65.671572875300001 729.70000000000005 -1 -0 -0 0 0 -1 0 -1 0 5
1 348.04845071915003 38.671572875300001 734.70000000000005 0 1 0 
2 348.04845071915003 41.915185740177002 724.70000000000005 -1 -0 0 0 -1.942890293094e-014 -1 0 -1 1.942890293094e-014 10
1 348.04845071915003 20.736735018000001 721.69724255345 0 0.80961044339422128 0.58696757146116041 
2 348.04845071915003 23.671572875300001 717.64919033648005 -1 0 -0 0 1.5959455978989998e-014 -1 0 -1 -1.5959455978989998e-014 5
1 348.04845071915003 18.671572875300001 699.70000000000005 0 0 1 
1 348.04845071915003 38.671572875300001 710.20000000000005 -0 -1 -0 
2 348.04845071915003 37.171572875300001 710.20000000000005 1 0 -0 0 0 1 0 -1 0 1.5
1 348.04845071915003 38.671572875300001 699.70000000000005 0 0 1 
2 348.04845071915003 37.171572875300001 689.20000000000005 1 0 -0 0 0 1 0 -1 0 1.5
1 348.04845071915003 38.671572875300001 689.20000000000005 0 1 0 
1 348.04845071915003 18.671572875300001 699.70000000000005 0 0 1 
2 348.04845071915003 23.671572875300001 681.75080966352004 -1 -0 0 0 -3.4694469519539999e-015 -1 0 -1 3.4694469519539999e-015 5
1 348.04845071915003 36.045510025566998 666.60389556606003 0 -0.80961044339422128 0.58696757146116041 
2 348.04845071915003 41.915185740177002 674.70000000000005 -1 -0 -0 0 0 -1 0 -1 0 10
1 348.04845071915003 38.671572875300001 664.70000000000005 -0 -1 -0 
2 348.04845071915003 65.671572875300001 669.70000000000005 -1 -0 -0 0 0 -1 0 -1 0 5
1 348.04845071915003 70.671572875300001 699.70000000000005 -0 -0 -1 
1 348.04845071915003 70.671572875300001 669.70000000000005 -1 0 0 
1 328.04845071915003 70.671572875300001 677.20000000000005 0 0 1 
1 348.04845071915003 70.671572875300001 673.20000000000005 1 -0 -0 
1 338.04845071915003 66.671572875300001 677.20000000000005 1 -0 -0 
1 328.04845071915003 68.671572875300001 675.20000000000005 -0 -0.70710678118654757 0.70710678118654757 
1 328.04845071915003 57.671572875300001 677.20000000000005 -0 -1 -0 
1 348.04845071915003 58.628864617550001 677.20000000000005 1 0 0 
1 348.04845071915003 57.629816395976 678.15638061262996 -1 0 0 
1 328.04845071915003 55.70683044442 722.20000000000005 -0 -0.043619387365333794 0.99904822158185791 
1 348.04845071915003 55.752395850909998 721.15638061262996 1 -0 -0 
1 348.04845071915003 56.751444072490003 722.20000000000005 -1 0 0 
1 328.04845071915003 70.671572875300001 722.20000000000005 0 1 0 
1 348.04845071915003 66.671572875300001 722.20000000000005 1 -0 -0 
1 338.04845071915003 70.671572875300001 726.20000000000005 1 -0 -0 
1 328.04845071915003 68.671572875300001 724.20000000000005 0 0.70710678118654757 0.70710678118654757 
1 328.04845071915003 70.671572875300001 734.70000000000005 0 0 1 
1 348.04845071915003 70.671572875300001 729.70000000000005 1 -0 -0 
1 301.97645071915002 65.671572875300001 734.70000000000005 1 0 0 
2 328.04845071915003 65.671572875300001 729.70000000000005 1 0 0 0 0 -1 -0 1 0 5
1 328.04845071915003 38.671572875300001 734.70000000000005 -0 -1 -0 
1 348.04845071915003 41.915185740177002 734.70000000000005 1 0 0 
1 301.97645071915002 36.045510025566003 732.79610443393995 1 0 0 
2 328.04845071915003 41.915185740177002 724.70000000000005 1 0 0 0 0 -1 -0 1 0 10
1 328.04845071915003 18.671572875300001 720.20000000000005 -0 -0.80961044339422128 -0.58696757146116041 
1 348.04845071915003 20.736735017996001 721.69724255345 1 -0 -0 
1 301.97645071915002 18.671572875300001 717.64919033648005 1 0 0 
2 328.04845071915003 23.671572875300001 717.64919033648005 1 0 0 0 0 -1 -0 1 0 5
1 328.04845071915003 18.671572875300001 710.20000000000005 -0 -0 -1 
1 348.04845071915003 18.671572875300001 710.20000000000005 1 0 0 
1 348.04845071915003 35.671572875300001 710.20000000000005 1 -0 -0 
1 328.04845071915003 35.671572875300001 710.20000000000005 0 1 0 
2 328.04845071915003 37.171572875300001 710.20000000000005 1 0 -0 0 0 1 0 -1 0 1.5
1 348.04845071915003 38.671572875300001 689.20000000000005 1 0 0 
1 328.04845071915003 38.671572875300001 689.20000000000005 -0 -0 -1 
1 348.04845071915003 35.671572875300001 689.20000000000005 -1 0 0 
2 328.04845071915003 37.171572875300001 689.20000000000005 1 0 -0 0 0 1 0 -1 0 1.5
1 348.04845071915003 18.671572875300001 689.20000000000005 1 0 0 
1 328.04845071915003 18.671572875300001 689.20000000000005 -0 -1 -0 
1 328.04845071915003 18.671572875300001 679.20000000000005 -0 -0 -1 
1 348.04845071915003 18.671572875300001 681.75080966352004 1 0 0 
1 301.97645071915002 20.736735017996999 677.70275744653998 1 0 0 
2 328.04845071915003 23.671572875300001 681.75080966352004 1 0 0 0 0 -1 -0 1 0 5
1 328.04845071915003 38.671572875300001 664.70000000000005 -0 0.80961044339422128 -0.58696757146116041 
1 348.04845071915003 36.045510025565001 666.60389556605003 1 -0 -0 
1 301.97645071915002 41.915185740177002 664.70000000000005 1 0 0 
2 328.04845071915003 41.915185740177002 674.70000000000005 1 0 0 0 0 -1 -0 1 0 10
1 328.04845071915003 70.671572875300001 664.70000000000005 0 1 0 
1 348.04845071915003 65.671572875300001 664.70000000000005 1 -0 -0 
2 328.04845071915003 65.671572875300001 669.70000000000005 1 0 0 0 0 -1 -0 1 0 5
2 328.04845071915003 56.751444072490003 721.20000000000005 1 0 -0 0 0 1 0 -1 0 1
2 328.04845071915003 58.628864617550001 678.20000000000005 1 0 -0 0 -2.7755575615629999e-014 1 0 -1 -2.7755575615629999e-014 1
Polygon3D 0
PolygonOnTriangulations 162
2 1 2 
p 21.749873165918 1 0 20 
2 3 4 
p 21.749873165918 1 0 20 
5 2 4 5 6 3 
p 21.749873165918 1 4.71238898038469 5.10508806208341 5.49778714378214 5.89048622548086 6.28318530717959 
5 24 26 27 28 25 
p 21.749873165918 1 4.71238898038469 5.10508806208341 5.49778714378214 5.89048622548086 6.28318530717959 
2 7 3 
p 21.749873165918 1 0 20 
2 7 1 
p 21.749873165918 1 0 20 
5 1 8 9 10 7 
p 21.749873165918 1 4.71238898038469 5.10508806208341 5.49778714378214 5.89048622548086 6.28318530717959 
5 34 35 36 37 30 
p 21.749873165918 1 4.71238898038469 5.10508806208341 5.49778714378214 5.89048622548086 6.28318530717959 
2 1 2 
p 21.749873165918 1 0 5.65685424949238 
2 2 3 
p 21.749873165918 1 0 5.65685424949238 
2 3 1 
p 21.749873165918 1 19.95729174225 28 
2 3 4 
p 21.749873165918 1 19.95729174225 28 
5 6 8 9 10 7 
p 21.749873165918 1 3.14159265358979 3.52338342746231 3.90517420133483 4.28696497520735 4.66875574907987 
5 3 5 6 7 4 
p 21.749873165918 1 3.14159265358979 3.52338342746231 3.90517420133483 4.28696497520735 4.66875574907987 
2 8 4 
p 21.749873165918 1 0 43.0409654620226 
2 1 2 
p 21.749873165918 1 0 43.0409654620226 
5 6 8 9 10 7 
p 21.749873165918 1 4.66875574908001 5.0723631386049 5.4759705281298 5.87957791765469 6.28318530717959 
5 8 10 11 12 9 
p 21.749873165918 1 4.66875574908001 5.0723631386049 5.4759705281298 5.87957791765469 6.28318530717959 
2 13 9 
p 21.749873165918 1 -28 -18.07987119719 
2 1 2 
p 21.749873165918 1 -28 -18.07987119719 
2 14 13 
p 21.749873165918 1 -0 5.65685424949238 
2 2 3 
p 21.749873165918 1 -0 5.65685424949238 
2 15 14 
p 21.749873165918 1 -30 -26.5 
2 3 4 
p 21.749873165918 1 -30 -26.5 
5 2 4 5 6 3 
p 21.749873165918 1 3.14159265358979 3.53429173528852 3.92699081698724 4.31968989868597 4.71238898038469 
5 16 17 18 19 15 
p 21.749873165918 1 3.14159265358979 3.53429173528852 3.92699081698724 4.31968989868597 4.71238898038469 
2 20 16 
p 21.749873165918 1 3.243612864877 27 
2 1 2 
p 21.749873165918 1 3.243612864877 27 
4 2 4 5 3 
p 21.749873165918 1 2.51428446131372 2.72338719207241 2.9324899228311 3.14159265358979 
4 21 22 23 20 
p 21.749873165918 1 2.51428446131372 2.72338719207241 2.9324899228311 3.14159265358979 
2 24 21 
p 21.749873165918 1 -2.4304854117507e-012 18.9088161256727 
2 3 4 
p 21.749873165918 1 -2.4304854117507e-012 18.9088161256727 
4 2 4 5 3 
p 21.749873165918 1 1.57079632679491 1.88529237163464 2.19978841647436 2.51428446131408 
4 25 26 27 24 
p 21.749873165918 1 1.57079632679491 1.88529237163464 2.19978841647436 2.51428446131408 
2 28 25 
p 21.749873165918 1 10.5 17.94919033648 
2 1 2 
p 21.749873165918 1 10.5 17.94919033648 
2 29 28 
p 21.749873165918 1 3 20 
2 2 3 
p 21.749873165918 1 3 20 
5 7 8 9 10 6 
p 21.749873165918 1 0 0.392699081698724 0.785398163397448 1.17809724509617 1.5707963267949 
5 30 31 32 33 29 
p 21.749873165918 1 0 0.392699081698724 0.785398163397448 1.17809724509617 1.5707963267949 
2 38 34 
p 21.749873165918 1 -10.5 10.5 
2 2 3 
p 21.749873165918 1 -10.5 10.5 
8 3 4 5 6 7 8 9 2 
p 21.749873165918 1 1.5707963267949 2.01959527730772 2.46839422782055 2.91719317833338 3.36599212884621 3.81479107935903 4.26359002987186 4.71238898038469 
8 39 40 41 42 43 44 45 38 
p 21.749873165918 1 1.5707963267949 2.01959527730772 2.46839422782055 2.91719317833338 3.36599212884621 3.81479107935903 4.26359002987186 4.71238898038469 
2 46 39 
p 21.749873165918 1 -20 -3 
2 2 3 
p 21.749873165918 1 -20 -3 
2 47 46 
p 21.749873165918 1 -17.94919033648 -10.5 
2 3 4 
p 21.749873165918 1 -17.94919033648 -10.5 
4 2 4 5 3 
p 21.749873165918 1 0.627308192274537 0.941804237114656 1.25630028195477 1.57079632679489 
4 48 49 50 47 
p 21.749873165918 1 0.627308192274537 0.941804237114656 1.25630028195477 1.57079632679489 
2 51 48 
p 21.749873165918 1 -5.87228285992093e-012 18.9088161256693 
2 3 4 
p 21.749873165918 1 -5.87228285992093e-012 18.9088161256693 
4 2 4 5 3 
p 21.749873165918 1 0 0.209102730758486 0.418205461516972 0.627308192275458 
4 52 53 54 51 
p 21.749873165918 1 0 0.209102730758486 0.418205461516972 0.627308192275458 
2 55 52 
p 21.749873165918 1 -27 -3.243612864877 
2 3 4 
p 21.749873165918 1 -27 -3.243612864877 
5 7 8 9 10 2 
p 21.749873165918 1 4.71238898038469 5.10508806208341 5.49778714378214 5.89048622548086 6.28318530717959 
5 56 57 58 59 55 
p 21.749873165918 1 4.71238898038469 5.10508806208341 5.49778714378214 5.89048622548086 6.28318530717959 
2 2 56 
p 21.749873165918 1 26.5 30 
2 1 2 
p 21.749873165918 1 26.5 30 
2 7 3 
p 21.749873165918 1 0 20 
2 2 3 
p 21.749873165918 1 0 20 
2 3 4 
p 21.749873165918 1 -7.5 -4 
2 1 2 
p 21.749873165918 1 -7.5 -4 
2 4 1 
p 21.749873165918 1 -20 0 
2 4 3 
p 21.749873165918 1 -20 0 
2 1 2 
p 21.749873165918 1 -10 10 
2 1 4 
p 21.749873165918 1 -10 10 
2 4 1 
p 21.749873165918 1 -2.82842712474619 2.82842712474619 
2 2 59 
p 21.749873165918 1 -2.82842712474619 2.82842712474619 
2 1 2 
p 21.749873165918 1 -9 -0.95729174225 
2 59 55 
p 21.749873165918 1 -9 -0.95729174225 
2 2 6 
p 21.749873165918 1 -20 0 
2 2 3 
p 21.749873165918 1 -20 0 
2 7 1 
p 21.749873165918 1 0 20 
2 2 3 
p 21.749873165918 1 0 20 
2 3 4 
p 21.749873165918 1 -44.0855790900993 -1.04461362807658 
2 54 50 
p 21.749873165918 1 -44.0855790900993 -1.04461362807658 
2 2 6 
p 21.749873165918 1 -20 0 
2 4 1 
p 21.749873165918 1 -20 0 
2 7 1 
p 21.749873165918 1 0 20 
2 2 3 
p 21.749873165918 1 0 20 
2 3 4 
p 21.749873165918 1 -13.92012880281 -4 
2 49 48 
p 21.749873165918 1 -13.92012880281 -4 
2 4 1 
p 21.749873165918 1 -20 0 
2 4 3 
p 21.749873165918 1 -20 0 
2 1 2 
p 21.749873165918 1 -10 10 
2 1 4 
p 21.749873165918 1 -10 10 
2 4 1 
p 21.749873165918 1 -2.82842712474619 2.82842712474619 
2 48 47 
p 21.749873165918 1 -2.82842712474619 2.82842712474619 
2 1 2 
p 21.749873165918 1 -8.5 -5 
2 47 43 
p 21.749873165918 1 -8.5 -5 
2 7 3 
p 21.749873165918 1 -20 0 
2 2 3 
p 21.749873165918 1 -20 0 
2 1 2 
p 21.749873165918 1 26.072 46.072 
2 3 2 
p 21.749873165918 1 26.072 46.072 
5 7 8 9 10 1 
p 21.749873165918 1 1.5707963267949 1.96349540849362 2.35619449019234 2.74889357189107 3.14159265358979 
5 43 44 45 46 42 
p 21.749873165918 1 1.5707963267949 1.96349540849362 2.35619449019234 2.74889357189107 3.14159265358979 
2 3 4 
p 21.749873165918 1 -27 -3.243612864877 
2 42 39 
p 21.749873165918 1 -27 -3.243612864877 
2 6 3 
p 21.749873165918 1 -20 0 
2 4 1 
p 21.749873165918 1 -20 0 
2 1 2 
p 21.749873165918 1 26.072 46.072 
2 1 4 
p 21.749873165918 1 26.072 46.072 
4 6 7 8 1 
p 21.749873165918 1 3.14159265358979 3.35069538434848 3.55979811510716 3.76890084586585 
4 39 40 41 38 
p 21.749873165918 1 3.14159265358979 3.35069538434848 3.55979811510716 3.76890084586585 
2 1 2 
p 21.749873165918 1 -21.4596257891919 -2.55080966351508 
2 38 35 
p 21.749873165918 1 -21.4596257891919 -2.55080966351508 
2 6 3 
p 21.749873165918 1 -20 0 
2 2 3 
p 21.749873165918 1 -20 0 
2 1 2 
p 21.749873165918 1 26.072 46.072 
2 3 2 
p 21.749873165918 1 26.072 46.072 
4 6 7 8 1 
p 21.749873165918 1 3.76890084586585 4.08339689070546 4.39789293554507 4.71238898038469 
4 35 36 37 34 
p 21.749873165918 1 3.76890084586585 4.08339689070546 4.39789293554507 4.71238898038469 
2 3 4 
p 21.749873165918 1 -7.44919033648 -0 
2 34 33 
p 21.749873165918 1 -7.44919033648 -0 
2 4 1 
p 21.749873165918 1 -20 0 
2 4 3 
p 21.749873165918 1 -20 0 
2 2 6 
p 21.749873165918 1 -20 0 
2 1 2 
p 21.749873165918 1 -20 0 
2 4 1 
p 21.749873165918 1 -17 0 
2 33 29 
p 21.749873165918 1 -17 0 
5 1 3 4 5 2 
p 21.749873165918 1 0 0.392699081698724 0.785398163397448 1.17809724509617 1.5707963267949 
5 25 30 31 32 29 
p 21.749873165918 1 0 0.392699081698724 0.785398163397448 1.17809724509617 1.5707963267949 
2 1 2 
p 21.749873165918 1 -20 0 
2 1 2 
p 21.749873165918 1 -20 0 
2 4 1 
p 21.749873165918 1 -21 -0 
2 24 17 
p 21.749873165918 1 -21 -0 
2 3 10 
p 21.749873165918 1 0 20 
2 3 4 
p 21.749873165918 1 0 20 
8 10 11 12 13 14 15 16 1 
p 21.749873165918 1 1.5707963267949 2.01959527730772 2.46839422782055 2.91719317833338 3.36599212884621 3.81479107935903 4.26359002987186 4.71238898038469 
8 16 18 19 20 21 22 23 17 
p 21.749873165918 1 1.5707963267949 2.01959527730772 2.46839422782055 2.91719317833338 3.36599212884621 3.81479107935903 4.26359002987186 4.71238898038469 
2 1 2 
p 21.749873165918 1 -20 0 
2 1 4 
p 21.749873165918 1 -20 0 
2 4 1 
p 21.749873165918 1 -17 -0 
2 16 15 
p 21.749873165918 1 -17 -0 
2 1 2 
p 21.749873165918 1 -10 -2.55080966352 
2 15 12 
p 21.749873165918 1 -10 -2.55080966352 
2 6 3 
p 21.749873165918 1 -20 0 
2 2 3 
p 21.749873165918 1 -20 0 
2 1 2 
p 21.749873165918 1 26.072 46.072 
2 1 4 
p 21.749873165918 1 26.072 46.072 
4 6 7 8 1 
p 21.749873165918 1 4.71238898038469 5.02688502522475 5.34138107006482 5.65587711490488 
4 12 13 14 11 
p 21.749873165918 1 4.71238898038469 5.02688502522475 5.34138107006482 5.65587711490488 
2 1 2 
p 21.749873165918 1 -22.1524289905494 -3.24361286487426 
2 11 8 
p 21.749873165918 1 -22.1524289905494 -3.24361286487426 
2 6 3 
p 21.749873165918 1 -20 0 
2 2 3 
p 21.749873165918 1 -20 0 
2 1 2 
p 21.749873165918 1 26.072 46.072 
2 1 4 
p 21.749873165918 1 26.072 46.072 
4 6 7 8 1 
p 21.749873165918 1 5.65587711490405 5.86497984566256 6.07408257642107 6.28318530717959 
4 8 9 10 7 
p 21.749873165918 1 5.65587711490405 5.86497984566256 6.07408257642107 6.28318530717959 
2 1 2 
p 21.749873165918 1 -28.756387135123 -5 
2 7 3 
p 21.749873165918 1 -28.756387135123 -5 
2 1 2 
p 21.749873165918 1 -20 0 
2 2 3 
p 21.749873165918 1 -20 0 
5 1 4 5 6 3 
p 21.749873165918 1 0 0.392699081698724 0.785398163397448 1.17809724509617 1.5707963267949 
5 3 4 5 6 1 
p 21.749873165918 1 0 0.392699081698724 0.785398163397448 1.17809724509617 1.5707963267949 
5 1 3 4 5 2 
p 21.749873165918 1 0 0.403607389524895 0.807214779049791 1.21082216857469 1.61442955809958 
5 49 51 52 53 50 
p 21.749873165918 1 0 0.403607389524895 0.807214779049791 1.21082216857469 1.61442955809958 
5 1 3 4 5 2 
p 21.749873165918 1 1.61442955809982 1.99622033197231 2.3780111058448 2.7598018797173 3.14159265358979 
5 54 56 57 58 55 
p 21.749873165918 1 1.61442955809982 1.99622033197231 2.3780111058448 2.7598018797173 3.14159265358979 
Surfaces 29
2 348.04845071915003 37.171572875300001 710.20000000000005 -1 0 0 0 0 1 0 1 -0 1.5
1 348.04845071915003 38.671572875300001 689.20000000000005 0 -1 0 1 0 0 -0 0 1 
1 328.04845071915003 38.671572875300001 699.70000000000005 -1 0 0 0 0 1 0 1 -0 
2 348.04845071915003 37.171572875300001 710.20000000000005 -1 0 0 0 0 1 0 1 -0 1.5
1 348.04845071915003 38.671572875300001 699.70000000000005 -1 0 0 0 0 1 0 1 -0 
1 338.04845071915003 68.671572875300001 675.20000000000005 0 0.70710678118654757 0.70710678118654757 0 0.70710678118654757 -0.70710678118654757 -1 0 0 
1 348.04845071915003 57.671572875300001 677.20000000000005 0 0 1 1 0 -0 -0 1 0 
2 374.12045071915003 58.628864617550001 678.20000000000005 -1 0 0 0 0 1 0 1 -0 1
1 348.04845071915003 55.70683044442 722.20000000000005 0 0.99904822158185791 0.043619387365333794 0 0.043619387365333794 -0.99904822158185791 -1 0 0 
2 374.12045071915003 56.751444072490003 721.20000000000005 -1 0 0 0 0 1 0 1 -0 1
1 348.04845071915003 70.671572875300001 722.20000000000005 0 0 -1 -1 0 0 0 1 0 
1 338.04845071915003 68.671572875300001 724.20000000000005 0 0.70710678118654757 -0.70710678118654757 0 -0.70710678118654757 -0.70710678118654757 -1 0 -0 
1 348.04845071915003 70.671572875300001 734.70000000000005 0 1 0 -1 0 0 0 -0 1 
2 301.97645071915002 65.671572875300001 729.70000000000005 1 0 0 0 0 -1 -0 1 0 5
1 348.04845071915003 38.671572875300001 734.70000000000005 0 0 1 1 0 -0 -0 1 0 
2 301.97645071915002 41.915185740177002 724.70000000000005 1 0 0 0 0 -1 -0 1 0 10
1 348.04845071915003 18.671572875300001 720.20000000000005 0 -0.58696757146116041 0.80961044339422128 0 0.80961044339422128 0.58696757146116041 -1 0 0 
2 301.97645071915002 23.671572875300001 717.64919033648005 1 0 0 0 0 -1 -0 1 0 5
1 348.04845071915003 18.671572875300001 710.20000000000005 0 -1 0 1 0 0 -0 0 1 
1 348.04845071915003 35.671572875300001 710.20000000000005 0 0 -1 -1 0 0 0 1 0 
2 348.04845071915003 37.171572875300001 689.20000000000005 -1 0 0 0 0 1 0 1 -0 1.5
1 348.04845071915003 18.671572875300001 689.20000000000005 0 0 1 1 0 -0 -0 1 0 
1 348.04845071915003 18.671572875300001 679.20000000000005 0 -1 0 1 0 0 -0 0 1 
2 301.97645071915002 23.671572875300001 681.75080966352004 1 0 0 0 0 -1 -0 1 0 5
1 348.04845071915003 38.671572875300001 664.70000000000005 -0 -0.58696757146116041 -0.80961044339422128 0 -0.80961044339422128 0.58696757146116041 -1 0 0 
2 301.97645071915002 41.915185740177002 674.70000000000005 1 0 0 0 0 -1 -0 1 0 10
1 348.04845071915003 70.671572875300001 664.70000000000005 0 0 -1 -1 0 0 0 1 0 
2 301.97645071915002 65.671572875300001 669.70000000000005 1 0 0 0 0 -1 -0 1 0 5
1 348.04845071915003 70.671572875300001 677.20000000000005 0 1 0 -1 0 0 0 -0 1 
Triangulations 29
10 8 1 0.028822079395207
348.04845071915 38.6715728753 710.2 328.04845071915 38.6715728753 710.2 328.04845071915 37.1715728753 711.7 328.04845071915 38.5573921740669 710.774025148548 328.04845071915 38.2322330470798 711.26066017178 328.04845071915 37.7455980238476 711.585819298767 348.04845071915 37.1715728753 711.7 348.04845071915 38.5573921740669 710.774025148548 348.04845071915 38.2322330470798 711.26066017178 348.04845071915 37.7455980238476 711.585819298767 1.5707963267949 0 1.5707963267949 20 0 20 1.17809724509617 20 0.785398163397447 20 0.392699081698723 20 0 0 1.17809724509617 0 0.785398163397447 0 0.392699081698723 0 6 3 7 6 7 10 5 10 9 5 6 10 4 9 8 4 5 9 2 8 1 2 4 8 
4 2 1 8.88178419700125e-016
328.04845071915 38.6715728753 689.2 348.04845071915 38.6715728753 689.2 348.04845071915 38.6715728753 710.2 328.04845071915 38.6715728753 710.2 -20 0 0 0 0 21 -20 21 3 1 2 3 4 1 
59 57 1 5.51780843238703e-014
328.04845071915 70.6715728753 669.7 328.04845071915 70.6715728753 673.2 328.04845071915 65.6715728753 664.7 328.04845071915 67.5849900371255 665.080602337444 328.04845071915 69.2071067812327 666.164466094067 328.04845071915 70.2909705378564 667.786582838175 328.04845071915 41.915185740177 664.7 328.04845071915 36.045510025566 666.60389556605 328.04845071915 37.8539734988969 665.561807884966 328.04845071915 39.8393631502556 664.917824343472 328.04845071915 20.736735017996 677.70275744654 328.04845071915 18.6715728753 681.75080966352 328.04845071915 18.9168109164025 680.204123297697 328.04845071915 19.6284683609886 678.809159465697 328.04845071915 18.6715728753 689.2 328.04845071915 35.6715728753 689.2 328.04845071915 38.6715728753 689.2 328.04845071915 35.8201195734464 688.549174391324 328.04845071915 36.2363381725119 688.027252776298 328.04845071915 36.8377914743655 687.737608131727 328.04845071915 37.5053542762345 687.737608131727 328.04845071915 38.1068075780881 688.027252776298 328.04845071915 38.5230261771536 688.549174391324 328.04845071915 38.6715728753 710.2 328.04845071915 37.1715728753 711.7 328.04845071915 38.5573921740669 710.774025148548 328.04845071915 38.2322330470798 711.26066017178 328.04845071915 37.7455980238476 711.585819298767 328.04845071915 35.6715728753 710.2 328.04845071915 36.5975477267524 711.585819298767 328.04845071915 36.1109127035202 711.26066017178 328.04845071915 35.7857535765331 710.774025148548 328.04845071915 18.6715728753 710.2 328.04845071915 18.6715728753 717.64919033648 328.04845071915 20.736735017995 721.69724255345 328.04845071915 19.6284683609859 720.5908405343 328.04845071915 18.9168109164018 719.1958767023 328.04845071915 36.045510025567 732.79610443394 328.04845071915 41.915185740177 734.7 328.04845071915 39.8393631502539 734.482175656528 328.04845071915 37.8539734988937 733.838192115033 328.04845071915 65.6715728753 734.7 328.04845071915 70.6715728753 729.7 328.04845071915 70.2909705378564 731.613417161826 328.04845071915 69.2071067812327 733.235533905933 328.04845071915 67.5849900371255 734.319397662557 328.04845071915 70.6715728753 726.2 328.04845071915 66.6715728753 722.2 328.04845071915 56.75144407249 722.2 328.04845071915 55.75239585091 721.15638061263 328.04845071915 56.3587056454043 722.119650220405 328.04845071915 56.0290801104286 721.891513055781 328.04845071915 55.8155381457314 721.552250047918 328.04845071915 57.629816395976 678.15638061263 328.04845071915 58.62886461755 677.2 328.04845071915 57.7180007926304 677.787292970192 328.04845071915 57.9373515617696 677.477636037939 328.04845071915 58.2562817154071 677.272001087807 328.04845071915 66.6715728753 677.2 -30 32 -26.5 32 -35 27 -34.6193976625564 28.9134171618255 -33.5355339059327 30.5355339059327 -31.9134171618255 31.6193976625564 -35 3.243612864877 -33.09610443395 -2.626062849734 -34.1381921150344 -0.817599376403138 -34.7821756565281 1.16779027495556 -21.9972425534601 -17.934837857304 -17.94919033648 -20 -19.4958767023026 -19.7547619588975 -20.8908405343034 -19.0431045143114 -10.5 -20 -10.5 -3 -10.5 0 -11.1508256086763 -2.85145330185363 -11.672747223702 -2.4352347027881 -11.9623918682727 -1.83378140093447 -11.9623918682727 -1.16621859906553 -11.672747223702 -0.564765297211899 -11.1508256086763 -0.148546698146372 10.5 0 12 -1.5 11.0740251485476 -0.114180701233071 11.5606601717798 -0.439339828220181 11.8858192987669 -0.925974851452366 10.5 -3 11.8858192987669 -2.07402514854763 11.5606601717798 -2.56066017177982 11.0740251485476 -2.88581929876693 10.5 -20 17.94919033648 -20 21.99724255345 -17.934837857305 20.8908405342998 -19.0431045143141 19.4958767023004 -19.7547619588982 33.0961044339399 -2.626062849733 35 3.243612864877 34.7821756565278 1.16779027495389 34.138192115033 -0.81759937640626 35 27 30 32 31.9134171618255 31.6193976625564 33.5355339059327 30.5355339059327 34.6193976625564 28.9134171618255 26.5 32 22.5 28 22.5 18.07987119719 21.4563806126299 17.08082297561 22.4196502204046 17.6871327701043 22.1915130557805 17.3575072351286 21.8522500479178 17.1439652704314 -21.5436193873701 18.958243520676 -22.5 19.95729174225 -21.9127070298079 19.0464279173304 -22.2223639620615 19.2657786864696 -22.4279989121927 19.5847088401071 -22.5 28 32 34 35 32 29 33 32 33 34 31 32 35 12 14 13 12 11 14 30 31 35 7 9 8 7 10 9 18 12 15 18 11 12 18 19 11 38 28 25 20 8 11 38 25 30 20 11 19 38 30 35 16 18 15 21 7 8 40 38 41 21 8 20 39 28 38 22 7 21 39 38 40 50 54 17 50 17 24 50 24 26 50 26 27 50 27 28 50 28 39 53 50 39 52 53 39 51 52 39 5 4 3 56 57 7 58 3 7 58 7 57 42 48 49 54 56 7 42 49 51 54 22 23 54 23 17 42 51 39 54 7 22 43 47 48 43 48 42 55 3 58 45 44 43 45 42 46 45 43 42 1 5 3 1 6 5 35 37 36 35 34 37 59 2 1 59 3 55 59 1 3 
10 8 1 0.028822079395211
328.04845071915 37.1715728753 711.7 328.04845071915 35.6715728753 710.2 328.04845071915 36.5975477267524 711.585819298767 328.04845071915 36.1109127035202 711.26066017178 328.04845071915 35.7857535765331 710.774025148548 348.04845071915 35.6715728753 710.2 348.04845071915 37.1715728753 711.7 348.04845071915 36.5975477267524 711.585819298767 348.04845071915 36.1109127035202 711.26066017178 348.04845071915 35.7857535765331 710.774025148548 6.28318530717959 20 4.71238898038469 20 5.89048622548086 20 5.49778714378214 20 5.10508806208341 20 4.71238898038469 0 6.28318530717959 0 5.89048622548086 0 5.49778714378214 0 5.10508806208341 0 5 2 6 5 6 10 4 10 9 4 5 10 3 9 8 3 4 9 1 8 7 1 3 8 
59 57 1 5.51780843238703e-014
348.04845071915 66.6715728753 677.2 348.04845071915 70.6715728753 673.2 348.04845071915 58.62886461755 677.2 348.04845071915 57.629816395973 678.15638061263 348.04845071915 58.256281715407 677.272001087807 348.04845071915 57.9373515617695 677.477636037939 348.04845071915 57.7180007926304 677.787292970192 348.04845071915 55.75239585091 721.15638061263 348.04845071915 56.75144407249 722.2 348.04845071915 55.8155381457314 721.552250047918 348.04845071915 56.0290801104286 721.891513055781 348.04845071915 56.3587056454043 722.119650220405 348.04845071915 66.6715728753 722.2 348.04845071915 70.6715728753 726.2 348.04845071915 70.6715728753 729.7 348.04845071915 65.6715728753 734.7 348.04845071915 67.5849900371255 734.319397662557 348.04845071915 69.2071067812327 733.235533905933 348.04845071915 70.2909705378564 731.613417161826 348.04845071915 41.915185740177 734.7 348.04845071915 36.045510025567 732.79610443394 348.04845071915 37.8539734988938 733.838192115033 348.04845071915 39.839363150254 734.482175656528 348.04845071915 20.736735017997 721.69724255345 348.04845071915 18.6715728753 717.64919033648 348.04845071915 18.916810916402 719.195876702301 348.04845071915 19.6284683609866 720.590840534301 348.04845071915 18.6715728753 710.2 348.04845071915 35.6715728753 710.2 348.04845071915 37.1715728753 711.7 348.04845071915 36.5975477267524 711.585819298767 348.04845071915 36.1109127035202 711.26066017178 348.04845071915 35.7857535765331 710.774025148548 348.04845071915 38.6715728753 710.2 348.04845071915 38.5573921740669 710.774025148548 348.04845071915 38.2322330470798 711.26066017178 348.04845071915 37.7455980238476 711.585819298767 348.04845071915 38.6715728753 689.2 348.04845071915 35.6715728753 689.2 348.04845071915 35.8201195734464 688.549174391324 348.04845071915 36.2363381725119 688.027252776298 348.04845071915 36.8377914743655 687.737608131727 348.04845071915 37.5053542762345 687.737608131727 348.04845071915 38.1068075780881 688.027252776298 348.04845071915 38.5230261771536 688.549174391324 348.04845071915 18.6715728753 689.2 348.04845071915 18.6715728753 681.75080966352 348.04845071915 20.736735017997 677.70275744654 348.04845071915 19.6284683609889 678.809159465696 348.04845071915 18.9168109164026 680.204123297697 348.04845071915 36.045510025567 666.60389556605 348.04845071915 41.915185740177 664.7 348.04845071915 39.8393631502558 664.917824343472 348.04845071915 37.8539734988974 665.561807884965 348.04845071915 65.6715728753 664.7 348.04845071915 70.6715728753 669.7 348.04845071915 70.2909705378564 667.786582838175 348.04845071915 69.2071067812327 666.164466094067 348.04845071915 67.5849900371255 665.080602337444 -22.5 28 -26.5 32 -22.5 19.95729174225 -21.5436193873701 18.958243520673 -22.4279989121926 19.584708840107 -22.2223639620615 19.2657786864695 -21.9127070298078 19.0464279173304 21.4563806126299 17.08082297561 22.5 18.07987119719 21.8522500479178 17.1439652704314 22.1915130557805 17.3575072351286 22.4196502204046 17.6871327701043 22.5 28 26.5 32 30 32 35 27 34.6193976625564 28.9134171618255 33.5355339059327 30.5355339059327 31.9134171618255 31.6193976625564 35 3.243612864877 33.0961044339399 -2.626062849733 34.138192115033 -0.817599376406207 34.7821756565278 1.16779027495402 21.99724255345 -17.934837857303 17.94919033648 -20 19.4958767023009 -19.754761958898 20.8908405343007 -19.0431045143134 10.5 -20 10.5 -3 12 -1.5 11.8858192987669 -2.07402514854763 11.5606601717798 -2.56066017177982 11.0740251485476 -2.88581929876693 10.5 0 11.0740251485476 -0.114180701233071 11.5606601717798 -0.439339828220181 11.8858192987669 -0.925974851452366 -10.5 0 -10.5 -3 -11.1508256086763 -2.85145330185363 -11.672747223702 -2.4352347027881 -11.9623918682727 -1.83378140093447 -11.9623918682727 -1.16621859906553 -11.672747223702 -0.564765297211899 -11.1508256086763 -0.148546698146372 -10.5 -20 -17.94919033648 -20 -21.9972425534601 -17.934837857303 -20.8908405343039 -19.0431045143111 -19.4958767023028 -19.7547619588974 -33.09610443395 -2.626062849733 -35 3.243612864877 -34.7821756565282 1.16779027495583 -34.1381921150346 -0.817599376402647 -35 27 -30 32 -31.9134171618255 31.6193976625564 -33.5355339059327 30.5355339059327 -34.6193976625564 28.9134171618254 33 25 24 33 28 25 33 29 28 32 33 24 47 48 49 47 49 50 31 32 24 52 53 54 52 54 51 40 47 46 40 48 47 40 41 48 21 30 31 42 51 48 21 37 30 42 48 41 21 31 24 39 40 46 43 52 51 23 21 22 43 51 42 44 52 43 20 37 21 20 21 23 8 4 38 8 34 35 8 35 36 8 36 37 8 38 34 8 37 20 10 8 20 11 10 20 12 11 20 7 6 52 5 52 6 5 55 52 16 9 12 16 13 9 4 7 52 4 44 45 4 45 38 16 12 20 4 52 44 15 14 13 15 13 16 19 15 16 3 55 5 18 16 17 18 19 16 56 57 58 56 58 59 56 59 55 24 25 26 24 26 27 1 56 55 1 55 3 1 2 56 
4 2 1 4.01900734914307e-014
328.04845071915 66.6715728753 677.2 348.04845071915 66.6715728753 677.2 348.04845071915 70.6715728753 673.2 328.04845071915 70.6715728753 673.2 -2.82842712474616 10 -2.82842712474616 -10 2.82842712474621 -10 2.82842712474621 10 4 1 2 4 2 3 
4 2 1 3.5527136788005e-015
328.04845071915 66.6715728753 677.2 328.04845071915 58.62886461755 677.2 348.04845071915 58.62886461755 677.2 348.04845071915 66.6715728753 677.2 -20 9 -20 0.95729174225 0 0.95729174225 0 9 3 1 2 4 1 3 
10 8 1 0.0181652602963199
328.04845071915 57.629816395976 678.15638061263 328.04845071915 58.62886461755 677.2 328.04845071915 57.7180007926304 677.787292970192 328.04845071915 57.9373515617696 677.477636037939 328.04845071915 58.2562817154071 677.272001087807 348.04845071915 58.62886461755 677.2 348.04845071915 57.629816395973 678.15638061263 348.04845071915 58.256281715407 677.272001087807 348.04845071915 57.9373515617695 677.477636037939 348.04845071915 57.7180007926304 677.787292970192 4.66875574907974 46.072 3.14159265358976 46.072 4.28696497520724 46.072 3.90517420133475 46.072 3.52338342746225 46.072 3.14159265358979 26.072 4.66875574907987 26.072 3.52338342746231 26.072 3.90517420133483 26.072 4.28696497520735 26.072 5 2 6 5 6 8 4 8 9 4 5 8 3 9 10 3 4 9 1 10 7 1 3 10 
4 2 1 1.63762602751591e-012
348.04845071915 55.75239585091 721.15638061263 348.04845071915 57.629816395973 678.15638061263 328.04845071915 57.629816395976 678.15638061263 328.04845071915 55.75239585091 721.15638061263 1.04461362807649 0 44.0855790900993 0 44.0855790900994 20 1.04461362807649 20 2 4 1 3 4 2 
10 8 1 0.0202933550287883
328.04845071915 56.75144407249 722.2 328.04845071915 55.75239585091 721.15638061263 328.04845071915 56.3587056454043 722.119650220405 328.04845071915 56.0290801104286 721.891513055781 328.04845071915 55.8155381457314 721.552250047918 348.04845071915 55.75239585091 721.15638061263 348.04845071915 56.75144407249 722.2 348.04845071915 55.8155381457314 721.552250047918 348.04845071915 56.0290801104286 721.891513055781 348.04845071915 56.3587056454043 722.119650220405 6.28318530717959 46.072 4.66875574908001 46.072 5.87957791765469 46.072 5.4759705281298 46.072 5.0723631386049 46.072 4.66875574908001 26.072 6.28318530717954 26.072 5.07236313860486 26.072 5.47597052812975 26.072 5.87957791765465 26.072 2 6 8 5 8 9 5 2 8 4 9 10 4 5 9 3 10 7 3 4 10 1 3 7 
4 2 1 0
348.04845071915 66.6715728753 722.2 348.04845071915 56.75144407249 722.2 328.04845071915 56.75144407249 722.2 328.04845071915 66.6715728753 722.2 0 -4 0 -13.92012880281 20 -13.92012880281 20 -4 3 1 2 4 1 3 
4 2 1 4.16746432553083e-014
328.04845071915 70.6715728753 726.2 348.04845071915 70.6715728753 726.2 348.04845071915 66.6715728753 722.2 328.04845071915 66.6715728753 722.2 -2.82842712474621 10 -2.82842712474621 -10 2.8284271247461 -10 2.8284271247461 10 1 2 3 4 1 3 
4 2 1 0
328.04845071915 70.6715728753 726.2 328.04845071915 70.6715728753 729.7 348.04845071915 70.6715728753 729.7 348.04845071915 70.6715728753 726.2 20 -8.5 20 -5 0 -5 0 -8.5 2 3 4 2 4 1 
10 8 1 0.0960735979838486
328.04845071915 65.6715728753 734.7 348.04845071915 65.6715728753 734.7 348.04845071915 70.6715728753 729.7 348.04845071915 67.5849900371255 734.319397662557 348.04845071915 69.2071067812327 733.235533905933 348.04845071915 70.2909705378564 731.613417161826 328.04845071915 70.6715728753 729.7 328.04845071915 70.2909705378564 731.613417161826 328.04845071915 69.2071067812327 733.235533905933 328.04845071915 67.5849900371255 734.319397662557 3.14159265358979 26.072 3.14159265358979 46.072 1.5707963267949 46.072 2.74889357189107 46.072 2.35619449019234 46.072 1.96349540849362 46.072 1.5707963267949 26.072 1.96349540849362 26.072 2.35619449019234 26.072 2.74889357189107 26.072 3 7 8 6 8 9 6 3 8 5 6 9 4 9 10 4 5 9 2 10 1 2 4 10 
4 2 1 1.77635683940025e-015
348.04845071915 41.915185740177 734.7 348.04845071915 65.6715728753 734.7 328.04845071915 65.6715728753 734.7 328.04845071915 41.915185740177 734.7 0 3.243612864877 0 27 -20 27 -20 3.243612864877 2 3 4 2 4 1 
8 6 1 0.0546051721105236
328.04845071915 36.045510025567 732.79610443394 348.04845071915 36.045510025567 732.79610443394 348.04845071915 41.915185740177 734.7 348.04845071915 37.8539734988938 733.838192115033 348.04845071915 39.839363150254 734.482175656528 328.04845071915 41.915185740177 734.7 328.04845071915 39.8393631502539 734.482175656528 328.04845071915 37.8539734988937 733.838192115033 3.76890084586593 26.072 3.76890084586593 46.072 3.14159265358977 46.072 3.55979811510715 46.072 3.35069538434846 46.072 3.14159265358979 26.072 3.35069538434848 26.072 3.55979811510716 26.072 5 3 6 5 6 7 4 7 8 4 5 7 2 8 1 2 4 8 
4 2 1 7.71560593193499e-012
328.04845071915 36.045510025567 732.79610443394 328.04845071915 20.736735017995 721.69724255345 348.04845071915 20.736735017997 721.69724255345 348.04845071915 36.045510025567 732.79610443394 21.4596257891919 20 2.55080966351511 20 2.5508096635167 0 21.4596257891919 0 1 2 3 1 3 4 
8 6 1 0.0616900768340078
328.04845071915 18.6715728753 717.64919033648 348.04845071915 18.6715728753 717.64919033648 348.04845071915 20.736735017997 721.69724255345 348.04845071915 18.916810916402 719.195876702301 348.04845071915 19.6284683609866 720.590840534301 328.04845071915 20.736735017995 721.69724255345 328.04845071915 19.6284683609859 720.5908405343 328.04845071915 18.9168109164018 719.1958767023 4.71238898038469 26.072 4.71238898038469 46.072 3.76890084586552 46.072 4.39789293554497 46.072 4.08339689070524 46.072 3.76890084586568 26.072 4.08339689070546 26.072 4.39789293554507 26.072 5 3 6 5 6 7 4 7 8 4 5 7 2 8 1 2 4 8 
4 2 1 5.37347943918576e-014
348.04845071915 18.6715728753 710.2 348.04845071915 18.6715728753 717.64919033648 328.04845071915 18.6715728753 717.64919033648 328.04845071915 18.6715728753 710.2 0 0 0 7.44919033648 -20 7.44919033648 -20 0 2 3 4 2 4 1 
4 2 1 0
328.04845071915 35.6715728753 710.2 348.04845071915 35.6715728753 710.2 348.04845071915 18.6715728753 710.2 328.04845071915 18.6715728753 710.2 20 0 0 0 0 -17 20 -17 1 2 3 1 3 4 
16 14 1 0.0376081317272926
328.04845071915 38.6715728753 689.2 348.04845071915 38.6715728753 689.2 348.04845071915 35.6715728753 689.2 348.04845071915 35.8201195734464 688.549174391324 348.04845071915 36.2363381725119 688.027252776298 348.04845071915 36.8377914743655 687.737608131727 348.04845071915 37.5053542762345 687.737608131727 348.04845071915 38.1068075780881 688.027252776298 348.04845071915 38.5230261771536 688.549174391324 328.04845071915 35.6715728753 689.2 328.04845071915 35.8201195734464 688.549174391324 328.04845071915 36.2363381725119 688.027252776298 328.04845071915 36.8377914743655 687.737608131727 328.04845071915 37.5053542762345 687.737608131727 328.04845071915 38.1068075780881 688.027252776298 328.04845071915 38.5230261771536 688.549174391324 1.5707963267949 20 1.5707963267949 0 4.71238898038469 0 4.26359002987186 0 3.81479107935903 0 3.36599212884621 0 2.91719317833338 0 2.46839422782055 0 2.01959527730772 0 4.71238898038469 20 4.26359002987186 20 3.81479107935903 20 3.36599212884621 20 2.91719317833338 20 2.46839422782055 20 2.01959527730772 20 16 1 2 16 2 9 15 9 8 15 16 9 14 8 7 14 15 8 13 7 6 13 14 7 12 6 5 12 13 6 11 5 4 11 12 5 10 4 3 10 11 4 
4 2 1 0
328.04845071915 18.6715728753 689.2 348.04845071915 18.6715728753 689.2 348.04845071915 35.6715728753 689.2 328.04845071915 35.6715728753 689.2 -20 0 0 0 0 17 -20 17 3 1 2 3 4 1 
4 2 1 5.28466159721575e-014
328.04845071915 18.6715728753 689.2 328.04845071915 18.6715728753 681.75080966352 348.04845071915 18.6715728753 681.75080966352 348.04845071915 18.6715728753 689.2 -20 10 -20 2.55080966352 0 2.55080966352 0 10 4 1 2 4 2 3 
8 6 1 0.0616900768336205
328.04845071915 20.736735017996 677.70275744654 348.04845071915 20.736735017997 677.70275744654 348.04845071915 18.6715728753 681.75080966352 348.04845071915 19.6284683609889 678.809159465696 348.04845071915 18.9168109164026 680.204123297697 328.04845071915 18.6715728753 681.75080966352 328.04845071915 18.9168109164025 680.204123297697 328.04845071915 19.6284683609886 678.809159465697 5.65587711490505 26.072 5.65587711490505 46.072 4.71238898038469 46.072 5.34138107006493 46.072 5.02688502522481 46.072 4.71238898038469 26.072 5.02688502522475 26.072 5.34138107006482 26.072 3 6 7 5 7 8 5 3 7 4 8 1 4 5 8 2 4 1 
4 2 1 9.20996612308045e-012
328.04845071915 20.736735017996 677.70275744654 328.04845071915 36.045510025566 666.60389556605 348.04845071915 36.045510025567 666.60389556605 348.04845071915 20.736735017997 677.70275744654 22.1524289905495 20 3.24361286487431 20 3.24361286487351 0 22.1524289905487 0 2 3 4 1 2 4 
8 6 1 0.0546051721090369
328.04845071915 41.915185740177 664.7 348.04845071915 41.915185740177 664.7 348.04845071915 36.045510025567 666.60389556605 348.04845071915 39.8393631502558 664.917824343472 348.04845071915 37.8539734988974 665.561807884965 328.04845071915 36.045510025566 666.60389556605 328.04845071915 37.8539734988969 665.561807884966 328.04845071915 39.8393631502556 664.917824343472 6.28318530717959 26.072 6.28318530717959 46.072 5.65587711490413 46.072 6.0740825764211 46.072 5.86497984566261 46.072 5.65587711490397 26.072 5.86497984566256 26.072 6.07408257642108 26.072 3 6 7 5 7 8 5 3 7 4 8 1 4 5 8 2 4 1 
4 2 1 1.77635683940025e-015
328.04845071915 41.915185740177 664.7 328.04845071915 65.6715728753 664.7 348.04845071915 65.6715728753 664.7 348.04845071915 41.915185740177 664.7 20 -28.756387135123 20 -5 0 -5 0 -28.756387135123 2 3 4 2 4 1 
10 8 1 0.0960735979838486
328.04845071915 65.6715728753 664.7 348.04845071915 65.6715728753 664.7 328.04845071915 70.6715728753 669.7 328.04845071915 67.5849900371255 665.080602337444 328.04845071915 69.2071067812327 666.164466094067 328.04845071915 70.2909705378564 667.786582838175 348.04845071915 70.6715728753 669.7 348.04845071915 70.2909705378564 667.786582838175 348.04845071915 69.2071067812327 666.164466094067 348.04845071915 67.5849900371255 665.080602337444 0 26.072 0 46.072 1.5707963267949 26.072 0.392699081698724 26.072 0.785398163397448 26.072 1.17809724509617 26.072 1.5707963267949 46.072 1.17809724509617 46.072 0.785398163397447 46.072 0.392699081698723 46.072 10 2 1 10 1 4 9 4 5 9 10 4 8 5 6 8 9 5 7 6 3 7 8 6 
4 2 1 0
348.04845071915 70.6715728753 673.2 348.04845071915 70.6715728753 669.7 328.04845071915 70.6715728753 669.7 328.04845071915 70.6715728753 673.2 0 -4 0 -7.5 20 -7.5 20 -4 4 1 2 4 2 3 

TShapes 196
Ve
1e-007
348.04845071915 38.6715728753 710.2
0 0

0101101
*
Ve
1e-007
328.04845071915 38.6715728753 710.2
0 0

0101101
*
Ed
 1e-007 1 1 0
1  1 0 0 20
2  1 1 0 0 20
4 G1 1 0 2 0
6  1 1 0
6  2 2 0
0

0101000
+196 0 -195 0 *
Ve
1e-007
328.04845071915 37.1715728753 711.7
0 0

0101101
*
Ed
 1e-007 1 1 0
1  2 0 4.71238898038469 6.28318530717959
2  2 1 0 4.71238898038469 6.28318530717959
4 C0 1 0 3 0
6  3 1 0
6  4 3 0
0

0101000
+195 0 -193 0 *
Ve
1e-007
348.04845071915 37.1715728753 711.7
0 0

0101101
*
Ed
 1e-007 1 1 0
1  3 0 0 20
2  3 1 0 0 20
2  4 4 0 0 20
4 CN 1 0 4 0
6  5 1 0
6  6 4 0
0

0101000
+191 0 -193 0 *
Ed
 1e-007 1 1 0
1  4 0 4.71238898038469 6.28318530717959
2  5 1 0 4.71238898038469 6.28318530717959
4 C0 1 0 5 0
6  7 1 0
6  8 5 0
0

0101000
+196 0 -191 0 *
Wi

0101100
+194 0 +192 0 -190 0 -189 0 *
Fa
0  1e-007 1 0
2  1
0101000
+188 0 *
Ve
1e-007
348.04845071915 66.6715728753 677.2
0 0

0101101
*
Ve
1e-007
348.04845071915 70.6715728753 673.2
0 0

0101101
*
Ed
 1e-007 1 1 0
1  5 0 0 5.65685424949238
4 C0 5 0 6 0
6  9 5 0
6  10 6 0
0

0101000
+186 0 -185 0 *
Ve
1e-007
348.04845071915 58.62886461755 677.2
0 0

0101101
*
Ed
 1e-007 1 1 0
1  6 0 19.95729174225 28
4 C0 5 0 7 0
6  11 5 0
6  12 7 0
0

0101000
+183 0 -186 0 *
Ve
1e-007
348.04845071915 57.629816395973 678.15638061263
0 0

0101101
*
Ed
 1e-007 1 1 0
1  7 0 3.14159265358979 4.66875574907987
2  6 8 0 3.14159265358979 4.66875574907987
4 C0 5 0 8 0
6  13 8 0
6  14 5 0
0

0101000
+183 0 -181 0 *
Ve
1e-007
348.04845071915 55.75239585091 721.15638061263
0 0

0101101
*
Ed
 1e-007 1 1 0
1  8 0 0 43.0409654620226
4 C0 5 0 9 0
6  15 5 0
6  16 9 0
0

0101000
+179 0 -181 0 *
Ve
1e-007
348.04845071915 56.75144407249 722.2
0 0

0101101
*
Ed
 1e-007 1 1 0
1  9 0 4.66875574908001 6.28318530717959
2  7 10 0 4.66875574908001 6.28318530717959
4 C0 5 0 10 0
6  17 10 0
6  18 5 0
0

0101000
+179 0 -177 0 *
Ve
1e-007
348.04845071915 66.6715728753 722.2
0 0

0101101
*
Ed
 1e-007 1 1 0
1  10 0 -28 -18.07987119719
4 C0 5 0 11 0
6  19 5 0
6  20 11 0
0

0101000
+175 0 -177 0 *
Ve
1e-007
348.04845071915 70.6715728753 726.2
0 0

0101101
*
Ed
 1e-007 1 1 0
1  11 0 -0 5.65685424949238
4 C0 5 0 12 0
6  21 5 0
6  22 12 0
0

0101000
+173 0 -175 0 *
Ve
1e-007
348.04845071915 70.6715728753 729.7
0 0

0101101
*
Ed
 1e-007 1 1 0
1  12 0 -30 -26.5
4 C0 5 0 13 0
6  23 5 0
6  24 13 0
0

0101000
+171 0 -173 0 *
Ve
1e-007
348.04845071915 65.6715728753 734.7
0 0

0101101
*
Ed
 1e-007 1 1 0
1  13 0 3.14159265358979 4.71238898038469
2  8 14 0 3.14159265358979 4.71238898038469
4 C0 5 0 14 0
6  25 14 0
6  26 5 0
0

0101000
+169 0 -171 0 *
Ve
1e-007
348.04845071915 41.915185740177 734.7
0 0

0101101
*
Ed
 1e-007 1 1 0
1  14 0 3.243612864877 27
4 C0 5 0 15 0
6  27 5 0
6  28 15 0
0

0101000
+167 0 -169 0 *
Ve
1e-007
348.04845071915 36.045510025567 732.79610443394
0 0

0101101
*
Ed
 1e-007 1 1 0
1  15 0 2.51428446131372 3.14159265358979
2  9 16 0 2.51428446131372 3.14159265358979
4 C0 5 0 16 0
6  29 16 0
6  30 5 0
0

0101000
+165 0 -167 0 *
Ve
1e-007
348.04845071915 20.736735017997 721.69724255345
0 0

0101101
*
Ed
 1e-007 1 1 0
1  16 0 -2.4304854117507e-012 18.9088161256727
4 C0 5 0 17 0
6  31 5 0
6  32 17 0
0

0101000
+163 0 -165 0 *
Ve
1e-007
348.04845071915 18.6715728753 717.64919033648
0 0

0101101
*
Ed
 1e-007 1 1 0
1  17 0 1.57079632679491 2.51428446131408
2  10 18 0 1.57079632679491 2.51428446131408
4 C0 5 0 18 0
6  33 18 0
6  34 5 0
0

0101000
+161 0 -163 0 *
Ve
1e-007
348.04845071915 18.6715728753 710.2
0 0

0101101
*
Ed
 1e-007 1 1 0
1  18 0 10.5 17.94919033648
4 C0 5 0 19 0
6  35 5 0
6  36 19 0
0

0101000
+159 0 -161 0 *
Ve
1e-007
348.04845071915 35.6715728753 710.2
0 0

0101101
*
Ed
 1e-007 1 1 0
1  19 0 3 20
4 C0 5 0 20 0
6  37 5 0
6  38 20 0
0

0101000
+157 0 -159 0 *
Ed
 1e-007 1 1 0
1  20 0 0 1.5707963267949
2  11 4 0 0 1.5707963267949
4 C0 5 0 4 0
6  39 4 0
6  40 5 0
0

0101000
+191 0 -157 0 *
Ve
1e-007
348.04845071915 38.6715728753 689.2
0 0

0101101
*
Ed
 1e-007 1 1 0
1  21 0 -10.5 10.5
4 C0 5 0 2 0
6  41 5 0
6  42 2 0
0

0101000
+154 0 -196 0 *
Ve
1e-007
348.04845071915 35.6715728753 689.2
0 0

0101101
*
Ed
 1e-007 1 1 0
1  22 0 1.5707963267949 4.71238898038469
2  12 21 0 1.5707963267949 4.71238898038469
4 C0 5 0 21 0
6  43 21 0
6  44 5 0
0

0101000
+152 0 -154 0 *
Ve
1e-007
348.04845071915 18.6715728753 689.2
0 0

0101101
*
Ed
 1e-007 1 1 0
1  23 0 -20 -3
4 C0 5 0 22 0
6  45 5 0
6  46 22 0
0

0101000
+150 0 -152 0 *
Ve
1e-007
348.04845071915 18.6715728753 681.75080966352
0 0

0101101
*
Ed
 1e-007 1 1 0
1  24 0 -17.94919033648 -10.5
4 C0 5 0 23 0
6  47 5 0
6  48 23 0
0

0101000
+148 0 -150 0 *
Ve
1e-007
348.04845071915 20.736735017997 677.70275744654
0 0

0101101
*
Ed
 1e-007 1 1 0
1  25 0 0.627308192274537 1.57079632679489
2  13 24 0 0.627308192274537 1.57079632679489
4 C0 5 0 24 0
6  49 24 0
6  50 5 0
0

0101000
+146 0 -148 0 *
Ve
1e-007
348.04845071915 36.045510025567 666.60389556605
0 0

0101101
*
Ed
 1e-007 1 1 0
1  26 0 -5.87228285992093e-012 18.9088161256693
4 C0 5 0 25 0
6  51 5 0
6  52 25 0
0

0101000
+144 0 -146 0 *
Ve
1e-007
348.04845071915 41.915185740177 664.7
0 0

0101101
*
Ed
 1e-007 1 1 0
1  27 0 0 0.627308192275458
2  14 26 0 0 0.627308192275458
4 C0 5 0 26 0
6  53 26 0
6  54 5 0
0

0101000
+142 0 -144 0 *
Ve
1e-007
348.04845071915 65.6715728753 664.7
0 0

0101101
*
Ed
 1e-007 1 1 0
1  28 0 -27 -3.243612864877
4 C0 5 0 27 0
6  55 5 0
6  56 27 0
0

0101000
+140 0 -142 0 *
Ve
1e-007
348.04845071915 70.6715728753 669.7
0 0

0101101
*
Ed
 1e-007 1 1 0
1  29 0 4.71238898038469 6.28318530717959
2  15 28 0 4.71238898038469 6.28318530717959
4 C0 5 0 28 0
6  57 28 0
6  58 5 0
0

0101000
+138 0 -140 0 *
Ed
 1e-007 1 1 0
1  30 0 26.5 30
4 C0 5 0 29 0
6  59 5 0
6  60 29 0
0

0101000
+185 0 -138 0 *
Wi

0101100
-184 0 -182 0 +180 0 -178 0 +176 0 -174 0 -172 0 -170 0 -168 0 -166 0 
-164 0 -162 0 -160 0 -158 0 -156 0 -155 0 -189 0 -153 0 -151 0 -149 0 
-147 0 -145 0 -143 0 -141 0 -139 0 -137 0 -136 0 *
Fa
0  1e-007 5 0
2  5
0101000
-135 0 *
Ve
1e-007
328.04845071915 70.6715728753 669.7
0 0

0101101
*
Ed
 1e-007 1 1 0
1  31 0 0 20
2  16 28 0 0 20
4 G1 29 0 28 0
6  61 28 0
6  62 29 0
0

0101000
+138 0 -133 0 *
Ve
1e-007
328.04845071915 70.6715728753 673.2
0 0

0101101
*
Ed
 1e-007 1 1 0
1  32 0 -7.5 -4
4 C0 29 0 3 0
6  63 29 0
6  64 3 0
0

0101000
+133 0 -131 0 *
Ed
 1e-007 1 1 0
1  33 0 -20 0
4 C0 29 0 6 0
6  65 29 0
6  66 6 0
0

0101000
+131 0 -185 0 *
Wi

0101100
+136 0 +132 0 +130 0 +129 0 *
Fa
0  1e-007 29 0
2  29
0101000
+128 0 *
Ve
1e-007
328.04845071915 66.6715728753 677.2
0 0

0101101
*
Ed
 1e-007 1 1 0
1  34 0 -10 10
4 C0 6 0 7 0
6  67 6 0
6  68 7 0
0

0101000
+126 0 -186 0 *
Ed
 1e-007 1 1 0
1  35 0 -2.82842712474619 2.82842712474619
4 C0 6 0 3 0
6  69 6 0
6  70 3 0
0

0101000
+131 0 -126 0 *
Wi

0101100
+125 0 +184 0 -129 0 +124 0 *
Fa
0  1e-007 6 0
2  6
0101000
+123 0 *
Ve
1e-007
328.04845071915 58.62886461755 677.2
0 0

0101101
*
Ed
 1e-007 1 1 0
1  36 0 -9 -0.95729174225
4 C0 7 0 3 0
6  71 7 0
6  72 3 0
0

0101000
+126 0 -121 0 *
Ed
 1e-007 1 1 0
1  37 0 -20 0
2  17 8 0 -20 0
4 C1 7 0 8 0
6  73 8 0
6  74 7 0
0

0101000
+121 0 -183 0 *
Wi

0101100
+120 0 +119 0 +182 0 -125 0 *
Fa
0  1e-007 7 0
2  7
0101000
+118 0 *
Ve
1e-007
328.04845071915 57.629816395976 678.15638061263
0 0

0101101
*
Ed
 1e-007 1 1 0
1  38 0 0 20
2  18 8 0 0 20
4 C1 9 0 8 0
6  75 8 0
6  76 9 0
0

0101000
+181 0 -116 0 *
Ve
1e-007
328.04845071915 55.75239585091 721.15638061263
0 0

0101101
*
Ed
 1e-007 1 1 0
1  39 0 -44.0855790900993 -1.04461362807658
4 C0 9 0 3 0
6  77 9 0
6  78 3 0
0

0101000
+116 0 -114 0 *
Ed
 1e-007 1 1 0
1  40 0 -20 0
2  19 10 0 -20 0
4 C1 9 0 10 0
6  79 10 0
6  80 9 0
0

0101000
+114 0 -179 0 *
Wi

0101100
+178 0 +115 0 +113 0 +112 0 *
Fa
0  1e-007 9 0
2  9
0101000
+111 0 *
Ve
1e-007
328.04845071915 56.75144407249 722.2
0 0

0101101
*
Ed
 1e-007 1 1 0
1  41 0 0 20
2  20 10 0 0 20
4 C1 11 0 10 0
6  81 10 0
6  82 11 0
0

0101000
+177 0 -109 0 *
Ve
1e-007
328.04845071915 66.6715728753 722.2
0 0

0101101
*
Ed
 1e-007 1 1 0
1  42 0 -13.92012880281 -4
4 C0 11 0 3 0
6  83 11 0
6  84 3 0
0

0101000
+109 0 -107 0 *
Ed
 1e-007 1 1 0
1  43 0 -20 0
4 C0 11 0 12 0
6  85 11 0
6  86 12 0
0

0101000
+107 0 -175 0 *
Wi

0101100
+174 0 +108 0 +106 0 +105 0 *
Fa
0  1e-007 11 0
2  11
0101000
+104 0 *
Ve
1e-007
328.04845071915 70.6715728753 726.2
0 0

0101101
*
Ed
 1e-007 1 1 0
1  44 0 -10 10
4 C0 12 0 13 0
6  87 12 0
6  88 13 0
0

0101000
+102 0 -173 0 *
Ed
 1e-007 1 1 0
1  45 0 -2.82842712474619 2.82842712474619
4 C0 12 0 3 0
6  89 12 0
6  90 3 0
0

0101000
+107 0 -102 0 *
Wi

0101100
+101 0 +172 0 -105 0 +100 0 *
Fa
0  1e-007 12 0
2  12
0101000
+99 0 *
Ve
1e-007
328.04845071915 70.6715728753 729.7
0 0

0101101
*
Ed
 1e-007 1 1 0
1  46 0 -8.5 -5
4 C0 13 0 3 0
6  91 13 0
6  92 3 0
0

0101000
+102 0 -97 0 *
Ed
 1e-007 1 1 0
1  47 0 -20 0
2  21 14 0 -20 0
4 G1 13 0 14 0
6  93 14 0
6  94 13 0
0

0101000
+97 0 -171 0 *
Wi

0101100
+96 0 +95 0 +170 0 -101 0 *
Fa
0  1e-007 13 0
2  13
0101000
+94 0 *
Ve
1e-007
328.04845071915 65.6715728753 734.7
0 0

0101101
*
Ed
 1e-007 1 1 0
1  48 0 26.072 46.072
2  22 14 0 26.072 46.072
4 G1 14 0 15 0
6  95 14 0
6  96 15 0
0

0101000
+92 0 -169 0 *
Ed
 1e-007 1 1 0
1  49 0 1.5707963267949 3.14159265358979
2  23 14 0 1.5707963267949 3.14159265358979
4 C0 14 0 3 0
6  97 14 0
6  98 3 0
0

0101000
+97 0 -92 0 *
Wi

0101100
+91 0 +168 0 -95 0 +90 0 *
Fa
0  1e-007 14 0
2  14
0101000
+89 0 *
Ve
1e-007
328.04845071915 41.915185740177 734.7
0 0

0101101
*
Ed
 1e-007 1 1 0
1  50 0 -27 -3.243612864877
4 C0 15 0 3 0
6  99 15 0
6  100 3 0
0

0101000
+92 0 -87 0 *
Ed
 1e-007 1 1 0
1  51 0 -20 0
2  24 16 0 -20 0
4 G1 15 0 16 0
6  101 16 0
6  102 15 0
0

0101000
+87 0 -167 0 *
Wi

0101100
+166 0 -91 0 +86 0 +85 0 *
Fa
0  1e-007 15 0
2  15
0101000
+84 0 *
Ve
1e-007
328.04845071915 36.045510025567 732.79610443394
0 0

0101101
*
Ed
 1e-007 1 1 0
1  52 0 26.072 46.072
2  25 16 0 26.072 46.072
4 G1 16 0 17 0
6  103 16 0
6  104 17 0
0

0101000
+82 0 -165 0 *
Ed
 1e-007 1 1 0
1  53 0 3.14159265358979 3.76890084586585
2  26 16 0 3.14159265358979 3.76890084586585
4 C0 16 0 3 0
6  105 16 0
6  106 3 0
0

0101000
+87 0 -82 0 *
Wi

0101100
+81 0 +164 0 -85 0 +80 0 *
Fa
0  1e-007 16 0
2  16
0101000
+79 0 *
Ve
1e-007
328.04845071915 20.736735017995 721.69724255345
0 0

0101101
*
Ed
 1e-007 1 1 0
1  54 0 -21.4596257891919 -2.55080966351508
4 C0 17 0 3 0
6  107 17 0
6  108 3 0
0

0101000
+82 0 -77 0 *
Ed
 1e-007 1 1 0
1  55 0 -20 0
2  27 18 0 -20 0
4 G1 17 0 18 0
6  109 18 0
6  110 17 0
0

0101000
+77 0 -163 0 *
Wi

0101100
+76 0 +75 0 +162 0 -81 0 *
Fa
0  1e-007 17 0
2  17
0101000
+74 0 *
Ve
1e-007
328.04845071915 18.6715728753 717.64919033648
0 0

0101101
*
Ed
 1e-007 1 1 0
1  56 0 26.072 46.072
2  28 18 0 26.072 46.072
4 G1 18 0 19 0
6  111 18 0
6  112 19 0
0

0101000
+72 0 -161 0 *
Ed
 1e-007 1 1 0
1  57 0 3.76890084586585 4.71238898038469
2  29 18 0 3.76890084586585 4.71238898038469
4 C0 18 0 3 0
6  113 18 0
6  114 3 0
0

0101000
+77 0 -72 0 *
Wi

0101100
+71 0 +160 0 -75 0 +70 0 *
Fa
0  1e-007 18 0
2  18
0101000
+69 0 *
Ve
1e-007
328.04845071915 18.6715728753 710.2
0 0

0101101
*
Ed
 1e-007 1 1 0
1  58 0 -7.44919033648 -0
4 C0 19 0 3 0
6  115 19 0
6  116 3 0
0

0101000
+72 0 -67 0 *
Ed
 1e-007 1 1 0
1  59 0 -20 0
4 C0 19 0 20 0
6  117 19 0
6  118 20 0
0

0101000
+67 0 -159 0 *
Wi

0101100
+158 0 -71 0 +66 0 +65 0 *
Fa
0  1e-007 19 0
2  19
0101000
+64 0 *
Ve
1e-007
328.04845071915 35.6715728753 710.2
0 0

0101101
*
Ed
 1e-007 1 1 0
1  60 0 -20 0
2  30 4 0 -20 0
4 C0 20 0 4 0
6  119 4 0
6  120 20 0
0

0101000
+62 0 -157 0 *
Ed
 1e-007 1 1 0
1  61 0 -17 0
4 C0 20 0 3 0
6  121 20 0
6  122 3 0
0

0101000
+67 0 -62 0 *
Wi

0101100
+61 0 +156 0 -65 0 +60 0 *
Fa
0  1e-007 20 0
2  20
0101000
+59 0 *
Ed
 1e-007 1 1 0
1  62 0 0 1.5707963267949
2  31 4 0 0 1.5707963267949
4 C0 4 0 3 0
6  123 4 0
6  124 3 0
0

0101000
+193 0 -62 0 *
Wi

0101100
+57 0 +61 0 -155 0 +190 0 *
Fa
0  1e-007 4 0
2  4
0101000
+56 0 *
Ve
1e-007
328.04845071915 38.6715728753 689.2
0 0

0101101
*
Ed
 1e-007 1 1 0
1  63 0 -20 0
2  32 21 0 -20 0
4 G1 2 0 21 0
6  125 21 0
6  126 2 0
0

0101000
+54 0 -154 0 *
Ed
 1e-007 1 1 0
1  64 0 -21 -0
4 C0 2 0 3 0
6  127 2 0
6  128 3 0
0

0101000
+195 0 -54 0 *
Wi

0101100
+53 0 +153 0 +194 0 +52 0 *
Fa
0  1e-007 2 0
2  2
0101000
+51 0 *
Ve
1e-007
328.04845071915 35.6715728753 689.2
0 0

0101101
*
Ed
 1e-007 1 1 0
1  65 0 0 20
2  33 21 0 0 20
4 C0 21 0 22 0
6  129 21 0
6  130 22 0
0

0101000
+152 0 -49 0 *
Ed
 1e-007 1 1 0
1  66 0 1.5707963267949 4.71238898038469
2  34 21 0 1.5707963267949 4.71238898038469
4 C0 21 0 3 0
6  131 21 0
6  132 3 0
0

0101000
+49 0 -54 0 *
Wi

0101100
+53 0 -151 0 +48 0 +47 0 *
Fa
0  1e-007 21 0
2  21
0101000
+46 0 *
Ve
1e-007
328.04845071915 18.6715728753 689.2
0 0

0101101
*
Ed
 1e-007 1 1 0
1  67 0 -20 0
4 C0 22 0 23 0
6  133 22 0
6  134 23 0
0

0101000
+44 0 -150 0 *
Ed
 1e-007 1 1 0
1  68 0 -17 -0
4 C0 22 0 3 0
6  135 22 0
6  136 3 0
0

0101000
+49 0 -44 0 *
Wi

0101100
+43 0 +149 0 +48 0 +42 0 *
Fa
0  1e-007 22 0
2  22
0101000
+41 0 *
Ve
1e-007
328.04845071915 18.6715728753 681.75080966352
0 0

0101101
*
Ed
 1e-007 1 1 0
1  69 0 -10 -2.55080966352
4 C0 23 0 3 0
6  137 23 0
6  138 3 0
0

0101000
+44 0 -39 0 *
Ed
 1e-007 1 1 0
1  70 0 -20 0
2  35 24 0 -20 0
4 G1 23 0 24 0
6  139 24 0
6  140 23 0
0

0101000
+39 0 -148 0 *
Wi

0101100
+38 0 +37 0 +147 0 -43 0 *
Fa
0  1e-007 23 0
2  23
0101000
+36 0 *
Ve
1e-007
328.04845071915 20.736735017996 677.70275744654
0 0

0101101
*
Ed
 1e-007 1 1 0
1  71 0 26.072 46.072
2  36 24 0 26.072 46.072
4 G1 24 0 25 0
6  141 24 0
6  142 25 0
0

0101000
+34 0 -146 0 *
Ed
 1e-007 1 1 0
1  72 0 4.71238898038469 5.65587711490488
2  37 24 0 4.71238898038469 5.65587711490488
4 C0 24 0 3 0
6  143 24 0
6  144 3 0
0

0101000
+39 0 -34 0 *
Wi

0101100
+33 0 +145 0 -37 0 +32 0 *
Fa
0  1e-007 24 0
2  24
0101000
+31 0 *
Ve
1e-007
328.04845071915 36.045510025566 666.60389556605
0 0

0101101
*
Ed
 1e-007 1 1 0
1  73 0 -22.1524289905494 -3.24361286487426
4 C0 25 0 3 0
6  145 25 0
6  146 3 0
0

0101000
+34 0 -29 0 *
Ed
 1e-007 1 1 0
1  74 0 -20 0
2  38 26 0 -20 0
4 G1 25 0 26 0
6  147 26 0
6  148 25 0
0

0101000
+29 0 -144 0 *
Wi

0101100
+28 0 +27 0 +143 0 -33 0 *
Fa
0  1e-007 25 0
2  25
0101000
+26 0 *
Ve
1e-007
328.04845071915 41.915185740177 664.7
0 0

0101101
*
Ed
 1e-007 1 1 0
1  75 0 26.072 46.072
2  39 26 0 26.072 46.072
4 G1 26 0 27 0
6  149 26 0
6  150 27 0
0

0101000
+24 0 -142 0 *
Ed
 1e-007 1 1 0
1  76 0 5.65587711490405 6.28318530717959
2  40 26 0 5.65587711490405 6.28318530717959
4 C0 26 0 3 0
6  151 26 0
6  152 3 0
0

0101000
+29 0 -24 0 *
Wi

0101100
+23 0 +141 0 -27 0 +22 0 *
Fa
0  1e-007 26 0
2  26
0101000
+21 0 *
Ve
1e-007
328.04845071915 65.6715728753 664.7
0 0

0101101
*
Ed
 1e-007 1 1 0
1  77 0 -28.756387135123 -5
4 C0 27 0 3 0
6  153 27 0
6  154 3 0
0

0101000
+24 0 -19 0 *
Ed
 1e-007 1 1 0
1  78 0 -20 0
2  41 28 0 -20 0
4 G1 27 0 28 0
6  155 28 0
6  156 27 0
0

0101000
+19 0 -140 0 *
Wi

0101100
+18 0 +17 0 +139 0 -23 0 *
Fa
0  1e-007 27 0
2  27
0101000
+16 0 *
Ed
 1e-007 1 1 0
1  79 0 0 1.5707963267949
2  42 28 0 0 1.5707963267949
4 C0 28 0 3 0
6  157 28 0
6  158 3 0
0

0101000
+19 0 -133 0 *
Wi

0101100
-17 0 +14 0 -132 0 +137 0 *
Fa
0  1e-007 28 0
2  28
0101000
+13 0 *
Ed
 1e-007 1 1 0
1  80 0 0 1.61442955809958
2  43 10 0 0 1.61442955809958
4 C0 3 0 10 0
6  159 10 0
6  160 3 0
0

0101000
+109 0 -114 0 *
Ed
 1e-007 1 1 0
1  81 0 1.61442955809982 3.14159265358979
2  44 8 0 1.61442955809982 3.14159265358979
4 C0 3 0 8 0
6  161 8 0
6  162 3 0
0

0101000
+116 0 -121 0 *
Wi

0101100
-130 0 -14 0 -18 0 -22 0 -28 0 -32 0 -38 0 -42 0 +47 0 -52 0 
+192 0 +57 0 -60 0 -66 0 -70 0 -76 0 -80 0 -86 0 -90 0 -96 0 
-100 0 -106 0 +11 0 -113 0 +10 0 -120 0 -124 0 *
Fa
0  1e-007 3 0
2  3
0101000
+9 0 *
Wi

0101100
+10 0 +119 0 +180 0 +115 0 *
Fa
0  1e-007 8 0
2  8
0101000
+7 0 *
Wi

0101100
+11 0 +112 0 +176 0 +108 0 *
Fa
0  1e-007 10 0
2  10
0101000
+5 0 *
Sh

0101100
-187 0 -134 0 +127 0 +122 0 +117 0 +110 0 +103 0 +98 0 +93 0 +88 0 
+83 0 +78 0 +73 0 +68 0 +63 0 +58 0 -55 0 +50 0 -45 0 +40 0 
+35 0 +30 0 +25 0 +20 0 +15 0 +12 0 +8 0 -6 0 -4 0 *
So

0100000
+3 0 *
Co

1100000
+2 3 *

+1 0 