DBRep_DrawableShape

CASCADE Topology V1, (c) Matra-Datavision
Locations 5
1
              1 3.08148791101958e-033               0              -0 
-3.08148791101958e-033               1 -1.39285483311201e-034              -0 
-4.29206533003985e-067 1.39285483311201e-034               1              -0 
1
             -1 2.62841630796549e-017 1.11022302462516e-016            2525 
2.62841630796549e-017               1 2.40741243048404e-035            4185 
-1.11022302462516e-016 2.94220242770838e-033              -1            3655 
1
              1               0               0              -0 
              0               1               0              -0 
              0               0               1              -0 
1
              1               0               0 -1.24721424065516e-026 
              0               1               0 1049.58055199264 
              0               0               1 9777.11452824737 
2  1 1 2 1 3 1 4 1 0
Curve2ds 16
1 1.5707963267948859 0 0 1 
1 3.1415926535897931 3470 -1 0 
1 0.091575023269477293 0 0 1 
1 3.1415926535897931 0 -1 0 
1 3.2331676768593582 0 0 1 
1 3.1415926535897931 0 1 0 
1 4.7123889803846781 0 0 1 
1 3.1415926535897931 3470 1 0 
1 4.7123889803846799 0 0 1 
1 0 0 1 0 
1 6.1916102839100731 0 0 1 
1 0 3470 1 0 
1 3.0500176303203133 0 0 1 
1 6.2831853071795862 3470 -1 0 
1 1.5707963267948839 0 0 1 
1 6.2831853071795862 0 -1 0 
Curves 36
1 100.00000000000054 2127.4999999999991 3660 -1 8.8817841970012523e-015 0 
1 5.134781488891349e-013 2127.5 189.99999999999994 -0 -0 1 
1 100.00000000000054 2127.4999999999991 189.99999999999994 -1 8.8817841970012523e-015 0 
1 100.00000000000054 2127.4999999999991 189.99999999999994 -0 -0 1 
1 1.0477729794899915e-012 2177.4999999999995 3660 1.068589661201717e-014 1 -0 
1 1.0477729794899915e-012 2177.4999999999995 189.99999999999994 -0 -0 1 
1 1.0477729794899915e-012 2177.4999999999995 189.99999999999994 1.068589661201717e-014 1 -0 
1 1.0477729794899915e-012 2177.4999999999995 3660 1 0 0 
1 2.0985121031346572 2177.4999999999995 189.99999999999994 -0 -0 1 
1 1.0477729794899915e-012 2177.4999999999995 189.99999999999994 1 0 0 
2 2.0985121031346088 2173 3660 0 0 -1 -1 0 0 0 1 0 4.4999999999998535
1 6.5796568193431586 2173.4115118860932 189.99999999999994 -0 -0 1 
2 2.0985121031346088 2173 189.99999999999994 0 0 -1 -1 0 0 0 1 0 4.4999999999998535
1 9.5356155360511732 2141.2226997707121 3660 0.09144708579853407 -0.99580993693523445 -0 
1 9.535615536051111 2141.2226997707121 189.99999999999994 -0 -0 1 
1 9.5356155360511732 2141.2226997707121 189.99999999999994 0.09144708579853407 -0.99580993693523445 -0 
2 18.000000000000675 2142 189.99999999999994 -0 -0 1 -1 0 0 -0 -1 -0 8.5000000000001084
1 18.000000000000579 2133.4999999999995 189.99999999999994 -0 -0 1 
2 18.000000000000675 2142 3660 -0 -0 1 -1 0 0 -0 -1 -0 8.5000000000001084
1 82.000000000000568 2133.4999999999991 3660 1 -6.93889390390723e-015 -0 
1 82.000000000000568 2133.4999999999991 189.99999999999994 -0 -0 1 
1 82.000000000000568 2133.4999999999991 189.99999999999994 1 -6.93889390390723e-015 -0 
2 82.000000000000654 2141.9999999999991 189.99999999999994 -0 0 1 1 0 0 0 1 -0 8.4999999999998543
1 90.46438446395014 2141.2226997707116 189.99999999999994 -0 -0 1 
2 82.000000000000654 2141.9999999999991 3660 -0 0 1 1 0 0 0 1 -0 8.4999999999998543
1 90.46438446395014 2141.2226997707116 3660 0.091447085798556385 0.99580993693523234 0 
1 93.420343180658946 2173.4115118860923 189.99999999999994 -0 -0 1 
1 90.46438446395014 2141.2226997707116 189.99999999999994 0.091447085798556385 0.99580993693523234 0 
2 97.901487896867366 2172.9999999999991 3660 0 -0 -1 1 0 0 0 -1 0 4.4999999999998375
1 97.901487896867422 2177.4999999999991 189.99999999999994 -0 -0 1 
2 97.901487896867366 2172.9999999999991 189.99999999999994 0 -0 -1 1 0 0 0 -1 0 4.4999999999998375
1 100.00000000000107 2177.4999999999991 3660 1 -0 -0 
1 100.00000000000107 2177.4999999999991 189.99999999999994 -0 -0 1 
1 100.00000000000107 2177.4999999999991 189.99999999999994 1 -0 -0 
1 100.00000000000107 2177.4999999999991 3660 -1.0547118733939025e-014 -1 0 
1 100.00000000000107 2177.4999999999991 189.99999999999994 -1.0547118733939025e-014 -1 0 
Polygon3D 0
PolygonOnTriangulations 72
2 1 2 
p 98.3634713735165 1 0 100 
2 1 2 
p 98.3634713735165 1 0 100 
2 3 2 
p 98.3634713735165 1 0 3470 
2 4 1 
p 98.3634713735165 1 0 3470 
2 4 3 
p 98.3634713735165 1 0 100 
2 1 2 
p 98.3634713735165 1 0 100 
2 4 1 
p 98.3634713735165 1 0 3470 
2 3 2 
p 98.3634713735165 1 0 3470 
2 1 2 
p 98.3634713735165 1 -49.9999999999995 0 
2 2 20 
p 98.3634713735165 1 -49.9999999999995 0 
2 3 2 
p 98.3634713735165 1 0 3470 
2 4 1 
p 98.3634713735165 1 0 3470 
2 4 3 
p 98.3634713735165 1 -49.9999999999995 0 
2 2 3 
p 98.3634713735165 1 -49.9999999999995 0 
2 1 2 
p 98.3634713735165 1 0 2.09851210313361 
2 20 17 
p 98.3634713735165 1 0 2.09851210313361 
2 6 1 
p 98.3634713735165 1 0 3470 
2 3 2 
p 98.3634713735165 1 0 3470 
2 4 3 
p 98.3634713735165 1 0 2.09851210313361 
2 3 4 
p 98.3634713735165 1 0 2.09851210313361 
4 1 3 4 2 
p 98.3634713735165 1 1.57079632679491 2.06387009463671 2.55694386247851 3.05001763032032 
4 17 18 19 16 
p 98.3634713735165 1 1.57079632679491 2.06387009463671 2.55694386247851 3.05001763032032 
2 5 2 
p 98.3634713735165 1 0 3470 
2 4 1 
p 98.3634713735165 1 0 3470 
4 6 7 8 5 
p 98.3634713735165 1 1.57079632679491 2.06387009463671 2.55694386247851 3.05001763032032 
4 4 6 7 5 
p 98.3634713735165 1 1.57079632679491 2.06387009463671 2.55694386247851 3.05001763032032 
2 1 2 
p 98.3634713735165 1 -32.3242527730215 -5.68549297055066e-015 
2 16 13 
p 98.3634713735165 1 -32.3242527730215 -5.68549297055066e-015 
2 1 2 
p 98.3634713735165 1 0 3470 
2 3 2 
p 98.3634713735165 1 0 3470 
2 4 3 
p 98.3634713735165 1 -32.3242527730215 -5.68549297055066e-015 
2 5 8 
p 98.3634713735165 1 -32.3242527730215 -5.68549297055066e-015 
4 1 4 5 3 
p 98.3634713735165 1 0.0915750232695652 0.584648791111339 1.07772255895311 1.57079632679489 
4 8 10 11 9 
p 98.3634713735165 1 0.0915750232695652 0.584648791111339 1.07772255895311 1.57079632679489 
2 3 6 
p 98.3634713735165 1 0 3470 
2 4 1 
p 98.3634713735165 1 0 3470 
4 2 7 8 6 
p 98.3634713735165 1 0.0915750232695652 0.584648791111339 1.07772255895311 1.57079632679489 
4 13 14 15 12 
p 98.3634713735165 1 0.0915750232695652 0.584648791111339 1.07772255895311 1.57079632679489 
2 1 2 
p 98.3634713735165 1 -64 0 
2 12 9 
p 98.3634713735165 1 -64 0 
2 1 2 
p 98.3634713735165 1 0 3470 
2 3 2 
p 98.3634713735165 1 0 3470 
2 4 3 
p 98.3634713735165 1 -64 0 
2 9 12 
p 98.3634713735165 1 -64 0 
4 1 4 5 3 
p 98.3634713735165 1 4.71238898038468 5.20546274822648 5.69853651606828 6.19161028391007 
4 12 14 15 13 
p 98.3634713735165 1 4.71238898038468 5.20546274822648 5.69853651606828 6.19161028391007 
2 3 6 
p 98.3634713735165 1 0 3470 
2 4 1 
p 98.3634713735165 1 0 3470 
4 2 7 8 6 
p 98.3634713735165 1 4.71238898038468 5.20546274822648 5.69853651606828 6.19161028391007 
4 9 10 11 8 
p 98.3634713735165 1 4.71238898038468 5.20546274822648 5.69853651606828 6.19161028391007 
2 1 2 
p 98.3634713735165 1 0 32.3242527730211 
2 8 5 
p 98.3634713735165 1 0 32.3242527730211 
2 6 1 
p 98.3634713735165 1 0 3470 
2 3 2 
p 98.3634713735165 1 0 3470 
2 4 3 
p 98.3634713735165 1 0 32.3242527730211 
2 13 16 
p 98.3634713735165 1 0 32.3242527730211 
4 1 3 4 2 
p 98.3634713735165 1 3.23316767685927 3.72624144470108 4.21931521254289 4.7123889803847 
4 5 6 7 4 
p 98.3634713735165 1 3.23316767685927 3.72624144470108 4.21931521254289 4.7123889803847 
2 5 2 
p 98.3634713735165 1 0 3470 
2 4 1 
p 98.3634713735165 1 0 3470 
4 6 7 8 5 
p 98.3634713735165 1 3.23316767685927 3.72624144470108 4.21931521254289 4.7123889803847 
4 16 18 19 17 
p 98.3634713735165 1 3.23316767685927 3.72624144470108 4.21931521254289 4.7123889803847 
2 1 2 
p 98.3634713735165 1 -2.09851210313364 0 
2 4 3 
p 98.3634713735165 1 -2.09851210313364 0 
2 3 2 
p 98.3634713735165 1 0 3470 
2 4 1 
p 98.3634713735165 1 0 3470 
2 4 3 
p 98.3634713735165 1 -2.09851210313364 0 
2 17 20 
p 98.3634713735165 1 -2.09851210313364 0 
2 1 2 
p 98.3634713735165 1 0 50 
2 3 1 
p 98.3634713735165 1 0 50 
2 4 3 
p 98.3634713735165 1 0 50 
2 20 1 
p 98.3634713735165 1 0 50 
Surfaces 14
1 100.00000000000054 2127.4999999999991 189.99999999999994 8.8817841970012539e-015 1 0 -1 8.8817841970012539e-015 0 0 -0 1 
1 2.0985121031346088 2173 3660 0 0 -1 -1 0 -0 0 1 0 
1 1.0477729794899915e-012 2177.4999999999995 189.99999999999994 1 -1.0685896612017171e-014 0 1.0685896612017171e-014 1 0 -0 0 1 
1 2.0985121031346088 2173 189.99999999999994 0 0 -1 -1 0 -0 0 1 0 
1 100.00000000000107 2177.4999999999991 189.99999999999994 -1 1.0547118733939027e-014 0 -1.0547118733939027e-014 -1 0 0 0 1 
1 1.0477729794899915e-012 2177.4999999999995 189.99999999999994 0 -1 0 0 -0 -1 1 0 0 
2 2.0985121031346088 2173 189.99999999999994 -0 -0 1 1 0 0 -0 1 0 4.4999999999998535
1 9.5356155360511732 2141.2226997707121 189.99999999999994 -0.99580993693523445 -0.09144708579853407 0 0.09144708579853407 -0.99580993693523445 0 0 0 1 
2 18.000000000000675 2142 189.99999999999994 -0 -0 1 1 0 0 -0 1 0 8.5000000000001084
1 82.000000000000568 2133.4999999999991 189.99999999999994 -6.93889390390723e-015 -1 0 1 -6.93889390390723e-015 0 0 0 1 
2 82.000000000000654 2141.9999999999991 189.99999999999994 -0 -0 1 1 0 0 -0 1 0 8.4999999999998543
1 90.46438446395014 2141.2226997707116 189.99999999999994 0.99580993693523245 -0.091447085798556385 0 0.091447085798556385 0.99580993693523245 0 -0 0 1 
2 97.901487896867366 2172.9999999999991 189.99999999999994 -0 -0 1 1 0 0 -0 1 0 4.4999999999998375
1 100.00000000000107 2177.4999999999991 189.99999999999994 0 -1 -0 0 0 -1 1 0 0 
Triangulations 14
4 2 1 1.51582450295488e-013
100.000000000001 2127.5 3660 5.13478148889135e-013 2127.5 3660 5.13478148889135e-013 2127.5 190 100.000000000001 2127.5 190 0 3470 100 3470 100 0 0 0 2 4 3 2 1 4 
20 18 1 2.26929586233382e-013
100.000000000001 2127.5 3660 5.13478148889135e-013 2127.5 3660 100.000000000001 2177.5 3660 97.9014878968674 2177.5 3660 93.4203431806589 2173.41151188609 3660 94.1489110237844 2175.48357943533 3660 95.7714770352745 2176.96396944104 3660 90.4643844639501 2141.22269977071 3660 82.0000000000006 2133.5 3660 86.023353849676 2134.51250216692 3660 89.0882007602685 2137.30879439993 3660 18.0000000000006 2133.5 3660 9.53561553605111 2141.22269977071 3660 10.9117992397328 2137.30879439993 3660 13.9766461503252 2134.51250216693 3660 6.57965681934316 2173.41151188609 3660 2.09851210313466 2177.5 3660 4.22852296472752 2176.96396944104 3660 5.85108897621758 2175.48357943533 3660 1.04777297948999e-012 2177.5 3660 -97.9014878968659 -45.5000000000009 2.0985121031341 -45.5 -97.9014878968665 4.49999999999909 -95.8029757937328 4.49999999999909 -91.3218310775243 0.411511886092285 -92.0503989206498 2.48357943533061 -93.6729649321399 3.96396944103861 -88.3658723608155 -31.7773002292884 -79.901487896866 -39.5000000000009 -83.9248417465414 -38.4874978330757 -86.9896886571339 -35.6912056000718 -15.901487896866 -39.5000000000005 -7.4371034329165 -31.7773002292879 -8.81328713659818 -35.6912056000712 -11.8781340471906 -38.487497833075 -4.48114471620855 0.411511886093194 -4.2632564145606e-014 4.49999999999955 -2.13001086159291 3.96396944103949 -3.75257687308297 2.48357943533149 2.09851210313356 4.49999999999955 10 11 1 8 1 11 9 10 1 3 1 8 5 4 3 5 3 8 7 4 5 6 7 5 12 9 1 2 14 15 2 15 12 2 12 1 13 14 2 17 18 19 17 19 16 20 16 13 20 13 2 20 17 16 
4 2 1 2.27373675443232e-013
5.13478148889135e-013 2127.5 3660 1.04777297948999e-012 2177.5 3660 1.04777297948999e-012 2177.5 190 5.13478148889135e-013 2127.5 190 -49.9999999999995 3470 0 3470 0 0 -49.9999999999995 0 2 4 3 2 1 4 
20 18 1 2.26929586233382e-013
100.000000000001 2127.5 190 5.13478148889135e-013 2127.5 190 1.04777297948999e-012 2177.5 190 2.09851210313466 2177.5 190 6.57965681934316 2173.41151188609 190 4.22852296472752 2176.96396944104 190 5.85108897621758 2175.48357943533 190 9.53561553605111 2141.22269977071 190 18.0000000000006 2133.5 190 10.9117992397328 2137.30879439993 190 13.9766461503252 2134.51250216693 190 82.0000000000006 2133.5 190 90.4643844639501 2141.22269977071 190 86.023353849676 2134.51250216692 190 89.0882007602685 2137.30879439993 190 93.4203431806589 2173.41151188609 190 97.9014878968674 2177.5 190 94.1489110237844 2175.48357943533 190 95.7714770352745 2176.96396944104 190 100.000000000001 2177.5 190 -97.9014878968659 -45.5000000000009 2.0985121031341 -45.5 2.09851210313356 4.49999999999955 -4.2632564145606e-014 4.49999999999955 -4.48114471620855 0.411511886093194 -2.13001086159291 3.96396944103949 -3.75257687308297 2.48357943533149 -7.4371034329165 -31.7773002292879 -15.901487896866 -39.5000000000005 -8.81328713659818 -35.6912056000712 -11.8781340471906 -38.487497833075 -79.901487896866 -39.5000000000009 -88.3658723608155 -31.7773002292884 -83.9248417465414 -38.4874978330757 -86.9896886571339 -35.6912056000718 -91.3218310775243 0.411511886092285 -95.8029757937328 4.49999999999909 -92.0503989206498 2.48357943533061 -93.6729649321399 3.96396944103861 -97.9014878968665 4.49999999999909 14 15 1 13 1 15 12 14 1 20 1 13 16 17 20 16 20 13 19 17 16 18 19 16 9 12 1 2 10 11 2 11 9 2 9 1 8 10 2 4 6 7 4 7 5 3 5 8 3 8 2 3 4 5 
4 2 1 7.94410929039128e-015
100.000000000001 2177.5 3660 100.000000000001 2127.5 3660 100.000000000001 2127.5 190 100.000000000001 2177.5 190 0 3470 50 3470 50 0 0 0 2 4 3 2 1 4 
4 2 1 0
1.04777297948999e-012 2177.5 3660 2.09851210313466 2177.5 3660 2.09851210313466 2177.5 190 1.04777297948999e-012 2177.5 190 -3470 0 -3470 2.09851210313361 0 2.09851210313361 0 0 3 2 1 3 1 4 
8 6 1 0.136064706902903
2.09851210313466 2177.5 3660 6.57965681934316 2173.41151188609 3660 4.22852296472752 2176.96396944104 3660 5.85108897621758 2175.48357943533 3660 6.57965681934316 2173.41151188609 190 2.09851210313466 2177.5 190 4.22852296472752 2176.96396944104 190 5.85108897621758 2175.48357943533 190 1.57079632679489 3470 0.0915750232694772 3470 1.07772255895308 3470 0.58464879111128 3470 0.0915750232694773 0 1.57079632679489 0 1.07772255895308 0 0.58464879111128 0 4 2 5 4 5 8 3 8 7 3 4 8 1 7 6 1 3 7 
4 2 1 2.29035115044032e-013
6.57965681934316 2173.41151188609 3660 9.53561553605111 2141.22269977071 3660 9.53561553605111 2141.22269977071 190 6.57965681934316 2173.41151188609 190 -32.3242527730217 3470 0 3470 0 0 -32.3242527730217 0 2 4 3 2 1 4 
8 6 1 0.257011113038858
9.53561553605111 2141.22269977071 190 9.53561553605111 2141.22269977071 3660 18.0000000000006 2133.5 190 10.9117992397328 2137.30879439993 190 13.9766461503252 2134.51250216693 190 18.0000000000006 2133.5 3660 10.9117992397328 2137.30879439993 3660 13.9766461503252 2134.51250216693 3660 3.23316767685936 0 3.23316767685936 3470 4.71238898038468 0 3.72624144470113 0 4.21931521254291 0 4.71238898038468 3470 3.72624144470113 3470 4.21931521254291 3470 7 2 1 7 1 4 8 4 5 8 7 4 6 5 3 6 8 5 
4 2 1 2.27373675443232e-013
18.0000000000006 2133.5 3660 82.0000000000006 2133.5 3660 82.0000000000006 2133.5 190 18.0000000000006 2133.5 190 -64 3470 0 3470 0 0 -64 0 2 4 3 2 1 4 
8 6 1 0.257011113038614
82.0000000000006 2133.5 190 82.0000000000006 2133.5 3660 90.4643844639501 2141.22269977071 190 86.023353849676 2134.51250216692 190 89.0882007602685 2137.30879439993 190 90.4643844639501 2141.22269977071 3660 86.023353849676 2134.51250216692 3660 89.0882007602685 2137.30879439993 3660 4.71238898038468 0 4.71238898038468 3470 6.19161028391007 0 5.20546274822648 0 5.69853651606828 0 6.19161028391007 3470 5.20546274822648 3470 5.69853651606828 3470 7 2 1 7 1 4 8 4 5 8 5 3 8 7 4 6 8 3 
4 2 1 8.04911692853238e-014
90.4643844639501 2141.22269977071 3660 93.4203431806589 2173.41151188609 3660 93.4203431806589 2173.41151188609 190 90.4643844639501 2141.22269977071 190 0 3470 32.3242527730208 3470 32.3242527730208 0 0 0 2 4 3 2 1 4 
8 6 1 0.13606470690303
93.4203431806589 2173.41151188609 3660 97.9014878968674 2177.5 3660 94.1489110237844 2175.48357943533 3660 95.7714770352745 2176.96396944104 3660 97.9014878968674 2177.5 190 93.4203431806589 2173.41151188609 190 94.1489110237844 2175.48357943533 190 95.7714770352745 2176.96396944104 190 3.05001763032031 3470 1.57079632679488 3470 2.5569438624785 3470 2.06387009463669 3470 1.57079632679488 0 3.05001763032031 0 2.5569438624785 0 2.06387009463669 0 2 5 8 4 2 8 3 8 7 3 4 8 1 7 6 1 3 7 
4 2 1 7.105427357601e-015
97.9014878968674 2177.5 3660 100.000000000001 2177.5 3660 100.000000000001 2177.5 190 97.9014878968674 2177.5 190 -3470 -2.09851210313364 -3470 0 0 0 0 -2.09851210313364 3 2 1 3 1 4 

TShapes 91
Ve
1e-007
100.000000000001 2127.5 3660
0 0

0101101
*
Ve
1e-007
5.13478148889135e-013 2127.5 3660
0 0

0101101
*
Ed
 1e-007 1 1 0
1  1 0 0 100
4 C0 1 0 2 0
6  1 1 0
6  2 2 0
0

0101000
+91 0 -90 0 *
Ve
1e-007
5.13478148889135e-013 2127.5 190
0 0

0101101
*
Ed
 1e-007 1 1 0
1  2 0 0 3470
4 C0 1 0 3 0
6  3 1 0
6  4 3 0
0

0101000
+88 0 -90 0 *
Ve
1e-007
100.000000000001 2127.5 190
0 0

0101101
*
Ed
 1e-007 1 1 0
1  3 0 0 100
4 C0 1 0 4 0
6  5 1 0
6  6 4 0
0

0101000
+86 0 -88 0 *
Ed
 1e-007 1 1 0
1  4 0 0 3470
4 C0 1 0 5 0
6  7 1 0
6  8 5 0
0

0101000
+86 0 -91 0 *
Wi

0101100
+89 0 -87 0 -85 0 +84 0 *
Fa
0  1e-007 1 0
2  1
0101000
-83 0 *
Ve
1e-007
1.04777297948999e-012 2177.5 3660
0 0

0101101
*
Ed
 1e-007 1 1 0
1  5 0 -49.9999999999995 0
4 C0 3 0 2 0
6  9 3 0
6  10 2 0
0

0101000
+90 0 -81 0 *
Ve
1e-007
1.04777297948999e-012 2177.5 190
0 0

0101101
*
Ed
 1e-007 1 1 0
1  6 0 0 3470
4 C0 3 0 6 0
6  11 3 0
6  12 6 0
0

0101000
+79 0 -81 0 *
Ed
 1e-007 1 1 0
1  7 0 -49.9999999999995 0
4 C0 3 0 4 0
6  13 3 0
6  14 4 0
0

0101000
+88 0 -79 0 *
Wi

0101100
+80 0 -78 0 -77 0 +87 0 *
Fa
0  1e-007 3 0
2  3
0101000
-76 0 *
Ve
1e-007
2.09851210313466 2177.5 3660
0 0

0101101
*
Ed
 1e-007 1 1 0
1  8 0 0 2.09851210313361
4 C0 6 0 2 0
6  15 6 0
6  16 2 0
0

0101000
+81 0 -74 0 *
Ve
1e-007
2.09851210313466 2177.5 190
0 0

0101101
*
Ed
 1e-007 1 1 0
1  9 0 0 3470
2  1 7 0 0 3470
4 G1 6 0 7 0
6  17 7 0
6  18 6 0
0

0101000
+72 0 -74 0 *
Ed
 1e-007 1 1 0
1  10 0 0 2.09851210313361
4 C0 6 0 4 0
6  19 6 0
6  20 4 0
0

0101000
+79 0 -72 0 *
Wi

0101100
+73 0 -71 0 -70 0 +78 0 *
Fa
0  1e-007 6 0
2  6
0101000
-69 0 *
Ve
1e-007
6.57965681934316 2173.41151188609 3660
0 0

0101101
*
Ed
 1e-007 1 1 0
1  11 0 1.57079632679491 3.05001763032032
2  2 7 0 1.57079632679491 3.05001763032032
4 C0 7 0 2 0
6  21 7 0
6  22 2 0
0

0101000
+74 0 -67 0 *
Ve
1e-007
6.57965681934316 2173.41151188609 190
0 0

0101101
*
Ed
 1e-007 1 1 0
1  12 0 0 3470
2  3 7 0 0 3470
4 G1 7 0 8 0
6  23 7 0
6  24 8 0
0

0101000
+65 0 -67 0 *
Ed
 1e-007 1 1 0
1  13 0 1.57079632679491 3.05001763032032
2  4 7 0 1.57079632679491 3.05001763032032
4 C0 7 0 4 0
6  25 7 0
6  26 4 0
0

0101000
+72 0 -65 0 *
Wi

0101100
+66 0 -64 0 -63 0 +71 0 *
Fa
0  1e-007 7 0
2  7
0101000
+62 0 *
Ve
1e-007
9.53561553605111 2141.22269977071 3660
0 0

0101101
*
Ed
 1e-007 1 1 0
1  14 0 -32.3242527730215 -5.68549297055066e-015
4 C0 8 0 2 0
6  27 8 0
6  28 2 0
0

0101000
+67 0 -60 0 *
Ve
1e-007
9.53561553605111 2141.22269977071 190
0 0

0101101
*
Ed
 1e-007 1 1 0
1  15 0 0 3470
2  5 9 0 0 3470
4 G1 8 0 9 0
6  29 9 0
6  30 8 0
0

0101000
+58 0 -60 0 *
Ed
 1e-007 1 1 0
1  16 0 -32.3242527730215 -5.68549297055066e-015
4 C0 8 0 4 0
6  31 8 0
6  32 4 0
0

0101000
+65 0 -58 0 *
Wi

0101100
+59 0 -57 0 -56 0 +64 0 *
Fa
0  1e-007 8 0
2  8
0101000
-55 0 *
Ve
1e-007
18.0000000000006 2133.5 190
0 0

0101101
*
Ed
 1e-007 1 1 0
1  17 0 0.0915750232695652 1.57079632679489
2  6 9 0 0.0915750232695652 1.57079632679489
4 C0 9 0 4 0
6  33 9 0
6  34 4 0
0

0101000
+58 0 -53 0 *
Ve
1e-007
18.0000000000006 2133.5 3660
0 0

0101101
*
Ed
 1e-007 1 1 0
1  18 0 0 3470
2  7 9 0 0 3470
4 G1 9 0 10 0
6  35 9 0
6  36 10 0
0

0101000
+53 0 -51 0 *
Ed
 1e-007 1 1 0
1  19 0 0.0915750232695652 1.57079632679489
2  8 9 0 0.0915750232695652 1.57079632679489
4 C0 9 0 2 0
6  37 9 0
6  38 2 0
0

0101000
+60 0 -51 0 *
Wi

0101100
-57 0 +52 0 +50 0 -49 0 *
Fa
0  1e-007 9 0
2  9
0101000
+48 0 *
Ve
1e-007
82.0000000000006 2133.5 3660
0 0

0101101
*
Ed
 1e-007 1 1 0
1  20 0 -64 0
4 C0 10 0 2 0
6  39 10 0
6  40 2 0
0

0101000
+51 0 -46 0 *
Ve
1e-007
82.0000000000006 2133.5 190
0 0

0101101
*
Ed
 1e-007 1 1 0
1  21 0 0 3470
2  9 11 0 0 3470
4 G1 10 0 11 0
6  41 11 0
6  42 10 0
0

0101000
+44 0 -46 0 *
Ed
 1e-007 1 1 0
1  22 0 -64 0
4 C0 10 0 4 0
6  43 10 0
6  44 4 0
0

0101000
+53 0 -44 0 *
Wi

0101100
+45 0 -43 0 -42 0 +50 0 *
Fa
0  1e-007 10 0
2  10
0101000
-41 0 *
Ve
1e-007
90.4643844639501 2141.22269977071 190
0 0

0101101
*
Ed
 1e-007 1 1 0
1  23 0 4.71238898038468 6.19161028391007
2  10 11 0 4.71238898038468 6.19161028391007
4 C0 11 0 4 0
6  45 11 0
6  46 4 0
0

0101000
+44 0 -39 0 *
Ve
1e-007
90.4643844639501 2141.22269977071 3660
0 0

0101101
*
Ed
 1e-007 1 1 0
1  24 0 0 3470
2  11 11 0 0 3470
4 G1 11 0 12 0
6  47 11 0
6  48 12 0
0

0101000
+39 0 -37 0 *
Ed
 1e-007 1 1 0
1  25 0 4.71238898038468 6.19161028391007
2  12 11 0 4.71238898038468 6.19161028391007
4 C0 11 0 2 0
6  49 11 0
6  50 2 0
0

0101000
+46 0 -37 0 *
Wi

0101100
-43 0 +38 0 +36 0 -35 0 *
Fa
0  1e-007 11 0
2  11
0101000
+34 0 *
Ve
1e-007
93.4203431806589 2173.41151188609 3660
0 0

0101101
*
Ed
 1e-007 1 1 0
1  26 0 0 32.3242527730211
4 C0 12 0 2 0
6  51 12 0
6  52 2 0
0

0101000
+37 0 -32 0 *
Ve
1e-007
93.4203431806589 2173.41151188609 190
0 0

0101101
*
Ed
 1e-007 1 1 0
1  27 0 0 3470
2  13 13 0 0 3470
4 G1 12 0 13 0
6  53 13 0
6  54 12 0
0

0101000
+30 0 -32 0 *
Ed
 1e-007 1 1 0
1  28 0 0 32.3242527730211
4 C0 12 0 4 0
6  55 12 0
6  56 4 0
0

0101000
+39 0 -30 0 *
Wi

0101100
+31 0 -29 0 -28 0 +36 0 *
Fa
0  1e-007 12 0
2  12
0101000
-27 0 *
Ve
1e-007
97.9014878968674 2177.5 3660
0 0

0101101
*
Ed
 1e-007 1 1 0
1  29 0 3.23316767685927 4.7123889803847
2  14 13 0 3.23316767685927 4.7123889803847
4 C0 13 0 2 0
6  57 13 0
6  58 2 0
0

0101000
+32 0 -25 0 *
Ve
1e-007
97.9014878968674 2177.5 190
0 0

0101101
*
Ed
 1e-007 1 1 0
1  30 0 0 3470
2  15 13 0 0 3470
4 G1 13 0 14 0
6  59 13 0
6  60 14 0
0

0101000
+23 0 -25 0 *
Ed
 1e-007 1 1 0
1  31 0 3.23316767685927 4.7123889803847
2  16 13 0 3.23316767685927 4.7123889803847
4 C0 13 0 4 0
6  61 13 0
6  62 4 0
0

0101000
+30 0 -23 0 *
Wi

0101100
+24 0 -22 0 -21 0 +29 0 *
Fa
0  1e-007 13 0
2  13
0101000
+20 0 *
Ve
1e-007
100.000000000001 2177.5 3660
0 0

0101101
*
Ed
 1e-007 1 1 0
1  32 0 -2.09851210313364 0
4 C0 14 0 2 0
6  63 14 0
6  64 2 0
0

0101000
+25 0 -18 0 *
Ve
1e-007
100.000000000001 2177.5 190
0 0

0101101
*
Ed
 1e-007 1 1 0
1  33 0 0 3470
4 C0 14 0 5 0
6  65 14 0
6  66 5 0
0

0101000
+16 0 -18 0 *
Ed
 1e-007 1 1 0
1  34 0 -2.09851210313364 0
4 C0 14 0 4 0
6  67 14 0
6  68 4 0
0

0101000
+23 0 -16 0 *
Wi

0101100
+17 0 -15 0 -14 0 +22 0 *
Fa
0  1e-007 14 0
2  14
0101000
-13 0 *
Ed
 1e-007 1 1 0
1  35 0 0 50
4 C0 5 0 2 0
6  69 5 0
6  70 2 0
0

0101000
+18 0 -91 0 *
Ed
 1e-007 1 1 0
1  36 0 0 50
4 C0 5 0 4 0
6  71 5 0
6  72 4 0
0

0101000
+16 0 -86 0 *
Wi

0101100
+11 0 -84 0 -10 0 +15 0 *
Fa
0  1e-007 5 0
2  5
0101000
-9 0 *
Wi

0101100
+85 0 +77 0 +70 0 +63 0 +56 0 +52 0 +42 0 +38 0 +28 0 +21 0 
+14 0 +10 0 *
Fa
0  1e-007 4 0
2  4
0101000
+7 0 *
Wi

0101100
-89 0 -11 0 -17 0 -24 0 -31 0 -35 0 -45 0 -49 0 -59 0 -66 0 
-73 0 -80 0 *
Fa
0  1e-007 2 0
2  2
0101000
-5 0 *
Sh

0101100
-82 0 -75 0 -68 0 +61 0 -54 0 -47 0 -40 0 -33 0 -26 0 +19 0 
-12 0 -8 0 +6 0 -4 0 *
So

0100000
+3 0 *
Co

1100000
+2 5 *

+1 0 