DBRep_DrawableShape

CASCADE Topology V1, (c) Matra-Datavision
Locations 4
1
              1               0               0              -0 
              0               1               0              -0 
              0               0               1              -0 
1
             -1               0 -1.22464679914735e-016            1975 
              0               1               0              20 
1.22464679914735e-016               0              -1           -3115 
1
              1               0               0 -1.24721424065516e-026 
              0               1               0 1049.58055199264 
              0               0               1 9777.11452824737 
2  1 1 2 1 3 1 0
Curve2ds 32
1 4.7123889803846897 0 0 1 
1 0 1932.9999999999998 1 0 
1 3.1415926535897931 0 0 1 
1 0 0 1 0 
1 3.1415926535897931 0 0 1 
1 0 1932.9999999999998 1 0 
1 1.570796326794897 0 0 1 
1 0 0 1 0 
1 1.5707963267948972 0 0 1 
1 0 1932.9999999999998 1 0 
1 0 0 0 1 
1 0 0 1 0 
1 6.2831853071795862 0 0 1 
1 0 1932.9999999999998 1 0 
1 4.7123889803846897 0 0 1 
1 0 0 1 0 
1 0 0 1 0 
1 0 0 1 0 
1 0 0 1 0 
1 0 0 1 0 
1 6.2831853071795862 0 0 1 
1 0 1932.9999999999998 1 0 
1 4.7123889803846897 0 0 1 
1 4.7123889803846897 0 0 1 
1 0 1932.9999999999998 1 0 
1 3.1415926535897931 0 0 1 
1 3.1415926535897931 0 0 1 
1 0 1932.9999999999998 1 0 
1 1.5707963267948972 0 0 1 
1 1.5707963267948974 0 0 1 
1 0 1932.9999999999998 1 0 
1 0 0 0 1 
Curves 48
1 -102.50000000000001 0 -49.499999999999986 0 1 0 
2 -49.499999999999993 1932.9999999999998 -49.499999999999993 0 1 0 0 -0 1 1 0 -0 52.999999999999993
1 -49.5 0 -102.49999999999997 0 1 0 
2 -49.499999999999993 0 -49.499999999999993 0 1 0 0 -0 1 1 0 -0 52.999999999999993
1 49.499999999999986 1932.9999999999998 -102.49999999999999 -1 0 1.4017967482640867e-016 
1 49.5 0 -102.5 0 1 0 
1 49.499999999999986 0 -102.49999999999999 -1 0 1.4017967482640867e-016 
2 49.499999999999993 1932.9999999999998 -49.499999999999993 0 1 0 0 -0 1 1 0 -0 53
1 102.50000000000001 0 -49.500000000000014 0 1 0 
2 49.499999999999993 0 -49.499999999999993 0 1 0 0 -0 1 1 0 -0 53
1 102.50000000000003 1932.9999999999998 49.499999999999957 -2.8035934965281739e-016 0 -1 
1 102.5 0 49.499999999999957 0 1 0 
1 102.50000000000003 0 49.499999999999957 -2.8035934965281739e-016 0 -1 
2 49.499999999999993 1932.9999999999998 49.499999999999993 0 1 0 0 -0 1 1 0 -0 53
1 49.500000000000043 0 102.49999999999996 0 1 0 
2 49.499999999999993 0 49.499999999999993 0 1 0 0 -0 1 1 0 -0 53
1 -49.5 1932.9999999999998 102.49999999999997 1 0 -1.401796748264086e-016 
1 -49.499999999999993 0 102.49999999999999 0 1 0 
1 -49.5 0 102.49999999999997 1 0 -1.401796748264086e-016 
2 -49.499999999999993 1932.9999999999998 49.499999999999993 0 1 0 0 -0 1 1 0 -0 52.999999999999986
1 -102.50000000000001 0 49.499999999999986 0 1 0 
2 -49.499999999999993 0 49.499999999999993 0 1 0 0 -0 1 1 0 -0 52.999999999999986
1 -102.50000000000001 1932.9999999999998 -49.499999999999986 0 0 1 
1 -102.50000000000001 0 -49.499999999999986 0 0 1 
1 -98.5 0 -49.5 0 0 1 
2 -49.499999999999993 0 49.499999999999993 0 1 0 0 -0 1 1 0 -0 49.000000000000007
1 -49.5 0 98.5 1 0 -1.4017967482640857e-016 
2 49.499999999999993 0 49.499999999999993 0 1 0 0 -0 1 1 0 -0 49.000000000000007
1 98.5 0 49.499999999999957 -1.4017967482640869e-016 0 -1 
2 49.499999999999993 0 -49.499999999999993 0 1 0 0 -0 1 1 0 -0 49
1 49.499999999999986 0 -98.5 -1 0 2.8035934965281739e-016 
2 -49.499999999999993 0 -49.499999999999993 0 1 0 0 -0 1 1 0 -0 48.999999999999993
1 -49.5 0 98.5 0 1 0 
2 -49.499999999999993 1932.9999999999998 49.499999999999993 0 1 0 0 -0 1 1 0 -0 49.000000000000007
1 -98.5 0 49.499999999999986 0 1 0 
1 -98.5 0 -49.5 0 1 0 
1 -98.5 1932.9999999999998 -49.5 0 0 1 
2 -49.499999999999993 1932.9999999999998 -49.499999999999993 0 1 0 0 -0 1 1 0 -0 48.999999999999993
1 -49.499999999999986 0 -98.499999999999986 0 1 0 
1 49.499999999999986 0 -98.5 0 1 0 
1 49.499999999999986 1932.9999999999998 -98.5 -1 0 2.8035934965281739e-016 
2 49.499999999999993 1932.9999999999998 -49.499999999999993 0 1 0 0 -0 1 1 0 -0 49
1 98.5 0 -49.500000000000021 0 1 0 
1 98.5 0 49.499999999999957 0 1 0 
1 98.5 1932.9999999999998 49.499999999999957 -1.4017967482640869e-016 0 -1 
2 49.499999999999993 1932.9999999999998 49.499999999999993 0 1 0 0 -0 1 1 0 -0 49.000000000000007
1 49.50000000000005 0 98.5 0 1 0 
1 -49.5 1932.9999999999998 98.5 1 0 -1.4017967482640857e-016 
Polygon3D 0
PolygonOnTriangulations 96
2 1 2 
p 25.5380226354978 1 0 1933 
2 4 3 
p 25.5380226354978 1 0 1933 
5 3 4 5 6 2 
p 25.5380226354978 1 3.14159265358979 3.53429173528852 3.92699081698724 4.31968989868597 4.71238898038469 
5 1 3 4 5 2 
p 25.5380226354978 1 3.14159265358979 3.53429173528852 3.92699081698724 4.31968989868597 4.71238898038469 
2 7 3 
p 25.5380226354978 1 0 1933 
2 1 2 
p 25.5380226354978 1 0 1933 
5 7 8 9 10 1 
p 25.5380226354978 1 3.14159265358979 3.53429173528852 3.92699081698724 4.31968989868597 4.71238898038469 
5 21 23 24 25 22 
p 25.5380226354978 1 3.14159265358979 3.53429173528852 3.92699081698724 4.31968989868597 4.71238898038469 
2 3 2 
p 25.5380226354978 1 -1.4210854715202e-014 99 
2 17 1 
p 25.5380226354978 1 -1.4210854715202e-014 99 
2 1 2 
p 25.5380226354978 1 0 1933 
2 4 3 
p 25.5380226354978 1 0 1933 
2 4 1 
p 25.5380226354978 1 -1.4210854715202e-014 99 
2 26 21 
p 25.5380226354978 1 -1.4210854715202e-014 99 
5 3 4 5 6 2 
p 25.5380226354978 1 1.5707963267949 1.96349540849362 2.35619449019235 2.74889357189107 3.14159265358979 
5 16 18 19 20 17 
p 25.5380226354978 1 1.5707963267949 1.96349540849362 2.35619449019235 2.74889357189107 3.14159265358979 
2 7 3 
p 25.5380226354978 1 0 1933 
2 1 2 
p 25.5380226354978 1 0 1933 
5 7 8 9 10 1 
p 25.5380226354978 1 1.5707963267949 1.96349540849362 2.35619449019235 2.74889357189107 3.14159265358979 
5 27 28 29 30 26 
p 25.5380226354978 1 1.5707963267949 1.96349540849362 2.35619449019235 2.74889357189107 3.14159265358979 
2 3 2 
p 25.5380226354978 1 7.96829197192941e-030 99 
2 12 16 
p 25.5380226354978 1 7.96829197192941e-030 99 
2 1 2 
p 25.5380226354978 1 0 1933 
2 4 3 
p 25.5380226354978 1 0 1933 
2 4 1 
p 25.5380226354978 1 7.96829197192941e-030 99 
2 31 27 
p 25.5380226354978 1 7.96829197192941e-030 99 
5 3 4 5 6 2 
p 25.5380226354978 1 0 0.392699081698724 0.785398163397449 1.17809724509617 1.5707963267949 
5 11 13 14 15 12 
p 25.5380226354978 1 0 0.392699081698724 0.785398163397449 1.17809724509617 1.5707963267949 
2 7 3 
p 25.5380226354978 1 0 1933 
2 1 2 
p 25.5380226354978 1 0 1933 
5 7 8 9 10 1 
p 25.5380226354978 1 0 0.392699081698724 0.785398163397449 1.17809724509617 1.5707963267949 
5 32 33 34 35 31 
p 25.5380226354978 1 0 0.392699081698724 0.785398163397449 1.17809724509617 1.5707963267949 
2 3 2 
p 25.5380226354978 1 7.105427357601e-015 99 
2 7 11 
p 25.5380226354978 1 7.105427357601e-015 99 
2 1 2 
p 25.5380226354978 1 0 1933 
2 4 3 
p 25.5380226354978 1 0 1933 
2 4 1 
p 25.5380226354978 1 7.105427357601e-015 99 
2 36 32 
p 25.5380226354978 1 7.105427357601e-015 99 
5 3 4 5 6 2 
p 25.5380226354978 1 4.71238898038469 5.10508806208341 5.49778714378214 5.89048622548086 6.28318530717959 
5 6 8 9 10 7 
p 25.5380226354978 1 4.71238898038469 5.10508806208341 5.49778714378214 5.89048622548086 6.28318530717959 
2 7 3 
p 25.5380226354978 1 0 1933 
2 1 2 
p 25.5380226354978 1 0 1933 
5 7 8 9 10 1 
p 25.5380226354978 1 4.71238898038469 5.10508806208341 5.49778714378214 5.89048622548086 6.28318530717959 
5 37 38 39 40 36 
p 25.5380226354978 1 4.71238898038469 5.10508806208341 5.49778714378214 5.89048622548086 6.28318530717959 
2 3 2 
p 25.5380226354978 1 0 99 
2 2 6 
p 25.5380226354978 1 0 99 
2 4 1 
p 25.5380226354978 1 0 99 
2 22 37 
p 25.5380226354978 1 0 99 
2 1 2 
p 25.5380226354978 1 0 99 
2 1 4 
p 25.5380226354978 1 0 99 
5 1 3 4 5 2 
p 25.5380226354978 1 4.71238898038469 5.10508806208341 5.49778714378214 5.89048622548086 6.28318530717959 
5 2 4 5 6 3 
p 25.5380226354978 1 4.71238898038469 5.10508806208341 5.49778714378214 5.89048622548086 6.28318530717959 
2 3 7 
p 25.5380226354978 1 0 99.0000000000001 
2 1 4 
p 25.5380226354978 1 0 99.0000000000001 
5 1 3 4 5 2 
p 25.5380226354978 1 0 0.392699081698724 0.785398163397449 1.17809724509617 1.5707963267949 
5 7 9 10 11 8 
p 25.5380226354978 1 0 0.392699081698724 0.785398163397449 1.17809724509617 1.5707963267949 
2 8 12 
p 25.5380226354978 1 0 99 
2 1 4 
p 25.5380226354978 1 0 99 
5 1 3 4 5 2 
p 25.5380226354978 1 1.5707963267949 1.96349540849362 2.35619449019235 2.74889357189107 3.14159265358979 
5 12 14 15 16 13 
p 25.5380226354978 1 1.5707963267949 1.96349540849362 2.35619449019235 2.74889357189107 3.14159265358979 
2 13 17 
p 25.5380226354978 1 0 99 
2 1 4 
p 25.5380226354978 1 0 99 
5 1 3 4 5 2 
p 25.5380226354978 1 3.14159265358979 3.53429173528852 3.92699081698724 4.31968989868597 4.71238898038469 
5 17 18 19 20 1 
p 25.5380226354978 1 3.14159265358979 3.53429173528852 3.92699081698724 4.31968989868597 4.71238898038469 
2 2 6 
p 25.5380226354978 1 0 1933 
2 1 2 
p 25.5380226354978 1 0 1933 
5 7 8 9 10 6 
p 25.5380226354978 1 4.71238898038469 5.10508806208341 5.49778714378214 5.89048622548086 6.28318530717959 
5 23 24 25 26 21 
p 25.5380226354978 1 4.71238898038469 5.10508806208341 5.49778714378214 5.89048622548086 6.28318530717959 
2 1 7 
p 25.5380226354978 1 0 1933 
2 4 3 
p 25.5380226354978 1 0 1933 
2 2 6 
p 25.5380226354978 1 0 1933 
2 1 2 
p 25.5380226354978 1 0 1933 
2 2 3 
p 25.5380226354978 1 0 99 
2 27 23 
p 25.5380226354978 1 0 99 
5 7 8 9 10 6 
p 25.5380226354978 1 3.14159265358979 3.53429173528852 3.92699081698724 4.31968989868597 4.71238898038469 
5 28 29 30 31 27 
p 25.5380226354978 1 3.14159265358979 3.53429173528852 3.92699081698724 4.31968989868597 4.71238898038469 
2 1 7 
p 25.5380226354978 1 0 1933 
2 4 3 
p 25.5380226354978 1 0 1933 
2 2 6 
p 25.5380226354978 1 0 1933 
2 1 2 
p 25.5380226354978 1 0 1933 
2 2 3 
p 25.5380226354978 1 0 99 
2 32 28 
p 25.5380226354978 1 0 99 
5 7 8 9 10 6 
p 25.5380226354978 1 1.5707963267949 1.96349540849362 2.35619449019235 2.74889357189107 3.14159265358979 
5 33 34 35 36 32 
p 25.5380226354978 1 1.5707963267949 1.96349540849362 2.35619449019235 2.74889357189107 3.14159265358979 
2 1 7 
p 25.5380226354978 1 0 1933 
2 4 3 
p 25.5380226354978 1 0 1933 
2 2 6 
p 25.5380226354978 1 0 1933 
2 1 2 
p 25.5380226354978 1 0 1933 
2 2 3 
p 25.5380226354978 1 0 99 
2 37 33 
p 25.5380226354978 1 0 99 
5 7 8 9 10 6 
p 25.5380226354978 1 0 0.392699081698724 0.785398163397449 1.17809724509617 1.5707963267949 
5 22 38 39 40 37 
p 25.5380226354978 1 0 0.392699081698724 0.785398163397449 1.17809724509617 1.5707963267949 
2 1 7 
p 25.5380226354978 1 0 1933 
2 4 3 
p 25.5380226354978 1 0 1933 
2 2 3 
p 25.5380226354978 1 0 99.0000000000001 
2 21 22 
p 25.5380226354978 1 0 99.0000000000001 
Surfaces 18
2 -49.499999999999993 0 -49.499999999999993 0 1 0 0 -0 1 1 0 -0 52.999999999999993
1 -102.50000000000001 0 -49.499999999999986 -1 0 0 0 0 1 0 1 -0 
1 -49.499999999999993 1932.9999999999998 -49.499999999999993 0 1 0 0 -0 1 1 0 -0 
1 49.499999999999986 0 -102.49999999999999 -1.4017967482640867e-016 0 -1 -1 0 1.4017967482640867e-016 0 1 0 
1 -49.499999999999993 0 -49.499999999999993 0 1 0 0 -0 1 1 0 -0 
2 49.499999999999993 0 -49.499999999999993 0 1 0 0 -0 1 1 0 -0 53
1 102.50000000000003 0 49.499999999999957 1 0 -2.8035934965281739e-016 -2.8035934965281739e-016 0 -1 0 1 0 
2 49.499999999999993 0 49.499999999999993 0 1 0 0 -0 1 1 0 -0 53
1 -49.5 0 102.49999999999997 1.401796748264086e-016 -0 1 1 0 -1.401796748264086e-016 0 1 0 
2 -49.499999999999993 0 49.499999999999993 0 1 0 0 -0 1 1 0 -0 52.999999999999986
1 -98.5 0 -49.5 -1 0 0 0 0 1 0 1 -0 
2 -49.499999999999993 0 49.499999999999993 0 1 0 0 -0 1 1 0 -0 49.000000000000007
1 -49.5 0 98.5 1.4017967482640857e-016 -0 1 1 0 -1.4017967482640857e-016 0 1 0 
2 49.499999999999993 0 49.499999999999993 0 1 0 0 -0 1 1 0 -0 49.000000000000007
1 98.5 0 49.499999999999957 1 0 -1.4017967482640869e-016 -1.4017967482640869e-016 0 -1 0 1 0 
2 49.499999999999993 0 -49.499999999999993 0 1 0 0 -0 1 1 0 -0 49
1 49.499999999999986 0 -98.5 -2.8035934965281739e-016 0 -1 -1 0 2.8035934965281739e-016 0 1 0 
2 -49.499999999999993 0 -49.499999999999993 0 1 0 0 -0 1 1 0 -0 48.999999999999993
Triangulations 18
10 8 1 1.0183801386288
-102.5 0 -49.5 -102.5 1933 -49.5 -49.5 1933 -102.5 -69.7822219153497 1933 -98.4656152230982 -86.976659402887 1933 -86.976659402887 -98.4656152230982 1933 -69.7822219153498 -49.5 0 -102.5 -69.7822219153497 0 -98.4656152230982 -86.976659402887 0 -86.976659402887 -98.4656152230982 0 -69.7822219153498 4.71238898038469 0 4.71238898038469 1933 3.14159265358979 1933 3.53429173528852 1933 3.92699081698724 1933 4.31968989868597 1933 3.14159265358979 0 3.53429173528852 0 3.92699081698724 0 4.31968989868597 0 3 7 8 4 8 9 4 3 8 5 9 10 5 4 9 6 10 1 6 5 10 2 6 1 
4 2 1 7.105427357601e-015
-102.5 0 49.5 -102.5 1933 49.5 -102.5 1933 -49.5 -102.5 0 -49.5 99 0 99 1933 0 1933 0 0 3 4 1 2 3 1 
40 40 1 2.50910403565285e-014
-49.5 1933 -102.5 -102.5 1933 -49.5 -69.7822219153497 1933 -98.4656152230982 -86.976659402887 1933 -86.976659402887 -98.4656152230982 1933 -69.7822219153498 -102.5 1933 49.5 -49.5 1933 102.5 -98.4656152230982 1933 69.7822219153498 -86.976659402887 1933 86.976659402887 -69.7822219153497 1933 98.4656152230982 49.5 1933 102.5 102.5 1933 49.5 69.7822219153498 1933 98.4656152230982 86.976659402887 1933 86.976659402887 98.4656152230982 1933 69.7822219153497 102.5 1933 -49.5 49.5 1933 -102.5 98.4656152230982 1933 -69.7822219153498 86.976659402887 1933 -86.976659402887 69.7822219153497 1933 -98.4656152230982 -49.5 1933 98.5 49.5000000000001 1933 98.5 -98.5 1933 49.5 -94.770097093053 1933 68.2514881858894 -84.1482322781408 1933 84.1482322781409 -68.2514881858893 1933 94.7700970930531 -98.5 1933 -49.5 -49.5 1933 -98.5 -68.2514881858894 1933 -94.770097093053 -84.1482322781408 1933 -84.1482322781408 -94.770097093053 1933 -68.2514881858894 49.5 1933 -98.5 98.5 1933 -49.5 94.770097093053 1933 -68.2514881858894 84.1482322781408 1933 -84.1482322781408 68.2514881858894 1933 -94.770097093053 98.5 1933 49.5 68.2514881858894 1933 94.770097093053 84.1482322781408 1933 84.1482322781408 94.7700970930531 1933 68.2514881858894 -53 -7.105427357601e-015 7.105427357601e-015 -53 -48.9656152230982 -20.2822219153497 -37.476659402887 -37.476659402887 -20.2822219153498 -48.9656152230982 99 -53 152 0 119.28222191535 -48.9656152230982 136.476659402887 -37.476659402887 147.965615223098 -20.2822219153497 152 99 98.9999999999999 152 147.965615223098 119.28222191535 136.476659402887 136.476659402887 119.28222191535 147.965615223098 -2.1316282072803e-014 152 -53 99 -20.2822219153498 147.965615223098 -37.476659402887 136.476659402887 -48.9656152230982 119.28222191535 148 -7.105427357601e-015 148 99 99 -49 117.751488185889 -45.2700970930531 133.648232278141 -34.6482322781408 144.270097093053 -18.7514881858894 -7.105427357601e-015 -49 -49 7.105427357601e-015 -45.270097093053 -18.7514881858894 -34.6482322781408 -34.6482322781408 -18.7514881858894 -45.270097093053 -49 99 -2.8421709430404e-014 148 -18.7514881858894 144.270097093053 -34.6482322781408 133.648232278141 -45.2700970930531 117.751488185889 98.9999999999999 148 144.270097093053 117.751488185889 133.648232278141 133.648232278141 117.751488185889 144.270097093053 40 12 37 13 22 11 13 38 22 5 30 4 15 12 40 31 30 5 39 15 40 29 3 4 14 38 13 14 15 39 14 39 38 29 4 30 1 3 29 27 5 2 27 31 5 28 1 29 32 17 1 32 1 28 23 2 6 23 27 2 36 20 17 36 17 32 24 6 8 24 23 6 19 36 35 19 20 36 25 8 9 25 24 8 18 35 34 18 19 35 10 26 25 10 25 9 33 18 34 21 26 10 16 18 33 7 21 10 37 16 33 12 16 37 11 22 21 11 21 7 
4 2 1 9.473903143468e-015
-49.5 0 -102.5 -49.5 1933 -102.5 49.5 1933 -102.5 49.5 0 -102.5 99 0 99 1933 -1.4210854715202e-014 1933 -1.4210854715202e-014 0 3 4 1 2 3 1 
40 40 1 2.50910403565285e-014
-98.5 0 -49.5 -98.5 0 49.5 -49.5 0 98.5 -94.770097093053 0 68.2514881858894 -84.1482322781408 0 84.1482322781409 -68.2514881858893 0 94.7700970930531 49.5000000000001 0 98.5 98.5 0 49.5 68.2514881858894 0 94.770097093053 84.1482322781408 0 84.1482322781408 94.7700970930531 0 68.2514881858894 98.5 0 -49.5 49.5 0 -98.5 94.770097093053 0 -68.2514881858894 84.1482322781408 0 -84.1482322781408 68.2514881858894 0 -94.770097093053 -49.5 0 -98.5 -68.2514881858894 0 -94.770097093053 -84.1482322781408 0 -84.1482322781408 -94.770097093053 0 -68.2514881858894 -49.5 0 -102.5 -102.5 0 -49.5 -69.7822219153497 0 -98.4656152230982 -86.976659402887 0 -86.976659402887 -98.4656152230982 0 -69.7822219153498 49.5 0 -102.5 102.5 0 -49.5 98.4656152230982 0 -69.7822219153498 86.976659402887 0 -86.976659402887 69.7822219153497 0 -98.4656152230982 102.5 0 49.5 49.5 0 102.5 69.7822219153498 0 98.4656152230982 86.976659402887 0 86.976659402887 98.4656152230982 0 69.7822219153497 -49.5 0 102.5 -102.5 0 49.5 -98.4656152230982 0 69.7822219153498 -86.976659402887 0 86.976659402887 -69.7822219153497 0 98.4656152230982 -7.105427357601e-015 -49 99 -49 148 -7.105427357601e-015 117.751488185889 -45.2700970930531 133.648232278141 -34.6482322781408 144.270097093053 -18.7514881858894 148 99.0000000000001 98.9999999999999 148 144.270097093053 117.751488185889 133.648232278141 133.648232278141 117.751488185889 144.270097093053 -2.8421709430404e-014 148 -49 99 -18.7514881858894 144.270097093053 -34.6482322781408 133.648232278141 -45.2700970930531 117.751488185889 -49 7.105427357601e-015 -45.270097093053 -18.7514881858894 -34.6482322781408 -34.6482322781408 -18.7514881858894 -45.270097093053 -53 -7.105427357601e-015 7.105427357601e-015 -53 -48.9656152230982 -20.2822219153497 -37.476659402887 -37.476659402887 -20.2822219153498 -48.9656152230982 -53 99 -2.1316282072803e-014 152 -20.2822219153498 147.965615223098 -37.476659402887 136.476659402887 -48.9656152230982 119.28222191535 98.9999999999999 152 152 99 147.965615223098 119.28222191535 136.476659402887 136.476659402887 119.28222191535 147.965615223098 152 0 99 -53 119.28222191535 -48.9656152230982 136.476659402887 -37.476659402887 147.965615223098 -20.2822219153497 11 31 8 33 7 32 33 9 7 25 19 24 35 31 11 20 19 25 18 23 24 10 35 11 34 10 9 18 24 19 34 9 33 34 35 10 21 23 18 1 25 22 1 20 25 17 21 18 13 26 21 13 21 17 2 22 37 2 1 22 16 30 26 16 26 13 4 37 38 4 2 37 15 29 30 15 30 16 5 38 39 5 4 38 28 15 14 28 29 15 40 6 5 40 5 39 12 28 14 3 6 40 27 28 12 36 3 40 8 27 12 31 27 8 32 7 3 32 3 36 
10 8 1 1.0183801386288
49.5 0 -102.5 49.5 1933 -102.5 102.5 1933 -49.5 98.4656152230982 1933 -69.7822219153498 86.976659402887 1933 -86.976659402887 69.7822219153497 1933 -98.4656152230982 102.5 0 -49.5 98.4656152230982 0 -69.7822219153498 86.976659402887 0 -86.976659402887 69.7822219153497 0 -98.4656152230982 3.14159265358979 0 3.14159265358979 1933 1.5707963267949 1933 1.96349540849362 1933 2.35619449019235 1933 2.74889357189107 1933 1.5707963267949 0 1.96349540849362 0 2.35619449019235 0 2.74889357189107 0 3 7 8 4 8 9 4 3 8 5 9 10 5 4 9 6 5 10 2 10 1 2 6 10 
4 2 1 1.00485917355762e-014
102.5 0 -49.5 102.5 1933 -49.5 102.5 1933 49.5 102.5 0 49.5 99 0 99 1933 0 1933 0 0 3 4 1 2 3 1 
10 8 1 1.0183801386288
102.5 0 49.5 102.5 1933 49.5 49.5 1933 102.5 69.7822219153498 1933 98.4656152230982 86.976659402887 1933 86.976659402887 98.4656152230982 1933 69.7822219153497 49.5 0 102.5 69.7822219153498 0 98.4656152230982 86.976659402887 0 86.976659402887 98.4656152230982 0 69.7822219153497 1.5707963267949 0 1.5707963267949 1933 0 1933 0.392699081698724 1933 0.785398163397449 1933 1.17809724509617 1933 0 0 0.392699081698724 0 0.785398163397449 0 1.17809724509617 0 3 7 8 4 8 9 4 3 8 5 9 10 5 4 9 6 10 1 6 5 10 2 6 1 
4 2 1 1.4210854715202e-014
49.5 0 102.5 49.5 1933 102.5 -49.5 1933 102.5 -49.5 0 102.5 99 0 99 1933 7.105427357601e-015 1933 7.105427357601e-015 0 3 4 1 2 3 1 
10 8 1 1.0183801386288
-49.5 0 102.5 -49.5 1933 102.5 -102.5 1933 49.5 -98.4656152230982 1933 69.7822219153498 -86.976659402887 1933 86.976659402887 -69.7822219153497 1933 98.4656152230982 -102.5 0 49.5 -98.4656152230982 0 69.7822219153498 -86.976659402887 0 86.976659402887 -69.7822219153497 0 98.4656152230982 6.28318530717959 0 6.28318530717959 1933 4.71238898038469 1933 5.10508806208341 1933 5.49778714378214 1933 5.89048622548086 1933 4.71238898038469 0 5.10508806208341 0 5.49778714378214 0 5.89048622548086 0 4 3 7 4 7 8 4 8 9 5 4 9 6 9 10 6 10 1 6 5 9 2 6 1 
4 2 1 0
-98.5 0 -49.5 -98.5 1933 -49.5 -98.5 1933 49.5 -98.5 0 49.5 0 0 0 1933 99 1933 99 0 2 1 4 3 2 4 
10 8 1 0.941521260241725
-98.5 0 49.5 -49.5 0 98.5 -94.770097093053 0 68.2514881858894 -84.1482322781408 0 84.1482322781409 -68.2514881858893 0 94.7700970930531 -49.5 1933 98.5 -98.5 1933 49.5 -94.770097093053 1933 68.2514881858894 -84.1482322781408 1933 84.1482322781409 -68.2514881858893 1933 94.7700970930531 4.71238898038469 0 6.28318530717959 0 5.10508806208341 0 5.49778714378214 0 5.89048622548086 0 6.28318530717959 1933 4.71238898038469 1933 5.10508806208341 1933 5.49778714378214 1933 5.89048622548086 1933 8 1 3 8 3 4 8 7 1 9 8 4 10 4 5 10 5 2 10 9 4 6 10 2 
4 2 1 9.473903143468e-015
-49.5 0 98.5 -49.5 1933 98.5 49.5000000000001 1933 98.5 49.5000000000001 0 98.5 0 0 0 1933 99.0000000000001 1933 99.0000000000001 0 2 1 4 3 2 4 
10 8 1 0.941521260241723
49.5000000000001 0 98.5 98.5 0 49.5 68.2514881858894 0 94.770097093053 84.1482322781408 0 84.1482322781408 94.7700970930531 0 68.2514881858894 98.5 1933 49.5 49.5000000000001 1933 98.5 68.2514881858894 1933 94.770097093053 84.1482322781408 1933 84.1482322781408 94.7700970930531 1933 68.2514881858894 0 0 1.5707963267949 0 0.392699081698724 0 0.785398163397449 0 1.17809724509617 0 1.5707963267949 1933 0 1933 0.392699081698724 1933 0.785398163397449 1933 1.17809724509617 1933 7 1 3 8 3 4 8 7 3 9 4 5 9 8 4 10 5 2 10 9 5 6 10 2 
4 2 1 1.4210854715202e-014
98.5 0 49.5 98.5 1933 49.5 98.5 1933 -49.5 98.5 0 -49.5 0 0 0 1933 99 1933 99 0 2 1 4 3 2 4 
10 8 1 0.941521260241718
98.5 0 -49.5 49.5 0 -98.5 94.770097093053 0 -68.2514881858894 84.1482322781408 0 -84.1482322781408 68.2514881858894 0 -94.770097093053 49.5 1933 -98.5 98.5 1933 -49.5 94.770097093053 1933 -68.2514881858894 84.1482322781408 1933 -84.1482322781408 68.2514881858894 1933 -94.770097093053 1.5707963267949 0 3.14159265358979 0 1.96349540849362 0 2.35619449019235 0 2.74889357189107 0 3.14159265358979 1933 1.5707963267949 1933 1.96349540849362 1933 2.35619449019235 1933 2.74889357189107 1933 8 1 3 8 3 4 8 7 1 9 4 5 9 8 4 10 9 5 6 5 2 6 10 5 
4 2 1 1.00485917355762e-014
49.5 0 -98.5 49.5 1933 -98.5 -49.5 1933 -98.5 -49.5 0 -98.5 0 0 0 1933 99 1933 99 0 2 1 4 3 2 4 
10 8 1 0.941521260241713
-49.5 0 -98.5 -98.5 0 -49.5 -68.2514881858894 0 -94.770097093053 -84.1482322781408 0 -84.1482322781408 -94.770097093053 0 -68.2514881858894 -98.5 1933 -49.5 -49.5 1933 -98.5 -68.2514881858894 1933 -94.770097093053 -84.1482322781408 1933 -84.1482322781408 -94.770097093053 1933 -68.2514881858894 3.14159265358979 0 4.71238898038469 0 3.53429173528852 0 3.92699081698724 0 4.31968989868597 0 4.71238898038469 1933 3.14159265358979 1933 3.53429173528852 1933 3.92699081698724 1933 4.31968989868597 1933 7 1 3 8 3 4 8 7 3 9 4 5 9 8 4 10 5 2 10 9 5 6 10 2 

TShapes 121
Ve
1e-007
-102.5 0 -49.5
0 0

0101101
*
Ve
1e-007
-102.5 1933 -49.5
0 0

0101101
*
Ed
 1e-007 1 1 0
1  1 0 0 1933
2  1 1 0 0 1933
4 G1 1 0 2 0
6  1 1 0
6  2 2 0
0

0101000
+121 0 -120 0 *
Ve
1e-007
-49.5 1933 -102.5
0 0

0101101
*
Ed
 1e-007 1 1 0
1  2 0 3.14159265358979 4.71238898038469
2  2 1 0 3.14159265358979 4.71238898038469
4 C0 1 0 3 0
6  3 1 0
6  4 3 0
0

0101000
+118 0 -120 0 *
Ve
1e-007
-49.5 0 -102.5
0 0

0101101
*
Ed
 1e-007 1 1 0
1  3 0 0 1933
2  3 1 0 0 1933
4 G1 1 0 4 0
6  5 1 0
6  6 4 0
0

0101000
+116 0 -118 0 *
Ed
 1e-007 1 1 0
1  4 0 3.14159265358979 4.71238898038469
2  4 1 0 3.14159265358979 4.71238898038469
4 C0 1 0 5 0
6  7 1 0
6  8 5 0
0

0101000
+116 0 -121 0 *
Wi

0101100
+119 0 -117 0 -115 0 +114 0 *
Fa
0  1e-007 1 0
2  1
0101000
+113 0 *
Ve
1e-007
49.5 1933 -102.5
0 0

0101101
*
Ed
 1e-007 1 1 0
1  5 0 -1.4210854715202e-014 99
4 C0 4 0 3 0
6  9 4 0
6  10 3 0
0

0101000
+111 0 -118 0 *
Ve
1e-007
49.5 0 -102.5
0 0

0101101
*
Ed
 1e-007 1 1 0
1  6 0 0 1933
2  5 6 0 0 1933
4 G1 4 0 6 0
6  11 6 0
6  12 4 0
0

0101000
+109 0 -111 0 *
Ed
 1e-007 1 1 0
1  7 0 -1.4210854715202e-014 99
4 C0 4 0 5 0
6  13 4 0
6  14 5 0
0

0101000
+109 0 -116 0 *
Wi

0101100
+115 0 -110 0 -108 0 +107 0 *
Fa
0  1e-007 4 0
2  4
0101000
+106 0 *
Ve
1e-007
102.5 1933 -49.5
0 0

0101101
*
Ed
 1e-007 1 1 0
1  8 0 1.5707963267949 3.14159265358979
2  6 6 0 1.5707963267949 3.14159265358979
4 C0 6 0 3 0
6  15 6 0
6  16 3 0
0

0101000
+104 0 -111 0 *
Ve
1e-007
102.5 0 -49.5
0 0

0101101
*
Ed
 1e-007 1 1 0
1  9 0 0 1933
2  7 6 0 0 1933
4 G1 6 0 7 0
6  17 6 0
6  18 7 0
0

0101000
+102 0 -104 0 *
Ed
 1e-007 1 1 0
1  10 0 1.5707963267949 3.14159265358979
2  8 6 0 1.5707963267949 3.14159265358979
4 C0 6 0 5 0
6  19 6 0
6  20 5 0
0

0101000
+102 0 -109 0 *
Wi

0101100
+108 0 -103 0 -101 0 +100 0 *
Fa
0  1e-007 6 0
2  6
0101000
+99 0 *
Ve
1e-007
102.5 1933 49.5
0 0

0101101
*
Ed
 1e-007 1 1 0
1  11 0 7.96829197192941e-030 99
4 C0 7 0 3 0
6  21 7 0
6  22 3 0
0

0101000
+97 0 -104 0 *
Ve
1e-007
102.5 0 49.5
0 0

0101101
*
Ed
 1e-007 1 1 0
1  12 0 0 1933
2  9 8 0 0 1933
4 G1 7 0 8 0
6  23 8 0
6  24 7 0
0

0101000
+95 0 -97 0 *
Ed
 1e-007 1 1 0
1  13 0 7.96829197192941e-030 99
4 C0 7 0 5 0
6  25 7 0
6  26 5 0
0

0101000
+95 0 -102 0 *
Wi

0101100
+101 0 -96 0 -94 0 +93 0 *
Fa
0  1e-007 7 0
2  7
0101000
+92 0 *
Ve
1e-007
49.5 1933 102.5
0 0

0101101
*
Ed
 1e-007 1 1 0
1  14 0 0 1.5707963267949
2  10 8 0 0 1.5707963267949
4 C0 8 0 3 0
6  27 8 0
6  28 3 0
0

0101000
+90 0 -97 0 *
Ve
1e-007
49.5 0 102.5
0 0

0101101
*
Ed
 1e-007 1 1 0
1  15 0 0 1933
2  11 8 0 0 1933
4 G1 8 0 9 0
6  29 8 0
6  30 9 0
0

0101000
+88 0 -90 0 *
Ed
 1e-007 1 1 0
1  16 0 0 1.5707963267949
2  12 8 0 0 1.5707963267949
4 C0 8 0 5 0
6  31 8 0
6  32 5 0
0

0101000
+88 0 -95 0 *
Wi

0101100
+94 0 -89 0 -87 0 +86 0 *
Fa
0  1e-007 8 0
2  8
0101000
+85 0 *
Ve
1e-007
-49.5 1933 102.5
0 0

0101101
*
Ed
 1e-007 1 1 0
1  17 0 7.105427357601e-015 99
4 C0 9 0 3 0
6  33 9 0
6  34 3 0
0

0101000
+83 0 -90 0 *
Ve
1e-007
-49.5 0 102.5
0 0

0101101
*
Ed
 1e-007 1 1 0
1  18 0 0 1933
2  13 10 0 0 1933
4 G1 9 0 10 0
6  35 10 0
6  36 9 0
0

0101000
+81 0 -83 0 *
Ed
 1e-007 1 1 0
1  19 0 7.105427357601e-015 99
4 C0 9 0 5 0
6  37 9 0
6  38 5 0
0

0101000
+81 0 -88 0 *
Wi

0101100
+87 0 -82 0 -80 0 +79 0 *
Fa
0  1e-007 9 0
2  9
0101000
+78 0 *
Ve
1e-007
-102.5 1933 49.5
0 0

0101101
*
Ed
 1e-007 1 1 0
1  20 0 4.71238898038469 6.28318530717959
2  14 10 0 4.71238898038469 6.28318530717959
4 C0 10 0 3 0
6  39 10 0
6  40 3 0
0

0101000
+76 0 -83 0 *
Ve
1e-007
-102.5 0 49.5
0 0

0101101
*
Ed
 1e-007 1 1 0
1  21 0 0 1933
2  15 10 0 0 1933
4 G1 10 0 2 0
6  41 10 0
6  42 2 0
0

0101000
+74 0 -76 0 *
Ed
 1e-007 1 1 0
1  22 0 4.71238898038469 6.28318530717959
2  16 10 0 4.71238898038469 6.28318530717959
4 C0 10 0 5 0
6  43 10 0
6  44 5 0
0

0101000
+74 0 -81 0 *
Wi

0101100
+80 0 -75 0 -73 0 +72 0 *
Fa
0  1e-007 10 0
2  10
0101000
+71 0 *
Ed
 1e-007 1 1 0
1  23 0 0 99
4 C0 2 0 3 0
6  45 2 0
6  46 3 0
0

0101000
+120 0 -76 0 *
Ed
 1e-007 1 1 0
1  24 0 0 99
4 C0 2 0 5 0
6  47 2 0
6  48 5 0
0

0101000
+121 0 -74 0 *
Wi

0101100
+73 0 -69 0 -119 0 +68 0 *
Fa
0  1e-007 2 0
2  2
0101000
+67 0 *
Ve
1e-007
-98.5 0 -49.5
0 0

0101101
*
Ve
1e-007
-98.5 0 49.5
0 0

0101101
*
Ed
 1e-007 1 1 0
1  25 0 0 99
4 C0 5 0 11 0
6  49 5 0
6  50 11 0
0

0101000
+65 0 -64 0 *
Ve
1e-007
-49.5 0 98.5
0 0

0101101
*
Ed
 1e-007 1 1 0
1  26 0 4.71238898038469 6.28318530717959
2  17 12 0 4.71238898038469 6.28318530717959
4 C0 5 0 12 0
6  51 12 0
6  52 5 0
0

0101000
+64 0 -62 0 *
Ve
1e-007
49.5000000000001 0 98.5
0 0

0101101
*
Ed
 1e-007 1 1 0
1  27 0 0 99.0000000000001
4 C0 5 0 13 0
6  53 5 0
6  54 13 0
0

0101000
+62 0 -60 0 *
Ve
1e-007
98.5 0 49.5
0 0

0101101
*
Ed
 1e-007 1 1 0
1  28 0 0 1.5707963267949
2  18 14 0 0 1.5707963267949
4 C0 5 0 14 0
6  55 14 0
6  56 5 0
0

0101000
+60 0 -58 0 *
Ve
1e-007
98.5 0 -49.5
0 0

0101101
*
Ed
 1e-007 1 1 0
1  29 0 0 99
4 C0 5 0 15 0
6  57 5 0
6  58 15 0
0

0101000
+58 0 -56 0 *
Ve
1e-007
49.5 0 -98.5
0 0

0101101
*
Ed
 1e-007 1 1 0
1  30 0 1.5707963267949 3.14159265358979
2  19 16 0 1.5707963267949 3.14159265358979
4 C0 5 0 16 0
6  59 16 0
6  60 5 0
0

0101000
+56 0 -54 0 *
Ve
1e-007
-49.5 0 -98.5
0 0

0101101
*
Ed
 1e-007 1 1 0
1  31 0 0 99
4 C0 5 0 17 0
6  61 5 0
6  62 17 0
0

0101000
+54 0 -52 0 *
Ed
 1e-007 1 1 0
1  32 0 3.14159265358979 4.71238898038469
2  20 18 0 3.14159265358979 4.71238898038469
4 C0 5 0 18 0
6  63 18 0
6  64 5 0
0

0101000
+52 0 -65 0 *
Wi

0101100
+63 0 +61 0 +59 0 +57 0 +55 0 +53 0 +51 0 +50 0 *
Wi

0101100
-114 0 -107 0 -100 0 -93 0 -86 0 -79 0 -72 0 -68 0 *
Fa
0  1e-007 5 0
2  5
0101000
-49 0 -48 0 *
Ve
1e-007
-49.5 1933 98.5
0 0

0101101
*
Ed
 1e-007 1 1 0
1  33 0 0 1933
2  21 12 0 0 1933
4 G1 12 0 13 0
6  65 12 0
6  66 13 0
0

0101000
+62 0 -46 0 *
Ve
1e-007
-98.5 1933 49.5
0 0

0101101
*
Ed
 1e-007 1 1 0
1  34 0 4.71238898038469 6.28318530717959
2  22 12 0 4.71238898038469 6.28318530717959
4 C0 12 0 3 0
6  67 12 0
6  68 3 0
0

0101000
+44 0 -46 0 *
Ed
 1e-007 1 1 0
1  35 0 0 1933
2  23 12 0 0 1933
4 G1 12 0 11 0
6  69 12 0
6  70 11 0
0

0101000
+64 0 -44 0 *
Wi

0101100
+61 0 +45 0 -43 0 -42 0 *
Fa
0  1e-007 12 0
2  12
0101000
+41 0 *
Ve
1e-007
-98.5 1933 -49.5
0 0

0101101
*
Ed
 1e-007 1 1 0
1  36 0 0 1933
2  24 18 0 0 1933
4 G1 11 0 18 0
6  71 18 0
6  72 11 0
0

0101000
+65 0 -39 0 *
Ed
 1e-007 1 1 0
1  37 0 0 99
4 C0 11 0 3 0
6  73 11 0
6  74 3 0
0

0101000
+39 0 -44 0 *
Wi

0101100
+38 0 +37 0 -42 0 -63 0 *
Fa
0  1e-007 11 0
2  11
0101000
-36 0 *
Ve
1e-007
-49.5 1933 -98.5
0 0

0101101
*
Ed
 1e-007 1 1 0
1  38 0 3.14159265358979 4.71238898038469
2  25 18 0 3.14159265358979 4.71238898038469
4 C0 18 0 3 0
6  75 18 0
6  76 3 0
0

0101000
+34 0 -39 0 *
Ed
 1e-007 1 1 0
1  39 0 0 1933
2  26 18 0 0 1933
4 G1 18 0 17 0
6  77 18 0
6  78 17 0
0

0101000
+52 0 -34 0 *
Wi

0101100
+50 0 +38 0 -33 0 -32 0 *
Fa
0  1e-007 18 0
2  18
0101000
+31 0 *
Ve
1e-007
49.5 1933 -98.5
0 0

0101101
*
Ed
 1e-007 1 1 0
1  40 0 0 1933
2  27 16 0 0 1933
4 G1 17 0 16 0
6  79 16 0
6  80 17 0
0

0101000
+54 0 -29 0 *
Ed
 1e-007 1 1 0
1  41 0 0 99
4 C0 17 0 3 0
6  81 17 0
6  82 3 0
0

0101000
+29 0 -34 0 *
Wi

0101100
+28 0 +27 0 -32 0 -51 0 *
Fa
0  1e-007 17 0
2  17
0101000
-26 0 *
Ve
1e-007
98.5 1933 -49.5
0 0

0101101
*
Ed
 1e-007 1 1 0
1  42 0 1.5707963267949 3.14159265358979
2  28 16 0 1.5707963267949 3.14159265358979
4 C0 16 0 3 0
6  83 16 0
6  84 3 0
0

0101000
+24 0 -29 0 *
Ed
 1e-007 1 1 0
1  43 0 0 1933
2  29 16 0 0 1933
4 G1 16 0 15 0
6  85 16 0
6  86 15 0
0

0101000
+56 0 -24 0 *
Wi

0101100
+53 0 +28 0 -23 0 -22 0 *
Fa
0  1e-007 16 0
2  16
0101000
+21 0 *
Ve
1e-007
98.5 1933 49.5
0 0

0101101
*
Ed
 1e-007 1 1 0
1  44 0 0 1933
2  30 14 0 0 1933
4 G1 15 0 14 0
6  87 14 0
6  88 15 0
0

0101000
+58 0 -19 0 *
Ed
 1e-007 1 1 0
1  45 0 0 99
4 C0 15 0 3 0
6  89 15 0
6  90 3 0
0

0101000
+19 0 -24 0 *
Wi

0101100
+18 0 +17 0 -22 0 -55 0 *
Fa
0  1e-007 15 0
2  15
0101000
-16 0 *
Ve
1e-007
49.5000000000001 1933 98.5
0 0

0101101
*
Ed
 1e-007 1 1 0
1  46 0 0 1.5707963267949
2  31 14 0 0 1.5707963267949
4 C0 14 0 3 0
6  91 14 0
6  92 3 0
0

0101000
+14 0 -19 0 *
Ed
 1e-007 1 1 0
1  47 0 0 1933
2  32 14 0 0 1933
4 G1 14 0 13 0
6  93 14 0
6  94 13 0
0

0101000
+60 0 -14 0 *
Wi

0101100
+57 0 +18 0 -13 0 -12 0 *
Fa
0  1e-007 14 0
2  14
0101000
+11 0 *
Ed
 1e-007 1 1 0
1  48 0 0 99.0000000000001
4 C0 13 0 3 0
6  95 13 0
6  96 3 0
0

0101000
+46 0 -14 0 *
Wi

0101100
+45 0 +9 0 -12 0 -59 0 *
Fa
0  1e-007 13 0
2  13
0101000
-8 0 *
Wi

0101100
+117 0 +69 0 +75 0 +82 0 +89 0 +96 0 +103 0 +110 0 *
Wi

0101100
-9 0 -43 0 -37 0 -33 0 -27 0 -23 0 -17 0 -13 0 *
Fa
0  1e-007 3 0
2  3
0101000
+6 0 +5 0 *
Sh

0101100
+112 0 +105 0 +98 0 +91 0 +84 0 +77 0 +70 0 +66 0 -47 0 -40 0 
-35 0 -30 0 -25 0 -20 0 -15 0 -10 0 -7 0 +4 0 *
So

0100000
+3 0 *
Co

1100000
+2 4 *

+1 0 