DBRep_DrawableShape

CASCADE Topology V1, (c) Matra-Datavision
Locations 6
1
              1 -1.11022302462516e-016               0 -1.50990331349021e-014 
1.11022302462516e-016               1               0            -136 
              0               0               1              -0 
1
              1 -1.11022302462516e-016 -5.55111512312578e-017 1.1518563880486e-013 
-1.11022302462516e-016              -1               0            2100 
-5.55111512312578e-017 6.16297582203915e-033              -1           -1025 
1
              1               0               0              -0 
              0               1               0              -0 
              0               0               1              -0 
1
              1               0               0              -0 
              0               1               0              -0 
              0               0               1              -0 
1
              1               0               0 -1.24721424065516e-026 
              0               1               0 1049.58055199264 
              0               0               1 9777.11452824737 
2  1 1 2 1 3 1 4 1 5 1 0
Curve2ds 16
1 4.7123889803846897 0 0 1 
1 4.7123889803846897 0 0 -1 
1 3.1415926535897931 0 0 -1 
1 3.1415926535897931 0 0 1 
1 1.5707963267948966 0 0 -1 
1 1.5707963267948966 0 0 1 
1 6.2831853071795862 0 0 -1 
1 0 0 0 1 
1 9.4247779607693793 0 -1 0 
1 9.4247779607693793 0 -1 0 
1 3.1415926535897931 0 -1 0 
1 3.1415926535897931 0 -1 0 
1 3.1415926535897931 133 1 0 
1 -3.1415926535897931 133 1 0 
1 -3.1415926535897931 133 1 0 
1 3.1415926535897931 133 1 0 
Curves 24
1 -230.30000000000001 133 -134.80000000000001 0 0 1 
1 -230.30000000000001 133 -59.500000000000014 0 -1 0 
1 -230.30000000000001 0 -134.80000000000001 0 0 1 
1 -230.30000000000001 133 59.500000000000028 -0 1 -0 
1 -230.30000000000001 0 134.80000000000001 1 0 0 
1 155.00000000000003 133 134.80000000000001 -0 1 -0 
1 -230.30000000000001 133 134.80000000000001 1 0 0 
1 -155.00000000000003 133 134.80000000000001 0 -1 0 
1 230.30000000000001 0 -134.80000000000001 -0 -0 -1 
1 230.30000000000001 133 -59.500000000000014 -0 1 -0 
1 230.30000000000001 133 -134.80000000000001 -0 -0 -1 
1 230.30000000000001 133 59.500000000000028 0 -1 0 
1 -230.30000000000001 0 -134.80000000000001 -1 -0 -0 
1 -155.00000000000003 133 -134.80000000000001 -0 1 -0 
1 -230.30000000000001 133 -134.80000000000001 -1 -0 -0 
1 155.00000000000003 133 -134.80000000000001 0 -1 0 
2 -155.00000000000003 133 -59.500000000000014 0 1 0 0 -0 1 1 0 -0 75.299999999999997
2 -155.00000000000003 133 59.500000000000014 0 1 0 0 -0 1 1 0 -0 75.299999999999997
2 155.00000000000003 133 59.500000000000028 0 1 0 0 -0 1 1 0 -0 75.300000000000011
2 155.00000000000003 133 -59.500000000000014 0 1 0 0 -0 1 1 0 -0 75.299999999999997
2 -155.00000000000003 0 -59.500000000000014 -0 -1 -0 0 0 1 -1 0 0 75.299999999999997
2 155.00000000000003 0 -59.500000000000014 -0 -1 -0 0 0 1 -1 0 0 75.299999999999997
2 155.00000000000003 0 59.500000000000028 -0 -1 -0 0 0 1 -1 0 0 75.300000000000011
2 -155.00000000000003 0 59.500000000000014 -0 -1 -0 0 0 1 -1 0 0 75.299999999999997
Polygon3D 0
PolygonOnTriangulations 64
2 55 59 
p 5.65844961422544 1 75.3 194.3 
2 1 2 
p 5.65844961422544 1 75.3 194.3 
2 3 7 
p 5.65844961422544 1 75.3 194.3 
2 2 7 
p 5.65844961422544 1 0 133 
2 1 3 
p 5.65844961422544 1 0 133 
2 53 54 
p 5.65844961422544 1 75.3 194.3 
2 3 4 
p 5.65844961422544 1 75.3 194.3 
2 1 2 
p 5.65844961422544 1 75.3 194.3 
2 6 1 
p 5.65844961422544 1 -133 0 
2 4 2 
p 5.65844961422544 1 -133 0 
2 69 65 
p 5.65844961422544 1 75.3 385.3 
2 1 2 
p 5.65844961422544 1 75.3 385.3 
2 17 13 
p 5.65844961422544 1 75.3 385.3 
2 6 1 
p 5.65844961422544 1 -133 0 
2 2 3 
p 5.65844961422544 1 -133 0 
2 60 64 
p 5.65844961422544 1 75.3 385.3 
2 4 3 
p 5.65844961422544 1 75.3 385.3 
2 8 12 
p 5.65844961422544 1 75.3 385.3 
2 2 7 
p 5.65844961422544 1 0 133 
2 4 1 
p 5.65844961422544 1 0 133 
2 64 60 
p 5.65844961422544 1 -194.3 -75.3 
2 1 2 
p 5.65844961422544 1 -194.3 -75.3 
2 12 8 
p 5.65844961422544 1 -194.3 -75.3 
2 6 1 
p 5.65844961422544 1 -133 0 
2 2 3 
p 5.65844961422544 1 -133 0 
2 65 69 
p 5.65844961422544 1 -194.3 -75.3 
2 4 3 
p 5.65844961422544 1 -194.3 -75.3 
2 13 17 
p 5.65844961422544 1 -194.3 -75.3 
2 2 7 
p 5.65844961422544 1 0 133 
2 4 1 
p 5.65844961422544 1 0 133 
2 59 55 
p 5.65844961422544 1 -385.3 -75.3 
2 1 2 
p 5.65844961422544 1 -385.3 -75.3 
2 7 3 
p 5.65844961422544 1 -385.3 -75.3 
2 6 1 
p 5.65844961422544 1 -133 0 
2 2 3 
p 5.65844961422544 1 -133 0 
2 53 54 
p 5.65844961422544 1 -385.3 -75.3 
2 4 3 
p 5.65844961422544 1 -385.3 -75.3 
2 1 2 
p 5.65844961422544 1 -385.3 -75.3 
2 2 7 
p 5.65844961422544 1 0 133 
2 4 1 
p 5.65844961422544 1 0 133 
5 54 56 57 58 55 
p 5.65844961422544 1 3.14159265358979 3.53429173528852 3.92699081698724 4.31968989868597 4.71238898038469 
5 1 3 4 5 2 
p 5.65844961422544 1 3.14159265358979 3.53429173528852 3.92699081698724 4.31968989868597 4.71238898038469 
5 2 4 5 6 3 
p 5.65844961422544 1 3.14159265358979 3.53429173528852 3.92699081698724 4.31968989868597 4.71238898038469 
5 59 61 62 63 60 
p 5.65844961422544 1 4.71238898038469 5.10508806208341 5.49778714378214 5.89048622548086 6.28318530717959 
5 1 3 4 5 2 
p 5.65844961422544 1 4.71238898038469 5.10508806208341 5.49778714378214 5.89048622548086 6.28318530717959 
5 7 9 10 11 8 
p 5.65844961422544 1 4.71238898038469 5.10508806208341 5.49778714378214 5.89048622548086 6.28318530717959 
5 64 66 67 68 65 
p 5.65844961422544 1 0 0.392699081698724 0.785398163397448 1.17809724509617 1.5707963267949 
5 1 3 4 5 2 
p 5.65844961422544 1 0 0.392699081698724 0.785398163397448 1.17809724509617 1.5707963267949 
5 12 14 15 16 13 
p 5.65844961422544 1 0 0.392699081698724 0.785398163397448 1.17809724509617 1.5707963267949 
5 69 70 71 72 53 
p 5.65844961422544 1 1.5707963267949 1.96349540849362 2.35619449019234 2.74889357189107 3.14159265358979 
5 1 3 4 5 2 
p 5.65844961422544 1 1.5707963267949 1.96349540849362 2.35619449019234 2.74889357189107 3.14159265358979 
5 17 18 19 20 1 
p 5.65844961422544 1 1.5707963267949 1.96349540849362 2.35619449019234 2.74889357189107 3.14159265358979 
5 53 56 57 58 55 
p 5.65844961422544 1 1.5707963267949 1.96349540849362 2.35619449019234 2.74889357189107 3.14159265358979 
5 7 8 9 10 6 
p 5.65844961422544 1 1.5707963267949 1.96349540849362 2.35619449019234 2.74889357189107 3.14159265358979 
5 1 4 5 6 3 
p 5.65844961422544 1 1.5707963267949 1.96349540849362 2.35619449019234 2.74889357189107 3.14159265358979 
5 59 61 62 63 60 
p 5.65844961422544 1 3.14159265358979 3.53429173528852 3.92699081698724 4.31968989868597 4.71238898038469 
5 7 8 9 10 6 
p 5.65844961422544 1 3.14159265358979 3.53429173528852 3.92699081698724 4.31968989868597 4.71238898038469 
5 7 9 10 11 8 
p 5.65844961422544 1 3.14159265358979 3.53429173528852 3.92699081698724 4.31968989868597 4.71238898038469 
5 64 66 67 68 65 
p 5.65844961422544 1 4.71238898038469 5.10508806208341 5.49778714378214 5.89048622548086 6.28318530717959 
5 7 8 9 10 6 
p 5.65844961422544 1 4.71238898038469 5.10508806208341 5.49778714378214 5.89048622548086 6.28318530717959 
5 12 14 15 16 13 
p 5.65844961422544 1 4.71238898038469 5.10508806208341 5.49778714378214 5.89048622548086 6.28318530717959 
5 69 70 71 72 54 
p 5.65844961422544 1 0 0.392699081698724 0.785398163397448 1.17809724509617 1.5707963267949 
5 7 8 9 10 6 
p 5.65844961422544 1 0 0.392699081698724 0.785398163397448 1.17809724509617 1.5707963267949 
5 17 18 19 20 2 
p 5.65844961422544 1 0 0.392699081698724 0.785398163397448 1.17809724509617 1.5707963267949 
Surfaces 10
1 -230.30000000000001 133 -134.80000000000001 1 0 0 0 0 -1 -0 1 0 
1 0 133 0 0 1 0 0 -0 1 1 0 -0 
2 -155.00000000000003 133 -59.500000000000014 0 -1 0 0 0 -1 1 0 0 75.299999999999997
1 0 0 0 0 1 0 0 -0 1 1 0 -0 
2 -155.00000000000003 133 59.500000000000014 0 -1 0 0 0 -1 1 0 0 75.299999999999997
1 -230.30000000000001 133 134.80000000000001 0 0 -1 -1 0 -0 0 1 0 
2 155.00000000000003 133 59.500000000000028 0 -1 0 0 0 -1 1 0 0 75.299999999999997
1 230.30000000000001 133 -134.80000000000001 -1 0 0 0 0 1 0 1 -0 
2 155.00000000000003 133 -59.500000000000014 0 -1 0 0 0 -1 1 0 0 75.299999999999997
1 -230.30000000000001 133 -134.80000000000001 0 0 1 1 0 -0 -0 1 0 
Triangulations 12
4 2 1 0
-230.3 133 -59.5 -230.3 133 59.5 -230.3 0 -59.5 -230.3 0 59.5 -75.3 0 -194.3 0 -75.3 -133 -194.3 -133 2 4 3 1 2 3 
72 78 1 2.93098878501041e-014
208.3 133 47.3 211.088339032263 133 47.9872638460808 213.237903195362 133 49.8916115196131 214.256253244588 133 52.5767799184681 213.910097456112 133 55.4276293222552 212.278735949445 133 57.7910644890266 209.735893985725 133 59.1256509045563 206.864106014275 133 59.1256509045563 204.321264050555 133 57.7910644890266 202.689902543888 133 55.4276293222552 202.343746755412 133 52.5767799184681 203.362096804638 133 49.8916115196131 205.511660967737 133 47.9872638460808 -208.3 133 -59.3 -205.511660967737 133 -58.6127361539192 -203.362096804638 133 -56.7083884803869 -202.343746755412 133 -54.0232200815319 -202.689902543888 133 -51.1723706777448 -204.321264050555 133 -48.8089355109734 -206.864106014275 133 -47.4743490954437 -209.735893985725 133 -47.4743490954437 -212.278735949445 133 -48.8089355109734 -213.910097456112 133 -51.1723706777448 -214.256253244588 133 -54.0232200815319 -213.237903195362 133 -56.7083884803869 -211.088339032263 133 -58.6127361539192 -172.3 133 101.7 -169.511660967737 133 102.387263846081 -167.362096804638 133 104.291611519613 -166.343746755412 133 106.976779918468 -166.689902543888 133 109.827629322255 -168.321264050555 133 112.191064489027 -170.864106014275 133 113.525650904556 -173.735893985725 133 113.525650904556 -176.278735949445 133 112.191064489027 -177.910097456113 133 109.827629322255 -178.256253244588 133 106.976779918468 -177.237903195362 133 104.291611519613 -175.088339032263 133 102.387263846081 172.3 133 -113.7 175.088339032263 133 -113.012736153919 177.237903195362 133 -111.108388480387 178.256253244588 133 -108.423220081532 177.910097456113 133 -105.572370677745 176.278735949445 133 -103.208935510973 173.735893985725 133 -101.874349095444 170.864106014275 133 -101.874349095444 168.321264050555 133 -103.208935510973 166.689902543888 133 -105.572370677745 166.343746755412 133 -108.423220081532 167.362096804638 133 -111.108388480387 169.511660967737 133 -113.012736153919 155 133 -134.8 -155 133 -134.8 -230.3 133 -59.5 -183.816062457091 133 -129.0681287981 -208.245140623347 133 -112.745140623347 -224.5681287981 133 -88.3160624570913 -230.3 133 59.5 -155 133 134.8 -224.5681287981 133 88.3160624570913 -208.245140623347 133 112.745140623347 -183.816062457091 133 129.0681287981 155 133 134.8 230.3 133 59.5 183.816062457091 133 129.0681287981 208.245140623347 133 112.745140623347 224.5681287981 133 88.3160624570913 230.3 133 -59.5 224.5681287981 133 -88.3160624570913 208.245140623347 133 -112.745140623347 183.816062457091 133 -129.0681287981 47.3 208.3 47.9872638460808 211.088339032263 49.8916115196131 213.237903195362 52.576779918468 214.256253244588 55.4276293222552 213.910097456112 57.7910644890266 212.278735949445 59.1256509045563 209.735893985725 59.1256509045563 206.864106014275 57.7910644890266 204.321264050555 55.4276293222552 202.689902543888 52.576779918468 202.343746755412 49.8916115196131 203.362096804638 47.9872638460808 205.511660967737 -59.3 -208.3 -58.6127361539192 -205.511660967737 -56.7083884803869 -203.362096804638 -54.0232200815319 -202.343746755412 -51.1723706777448 -202.689902543888 -48.8089355109734 -204.321264050555 -47.4743490954437 -206.864106014275 -47.4743490954437 -209.735893985725 -48.8089355109734 -212.278735949445 -51.1723706777448 -213.910097456112 -54.0232200815319 -214.256253244588 -56.7083884803869 -213.237903195362 -58.6127361539192 -211.088339032263 101.7 -172.3 102.387263846081 -169.511660967737 104.291611519613 -167.362096804638 106.976779918468 -166.343746755412 109.827629322255 -166.689902543888 112.191064489027 -168.321264050555 113.525650904556 -170.864106014275 113.525650904556 -173.735893985725 112.191064489027 -176.278735949445 109.827629322255 -177.910097456113 106.976779918468 -178.256253244588 104.291611519613 -177.237903195362 102.387263846081 -175.088339032263 -113.7 172.3 -113.012736153919 175.088339032263 -111.108388480387 177.237903195362 -108.423220081532 178.256253244588 -105.572370677745 177.910097456113 -103.208935510973 176.278735949445 -101.874349095444 173.735893985725 -101.874349095444 170.864106014275 -103.208935510973 168.321264050555 -105.572370677745 166.689902543888 -108.423220081532 166.343746755412 -111.108388480387 167.362096804638 -113.012736153919 169.511660967737 -134.8 155 -134.8 -155 -59.5 -230.3 -129.0681287981 -183.816062457091 -112.745140623347 -208.245140623347 -88.3160624570913 -224.5681287981 59.5 -230.3 134.8 -155 88.3160624570913 -224.5681287981 112.745140623347 -208.245140623347 129.0681287981 -183.816062457091 134.8 155 59.5 230.3 129.0681287981 183.816062457091 112.745140623347 208.245140623347 88.3160624570913 224.5681287981 -59.5 230.3 -88.3160624570913 224.5681287981 -112.745140623347 208.245140623347 -129.0681287981 183.816062457091 65 2 3 65 3 4 65 4 5 65 5 6 63 36 62 65 69 2 63 33 34 63 34 35 63 35 36 64 10 11 60 30 31 64 29 30 60 31 32 64 30 60 60 33 63 60 32 33 64 49 29 64 48 49 64 11 48 66 9 10 66 10 64 68 6 7 26 58 55 68 7 8 26 55 25 68 65 6 67 8 9 24 25 55 67 9 66 52 53 51 67 68 8 14 58 26 50 51 53 23 24 55 40 53 52 40 72 53 15 57 58 49 54 29 15 58 14 49 53 54 22 23 55 49 50 53 16 54 56 41 72 40 16 56 57 16 57 15 42 72 41 17 54 16 18 54 17 71 42 43 71 43 44 71 44 45 59 19 20 59 20 21 59 21 22 71 72 42 70 45 46 59 22 55 70 71 45 69 46 47 69 70 46 12 47 48 13 47 12 13 69 47 38 61 62 39 61 38 39 59 61 11 12 48 37 38 62 1 69 13 27 19 59 27 59 39 36 37 62 2 69 1 28 18 19 28 19 27 29 54 18 29 18 28 
20 18 1 2.8421709430404e-014
155 133 -134.8 -155 133 -134.8 -230.3 133 -59.5 -183.816062457091 133 -129.0681287981 -208.245140623347 133 -112.745140623347 -224.5681287981 133 -88.3160624570913 -230.3 133 59.5 -155 133 134.8 -224.5681287981 133 88.3160624570913 -208.245140623347 133 112.745140623347 -183.816062457091 133 129.0681287981 155 133 134.8 230.3 133 59.5 183.816062457091 133 129.0681287981 208.245140623347 133 112.745140623347 224.5681287981 133 88.3160624570913 230.3 133 -59.5 224.5681287981 133 -88.3160624570913 208.245140623347 133 -112.745140623347 183.816062457091 133 -129.0681287981 -134.8 155 -134.8 -155 -59.5 -230.3 -129.0681287981 -183.816062457091 -112.745140623347 -208.245140623347 -88.3160624570913 -224.5681287981 59.5 -230.3 134.8 -155 88.3160624570913 -224.5681287981 112.745140623347 -208.245140623347 129.0681287981 -183.816062457091 134.8 155 59.5 230.3 129.0681287981 183.816062457091 112.745140623347 208.245140623347 88.3160624570913 224.5681287981 -59.5 230.3 -88.3160624570913 224.5681287981 -112.745140623347 208.245140623347 -129.0681287981 183.816062457091 3 2 4 3 4 5 3 5 6 8 3 7 8 7 9 8 9 10 8 10 11 8 2 3 19 20 1 17 18 19 17 19 1 12 1 2 12 13 17 12 2 8 12 17 1 15 12 14 15 16 13 15 13 12 
10 8 1 1.44686838563677
-155 133 -134.8 -230.3 133 -59.5 -183.816062457091 133 -129.0681287981 -208.245140623347 133 -112.745140623347 -224.5681287981 133 -88.3160624570913 -155 0 -134.8 -230.3 0 -59.5 -224.5681287981 0 -88.3160624570913 -208.245140623347 0 -112.745140623347 -183.816062457091 0 -129.0681287981 6.28318530717959 0 4.71238898038469 0 5.89048622548086 0 5.49778714378214 0 5.10508806208341 0 6.28318530717959 133 4.71238898038469 133 5.10508806208341 133 5.49778714378214 133 5.89048622548086 133 8 2 5 8 7 2 9 5 4 9 8 5 10 4 3 10 9 4 6 3 1 6 10 3 
72 78 1 3.19826551932705e-014
208.3 7.25603228494807e-016 47.3 211.088339032263 7.25603228494807e-016 47.9872638460807 213.237903195362 7.25603228494807e-016 49.8916115196131 214.256253244588 7.25603228494807e-016 52.5767799184681 213.910097456112 7.25603228494807e-016 55.4276293222552 212.278735949445 7.25603228494807e-016 57.7910644890266 209.735893985725 7.25603228494807e-016 59.1256509045563 206.864106014275 7.25603228494807e-016 59.1256509045563 204.321264050555 7.25603228494807e-016 57.7910644890266 202.689902543887 7.25603228494807e-016 55.4276293222552 202.343746755412 7.25603228494807e-016 52.5767799184681 203.362096804638 7.25603228494807e-016 49.8916115196131 205.511660967737 7.25603228494807e-016 47.9872638460807 -208.3 7.25603228494807e-016 -59.3 -205.511660967737 7.25603228494807e-016 -58.6127361539193 -203.362096804638 7.25603228494807e-016 -56.7083884803869 -202.343746755412 7.25603228494807e-016 -54.0232200815319 -202.689902543888 7.25603228494807e-016 -51.1723706777448 -204.321264050555 7.25603228494807e-016 -48.8089355109734 -206.864106014275 7.25603228494807e-016 -47.4743490954437 -209.735893985725 7.25603228494807e-016 -47.4743490954437 -212.278735949445 7.25603228494807e-016 -48.8089355109734 -213.910097456113 7.25603228494807e-016 -51.1723706777448 -214.256253244588 7.25603228494807e-016 -54.0232200815319 -213.237903195362 7.25603228494807e-016 -56.7083884803869 -211.088339032263 7.25603228494807e-016 -58.6127361539193 -172.3 7.25603228494807e-016 101.7 -169.511660967737 7.25603228494807e-016 102.387263846081 -167.362096804638 7.25603228494807e-016 104.291611519613 -166.343746755412 7.25603228494807e-016 106.976779918468 -166.689902543888 7.25603228494807e-016 109.827629322255 -168.321264050555 7.25603228494807e-016 112.191064489027 -170.864106014275 7.25603228494807e-016 113.525650904556 -173.735893985725 7.25603228494807e-016 113.525650904556 -176.278735949445 7.25603228494807e-016 112.191064489027 -177.910097456113 7.25603228494807e-016 109.827629322255 -178.256253244588 7.25603228494807e-016 106.976779918468 -177.237903195362 7.25603228494807e-016 104.291611519613 -175.088339032263 7.25603228494807e-016 102.387263846081 172.3 7.25603228494807e-016 -113.7 175.088339032263 7.25603228494807e-016 -113.012736153919 177.237903195362 7.25603228494807e-016 -111.108388480387 178.256253244588 7.25603228494807e-016 -108.423220081532 177.910097456113 7.25603228494807e-016 -105.572370677745 176.278735949445 7.25603228494807e-016 -103.208935510973 173.735893985725 7.25603228494807e-016 -101.874349095444 170.864106014275 7.25603228494807e-016 -101.874349095444 168.321264050555 7.25603228494807e-016 -103.208935510973 166.689902543888 7.25603228494807e-016 -105.572370677745 166.343746755412 7.25603228494807e-016 -108.423220081532 167.362096804638 7.25603228494807e-016 -111.108388480387 169.511660967737 7.25603228494807e-016 -113.012736153919 -230.3 0 -59.5 -230.3 0 59.5 -155 0 -134.8 -224.5681287981 0 -88.3160624570913 -208.245140623347 0 -112.745140623347 -183.816062457091 0 -129.0681287981 155 0 -134.8 230.3 0 -59.5 183.816062457091 0 -129.0681287981 208.245140623347 0 -112.745140623347 224.5681287981 0 -88.3160624570913 230.3 0 59.5 155 0 134.8 224.5681287981 0 88.3160624570913 208.245140623347 0 112.745140623347 183.816062457091 0 129.0681287981 -155 0 134.8 -183.816062457091 0 129.0681287981 -208.245140623347 0 112.745140623347 -224.5681287981 0 88.3160624570913 47.3 208.3 47.9872638460807 211.088339032263 49.8916115196131 213.237903195362 52.576779918468 214.256253244588 55.4276293222552 213.910097456113 57.7910644890266 212.278735949445 59.1256509045563 209.735893985725 59.1256509045563 206.864106014275 57.7910644890266 204.321264050555 55.4276293222552 202.689902543888 52.576779918468 202.343746755412 49.8916115196131 203.362096804638 47.9872638460807 205.511660967737 -59.3 -208.3 -58.6127361539193 -205.511660967737 -56.7083884803869 -203.362096804638 -54.0232200815319 -202.343746755412 -51.1723706777448 -202.689902543888 -48.8089355109734 -204.321264050555 -47.4743490954437 -206.864106014275 -47.4743490954437 -209.735893985725 -48.8089355109734 -212.278735949445 -51.1723706777448 -213.910097456113 -54.0232200815319 -214.256253244588 -56.7083884803869 -213.237903195362 -58.6127361539193 -211.088339032263 101.7 -172.3 102.387263846081 -169.511660967737 104.291611519613 -167.362096804638 106.976779918468 -166.343746755412 109.827629322255 -166.689902543888 112.191064489027 -168.321264050555 113.525650904556 -170.864106014275 113.525650904556 -173.735893985725 112.191064489027 -176.278735949445 109.827629322255 -177.910097456113 106.976779918468 -178.256253244588 104.291611519613 -177.237903195362 102.387263846081 -175.088339032263 -113.7 172.3 -113.012736153919 175.088339032263 -111.108388480387 177.237903195362 -108.423220081532 178.256253244588 -105.572370677745 177.910097456113 -103.208935510973 176.278735949445 -101.874349095444 173.735893985725 -101.874349095444 170.864106014275 -103.208935510973 168.321264050555 -105.572370677745 166.689902543888 -108.423220081532 166.343746755412 -111.108388480387 167.362096804638 -113.012736153919 169.511660967737 -59.5 -230.3 59.5 -230.3 -134.8 -155 -88.3160624570913 -224.5681287981 -112.745140623347 -208.245140623347 -129.0681287981 -183.816062457091 -134.8 155 -59.5 230.3 -129.0681287981 183.816062457091 -112.745140623347 208.245140623347 -88.3160624570913 224.5681287981 59.5 230.3 134.8 155 88.3160624570913 224.5681287981 112.745140623347 208.245140623347 129.0681287981 183.816062457091 134.8 -155 129.0681287981 -183.816062457091 112.745140623347 -208.245140623347 88.3160624570913 -224.5681287981 64 2 3 64 3 4 64 4 5 64 5 6 64 60 2 70 36 71 70 33 34 65 10 11 70 34 35 70 35 36 65 29 30 65 30 69 65 49 29 69 33 70 65 48 49 69 30 31 69 31 32 65 11 48 69 32 33 66 64 6 66 6 7 66 7 8 26 56 53 68 9 10 26 53 25 68 10 65 67 8 9 67 9 68 24 25 53 67 66 8 52 59 51 14 56 26 50 51 59 23 24 53 15 57 56 40 59 52 40 61 59 49 55 29 15 56 14 49 59 55 49 50 59 22 23 53 16 58 57 16 55 58 41 61 40 16 57 15 42 61 41 17 55 16 18 55 17 62 42 43 54 19 20 62 43 44 54 20 21 62 44 45 54 21 22 62 61 42 63 45 46 54 22 53 63 62 45 60 46 47 60 63 46 12 47 48 38 72 71 13 47 12 13 60 47 39 72 38 39 54 72 37 38 71 11 12 48 1 60 13 27 19 54 27 54 39 36 37 71 2 60 1 28 19 27 28 18 19 29 55 18 29 18 28 
20 18 1 2.8421709430404e-014
-230.3 0 -59.5 -230.3 0 59.5 -155 0 -134.8 -224.5681287981 0 -88.3160624570913 -208.245140623347 0 -112.745140623347 -183.816062457091 0 -129.0681287981 155 0 -134.8 230.3 0 -59.5 183.816062457091 0 -129.0681287981 208.245140623347 0 -112.745140623347 224.5681287981 0 -88.3160624570913 230.3 0 59.5 155 0 134.8 224.5681287981 0 88.3160624570913 208.245140623347 0 112.745140623347 183.816062457091 0 129.0681287981 -155 0 134.8 -183.816062457091 0 129.0681287981 -208.245140623347 0 112.745140623347 -224.5681287981 0 88.3160624570913 -59.5 -230.3 59.5 -230.3 -134.8 -155 -88.3160624570913 -224.5681287981 -112.745140623347 -208.245140623347 -129.0681287981 -183.816062457091 -134.8 155 -59.5 230.3 -129.0681287981 183.816062457091 -112.745140623347 208.245140623347 -88.3160624570913 224.5681287981 59.5 230.3 134.8 155 88.3160624570913 224.5681287981 112.745140623347 208.245140623347 129.0681287981 183.816062457091 134.8 -155 129.0681287981 -183.816062457091 112.745140623347 -208.245140623347 88.3160624570913 -224.5681287981 3 6 5 1 5 4 1 3 5 18 20 19 17 1 2 17 2 20 17 3 1 17 20 18 10 9 7 8 11 10 8 10 7 13 7 3 13 12 8 13 3 17 13 8 7 14 13 16 14 12 13 15 14 16 
10 8 1 1.44686838563676
-230.3 133 59.5 -155 133 134.8 -224.5681287981 133 88.3160624570913 -208.245140623347 133 112.745140623347 -183.816062457091 133 129.0681287981 -230.3 0 59.5 -155 0 134.8 -183.816062457091 0 129.0681287981 -208.245140623347 0 112.745140623347 -224.5681287981 0 88.3160624570913 4.71238898038469 0 3.14159265358979 0 4.31968989868597 0 3.92699081698724 0 3.53429173528852 0 4.71238898038469 133 3.14159265358979 133 3.53429173528852 133 3.92699081698724 133 4.31968989868597 133 7 2 5 8 5 4 8 7 5 9 4 3 9 8 4 10 9 3 6 3 1 6 10 3 
4 2 1 0
-155 0 134.8 155 0 134.8 155 133 134.8 -155 133 134.8 -75.3 -133 -385.3 -133 -385.3 0 -75.3 0 4 2 1 4 3 2 
10 8 1 1.44686838563676
155 133 134.8 230.3 133 59.5 183.816062457091 133 129.0681287981 208.245140623347 133 112.745140623347 224.5681287981 133 88.3160624570913 155 0 134.8 230.3 0 59.5 224.5681287981 0 88.3160624570913 208.245140623347 0 112.745140623347 183.816062457091 0 129.0681287981 3.14159265358979 0 1.5707963267949 0 2.74889357189107 0 2.35619449019234 0 1.96349540849362 0 3.14159265358979 133 1.5707963267949 133 1.96349540849362 133 2.35619449019235 133 2.74889357189107 133 7 2 5 8 5 4 8 7 5 9 4 3 9 8 4 10 3 1 10 9 3 6 10 1 
4 2 1 7.105427357601e-015
230.3 0 59.5 230.3 0 -59.5 230.3 133 -59.5 230.3 133 59.5 194.3 -133 75.3 -133 75.3 0 194.3 0 4 2 1 4 3 2 
10 8 1 1.44686838563677
230.3 133 -59.5 155 133 -134.8 224.5681287981 133 -88.3160624570913 208.245140623347 133 -112.745140623347 183.816062457091 133 -129.0681287981 230.3 0 -59.5 155 0 -134.8 183.816062457091 0 -129.0681287981 208.245140623347 0 -112.745140623347 224.5681287981 0 -88.3160624570913 1.5707963267949 0 0 0 1.17809724509617 0 0.785398163397448 0 0.392699081698724 0 1.5707963267949 133 0 133 0.392699081698724 133 0.785398163397448 133 1.17809724509617 133 8 2 5 8 7 2 9 5 4 9 8 5 10 4 3 10 9 4 6 3 1 6 10 3 
4 2 1 0
155 0 -134.8 -155 0 -134.8 -155 133 -134.8 155 133 -134.8 385.3 -133 75.3 -133 75.3 0 385.3 0 4 2 1 4 3 2 

TShapes 63
Ve
1e-007
-230.3 133 -59.5
0 0

0101101
*
Ve
1e-007
-230.3 133 59.5
0 0

0101101
*
Ed
 1e-007 1 1 0
1  1 0 75.3 194.3
4 C0 1 0 2 0
6  1 2 0
6  2 1 0
6  3 3 0
0

0101000
+63 0 -62 0 *
Ve
1e-007
-230.3 0 -59.5
0 0

0101101
*
Ed
 1e-007 1 1 0
1  2 0 0 133
2  1 3 0 0 133
4 G1 1 0 3 0
6  4 4 0
6  5 1 0
0

0101000
+63 0 -60 0 *
Ve
1e-007
-230.3 0 59.5
0 0

0101101
*
Ed
 1e-007 1 1 0
1  3 0 75.3 194.3
4 C0 1 0 4 0
6  6 5 0
6  7 1 0
6  8 6 0
0

0101000
+60 0 -58 0 *
Ed
 1e-007 1 1 0
1  4 0 -133 0
2  2 5 0 -133 0
4 G1 1 0 5 0
6  9 7 0
6  10 1 0
0

0101000
+58 0 -62 0 *
Wi

0101100
-61 0 +59 0 +57 0 +56 0 *
Fa
0  1e-007 1 0
2  1
0101000
-55 0 *
Ve
1e-007
-155 0 134.8
0 0

0101101
*
Ve
1e-007
155 0 134.8
0 0

0101101
*
Ed
 1e-007 1 1 0
1  5 0 75.3 385.3
4 C0 6 0 4 0
6  11 5 0
6  12 8 0
6  13 6 0
0

0101000
+53 0 -52 0 *
Ve
1e-007
155 133 134.8
0 0

0101101
*
Ed
 1e-007 1 1 0
1  6 0 -133 0
2  3 7 0 -133 0
4 G1 6 0 7 0
6  14 9 0
6  15 8 0
0

0101000
+52 0 -50 0 *
Ve
1e-007
-155 133 134.8
0 0

0101101
*
Ed
 1e-007 1 1 0
1  7 0 75.3 385.3
4 C0 6 0 2 0
6  16 2 0
6  17 8 0
6  18 3 0
0

0101000
+48 0 -50 0 *
Ed
 1e-007 1 1 0
1  8 0 0 133
2  4 5 0 0 133
4 G1 6 0 5 0
6  19 7 0
6  20 8 0
0

0101000
+48 0 -53 0 *
Wi

0101100
+51 0 +49 0 -47 0 +46 0 *
Fa
0  1e-007 6 0
2  8
0101000
-45 0 *
Ve
1e-007
230.3 0 59.5
0 0

0101101
*
Ve
1e-007
230.3 0 -59.5
0 0

0101101
*
Ed
 1e-007 1 1 0
1  9 0 -194.3 -75.3
4 C0 8 0 4 0
6  21 5 0
6  22 10 0
6  23 6 0
0

0101000
+43 0 -42 0 *
Ve
1e-007
230.3 133 -59.5
0 0

0101101
*
Ed
 1e-007 1 1 0
1  10 0 -133 0
2  5 9 0 -133 0
4 G1 8 0 9 0
6  24 11 0
6  25 10 0
0

0101000
+42 0 -40 0 *
Ve
1e-007
230.3 133 59.5
0 0

0101101
*
Ed
 1e-007 1 1 0
1  11 0 -194.3 -75.3
4 C0 8 0 2 0
6  26 2 0
6  27 10 0
6  28 3 0
0

0101000
+38 0 -40 0 *
Ed
 1e-007 1 1 0
1  12 0 0 133
2  6 7 0 0 133
4 G1 8 0 7 0
6  29 9 0
6  30 10 0
0

0101000
+38 0 -43 0 *
Wi

0101100
+41 0 +39 0 -37 0 +36 0 *
Fa
0  1e-007 8 0
2  10
0101000
-35 0 *
Ve
1e-007
155 0 -134.8
0 0

0101101
*
Ve
1e-007
-155 0 -134.8
0 0

0101101
*
Ed
 1e-007 1 1 0
1  13 0 -385.3 -75.3
4 C0 10 0 4 0
6  31 5 0
6  32 12 0
6  33 6 0
0

0101000
+33 0 -32 0 *
Ve
1e-007
-155 133 -134.8
0 0

0101101
*
Ed
 1e-007 1 1 0
1  14 0 -133 0
2  7 3 0 -133 0
4 G1 10 0 3 0
6  34 4 0
6  35 12 0
0

0101000
+32 0 -30 0 *
Ve
1e-007
155 133 -134.8
0 0

0101101
*
Ed
 1e-007 1 1 0
1  15 0 -385.3 -75.3
4 C0 10 0 2 0
6  36 2 0
6  37 12 0
6  38 3 0
0

0101000
+28 0 -30 0 *
Ed
 1e-007 1 1 0
1  16 0 0 133
2  8 9 0 0 133
4 G1 10 0 9 0
6  39 11 0
6  40 12 0
0

0101000
+28 0 -33 0 *
Wi

0101100
+31 0 +29 0 -27 0 +26 0 *
Fa
0  1e-007 10 0
2  12
0101000
-25 0 *
Ed
 1e-007 1 1 0
1  17 0 3.14159265358979 4.71238898038469
2  9 3 0 3.14159265358979 4.71238898038469
4 C0 2 0 3 0
6  41 2 0
6  42 4 0
6  43 3 0
0

0101000
+30 0 -63 0 *
Ed
 1e-007 1 1 0
1  18 0 4.71238898038469 6.28318530717959
2  10 5 0 4.71238898038469 6.28318530717959
4 C0 2 0 5 0
6  44 2 0
6  45 7 0
6  46 3 0
0

0101000
+62 0 -48 0 *
Ed
 1e-007 1 1 0
1  19 0 0 1.5707963267949
2  11 7 0 0 1.5707963267949
4 C0 2 0 7 0
6  47 2 0
6  48 9 0
6  49 3 0
0

0101000
+50 0 -38 0 *
Ed
 1e-007 1 1 0
1  20 0 1.5707963267949 3.14159265358979
2  12 9 0 1.5707963267949 3.14159265358979
4 C0 2 0 9 0
6  50 2 0
6  51 11 0
6  52 3 0
0

0101000
+40 0 -28 0 *
Wi

0101100
+27 0 +23 0 +61 0 +22 0 +47 0 +21 0 +37 0 +20 0 *
Fa
0  1e-007 2 0
2  3
0101000
+19 0 *
Ed
 1e-007 1 1 0
1  21 0 1.5707963267949 3.14159265358979
2  13 3 0 1.5707963267949 3.14159265358979
4 C0 4 0 3 0
6  53 5 0
6  54 4 0
6  55 6 0
0

0101000
+60 0 -32 0 *
Ed
 1e-007 1 1 0
1  22 0 3.14159265358979 4.71238898038469
2  14 9 0 3.14159265358979 4.71238898038469
4 C0 4 0 9 0
6  56 5 0
6  57 11 0
6  58 6 0
0

0101000
+33 0 -42 0 *
Ed
 1e-007 1 1 0
1  23 0 4.71238898038469 6.28318530717959
2  15 7 0 4.71238898038469 6.28318530717959
4 C0 4 0 7 0
6  59 5 0
6  60 9 0
6  61 6 0
0

0101000
+43 0 -52 0 *
Ed
 1e-007 1 1 0
1  24 0 0 1.5707963267949
2  16 5 0 0 1.5707963267949
4 C0 4 0 5 0
6  62 5 0
6  63 7 0
6  64 6 0
0

0101000
+53 0 -58 0 *
Wi

0101100
-57 0 +17 0 -31 0 +16 0 -41 0 +15 0 -51 0 +14 0 *
Fa
0  1e-007 4 0
2  6
0101000
-13 0 *
Wi

0101100
-23 0 -29 0 -17 0 -59 0 *
Fa
0  1e-007 3 0
2  4
0101000
+11 0 *
Wi

0101100
-20 0 -39 0 -16 0 -26 0 *
Fa
0  1e-007 9 0
2  11
0101000
+9 0 *
Wi

0101100
-21 0 -49 0 -15 0 -36 0 *
Fa
0  1e-007 7 0
2  9
0101000
+7 0 *
Wi

0101100
-22 0 -56 0 -14 0 -46 0 *
Fa
0  1e-007 5 0
2  7
0101000
+5 0 *
Sh

0101100
-54 0 -44 0 -34 0 -24 0 +18 0 -12 0 +10 0 +8 0 +6 0 +4 0 
*
So

0100000
+3 0 *
Co

1100000
+2 6 *

+1 0 