DBRep_DrawableShape

CASCADE Topology V1, (c) Matra-Datavision
Locations 0
Curve2ds 66
1 -26.087695023914421 -29.628198392016202 -0.70710678118654757 0.70710678118654757 
1 10.000000000005457 2.5035139403989026 2.4914782675304315e-026 1 
1 -3.9269908169872414 0 1 0 
2 35.860226189794048 -63.291848358263451 1 0 -0 1 20
1 -2.3561944901923448 0 1 0 
2 -32.068705998335645 18.779219453595942 1 0 0 -1 30
1 55.860226189794048 -6.8603902732020288 0 1 
1 -10.000000000005457 6.8603902732020288 -1.7617411781496812e-026 1 
1 -13.322386905103485 48.779219453595942 -1 1.2529047266548839e-051 
1 -13.322386905103485 10.000000000005457 1 -7.1117411694422824e-026 
1 -4.7123889803846897 0 1 0 
2 45.860226189794048 38.779219453595942 1 0 0 -1 10
1 -9.1597738102063886 -6.7207805464036028 0.00018018017724859389 0.99999998376755173 
8 0 55.500000900900403
1 -10 -27.750000450449956 1.2813375897106932e-029 1 
1 5.4326130948975333 48.779219453595942 -1 1.2529047266548839e-051 
1 5.4326130948975333 10.000000000005457 1 -7.1117411694422824e-026 
1 6.283185307179652 10 -1 0 
7 0 0  8 9 2  -9.1597737658851646 -6.7208015989656573  -12.887908282069318 -6.7286503032102098  -16.612525124520612 -8.408930232322863  -19.45843922053124 -11.756810007584725  -20.553934871656534 -16.232777506612855  -19.449015118447242 -20.706442745582915  -16.596100197192325 -24.048338159568527  -12.867916588174866 -25.720780546403862  -9.1397738102059467 -25.720780546404058 
 3.1437001343694999 9 6.2831853071795898 9
1 -9.1297738102075527 48.779219453595942 -0.00018018017724859389 -0.99999998376755173 
8 0 55.500000900900403
1 10 27.750000450449956 1.2813375897106932e-029 -1 
1 6.2831853071795862 10 -1 0 
2 -9.139773810205952 -16.220780546404058 -4.5650617788863342e-017 1 -1 -4.5650617788863342e-017 9.5
1 0 0 0 1 
1 10.000000000005457 -65.104076400848498 -1 2.4914782675304315e-026 
1 0 0 0 1 
1 10.000000000005457 40.961940777124255 -1 2.4914782675304315e-026 
1 5.4569682106377261e-012 2.5035139403989026 -2.4914782675304315e-026 -1 
1 -26.087695023914421 29.628198392016202 0.70710678118654757 0.70710678118654757 
1 2.3561944901923448 0 0 1 
1 -10.000000000005457 -49.571067811859393 1 1.761741178149681e-026 
1 -3.9269908169872414 10 1 0 
2 35.860226189794048 63.291848358263451 1 0 0 -1 20
1 2.3561944901923448 0 0 1 
1 5.4239321881286742 10.000000000005457 -7.1117411694422824e-026 -1 
1 -2.3561944901923448 10 1 0 
2 -32.068705998335645 -18.779219453595942 1 0 -0 1 30
1 1.5707963267948966 0 0 1 
1 -10.000000000005457 52.5 1 1.7617411781496812e-026 
1 -5.4569682106375694e-012 6.8603902732020288 -1.7617411781496812e-026 1 
1 55.860226189794048 6.8603902732020288 0 -1 
1 -17.495000000002619 10 0 -1 
8 0 10
1 -10 27.750000450450447 1 -1.2813375897592025e-029 
1 -13.322386905103485 5.4569682106375694e-012 1 -7.1117411694422824e-026 
1 -13.322386905103485 -48.779219453595942 -1 -1.2529047266548839e-051 
1 0 0 0 1 
1 -34.994999999998981 10.000000000005457 -7.1117411694422824e-026 -1 
1 -4.7123889803846897 10 1 0 
2 45.860226189794048 -38.779219453595942 1 0 -0 1 10
1 -10 -27.750000450449992 1 -1.2813375897592025e-029 
8 0 10
1 3.1394851728101507 10 -0 -1 
1 -3.5557118700240802e-028 -27.750000450449992 1.2813375897106932e-029 1 
8 0 55.500000900900403
1 -9.1597738102039727 6.7207805464035673 0.00018018017724859389 -0.99999998376755173 
1 10 27.750000450449992 -1 -1.2813375897592025e-029 
8 0 10
1 19.995000000002619 10 -0 -1 
1 5.4326130948975333 5.4569682106375694e-012 1 -7.1117411694422824e-026 
1 5.4326130948975333 -48.779219453595942 -1 -1.2529047266548839e-051 
1 3.1415926535897931 0 0 1 
8 0 10
1 0 0 -0 1 
2 -9.1397632727966993 16.220770008996169 -1.1091995905048152e-006 0.99999999999938483 0.99999999999938483 1.1091995905048152e-006 9.5000105374137327
8 3.1437001343694999 6.2831853071798163
1 6.28318530717958 0 -1 -0 
1 -3.5557118700240802e-028 27.750000450449992 1.2813375897106932e-029 -1 
8 0 55.500000900900403
1 -9.1297738102063306 -48.779219453595907 -0.00018018017724859389 0.99999998376755173 
1 3.5557118700240802e-028 -27.750000450450447 1 1.2813375897592025e-029 
8 0 10
1 0 0 -0 1 
2 -9.1397632727966993 16.220770008996169 -1.1091995905048152e-006 0.99999999999938483 0.99999999999938483 1.1091995905048152e-006 9.5000105374137327
7 0 0  1 2 2  3.14159265358979 0  0 0 
 6.2831853071798163 2 9.4247801791711705 2
Curves 32
1 12982.700000000003 3611.5947620334209 17286.947921213712 -3.7830212731909692e-026 0.70710678118654757 0.70710678118654757 
8 3.9269908169872894 6.2831853071795862
2 12982.700000000003 3577.9311120671737 17225.000000000004 1 -1.761741178149681e-026 7.1117411694422824e-026 7.1117411694422824e-026 0 -1 1.761741178149681e-026 1 1.2529047266548836e-051 20
8 2.3561944901923662 4.7123889803846897
2 12982.700000000003 3660.0021798790331 17292.928932188133 -1 1.7617411781496812e-026 -7.1117411694422824e-026 7.1117411694422824e-026 0 -1 -1.7617411781496812e-026 -1 -1.2529047266548839e-051 30
1 12982.700000000003 3634.3625701522351 17205.000000000004 1.7617411781496812e-026 1 1.2529047266548839e-051 
1 12982.700000000003 3690.0021798790331 17274.182613094901 -7.1117411694422824e-026 1.2529047266548839e-051 1 
8 4.7123889803846897 6.2831853071795862
2 12982.700000000003 3680.0021798790331 17215.000000000004 -1 1.7617411781496812e-026 -7.1117411694422824e-026 7.1117411694422824e-026 0 -1 -1.7617411781496812e-026 -1 -1.2529047266548839e-051 10
1 12982.699999999997 3634.5021798790335 17270.020000000004 0 0.99999998376755173 -0.00018018017724859389 
1 12982.700000000003 3690.0021798790331 17255.4276130949 -7.1117411694422824e-026 1.2529047266548839e-051 1 
2 12982.699999999997 3625.002190416441 17269.999989462594 1 0 0 0 -0.99999999999938483 1.1091995905048152e-006 0 -1.1091995905048152e-006 -0.99999999999938483 9.5000105374136421
1 12982.699999999997 3690.0021798790331 17269.990000000005 0 -0.99999998376755173 0.00018018017724859389 
2 12982.699999999997 3625.0021798790331 17270.000000000004 1 0 0 -0 1 4.5650617788863342e-017 0 -4.5650617788863342e-017 1 9.5
1 12982.700000000003 3563.7889764434426 17239.142135623733 -1 1.761741178149681e-026 -7.1117411694422824e-026 
1 12982.700000000003 3638.7889764434367 17314.14213562373 -1 1.7617411781496812e-026 -7.1117411694422824e-026 
1 12972.700000000003 3611.5947620334209 17286.947921213712 3.7830212731909692e-026 -0.70710678118654757 -0.70710678118654757 
1 12982.700000000003 3577.9311120671737 17205.000000000004 -1 1.761741178149681e-026 -7.1117411694422824e-026 
8 3.9269908169872894 6.2831853071795862
2 12972.700000000003 3577.9311120671737 17225.000000000004 1 -1.761741178149681e-026 7.1117411694422824e-026 7.1117411694422824e-026 0 -1 1.761741178149681e-026 1 1.2529047266548836e-051 20
1 12982.700000000003 3690.0021798790331 17292.928932188133 -1 1.7617411781496812e-026 -7.1117411694422824e-026 
8 2.3561944901923662 4.7123889803846897
2 12972.700000000003 3660.0021798790331 17292.928932188133 -1 1.7617411781496812e-026 -7.1117411694422824e-026 7.1117411694422824e-026 0 -1 -1.7617411781496812e-026 -1 -1.2529047266548839e-051 30
1 12982.700000000003 3680.0021798790331 17205.000000000004 -1 1.7617411781496812e-026 -7.1117411694422824e-026 
1 12972.700000000003 3634.3625701522351 17205.000000000004 1.7617411781496812e-026 1 1.2529047266548839e-051 
1 12982.699999999997 3690.0021798790331 17270.010000000002 -1 0 0 
1 12972.700000000003 3690.0021798790331 17274.182613094901 -7.1117411694422824e-026 1.2529047266548839e-051 1 
1 12982.700000000003 3690.0021798790331 17215.000000000004 -1 1.7617411781496812e-026 -7.1117411694422824e-026 
8 4.7123889803846897 6.2831853071795862
2 12972.700000000003 3680.0021798790331 17215.000000000004 -1 1.7617411781496812e-026 -7.1117411694422824e-026 7.1117411694422824e-026 0 -1 -1.7617411781496812e-026 -1 -1.2529047266548839e-051 10
1 12982.699999999997 3634.5021798790335 17270.020000000004 -1 0 0 
1 12972.699999999997 3634.5021798790335 17270.020000000004 0 0.99999998376755173 -0.00018018017724859389 
1 12982.699999999997 3690.0021798790331 17269.990000000005 -1 0 0 
1 12972.700000000003 3690.0021798790331 17255.4276130949 -7.1117411694422824e-026 1.2529047266548839e-051 1 
1 12972.699999999997 3615.5021798790331 17270.000000000004 1 0 0 
2 12972.699999999997 3625.002190416441 17269.999989462594 1 0 0 0 -0.99999999999938483 1.1091995905048152e-006 0 -1.1091995905048152e-006 -0.99999999999938483 9.5000105374136421
1 12972.699999999997 3690.0021798790331 17269.990000000005 0 -0.99999998376755173 0.00018018017724859389 
1 12972.699999999997 3634.5021798790335 17270.000000000004 1 0 0 
Polygon3D 0
PolygonOnTriangulations 0
Surfaces 13
1 12982.700000000003 3641.2229604254371 17260.860226189798 1 -1.7617411781496812e-026 7.1117411694422824e-026 7.1117411694422824e-026 0 -1 1.7617411781496812e-026 1 1.2529047266548839e-051 
1 12972.699999999997 3609.8245103493696 17285.177669529661 -6.274499540721403e-026 -0.70710678118654757 0.70710678118654757 1 -1.1479437019748899e-041 8.8734823475919613e-026 -6.2744995407214007e-026 0.70710678118654757 0.70710678118654757 
2 12982.700000000003 3577.9311120671737 17225.000000000004 -1 1.761741178149681e-026 -7.1117411694422824e-026 -6.274499540721403e-026 -0.70710678118654757 0.70710678118654757 3.7830212731909692e-026 -0.70710678118654757 -0.70710678118654757 20
2 12982.700000000003 3660.0021798790331 17292.928932188133 -1 1.7617411781496812e-026 -7.1117411694422824e-026 -6.274499540721403e-026 -0.70710678118654757 0.70710678118654757 -3.7830212731909692e-026 0.70710678118654757 0.70710678118654757 30
1 12972.699999999997 3627.5021798790331 17205.000000000004 7.1117411694422824e-026 0 -1 -1 0 -7.1117411694422824e-026 0 1 0 
1 12972.699999999997 3690.0021798790331 17287.505000000005 1.7617411781496812e-026 1 0 0 -0 1 1 -1.7617411781496812e-026 -0 
2 12982.700000000003 3680.0021798790331 17215.000000000004 -1 1.7617411781496812e-026 -7.1117411694422824e-026 1.7617411781496812e-026 1 0 7.1117411694422824e-026 -1.2529047266548839e-051 -1 10
1 12972.699999999997 3662.2521798790331 17270.014999999999 7.1114236231635546e-026 -0.00018018017725541518 -0.99999998376755173 -1 0 -7.1114237385993728e-026 1.2813375897592023e-029 0.99999998376755173 -0.00018018017725541518 
1 12972.699999999997 3690.0021798790331 17249.995000000003 1.7617411781496812e-026 1 0 0 -0 1 1 -1.7617411781496812e-026 -0 
2 12972.699999999997 3625.002190416441 17269.999989462594 1 -0 -0 0 -0.99999999999938483 1.1091995905048152e-006 0 1.1091995905048152e-006 0.99999999999938483 9.5000105374136421
1 12972.699999999997 3662.2521798790335 17269.995000000006 -7.1114236231635546e-026 0.00018018017725541518 0.99999998376755173 1 0 7.1114237385993728e-026 1.2813375897592023e-029 0.99999998376755173 -0.00018018017725541518 
2 12972.699999999997 3625.0021798790331 17270.000000000004 1 -0 -0 0 1 4.5650617788863342e-017 -0 4.5650617788863342e-017 -1 9.5
1 12972.700000000003 3641.2229604254371 17260.860226189798 1 -1.7617411781496812e-026 7.1117411694422824e-026 7.1117411694422824e-026 0 -1 -1.7617411781496812e-026 -1 -1.2529047266548839e-051 
Triangulations 0

TShapes 83
Ve
1e-007
12982.7 3563.78897644344 17239.1421356237
0 0

0101101
*
Ve
1e-007
12982.7 3638.78897644344 17314.1421356237
0 0

0101101
*
Ed
 1e-007 1 1 0
1  1 0 -67.6075903412474 38.4584268367282
2  1 1 0 -67.6075903412474 38.4584268367282
2  2 2 0 -67.6075903412474 38.4584268367282
0

0101000
+83 0 -82 0 *
Ve
1e-007
12982.7 3577.93111206717 17205
0 0

0101101
*
Ed
 1e-007 1 1 0
1  2 0 3.92699081698729 6.28318530717959
2  3 3 0 3.92699081698729 6.28318530717959
2  4 1 0 3.92699081698729 6.28318530717959
0

0101000
+83 0 -80 0 *
Ve
1e-007
12982.7 3690.00217987903 17292.9289321881
0 0

0101101
*
Ed
 1e-007 1 1 0
1  3 0 2.35619449019237 4.71238898038469
2  5 4 0 2.35619449019237 4.71238898038469
2  6 1 0 2.35619449019237 4.71238898038469
0

0101000
+82 0 -78 0 *
Ve
1e-007
12982.7 3680.00217987903 17205
0 0

0101101
*
Ed
 1e-007 1 1 0
1  4 0 -56.4314580850614 45.639609726798
2  7 1 0 -56.4314580850614 45.639609726798
2  8 5 0 -56.4314580850614 45.639609726798
0

0101000
+80 0 -76 0 *
Ve
1e-007
12982.7 3690.00217987903 17270.01
0 0

0101101
*
Ed
 1e-007 1 1 0
1  5 0 -4.17261309490277 18.7463190932322
2  9 1 0 -4.17261309490277 18.7463190932322
2  10 6 0 -4.17261309490277 18.7463190932322
0

0101000
-78 0 +74 0 *
Ve
1e-007
12982.7 3690.00217987903 17215
0 0

0101101
*
Ed
 1e-007 1 1 0
1  6 0 4.71238898038469 6.28318530717959
2  11 7 0 4.71238898038469 6.28318530717959
2  12 1 0 4.71238898038469 6.28318530717959
0

0101000
+72 0 -76 0 *
Ve
4.71418606621631e-005
12982.7 3634.50217987903 17270.02
0 0

0101101
*
Ed
 1e-007 1 1 0
1  7 0 0 55.5000009009004
2  13 1 0 0 55.5000009009004
2  14 8 0 0 55.5000009009004
4 C0 1 0 8 0
0

0101000
+70 0 -74 0 *
Ve
1e-007
12982.7 3690.00217987903 17269.99
0 0

0101101
*
Ed
 1e-007 1 1 0
1  8 0 -40.4276130948965 14.5623869051014
2  15 1 0 -40.4276130948965 14.5623869051014
2  16 9 0 -40.4276130948965 14.5623869051014
0

0101000
+72 0 -68 0 *
Ve
4.71418606621631e-005
12982.7 3615.50217987903 17270
0 0

0101101
*
Ed
 4.71418606621631e-005 1 1 0
1  9 0 3.1437001343695 6.28318530717959
2  17 10 0 3.1437001343695 6.28318530717959
2  18 1 0 3.1437001343695 6.28318530717959
4 C0 1 0 10 0
0

0101000
+70 0 -66 0 *
Ve
1e-007
12982.7 3634.50217987903 17270
0 0

0101101
*
Ed
 1e-007 1 1 0
1  10 0 0 55.5000009009004
2  19 1 0 0 55.5000009009004
2  20 11 0 0 55.5000009009004
4 C0 1 0 11 0
0

0101000
+68 0 -64 0 *
Ed
 1e-007 1 1 0
1  11 0 3.14159265358979 6.28318530717959
2  21 12 0 3.14159265358979 6.28318530717959
2  22 1 0 3.14159265358979 6.28318530717959
4 C0 1 0 12 0
0

0101000
+66 0 -64 0 *
Wi

0101100
-81 0 +79 0 -77 0 +75 0 +73 0 -71 0 +69 0 +67 0 -65 0 +63 0 
-62 0 *
Fa
0  1e-007 1 0

0101000
+61 0 *
Ve
1e-007
12972.7 3563.78897644344 17239.1421356237
0 0

0101101
*
Ed
 1e-007 1 1 0
1  12 0 1.68442842055318e-024 10
2  23 3 0 1.68442842055318e-024 10
2  24 2 0 1.68442842055318e-024 10
4 G1 3 0 2 0
0

0101000
+83 0 -59 0 *
Ve
1e-007
12972.7 3638.78897644344 17314.1421356237
0 0

0101101
*
Ed
 1e-007 1 1 0
1  13 0 -9.58183346670853e-025 10
2  25 4 0 -9.58183346670853e-025 10
2  26 2 0 -9.58183346670853e-025 10
4 G1 4 0 2 0
0

0101000
+82 0 -57 0 *
Ed
 1e-007 1 1 0
1  14 0 -38.4584268367282 67.6075903412474
2  27 2 0 -38.4584268367282 67.6075903412474
2  28 13 0 -38.4584268367282 67.6075903412474
0

0101000
-59 0 +57 0 *
Wi

0101100
+81 0 -58 0 +56 0 +55 0 *
Fa
0  1e-007 2 0

0101000
+54 0 *
Ve
1e-007
12972.7 3577.93111206717 17205
0 0

0101101
*
Ed
 1e-007 1 1 0
1  15 0 9.94176234514805e-025 10
2  29 3 0 9.94176234514805e-025 10
2  30 5 0 9.94176234514805e-025 10
4 G1 3 0 5 0
0

0101000
+80 0 -52 0 *
Ed
 1e-007 1 1 0
1  16 0 3.92699081698729 6.28318530717959
2  31 3 0 3.92699081698729 6.28318530717959
2  32 13 0 3.92699081698729 6.28318530717959
0

0101000
+59 0 -52 0 *
Wi

0101100
+79 0 -58 0 +51 0 -50 0 *
Fa
0  0 3 0

0101000
+49 0 *
Ve
1e-007
12972.7 3690.00217987903 17292.9289321881
0 0

0101101
*
Ed
 1e-007 1 1 0
1  17 0 1.33318969270841e-024 10
2  33 4 0 1.33318969270841e-024 10
2  34 6 0 1.33318969270841e-024 10
4 G1 4 0 6 0
0

0101000
+78 0 -47 0 *
Ed
 1e-007 1 1 0
1  18 0 2.35619449019237 4.71238898038469
2  35 4 0 2.35619449019237 4.71238898038469
2  36 13 0 2.35619449019237 4.71238898038469
0

0101000
+57 0 -47 0 *
Wi

0101100
+77 0 -56 0 +46 0 -45 0 *
Fa
0  0 4 0

0101000
+44 0 *
Ve
1e-007
12972.7 3680.00217987903 17205
0 0

0101101
*
Ed
 1e-007 1 1 0
1  19 0 -8.04051798103807e-025 10
2  37 7 0 -8.04051798103807e-025 10
2  38 5 0 -8.04051798103807e-025 10
4 G1 7 0 5 0
0

0101000
+76 0 -42 0 *
Ed
 1e-007 1 1 0
1  20 0 -56.4314580850614 45.639609726798
2  39 5 0 -56.4314580850614 45.639609726798
2  40 13 0 -56.4314580850614 45.639609726798
0

0101000
+52 0 -42 0 *
Wi

0101100
-75 0 +51 0 -41 0 +40 0 *
Fa
0  1e-007 5 0

0101000
+39 0 *
Ve
1e-007
12972.7 3690.00217987903 17270.01
0 0

0101101
*
Ed
 1e-007 1 1 0
1  21 0 0 10
2  41 6 0 0 10
2  42 8 0 0 10
4 C0 6 0 8 0
0

0101000
+74 0 -37 0 *
Ed
 1e-007 1 1 0
1  22 0 -4.17261309490277 18.7463190932322
2  43 6 0 -4.17261309490277 18.7463190932322
2  44 13 0 -4.17261309490277 18.7463190932322
0

0101000
-47 0 +37 0 *
Wi

0101100
-73 0 -46 0 +36 0 +35 0 *
Fa
0  1e-007 6 0

0101000
+34 0 *
Ve
1e-007
12972.7 3690.00217987903 17215
0 0

0101101
*
Ed
 1e-007 1 1 0
1  23 0 -2.87510720429259e-024 10
2  45 7 0 -2.87510720429259e-024 10
2  46 9 0 -2.87510720429259e-024 10
4 G1 7 0 9 0
0

0101000
+72 0 -32 0 *
Ed
 1e-007 1 1 0
1  24 0 4.71238898038469 6.28318530717959
2  47 7 0 4.71238898038469 6.28318530717959
2  48 13 0 4.71238898038469 6.28318530717959
0

0101000
+32 0 -42 0 *
Wi

0101100
+71 0 -31 0 +41 0 -30 0 *
Fa
0  0 7 0

0101000
+29 0 *
Ve
1e-007
12972.7 3634.50217987903 17270.02
0 0

0101101
*
Ed
 1e-007 1 1 0
1  25 0 0 10
2  49 8 0 0 10
2  50 10 0 0 10
4 C0 8 0 10 0
0

0101000
+70 0 -27 0 *
Ed
 1e-007 1 1 0
1  26 0 0 55.5000009009004
2  51 8 0 0 55.5000009009004
2  52 13 0 0 55.5000009009004
4 C0 8 0 13 0
0

0101000
+27 0 -37 0 *
Wi

0101100
-69 0 +26 0 +25 0 -36 0 *
Fa
0  1e-007 8 0

0101000
+24 0 *
Ve
1e-007
12972.7 3690.00217987903 17269.99
0 0

0101101
*
Ed
 1e-007 1 1 0
1  27 0 0 10
2  53 11 0 0 10
2  54 9 0 0 10
4 C0 11 0 9 0
0

0101000
+68 0 -22 0 *
Ed
 1e-007 1 1 0
1  28 0 -40.4276130948965 14.5623869051014
2  55 9 0 -40.4276130948965 14.5623869051014
2  56 13 0 -40.4276130948965 14.5623869051014
0

0101000
+32 0 -22 0 *
Wi

0101100
-67 0 +31 0 -21 0 +20 0 *
Fa
0  1e-007 9 0

0101000
+19 0 *
Ve
3.91007357260486e-005
12972.7 3615.50217987903 17270
0 0

0101101
*
Ed
 1e-007 1 1 0
1  29 0 0 10
2  57 12 0 0 10
2  58 10 0 0 10
4 C0 12 0 10 0
0

0101000
+17 0 -66 0 *
Ed
 1e-007 1 1 0
1  30 0 3.1437001343695 6.28318530717982
2  59 13 0 3.1437001343695 6.28318530717982
2  60 10 0 3.1437001343695 6.28318530717982
4 C0 10 0 13 0
0

0101000
+27 0 -17 0 *
Wi

0101100
+65 0 -16 0 -15 0 -26 0 *
Fa
0  1e-007 10 0

0101000
+14 0 *
Ve
3.91007357260486e-005
12972.7 3634.50217987903 17270
0 0

0101101
*
Ed
 1e-007 1 1 0
1  31 0 0 55.5000009009004
2  61 11 0 0 55.5000009009004
2  62 13 0 0 55.5000009009004
4 C0 11 0 13 0
0

0101000
+22 0 -12 0 *
Ed
 1e-007 1 1 0
1  32 0 0 10
2  63 11 0 0 10
2  64 12 0 0 10
4 C0 11 0 12 0
0

0101000
+12 0 -64 0 *
Wi

0101100
-63 0 +21 0 +11 0 +10 0 *
Fa
0  1e-007 11 0

0101000
+9 0 *
Ed
 3.91007357260486e-005 1 1 0
1  30 0 6.28318530717982 9.42478017917117
2  65 13 0 6.28318530717982 9.42478017917117
2  66 12 0 6.28318530717982 9.42478017917117
4 C0 12 0 13 0
0

0101000
+17 0 -12 0 *
Wi

0101100
+62 0 -10 0 -7 0 +16 0 *
Fa
0  1e-007 12 0

0101000
+6 0 *
Wi

0101100
-55 0 -50 0 +45 0 -40 0 -35 0 +30 0 -25 0 -20 0 +15 0 -11 0 
+7 0 *
Fa
0  1e-007 13 0

0101000
+4 0 *
Sh

0101000
+60 0 +53 0 -48 0 +43 0 +38 0 +33 0 +28 0 +23 0 +18 0 +13 0 
+8 0 +5 0 +3 0 *
Co

1100000
+2 0 *

+1 0 