DBRep_DrawableShape

CASCADE Topology V1, (c) Matra-Datavision
Locations 0
Curve2ds 145
1 0 0 0 1 
1 0 1 1 0 
1 -1.5707963267948966 1 1 0 
2 0.099999999999999978 0.90000000000000002 1 0 -0 1 0.10000000000000001
1 0 -1 1 0 
1 0 0 1 0 
1 0 1 1 0 
1 0 -1 1 0 
1 1 0 0 1 
1 0 1 1 0 
1 -0.5 0.5 1 0 
1 0 0 0 -1 
1 0 0 0 1 
1 0 0 0 1 
1 0 0.099999999999999978 1 0 
1 1.5707963267948966 0 0 1 
1 0.90000000000000002 0 0 1 
1 0 0 0 1 
1 0.099999999999999978 0 0 -1 
1 0 0.099999999999999978 1 0 
1 0 0 1 0 
1 0 0 1 0 
1 0 0 1 0 
1 -3.1415926535897931 0 1 0 
2 0.099999999999999978 -0.099999999999999978 1 0 0 -1 0.10000000000000001
1 1 0 0 -1 
1 0 0 0 1 
1 1 0 0 1 
1 0.5 -0.5 0 1 
1 1 0 0 -1 
1 0 0 0 1 
1 0 -0.099999999999999978 1 0 
1 -1.5707963267948966 0 1 0 
2 1.2 -0.69999999999999996 1 0 -0 1 0.20000000000000001
1 0.5 -0.5 1 0 
1 -0.5 0.5 1 0 
1 -4.7123889803846897 1 1 0 
2 0.90000000000000002 0.099999999999999978 0 -1 -1 -0 0.10000000000000001
1 0 0 0 1 
1 0 0 1 0 
1 0.5 0.5 1 0 
1 1 0 0 1 
1 0 0 1 0 
1 0 0 0 1 
1 0.5 0.5 0 1 
1 0 0 0 -1 
1 0 1 1 0 
1 0 0 0 1 
1 0 0 0 1 
1 0.80000000000000004 0 0 1 
1 1.5707963267948966 0 0 1 
1 0.5 0.19999999999999998 1 0 
1 1.5707963267948966 0 0 1 
1 0.099999999999999978 0 0 1 
8 4.7123889803846897 6.2831853071795862
1 6.2831853071795862 0.90000000000000002 -1 -0 
8 4.7123889803846897 6.2831853071795862
1 1.5707963267948966 -6.2831853071795862 0 1 
8 4.7123889803846897 6.2831853071795862
1 6.2831853071795862 0.099999999999999978 -1 -0 
8 4.7123889803846897 6.2831853071795862
1 0 -6.2831853071795862 0 1 
1 0 -1.5707963267948966 1 0 
1 1.5707963267948966 0 0 1 
1 0 0.90000000000000002 1 0 
1 0 0 0 1 
1 0.19999999999999998 0.5 0 1 
1 0 0.30000000000000004 1 0 
1 0 0 1 0 
1 1 0 0 1 
1 0 0 1 0 
1 0 0 0 1 
1 0 0.80000000000000004 1 0 
1 0 0 1 0 
1 0 0 1 0 
1 0 0 0 1 
1 1 0 0 -1 
1 0 -1 1 0 
1 0 0 1 0 
1 -3.1415926535897931 1 1 0 
2 0.19999999999999998 0.80000000000000004 1 0 0 -1 0.20000000000000001
1 0 1 1 0 
1 0 -1 1 0 
1 0 1 1 0 
1 1 0 0 1 
1 -0.5 0.5 1 0 
8 4.7123889803846897 6.2831853071795862
1 6.2831853071795862 0.19999999999999998 -1 -0 
8 4.7123889803846897 6.2831853071795862
1 1.5707963267948966 -6.2831853071795862 0 1 
1 1.5707963267948966 0 0 1 
1 0.19999999999999998 0 0 -1 
8 4.7123889803846897 6.2831853071795862
1 6.2831853071795862 0.19999999999999998 -1 -0 
8 4.7123889803846897 6.2831853071795862
1 0 -6.2831853071795862 0 1 
1 0 -1.5707963267948966 1 0 
1 1 0 0 1 
1 1 0 0 -1 
1 0 1 1 0 
2 0.80000000000000004 0.19999999999999998 0 -1 1 0 0.20000000000000001
1 0 0 0 1 
1 0 0 1 0 
1 0.5 0.5 1 0 
1 0 0 0 -1 
1 0 0 0 1 
1 0.5 0.5 0 1 
1 1.5707963267948966 0 0 1 
1 0 -0.19999999999999998 1 0 
1 0.5 -0.5 0 1 
1 -3.1415926535897931 0 1 0 
2 1.3999999999999999 -0.89999999999999991 1 0 0 -1 0.40000000000000002
1 0.5 -0.5 1 0 
1 -0.5 0.5 1 0 
1 0 0 0 1 
1 0 1 1 0 
1 0 0 0 1 
1 0.60000000000000009 0 0 1 
1 0 0 0 1 
1 0.5 0.39999999999999991 1 0 
1 1 0 0 1 
1 0 0 1 0 
1 0 0 0 1 
1 0 0.60000000000000009 1 0 
1 0 0 1 0 
1 0 0 1 0 
1 1.5707963267948966 0 0 1 
1 0.39999999999999991 0.5 0 1 
1 1 0 0 -1 
1 0 0 0 1 
1 0 -1 1 0 
1 0 0 1 0 
8 4.7123889803846897 6.2831853071795862
1 6.2831853071795862 0.10000000000000009 -1 -0 
8 4.7123889803846897 6.2831853071795862
1 0 -6.2831853071795862 0 1 
1 -3.1415926535897931 1 1 0 
2 0.39999999999999991 0.60000000000000009 1 0 0 -1 0.40000000000000002
1 0 -1 1 0 
1 0 1 1 0 
1 1 0 0 1 
1 0 1 1 0 
1 0 0.40000000000000002 1 0 
1 0 0 1 0 
1 1.5707963267948966 0 0 1 
1 0.39999999999999991 0 0 -1 
1 1 0 0 -1 
1 1 0 0 1 
1 0 1 1 0 
2 0.60000000000000009 0.39999999999999991 0 -1 1 0 0.40000000000000002
8 4.7123889803846897 6.2831853071795862
1 -4.7123889803846897 0.39999999999999991 1 0 
8 4.7123889803846897 6.2831853071795862
1 1.5707963267948966 -6.2831853071795862 0 1 
1 1.5707963267948966 0 0 1 
1 0 -0.39999999999999991 1 0 
1 0 -1.5707963267948966 1 0 
Curves 67
1 -0.5 0.5 -1 1 0 -0 
8 1.5707963267948966 3.1415926535897931
2 0.40000000000000002 0.5 -0.90000000000000002 -0 1 0 0 0 1 1 0 -0 0.10000000000000001
1 -0.5 0.5 -1 0 0 1 
1 0.5 0.5 -1 0 0 1 
1 -0.5 0.5 0 1 0 -0 
1 -0.5 -0.5 -1 -0 1 0 
1 -0.5 -0.40000000000000002 -1 1 0 -0 
1 0.40000000000000002 -0.5 -1 -0 1 0 
1 0.5 -0.5 -0.90000000000000002 -0 1 0 
2 0.40000000000000002 -0.40000000000000002 -0.90000000000000002 -0 1 0 1 0 0 0 0 -1 0.10000000000000001
1 -0.5 -0.5 -1 0 0 1 
8 3.1415926535897931 4.7123889803846897
2 -0.5 -0.40000000000000002 -0.90000000000000002 -1 -0 0 0 0 1 -0 1 0 0.10000000000000001
1 -0.5 -0.5 0 -0 1 0 
1 0.5 -0.5 0 -0 1 0 
1 0.5 -0.40000000000000002 -1 0 0 1 
8 1.5707963267948968 3.1415926535897931
2 0.5 0.19999999999999998 0.19999999999999998 1 0 -0 0 0 1 0 -1 0 0.20000000000000001
8 0.5 0.69999999999999996
1 0.5 0 -0.5 0 -0 1 
8 4.7123889803846897 6.2831853071795862
2 0.40000000000000002 -0.40000000000000002 0 -0 -0 -1 0 -1 0 -1 0 0 0.10000000000000001
1 0 0 0 1 0 -0 
1 -0.5 -0.5 0 1 0 -0 
1 0 0 0 -0 1 0 
1 0 1 0 1 0 -0 
1 0.80000000000000004 0 -2.7755575615628914e-017 -0 1 0 
1 0.5 0.19999999999999998 -2.7755575615628914e-017 1 0 -0 
1 -0.5 -0.5 -0.90000000000000002 1 0 -0 
2 0.40000000000000002 -0.40000000000000002 -0.90000000000000002 1 0 6.123233995736766e-017 6.123233995736766e-017 0 -1 -0 1 0 0.10000000000000001
2 0.40000000000000002 -0.40000000000000002 -0.90000000000000002 0 -0 1 1 0 0 -0 1 0 0.10000000000000001
1 0.40000000000000002 -0.5 -1 0 0 1 
1 0.5 -2.7755575615628914e-017 0.19999999999999998 1 0 -0 
2 0.80000000000000004 0.19999999999999998 0.19999999999999998 1 0 -0 0 -1 0 0 -0 -1 0.20000000000000001
1 0 0 1 1 0 -0 
1 0.80000000000000004 -2.7755575615628914e-017 0 0 0 1 
1 0 0 0 0 0 1 
1 0 0 1 -0 1 0 
1 0 1 0 0 0 1 
8 3.1415926535897931 4.7123889803846897
2 0.80000000000000004 1 0.19999999999999998 0 -1 -0 0 0 1 -1 -0 0 0.20000000000000001
1 1 1 0 0 0 1 
1 0 1 1 1 0 -0 
2 0.80000000000000004 0.19999999999999998 0.19999999999999998 -0 1 -6.123233995736766e-017 0 -6.123233995736766e-017 -1 -1 -0 0 0.20000000000000001
1 1 0 0.19999999999999998 -0 1 0 
2 0.80000000000000004 0.19999999999999998 0.19999999999999998 0 -0 -1 0 -1 0 -1 -0 0 0.20000000000000001
1 1 0 1 -0 1 0 
8 0 1.5707963267948966
2 0.80000000000000004 0.19999999999999998 1 0 0 1 0 -1 0 1 0 -0 0.20000000000000001
1 0.5 0.5 1 1 0 -0 
1 0.5 0.5 1 -0 1 0 
1 1 0.19999999999999998 0 0 0 1 
8 3.1415926535897931 4.7123889803846897
2 1 0.89999999999999991 1.3999999999999999 -1 -0 0 0 0 1 -0 1 0 0.40000000000000002
8 0.5 0.89999999999999991
1 1 0.5 0.5 0 -0 1 
1 0.5 1.5 1 1 0 -0 
1 1.1000000000000001 0.5 0.99999999999999989 -0 1 0 
1 1 0.89999999999999991 0.99999999999999989 1 0 -0 
1 0.5 0.5 2 1 0 -0 
1 1.1000000000000001 0.49999999999999989 1 0 0 1 
1 0.5 0.5 1 0 0 1 
1 1 0.49999999999999989 1.3999999999999999 1 0 -0 
1 0.5 0.5 2 -0 1 0 
1 0.5 1.5 1 0 0 1 
2 1.1000000000000001 0.90000000000000002 1.3999999999999999 1 0 0 0 0 -1 -0 1 0 0.40000000000000002
8 3.1415926535897931 4.7123889803846897
2 1.1000000000000001 1.5 1.3999999999999999 0 -1 -0 0 0 1 -1 -0 0 0.40000000000000002
1 1.5 1.5 1 0 0 1 
1 0.5 1.5 2 1 0 -0 
2 1.1000000000000001 0.90000000000000002 1.3999999999999999 0 -1 -0 0 0 -1 1 0 0 0.40000000000000002
1 1.5 0.5 1.3999999999999999 -0 1 0 
1 1.5 0.5 2 -0 1 0 
8 0 1.5707963267948966
2 1.1000000000000001 0.89999999999999991 2 0 0 1 0 -1 0 1 0 -0 0.40000000000000002
2 1.1000000000000001 0.90000000000000002 1.3999999999999999 6.123233995736766e-017 0 1 1 0 -6.123233995736766e-017 -0 1 0 0.40000000000000002
1 1.5 0.89999999999999991 1 0 0 1 
Polygon3D 0
PolygonOnTriangulations 83
2 1 4 
p 0.00173205115397904 1 0 1 
2 1 4 
p 0.00413539616808 1 0 1 
2 4 3 
p 0.00413539616808 1 0 1 
2 4 5 
p 0.00413539616808 1 0 0.5 
2 1 2 
p 0.00413539616808 1 0 0.5 
2 6 4 
p 0.00412344517606334 1 0.5 1 
2 1 6 
p 0.00412310596516754 1 0.5 1 
2 5 3 
p 0.00413539616808 1 0.5 1 
2 1 2 
p 0.00173205115397904 1 0 1 
2 6 1 
p 0.00413539616808 1 0 1 
2 2 3 
p 0.00413539616808 1 0 1 
2 1 2 
p 0.00413539616808 1 0.7 1 
8 3 4 5 6 7 8 9 1 
p 0.00413539616808 1 1.5707963267949 1.79519580205131 2.01959527730772 2.24399475256414 2.46839422782055 2.69279370307697 2.91719317833338 3.14159265358979 
2 11 3 
p 0.00413539616808 1 0.5 0.7 
2 1 4 
p 0.00412344517606334 1 0 0.5 
2 15 13 
p 20.6745691448814 1 0 0.5 
2 11 13 
p 20.6745691448814 1 0 0.5 
2 1 2 
p 0.00412310596516754 1 0 0.5 
2 3 4 
p 0.00413539616808 1 0 0.5 
2 10 12 
p 0.0220873368597042 1 0 0.5 
2 3 2 
p 0.00413539616808 1 0 0.5 
2 11 13 
p 0.00412344517606334 1 0.5 1 
2 12 11 
p 0.0220873368597042 1 0.5 1 
2 1 2 
p 0.00412310596516754 1 0.5 1 
2 1 2 
p 0.00291547629041982 1 0 1 
2 1 4 
p 0.00291547629041982 1 0 1 
2 1 10 
p 0.00412344517606334 1 0 1 
2 10 1 
p 0.0220873368597042 1 0 1 
2 1 5 
p 0.00412310596516754 1 0 1 
2 1 2 
p 0.00173205115397904 1 0 1 
2 2 3 
p 0.00291547629041982 1 0 1 
2 10 12 
p 0.00412344517606334 1 0 1 
2 2 4 
p 20.6745691448814 1 0 1 
2 4 1 
p 0.00416284248518868 1 0 1 
2 12 10 
p 0.00412310596516754 1 0 1 
2 6 1 
p 0.00412310596516754 1 0 1 
2 1 4 
p 0.00173205115397904 1 0 1 
2 4 3 
p 0.00291547629041982 1 0 1 
2 13 12 
p 0.00412344517606334 1 0 1 
2 12 13 
p 0.00412310596516754 1 0 1 
2 1 4 
p 0.00412310596516754 1 0 1 
2 5 4 
p 0.00412344517606334 1 0.2 1 
2 11 12 
p 20.6745691448814 1 0 0.5 
2 13 11 
p 0.00412310596516754 1 0 0.5 
2 10 2 
p 0.00412310596516754 1 0 0.5 
2 1 2 
p 0.00412310596516754 1 0 0.5 
2 4 5 
p 0.00412310596516754 1 0 0.5 
2 12 10 
p 20.6745691448814 1 0.5 1 
2 5 4 
p 0.292533815322363 1 0.5 1 
2 5 3 
p 0.00412310596516754 1 0.5 1 
2 1 6 
p 0.00412344517606334 1 0.5 1 
2 3 5 
p 0.00412344517606334 1 0.2 1 
2 1 2 
p 0.00412344517606334 1 0.2 0.5 
2 5 7 
p 0.00416284248518868 1 0 0.5 
2 11 13 
p 0.00416284248518868 1 0 0.5 
2 10 12 
p 0.292533815322363 1 0 0.5 
2 7 6 
p 0.0220873368597042 1 0 0.5 
2 11 13 
p 0.0220873368597042 1 0 0.5 
2 3 4 
p 0.00412310596516754 1 0 0.5 
2 1 2 
p 0.00412344517606334 1 0 0.5 
2 6 5 
p 0.00412310596516754 1 0 0.5 
2 10 2 
p 0.292533815322363 1 0 0.5 
2 3 2 
p 0.00412310596516754 1 0 0.5 
2 3 1 
p 0.00412344517606334 1 0.2 1 
2 5 4 
p 0.00412310596516754 1 0.5 1 
2 1 2 
p 0.00412344517606334 1 0.5 1 
2 1 2 
p 0.00173205115397904 1 0 1 
2 1 4 
p 0.00173205115397904 1 0 1 
2 6 4 
p 0.00412310596516754 1 0 1 
2 1 5 
p 0.00412344517606334 1 0 1 
2 2 3 
p 0.00173205115397904 1 0 1 
2 4 2 
p 0.00416284248518868 1 0 1 
2 4 2 
p 0.00412310596516754 1 0 1 
2 2 4 
p 0.0220873368597042 1 0 1 
2 1 2 
p 0.00412344517606334 1 0 1 
2 4 3 
p 0.00173205115397904 1 0 1 
2 4 2 
p 0.00412310596516754 1 0 1 
2 95 4 
p 0.0220873368597042 1 0 1 
2 1 4 
p 0.00412344517606334 1 0 1 
2 11 10 
p 0.00412310596516754 1 0 1 
2 2 10 
p 0.00412310596516754 1 0 1 
2 4 3 
p 0.00412344517606334 1 0 1 
2 2 3 
p 0.00412344517606334 1 0 1 
Surfaces 30
1 -0.5 0.5 -1 -0 1 0 0 0 1 1 0 -0 
1 -0.5 -0.5 -1 0 0 1 1 0 -0 -0 1 0 
2 0.40000000000000002 -0.5 -0.90000000000000002 -0 1 0 1 0 -0 -0 0 -1 0.10000000000000001
1 -0.5 -0.5 -1 1 0 -0 0 0 1 0 -1 0 
1 0.5 -0.5 -1 1 0 -0 0 0 1 0 -1 0 
1 -0.5 -0.5 0 0 0 1 1 0 -0 -0 1 0 
1 0 0 0 0 0 1 1 0 -0 -0 1 0 
2 -0.5 -0.40000000000000002 -0.90000000000000002 1 0 -0 0 -0 -1 0 -1 0 0.10000000000000001
4 0.40000000000000002 -0.40000000000000002 -0.90000000000000002 -0 1 0 1 0 0 0 0 -1 0.10000000000000001
1 -0.5 -0.5 -1 -0 1 0 0 0 1 1 0 -0 
2 0.40000000000000002 -0.40000000000000002 -1 0 0 1 1 0 -0 0 -1 -0 0.10000000000000001
2 0.5 0.19999999999999998 0.19999999999999998 1 0 -0 0 -1 0 0 -0 -1 0.20000000000000001
1 0 0 0 -0 1 0 0 0 1 1 0 -0 
1 0 0 0 1 0 -0 0 0 1 0 -1 0 
1 0 1 0 -0 1 0 0 0 1 1 0 -0 
2 0.80000000000000004 0 0.19999999999999998 -0 1 0 -0 0 -1 1 0 -0 0.20000000000000001
4 0.80000000000000004 0.19999999999999998 0.19999999999999998 -1 -0 0 0 -1 0 -0 -0 -1 0.20000000000000001
1 0 0 1 0 0 1 1 0 -0 -0 1 0 
2 0.80000000000000004 0.19999999999999998 0 0 0 1 0 -1 0 1 0 -0 0.20000000000000001
1 1 0 0 1 0 -0 0 0 1 0 -1 0 
1 0.5 0.5 1 0 0 1 1 0 -0 -0 1 0 
1 0.5 0.5 1 -0 1 0 0 0 1 1 0 -0 
1 0.5 0.5 1 1 0 -0 0 0 1 0 -1 0 
2 1 0.89999999999999991 1.3999999999999999 1 0 -0 0 -0 -1 0 -1 0 0.40000000000000002
1 0.5 1.5 1 -0 1 0 0 0 1 1 0 -0 
2 1.1000000000000001 0.5 1.3999999999999999 -0 1 0 -0 0 -1 1 0 -0 0.40000000000000002
1 0.5 0.5 2 0 0 1 1 0 -0 -0 1 0 
2 1.1000000000000001 0.89999999999999991 1 0 0 1 0 -1 0 1 0 -0 0.40000000000000002
4 1.1000000000000001 0.90000000000000002 1.3999999999999999 -0 1 0 0 0 -1 1 -0 0 0.40000000000000002
1 1.5 0.5 1 1 0 -0 0 0 1 0 -1 0 
Triangulations 43
4 2 1 0
-0.5 0.5 -1 0.5 0.5 -1 0.5 0.5 0 -0.5 0.5 0 0 0 0 1 1 1 1 0 3 2 1 3 1 4 
5 3 1 0
-0.5 0.5 -1 0.5 0.5 -1 0.5 0.5 0 -0.5 0.5 0 0 0.5 0 0 0 0 1 1 1 1 0 1 0.5 5 2 1 5 1 4 3 2 5 
4 2 1 0
-0.5 -0.5 -1 -0.5 -0.5 0 -0.5 0.5 0 -0.5 0.5 -1 0 0 1 0 1 -1 0 -1 2 4 3 2 1 4 
6 4 1 0
-0.5 0.5 0 0 0.5 0 0 0 0 0.5 0 0 0.5 -0.5 0 -0.5 -0.5 0 0 1 0.5 1 0.5 0.5 1 0.5 1 0 0 0 3 6 5 3 1 6 2 1 3 4 3 5 
6 4 1 4.16333634234434e-017
-0.4 0.5 -1 0.5 0.5 -1 -0.4 0.5 -0.1 0.5 0.5 0 0 0.5 -0.1 0 0.5 0 0 0.1 0 1 0.9 0.1 1 1 0.9 0.5 1 0.5 5 2 1 5 1 3 4 5 6 4 2 5 
6 4 1 0
0 0.5 0 0 1 0 1 1 0 1 0 0 0.5 0 0 0.5 0.5 0 0 0.5 0 1 1 1 1 0 0.5 0 0.5 0.5 6 2 1 6 5 4 3 2 6 3 6 4 
4 2 1 0
-0.5 -0.5 0 -0.5 0.5 0 0.5 0.5 0 0.5 -0.5 0 0 0 0 1 1 1 1 0 3 2 1 3 1 4 
13 11 1 9.0205620750794e-017
0.5 0.2 -2.77555756156289e-017 0.5 0.5 0 0.5 -2.77555756156289e-017 0.2 0.5 0.00501441756363524 0.155495813208737 0.5 0.0198062264195162 0.113223252176488 0.5 0.043633703506394 0.0753020396282533 0.5 0.0753020396282533 0.043633703506394 0.5 0.113223252176488 0.0198062264195162 0.5 0.155495813208737 0.00501441756363524 0.5 0.5 -1 0.5 0 0 0.5 -0.5 -1 0.5 -0.5 0 1 -0.7 1 -1 1.2 -0.5 1.15549581320874 -0.505014417563635 1.11322325217649 -0.519806226419516 1.07530203962825 -0.543633703506394 1.04363370350639 -0.575302039628253 1.01980622641952 -0.613223252176488 1.00501441756364 -0.655495813208737 0 -1 1 -0.5 0 0 1 0 1 10 2 9 10 1 11 8 7 11 9 8 11 12 10 11 10 9 6 11 7 5 11 6 4 11 5 13 12 11 3 11 4 
6 4 1 5.59431511413976e-017
0 0 0 0 0.4 1.38777878078145e-017 -0.4 0.4 1.38777878078145e-017 0.5 0 0 -0.4 -0.5 1.38777878078145e-017 0.5 -0.5 0 0.5 0.5 0.5 0.9 0.1 0.9 1 0.5 0.1 0 1 0 1 3 5 6 1 5 2 3 1 4 1 6 
15 13 1 5.59431511413976e-017
-0.5 -0.5 0 -0.5 0.4 1.38777878078145e-017 -0.468480595121969 0.4 1.38777878078145e-017 0.5 -0.5 0 -0.1 0.031519404878031 -2.77555756156289e-017 -0.111643642454395 0.12752885647231 0 -0.14256605795828 0.208906784423903 0 -0.186410495253031 0.273868372558696 0 -0.243561286554877 0.327493677903796 0 -0.31114986625202 0.367173450744935 0 -0.385694771413648 0.391416703864436 0 -0.426861670217127 0.397880293512998 0 0.5 0 0 -0.1 0 -1.38777878078145e-017 0 0 0 0 0 0 0.9 0.031519404878031 0.9 1 0 0.4 0.531519404878031 0.388356357545605 0.62752885647231 0.35743394204172 0.708906784423903 0.313589504746969 0.773868372558696 0.256438713445123 0.827493677903796 0.18885013374798 0.867173450744935 0.114305228586352 0.891416703864436 0.0731383297828726 0.897880293512998 1 0.5 0.4 0.5 0.5 0.5 2 1 14 3 14 5 3 2 14 12 3 5 15 1 4 15 14 1 6 11 12 6 12 5 10 11 6 7 10 6 9 10 7 8 9 7 13 15 4 
13 11 1 1.73472347597681e-018
1.38777878078145e-017 0 0.1 0 0 1 -0.1 0 -1.38777878078145e-017 -0.0777479066043686 0 0.00250720878181762 -0.0566116260882442 0 0.00990311320975808 -0.0376510198141266 0 0.021816851753197 -0.021816851753197 0 0.0376510198141266 -0.00990311320975808 0 0.0566116260882442 -0.00250720878181762 0 0.0777479066043685 1 0 1 0 0 0 1 0 0 0.5 0 0 0.1 0 1 0 -1.38777878078145e-017 -0.1 0.00250720878181762 -0.0777479066043686 0.00990311320975808 -0.0566116260882442 0.021816851753197 -0.0376510198141266 0.0376510198141266 -0.021816851753197 0.0566116260882442 -0.00990311320975808 0.0777479066043685 -0.00250720878181762 1 1 0 0 0 1 0 0.5 11 3 4 11 4 5 11 5 6 7 11 6 8 11 7 9 11 8 13 9 1 13 11 9 2 13 1 10 12 13 10 13 2 
5 3 1 0
0 0 0 0.5 0 0 1 0 0 1 0 1 0 0 1 0 0 0 0.5 0 1 1 1 1 0 5 2 1 4 3 2 4 2 5 
12 10 1 7.63278329429795e-017
0 0 1 0 0.8 1 0 1 0.8 0 0.844504186791263 0.994985582436365 0 0.886776747823512 0.980193773580484 0 0.924697960371747 0.956366296493606 0 0.956366296493606 0.924697960371747 0 0.980193773580484 0.886776747823512 0 0.994985582436365 0.844504186791263 0 0 0 0 1 0 0 0.5 0 1 0 1 -0.8 0.8 -1 0.994985582436365 -0.844504186791263 0.980193773580484 -0.886776747823512 0.956366296493606 -0.924697960371747 0.924697960371747 -0.956366296493606 0.886776747823512 -0.980193773580484 0.844504186791263 -0.994985582436365 0 0 0 -1 0 -0.5 3 12 11 2 5 4 2 6 5 2 7 6 2 8 7 2 9 8 2 3 9 2 12 3 1 10 12 1 12 2 
13 11 1 2.77555756156289e-017
0 0 0 0 0.4 1.38777878078145e-017 0 0.5 -0.1 0 0.422252093395631 -0.00250720878181762 0 0.443388373911756 -0.00990311320975808 0 0.462348980185873 -0.021816851753197 0 0.478183148246803 -0.0376510198141266 0 0.490096886790242 -0.0566116260882442 0 0.497492791218182 -0.0777479066043685 0 0 1 0 0.5 0 0 1 1 0 1 0 0 0 0 -0.4 -0.1 -0.5 -0.00250720878181762 -0.422252093395632 -0.00990311320975808 -0.443388373911756 -0.021816851753197 -0.462348980185873 -0.0376510198141266 -0.478183148246803 -0.0566116260882442 -0.490096886790242 -0.0777479066043685 -0.497492791218182 1 0 0 -0.5 1 -1 0 -1 11 7 8 11 8 9 6 7 11 5 6 11 4 5 11 2 4 11 12 11 13 10 1 2 10 11 12 10 2 11 3 11 9 
4 2 1 0
0 0 0 0 0 1 0 1 1 0 1 0 0 0 1 0 1 -1 0 -1 2 4 3 2 1 4 
4 2 1 0
0 0 0 1 0 0 1 0 1 0 0 1 0 0 0 1 1 1 1 0 3 2 1 3 1 4 
4 2 1 0
0 0 1 0 1 1 1 1 1 1 0 1 0 0 0 1 1 1 1 0 3 2 1 3 1 4 
24 22 1 1.05004518624757e-016
1.38777878078145e-017 0 0.1 0 0 1 1.38777878078145e-017 0.031519404878031 0.1 0 1 1 -2.77555756156289e-017 0.909901951359279 0.1 0 0.896177224070509 0.1 0 0.88245249678174 0.1 0 0.86872776949297 0.1 0 0.855003042204201 0.1 0 0.841278314915431 0.1 0 0.827553587626662 0.1 0 0.813828860337892 0.1 0 0.800104133049123 0.1 0 0.786379405760353 0.1 0 0.772654678471584 0.1 0 0.758929951182814 0.1 0 0.745205223894045 0.1 0 0.731480496605275 0.1 0 0.717755769316506 0.1 0 0.690306314738967 0.1 0 0.635407405583889 0.1 0 0.580508496428811 0.1 0 0.470710678118655 0.1 -1.38777878078145e-017 1 0.1 0.1 0 1 0 0.1 -0.031519404878031 1 -1 0.1 -0.909901951359279 0.1 -0.896177224070509 0.1 -0.88245249678174 0.1 -0.86872776949297 0.1 -0.855003042204201 0.1 -0.841278314915431 0.1 -0.827553587626662 0.1 -0.813828860337892 0.1 -0.800104133049123 0.1 -0.786379405760353 0.1 -0.772654678471584 0.1 -0.758929951182814 0.1 -0.745205223894045 0.1 -0.731480496605275 0.1 -0.717755769316506 0.1 -0.690306314738967 0.1 -0.635407405583889 0.1 -0.580508496428811 0.1 -0.470710678118655 0.1 -1 4 6 5 4 7 6 4 8 7 4 9 8 4 10 9 4 11 10 4 12 11 4 13 12 4 14 13 4 15 14 4 16 15 4 17 16 4 18 17 4 19 18 4 20 19 4 21 20 4 22 21 4 23 22 4 5 24 2 1 3 2 3 23 2 23 4 
7 5 1 0
0 1 1 0.3 1 1 0.3 0.5 1 0 0 1 0.5 0.5 1 1 0 1 1 0.5 1 0 1 0.3 1 0.3 0.5 0 0 0.5 0.5 1 0 1 0.5 5 3 4 1 4 3 6 5 4 2 1 3 7 5 6 
13 11 1 5.55111512312578e-017
0.5 0.7 1 0.5 1 1 0.7 0.5 1 0.505014417563635 0.655495813208737 1 0.519806226419516 0.613223252176488 1 0.543633703506394 0.575302039628253 1 0.575302039628253 0.543633703506394 1 0.613223252176488 0.519806226419516 1 0.655495813208737 0.505014417563635 1 0 1 1 1 0.5 1 0 0 1 1 0 1 0.5 0.7 0.5 1 0.7 0.5 0.505014417563635 0.655495813208737 0.519806226419516 0.613223252176488 0.543633703506394 0.575302039628253 0.575302039628253 0.543633703506394 0.613223252176488 0.519806226419516 0.655495813208737 0.505014417563635 0 1 1 0.5 0 0 1 0 7 6 12 8 7 12 5 12 6 4 10 12 4 12 5 9 12 13 9 8 12 1 10 4 3 9 13 2 10 1 11 3 13 
6 4 1 0
0 1 1 0.5 1 1 0.5 0.5 1 1 0.5 1 1 0 1 0 0 1 0 1 0.5 1 0.5 0.5 1 0.5 1 0 0 0 3 6 5 3 1 6 2 1 3 4 3 5 
4 2 1 0
0 1 0 1 1 0 1 1 1 0 1 1 0 0 0 1 1 1 1 0 3 2 1 3 1 4 
13 11 1 1.0842021724855e-016
0.6 1 1 1 1 1 0.5 1 1.1 0.502507208781818 1 1.07774790660437 0.509903113209758 1 1.05661162608824 0.521816851753197 1 1.03765101981413 0.537651019814127 1 1.0218168517532 0.556611626088244 1 1.00990311320976 0.577747906604368 1 1.00250720878182 1 1 0 0.5 1 1 0 1 0 0 1 1 1 0.6 1 1 1.1 0.5 1.07774790660437 0.502507208781818 1.05661162608824 0.509903113209758 1.03765101981413 0.521816851753197 1.0218168517532 0.537651019814127 1.00990311320976 0.556611626088244 1.00250720878182 0.577747906604368 0 1 1 0.5 0 0 1 0 11 10 12 11 12 13 7 11 6 8 11 7 5 6 11 9 11 8 4 5 11 1 10 11 1 11 9 2 10 1 11 3 4 
5 3 1 0
0 1 0 1 1 0 1 1 1 0 1 1 0.5 1 1 0 0 0 1 1 1 1 0 1 0.5 5 2 1 5 1 4 3 2 5 
5 3 1 0
1 0.2 1 1 0.5 1 1 0.2 0.2 1 1 1 1 1 0.2 1 -0.2 1 -0.5 0.2 -0.2 1 -1 0.2 -1 2 3 5 2 5 4 1 3 2 
12 10 1 2.77555756156289e-017
0.1 1 -1.38777878078145e-017 1 1 0 -1.38777878078145e-017 1 0.1 0.00250720878181762 1 0.0777479066043686 0.00990311320975808 1 0.0566116260882442 0.021816851753197 1 0.0376510198141266 0.0376510198141266 1 0.021816851753197 0.0566116260882442 1 0.00990311320975808 0.0777479066043685 1 0.00250720878181762 1 1 1 0 1 1 0.5 1 1 0 0.1 0 1 0.1 -1.38777878078145e-017 0.0777479066043686 0.00250720878181762 0.0566116260882442 0.00990311320975808 0.0376510198141266 0.021816851753197 0.021816851753197 0.0376510198141266 0.00990311320975808 0.0566116260882442 0.00250720878181762 0.0777479066043685 1 1 1 0 1 0.5 1 4 3 1 5 4 1 6 5 1 7 6 1 8 7 1 9 8 12 2 1 12 3 11 12 1 3 10 2 12 
5 3 1 2.77555756156289e-017
0.05 1 0 1 1 0 0.05 1 1 1 1 1 0.5 1 1 0 0.05 0 1 1 0.05 1 1 1 0.5 5 2 1 5 1 3 4 2 5 
6 4 1 0
0.5 1 1 0.5 1.5 1 1.5 1.5 1 1.5 0.5 1 1 0.5 1 1 1 1 0 0.5 0 1 1 1 1 0 0.5 0 0.5 0.5 6 2 1 6 5 4 3 2 6 3 6 4 
13 11 1 1.2490009027033e-016
0.5 0.5 1.2 0.5 0.5 2 0.3 0.5 1 0.494985582436365 0.5 1.15549581320874 0.480193773580484 0.5 1.11322325217649 0.456366296493606 0.5 1.07530203962825 0.424697960371747 0.5 1.04363370350639 0.386776747823512 0.5 1.01980622641952 0.344504186791263 0.5 1.00501441756364 1.5 0.5 2 0.5 0.5 1 1.5 0.5 1 1 0.5 1 0.2 0 1 0 -5.55111512312578e-017 -0.2 0.155495813208737 -0.00501441756363522 0.113223252176488 -0.0198062264195161 0.0753020396282533 -0.043633703506394 0.043633703506394 -0.0753020396282532 0.0198062264195161 -0.113223252176488 0.00501441756363522 -0.155495813208737 1 1 0 0 0 1 0 0.5 11 8 7 11 9 8 11 3 9 6 11 7 5 11 6 4 11 5 13 4 1 13 11 4 2 13 1 10 12 13 10 13 2 
13 11 1 5.46437894932694e-017
0.05 1 1 0.5 1 1 -6.93889390390723e-018 0.95 1 0.00125360439090881 0.961126046697816 1 0.00495155660487904 0.971694186955878 1 0.0109084258765985 0.981174490092937 1 0.0188255099070633 0.989091574123401 1 0.0283058130441221 0.995048443395121 1 0.0388739533021843 0.998746395609091 1 0.5 0.5 1 0 0 1 1 0.5 1 1 0 1 0.05 1 0.5 1 -6.93889390390723e-018 0.95 0.00125360439090881 0.961126046697816 0.00495155660487904 0.971694186955878 0.0109084258765985 0.981174490092937 0.0188255099070633 0.989091574123401 0.0283058130441221 0.995048443395121 0.0388739533021843 0.998746395609091 0.5 0.5 0 0 1 0.5 1 0 10 3 11 13 10 11 1 4 3 1 5 4 1 6 5 1 7 6 1 8 7 1 9 8 1 3 10 2 1 10 12 10 13 
7 5 1 0
0 0 1 0 0.8 1 0.3 0.8 1 1 0 1 0.3 0.5 1 1 0.5 1 0.5 0.5 1 0 0 0 0.8 0.3 0.8 1 0 0.3 0.5 1 0.5 0.5 0.5 2 1 5 7 1 4 7 5 1 3 2 5 6 7 4 
13 11 1 9.71445146547012e-017
0.5 0.5 1.2 0.5 0.5 2 0.3 0.5 1 0.344504186791263 0.5 1.00501441756364 0.386776747823512 0.5 1.01980622641952 0.424697960371747 0.5 1.04363370350639 0.456366296493606 0.5 1.07530203962825 0.480193773580484 0.5 1.11322325217649 0.494985582436365 0.5 1.15549581320874 1.5 0.5 2 0.5 0.5 1 1.5 0.5 1 1 0.5 1 0.2 0 1 0 -5.55111512312578e-017 -0.2 0.00501441756363522 -0.155495813208737 0.0198062264195161 -0.113223252176488 0.043633703506394 -0.0753020396282533 0.0753020396282532 -0.043633703506394 0.113223252176488 -0.0198062264195161 0.155495813208737 -0.00501441756363522 1 1 0 0 0 1 0 0.5 11 3 4 11 4 5 11 5 6 7 11 6 8 11 7 9 11 8 13 9 1 13 11 9 2 13 1 10 12 13 10 13 2 
5 3 1 0
0.5 0.5 1 1 0.5 1 1.5 0.5 1 1.5 0.5 2 0.5 0.5 2 0 0 0 0.5 0 1 1 1 1 0 5 2 1 4 3 2 4 2 5 
6 4 1 0
0.5 1.5 1.1 0.5 1.5 2 0.5 1 1.1 0.5 0.5 2 0.5 1 1 0.5 0.5 1 0.1 -1 1 -1 0.1 -0.5 1 0 0 -0.5 0 0 2 3 1 6 5 3 4 6 3 4 3 2 
5 3 1 3.70074341541719e-017
0.5 0.7 2 0.5 1.5 2 0.5 0.7 1 0.5 1.5 1 0.5 1 1 1 -0.2 1 -1 0 -0.2 0 -1 0 -0.5 2 5 4 1 3 5 1 5 2 
4 2 1 0
0.5 0.5 1 0.5 0.5 2 0.5 1.5 2 0.5 1.5 1 0 0 1 0 1 -1 0 -1 2 4 3 2 1 4 
4 2 1 0
0.5 0.5 1 1.5 0.5 1 1.5 0.5 2 0.5 0.5 2 0 0 0 1 1 1 1 0 3 2 1 3 1 4 
4 2 1 1.11022302462516e-016
0.5 1.5 1.2 0.5 1.5 2 0.5 0.5 1.2 0.5 0.5 2 0.2 -1 1 -1 0.2 0 1 0 4 1 2 4 3 1 
95 92 1 2.22044604925031e-016
0.5 0.5 1.2 0.5 0.5 2 0.5 1.5 1.2 0.5 1.5 2 0.5 0.7 1 0.5 0.7125 1.003125 0.5 0.71875 1.0046875 0.5 0.725 1.00625 0.5 0.73125 1.0078125 0.5 0.7375 1.009375 0.5 0.74375 1.0109375 0.5 0.75 1.0125 0.5 0.75625 1.0140625 0.5 0.7625 1.015625 0.5 0.76875 1.0171875 0.5 0.775 1.01875 0.5 0.78125 1.0203125 0.5 0.7875 1.021875 0.5 0.79375 1.0234375 0.5 0.8 1.025 0.5 0.80625 1.0265625 0.5 0.8125 1.028125 0.5 0.81875 1.0296875 0.5 0.825 1.03125 0.5 0.8375 1.034375 0.5 0.85 1.0375 0.5 0.8625 1.040625 0.5 0.875 1.04375 0.5 0.88125 1.0453125 0.5 0.8875 1.046875 0.5 0.89375 1.0484375 0.5 0.9 1.05 0.5 0.90625 1.0515625 0.5 0.9125 1.053125 0.5 0.91875 1.0546875 0.5 0.925 1.05625 0.5 0.93125 1.0578125 0.5 0.934375 1.05859375 0.5 0.9375 1.059375 0.5 0.940625 1.06015625 0.5 0.94375 1.0609375 0.5 0.95 1.0625 0.5 0.95625 1.0640625 0.5 0.9625 1.065625 0.5 0.96875 1.0671875 0.5 0.975 1.06875 0.5 1 1.075 0.5 1.00625 1.0765625 0.5 1.0125 1.078125 0.5 1.01875 1.0796875 0.5 1.025 1.08125 0.5 1.03125 1.0828125 0.5 1.0375 1.084375 0.5 1.04375 1.0859375 0.5 1.05 1.0875 0.5 1.05625 1.0890625 0.5 1.0625 1.090625 0.5 1.06875 1.0921875 0.5 1.075 1.09375 0.5 1.08125 1.0953125 0.5 1.0875 1.096875 0.5 1.1 1.1 0.5 1.1125 1.103125 0.5 1.125 1.10625 0.5 1.1375 1.109375 0.5 1.15 1.1125 0.5 1.15625 1.1140625 0.5 1.1625 1.115625 0.5 1.16875 1.1171875 0.5 1.175 1.11875 0.5 1.18125 1.1203125 0.5 1.1875 1.121875 0.5 1.19375 1.1234375 0.5 1.2 1.125 0.5 1.2125 1.128125 0.5 1.225 1.13125 0.5 1.2375 1.134375 0.5 1.25 1.1375 0.5 1.275 1.14375 0.5 1.2875 1.146875 0.5 1.3 1.15 0.5 1.3125 1.153125 0.5 1.325 1.15625 0.5 1.3375 1.159375 0.5 1.35 1.1625 0.5 1.375 1.16875 0.5 1.3875 1.171875 0.5 1.4 1.175 0.5 1.4125 1.178125 0.5 1.425 1.18125 0.5 1.4375 1.184375 0.5 1.45 1.1875 0.5 1.475 1.19375 0.5 1.4875 1.196875 0.5 1.5 1 0.2 0 1 0 0.2 -1 1 -1 0 -0.2 0.003125 -0.2125 0.0046875 -0.21875 0.00625 -0.225 0.0078125 -0.23125 0.009375 -0.2375 0.0109375 -0.24375 0.0125 -0.25 0.0140625 -0.25625 0.015625 -0.2625 0.0171875 -0.26875 0.01875 -0.275 0.0203125 -0.28125 0.021875 -0.2875 0.0234375 -0.29375 0.025 -0.3 0.0265625 -0.30625 0.028125 -0.3125 0.0296875 -0.31875 0.03125 -0.325 0.034375 -0.3375 0.0375 -0.35 0.040625 -0.3625 0.04375 -0.375 0.0453125 -0.38125 0.046875 -0.3875 0.0484375 -0.39375 0.05 -0.4 0.0515625 -0.40625 0.053125 -0.4125 0.0546875 -0.41875 0.05625 -0.425 0.0578125 -0.43125 0.05859375 -0.434375 0.059375 -0.4375 0.06015625 -0.440625 0.0609375 -0.44375 0.0625 -0.45 0.0640625 -0.45625 0.065625 -0.4625 0.0671875 -0.46875 0.06875 -0.475 0.075 -0.5 0.0765625 -0.50625 0.078125 -0.5125 0.0796875 -0.51875 0.08125 -0.525 0.0828125 -0.53125 0.084375 -0.5375 0.0859375 -0.54375 0.0875 -0.55 0.0890625 -0.55625 0.090625 -0.5625 0.0921875 -0.56875 0.09375 -0.575 0.0953125 -0.58125 0.096875 -0.5875 0.1 -0.6 0.103125 -0.6125 0.10625 -0.625 0.109375 -0.6375 0.1125 -0.65 0.1140625 -0.65625 0.115625 -0.6625 0.1171875 -0.66875 0.11875 -0.675 0.1203125 -0.68125 0.121875 -0.6875 0.1234375 -0.69375 0.125 -0.7 0.128125 -0.7125 0.13125 -0.725 0.134375 -0.7375 0.1375 -0.75 0.14375 -0.775 0.146875 -0.7875 0.15 -0.8 0.153125 -0.8125 0.15625 -0.825 0.159375 -0.8375 0.1625 -0.85 0.16875 -0.875 0.171875 -0.8875 0.175 -0.9 0.178125 -0.9125 0.18125 -0.925 0.184375 -0.9375 0.1875 -0.95 0.19375 -0.975 0.196875 -0.9875 0 -1 48 95 49 47 95 48 46 95 47 45 95 46 93 95 94 44 95 45 92 95 93 43 95 44 91 95 92 42 95 43 90 95 91 41 95 42 89 95 90 40 95 41 88 95 89 39 95 40 87 95 88 38 95 39 86 95 87 37 95 38 85 95 86 36 95 37 84 95 85 35 95 36 83 95 84 34 95 35 82 95 83 33 95 34 81 95 82 32 95 33 80 95 81 31 95 32 30 95 31 79 95 80 29 95 30 78 95 79 28 95 29 77 95 78 27 95 28 76 95 77 26 95 27 75 95 76 25 95 26 74 95 75 24 95 25 73 95 74 23 95 24 72 95 73 22 95 23 71 95 72 21 95 22 70 95 71 20 95 21 69 95 70 19 95 20 68 95 69 18 95 19 67 95 68 17 95 18 66 95 67 16 95 17 65 95 66 15 95 16 64 95 65 14 95 15 63 95 64 13 95 14 62 95 63 12 95 13 95 3 94 5 95 6 61 95 62 6 95 7 11 95 12 7 95 8 8 95 9 9 95 10 60 95 61 10 95 11 4 2 1 4 1 3 59 95 60 58 95 59 57 95 58 56 95 57 55 95 56 54 95 55 53 95 54 52 95 53 51 95 52 50 95 51 49 95 50 
4 2 1 0
0.5 0.5 2 0.5 1.5 2 1.5 1.5 2 1.5 0.5 2 0 0 0 1 1 1 1 0 3 2 1 3 1 4 
4 2 1 0
0.5 1.5 1 1.5 1.5 1 1.5 1.5 2 0.5 1.5 2 0 0 0 1 1 1 1 0 3 2 1 3 1 4 
11 9 1 5.89805981832114e-017
0.6 1.5 1 1.5 1.5 1 0.5 1.5 1.1 0.502507208781818 1.5 1.07774790660437 0.509903113209758 1.5 1.05661162608824 0.521816851753197 1.5 1.03765101981413 0.537651019814127 1.5 1.0218168517532 0.556611626088244 1.5 1.00990311320976 0.577747906604368 1.5 1.00250720878182 1.5 1.5 2 0.5 1.5 2 0 0.1 0 1 0.1 -2.77555756156289e-017 0.0777479066043687 0.00250720878181761 0.0566116260882443 0.00990311320975806 0.0376510198141267 0.021816851753197 0.0218168517531971 0.0376510198141266 0.00990311320975817 0.0566116260882442 0.00250720878181772 0.0777479066043685 1 1 1 0 3 5 4 3 6 5 3 7 6 3 8 7 3 9 8 3 1 9 10 2 1 10 3 11 10 1 3 
11 9 1 1.11022302462516e-016
0.5 0.7 2 0.5 1.5 2 0.7 0.5 2 0.505014417563635 0.655495813208737 2 0.519806226419516 0.613223252176488 2 0.543633703506394 0.575302039628253 2 0.575302039628253 0.543633703506394 2 0.613223252176488 0.519806226419516 2 0.655495813208737 0.505014417563635 2 1.5 1.5 2 1.5 0.5 2 0 0.2 0 1 0.2 -5.55111512312578e-017 0.00501441756363522 0.155495813208737 0.0198062264195161 0.113223252176488 0.043633703506394 0.0753020396282533 0.0753020396282532 0.043633703506394 0.113223252176488 0.0198062264195161 0.155495813208737 0.00501441756363524 1 1 1 0 1 4 5 1 5 6 1 6 7 1 7 8 1 8 9 1 9 3 10 2 1 10 3 11 10 1 3 

TShapes 184
Ve
1e-007
0.4 0.5 -1
0 0

0101101
*
Ve
1e-007
-0.5 0.5 -1
0 0

0101101
*
Ed
 1e-007 1 1 0
1  1 0 0 0.9
2  1 1 0 0 0.9
2  2 2 0 0 0.9
0

0101000
-184 0 +183 0 *
Ve
1e-007
0.5 0.5 -0.9
0 0

0101101
*
Ed
 1e-007 1 1 0
1  2 0 1.5707963267949 3.14159265358979
2  3 3 0 1.5707963267949 3.14159265358979
2  4 1 0 1.5707963267949 3.14159265358979
0

0101000
+181 0 -184 0 *
Ve
1e-007
-0.5 0.5 0
0 0

0101101
*
Ed
 1e-007 1 1 0
1  3 0 0 1
2  5 4 0 0 1
2  6 1 0 0 1
6  1 1 0
6  2 2 0
6  3 3 0
0

0101000
-179 0 +183 0 *
Ve
0.0001
0.5 0.5 0
0 0

0101101
*
Ed
 1e-007 1 1 0
1  4 0 0.1 1
2  7 1 0 0.1 1
2  8 5 0 0.1 1
0

0101000
+181 0 -177 0 *
Ve
0.0001
0 0.5 0
0 0

0101101
*
Ed
 1e-007 1 1 0
1  5 0 0 0.5
2  9 1 0 0 0.5
2  10 6 0 0 0.5
6  4 2 0
6  5 4 0
0

0101000
+179 0 -175 0 *
Ed
 1e-007 1 1 0
1  5 0 0.5 1
2  9 1 0 0.5 1
2  10 6 0 0.5 1
2  11 7 0 0.5 1
6  6 5 0
6  7 6 0
6  8 2 0
0

0101000
+175 0 -177 0 *
Wi

0101100
-182 0 +180 0 +178 0 -176 0 +174 0 +173 0 *
Fa
0  1e-007 1 0

0101000
+172 0 *
Ve
1e-007
-0.5 -0.4 -1
0 0

0101101
*
Ed
 1e-007 1 1 0
1  6 0 0.1 1
2  12 4 0 0.1 1
2  13 2 0 0.1 1
0

0101000
+170 0 -183 0 *
Ve
1e-007
0.4 -0.4 -1
0 0

0101101
*
Ed
 1e-007 1 1 0
1  7 0 0 0.9
2  14 8 0 0 0.9
2  15 2 0 0 0.9
4 G1 8 0 2 0
0

0101000
+170 0 -168 0 *
Ed
 1e-007 1 1 0
1  8 0 0.1 1
2  16 3 0 0.1 1
2  17 2 0 0.1 1
4 G1 3 0 2 0
0

0101000
+168 0 -184 0 *
Wi

0101100
-169 0 +167 0 -182 0 +166 0 *
Fa
0  1e-007 2 0

0101000
+165 0 *
Ve
1e-007
0.5 -0.4 -0.9
0 0

0101101
*
Ed
 1e-007 1 1 0
1  9 0 0.1 1
2  18 3 0 0.1 1
2  19 5 0 0.1 1
4 G1 3 0 5 0
0

0101000
+163 0 -181 0 *
Ed
 1e-007 1 1 0
1  10 0 0 1.5707963267949
2  20 3 0 0 1.5707963267949
2  21 9 0 0 1.5707963267949
4 G1 9 0 3 0
0

0101000
+163 0 -168 0 *
Wi

0101100
-162 0 +161 0 -180 0 +166 0 *
Fa
0  0 3 0

0101000
+160 0 *
Ve
1e-007
-0.5 -0.5 -0.9
0 0

0101101
*
Ve
1e-007
-0.5 -0.5 0
0 0

0101101
*
Ed
 1e-007 1 1 0
1  11 0 0.1 1
2  22 4 0 0.1 1
2  23 10 0 0.1 1
0

0101000
+158 0 -157 0 *
Ed
 1e-007 1 1 0
1  12 0 3.14159265358979 4.71238898038469
2  24 8 0 3.14159265358979 4.71238898038469
2  25 4 0 3.14159265358979 4.71238898038469
0

0101000
+170 0 -158 0 *
Ed
 1e-007 1 1 0
1  13 0 0 1
2  26 4 0 0 1
2  27 6 0 0 1
6  9 7 0
6  10 4 0
6  11 3 0
0

0101000
-179 0 +157 0 *
Wi

0101100
-156 0 -155 0 -154 0 +169 0 +178 0 *
Fa
0  1e-007 4 0

0101000
+153 0 *
Ve
1e-007
0.5 0.2 -2.77555756156289e-017
0 0

0101101
*
Ed
 1e-007 1 1 0
1  14 0 0.7 1
2  28 6 0 0.7 1
2  29 7 0 0.7 1
2  30 5 0 0.7 1
6  12 8 0
0

0101000
+151 0 -177 0 *
Ve
1e-007
0.5 -0.4 0
0 0

0101101
*
Ed
 1e-007 1 1 0
1  15 0 0.1 1
2  31 11 0 0.1 1
2  32 5 0 0.1 1
4 G1 11 0 5 0
0

0101000
+163 0 -149 0 *
Ve
0.0001
0.5 -2.77555756156289e-017 0.2
0 0

0101101
*
Ed
 1e-007 1 1 0
1  16 0 1.5707963267949 3.14159265358979
2  33 12 0 1.5707963267949 3.14159265358979
2  34 5 0 1.5707963267949 3.14159265358979
6  13 8 0
0

0101000
+147 0 -151 0 *
Ve
0.0001
0.5 0 0
0 0

0101101
*
Ed
 1e-007 1 1 0
1  14 0 0.1 0.5
2  28 6 0 0.1 0.5
2  30 5 0 0.1 0.5
0

0101000
+149 0 -145 0 *
Ed
 0.0001 1 1 0
1  17 0 0.5 0.7
2  35 5 0 0.5 0.7
2  36 13 0 0.5 0.7
6  14 8 0
0

0101000
+145 0 -147 0 *
Wi

0101100
+176 0 +162 0 -150 0 -148 0 -146 0 -144 0 -143 0 *
Fa
0  1e-007 5 0

0101000
+142 0 *
Ve
1e-007
0.4 -0.5 0
0 0

0101101
*
Ed
 1e-007 1 1 0
1  18 0 4.71238898038469 6.28318530717959
2  37 11 0 4.71238898038469 6.28318530717959
2  38 6 0 4.71238898038469 6.28318530717959
0

0101000
+149 0 -140 0 *
Ve
0.0001
0 0 0
0 0

0101101
*
Ed
 1e-007 1 1 0
1  19 0 0 0.5
2  39 13 0 0 0.5
2  40 7 0 0 0.5
2  41 6 0 0 0.5
6  15 9 0
6  16 10 0
6  17 11 0
6  18 12 0
6  19 4 0
0

0101000
+138 0 -145 0 *
Ed
 1e-007 1 1 0
1  20 0 0 0.9
2  42 10 0 0 0.9
2  43 6 0 0 0.9
0

0101000
-140 0 +157 0 *
Ed
 1e-007 1 1 0
1  21 0 0 0.5
2  44 7 0 0 0.5
2  45 6 0 0 0.5
2  46 14 0 0 0.5
6  20 13 0
6  21 4 0
0

0101000
+138 0 -175 0 *
Wi

0101100
+144 0 -139 0 -137 0 +136 0 +135 0 -154 0 -174 0 *
Fa
0  1e-007 6 0

0101000
+134 0 *
Ve
1e-007
0.8 1 -2.77555756156289e-017
0 0

0101101
*
Ve
1e-007
0 1 0
0 0

0101101
*
Ed
 1e-007 1 1 0
1  22 0 0 0.8
2  47 7 0 0 0.8
2  48 15 0 0 0.8
0

0101000
-132 0 +131 0 *
Ve
1e-007
0.8 0.2 -2.77555756156289e-017
0 0

0101101
*
Ed
 1e-007 1 1 0
1  23 0 0.2 1
2  49 16 0 0.2 1
2  50 7 0 0.2 1
4 G1 16 0 7 0
0

0101000
+129 0 -132 0 *
Ed
 1e-007 1 1 0
1  21 0 0.5 1
2  44 7 0 0.5 1
6  22 14 0
2  46 14 0 0.5 1
6  23 13 0
6  24 6 0
0

0101000
+175 0 -131 0 *
Ed
 1e-007 1 1 0
1  24 0 0 0.3
2  51 12 0 0 0.3
2  52 7 0 0 0.3
4 G1 12 0 7 0
0

0101000
+151 0 -129 0 *
Wi

0101100
-130 0 +128 0 -127 0 +126 0 +173 0 -150 0 *
Fa
0  1e-007 7 0

0101000
+125 0 *
Ve
1e-007
0.4 -0.5 -0.9
0 0

0101101
*
Ed
 1e-007 1 1 0
1  25 0 0 0.9
2  53 8 0 0 0.9
2  54 10 0 0 0.9
4 G1 8 0 10 0
0

0101000
+158 0 -123 0 *
Ed
 1e-007 1 1 0
1  26 0 4.71238898038469 6.28318530717959
2  55 8 0 4.71238898038469 6.28318530717959
2  56 9 0 4.71238898038469 6.28318530717959
4 G1 9 0 8 0
0

0101000
+123 0 -168 0 *
Wi

0101100
+155 0 -167 0 +122 0 +121 0 *
Fa
0  0 8 0

0101000
+120 0 *
Ed
 1e-007 1 1 0
1  27 0 4.71238898038469 6.28318530717959
2  57 11 0 4.71238898038469 6.28318530717959
2  58 9 0 4.71238898038469 6.28318530717959
4 G1 9 0 11 0
0

0101000
+123 0 -163 0 *
Ed
 2.22044604925031e-016 1 1 1
2  59 9 0 0 1.5707963267949
0

0101000
+123 0 -123 0 *
Wi

0101100
-118 0 +117 0 +121 0 -161 0 *
Fa
0  0 9 0

0101000
+116 0 *
Ed
 1e-007 1 1 0
1  28 0 0.1 1
2  60 11 0 0.1 1
2  61 10 0 0.1 1
4 G1 11 0 10 0
0

0101000
+123 0 -140 0 *
Wi

0101100
+136 0 -114 0 +156 0 -122 0 *
Fa
0  1e-007 10 0

0101000
+113 0 *
Wi

0101100
-118 0 +114 0 -148 0 -139 0 *
Fa
0  0 11 0

0101000
+111 0 *
Ve
1e-007
0.8 -2.77555756156289e-017 0.2
0 0

0101101
*
Ed
 1e-007 1 1 0
1  29 0 -0 0.3
2  62 12 0 -0 0.3
2  63 13 0 -0 0.3
4 G1 12 0 13 0
0

0101000
+147 0 -109 0 *
Ed
 1e-007 1 1 0
1  30 0 0 1.5707963267949
2  64 12 0 0 1.5707963267949
2  65 17 0 0 1.5707963267949
4 G1 17 0 12 0
0

0101000
+109 0 -129 0 *
Wi

0101100
+146 0 -108 0 +126 0 -107 0 *
Fa
0  0 12 0

0101000
+106 0 *
Ve
1e-007
0.8 -2.77555756156289e-017 1
0 0

0101101
*
Ve
1e-007
0 0 1
0 0

0101101
*
Ed
 1e-007 1 1 0
1  31 0 0 0.8
2  66 13 0 0 0.8
2  67 18 0 0 0.8
0

0101000
-104 0 +103 0 *
Ed
 1e-007 1 1 0
1  32 0 0.2 1
2  68 19 0 0.2 1
2  69 13 0 0.2 1
4 G1 19 0 13 0
0

0101000
+109 0 -104 0 *
Ed
 1e-007 1 1 0
1  33 0 0 1
2  70 13 0 0 1
6  25 15 0
6  26 16 0
6  27 14 0
2  71 14 0 0 1
6  28 13 0
6  29 12 0
0

0101000
-103 0 +138 0 *
Wi

0101100
+102 0 -101 0 +100 0 -108 0 -137 0 -143 0 *
Fa
0  1e-007 13 0

0101000
+99 0 *
Ve
1e-007
0 1 1
0 0

0101101
*
Ed
 1e-007 1 1 0
1  34 0 0 1
2  72 18 0 0 1
6  30 17 0
6  31 15 0
6  32 14 0
6  33 18 0
2  73 14 0 0 1
6  34 19 0
6  35 20 0
6  36 21 0
0

0101000
-97 0 +103 0 *
Ed
 1e-007 1 1 0
1  35 0 0 1
6  37 22 0
6  38 15 0
6  39 14 0
2  74 14 0 0 1
2  75 15 0 0 1
6  40 23 0
6  41 24 0
0

0101000
-97 0 +131 0 *
Wi

0101100
-100 0 -96 0 +95 0 +135 0 +127 0 *
Fa
0  1e-007 14 0

0101000
+94 0 *
Ve
1e-007
1 1 0.2
0 0

0101101
*
Ed
 1e-007 1 1 0
1  36 0 3.14159265358979 4.71238898038469
2  76 16 0 3.14159265358979 4.71238898038469
2  77 15 0 3.14159265358979 4.71238898038469
0

0101000
+132 0 -92 0 *
Ve
2.12133034355964e-007
1 1 1
0 0

0101101
*
Ed
 1e-007 1 1 0
1  37 0 0.2 1
2  78 15 0 0.2 1
6  42 25 0
2  79 20 0 0.2 1
0

0101000
+92 0 -90 0 *
Ve
0.0001
0.5 1 1
0 0

0101101
*
Ed
 1e-007 1 1 0
1  38 0 0 0.5
2  80 18 0 0 0.5
6  43 26 0
2  81 15 0 0 0.5
6  44 23 0
6  45 20 0
6  46 21 0
6  47 24 0
0

0101000
+97 0 -88 0 *
Ed
 1e-007 1 1 0
1  38 0 0.5 1
2  81 15 0 0.5 1
2  80 18 0 0.5 1
2  82 21 0 0.5 1
6  48 26 0
6  49 27 0
6  50 24 0
6  51 28 0
0

0101000
+88 0 -90 0 *
Wi

0101100
-130 0 -91 0 +95 0 -89 0 +87 0 +86 0 *
Fa
0  1e-007 15 0

0101000
+85 0 *
Ve
1e-007
1 0.2 0.2
0 0

0101101
*
Ed
 1e-007 1 1 0
1  39 0 4.71238898038469 6.28318530717959
2  83 16 0 4.71238898038469 6.28318530717959
2  84 17 0 4.71238898038469 6.28318530717959
4 G1 17 0 16 0
0

0101000
+83 0 -129 0 *
Ed
 1e-007 1 1 0
1  40 0 0.2 1
2  85 16 0 0.2 1
4 G1 16 0 20 0
6  52 25 0
2  86 20 0 0.2 1
0

0101000
+83 0 -92 0 *
Wi

0101100
-82 0 +81 0 -128 0 -91 0 *
Fa
0  0 16 0

0101000
+80 0 *
Ed
 1e-007 1 1 0
1  41 0 4.71238898038469 6.28318530717959
2  87 19 0 4.71238898038469 6.28318530717959
2  88 17 0 4.71238898038469 6.28318530717959
4 G1 17 0 19 0
0

0101000
+83 0 -109 0 *
Ed
 2.22044604925031e-016 1 1 1
2  89 17 0 0 1.5707963267949
0

0101000
+83 0 -83 0 *
Wi

0101100
-78 0 +77 0 +82 0 -107 0 *
Fa
0  0 17 0

0101000
+76 0 *
Ve
1e-007
1 0.2 1
0 0

0101101
*
Ve
0.0001
1 0.5 1
0 0

0101101
*
Ed
 1e-007 1 1 0
1  42 0 0.2 0.5
2  90 18 0 0.2 0.5
6  53 25 0
2  91 20 0 0.2 0.5
0

0101000
+74 0 -73 0 *
Ed
 1e-007 1 1 0
1  43 0 0 1.5707963267949
2  92 19 0 0 1.5707963267949
2  93 18 0 0 1.5707963267949
0

0101000
+104 0 -74 0 *
Ve
0.0001
0.5 0.5 1
0 0

0101101
*
Ed
 1e-007 1 1 0
1  44 0 0 0.5
2  94 22 0 0 0.5
2  95 21 0 0 0.5
2  96 18 0 0 0.5
6  54 19 0
6  55 29 0
6  56 30 0
6  57 31 0
6  58 32 0
6  59 21 0
6  60 33 0
0

0101000
+70 0 -73 0 *
Ed
 1e-007 1 1 0
1  45 0 0 0.5
2  97 23 0 0 0.5
2  98 21 0 0 0.5
2  99 18 0 0 0.5
6  61 34 0
6  62 30 0
6  63 21 0
0

0101000
+70 0 -88 0 *
Wi

0101100
+72 0 +71 0 -69 0 +102 0 +68 0 -96 0 -87 0 *
Fa
0  1e-007 18 0

0101000
+67 0 *
Ed
 1e-007 1 1 0
1  46 0 0.2 1
2  100 19 0 0.2 1
4 G1 19 0 20 0
6  64 25 0
2  101 20 0 0.2 1
0

0101000
+83 0 -74 0 *
Wi

0101100
-78 0 +65 0 -101 0 -71 0 *
Fa
0  0 19 0

0101000
+64 0 *
Ve
1e-007
1 0.9 1
0 0

0101101
*
Ed
 1e-007 1 1 0
1  42 0 0.9 1
2  90 18 0 0.9 1
2  102 21 0 0.9 1
2  91 20 0 0.9 1
0

0101000
+62 0 -90 0 *
Ve
0.0001
1 0.5 1.4
0 0

0101101
*
Ed
 1e-007 1 1 0
1  47 0 3.14159265358979 4.71238898038469
2  103 24 0 3.14159265358979 4.71238898038469
2  104 20 0 3.14159265358979 4.71238898038469
0

0101000
+62 0 -60 0 *
Ed
 0.0001 1 1 0
1  48 0 0.5 0.9
2  105 20 0 0.5 0.9
2  106 22 0 0.5 0.9
0

0101000
+73 0 -60 0 *
Wi

0101100
-61 0 +59 0 +89 0 -58 0 +81 0 -72 0 -65 0 *
Fa
0  1e-007 20 0

0101000
+57 0 *
Ve
1e-007
1.1 1.5 1
0 0

0101101
*
Ve
1e-007
0.5 1.5 1
0 0

0101101
*
Ed
 1e-007 1 1 0
1  49 0 0 0.6
2  107 25 0 0 0.6
2  108 21 0 0 0.6
0

0101000
-55 0 +54 0 *
Ve
1e-007
1.1 0.9 1
0 0

0101101
*
Ed
 1e-007 1 1 0
1  50 0 0.4 1
2  109 26 0 0.4 1
2  110 21 0 0.4 1
4 G1 26 0 21 0
0

0101000
+52 0 -55 0 *
Ed
 1e-007 1 1 0
1  45 0 0.5 1
2  97 23 0 0.5 1
2  98 21 0 0.5 1
6  65 35 0
6  66 28 0
0

0101000
+88 0 -54 0 *
Ed
 1e-007 1 1 0
1  51 0 0 0.1
2  111 24 0 0 0.1
2  112 21 0 0 0.1
4 G1 24 0 21 0
0

0101000
+62 0 -52 0 *
Wi

0101100
-53 0 +51 0 -50 0 +49 0 +86 0 -61 0 *
Fa
0  1e-007 21 0

0101000
+48 0 *
Ve
1e-007
1.1 0.5 2
0 0

0101101
*
Ve
1e-007
0.5 0.5 2
0 0

0101101
*
Ed
 1e-007 1 1 0
1  52 0 0 0.6
2  113 22 0 0 0.6
2  114 27 0 0 0.6
0

0101000
-46 0 +45 0 *
Ve
1e-007
1.1 0.5 1.4
0 0

0101101
*
Ed
 1e-007 1 1 0
1  53 0 0.4 1
2  115 28 0 0.4 1
2  116 22 0 0.4 1
4 G1 28 0 22 0
0

0101000
+43 0 -46 0 *
Ed
 1e-007 1 1 0
1  54 0 0 1
2  117 23 0 0 1
2  118 22 0 0 1
6  67 36 0
6  68 37 0
6  69 34 0
6  70 33 0
0

0101000
-45 0 +70 0 *
Ed
 1e-007 1 1 0
1  55 0 -0 0.1
2  119 24 0 -0 0.1
2  120 22 0 -0 0.1
4 G1 24 0 22 0
0

0101000
+60 0 -43 0 *
Wi

0101100
+44 0 -42 0 +41 0 -40 0 -69 0 -58 0 *
Fa
0  1e-007 22 0

0101000
+39 0 *
Ve
1e-007
0.5 1.5 2
0 0

0101101
*
Ed
 1e-007 1 1 0
1  56 0 0 1
2  121 23 0 0 1
2  122 27 0 0 1
6  71 36 0
6  72 38 0
6  73 34 0
6  74 39 0
6  75 40 0
0

0101000
-37 0 +45 0 *
Ed
 1e-007 1 1 0
1  57 0 0 1
2  123 23 0 0 1
2  124 25 0 0 1
6  76 36 0
6  77 35 0
6  78 39 0
6  79 41 0
0

0101000
-37 0 +54 0 *
Wi

0101100
-41 0 -36 0 +35 0 +68 0 +50 0 *
Fa
0  1e-007 23 0

0101000
+34 0 *
Ed
 1e-007 1 1 0
1  58 0 4.71238898038469 6.28318530717959
2  125 24 0 4.71238898038469 6.28318530717959
2  126 29 0 4.71238898038469 6.28318530717959
4 G1 29 0 24 0
0

0101000
+43 0 -52 0 *
Wi

0101100
+59 0 -49 0 +40 0 +32 0 *
Fa
0  0 24 0

0101000
+31 0 *
Ve
1e-007
1.5 1.5 1.4
0 0

0101101
*
Ed
 1e-007 1 1 0
1  59 0 3.14159265358979 4.71238898038469
2  127 26 0 3.14159265358979 4.71238898038469
2  128 25 0 3.14159265358979 4.71238898038469
0

0101000
+55 0 -29 0 *
Ve
1e-007
1.5 1.5 2
0 0

0101101
*
Ed
 1e-007 1 1 0
1  60 0 0.4 1
2  129 30 0 0.4 1
2  130 25 0 0.4 1
0

0101000
+29 0 -27 0 *
Ed
 1e-007 1 1 0
1  61 0 0 1
2  131 25 0 0 1
2  132 27 0 0 1
6  80 42 0
6  81 43 0
6  82 41 0
6  83 40 0
0

0101000
-27 0 +37 0 *
Wi

0101100
-53 0 -28 0 +35 0 -26 0 +25 0 *
Fa
0  1e-007 25 0

0101000
+24 0 *
Ve
1e-007
1.5 0.9 1.4
0 0

0101101
*
Ed
 1e-007 1 1 0
1  62 0 0 1.5707963267949
2  133 26 0 0 1.5707963267949
2  134 29 0 0 1.5707963267949
4 G1 29 0 26 0
0

0101000
+52 0 -22 0 *
Ed
 1e-007 1 1 0
1  63 0 0.4 1
2  135 26 0 0.4 1
2  136 30 0 0.4 1
4 G1 26 0 30 0
0

0101000
+22 0 -29 0 *
Wi

0101100
-51 0 +21 0 -28 0 +20 0 *
Fa
0  0 26 0

0101000
+19 0 *
Ve
1e-007
1.5 0.9 2
0 0

0101101
*
Ed
 1e-007 1 1 0
1  64 0 0.4 1
2  137 30 0 0.4 1
2  138 27 0 0.4 1
0

0101000
+17 0 -27 0 *
Ed
 1e-007 1 1 0
1  65 0 0 1.5707963267949
2  139 28 0 0 1.5707963267949
2  140 27 0 0 1.5707963267949
0

0101000
+46 0 -17 0 *
Wi

0101100
+16 0 +15 0 -25 0 +44 0 -36 0 *
Fa
0  1e-007 27 0

0101000
+14 0 *
Ed
 1e-007 1 1 0
1  66 0 4.71238898038469 6.28318530717959
2  141 28 0 4.71238898038469 6.28318530717959
2  142 29 0 4.71238898038469 6.28318530717959
4 G1 29 0 28 0
0

0101000
+43 0 -22 0 *
Ed
 1e-007 1 1 0
1  67 0 0.4 1
2  143 28 0 0.4 1
2  144 30 0 0.4 1
4 G1 28 0 30 0
0

0101000
+22 0 -17 0 *
Wi

0101100
+12 0 -42 0 +11 0 -15 0 *
Fa
0  0 28 0

0101000
+10 0 *
Ed
 2.22044604925031e-016 1 1 1
2  145 29 0 0 1.5707963267949
0

0101000
+43 0 -43 0 *
Wi

0101100
-32 0 +8 0 +12 0 -21 0 *
Fa
0  0 29 0

0101000
+7 0 *
Wi

0101100
-16 0 -11 0 +26 0 +20 0 *
Fa
0  1e-007 30 0

0101000
+5 0 *
Sh

0101100
+171 0 -164 0 +159 0 -152 0 +141 0 +133 0 -124 0 -119 0 +115 0 -112 0 
-110 0 +105 0 -98 0 -93 0 +84 0 -79 0 -75 0 +66 0 +63 0 +56 0 
-47 0 -38 0 -33 0 -30 0 +23 0 -18 0 +13 0 +9 0 -6 0 +4 0 
*
So

0100000
+3 0 *
Co

1100000
+2 0 *

+1 0 