DBRep_DrawableShape

CASCADE Topology V1, (c) Matra-Datavision
Locations 0
Curve2ds 91
1 0 -1 1 0 
1 0 1 1 0 
1 0 0 0 1 
1 0.90000000000000002 0.5 0 1 
1 0 0 0 1 
1 0 1 1 0 
1 0.5 0.5 -1 0 
1 -0.5 -0.5 -1 -0 
1 0 -1 1 0 
1 0 0 1 0 
1 1 0 0 1 
1 0 1 1 0 
1 -4.7123889803846897 0.5 1 0 
2 0.90000000000000002 -1.1000000000000001 1 0 0 -1 0.10000000000000001
1 0 0 0 -1 
1 1 0 0 1 
1 1 -0.25 0 -1 
1 0.5 -0.25 0 1 
1 0 0 1 0 
1 0 1 1 0 
1 1 0 0 -1 
1 1 0 0 1 
1 0.5 -0.5 0 1 
1 -4.7123889803846897 0 1 0 
2 -0.099999999999999992 -0.59999999999999998 1 0 0 -1 0.10000000000000001
1 1.5707963267948966 0 0 1 
1 0 0.59999999999999998 1 0 
1 0 0 0 -1 
1 0 0 0 1 
1 0 0 0 1 
1 0 0 1 0 
1 0 0 0 1 
1 0 0 0 -1 
1 0 0 1 0 
1 0 -1 1 0 
1 0 0 0 1 
1 1 0 0 -1 
1 0.5 0.5 0 1 
1 0 0 1 0 
1 0 0 1 0 
1 0 0 1 0 
1 0 0 1 0 
1 1 0 0 -1 
1 0 0 0 1 
1 0 0 0 1 
1 0 0 1 0 
1 0.5 0.5 1 0 
1 1 0 0 1 
1 0 0 1 0 
1 0 0 0 1 
1 0 1 1 0 
1 0 0 0 -1 
1 1 0 0 1 
1 0 -1 1 0 
1 0 1 1 0 
1 1 0 0 1 
1 0 1 1 0 
1 -0.5 0.5 1 0 
1 0 0 0 -1 
1 0 0 0 1 
1 0.5 0.5 0 1 
1 0 0 0 1 
1 0 0 1 0 
1 0.5 0.5 1 0 
1 1 0 0 -1 
1 1 0 0 1 
1 1 0 0 1 
1 0 0 1 0 
1 0 0 1 0 
1 0 1 1 0 
1 0.5 -0.5 0 1 
1 0 0 0 1 
1 0 1 1 0 
1 0 0 0 -1 
1 1 0 0 1 
1 0 0 1 0 
1 0 0 1 0 
1 1 0 0 -1 
1 0 0 0 1 
1 0 -1 1 0 
1 0 0 1 0 
1 0 0 1 0 
1 0 1 1 0 
1 1 0 0 1 
1 0 0 1 0 
1 0 -1 1 0 
1 0 1 1 0 
1 1 0 0 1 
1 0 1 1 0 
1 1 0 0 -1 
1 1 0 0 1 
Curves 42
1 0.5 0.5 -1 0 0 1 
1 0 0.5 -0.099999999999999992 1 0 -0 
1 -0.5 0.5 -1 1 0 -0 
8 -0.5 -0.40000000000000002
1 0 0.5 -0.5 -0 0 -1 
1 -0.5 0.5 -1 0 0 1 
1 -0.5 0.5 0 1 0 -0 
8 4.7123889803846897 6.2831853071795871
2 0.5 0.59999999999999998 -0.099999999999999992 -1 -0 0 0 0 1 -0 1 0 0.10000000000000001
1 0.5 -0.5 -1 -0 1 0 
8 0.75 0.85000000000000009
1 0.5 -0.25 0 -0 1 0 
1 0.5 -0.5 -1 0 0 1 
1 0.5 -0.5 0 -0 1 0 
8 4.7123889803846897 6.2831853071795862
2 0 0.59999999999999998 -0.099999999999999992 -1 -0 0 0 0 1 -0 1 0 0.10000000000000001
1 0 0.59999999999999998 1.3877787807814457e-017 1 0 -0 
1 -0.5 -0.5 -1 -0 1 0 
1 -0.5 -0.5 -1 1 0 -0 
1 0 0 0 -0 1 0 
1 0 1 0 0 0 1 
1 0 0 1 -0 1 0 
1 0 0 0 0 0 1 
1 -0.5 -0.5 -1 0 0 1 
1 -0.5 -0.5 0 -0 1 0 
1 0 0 0 1 0 -0 
1 -0.5 -0.5 0 1 0 -0 
1 0 1 0 1 0 -0 
1 1 0 0 -0 1 0 
1 1 1 0 0 0 1 
1 0 1 1 1 0 -0 
1 0.5 0.5 1 -0 1 0 
1 0.5 0.5 1 1 0 -0 
1 1 0 1 -0 1 0 
1 0 0 1 1 0 -0 
1 1 0 0 0 0 1 
1 0.5 1.5 1 1 0 -0 
1 1.5 0.5 1 -0 1 0 
1 0.5 0.5 1 0 0 1 
1 0.5 0.5 2 -0 1 0 
1 0.5 1.5 1 0 0 1 
1 1.5 0.5 1 0 0 1 
1 0.5 0.5 2 1 0 -0 
1 1.5 1.5 1 0 0 1 
1 0.5 1.5 2 1 0 -0 
1 1.5 0.5 2 -0 1 0 
Polygon3D 0
PolygonOnTriangulations 67
2 1 2 
p 0.00173205115397904 1 0 1 
2 1 2 
p 0.00412310596516754 1 0 1 
2 1 4 
p 0.00173205115397904 1 0 1 
2 1 4 
p 0.00412310596516754 1 0 1 
2 4 5 
p 0.00412310596516754 1 0 0.5 
2 1 4 
p 0.00173205115397904 1 0 1 
2 10 11 
p 0.00412344517606334 1 0 1 
2 1 5 
p 0.00412310596516754 1 0 1 
2 1 2 
p 0.00173205115397904 1 0 1 
2 10 2 
p 0.00412344517606334 1 0 1 
2 1 2 
p 0.00412310596516754 1 0 1 
2 3 4 
p 0.00412310596516754 1 0.5 1 
2 5 6 
p 0.00412310596516754 1 0.5 1 
2 6 4 
p 0.00412344517606334 1 0 0.5 
2 4 13 
p 20.6745691448814 1 0 0.5 
2 2 3 
p 0.00412310596516754 1 0 0.5 
2 10 11 
p 20.6745691448814 1 0 1 
2 11 10 
p 0.00412344517606334 1 0 1 
2 1 10 
p 0.00412344517606334 1 0 1 
2 1 4 
p 0.00173205115397904 1 0 1 
2 4 3 
p 0.00291547629041982 1 0 1 
2 13 12 
p 0.00412344517606334 1 0 1 
2 4 3 
p 0.00412310596516754 1 0 1 
2 1 2 
p 0.00173205115397904 1 0 1 
2 2 3 
p 0.00291547629041982 1 0 1 
2 10 12 
p 0.00412344517606334 1 0 1 
2 2 4 
p 20.6745691448814 1 0 1 
2 2 3 
p 0.00412310596516754 1 0 1 
2 1 5 
p 0.00412310596516754 1 0 0.5 
2 1 2 
p 0.00291547629041982 1 0 1 
2 1 4 
p 0.00291547629041982 1 0 1 
2 1 10 
p 0.00412344517606334 1 0 1 
2 1 2 
p 0.00412310596516754 1 0 1 
2 10 1 
p 20.6745691448814 1 0 1 
2 1 2 
p 0.00173205115397904 1 0 1 
2 1 4 
p 0.00412344517606334 1 0 0.5 
2 15 13 
p 20.6745691448814 1 0 0.5 
2 11 13 
p 20.6745691448814 1 0 0.5 
2 1 4 
p 0.00173205115397904 1 0 1 
2 1 4 
p 20.6745691448814 1 0 1 
2 1 2 
p 0.00173205115397904 1 0 1 
2 2 3 
p 0.00291547629041982 1 0 1 
2 2 3 
p 0.00412310596516754 1 0 1 
2 1 4 
p 0.00173205115397904 1 0 1 
2 4 3 
p 0.00291547629041982 1 0 1 
2 4 3 
p 0.00412310596516754 1 0 1 
2 13 12 
p 20.6745691448814 1 0.5 1 
2 5 4 
p 0.00412310596516754 1 0.5 1 
2 4 3 
p 0.00173205115397904 1 0 1 
2 2 3 
p 0.00173205115397904 1 0 1 
2 2 10 
p 20.6745691448814 1 0 1 
2 11 12 
p 20.6745691448814 1 0 0.5 
2 12 10 
p 20.6745691448814 1 0.5 1 
2 1 4 
p 0.00173205115397904 1 0 1 
2 4 3 
p 0.00291547629041982 1 0 1 
2 2 10 
p 20.6745691448814 1 0 1 
2 1 2 
p 0.00173205115397904 1 0 1 
2 2 3 
p 0.00291547629041982 1 0 1 
2 12 10 
p 20.6745691448814 1 0 1 
2 2 3 
p 0.00173205115397904 1 0 1 
2 4 3 
p 0.00173205115397904 1 0 1 
2 1 2 
p 0.00173205115397904 1 0 1 
2 1 4 
p 0.00173205115397904 1 0 1 
2 2 3 
p 0.00173205115397904 1 0 1 
2 4 3 
p 0.00173205115397904 1 0 1 
2 2 3 
p 0.00173205115397904 1 0 1 
2 4 3 
p 0.00173205115397904 1 0 1 
Surfaces 19
1 -0.5 0.5 -1 -0 1 0 0 0 1 1 0 -0 
1 0.5 -0.5 -1 1 0 -0 0 0 1 0 -1 0 
2 0 0.59999999999999998 -0.099999999999999992 1 0 -0 0 -1 0 -0 0 1 0.10000000000000001
1 -0.5 -0.5 -1 0 0 1 1 0 -0 -0 1 0 
1 0 0 0 1 0 -0 0 0 1 0 -1 0 
1 -0.5 -0.5 -1 1 0 -0 0 0 1 0 -1 0 
1 -0.5 -0.5 0 0 0 1 1 0 -0 -0 1 0 
1 0 0 0 0 0 1 1 0 -0 -0 1 0 
1 -0.5 -0.5 -1 -0 1 0 0 0 1 1 0 -0 
1 0 1 0 -0 1 0 0 0 1 1 0 -0 
1 0 0 1 0 0 1 1 0 -0 -0 1 0 
1 0 0 0 -0 1 0 0 0 1 1 0 -0 
1 1 0 0 1 0 -0 0 0 1 0 -1 0 
1 0.5 0.5 1 0 0 1 1 0 -0 -0 1 0 
1 0.5 0.5 1 1 0 -0 0 0 1 0 -1 0 
1 0.5 0.5 1 -0 1 0 0 0 1 1 0 -0 
1 0.5 1.5 1 -0 1 0 0 0 1 1 0 -0 
1 1.5 0.5 1 1 0 -0 0 0 1 0 -1 0 
1 0.5 0.5 2 0 0 1 1 0 -0 -0 1 0 
Triangulations 25
4 2 1 0
-0.5 0.5 -1 0.5 0.5 -1 0.5 0.5 0 -0.5 0.5 0 0 0 0 1 1 1 1 0 3 2 1 3 1 4 
5 3 1 0
-0.5 0.5 -1 0.5 0.5 -1 0.5 0.5 0 -0.5 0.5 0 0 0.5 0 0 0 0 1 1 1 1 0 1 0.5 5 2 1 5 1 4 3 2 5 
4 2 1 0
0.5 -0.5 -1 0.5 -0.5 0 0.5 0.5 0 0.5 0.5 -1 0 0 1 0 1 -1 0 -1 2 4 3 2 1 4 
11 9 1 5.55111512312578e-017
-0.5 -0.5 -1 -0.5 0.4 -1 -0.4 0.5 -1 -0.497492791218182 0.422252093395631 -1 -0.490096886790242 0.443388373911756 -1 -0.478183148246803 0.462348980185873 -1 -0.462348980185873 0.478183148246803 -1 -0.443388373911756 0.490096886790242 -1 -0.422252093395631 0.497492791218182 -1 0.5 -0.5 -1 0.5 0.5 -1 0 0 0 0.9 0.1 1 0.00250720878181761 0.922252093395631 0.00990311320975806 0.943388373911756 0.021816851753197 0.962348980185873 0.0376510198141266 0.978183148246803 0.0566116260882442 0.990096886790242 0.0777479066043685 0.997492791218182 1 0 1 1 10 2 1 3 4 2 3 5 4 3 6 5 3 7 6 3 8 7 3 9 8 3 2 10 11 3 10 
5 3 1 0
0.5 -0.5 -1 0.5 -0.5 0 0.5 0 0 0.5 0.5 0 0.5 0.5 -1 0 0 1 0 1 -0.5 1 -1 0 -1 3 5 4 3 1 5 2 1 3 
11 9 1 5.55111512312578e-017
-0.4 -0.5 1.38777878078145e-017 0.5 -0.5 0 -0.5 -0.5 -0.1 -0.497492791218182 -0.5 -0.0777479066043686 -0.490096886790242 -0.5 -0.0566116260882442 -0.478183148246803 -0.5 -0.0376510198141266 -0.462348980185873 -0.5 -0.021816851753197 -0.443388373911756 -0.5 -0.00990311320975808 -0.422252093395631 -0.5 -0.00250720878181764 0.5 -0.5 -1 -0.5 -0.5 -1 1 0.1 1 1 0.9 -2.77555756156289e-017 0.922252093395631 0.00250720878181761 0.943388373911756 0.00990311320975805 0.962348980185873 0.021816851753197 0.978183148246803 0.0376510198141266 0.990096886790242 0.0566116260882441 0.997492791218182 0.0777479066043685 0 1 0 0 10 11 3 1 3 4 1 4 5 1 5 6 1 6 7 1 7 8 1 8 9 1 10 3 2 10 1 
6 4 1 0
0 0.5 0 0 1 0 1 1 0 1 0 0 0.5 0 0 0.5 0.5 0 0 0.5 0 1 1 1 1 0 0.5 0 0.5 0.5 6 2 1 6 5 4 3 2 6 3 6 4 
6 4 1 5.59431511413976e-017
0 0 0 0 0.4 1.38777878078145e-017 -0.4 0.4 1.38777878078145e-017 0.5 0 0 -0.4 -0.5 1.38777878078145e-017 0.5 -0.5 0 0.5 0.5 0.5 0.9 0.1 0.9 1 0.5 0.1 0 1 0 1 3 5 6 1 5 2 3 1 4 1 6 
15 13 1 5.59431511413976e-017
-0.5 -0.5 0 -0.5 0.4 1.38777878078145e-017 -0.468480595121969 0.4 1.38777878078145e-017 0.5 -0.5 0 -0.1 0.031519404878031 -2.77555756156289e-017 -0.111643642454395 0.12752885647231 0 -0.14256605795828 0.208906784423903 0 -0.186410495253031 0.273868372558696 0 -0.243561286554877 0.327493677903796 0 -0.31114986625202 0.367173450744935 0 -0.385694771413648 0.391416703864436 0 -0.426861670217127 0.397880293512998 0 0.5 0 0 -0.1 0 -1.38777878078145e-017 0 0 0 0 0 0 0.9 0.031519404878031 0.9 1 0 0.4 0.531519404878031 0.388356357545605 0.62752885647231 0.35743394204172 0.708906784423903 0.313589504746969 0.773868372558696 0.256438713445123 0.827493677903796 0.18885013374798 0.867173450744935 0.114305228586352 0.891416703864436 0.0731383297828726 0.897880293512998 1 0.5 0.4 0.5 0.5 0.5 2 1 14 3 14 5 3 2 14 12 3 5 15 1 4 15 14 1 6 11 12 6 12 5 10 11 6 7 10 6 9 10 7 8 9 7 13 15 4 
11 9 1 9.8879238130678e-017
-0.5 -0.5 0 -0.5 0.4 1.38777878078145e-017 -0.5 0.5 -0.1 -0.5 0.422252093395631 -0.00250720878181762 -0.5 0.443388373911756 -0.00990311320975808 -0.5 0.462348980185873 -0.021816851753197 -0.5 0.478183148246803 -0.0376510198141266 -0.5 0.490096886790242 -0.0566116260882442 -0.5 0.497492791218182 -0.0777479066043685 -0.5 -0.5 -1 -0.5 0.5 -1 1 0 1 -0.9 0.9 -1 0.997492791218182 -0.922252093395631 0.990096886790242 -0.943388373911756 0.978183148246803 -0.962348980185873 0.962348980185873 -0.978183148246803 0.943388373911756 -0.990096886790242 0.922252093395632 -0.997492791218182 0 0 0 -1 10 11 3 2 5 4 2 6 5 2 7 6 2 8 7 2 9 8 2 3 9 2 10 3 1 10 2 
4 2 1 0
0 1 0 1 1 0 1 1 1 0 1 1 0 0 0 1 1 1 1 0 3 2 1 3 1 4 
4 2 1 0
0 0 0 0 0 1 0 1 1 0 1 0 0 0 1 0 1 -1 0 -1 2 4 3 2 1 4 
13 11 1 2.77555756156289e-017
0 0 0 0 0.4 1.38777878078145e-017 0 0.5 -0.1 0 0.422252093395631 -0.00250720878181762 0 0.443388373911756 -0.00990311320975808 0 0.462348980185873 -0.021816851753197 0 0.478183148246803 -0.0376510198141266 0 0.490096886790242 -0.0566116260882442 0 0.497492791218182 -0.0777479066043685 0 0 1 0 0.5 0 0 1 1 0 1 0 0 0 0 -0.4 -0.1 -0.5 -0.00250720878181762 -0.422252093395632 -0.00990311320975808 -0.443388373911756 -0.021816851753197 -0.462348980185873 -0.0376510198141266 -0.478183148246803 -0.0566116260882442 -0.490096886790242 -0.0777479066043685 -0.497492791218182 1 0 0 -0.5 1 -1 0 -1 11 7 8 11 8 9 6 7 11 5 6 11 4 5 11 2 4 11 12 11 13 10 1 2 10 11 12 10 2 11 3 11 9 
5 3 1 0
0 0 0 0 0 1 0 1 1 0 1 0 0 0.5 0 0 0 1 0 1 -1 0 -1 0 -0.5 3 5 4 2 1 5 2 5 3 
4 2 1 0
0 0 1 0 1 1 1 1 1 1 0 1 0 0 0 1 1 1 1 0 3 2 1 3 1 4 
24 22 1 1.05004518624757e-016
1.38777878078145e-017 0 0.1 0 0 1 1.38777878078145e-017 0.031519404878031 0.1 0 1 1 -2.77555756156289e-017 0.909901951359279 0.1 0 0.896177224070509 0.1 0 0.88245249678174 0.1 0 0.86872776949297 0.1 0 0.855003042204201 0.1 0 0.841278314915431 0.1 0 0.827553587626662 0.1 0 0.813828860337892 0.1 0 0.800104133049123 0.1 0 0.786379405760353 0.1 0 0.772654678471584 0.1 0 0.758929951182814 0.1 0 0.745205223894045 0.1 0 0.731480496605275 0.1 0 0.717755769316506 0.1 0 0.690306314738967 0.1 0 0.635407405583889 0.1 0 0.580508496428811 0.1 0 0.470710678118655 0.1 -1.38777878078145e-017 1 0.1 0.1 0 1 0 0.1 -0.031519404878031 1 -1 0.1 -0.909901951359279 0.1 -0.896177224070509 0.1 -0.88245249678174 0.1 -0.86872776949297 0.1 -0.855003042204201 0.1 -0.841278314915431 0.1 -0.827553587626662 0.1 -0.813828860337892 0.1 -0.800104133049123 0.1 -0.786379405760353 0.1 -0.772654678471584 0.1 -0.758929951182814 0.1 -0.745205223894045 0.1 -0.731480496605275 0.1 -0.717755769316506 0.1 -0.690306314738967 0.1 -0.635407405583889 0.1 -0.580508496428811 0.1 -0.470710678118655 0.1 -1 4 6 5 4 7 6 4 8 7 4 9 8 4 10 9 4 11 10 4 12 11 4 13 12 4 14 13 4 15 14 4 16 15 4 17 16 4 18 17 4 19 18 4 20 19 4 21 20 4 22 21 4 23 22 4 5 24 2 1 3 2 3 23 2 23 4 
4 2 1 0
0 0 0 1 0 0 1 0 1 0 0 1 0 0 0 1 1 1 1 0 3 2 1 3 1 4 
4 2 1 0
-0.5 -0.5 0 -0.5 0.5 0 0.5 0.5 0 0.5 -0.5 0 0 0 0 1 1 1 1 0 3 2 1 3 1 4 
13 11 1 1.73472347597681e-018
1.38777878078145e-017 0 0.1 0 0 1 -0.1 0 -1.38777878078145e-017 -0.0777479066043686 0 0.00250720878181762 -0.0566116260882442 0 0.00990311320975808 -0.0376510198141266 0 0.021816851753197 -0.021816851753197 0 0.0376510198141266 -0.00990311320975808 0 0.0566116260882442 -0.00250720878181762 0 0.0777479066043685 1 0 1 0 0 0 1 0 0 0.5 0 0 0.1 0 1 0 -1.38777878078145e-017 -0.1 0.00250720878181762 -0.0777479066043686 0.00990311320975808 -0.0566116260882442 0.021816851753197 -0.0376510198141266 0.0376510198141266 -0.021816851753197 0.0566116260882442 -0.00990311320975808 0.0777479066043685 -0.00250720878181762 1 1 0 0 0 1 0 0.5 11 3 4 11 4 5 11 5 6 7 11 6 8 11 7 9 11 8 13 9 1 13 11 9 2 13 1 10 12 13 10 13 2 
4 2 1 0
0 0 0 0 1 0 1 1 0 1 0 0 0 0 0 1 1 1 1 0 3 2 1 3 1 4 
4 2 1 0
1 0 0 1 0 1 1 1 1 1 1 0 0 0 1 0 1 -1 0 -1 2 4 3 2 1 4 
12 10 1 2.77555756156289e-017
0.1 1 -1.38777878078145e-017 1 1 0 -1.38777878078145e-017 1 0.1 0.00250720878181762 1 0.0777479066043686 0.00990311320975808 1 0.0566116260882442 0.021816851753197 1 0.0376510198141266 0.0376510198141266 1 0.021816851753197 0.0566116260882442 1 0.00990311320975808 0.0777479066043685 1 0.00250720878181762 1 1 1 0 1 1 0.5 1 1 0 0.1 0 1 0.1 -1.38777878078145e-017 0.0777479066043686 0.00250720878181762 0.0566116260882442 0.00990311320975808 0.0376510198141266 0.021816851753197 0.021816851753197 0.0376510198141266 0.00990311320975808 0.0566116260882442 0.00250720878181762 0.0777479066043685 1 1 1 0 1 0.5 1 4 3 1 5 4 1 6 5 1 7 6 1 8 7 1 9 8 12 2 1 12 3 11 12 1 3 10 2 12 
4 2 1 0
0.5 0.5 1 0.5 1.5 1 1.5 1.5 1 1.5 0.5 1 0 0 0 1 1 1 1 0 3 2 1 3 1 4 
4 2 1 0
0.5 0.5 1 0.5 0.5 2 0.5 1.5 2 0.5 1.5 1 0 0 1 0 1 -1 0 -1 2 4 3 2 1 4 
4 2 1 0
0.5 0.5 1 1.5 0.5 1 1.5 0.5 2 0.5 0.5 2 0 0 0 1 1 1 1 0 3 2 1 3 1 4 

TShapes 122
Ve
1e-007
0.5 0.5 -0.1
0 0

0101101
*
Ve
1e-007
0.5 0.5 -1
0 0

0101101
*
Ed
 1e-007 1 1 0
1  1 0 0 0.9
2  1 2 0 0 0.9
2  2 1 0 0 0.9
0

0101000
-122 0 +121 0 *
Ve
0.0001
0 0.5 -0.1
0 0

0101101
*
Ed
 1e-007 1 1 0
1  2 0 -0 0.5
2  3 3 0 -0 0.5
2  4 1 0 -0 0.5
4 G1 3 0 1 0
0

0101000
+119 0 -122 0 *
Ve
1e-007
-0.5 0.5 -1
0 0

0101101
*
Ed
 1e-007 1 1 0
1  3 0 0 1
2  5 1 0 0 1
2  6 4 0 0 1
6  1 1 0
6  2 2 0
0

0101000
-121 0 +117 0 *
Ve
0.0001
0 0.5 0
0 0

0101101
*
Ed
 0.0001 1 1 0
1  4 0 -0.5 -0.4
2  7 1 0 -0.5 -0.4
2  8 5 0 -0.5 -0.4
0

0101000
+115 0 -119 0 *
Ve
1e-007
-0.5 0.5 0
0 0

0101101
*
Ed
 1e-007 1 1 0
1  5 0 0 1
2  9 6 0 0 1
2  10 1 0 0 1
6  3 1 0
6  4 2 0
0

0101000
-113 0 +117 0 *
Ed
 1e-007 1 1 0
1  6 0 0 0.5
2  11 1 0 0 0.5
2  12 7 0 0 0.5
6  5 2 0
0

0101000
+113 0 -115 0 *
Wi

0101100
-120 0 +118 0 -116 0 +114 0 +112 0 +111 0 *
Fa
0  1e-007 1 0

0101000
+110 0 *
Ve
0.0001
0.5 0.6 1.38777878078145e-017
0 0

0101101
*
Ed
 1e-007 1 1 0
1  7 0 4.71238898038469 6.28318530717959
2  13 3 0 4.71238898038469 6.28318530717959
2  14 2 0 4.71238898038469 6.28318530717959
0

0101000
+122 0 -108 0 *
Ve
1e-007
0.5 -0.5 -1
0 0

0101101
*
Ed
 1e-007 1 1 0
1  8 0 0 1
2  15 2 0 0 1
2  16 4 0 0 1
6  6 3 0
6  7 4 0
6  8 5 0
0

0101000
-121 0 +106 0 *
Ve
0.0001
0.5 0.5 0
0 0

0101101
*
Ed
 0.0001 1 1 0
1  9 0 0.75 0.85
2  17 2 0 0.75 0.85
2  18 8 0 0.75 0.85
0

0101000
+104 0 -108 0 *
Ve
1e-007
0.5 -0.5 0
0 0

0101101
*
Ed
 1e-007 1 1 0
1  10 0 0 1
2  19 2 0 0 1
2  20 9 0 0 1
6  9 3 0
6  10 6 0
6  11 5 0
0

0101000
-102 0 +106 0 *
Ve
2.12133034355964e-007
0.5 0 0
0 0

0101101
*
Ed
 1e-007 1 1 0
1  11 0 0.5 1
2  21 2 0 0.5 1
2  22 7 0 0.5 1
2  23 8 0 0.5 1
6  12 5 0
6  13 7 0
0

0101000
+100 0 -104 0 *
Ed
 1e-007 1 1 0
1  11 0 0 0.5
2  21 2 0 0 0.5
2  22 7 0 0 0.5
6  14 8 0
6  15 9 0
6  16 5 0
0

0101000
+102 0 -100 0 *
Wi

0101100
+120 0 +107 0 +105 0 -103 0 -101 0 -99 0 -98 0 *
Fa
0  1e-007 2 0

0101000
+97 0 *
Ve
1e-007
0 0.6 1.38777878078145e-017
0 0

0101101
*
Ed
 1e-007 1 1 0
1  12 0 4.71238898038469 6.28318530717959
2  24 3 0 4.71238898038469 6.28318530717959
2  25 5 0 4.71238898038469 6.28318530717959
0

0101000
+119 0 -95 0 *
Ed
 1e-007 1 1 0
1  13 0 0 0.5
2  26 3 0 0 0.5
2  27 8 0 0 0.5
4 G1 3 0 8 0
0

0101000
+95 0 -108 0 *
Wi

0101100
+94 0 -118 0 +93 0 -107 0 *
Fa
0  0 3 0

0101000
+92 0 *
Ve
1e-007
-0.5 -0.5 -1
0 0

0101101
*
Ed
 1e-007 1 1 0
1  14 0 0 1
2  28 6 0 0 1
2  29 4 0 0 1
6  17 10 0
0

0101000
-117 0 +90 0 *
Ed
 1e-007 1 1 0
1  15 0 0 1
2  30 9 0 0 1
2  31 4 0 0 1
6  18 6 0
6  19 4 0
0

0101000
-106 0 +90 0 *
Wi

0101100
-89 0 -116 0 +105 0 +88 0 *
Fa
0  1e-007 4 0

0101000
+87 0 *
Ve
1e-007
0 1 0
0 0

0101101
*
Ed
 1e-007 1 1 0
1  16 0 0.6 1
2  32 8 0 0.6 1
2  33 5 0 0.6 1
0

0101000
+95 0 -85 0 *
Ve
1e-007
0 1 1
0 0

0101101
*
Ed
 1e-007 1 1 0
1  17 0 0 1
2  34 10 0 0 1
6  20 11 0
6  21 12 0
6  22 13 0
6  23 14 0
2  35 5 0 0 1
0

0101000
-83 0 +85 0 *
Ve
1e-007
0 0 1
0 0

0101101
*
Ed
 1e-007 1 1 0
1  18 0 0 1
2  36 11 0 0 1
6  24 15 0
6  25 12 0
6  26 13 0
6  27 16 0
6  28 14 0
2  37 5 0 0 1
0

0101000
-83 0 +81 0 *
Ve
0.0001
0 0 0
0 0

0101101
*
Ed
 1e-007 1 1 0
1  16 0 0 0.5
2  32 8 0 0 0.5
2  38 7 0 0 0.5
6  29 14 0
2  33 5 0 0 0.5
0

0101000
+79 0 -115 0 *
Ed
 1e-007 1 1 0
1  19 0 0 1
2  39 12 0 0 1
6  30 12 0
6  31 17 0
6  32 13 0
6  33 14 0
2  40 5 0 0 1
0

0101000
-81 0 +79 0 *
Wi

0101100
+84 0 +94 0 +82 0 +114 0 -80 0 +78 0 -77 0 *
Fa
0  1e-007 5 0

0101000
+76 0 *
Ve
1e-007
-0.5 -0.5 0
0 0

0101101
*
Ed
 1e-007 1 1 0
1  20 0 0 1
2  41 6 0 0 1
2  42 9 0 0 1
6  34 10 0
0

0101000
-74 0 +90 0 *
Ed
 1e-007 1 1 0
1  21 0 0 1
2  43 6 0 0 1
2  44 7 0 0 1
6  35 18 0
0

0101000
-113 0 +74 0 *
Wi

0101100
-73 0 -72 0 +112 0 +89 0 *
Fa
0  1e-007 6 0

0101000
+71 0 *
Ed
 1e-007 1 1 0
1  22 0 0 0.5
2  45 12 0 0 0.5
2  46 8 0 0 0.5
2  47 7 0 0 0.5
6  36 8 0
6  37 9 0
6  38 19 0
0

0101000
+79 0 -100 0 *
Ed
 1e-007 1 1 0
1  23 0 0 1
2  48 9 0 0 1
2  49 7 0 0 1
6  39 18 0
6  40 9 0
0

0101000
-102 0 +74 0 *
Wi

0101100
-111 0 +78 0 -69 0 +98 0 +68 0 -72 0 *
Fa
0  1e-007 7 0

0101000
+67 0 *
Ve
1e-007
1 1 0
0 0

0101101
*
Ed
 1e-007 1 1 0
1  24 0 0 1
2  50 10 0 0 1
2  51 8 0 0 1
6  41 11 0
6  42 20 0
6  43 7 0
0

0101000
-65 0 +85 0 *
Ve
1e-007
1 0 0
0 0

0101101
*
Ed
 1e-007 1 1 0
1  25 0 0 1
2  52 13 0 0 1
2  53 8 0 0 1
6  44 21 0
6  45 20 0
6  46 7 0
0

0101000
-65 0 +63 0 *
Ed
 1e-007 1 1 0
1  22 0 0.5 1
2  45 12 0 0.5 1
2  46 8 0 0.5 1
6  47 19 0
6  48 7 0
0

0101000
+100 0 -63 0 *
Wi

0101100
-84 0 +93 0 -64 0 -103 0 +62 0 -99 0 +61 0 *
Fa
0  1e-007 8 0

0101000
+60 0 *
Wi

0101100
-88 0 -101 0 +68 0 +73 0 *
Fa
0  1e-007 9 0

0101000
+58 0 *
Ve
2.12133034355964e-007
1 1 1
0 0

0101101
*
Ed
 1e-007 1 1 0
1  26 0 0 1
2  54 13 0 0 1
2  55 10 0 0 1
6  49 21 0
6  50 11 0
6  51 22 0
0

0101000
-56 0 +65 0 *
Ve
2.12133034355964e-007
0.5 1 1
0 0

0101101
*
Ed
 1e-007 1 1 0
1  27 0 0 0.5
2  56 10 0 0 0.5
2  57 11 0 0 0.5
6  52 22 0
0

0101000
+83 0 -54 0 *
Ed
 1e-007 1 1 0
1  27 0 0.5 1
2  56 10 0 0.5 1
2  57 11 0 0.5 1
2  58 14 0 0.5 1
6  53 22 0
0

0101000
+54 0 -56 0 *
Wi

0101100
-64 0 -55 0 +53 0 +52 0 +82 0 *
Fa
0  1e-007 10 0

0101000
+51 0 *
Ve
2.12133034355964e-007
0.5 0.5 1
0 0

0101101
*
Ed
 1e-007 1 1 0
1  28 0 0 0.5
2  59 15 0 0 0.5
2  60 14 0 0 0.5
2  61 11 0 0 0.5
0

0101000
+49 0 -54 0 *
Ve
2.12133034355964e-007
1 0.5 1
0 0

0101101
*
Ed
 1e-007 1 1 0
1  29 0 0 0.5
2  62 16 0 0 0.5
2  63 14 0 0 0.5
2  64 11 0 0 0.5
0

0101000
+49 0 -47 0 *
Ve
1e-007
1 0 1
0 0

0101101
*
Ed
 1e-007 1 1 0
1  30 0 0 0.5
2  65 13 0 0 0.5
2  66 11 0 0 0.5
0

0101000
+45 0 -47 0 *
Ed
 1e-007 1 1 0
1  31 0 0 1
2  67 12 0 0 1
2  68 11 0 0 1
6  54 15 0
6  55 17 0
6  56 19 0
0

0101000
-45 0 +81 0 *
Wi

0101100
-53 0 +48 0 -46 0 +44 0 +43 0 -80 0 *
Fa
0  1e-007 11 0

0101000
+42 0 *
Ed
 1e-007 1 1 0
1  32 0 0 1
2  69 13 0 0 1
2  70 12 0 0 1
6  57 21 0
6  58 17 0
6  59 19 0
0

0101000
-45 0 +63 0 *
Wi

0101100
-69 0 -61 0 -40 0 +43 0 +77 0 *
Fa
0  1e-007 12 0

0101000
+39 0 *
Ed
 1e-007 1 1 0
1  30 0 0.5 1
2  65 13 0 0.5 1
2  66 11 0 0.5 1
2  71 14 0 0.5 1
0

0101000
+47 0 -56 0 *
Wi

0101100
-40 0 -44 0 -37 0 +55 0 +62 0 *
Fa
0  1e-007 13 0

0101000
+36 0 *
Ve
1e-007
0.5 1.5 1
0 0

0101101
*
Ed
 1e-007 1 1 0
1  28 0 0.5 1
2  59 15 0 0.5 1
2  60 14 0 0.5 1
0

0101000
+54 0 -34 0 *
Ve
1e-007
1.5 1.5 1
0 0

0101101
*
Ed
 1e-007 1 1 0
1  33 0 0 1
2  72 17 0 0 1
2  73 14 0 0 1
6  60 23 0
0

0101000
-32 0 +34 0 *
Ve
1e-007
1.5 0.5 1
0 0

0101101
*
Ed
 1e-007 1 1 0
1  34 0 0 1
2  74 18 0 0 1
2  75 14 0 0 1
6  61 23 0
0

0101000
-32 0 +30 0 *
Ed
 1e-007 1 1 0
1  29 0 0.5 1
2  62 16 0 0.5 1
2  63 14 0 0.5 1
0

0101000
+47 0 -30 0 *
Wi

0101100
-33 0 -31 0 +29 0 +28 0 -37 0 +52 0 *
Fa
0  1e-007 14 0

0101000
+27 0 *
Ve
1e-007
0.5 0.5 2
0 0

0101101
*
Ed
 1e-007 1 1 0
1  35 0 0 1
2  76 15 0 0 1
2  77 16 0 0 1
6  62 24 0
6  63 25 0
0

0101000
-25 0 +49 0 *
Ve
1e-007
0.5 1.5 2
0 0

0101101
*
Ed
 1e-007 1 1 0
1  36 0 0 1
2  78 15 0 0 1
2  79 19 0 0 1
6  64 24 0
0

0101000
-23 0 +25 0 *
Ed
 1e-007 1 1 0
1  37 0 0 1
2  80 15 0 0 1
2  81 17 0 0 1
6  65 24 0
0

0101000
-23 0 +34 0 *
Wi

0101100
-24 0 -22 0 +21 0 +48 0 +33 0 *
Fa
0  1e-007 15 0

0101000
+20 0 *
Ve
1e-007
1.5 0.5 2
0 0

0101101
*
Ed
 1e-007 1 1 0
1  38 0 0 1
2  82 18 0 0 1
2  83 16 0 0 1
6  66 25 0
0

0101000
-18 0 +30 0 *
Ed
 1e-007 1 1 0
1  39 0 0 1
2  84 16 0 0 1
2  85 19 0 0 1
6  67 25 0
0

0101000
-18 0 +25 0 *
Wi

0101100
-46 0 -28 0 -17 0 +16 0 +24 0 *
Fa
0  1e-007 16 0

0101000
+15 0 *
Ve
1e-007
1.5 1.5 2
0 0

0101101
*
Ed
 1e-007 1 1 0
1  40 0 0 1
2  86 18 0 0 1
2  87 17 0 0 1
0

0101000
-13 0 +32 0 *
Ed
 1e-007 1 1 0
1  41 0 0 1
2  88 17 0 0 1
2  89 19 0 0 1
0

0101000
-13 0 +23 0 *
Wi

0101100
-31 0 -12 0 +11 0 +21 0 *
Fa
0  1e-007 17 0

0101000
+10 0 *
Ed
 1e-007 1 1 0
1  42 0 0 1
2  90 18 0 0 1
2  91 19 0 0 1
0

0101000
-13 0 +18 0 *
Wi

0101100
-17 0 -8 0 +12 0 +29 0 *
Fa
0  1e-007 18 0

0101000
+7 0 *
Wi

0101100
-22 0 -11 0 +8 0 +16 0 *
Fa
0  1e-007 19 0

0101000
+5 0 *
Sh

0101100
+109 0 +96 0 +91 0 -86 0 -75 0 -70 0 +66 0 -59 0 -57 0 +50 0 
+41 0 -38 0 +35 0 -26 0 -19 0 -14 0 +9 0 +6 0 +4 0 *
So

0100000
+3 0 *
Co

1100000
+2 0 *

+1 0 