DBRep_DrawableShape

CASCADE Topology V1, (c) Matra-Datavision
Locations 0
Curve2ds 73
1 0 0 0 1 
1 0.49999999999999989 0 0 1 
1 0 0 0 1 
1 0.49999999999999989 2.5 1 0 
1 0 0 1 0 
1 0 0 1 0 
1 3 0 0 1 
1 0 0 1 0 
1 0 0 0 1 
7 0 0  14 15 2  1.570796326794893 3.4999999999999512  1.4959968441326914 3.4252005173369349  1.4213255370065423 3.3503667677803941  1.3450889013883571 3.2759942002784639  1.2749231067770446 3.2007235820068134  1.1819673757664664 3.1287852673450751  1.140190021194786 3.0534629076525355  0.99978228721392803 2.976537729232557  0.99166204867647834 2.9160040167046013  0.82761565947810822 2.8088867444004202  0.77122486779675392 2.7665716916073473  0.64140304605224796 2.640360685763353  0.44874483932518983 2.5476682068242638  0.22439844798530392 2.4999999999989093  -2.8491798627928027e-016 2.5 
 3.0519401390599384e-014 15 0.9550494472593174 15
1 -1.5707963267948966 0 1 0 
2 0.49999999999999989 0.5 1 0 0 -1 0.5
1 1.5707963267948966 0 0 1 
1 1.5 1 1 0 
7 0 0  9 10 2  2.2204460492503131e-016 0  0.15713484026367139 0  0.32577471687121989 0  0.50456638671893939 0  0.6907448517272412 0  0.88005147529858718 0  1.0662299397732335 0  1.2450216100244675 0  1.4136614865312285 0  1.5707963267948966 0 
 0 10 0.95504944725928687 10
8 0 0.95504944725928687
1 0 0.9550494472593174 1 0 
1 1.5707963267948966 0 0 1 
1 0.49999999999999989 -0.5 1 0 
1 0 2.5 1 0 
2 2.5 0.5 0 -1 1 0 0.5
1 3 0 0 -1 
1 0 0 0 1 
1 0 0.75 0 1 
1 1.5 0.75 0 -1 
1 0 -3 1 0 
1 0 0 1 0 
1 0 0 0 -1 
1 0 0 0 1 
1 1.5 1.5 0 1 
1 3 0 0 -1 
1 3 0 0 1 
1 3 0 0 1 
1 0 3 1 0 
8 0 0.95504944725928687
1 0 3.0519401390599384e-014 1 0 
1 0.95504944725928687 0 0 1 
7 0 0  14 15 2  1.5707963267948326 -0.49999999999998124  1.4959968441326879 -0.42520051733810632  1.4213255370075193 -0.35036676777439496  1.345088901383789 -0.27599420029665178  1.2749231067891114 -0.20072358196698989  1.1819673757447759 -0.12878526741217516  1.1401900212228975 -0.053462907563171638  0.99978228718725026 0.023462270671908092  0.99166204869470909 0.083995983378274242  0.82761565946975268 0.19111325554093092  0.77122486779867694 0.23342830842638126  0.64140304605259935 0.3596393142212167  0.44874483932474135 0.45233179318101657  0.22439844798544148 0.49999999999997669  -2.8491798628013559e-016 0.49999999999999989 
 3.0519401390599384e-014 15 0.9550494472593174 15
1 0 0 0 1 
1 0 3 1 0 
1 1.5 4.5 1 0 
1 1.5707963267948966 0 0 1 
1 5 1.5 0 1 
1 0 -0.75 0 1 
1 0.75 4.5 1 0 
1 3 0 0 -1 
1 0 0 0 1 
1 3 0 0 1 
1 0 6 1 0 
1 3 0 0 1 
1 0 0 1 0 
1 3 0 0 -1 
1 6 0 0 1 
1 0 0 0 1 
1 0.49999999999999989 0 0 -1 
1 0 -3 1 0 
1 0 3 1 0 
1 -1.5707963267948966 3 1 0 
2 0.49999999999999989 3.5 1 0 0 -1 0.5
1 0 0 1 0 
1 0 0 1 0 
1 0 -6 1 0 
1 0 0 1 0 
1 0 0 0 -1 
1 0 0 0 1 
1 0 0 0 1 
1 0 6 1 0 
1 0 -6 1 0 
1 0 6 1 0 
1 0 0 0 1 
1 0 0 1 0 
1 0 0 1 0 
1 0 6 1 0 
1 0 0 0 -1 
1 6 0 0 1 
Curves 35
1 -1.5 -1.5 0.49999999999999989 1 0 -0 
1 1 -1.5 0.49999999999999989 0 0 1 
1 -1.5 -1.5 0 0 0 1 
1 -1.5 -1.5 3 1 0 -0 
7 1 0  14 15 2  2 -2 -1.1102230246251565e-016  1 1.9252005173381996 -1.962600258669041 -1.0269562977782698e-014  0.99999999999974609 1.8503667677745359 -1.9252389238587517 0.0028998376746128263  1.0000000000011959 1.7759942002950773 -1.8875907184649368 0.0099311765310428901  0.99999999999654665 1.7007235819721851 -1.8524924703591101 0.014474906491525358  1.0000000000073443 1.6287852674016026 -1.8094675705934418 0.03987960238010263  0.99999999998775402 1.5534629075784596 -1.7887755939378744 0.027410737796884216  1.0000000000163882 1.4765377293116428 -1.7232779259693247 0.089600514019525235  0.99999999998218447 1.4160040166349097 -1.730820348152355 0.061826763509364613  1.0000000000158471 1.3088867444504559 -1.6423224424349805 0.13115505423793208  0.9999999999884549 1.26657169157762 -1.6498579157780795 0.14756956778506625  1.0000000000068301 1.1403606857770801 -1.5800144970993724 0.18524500210998027  0.99999999999680234 1.0476682068195302 -1.5272390021298845 0.27576410776689464  1.0000000000011109 0.99999999999991429 -1.4999999999998663 0.38780077600726859  0.99999999999976408 1 -1.5 0.49999999999999989  1
 3.0519401390599384e-014 15 0.9550494472593174 15
8 1.5707963267948966 3.1415926535897931
2 -1.5 -2 0.49999999999999989 -1 -0 0 0 0 1 -0 1 0 0.5
1 -1.5 -2 -1.1102230246251565e-016 1 0 -0 
7 1 0  2 3 2  1 -1.5 0.49999999999999989  1 1.5 -1.5 0.49999999999999994  0.70710678118654757 1.5 -1 0.49999999999999989  1
 0 3 0.95504944725928687 3
1 1.5 -1 0.49999999999999989 0 0 1 
8 0 1.5707963267948966
2 1 -1 3 0 0 1 0 -1 0 1 0 -0 0.5
1 -1.5 -1.5 3 -0 1 0 
8 -0.75 -0.25
1 -1.5 -2.25 0 0 -1 -0 
1 -1.5 1.5 0 0 0 1 
1 -1.5 -1.5 0 -0 1 0 
1 1.5 -1.5 3 0 1 0 
1 -1.5 1.5 3 1 0 -0 
7 1 0  14 15 2  1.9999999999999498 -1.9999999999999498 -1.1102230246251565e-016  1 1.9626002586690539 -1.9252005173382238 -1.4988010832439613e-015  0.99999999999974609 1.9252389238591749 -1.8503667677739315 0.0028998376745709153  1.0000000000011959 1.8875907184628211 -1.7759942002977256 0.0099311765311639877  0.99999999999654665 1.8524924703648464 -1.7007235819652888 0.01447490649126959  1.0000000000073443 1.8094675705829526 -1.628785267414071 0.039879602380522072  0.99999999998775402 1.7887755939516909 -1.5534629075619319 0.027410737796336876  1.0000000000163882 1.7232779259559476 -1.4765377293280513 0.089600514020102662  0.99999999998218447 1.7308203481617894 -1.4160040166226746 0.061826763508869009  1.0000000000158471 1.6423224424303631 -1.3088867444572216 0.13115505423827911  0.9999999999884549 1.6498579157794122 -1.2665716915749357 0.14756956778486893  1.0000000000068301 1.5800144970993324 -1.1403606857777921 0.18524500211006981  0.99999999999680234 1.5272390021297466 -1.0476682068194243 0.27576410776686394  1.0000000000011109 1.499999999999915 -0.99999999999991929 0.38780077600727531  0.99999999999976408 1.5 -1 0.49999999999999989  1
 3.0519401390599384e-014 15 0.9550494472593174 15
1 -1.5 1.5 0 1 0 -0 
1 2 -1.5 -1.1102230246251565e-016 -0 1 0 
8 3.75 4.25
1 -2.25 1.5 0 1 0 -0 
1 -3 -3 0 -0 1 0 
1 -3 3 0 1 0 -0 
1 -3 -3 0 1 0 -0 
1 3 -3 0 0 1 0 
1 1.5 -1.5 0.49999999999999989 -0 1 0 
1 1.5 1.5 0 0 0 1 
8 1.5707963267948966 3.1415926535897931
2 2 1.5 0.49999999999999989 0 -1 -0 0 0 1 -1 -0 0 0.5
1 -3 -3 -3 0 0 1 
1 -3 3 -3 0 0 1 
1 -3 -3 -3 -0 1 0 
1 -3 3 -3 1 0 -0 
1 3 3 -3 0 0 1 
1 -3 -3 -3 1 0 -0 
1 3 -3 -3 0 0 1 
1 3 -3 -3 -0 1 0 
Polygon3D 0
PolygonOnTriangulations 0
Surfaces 16
1 -1.5 -1.5 0 -0 1 0 0 0 1 1 0 -0 
2 -1.5 -2 0.49999999999999989 1 0 -0 0 1 0 -0 0 -1 0.5
2 1 -1 0.49999999999999989 0 0 1 0 -1 0 1 0 -0 0.5
1 -1.5 -1.5 0 1 0 -0 0 0 1 0 -1 0 
1 -1.5 -1.5 3 0 0 1 1 0 -0 -0 1 0 
9 1 1 0 0 2 14 3 15 2 2 2 -2 -1.1102230246251565e-016  1 1.9252005173381996 -1.962600258669041 -1.0269562977782698e-014  0.99999999999974609 1.8503667677745359 -1.9252389238587517 0.0028998376746128263  1.0000000000011959 1.7759942002950773 -1.8875907184649368 0.0099311765310428901  0.99999999999654665 1.7007235819721851 -1.8524924703591101 0.014474906491525358  1.0000000000073443 1.6287852674016026 -1.8094675705934418 0.03987960238010263  0.99999999998775402 1.5534629075784596 -1.7887755939378744 0.027410737796884216  1.0000000000163882 1.4765377293116428 -1.7232779259693247 0.089600514019525235  0.99999999998218447 1.4160040166349097 -1.730820348152355 0.061826763509364613  1.0000000000158471 1.3088867444504559 -1.6423224424349805 0.13115505423793208  0.9999999999884549 1.26657169157762 -1.6498579157780795 0.14756956778506625  1.0000000000068301 1.1403606857770801 -1.5800144970993724 0.18524500210998027  0.99999999999680234 1.0476682068195302 -1.5272390021298845 0.27576410776689464  1.0000000000011109 0.99999999999991429 -1.4999999999998663 0.38780077600726859  0.99999999999976408 1 -1.5 0.49999999999999989  1 
1.9999999999999596 -1.9999999999999898 -1.1102230246251565e-016  1 1.9439003880036436 -1.9439003880037111 -5.5788706987414116e-014  0.99999999999961076 1.8874677521394172 -1.887467752138613 0.006121223064916248  0.99693503329345079 1.8315214833670848 -1.8315214833702935 0.017602443780040611  0.99133545334708162 1.776542991631092 -1.7765429916230306 0.039308815412974374  0.98059430820556059 1.7262165722663934 -1.7262165722806624 0.053307522961338505  0.97245395100084164 1.6693953755461273 -1.6693953755271884 0.10659777688833491  0.95129854559951221 1.6404101253725758 -1.6404101253914927 0.10372420692839596  0.93559157897264411 1.5696708596020075 -1.5696708595875388 0.1931829752757793  0.92010548687364102 1.5708741805745368 -1.5708741805833264 0.19616659454530866  0.86856497581679404 1.5033602116639848 -1.5033602116602109 0.27303005725891399  0.86963416449658093 1.5014104332837874 -1.5014104332850919 0.33987628969631972  0.79116641089864115 1.4998449927681148 -1.499844992767801 0.39201865400700431  0.7361180043385358 1.4999999999998916 -1.4999999999999389 0.44390038800375442  0.70710678118615555 1.5 -1.5 0.49999999999999989  0.70710678118654757 
1.9999999999999498 -1.9999999999999498 -1.1102230246251565e-016  1 1.9626002586690539 -1.9252005173382238 -1.4988010832439613e-015  0.99999999999974609 1.9252389238591749 -1.8503667677739315 0.0028998376745709153  1.0000000000011959 1.8875907184628211 -1.7759942002977256 0.0099311765311639877  0.99999999999654665 1.8524924703648464 -1.7007235819652888 0.01447490649126959  1.0000000000073443 1.8094675705829526 -1.628785267414071 0.039879602380522072  0.99999999998775402 1.7887755939516909 -1.5534629075619319 0.027410737796336876  1.0000000000163882 1.7232779259559476 -1.4765377293280513 0.089600514020102662  0.99999999998218447 1.7308203481617894 -1.4160040166226746 0.061826763508869009  1.0000000000158471 1.6423224424303631 -1.3088867444572216 0.13115505423827911  0.9999999999884549 1.6498579157794122 -1.2665716915749357 0.14756956778486893  1.0000000000068301 1.5800144970993324 -1.1403606857777921 0.18524500211006981  0.99999999999680234 1.5272390021297466 -1.0476682068194243 0.27576410776686394  1.0000000000011109 1.499999999999915 -0.99999999999991929 0.38780077600727531  0.99999999999976408 1.5 -1 0.49999999999999989  1 

0 3
0.95504944725928687 3

3.0519401390599384e-014 15
0.9550494472593174 15

1 -3 -3 0 0 0 1 1 0 -0 -0 1 0 
1 1.5 -1.5 0 1 0 -0 0 0 1 0 -1 0 
1 -1.5 1.5 0 -0 1 0 0 0 1 1 0 -0 
1 -1.5 -1.5 0 0 0 1 1 0 -0 -0 1 0 
2 2 -1.5 0.49999999999999989 -0 1 0 -1 -0 0 -0 -0 -1 0.5
1 -3 -3 -3 1 0 -0 0 0 1 0 -1 0 
1 -3 3 -3 -0 1 0 0 0 1 1 0 -0 
1 -3 -3 -3 -0 1 0 0 0 1 1 0 -0 
1 3 -3 -3 1 0 -0 0 0 1 0 -1 0 
1 -3 -3 -3 0 0 1 1 0 -0 -0 1 0 
Triangulations 0

TShapes 93
Ve
0.0001
1 -1.5 0.5
0 0

0101101
*
Ve
1e-007
-1.5 -1.5 0.5
0 0

0101101
*
Ed
 1e-007 1 1 0
1  1 0 0 2.5
2  1 2 0 0 2.5
2  2 1 0 0 2.5
4 G1 2 0 1 0
0

0101000
-93 0 +92 0 *
Ve
1e-007
1 -1.5 3
0 0

0101101
*
Ed
 1e-007 1 1 0
1  2 0 0 2.5
2  3 3 0 0 2.5
2  4 1 0 0 2.5
4 G1 3 0 1 0
0

0101000
+93 0 -90 0 *
Ve
1e-007
-1.5 -1.5 3
0 0

0101101
*
Ed
 1e-007 1 1 0
1  3 0 0.5 3
2  5 4 0 0.5 3
2  6 1 0 0.5 3
0

0101000
+92 0 -88 0 *
Ed
 1e-007 1 1 0
1  4 0 0 2.5
2  7 1 0 0 2.5
2  8 5 0 0 2.5
0

0101000
-90 0 +88 0 *
Wi

0101100
-91 0 -89 0 +87 0 +86 0 *
Fa
0  1e-007 1 0

0101000
+85 0 *
Ve
0.0001
2 -2 -1.11022302462516e-016
0 0

0101101
*
Ed
 9.91805415605216e-006 1 1 0
1  5 0 3.05194013905994e-014 0.955049447259317
2  9 6 0 3.05194013905994e-014 0.955049447259317
2  10 2 0 3.05194013905994e-014 0.955049447259317
4 G1 6 0 2 0
0

0101000
+83 0 -93 0 *
Ve
0.0001
-1.5 -2 -1.11022302462516e-016
0 0

0101101
*
Ed
 1e-007 1 1 0
1  6 0 1.5707963267949 3.14159265358979
2  11 2 0 1.5707963267949 3.14159265358979
2  12 4 0 1.5707963267949 3.14159265358979
0

0101000
+92 0 -81 0 *
Ed
 1e-007 1 1 0
1  7 0 -0 3.5
2  13 2 0 -0 3.5
2  14 7 0 -0 3.5
4 G1 2 0 7 0
0

0101000
+81 0 -83 0 *
Wi

0101100
-91 0 +82 0 +80 0 +79 0 *
Fa
0  0 2 0

0101000
+78 0 *
Ve
0.0001
1.5 -1 0.5
0 0

0101101
*
Ed
 9.91805415605216e-006 1 1 0
1  8 0 0 0.955049447259287
2  15 3 0 0 0.955049447259287
2  16 6 0 0 0.955049447259287
4 G1 6 0 3 0
0

0101000
+93 0 -76 0 *
Ve
1e-007
1.5 -1 3
0 0

0101101
*
Ed
 1e-007 1 1 0
1  9 0 0 2.5
2  17 3 0 0 2.5
2  18 8 0 0 2.5
4 G1 3 0 8 0
0

0101000
+76 0 -74 0 *
Ed
 1e-007 1 1 0
1  10 0 0 1.5707963267949
2  19 3 0 0 1.5707963267949
2  20 5 0 0 1.5707963267949
0

0101000
+90 0 -74 0 *
Wi

0101100
+75 0 -89 0 +73 0 -72 0 *
Fa
0  0 3 0

0101000
+71 0 *
Ve
1e-007
-1.5 1.5 3
0 0

0101101
*
Ed
 1e-007 1 1 0
1  11 0 0 3
2  21 4 0 0 3
2  22 5 0 0 3
0

0101000
-69 0 +88 0 *
Ve
0.0001
-1.5 -1.5 0
0 0

0101101
*
Ed
 0.0001 1 1 0
1  12 0 -0.75 -0.25
2  23 4 0 -0.75 -0.25
2  24 7 0 -0.75 -0.25
0

0101000
+67 0 -81 0 *
Ve
1e-007
-1.5 1.5 0
0 0

0101101
*
Ed
 1e-007 1 1 0
1  13 0 0 3
2  25 4 0 0 3
2  26 9 0 0 3
0

0101000
-69 0 +65 0 *
Ed
 1e-007 1 1 0
1  14 0 0 3
2  27 4 0 0 3
2  28 10 0 0 3
2  29 7 0 0 3
0

0101000
-65 0 +67 0 *
Wi

0101100
-87 0 +80 0 -68 0 -66 0 +64 0 +63 0 *
Fa
0  1e-007 4 0

0101000
+62 0 *
Ve
1e-007
1.5 1.5 3
0 0

0101101
*
Ed
 1e-007 1 1 0
1  15 0 0.5 3
2  30 8 0 0.5 3
2  31 5 0 0.5 3
0

0101000
+74 0 -60 0 *
Ed
 1e-007 1 1 0
1  16 0 0 3
2  32 9 0 0 3
2  33 5 0 0 3
0

0101000
-60 0 +69 0 *
Wi

0101100
+59 0 +72 0 -58 0 +86 0 -68 0 *
Fa
0  1e-007 5 0

0101000
+57 0 *
Ed
 9.91805415605216e-006 1 1 1
2  34 6 0 0 0.955049447259287
0

0101000
+83 0 -83 0 *
Ed
 9.91805415605216e-006 1 1 0
1  17 0 3.05194013905994e-014 0.955049447259317
2  35 6 0 3.05194013905994e-014 0.955049447259317
2  36 11 0 3.05194013905994e-014 0.955049447259317
4 G1 6 0 11 0
0

0101000
+83 0 -76 0 *
Wi

0101100
+55 0 -82 0 +54 0 -75 0 *
Fa
0  9.91805415605216e-006 6 0

0101000
+53 0 *
Ve
0.0001
1.5 1.5 0
0 0

0101101
*
Ed
 1e-007 1 1 0
1  18 0 0 3
2  37 9 0 0 3
2  38 10 0 0 3
2  39 7 0 0 3
0

0101000
-51 0 +65 0 *
Ve
0.0001
2 1.5 -1.11022302462516e-016
0 0

0101101
*
Ed
 1e-007 1 1 0
1  19 0 -0.5 3
2  40 11 0 -0.5 3
2  41 7 0 -0.5 3
4 G1 11 0 7 0
0

0101000
+83 0 -49 0 *
Ed
 0.0001 1 1 0
1  20 0 3.75 4.25
2  42 9 0 3.75 4.25
2  43 7 0 3.75 4.25
0

0101000
+51 0 -49 0 *
Wi

0101100
-66 0 +63 0 -79 0 +50 0 -48 0 +47 0 *
Ve
1e-007
-3 3 0
0 0

0101101
*
Ve
1e-007
-3 -3 0
0 0

0101101
*
Ed
 1e-007 1 1 0
1  21 0 0 6
2  44 12 0 0 6
2  45 7 0 0 6
0

0101000
-45 0 +44 0 *
Ve
1e-007
3 3 0
0 0

0101101
*
Ed
 1e-007 1 1 0
1  22 0 0 6
2  46 13 0 0 6
2  47 7 0 0 6
0

0101000
-42 0 +45 0 *
Ve
1e-007
3 -3 0
0 0

0101101
*
Ed
 1e-007 1 1 0
1  23 0 0 6
2  48 14 0 0 6
2  49 7 0 0 6
0

0101000
-40 0 +44 0 *
Ed
 1e-007 1 1 0
1  24 0 0 6
2  50 15 0 0 6
2  51 7 0 0 6
0

0101000
-42 0 +40 0 *
Wi

0101100
-43 0 -41 0 +39 0 +38 0 *
Fa
0  1e-007 7 0

0101000
+46 0 +37 0 *
Ve
1e-007
1.5 1.5 0.5
0 0

0101101
*
Ed
 1e-007 1 1 0
1  25 0 0.5 3
2  52 11 0 0.5 3
2  53 8 0 0.5 3
4 G1 11 0 8 0
0

0101000
+76 0 -35 0 *
Ed
 1e-007 1 1 0
1  26 0 0.5 3
2  54 8 0 0.5 3
2  55 9 0 0.5 3
0

0101000
+35 0 -60 0 *
Wi

0101100
+34 0 -73 0 +33 0 -59 0 *
Fa
0  1e-007 8 0

0101000
+32 0 *
Ed
 1e-007 1 1 0
1  27 0 1.5707963267949 3.14159265358979
2  56 11 0 1.5707963267949 3.14159265358979
2  57 9 0 1.5707963267949 3.14159265358979
0

0101000
+35 0 -49 0 *
Wi

0101100
-33 0 +30 0 +58 0 -47 0 +64 0 -50 0 *
Fa
0  1e-007 9 0

0101000
+29 0 *
Wi

0101100
-34 0 -54 0 -30 0 +48 0 *
Fa
0  0 11 0

0101000
+27 0 *
Ve
1e-007
-3 -3 -3
0 0

0101101
*
Ed
 1e-007 1 1 0
1  28 0 0 3
2  58 12 0 0 3
2  59 14 0 0 3
0

0101000
-44 0 +25 0 *
Ve
1e-007
-3 3 -3
0 0

0101101
*
Ed
 1e-007 1 1 0
1  29 0 0 3
2  60 12 0 0 3
2  61 13 0 0 3
0

0101000
-45 0 +23 0 *
Ed
 1e-007 1 1 0
1  30 0 0 6
2  62 12 0 0 6
2  63 16 0 0 6
0

0101000
-23 0 +25 0 *
Wi

0101100
-24 0 -43 0 +22 0 +21 0 *
Fa
0  1e-007 12 0

0111000
+20 0 *
Ve
1e-007
3 3 -3
0 0

0101101
*
Ed
 1e-007 1 1 0
1  31 0 0 6
2  64 13 0 0 6
2  65 16 0 0 6
0

0101000
-18 0 +23 0 *
Ed
 1e-007 1 1 0
1  32 0 0 3
2  66 15 0 0 3
2  67 13 0 0 3
0

0101000
-42 0 +18 0 *
Wi

0101100
-17 0 -16 0 +41 0 +22 0 *
Fa
0  1e-007 13 0

0111000
+15 0 *
Ve
1e-007
3 -3 -3
0 0

0101101
*
Ed
 1e-007 1 1 0
1  33 0 0 6
2  68 14 0 0 6
2  69 16 0 0 6
0

0101000
-13 0 +25 0 *
Ed
 1e-007 1 1 0
1  34 0 0 3
2  70 15 0 0 3
2  71 14 0 0 3
0

0101000
-40 0 +13 0 *
Wi

0101100
-12 0 -11 0 +39 0 +24 0 *
Fa
0  1e-007 14 0

0111000
+10 0 *
Ed
 1e-007 1 1 0
1  35 0 0 6
2  72 15 0 0 6
2  73 16 0 0 6
0

0101000
-18 0 +13 0 *
Wi

0101100
-11 0 -38 0 +16 0 +8 0 *
Fa
0  1e-007 15 0

0111000
+7 0 *
Wi

0101100
-21 0 -17 0 +8 0 +12 0 *
Fa
0  1e-007 16 0

0111000
+5 0 *
Sh

0101100
-84 0 +77 0 +70 0 -61 0 +56 0 +52 0 +36 0 +31 0 +28 0 +26 0 
-19 0 +14 0 -9 0 +6 0 -4 0 *
So

0100000
+3 0 *
Co

1100000
+2 0 *

+1 0 
0

