DBRep_DrawableShape

CASCADE Topology V1, (c) Matra-Datavision
Locations 0
Curve2ds 34
1 0 0 1 0 
1 0 0 1 0 
1 -4.7123889803846897 0 1 0 
2 0.80000000000000004 -0.19999999999999998 1 0 0 -1 0.20000000000000001
1 0 0 0 -1 
1 0 0 0 1 
1 1 0 0 -1 
1 0 0 0 1 
1 0 -1 1 0 
1 0 0 1 0 
1 0 0 1 0 
1 0 1 1 0 
1 0 0 0 1 
1 0.80000000000000004 0 0 1 
1 0 0 0 1 
1 0 0 1 0 
1 1.5707963267948966 0 0 1 
1 0 0.19999999999999998 1 0 
7 0 0  8 9 2  0 0  0.19634954084936207 4.8091767343044737e-018  0.39269908169853807 0.0088121551972264456  0.58904862254621548 0.026436390732072823  0.78539816339571189 0.052148249884282905  0.9817477042452083 0.084497347757775287  1.1780972450962963 0.12146017433632039  1.3744467859455345 0.16073009183012757  1.5707963267948966 0.19999999999999998 
 3.1415926535897931 9 4.7123889803846897 9
7 0 0  8 9 2  0 1  0.19634954084936207 1  0.39269908169853807 0.9911878448023117  0.58904862254621548 0.97356360926596608  0.7853981633938929 0.94785175011656975  0.9817477042452083 0.9155026522416847  1.1780972450962963 0.87853982566321065  1.3744467859455345 0.83926990816987246  1.5707963267948966 0.80000000000000004 
 3.1415926535897931 9 4.7123889803846897 9
1 0 0 0 1 
1 0 1 1 0 
1 0 0 0 -1 
1 1 0 0 1 
1 1 0 0 1 
1 0 1 1 0 
1 1.5707963267948966 0 0 1 
1 0.80000000000000004 0 0 1 
1 0 -1 1 0 
1 0 1 1 0 
1 -4.7123889803846897 1 1 0 
2 0.80000000000000004 0.80000000000000004 1 0 0 -1 0.20000000000000001
1 0 0 0 1 
1 0.80000000000000004 0 0 -1 
Curves 17
1 0 0 0 0 0 1 
8 4.7123889803846897 6.2831853071795862
2 0 0.19999999999999998 0.80000000000000004 -1 -0 0 0 0 1 -0 1 0 0.20000000000000001
1 0 0 0 -0 1 0 
1 0 0 1 -0 1 0 
1 0 1 0 0 0 1 
1 1 0 0 0 0 1 
1 0 -2.7755575615628914e-017 0.80000000000000004 1 0 -0 
1 0 0 0 1 0 -0 
1 0 0.19999999999999998 1 1 0 -0 
8 3.1415926535897931 4.7123889803846897
3 0.80000000000000004 0.19999999999999998 0.80000000000000004 -0.70710678118654746 -0.70710678118654746 -0 -0.70710678118654746 0.70710678118654746 0 0 0 -1 0.28284271247461901 0.20000000000000001
1 0 1 0 1 0 -0 
1 1 0 0 -0 1 0 
1 0 1 1 1 0 -0 
1 0.80000000000000004 0 1 0 1 0 
1 1 1 0 0 0 1 
8 4.7123889803846897 6.2831853071795862
2 0.80000000000000004 1 0.80000000000000004 -0 -1 -0 0 -0 1 -1 0 0 0.20000000000000001
1 1 0 0.80000000000000004 0 1 0 
Polygon3D 0
PolygonOnTriangulations 0
Surfaces 8
1 0 0 0 1 0 -0 0 0 1 0 -1 0 
1 0 0 0 -0 1 0 0 0 1 1 0 -0 
2 0 0.19999999999999998 0.80000000000000004 1 0 -0 0 -1 0 -0 0 1 0.20000000000000001
1 0 0 0 0 0 1 1 0 -0 -0 1 0 
1 0 0 1 0 0 1 1 0 -0 -0 1 0 
1 0 1 0 -0 1 0 0 0 1 1 0 -0 
1 1 0 0 1 0 -0 0 0 1 0 -1 0 
2 0.80000000000000004 0 0.80000000000000004 0 1 0 1 0 -0 0 -0 1 0.20000000000000001
Triangulations 0

TShapes 47
Ve
1e-007
0 -2.77555756156289e-017 0.8
0 0

0101101
*
Ve
1e-007
0 0 0
0 0

0101101
*
Ed
 1e-007 1 1 0
1  1 0 0 0.8
2  1 1 0 0 0.8
2  2 2 0 0 0.8
0

0101000
-47 0 +46 0 *
Ve
1e-007
0 0.2 1
0 0

0101101
*
Ed
 1e-007 1 1 0
1  2 0 4.71238898038469 6.28318530717959
2  3 3 0 4.71238898038469 6.28318530717959
2  4 1 0 4.71238898038469 6.28318530717959
0

0101000
+47 0 -44 0 *
Ve
1e-007
0 1 0
0 0

0101101
*
Ed
 1e-007 1 1 0
1  3 0 0 1
2  5 1 0 0 1
2  6 4 0 0 1
0

0101000
-42 0 +46 0 *
Ve
1e-007
0 1 1
0 0

0101101
*
Ed
 1e-007 1 1 0
1  4 0 0.2 1
2  7 1 0 0.2 1
2  8 5 0 0.2 1
0

0101000
+44 0 -40 0 *
Ed
 1e-007 1 1 0
1  5 0 0 1
2  9 1 0 0 1
2  10 6 0 0 1
0

0101000
-40 0 +42 0 *
Wi

0101100
-45 0 -43 0 +41 0 -39 0 +38 0 *
Fa
0  1e-007 1 0

0101000
+37 0 *
Ve
1e-007
1 0 0.8
0 0

0101101
*
Ve
1e-007
1 0 0
0 0

0101101
*
Ed
 1e-007 1 1 0
1  6 0 0 0.8
2  11 7 0 0 0.8
2  12 2 0 0 0.8
0

0101000
-35 0 +34 0 *
Ed
 1e-007 1 1 0
1  7 0 0 1
2  13 3 0 0 1
2  14 2 0 0 1
4 G1 3 0 2 0
0

0101000
+47 0 -35 0 *
Ed
 1e-007 1 1 0
1  8 0 0 1
2  15 2 0 0 1
2  16 4 0 0 1
0

0101000
-34 0 +46 0 *
Wi

0101100
-33 0 +32 0 -31 0 +45 0 *
Fa
0  1e-007 2 0

0101000
+30 0 *
Ve
1e-007
0.8 0.2 1
0 0

0101101
*
Ed
 1e-007 1 1 0
1  9 0 0 0.8
2  17 3 0 0 0.8
2  18 5 0 0 0.8
4 G1 3 0 5 0
0

0101000
+44 0 -28 0 *
Ed
 1e-007 1 1 0
1  10 0 3.14159265358979 4.71238898038469
2  19 8 0 3.14159265358979 4.71238898038469
2  20 3 0 3.14159265358979 4.71238898038469
0

0101000
+35 0 -28 0 *
Wi

0101100
+43 0 -32 0 +27 0 -26 0 *
Fa
0  0 3 0

0101000
+25 0 *
Ve
1e-007
1 1 0
0 0

0101101
*
Ed
 1e-007 1 1 0
1  11 0 0 1
2  21 6 0 0 1
2  22 4 0 0 1
0

0101000
-23 0 +42 0 *
Ed
 1e-007 1 1 0
1  12 0 0 1
2  23 7 0 0 1
2  24 4 0 0 1
0

0101000
-23 0 +34 0 *
Wi

0101100
-41 0 -22 0 +21 0 +31 0 *
Fa
0  1e-007 4 0

0111000
+20 0 *
Ve
1e-007
0.8 1 1
0 0

0101101
*
Ed
 1e-007 1 1 0
1  13 0 0 0.8
2  25 6 0 0 0.8
2  26 5 0 0 0.8
0

0101000
-18 0 +40 0 *
Ed
 1e-007 1 1 0
1  14 0 0.2 1
2  27 8 0 0.2 1
2  28 5 0 0.2 1
4 G1 8 0 5 0
0

0101000
+28 0 -18 0 *
Wi

0101100
-39 0 +27 0 -17 0 +16 0 *
Fa
0  1e-007 5 0

0101000
+15 0 *
Ve
1e-007
1 1 0.8
0 0

0101101
*
Ed
 1e-007 1 1 0
1  15 0 0 0.8
2  29 7 0 0 0.8
2  30 6 0 0 0.8
0

0101000
-13 0 +23 0 *
Ed
 1e-007 1 1 0
1  16 0 4.71238898038469 6.28318530717959
2  31 8 0 4.71238898038469 6.28318530717959
2  32 6 0 4.71238898038469 6.28318530717959
0

0101000
+13 0 -18 0 *
Wi

0101100
-12 0 -11 0 -22 0 +17 0 +38 0 *
Fa
0  1e-007 6 0

0101000
+10 0 *
Ed
 1e-007 1 1 0
1  17 0 -0 1
2  33 8 0 -0 1
2  34 7 0 -0 1
4 G1 8 0 7 0
0

0101000
+35 0 -13 0 *
Wi

0101100
-33 0 -8 0 +21 0 +12 0 *
Fa
0  1e-007 7 0

0101000
+7 0 *
Wi

0101100
+26 0 -8 0 +16 0 -11 0 *
Fa
0  0 8 0

0101000
+5 0 *
Sh

0101100
-36 0 -29 0 -24 0 -19 0 +14 0 +9 0 +6 0 -4 0 *
So

0100000
+3 0 *
Co

1100000
+2 0 *

+1 0 
0

