DBRep_DrawableShape

CASCADE Topology V1, (c) Matra-Datavision
Locations 0
Curve2ds 36
1 0 0 1 0 
1 0 0 1 0 
1 -4.7123889803846897 0 1 0 
2 0.60000000000000009 -0.39999999999999997 1 0 0 -1 0.40000000000000002
1 0 0 0 -1 
1 0 0 0 1 
1 1 0 0 -1 
1 0 0 0 1 
1 0 -1 1 0 
1 0 0 1 0 
1 0 0 1 0 
1 0 1 1 0 
1 0 0 0 1 
1 0.60000000000000009 0 0 1 
1 0 0 0 1 
1 0 0 1 0 
7 0 0  7 8 2  1.5707963267948966 0.39999999999999997  1.3583894844946434 0.33992245502972607  1.1463285986298164 0.27994162094586855  0.93154517945998361 0.22196076571597168  0.71170474483016011 0.16803976930394635  0.48461000706511459 0.12061311019433756  0.24821174670320076 0.08225086224124839  0 0.053589838486224395 
 0 8 1 8
7 0 0  7 8 2  1.5707963267948966 0.80000000000000016  1.4206025569721112 0.84248145096188687  1.2706494889893398 0.88489302574408424  1.1201685184125423 0.92472162792959955  0.96882710562997365 0.95933685308136096  0.81722032819716683 0.98562449759240245  0.66690389437341835 1  0.52359877559829826 1 
 0 8 1 8
1 1.5707963267948966 0 0 1 
1 0 0.39999999999999997 1 0 
1 1.5707963267948966 1 -1 0 
2 0.60000000000000009 -0.39999999999999997 1 0 -0 1 0.40000000000000002
1 0 0 0 1 
1 0 1 1 0 
1 0 0 0 -1 
1 1 0 0 1 
1 1 0 0 1 
1 0 1 1 0 
1 1.5707963267948966 0 0 1 
1 0.80000000000000004 0 0 1 
1 0 -1 1 0 
1 0 1 1 0 
1 -4.7123889803846897 1 1 0 
2 0.80000000000000004 0.80000000000000004 1 0 0 -1 0.20000000000000001
1 0 0 0 1 
1 0.80000000000000004 0 0 -1 
Curves 18
1 0 0 0 0 0 1 
8 4.7123889803846897 6.2831853071795862
2 0 0.39999999999999997 0.60000000000000009 -1 -0 0 0 0 1 -0 1 0 0.40000000000000002
1 0 0 0 -0 1 0 
1 0 0 1 -0 1 0 
1 0 1 0 0 0 1 
1 1 0 0 0 0 1 
1 0 -5.5511151231257827e-017 0.60000000000000009 1 0 -0 
1 0 0 0 1 0 -0 
8 0 1
7 0 0  7 8 2  0.80000000000000016 0.39999999999999997 1  0.84248145096188687 0.33992245502972607 0.99999967769303222  0.88489302574408424 0.27994162094586855 0.98947442567590727  0.92472162792959955 0.22196076571597168 0.96847568752134272  0.95933685308136096 0.16803976930394635 0.93734246185985348  0.98562449759240245 0.12061311019433756 0.8969226292490875  1 0.08225086224124839 0.84964234934064009  1 0.053589838486224395 0.79999999999999993 
 0 8 1 8
1 0 0.39999999999999997 1 1 0 -0 
8 1.0471975511965981 1.5707963267948966
2 1 0.39999999999999997 0.60000000000000009 1 0 -0 0 0 1 0 -1 0 0.40000000000000002
1 0 1 0 1 0 -0 
1 1 0 0 -0 1 0 
1 0 1 1 1 0 -0 
1 0.80000000000000004 0 1 0 1 0 
1 1 1 0 0 0 1 
8 4.7123889803846897 6.2831853071795862
2 0.80000000000000004 1 0.80000000000000004 -0 -1 -0 0 -0 1 -1 0 0 0.20000000000000001
1 1 0 0.80000000000000004 0 1 0 
Polygon3D 0
PolygonOnTriangulations 0
Surfaces 8
1 0 0 0 1 0 -0 0 0 1 0 -1 0 
1 0 0 0 -0 1 0 0 0 1 1 0 -0 
2 0 0.39999999999999997 0.60000000000000009 1 0 -0 0 -1 0 -0 0 1 0.40000000000000002
1 0 0 0 0 0 1 1 0 -0 -0 1 0 
1 0 0 1 0 0 1 1 0 -0 -0 1 0 
1 0 1 0 -0 1 0 0 0 1 1 0 -0 
1 1 0 0 1 0 -0 0 0 1 0 -1 0 
2 0.80000000000000004 0 0.80000000000000004 0 1 0 1 0 -0 0 -0 1 0.20000000000000001
Triangulations 0

TShapes 49
Ve
1e-007
0 -5.55111512312578e-017 0.6
0 0

0101101
*
Ve
1e-007
0 0 0
0 0

0101101
*
Ed
 1e-007 1 1 0
1  1 0 0 0.6
2  1 1 0 0 0.6
2  2 2 0 0 0.6
0

0101000
-49 0 +48 0 *
Ve
1e-007
0 0.4 1
0 0

0101101
*
Ed
 1e-007 1 1 0
1  2 0 4.71238898038469 6.28318530717959
2  3 3 0 4.71238898038469 6.28318530717959
2  4 1 0 4.71238898038469 6.28318530717959
0

0101000
+49 0 -46 0 *
Ve
1e-007
0 1 0
0 0

0101101
*
Ed
 1e-007 1 1 0
1  3 0 0 1
2  5 1 0 0 1
2  6 4 0 0 1
0

0101000
-44 0 +48 0 *
Ve
1e-007
0 1 1
0 0

0101101
*
Ed
 1e-007 1 1 0
1  4 0 0.4 1
2  7 1 0 0.4 1
2  8 5 0 0.4 1
0

0101000
+46 0 -42 0 *
Ed
 1e-007 1 1 0
1  5 0 0 1
2  9 1 0 0 1
2  10 6 0 0 1
0

0101000
-42 0 +44 0 *
Wi

0101100
-47 0 -45 0 +43 0 -41 0 +40 0 *
Fa
0  1e-007 1 0

0101000
+39 0 *
Ve
1e-007
1 -5.55111512312578e-017 0.6
0 0

0101101
*
Ve
1e-007
1 0 0
0 0

0101101
*
Ed
 1e-007 1 1 0
1  6 0 0 0.6
2  11 7 0 0 0.6
2  12 2 0 0 0.6
0

0101000
-37 0 +36 0 *
Ed
 1e-007 1 1 0
1  7 0 0 1
2  13 3 0 0 1
2  14 2 0 0 1
4 G1 3 0 2 0
0

0101000
+49 0 -37 0 *
Ed
 1e-007 1 1 0
1  8 0 0 1
2  15 2 0 0 1
2  16 4 0 0 1
0

0101000
-36 0 +48 0 *
Wi

0101100
-35 0 +34 0 -33 0 +47 0 *
Fa
0  1e-007 2 0

0101000
+32 0 *
Ve
1e-007
0.8 0.4 1
0 0

0101101
*
Ve
1e-007
1 0.0535898384862243 0.8
0 0

0101101
*
Ed
 1e-007 1 1 0
1  9 0 0 1
2  17 8 0 0 1
2  18 3 0 0 1
0

0101000
+30 0 -29 0 *
Ed
 1e-007 1 1 0
1  10 0 0 0.8
2  19 3 0 0 0.8
2  20 5 0 0 0.8
4 G1 3 0 5 0
0

0101000
+46 0 -30 0 *
Ed
 1e-007 1 1 0
1  11 0 1.0471975511966 1.5707963267949
2  21 3 0 1.0471975511966 1.5707963267949
2  22 7 0 1.0471975511966 1.5707963267949
0

0101000
+29 0 -37 0 *
Wi

0101100
+28 0 +27 0 +26 0 +45 0 -34 0 *
Fa
0  0 3 0

0101000
+25 0 *
Ve
1e-007
1 1 0
0 0

0101101
*
Ed
 1e-007 1 1 0
1  12 0 0 1
2  23 6 0 0 1
2  24 4 0 0 1
0

0101000
-23 0 +44 0 *
Ed
 1e-007 1 1 0
1  13 0 0 1
2  25 7 0 0 1
2  26 4 0 0 1
0

0101000
-23 0 +36 0 *
Wi

0101100
-43 0 -22 0 +21 0 +33 0 *
Fa
0  1e-007 4 0

0111000
+20 0 *
Ve
1e-007
0.8 1 1
0 0

0101101
*
Ed
 1e-007 1 1 0
1  14 0 0 0.8
2  27 6 0 0 0.8
2  28 5 0 0 0.8
0

0101000
-18 0 +42 0 *
Ed
 1e-007 1 1 0
1  15 0 0.4 1
2  29 8 0 0.4 1
2  30 5 0 0.4 1
4 G1 8 0 5 0
0

0101000
+30 0 -18 0 *
Wi

0101100
-41 0 +27 0 -17 0 +16 0 *
Fa
0  1e-007 5 0

0101000
+15 0 *
Ve
1e-007
1 1 0.8
0 0

0101101
*
Ed
 1e-007 1 1 0
1  16 0 0 0.8
2  31 7 0 0 0.8
2  32 6 0 0 0.8
0

0101000
-13 0 +23 0 *
Ed
 1e-007 1 1 0
1  17 0 4.71238898038469 6.28318530717959
2  33 8 0 4.71238898038469 6.28318530717959
2  34 6 0 4.71238898038469 6.28318530717959
0

0101000
+13 0 -18 0 *
Wi

0101100
-12 0 -11 0 -22 0 +17 0 +40 0 *
Fa
0  1e-007 6 0

0101000
+10 0 *
Ed
 1e-007 1 1 0
1  18 0 0.0535898384862243 1
2  35 8 0 0.0535898384862243 1
2  36 7 0 0.0535898384862243 1
4 G1 8 0 7 0
0

0101000
+29 0 -13 0 *
Wi

0101100
-35 0 +26 0 +21 0 -8 0 +12 0 *
Fa
0  1e-007 7 0

0101000
+7 0 *
Wi

0101100
-28 0 +16 0 -8 0 -11 0 *
Fa
0  0 8 0

0101000
+5 0 *
Sh

0101100
-38 0 -31 0 -24 0 -19 0 +14 0 +9 0 +6 0 -4 0 *
So

0100000
+3 0 *
Co

1100000
+2 0 *

+1 0 
0

