DBRep_DrawableShape

CASCADE Topology V1, (c) Matra-Datavision
Locations 0
Curve2ds 36
1 1 0 0 1 
1 0 0 1 0 
1 0 0 1 0 
2 0.70000000000000007 0.29999999999999993 1 0 0 -1 0.29999999999999999
1 -4.7123889803846897 0 1 0 
2 0.80000000000000004 0.80000000000000004 1 0 0 -1 0.20000000000000001
1 0 0 1 0 
1 0 0 1 0 
1 0 0 1 0 
1 0 1 1 0 
1 0 0 0 1 
1 0 0 1 0 
1 1 0 0 1 
1 0 1 1 0 
1 0 0 0 1 
1 0.29999999999999993 0 0 1 
1 1.5707963267948966 0 0 1 
1 0.80000000000000004 0 0 1 
1 1.5707963267948966 0 0 1 
1 0.70000000000000007 0 0 -1 
1 0 1 1 0 
2 0.70000000000000007 0.29999999999999993 1 0 0 -1 0.29999999999999999
1 0 0 0 1 
1 0.80000000000000004 0 0 -1 
1 -4.7123889803846897 1 1 0 
2 0.80000000000000004 0.80000000000000004 1 0 0 -1 0.20000000000000001
1 0 0 0 -1 
1 0 0 0 1 
1 0 -1 1 0 
1 0 0 1 0 
1 0 0 0 -1 
1 1 0 0 1 
1 0 -1 1 0 
1 0 1 1 0 
1 0 0 0 1 
1 0 1 1 0 
Curves 18
1 0 0 1 1 0 -0 
8 0 1.5707963267948966
2 0.29999999999999993 0 0.70000000000000007 0 -1 -0 0 0 1 -1 -0 0 0.29999999999999999
8 4.7123889803846897 6.2831853071795862
2 0.80000000000000004 0 0.80000000000000004 -0 -1 -0 0 -0 1 -1 0 0 0.20000000000000001
1 0 0 0 0 0 1 
1 1 0 0 0 0 1 
1 0 0 0 1 0 -0 
1 0 1 1 1 0 -0 
1 0.29999999999999993 0 1 -0 1 0 
1 0.80000000000000004 0 1 0 1 0 
1 -5.5511151231257827e-017 0 0.70000000000000007 -0 1 0 
8 0 1.5707963267948966
2 0.29999999999999993 1 0.70000000000000007 0 -1 -0 0 0 1 -1 -0 0 0.29999999999999999
1 1 0 0.80000000000000004 0 1 0 
8 4.7123889803846897 6.2831853071795862
2 0.80000000000000004 1 0.80000000000000004 -0 -1 -0 0 -0 1 -1 0 0 0.20000000000000001
1 0 0 0 -0 1 0 
1 0 1 0 0 0 1 
1 1 0 0 -0 1 0 
1 1 1 0 0 0 1 
1 0 1 0 1 0 -0 
Polygon3D 0
PolygonOnTriangulations 0
Surfaces 8
1 0 0 0 -0 1 0 0 0 1 1 0 -0 
1 0 0 1 0 0 1 1 0 -0 -0 1 0 
2 0.29999999999999993 0 0.70000000000000007 -0 1 0 0 0 1 -1 -0 0 0.29999999999999999
2 0.80000000000000004 0 0.80000000000000004 0 1 0 1 0 -0 0 -0 1 0.20000000000000001
1 0 0 0 1 0 -0 0 0 1 0 -1 0 
1 1 0 0 1 0 -0 0 0 1 0 -1 0 
1 0 0 0 0 0 1 1 0 -0 -0 1 0 
1 0 1 0 -0 1 0 0 0 1 1 0 -0 
Triangulations 0

TShapes 49
Ve
1e-007
0.3 0 1
0 0

0101101
*
Ve
1e-007
0.8 0 1
0 0

0101101
*
Ed
 1e-007 1 1 0
1  1 0 0.3 0.8
2  1 1 0 0.3 0.8
2  2 2 0 0.3 0.8
0

0101000
+49 0 -48 0 *
Ve
1e-007
-5.55111512312578e-017 0 0.7
0 0

0101101
*
Ed
 1e-007 1 1 0
1  2 0 0 1.5707963267949
2  3 3 0 0 1.5707963267949
2  4 1 0 0 1.5707963267949
0

0101000
+49 0 -46 0 *
Ve
1e-007
1 0 0.8
0 0

0101101
*
Ed
 1e-007 1 1 0
1  3 0 4.71238898038469 6.28318530717959
2  5 4 0 4.71238898038469 6.28318530717959
2  6 1 0 4.71238898038469 6.28318530717959
0

0101000
+44 0 -48 0 *
Ve
1e-007
0 0 0
0 0

0101101
*
Ed
 1e-007 1 1 0
1  4 0 0 0.7
2  7 5 0 0 0.7
2  8 1 0 0 0.7
0

0101000
-46 0 +42 0 *
Ve
1e-007
1 0 0
0 0

0101101
*
Ed
 1e-007 1 1 0
1  5 0 0 0.8
2  9 6 0 0 0.8
2  10 1 0 0 0.8
0

0101000
-44 0 +40 0 *
Ed
 1e-007 1 1 0
1  6 0 0 1
2  11 1 0 0 1
2  12 7 0 0 1
0

0101000
-40 0 +42 0 *
Wi

0101100
+47 0 -45 0 -43 0 +41 0 -39 0 -38 0 *
Fa
0  1e-007 1 0

0101000
+37 0 *
Ve
1e-007
0.3 1 1
0 0

0101101
*
Ve
1e-007
0.8 1 1
0 0

0101101
*
Ed
 1e-007 1 1 0
1  7 0 0.3 0.8
2  13 8 0 0.3 0.8
2  14 2 0 0.3 0.8
0

0101000
+35 0 -34 0 *
Ed
 1e-007 1 1 0
1  8 0 0 1
2  15 3 0 0 1
2  16 2 0 0 1
4 G1 3 0 2 0
0

0101000
+49 0 -35 0 *
Ed
 1e-007 1 1 0
1  9 0 0 1
2  17 4 0 0 1
2  18 2 0 0 1
4 G1 4 0 2 0
0

0101000
+48 0 -34 0 *
Wi

0101100
-33 0 -32 0 +31 0 +47 0 *
Fa
0  1e-007 2 0

0101000
+30 0 *
Ve
1e-007
-5.55111512312578e-017 1 0.7
0 0

0101101
*
Ed
 1e-007 1 1 0
1  10 0 -0 1
2  19 3 0 -0 1
2  20 5 0 -0 1
4 G1 3 0 5 0
0

0101000
+46 0 -28 0 *
Ed
 1e-007 1 1 0
1  11 0 0 1.5707963267949
2  21 3 0 0 1.5707963267949
2  22 8 0 0 1.5707963267949
0

0101000
+35 0 -28 0 *
Wi

0101100
+45 0 -32 0 +27 0 -26 0 *
Fa
0  0 3 0

0101000
+25 0 *
Ve
1e-007
1 1 0.8
0 0

0101101
*
Ed
 1e-007 1 1 0
1  12 0 -0 1
2  23 4 0 -0 1
2  24 6 0 -0 1
4 G1 4 0 6 0
0

0101000
+44 0 -23 0 *
Ed
 1e-007 1 1 0
1  13 0 4.71238898038469 6.28318530717959
2  25 4 0 4.71238898038469 6.28318530717959
2  26 8 0 4.71238898038469 6.28318530717959
0

0101000
+23 0 -34 0 *
Wi

0101100
+43 0 -22 0 +31 0 -21 0 *
Fa
0  0 4 0

0101000
+20 0 *
Ve
1e-007
0 1 0
0 0

0101101
*
Ed
 1e-007 1 1 0
1  14 0 0 1
2  27 5 0 0 1
2  28 7 0 0 1
0

0101000
-18 0 +42 0 *
Ed
 1e-007 1 1 0
1  15 0 0 0.7
2  29 5 0 0 0.7
2  30 8 0 0 0.7
0

0101000
-28 0 +18 0 *
Wi

0101100
-41 0 -27 0 +17 0 +16 0 *
Fa
0  1e-007 5 0

0101000
+15 0 *
Ve
1e-007
1 1 0
0 0

0101101
*
Ed
 1e-007 1 1 0
1  16 0 0 1
2  31 6 0 0 1
2  32 7 0 0 1
0

0101000
-13 0 +40 0 *
Ed
 1e-007 1 1 0
1  17 0 0 0.8
2  33 6 0 0 0.8
2  34 8 0 0 0.8
0

0101000
-23 0 +13 0 *
Wi

0101100
-39 0 -22 0 +12 0 +11 0 *
Fa
0  1e-007 6 0

0101000
+10 0 *
Ed
 1e-007 1 1 0
1  18 0 0 1
2  35 8 0 0 1
2  36 7 0 0 1
0

0101000
-13 0 +18 0 *
Wi

0101100
-17 0 -8 0 +12 0 +38 0 *
Fa
0  1e-007 7 0

0101000
+7 0 *
Wi

0101100
+33 0 -26 0 -21 0 +16 0 -11 0 -8 0 *
Fa
0  1e-007 8 0

0101000
+5 0 *
Sh

0101100
-36 0 +29 0 -24 0 -19 0 -14 0 +9 0 -6 0 +4 0 *
So

0100000
+3 0 *
Co

1100000
+2 0 *

+1 0 