DBRep_DrawableShape

CASCADE Topology V1, (c) Matra-Datavision
Locations 0
Curve2ds 62
1 0 0 0 1 
1 0.19999999999999998 0 0 1 
1 1.5707963267948966 0 0 1 
1 1 0.80000000000000004 -1 0 
1 0 0 0 1 
1 0 0 1 0 
1 0 0 0 -1 
1 1 0 0 1 
1 -4.7123889803846897 0 1 0 
2 0.90000000000000002 0.099999999999999992 0 -1 -1 -0 0.10000000000000001
1 0 0 1 0 
1 0 0.80000000000000004 1 0 
1 -3.1415926535897931 0 1 0 
2 0.19999999999999998 0.19999999999999998 1 0 -0 1 0.20000000000000001
1 1.5707963267948966 0 0 1 
1 0.19999999999999998 0 0 -1 
1 -4.7123889803846897 0 1 0 
2 0.19999999999999998 -0.80000000000000004 -1 -0 -0 1 0.20000000000000001
1 0 0 0 1 
1 0.19999999999999998 1 0 -1 
8 0 1.5707963267948966
1 0 0.80000000000000004 1 0 
8 0 1.5707963267948966
1 0 -1.5707963267948966 0 1 
1 1.5707963267948966 0 0 1 
1 0 0.90000000000000002 1 0 
1 0 0 1 0 
1 0 0 1 0 
1 0 0 0 1 
1 0.90000000000000002 0 0 1 
1 0 0 0 1 
1 0 -0.099999999999999992 1 0 
1 0 -1 1 0 
1 0 1 1 0 
1 0 0 0 1 
1 0.90000000000000002 -0.099999999999999992 0 -1 
1 0 0 1 0 
1 1.5707963267948966 0.90000000000000002 -1 -0 
1 0 -1.5707963267948966 1 0 
8 4.7123889803846897 6.2831853071795862
1 1.5707963267948966 -6.2831853071795862 0 1 
8 4.7123889803846897 6.2831853071795862
1 -4.7123889803846897 0 1 0 
1 1.5707963267948966 0 0 1 
1 0.19999999999999998 -0.80000000000000004 1 0 
1 1 0 0 -1 
1 0 0 0 1 
1 -4.7123889803846897 0 1 0 
2 0.90000000000000002 -0.099999999999999992 1 0 0 -1 0.10000000000000001
1 -4.7123889803846897 0.90000000000000002 1 0 
2 0.90000000000000002 0.90000000000000002 1 0 0 -1 0.10000000000000001
1 0 0 0 1 
1 0.19999999999999998 0.19999999999999998 1 0 
1 1 0 0 1 
1 0 1 1 0 
1 1.5707963267948966 0 0 1 
1 0 0.099999999999999992 1 0 
8 0 1.5707963267948966
1 0 0.90000000000000002 1 0 
8 0 1.5707963267948966
1 0 0 0 1 
8 0 1.5707963267948966
1 1.5707963267948966 0 0 1 
8 0 1.5707963267948966
1 0 0 1 0 
1 1.5707963267948966 0 0 1 
1 0.90000000000000002 0.099999999999999992 0 1 
1 0 1.5707963267948966 1 0 
1 -3.1415926535897931 0.80000000000000004 1 0 
2 0.19999999999999998 0.80000000000000004 0 -1 1 0 0.20000000000000001
Curves 30
1 0.19999999999999998 0 -2.7755575615628914e-017 -0 1 0 
1 1 0.80000000000000004 -2.7755575615628914e-017 -1 -0 0 
1 0 0 0 1 0 -0 
1 1 0 0 -0 1 0 
8 4.7123889803846897 6.2831853071795862
2 0.90000000000000002 0.099999999999999992 0 -0 -0 -1 0 -1 0 -1 0 0 0.10000000000000001
2 0.19999999999999998 0.80000000000000004 0.19999999999999998 -0 1 0 0 0 -1 -1 0 -0 0.20000000000000001
8 3.1415926535897931 4.7123889803846897
2 0.19999999999999998 0 0.19999999999999998 -0 1 0 0 0 1 1 0 -0 0.20000000000000001
1 -2.7755575615628914e-017 0 0.19999999999999998 -0 1 0 
8 4.7123889803846897 6.2831853071795862
2 1 0.80000000000000004 0.19999999999999998 -1 -0 0 -0 0 -1 0 -1 -0 0.20000000000000001
1 1 1 0.19999999999999998 -1 -0 0 
2 0.19999999999999996 0.80000000000000004 0.19999999999999998 -1 -0 0 -0 1 0 -0 0 -1 0.20000000000000001
1 0.90000000000000002 -1.3877787807814457e-017 0 0 0 1 
1 0 0 0 0 0 1 
1 0 -1.3877787807814457e-017 0.90000000000000002 1 0 -0 
1 1 0.099999999999999992 0 0 0 1 
1 1 1 0 0 0 1 
1 1 0.099999999999999992 0.90000000000000002 0 1 0 
2 0.90000000000000002 0.099999999999999992 0.90000000000000002 0 0 1 0 -1 0 1 0 -0 0.10000000000000001
2 0.19999999999999998 0.80000000000000004 0.19999999999999998 -6.123233995736766e-017 -0 1 -1 0 -6.123233995736766e-017 0 -1 -0 0.20000000000000001
1 -2.7755575615628914e-017 0.80000000000000004 0.19999999999999998 0 0 1 
1 0 0 1 -0 1 0 
8 4.7123889803846897 6.2831853071795862
2 0 0.099999999999999992 0.90000000000000002 -1 -0 0 0 0 1 -0 1 0 0.10000000000000001
8 4.7123889803846897 6.2831853071795862
2 0.90000000000000002 1 0.90000000000000002 -0 -1 -0 0 -0 1 -1 0 0 0.10000000000000001
1 0.19999999999999998 1 0.19999999999999998 0 0 1 
1 0 1 1 1 0 -0 
1 0 0.099999999999999992 1 1 0 -0 
2 0.90000000000000002 0.099999999999999992 0.90000000000000002 -1 -0 0 0 -1 0 0 0 1 0.10000000000000001
2 0.90000000000000002 0.099999999999999992 0.90000000000000002 -6.123233995736766e-017 -1 0 1 -6.123233995736766e-017 0 0 0 1 0.10000000000000001
1 0.90000000000000002 0.099999999999999992 1 0 1 0 
8 3.1415926535897931 4.7123889803846897
2 0.19999999999999998 0.80000000000000004 1 0 0 1 0 -1 0 1 0 -0 0.20000000000000001
Polygon3D 0
PolygonOnTriangulations 0
Surfaces 14
1 0 0 0 0 0 1 1 0 -0 -0 1 0 
2 0.19999999999999998 0 0.19999999999999998 -0 1 0 -0 0 -1 -1 -0 0 0.20000000000000001
2 1 0.80000000000000004 0.19999999999999998 -1 -0 0 -0 1 0 -0 0 -1 0.20000000000000001
1 0 0 0 -0 1 0 0 0 1 1 0 -0 
1 1 0 0 1 0 -0 0 0 1 0 -1 0 
2 0.90000000000000002 0.099999999999999992 0 0 0 1 1 0 -0 0 -1 -0 0.10000000000000001
4 0.19999999999999998 0.80000000000000004 0.19999999999999998 0 -1 -0 0 0 -1 -1 -0 -0 0.20000000000000001
1 0 0 0 1 0 -0 0 0 1 0 -1 0 
1 0 1 0 -0 1 0 0 0 1 1 0 -0 
2 0 0.099999999999999992 0.90000000000000002 1 0 -0 0 -1 0 -0 0 1 0.10000000000000001
2 0.90000000000000002 0.099999999999999992 0.90000000000000002 0 1 0 1 0 -0 0 -0 1 0.10000000000000001
4 0.90000000000000002 0.099999999999999992 0.90000000000000002 0 0 1 0 -1 0 1 0 -0 0.10000000000000001
2 0.19999999999999998 0.80000000000000004 0.19999999999999998 0 0 1 -0 1 0 -1 -0 0 0.20000000000000001
1 0 0 1 0 0 1 1 0 -0 -0 1 0 
Triangulations 0

TShapes 81
Ve
1e-007
0.2 0.8 -2.77555756156289e-017
0 0

0101101
*
Ve
1e-007
0.2 0 -2.77555756156289e-017
0 0

0101101
*
Ed
 1e-007 1 1 0
1  1 0 0 0.8
2  1 2 0 0 0.8
2  2 1 0 0 0.8
4 G1 2 0 1 0
0

0101000
-81 0 +80 0 *
Ve
1e-007
1 0.8 -2.77555756156289e-017
0 0

0101101
*
Ed
 1e-007 1 1 0
1  2 0 -0 0.8
2  3 3 0 -0 0.8
2  4 1 0 -0 0.8
4 G1 3 0 1 0
0

0101000
+78 0 -81 0 *
Ve
1e-007
0.9 -1.38777878078145e-017 0
0 0

0101101
*
Ed
 1e-007 1 1 0
1  3 0 0.2 0.9
2  5 4 0 0.2 0.9
2  6 1 0 0.2 0.9
0

0101000
+80 0 -76 0 *
Ve
1e-007
1 0.1 0
0 0

0101101
*
Ed
 1e-007 1 1 0
1  4 0 0.1 0.8
2  7 5 0 0.1 0.8
2  8 1 0 0.1 0.8
0

0101000
-78 0 +74 0 *
Ed
 1e-007 1 1 0
1  5 0 4.71238898038469 6.28318530717959
2  9 6 0 4.71238898038469 6.28318530717959
2  10 1 0 4.71238898038469 6.28318530717959
0

0101000
+74 0 -76 0 *
Wi

0101100
-79 0 +77 0 +75 0 +73 0 -72 0 *
Fa
0  1e-007 1 0

0101000
+71 0 *
Ve
1e-007
-2.77555756156289e-017 0.8 0.2
0 0

0101101
*
Ed
 1e-007 1 1 0
1  6 0 0 1.5707963267949
2  11 7 0 0 1.5707963267949
2  12 2 0 0 1.5707963267949
4 G1 7 0 2 0
0

0101000
+81 0 -69 0 *
Ve
1e-007
-2.77555756156289e-017 0 0.2
0 0

0101101
*
Ed
 1e-007 1 1 0
1  7 0 3.14159265358979 4.71238898038469
2  13 2 0 3.14159265358979 4.71238898038469
2  14 4 0 3.14159265358979 4.71238898038469
0

0101000
+80 0 -67 0 *
Ed
 1e-007 1 1 0
1  8 0 -0 0.8
2  15 2 0 -0 0.8
2  16 8 0 -0 0.8
4 G1 2 0 8 0
0

0101000
-69 0 +67 0 *
Wi

0101100
-79 0 -68 0 +66 0 +65 0 *
Fa
0  0 2 0

0101000
+64 0 *
Ve
1e-007
1 1 0.2
0 0

0101101
*
Ed
 1e-007 1 1 0
1  9 0 4.71238898038469 6.28318530717959
2  17 3 0 4.71238898038469 6.28318530717959
2  18 5 0 4.71238898038469 6.28318530717959
0

0101000
+62 0 -78 0 *
Ve
1e-007
0.2 1 0.2
0 0

0101101
*
Ed
 1e-007 1 1 0
1  10 0 -0 0.8
2  19 3 0 -0 0.8
2  20 9 0 -0 0.8
4 G1 3 0 9 0
0

0101000
+62 0 -60 0 *
Ed
 1e-007 1 1 0
1  11 0 0 1.5707963267949
2  21 3 0 0 1.5707963267949
2  22 7 0 0 1.5707963267949
4 G1 3 0 7 0
0

0101000
+60 0 -81 0 *
Wi

0101100
+61 0 -59 0 +77 0 -58 0 *
Fa
0  0 3 0

0101000
+57 0 *
Ve
1e-007
0.9 -1.38777878078145e-017 0.9
0 0

0101101
*
Ed
 1e-007 1 1 0
1  12 0 0 0.9
2  23 6 0 0 0.9
2  24 4 0 0 0.9
4 G1 6 0 4 0
0

0101000
-55 0 +76 0 *
Ve
1e-007
0 -1.38777878078145e-017 0.9
0 0

0101101
*
Ed
 1e-007 1 1 0
1  13 0 0.2 0.9
2  25 8 0 0.2 0.9
2  26 4 0 0.2 0.9
0

0101000
+67 0 -53 0 *
Ed
 1e-007 1 1 0
1  14 0 0 0.9
2  27 10 0 0 0.9
2  28 4 0 0 0.9
4 G1 10 0 4 0
0

0101000
+53 0 -55 0 *
Wi

0101100
-75 0 +66 0 -54 0 +52 0 +51 0 *
Fa
0  1e-007 4 0

0101000
+50 0 *
Ve
1e-007
1 0.1 0.9
0 0

0101101
*
Ed
 1e-007 1 1 0
1  15 0 0 0.9
2  29 6 0 0 0.9
2  30 5 0 0 0.9
4 G1 6 0 5 0
0

0101000
-48 0 +74 0 *
Ve
1e-007
1 1 0.9
0 0

0101101
*
Ed
 1e-007 1 1 0
1  16 0 0.2 0.9
2  31 5 0 0.2 0.9
2  32 9 0 0.2 0.9
0

0101000
+62 0 -46 0 *
Ed
 1e-007 1 1 0
1  17 0 -0 0.9
2  33 11 0 -0 0.9
2  34 5 0 -0 0.9
4 G1 11 0 5 0
0

0101000
+48 0 -46 0 *
Wi

0101100
+73 0 -61 0 -47 0 +45 0 -44 0 *
Fa
0  1e-007 5 0

0101000
+43 0 *
Ed
 1e-007 1 1 0
1  18 0 -0 1.5707963267949
2  35 12 0 -0 1.5707963267949
2  36 6 0 -0 1.5707963267949
4 G1 12 0 6 0
0

0101000
+55 0 -48 0 *
Wi

0101100
-47 0 +41 0 +72 0 +54 0 *
Fa
0  0 6 0

0101000
+40 0 *
Ed
 2.22044604925031e-016 1 1 1
2  37 7 0 0 1.5707963267949
0

0101000
+60 0 -60 0 *
Ed
 1e-007 1 1 0
1  19 0 4.71238898038469 6.28318530717959
2  38 7 0 4.71238898038469 6.28318530717959
2  39 13 0 4.71238898038469 6.28318530717959
4 G1 7 0 13 0
0

0101000
+60 0 -69 0 *
Wi

0101100
-58 0 +38 0 +37 0 -68 0 *
Fa
0  0 7 0

0101000
+36 0 *
Ve
1e-007
-2.77555756156289e-017 0.8 1
0 0

0101101
*
Ed
 1e-007 1 1 0
1  20 0 0 0.8
2  40 13 0 0 0.8
2  41 8 0 0 0.8
4 G1 13 0 8 0
0

0101000
+69 0 -34 0 *
Ve
1e-007
0 0.1 1
0 0

0101101
*
Ed
 1e-007 1 1 0
1  21 0 0.1 0.8
2  42 8 0 0.1 0.8
2  43 14 0 0.1 0.8
0

0101000
-34 0 +32 0 *
Ed
 1e-007 1 1 0
1  22 0 4.71238898038469 6.28318530717959
2  44 10 0 4.71238898038469 6.28318530717959
2  45 8 0 4.71238898038469 6.28318530717959
0

0101000
+53 0 -32 0 *
Wi

0101100
+65 0 +33 0 -52 0 -31 0 -30 0 *
Fa
0  1e-007 8 0

0101000
+29 0 *
Ve
1e-007
0.9 1 1
0 0

0101101
*
Ed
 1e-007 1 1 0
1  23 0 4.71238898038469 6.28318530717959
2  46 11 0 4.71238898038469 6.28318530717959
2  47 9 0 4.71238898038469 6.28318530717959
0

0101000
+46 0 -27 0 *
Ve
1e-007
0.2 1 1
0 0

0101101
*
Ed
 1e-007 1 1 0
1  24 0 0 0.8
2  48 13 0 0 0.8
2  49 9 0 0 0.8
4 G1 13 0 9 0
0

0101000
+60 0 -25 0 *
Ed
 1e-007 1 1 0
1  25 0 0.2 0.9
2  50 9 0 0.2 0.9
2  51 14 0 0.2 0.9
0

0101000
+25 0 -27 0 *
Wi

0101100
-45 0 +59 0 -26 0 +24 0 +23 0 *
Fa
0  1e-007 9 0

0101000
+22 0 *
Ve
1e-007
0.9 0.1 1
0 0

0101101
*
Ed
 1e-007 1 1 0
1  26 0 0 0.9
2  52 10 0 0 0.9
2  53 14 0 0 0.9
4 G1 10 0 14 0
0

0101000
+32 0 -20 0 *
Ed
 1e-007 1 1 0
1  27 0 0 1.5707963267949
2  54 10 0 0 1.5707963267949
2  55 12 0 0 1.5707963267949
4 G1 10 0 12 0
0

0101000
+55 0 -20 0 *
Wi

0101100
+30 0 -51 0 +19 0 -18 0 *
Fa
0  0 10 0

0101000
+17 0 *
Ed
 1e-007 1 1 0
1  28 0 0 1.5707963267949
2  56 12 0 0 1.5707963267949
2  57 11 0 0 1.5707963267949
4 G1 12 0 11 0
0

0101000
+48 0 -20 0 *
Ed
 1e-007 1 1 0
1  29 0 -0 0.9
2  58 11 0 -0 0.9
2  59 14 0 -0 0.9
4 G1 11 0 14 0
0

0101000
+20 0 -27 0 *
Wi

0101100
+15 0 -44 0 +14 0 -26 0 *
Fa
0  0 11 0

0101000
+13 0 *
Ed
 2.22044604925031e-016 1 1 1
2  60 12 0 -0 1.5707963267949
0

0101000
+20 0 -20 0 *
Wi

0101100
-18 0 +41 0 -11 0 +15 0 *
Fa
0  0 12 0

0101000
+10 0 *
Ed
 1e-007 1 1 0
1  30 0 3.14159265358979 4.71238898038469
2  61 13 0 3.14159265358979 4.71238898038469
2  62 14 0 3.14159265358979 4.71238898038469
0

0101000
+25 0 -34 0 *
Wi

0101100
+37 0 -24 0 +33 0 -8 0 *
Fa
0  0 13 0

0101000
+7 0 *
Wi

0101100
-23 0 +8 0 +14 0 -31 0 +19 0 *
Fa
0  1e-007 14 0

0101000
+5 0 *
Sh

0101100
-70 0 +63 0 +56 0 -49 0 +42 0 -39 0 -35 0 -28 0 +21 0 -16 0 
-12 0 +9 0 +6 0 +4 0 *
So

0100000
+3 0 *
Co

1100000
+2 0 *

+1 0 