DBRep_DrawableShape

CASCADE Topology V1, (c) Matra-Datavision
Locations 0
Curve2ds 30
1 0 0 1 0 
1 0 1 1 0 
1 0 0 0 1 
1 0.80000000000000004 0 0 -1 
1 0 0 0 -1 
1 1 0 0 1 
1 0 -1 1 0 
1 0 1 1 0 
1 -4.7123889803846897 0 1 0 
2 0.80000000000000004 0.80000000000000004 1 0 0 -1 0.20000000000000001
1 0 0 0 1 
1 0 0 1 0 
1 1 0 0 1 
1 0 0 1 0 
1 0 0 1 0 
1 0 0 1 0 
1 1.5707963267948966 0 0 1 
1 0.80000000000000004 0 0 1 
1 -4.7123889803846897 1 1 0 
2 0.80000000000000004 0.80000000000000004 1 0 0 -1 0.20000000000000001
1 0 0 0 -1 
1 0 0 0 1 
1 0 0 0 1 
1 0 1 1 0 
1 1 0 0 1 
1 0 1 1 0 
1 0 -1 1 0 
1 0 0 1 0 
1 1 0 0 -1 
1 0 0 0 1 
Curves 15
1 1 0 0 0 0 1 
1 1 0 0.80000000000000004 0 1 0 
1 1 0 0 -0 1 0 
1 1 1 0 0 0 1 
8 4.7123889803846897 6.2831853071795862
2 0.80000000000000004 0 0.80000000000000004 -0 -1 -0 0 -0 1 -1 0 0 0.20000000000000001
1 0 0 0 1 0 -0 
1 0 0 1 1 0 -0 
1 0 0 0 0 0 1 
1 0.80000000000000004 0 1 0 1 0 
8 4.7123889803846897 6.2831853071795862
2 0.80000000000000004 1 0.80000000000000004 -0 -1 -0 0 -0 1 -1 0 0 0.20000000000000001
1 0 0 0 -0 1 0 
1 0 1 0 1 0 -0 
1 0 1 1 1 0 -0 
1 0 1 0 0 0 1 
1 0 0 1 -0 1 0 
Polygon3D 0
PolygonOnTriangulations 0
Surfaces 7
1 1 0 0 1 0 -0 0 0 1 0 -1 0 
1 0 0 0 -0 1 0 0 0 1 1 0 -0 
2 0.80000000000000004 0 0.80000000000000004 0 1 0 1 0 -0 0 -0 1 0.20000000000000001
1 0 0 0 0 0 1 1 0 -0 -0 1 0 
1 0 1 0 -0 1 0 0 0 1 1 0 -0 
1 0 0 1 0 0 1 1 0 -0 -0 1 0 
1 0 0 0 1 0 -0 0 0 1 0 -1 0 
Triangulations 0

TShapes 42
Ve
1e-007
1 0 0.8
0 0

0101101
*
Ve
1e-007
1 0 0
0 0

0101101
*
Ed
 1e-007 1 1 0
1  1 0 0 0.8
2  1 1 0 0 0.8
2  2 2 0 0 0.8
0

0101000
-42 0 +41 0 *
Ve
1e-007
1 1 0.8
0 0

0101101
*
Ed
 1e-007 1 1 0
1  2 0 -0 1
2  3 3 0 -0 1
2  4 1 0 -0 1
4 G1 3 0 1 0
0

0101000
+42 0 -39 0 *
Ve
1e-007
1 1 0
0 0

0101101
*
Ed
 1e-007 1 1 0
1  3 0 0 1
2  5 1 0 0 1
2  6 4 0 0 1
0

0101000
-37 0 +41 0 *
Ed
 1e-007 1 1 0
1  4 0 0 0.8
2  7 1 0 0 0.8
2  8 5 0 0 0.8
0

0101000
-39 0 +37 0 *
Wi

0101100
-40 0 -38 0 +36 0 +35 0 *
Fa
0  1e-007 1 0

0101000
+34 0 *
Ve
1e-007
0.8 0 1
0 0

0101101
*
Ed
 1e-007 1 1 0
1  5 0 4.71238898038469 6.28318530717959
2  9 3 0 4.71238898038469 6.28318530717959
2  10 2 0 4.71238898038469 6.28318530717959
0

0101000
+42 0 -32 0 *
Ve
1e-007
0 0 0
0 0

0101101
*
Ed
 1e-007 1 1 0
1  6 0 0 1
2  11 2 0 0 1
2  12 4 0 0 1
0

0101000
-41 0 +30 0 *
Ve
1e-007
0 0 1
0 0

0101101
*
Ed
 1e-007 1 1 0
1  7 0 0 0.8
2  13 2 0 0 0.8
2  14 6 0 0 0.8
0

0101000
-32 0 +28 0 *
Ed
 1e-007 1 1 0
1  8 0 0 1
2  15 7 0 0 1
2  16 2 0 0 1
0

0101000
-28 0 +30 0 *
Wi

0101100
-40 0 -31 0 -29 0 +27 0 +26 0 *
Fa
0  1e-007 2 0

0101000
+25 0 *
Ve
1e-007
0.8 1 1
0 0

0101101
*
Ed
 1e-007 1 1 0
1  9 0 0 1
2  17 3 0 0 1
2  18 6 0 0 1
4 G1 3 0 6 0
0

0101000
+32 0 -23 0 *
Ed
 1e-007 1 1 0
1  10 0 4.71238898038469 6.28318530717959
2  19 3 0 4.71238898038469 6.28318530717959
2  20 5 0 4.71238898038469 6.28318530717959
0

0101000
+39 0 -23 0 *
Wi

0101100
+31 0 -38 0 +22 0 -21 0 *
Fa
0  0 3 0

0101000
+20 0 *
Ve
1e-007
0 1 0
0 0

0101101
*
Ed
 1e-007 1 1 0
1  11 0 0 1
2  21 7 0 0 1
2  22 4 0 0 1
0

0101000
-18 0 +30 0 *
Ed
 1e-007 1 1 0
1  12 0 0 1
2  23 5 0 0 1
2  24 4 0 0 1
0

0101000
-37 0 +18 0 *
Wi

0101100
-17 0 -16 0 +36 0 +29 0 *
Fa
0  1e-007 4 0

0111000
+15 0 *
Ve
1e-007
0 1 1
0 0

0101101
*
Ed
 1e-007 1 1 0
1  13 0 0 0.8
2  25 5 0 0 0.8
2  26 6 0 0 0.8
0

0101000
-23 0 +13 0 *
Ed
 1e-007 1 1 0
1  14 0 0 1
2  27 7 0 0 1
2  28 5 0 0 1
0

0101000
-13 0 +18 0 *
Wi

0101100
-35 0 -21 0 -16 0 +12 0 +11 0 *
Fa
0  1e-007 5 0

0101000
+10 0 *
Ed
 1e-007 1 1 0
1  15 0 0 1
2  29 7 0 0 1
2  30 6 0 0 1
0

0101000
-13 0 +28 0 *
Wi

0101100
-12 0 +22 0 -8 0 +27 0 *
Fa
0  1e-007 6 0

0101000
+7 0 *
Wi

0101100
-26 0 -8 0 +11 0 +17 0 *
Fa
0  1e-007 7 0

0111000
+5 0 *
Sh

0101100
+33 0 -24 0 -19 0 -14 0 +9 0 +6 0 -4 0 *
So

0100000
+3 0 *
Co

1100000
+2 0 *

+1 0 
0

