DBRep_DrawableShape

CASCADE Topology V1, (c) Matra-Datavision
Locations 0
Curve2ds 63
1 0 0 1 0 
1 0 0 1 0 
1 0 0 0 1 
1 0.19999999999999998 0 0 -1 
1 -4.7123889803846897 0 1 0 
2 0.80000000000000004 -0.19999999999999998 1 0 0 -1 0.20000000000000001
1 0 4.7123889803846897 1 0 
2 0.29999999999999993 -0.70000000000000007 -1 0 -0 -1 0.099999999999999978
1 1 0 0 -1 
1 0 0 0 1 
1 0 0 0 1 
1 0.29999999999999993 -0.80000000000000004 1 0 
1 -1.5707963267948966 0 1 0 
2 0.19999999999999998 0.19999999999999998 1 0 0 -1 0.20000000000000001
1 0 0 0 1 
1 0.80000000000000004 0 0 1 
1 0 0 0 1 
1 0 0 1 0 
1 0 0 0 1 
1 0 0.80000000000000004 1 0 
1 1.5707963267948966 0 0 1 
1 0.19999999999999998 0 0 1 
8 0 1.5707963267948966
1 0 0.70000000000000007 1 0 
8 0 1.5707963267948966
1 0 4.7123889803846897 0 1 
1 0 0 1 0 
1 0 0.80000000000000004 1 0 
1 1.5707963267948966 0 0 1 
1 0 0.19999999999999998 1 0 
1 0 6.2831853071795862 1 0 
1 0 0.20000000000000001 1 0 
8 4.7123889803846897 6.2831853071795862
1 1.5707963267948966 0 0 1 
8 4.7123889803846897 6.2831853071795862
1 -4.7123889803846897 0 1 0 
1 -1.5707963267948966 0.70000000000000007 1 0 
2 0.19999999999999998 0.80000000000000004 0 -1 -1 -0 0.20000000000000001
1 1 0 0 1 
1 0 1 1 0 
1 0 0 0 1 
1 0.80000000000000004 0.19999999999999998 0 1 
1 1.5707963267948966 0 0 1 
1 0.29999999999999993 0.19999999999999998 1 0 
1 0 0 0 1 
1 0 0.70000000000000007 1 0 
1 0 0 0 -1 
1 1 0 0 1 
1 0 0 1 0 
2 0.80000000000000004 0.19999999999999998 0 -1 1 0 0.20000000000000001
1 1.5707963267948966 0 0 1 
1 0 -0.19999999999999998 1 0 
8 0 1.5707963267948966
1 0 0.80000000000000004 1 0 
8 0 1.5707963267948966
1 0 0 0 1 
1 0 1.5707963267948966 1 0 
8 0 1.5707963267948966
1 1.5707963267948966 0 0 1 
8 0 1.5707963267948966
1 0 0 1 0 
1 -3.1415926535897931 1 1 0 
2 0.29999999999999993 -0.70000000000000007 1 0 -0 1 0.29999999999999999
1 1.5707963267948966 0 0 1 
1 0.29999999999999993 0 0 1 
1 0 -1 1 0 
1 0 1 1 0 
1 0 0.80000000000000004 1 0 
2 0.80000000000000004 0.80000000000000004 1 0 -0 1 0.20000000000000001
1 1.5707963267948966 0 0 1 
1 0.80000000000000004 -0.19999999999999998 0 -1 
Curves 31
1 0 0 0 0 0 1 
1 -2.7755575615628914e-017 0 0.19999999999999998 -0 1 0 
8 4.7123889803846897 6.2831853071795862
2 0 0.19999999999999998 0.80000000000000004 -1 -0 0 0 0 1 -0 1 0 0.20000000000000001
2 0 0.70000000000000007 0.29999999999999993 1 0 -0 -0 0 -1 0 1 0 0.099999999999999978
1 0 0 1 -0 1 0 
1 -2.7755575615628914e-017 0.80000000000000004 0.29999999999999993 0 0 1 
8 1.5707963267948966 3.1415926535897931
2 0.19999999999999998 0 0.19999999999999998 0 -1 -0 0 0 1 -1 -0 0 0.20000000000000001
1 0 -2.7755575615628914e-017 0.80000000000000004 1 0 -0 
1 0 0 0 1 0 -0 
1 0.80000000000000004 -2.7755575615628914e-017 0 0 0 1 
1 0.19999999999999998 0 -2.7755575615628914e-017 -0 1 0 
2 0.19999999999999998 0.70000000000000007 0.19999999999999998 0 -1 -0 -1 -0 0 -0 0 -1 0.20000000000000001
2 0.80000000000000004 0.19999999999999998 0.80000000000000004 -1 -0 0 0 -1 0 0 0 1 0.20000000000000001
1 0 0.19999999999999998 1 1 0 -0 
2 0.20000000000000001 0.70000000000000007 0.29999999999999993 1 0 -0 -0 0 -1 0 1 0 0.29999999999999999
2 0.20000000000000001 0.80000000000000004 0.29999999999999993 0 -6.123233995736766e-017 -1 0 1 -6.123233995736766e-017 1 0 0 0.20000000000000001
8 1.5707963267948966 3.1415926535897931
2 0.19999999999999998 0.80000000000000004 1 -0 -0 -1 0 -1 0 -1 0 0 0.20000000000000001
1 0 1 1 1 0 -0 
1 0.80000000000000004 0.19999999999999998 1 0 1 0 
1 0.19999999999999998 1 0.29999999999999993 0 0 1 
1 0 0.70000000000000007 -5.5511151231257827e-017 1 0 -0 
1 1 0 0 -0 1 0 
8 0 1.5707963267948966
2 0.80000000000000004 0.19999999999999998 0 0 0 1 0 -1 0 1 0 -0 0.20000000000000001
1 1 0.19999999999999998 0 0 0 1 
2 0.80000000000000004 0.19999999999999998 0.80000000000000004 0 0 1 0 -1 0 1 0 -0 0.20000000000000001
2 0.80000000000000004 0.19999999999999998 0.80000000000000004 0 1 6.123233995736766e-017 0 -6.123233995736766e-017 1 1 0 -0 0.20000000000000001
8 3.1415926535897931 4.7123889803846897
2 1 0.70000000000000007 0.29999999999999993 1 0 -0 0 0 1 0 -1 0 0.29999999999999999
1 0 1 0.29999999999999993 1 0 -0 
1 1 1 0 0 0 1 
8 0 1.5707963267948966
2 0.80000000000000004 1 0.80000000000000004 0 1 0 0 -0 1 1 0 -0 0.20000000000000001
1 1 0.19999999999999998 0.80000000000000004 0 1 0 
Polygon3D 0
PolygonOnTriangulations 0
Surfaces 14
1 0 0 0 1 0 -0 0 0 1 0 -1 0 
1 0 0 0 -0 1 0 0 0 1 1 0 -0 
2 0.19999999999999998 0 0.19999999999999998 -0 1 0 -1 -0 0 -0 -0 -1 0.20000000000000001
2 0 0.19999999999999998 0.80000000000000004 1 0 -0 0 -1 0 -0 0 1 0.20000000000000001
5 0.20000000000000001 0.70000000000000007 0.29999999999999993 1 0 -0 -0 0 -1 0 1 0 0.099999999999999978 0.20000000000000001
1 0 0 1 0 0 1 1 0 -0 -0 1 0 
2 0.19999999999999998 0.80000000000000004 0.29999999999999993 0 0 1 -1 -0 0 -0 1 -0 0.20000000000000001
1 0 0 0 0 0 1 1 0 -0 -0 1 0 
2 0.80000000000000004 0.19999999999999998 0 0 0 1 0 -1 0 1 0 -0 0.20000000000000001
4 0.80000000000000004 0.19999999999999998 0.80000000000000004 1 0 -0 0 -1 0 -0 0 1 0.20000000000000001
2 0 0.70000000000000007 0.29999999999999993 1 0 -0 0 -0 -1 -0 1 -0 0.29999999999999999
1 0 1 0 -0 1 0 0 0 1 1 0 -0 
2 0.80000000000000004 0.19999999999999998 0.80000000000000004 0 1 0 0 -0 1 1 0 -0 0.20000000000000001
1 1 0 0 1 0 -0 0 0 1 0 -1 0 
Triangulations 0

TShapes 82
Ve
1e-007
-2.77555756156289e-017 0 0.2
0 0

0101101
*
Ve
1e-007
0 -2.77555756156289e-017 0.8
0 0

0101101
*
Ed
 1e-007 1 1 0
1  1 0 0.2 0.8
2  1 1 0 0.2 0.8
2  2 2 0 0.2 0.8
0

0101000
+82 0 -81 0 *
Ve
1e-007
-2.77555756156289e-017 0.7 0.2
0 0

0101101
*
Ed
 1e-007 1 1 0
1  2 0 -0 0.7
2  3 3 0 -0 0.7
2  4 1 0 -0 0.7
4 G1 3 0 1 0
0

0101000
+82 0 -79 0 *
Ve
1e-007
0 0.2 1
0 0

0101101
*
Ed
 1e-007 1 1 0
1  3 0 4.71238898038469 6.28318530717959
2  5 4 0 4.71238898038469 6.28318530717959
2  6 1 0 4.71238898038469 6.28318530717959
0

0101000
+81 0 -77 0 *
Ve
1e-007
0 0.8 0.3
0 0

0101101
*
Ed
 1e-007 1 1 0
1  4 0 0 1.5707963267949
2  7 5 0 0 1.5707963267949
2  8 1 0 0 1.5707963267949
4 G1 5 0 1 0
0

0101000
+79 0 -75 0 *
Ve
1e-007
-2.77555756156289e-017 0.8 1
0 0

0101101
*
Ed
 1e-007 1 1 0
1  5 0 0.2 0.8
2  9 1 0 0.2 0.8
2  10 6 0 0.2 0.8
0

0101000
-73 0 +77 0 *
Ed
 1e-007 1 1 0
1  6 0 0 0.7
2  11 7 0 0 0.7
2  12 1 0 0 0.7
4 G1 7 0 1 0
0

0101000
+75 0 -73 0 *
Wi

0101100
-80 0 +78 0 -76 0 +74 0 -72 0 +71 0 *
Fa
0  1e-007 1 0

0101000
+70 0 *
Ve
1e-007
0.2 0 -2.77555756156289e-017
0 0

0101101
*
Ed
 1e-007 1 1 0
1  7 0 1.5707963267949 3.14159265358979
2  13 3 0 1.5707963267949 3.14159265358979
2  14 2 0 1.5707963267949 3.14159265358979
0

0101000
+82 0 -68 0 *
Ve
1e-007
0.8 -2.77555756156289e-017 0.8
0 0

0101101
*
Ed
 1e-007 1 1 0
1  8 0 0 0.8
2  15 4 0 0 0.8
2  16 2 0 0 0.8
4 G1 4 0 2 0
0

0101000
-66 0 +81 0 *
Ve
1e-007
0.8 -2.77555756156289e-017 0
0 0

0101101
*
Ed
 1e-007 1 1 0
1  9 0 0.2 0.8
2  17 2 0 0.2 0.8
2  18 8 0 0.2 0.8
0

0101000
+68 0 -64 0 *
Ed
 1e-007 1 1 0
1  10 0 0 0.8
2  19 9 0 0 0.8
2  20 2 0 0 0.8
4 G1 9 0 2 0
0

0101000
+64 0 -66 0 *
Wi

0101100
+80 0 -67 0 +65 0 -63 0 -62 0 *
Fa
0  1e-007 2 0

0101000
+61 0 *
Ve
1e-007
0.2 0.7 -2.77555756156289e-017
0 0

0101101
*
Ed
 1e-007 1 1 0
1  11 0 0 0.7
2  21 3 0 0 0.7
2  22 8 0 0 0.7
4 G1 3 0 8 0
0

0101000
+68 0 -59 0 *
Ed
 1e-007 1 1 0
1  12 0 0 1.5707963267949
2  23 3 0 0 1.5707963267949
2  24 5 0 0 1.5707963267949
4 G1 3 0 5 0
0

0101000
+79 0 -59 0 *
Wi

0101100
+67 0 -78 0 +58 0 -57 0 *
Fa
0  0 3 0

0101000
+56 0 *
Ve
1e-007
0.8 0.2 1
0 0

0101101
*
Ed
 1e-007 1 1 0
1  13 0 0 1.5707963267949
2  25 10 0 0 1.5707963267949
2  26 4 0 0 1.5707963267949
4 G1 10 0 4 0
0

0101000
+66 0 -54 0 *
Ed
 1e-007 1 1 0
1  14 0 0 0.8
2  27 4 0 0 0.8
2  28 6 0 0 0.8
4 G1 4 0 6 0
0

0101000
-54 0 +77 0 *
Wi

0101100
-65 0 -53 0 +76 0 +52 0 *
Fa
0  0 4 0

0101000
+51 0 *
Ve
1e-007
0.2 1 0.3
0 0

0101101
*
Ed
 1e-007 1 1 0
1  15 0 0 1.5707963267949
2  29 5 0 0 1.5707963267949
2  30 11 0 0 1.5707963267949
4 G1 5 0 11 0
0

0101000
+59 0 -49 0 *
Ed
 1e-007 1 1 0
1  16 0 4.71238898038469 6.28318530717959
2  31 5 0 4.71238898038469 6.28318530717959
2  32 7 0 4.71238898038469 6.28318530717959
4 G1 5 0 7 0
0

0101000
+75 0 -49 0 *
Wi

0101100
-57 0 +74 0 -48 0 +47 0 *
Fa
0  0 5 0

0101000
+46 0 *
Ve
1e-007
0.2 1 1
0 0

0101101
*
Ed
 1e-007 1 1 0
1  17 0 1.5707963267949 3.14159265358979
2  33 7 0 1.5707963267949 3.14159265358979
2  34 6 0 1.5707963267949 3.14159265358979
0

0101000
+73 0 -44 0 *
Ve
1e-007
0.8 1 1
0 0

0101101
*
Ed
 1e-007 1 1 0
1  18 0 0.2 0.8
2  35 12 0 0.2 0.8
2  36 6 0 0.2 0.8
0

0101000
+44 0 -42 0 *
Ed
 1e-007 1 1 0
1  19 0 0 0.8
2  37 13 0 0 0.8
2  38 6 0 0 0.8
4 G1 13 0 6 0
0

0101000
+54 0 -42 0 *
Wi

0101100
-72 0 -43 0 +52 0 -41 0 +40 0 *
Fa
0  1e-007 6 0

0101000
+39 0 *
Ed
 1e-007 1 1 0
1  20 0 0 0.7
2  39 7 0 0 0.7
2  40 12 0 0 0.7
4 G1 7 0 12 0
0

0101000
+49 0 -44 0 *
Wi

0101100
+47 0 -71 0 +37 0 -43 0 *
Fa
0  0 7 0

0101000
+36 0 *
Ve
1e-007
1 0.7 -5.55111512312578e-017
0 0

0101101
*
Ed
 1e-007 1 1 0
1  21 0 0.2 1
2  41 11 0 0.2 1
2  42 8 0 0.2 1
4 G1 11 0 8 0
0

0101000
+59 0 -34 0 *
Ve
1e-007
1 0.2 0
0 0

0101101
*
Ed
 1e-007 1 1 0
1  22 0 0.2 0.7
2  43 14 0 0.2 0.7
2  44 8 0 0.2 0.7
0

0101000
-34 0 +32 0 *
Ed
 1e-007 1 1 0
1  23 0 0 1.5707963267949
2  45 9 0 0 1.5707963267949
2  46 8 0 0 1.5707963267949
0

0101000
+64 0 -32 0 *
Wi

0101100
-33 0 -58 0 +31 0 +63 0 +30 0 *
Fa
0  1e-007 8 0

0101000
+29 0 *
Ve
1e-007
1 0.2 0.8
0 0

0101101
*
Ed
 1e-007 1 1 0
1  24 0 0 0.8
2  47 9 0 0 0.8
2  48 14 0 0 0.8
4 G1 9 0 14 0
0

0101000
+32 0 -27 0 *
Ed
 1e-007 1 1 0
1  25 0 0 1.5707963267949
2  49 9 0 0 1.5707963267949
2  50 10 0 0 1.5707963267949
4 G1 9 0 10 0
0

0101000
+66 0 -27 0 *
Wi

0101100
+30 0 -62 0 +26 0 -25 0 *
Fa
0  0 9 0

0101000
+24 0 *
Ed
 2.22044604925031e-016 1 1 1
2  51 10 0 0 1.5707963267949
0

0101000
+27 0 -27 0 *
Ed
 1e-007 1 1 0
1  26 0 0 1.5707963267949
2  52 10 0 0 1.5707963267949
2  53 13 0 0 1.5707963267949
4 G1 10 0 13 0
0

0101000
+54 0 -27 0 *
Wi

0101100
-25 0 +53 0 -22 0 +21 0 *
Fa
0  0 10 0

0101000
+20 0 *
Ve
1e-007
1 1 0.3
0 0

0101101
*
Ed
 1e-007 1 1 0
1  27 0 3.14159265358979 4.71238898038469
2  54 11 0 3.14159265358979 4.71238898038469
2  55 14 0 3.14159265358979 4.71238898038469
0

0101000
+34 0 -18 0 *
Ed
 1e-007 1 1 0
1  28 0 0.2 1
2  56 11 0 0.2 1
2  57 12 0 0.2 1
4 G1 11 0 12 0
0

0101000
+49 0 -18 0 *
Wi

0101100
-33 0 +48 0 -17 0 +16 0 *
Fa
0  0 11 0

0101000
+15 0 *
Ve
1e-007
1 1 0.8
0 0

0101101
*
Ed
 1e-007 1 1 0
1  29 0 0.3 0.8
2  58 14 0 0.3 0.8
2  59 12 0 0.3 0.8
0

0101000
+18 0 -13 0 *
Ed
 1e-007 1 1 0
1  30 0 0 1.5707963267949
2  60 13 0 0 1.5707963267949
2  61 12 0 0 1.5707963267949
0

0101000
+42 0 -13 0 *
Wi

0101100
-16 0 +37 0 -12 0 +41 0 +11 0 *
Fa
0  1e-007 12 0

0101000
+10 0 *
Ed
 1e-007 1 1 0
1  31 0 0 0.8
2  62 13 0 0 0.8
2  63 14 0 0 0.8
4 G1 13 0 14 0
0

0101000
+27 0 -13 0 *
Wi

0101100
+21 0 -40 0 +8 0 -11 0 *
Fa
0  0 13 0

0101000
+7 0 *
Wi

0101100
+31 0 +17 0 -26 0 +12 0 -8 0 *
Fa
0  1e-007 14 0

0101000
+5 0 *
Sh

0101100
-69 0 -60 0 -55 0 -50 0 +45 0 +38 0 -35 0 -28 0 +23 0 -19 0 
+14 0 +9 0 +6 0 +4 0 *
So

0100000
+3 0 *
Co

1100000
+2 0 *

+1 0 