DBRep_DrawableShape

CASCADE Topology V1, (c) Matra-Datavision
Locations 0
Curve2ds 44
1 0 0 1 0 
1 0 0 1 0 
1 -4.7123889803846897 0 1 0 
2 0.90000000000000002 -0.099999999999999992 1 0 0 -1 0.10000000000000001
1 0 0 0 -1 
1 0 0 0 1 
1 1 0 0 -1 
1 0 0 0 1 
1 0 -1 1 0 
1 0 0 1 0 
1 0 0 0 1 
1 0 0 1 0 
1 1.5707963267948966 0 0 1 
1 0 0.70000000000000007 1 0 
1 0 0 0 1 
1 0.90000000000000002 0 0 1 
1 1.5707963267948966 0 0 1 
1 0 0.099999999999999992 1 0 
7 0 0  7 8 2  1.570796326794897 0.70000000000000007  1.3687658178844566 0.70000000000000107  1.1469928932978266 0.69999999999999152  0.9089125005319304 0.70000000000001905  0.66188382619235353 0.69999999999998175  0.42380343355051237 0.70000000000000973  0.20203050891043808 0.69999999999999785  2.8707996398168858e-016 0.70000000000000018 
 0 8 1.5707963267948963 8
8 0 1.5707963267948963
1 0 1.5707963267948963 1 0 
1 0 0 0 -1 
1 1 0 0 1 
1 -4.7123889803846897 0 1 0 
2 0.70000000000000007 0.29999999999999993 0 -1 -1 -0 0.29999999999999999
1 0 0 0 1 
1 0 1 1 0 
1 1 0 0 1 
1 0 1 1 0 
1 0 0 0 1 
7 0 0  7 8 2  0.80000000000000004 0.29999999999999993  0.80000000000000104 0.2775600524743585  0.80839229020555758 0.2550976868047759  0.81959628741044332 0.22116497167784691  0.81758905392471815 0.17246747074976546  0.78973704629981945 0.12601695617105788  0.74487989505128105 0.099999999999999367  0.70000000000000018 0.099999999999999908 
 0 8 1.5707963267948963 8
1 1.5707963267948966 0 0 1 
1 0.80000000000000004 0 0 1 
1 0 -1 1 0 
1 0 1 1 0 
1 -4.7123889803846897 1 1 0 
2 0.80000000000000004 0.80000000000000004 1 0 0 -1 0.20000000000000001
1 0 0 0 1 
1 0 -0.29999999999999993 1 0 
7 0 0  7 8 2  -9.2518585732374403e-017 0.80000000000000016  0.22439947525641679 0.80000000000000238  0.44879895051281582 0.81428571428570207  0.67319842576926014 0.83714285714287862  0.89759790102563886 0.86285714285712445  1.1219973762820783 0.88571428571429478  1.3463968515384794 0.89999999999999791  1.5707963267948963 0.90000000000000013 
 0 8 1.5707963267948963 8
1 1.5707963267948963 0 0 1 
7 0 0  9 10 2  1.570796326794897 0.29999999999999988  1.4136614865312354 0.30000000000000315  1.245021609923632 0.29999999999998828  1.0662299400760309 0.30000000000002364  0.88005147506758263 0.29999999999996624  0.69074485149635922 0.30000000000003657  0.50456638702163903 0.29999999999997057  0.32577471677043363 0.30000000000001453  0.1571348402636692 0.29999999999999671  2.2204460492503131e-016 0.29999999999999993 
 0 10 1.5707963267948963 10
8 0 1.5707963267948963
1 0 0 1 0 
1 0 0 0 1 
1 0.80000000000000004 0 0 -1 
Curves 22
1 0 0 0 0 0 1 
8 4.7123889803846897 6.2831853071795862
2 0 0.099999999999999992 0.90000000000000002 -1 -0 0 0 0 1 -0 1 0 0.10000000000000001
1 0 0 0 -0 1 0 
1 0 0 1 -0 1 0 
1 0 1 0 0 0 1 
1 0 0 0 1 0 -0 
1 0.70000000000000007 -5.5511151231257827e-017 0 0 0 1 
1 0 -1.3877787807814457e-017 0.90000000000000002 1 0 -0 
1 0 0.099999999999999992 1 1 0 -0 
7 1 0  2 3 2  0.70000000000000007 0.09999999999999995 1  1 0.70000000000000007 -2.7755575615628914e-017 0.99999999999999989  0.70710678118654757 0.70000000000000007 -5.5511151231257827e-017 0.90000000000000002  1
 0 3 1.5707963267948963 3
1 1 0 0 -0 1 0 
8 4.7123889803846897 6.2831853071795862
2 0.70000000000000007 0.29999999999999993 0 -0 -0 -1 0 -1 0 -1 0 0 0.29999999999999999
1 0 1 0 1 0 -0 
1 0 1 1 1 0 -0 
7 1 0  7 8 2  0.80000000000000004 0.29999999999999993 1  1 0.80000000000000016 0.27756005247435822 1  1.0000000000000018 0.80839229020556369 0.25509768680477851 1  0.99999999999998868 0.81959628741043067 0.22116497167784233 1  1.0000000000000207 0.81758905392473002 0.17246747074976895 1  0.99999999999998102 0.78973704629981256 0.12601695617105646 1  1.0000000000000102 0.7448798950512826 0.0999999999999997 1  0.99999999999999722 0.70000000000000007 0.09999999999999995 1  1
 0 8 1.5707963267948963 8
1 0.80000000000000004 0 1 0 1 0 
1 1 1 0 0 0 1 
8 4.7123889803846897 6.2831853071795862
2 0.80000000000000004 1 0.80000000000000004 -0 -1 -0 0 -0 1 -1 0 0 0.20000000000000001
1 1 0.29999999999999993 0 0 0 1 
7 1 0  7 8 2  1 0.29999999999999993 0.80000000000000004  1 0.99999999999999956 0.23268015742307535 0.80000000000000016  1.0000000000000018 0.98237533403450961 0.16536064050496699 0.81428571428571372  0.99999999999998868 0.94712881666066018 0.10357591775311095 0.83714285714285741  1.0000000000000207 0.89642408224688619 0.052871183339339586 0.86285714285714343  0.99999999999998102 0.83463935949503643 0.017624665965492031 0.8857142857142849  1.0000000000000102 0.76731984257692354 -4.163336342344337e-016 0.90000000000000024  0.99999999999999722 0.70000000000000007 -5.5511151231257827e-017 0.90000000000000002  1
 0 8 1.5707963267948963 8
7 1 0  2 3 2  0.80000000000000004 0.29999999999999993 1  1 1 0.29999999999999993 1  0.70710678118654757 1 0.29999999999999993 0.80000000000000004  1
 0 3 1.5707963267948963 3
1 1 0 0.80000000000000004 0 1 0 
Polygon3D 0
PolygonOnTriangulations 0
Surfaces 10
1 0 0 0 1 0 -0 0 0 1 0 -1 0 
1 0 0 0 -0 1 0 0 0 1 1 0 -0 
2 0 0.099999999999999992 0.90000000000000002 1 0 -0 0 -1 0 -0 0 1 0.10000000000000001
1 0 0 0 0 0 1 1 0 -0 -0 1 0 
1 0 0 1 0 0 1 1 0 -0 -0 1 0 
1 0 1 0 -0 1 0 0 0 1 1 0 -0 
2 0.70000000000000007 0.29999999999999993 0 0 0 1 1 0 -0 0 -1 -0 0.29999999999999999
9 1 1 0 0 2 7 3 8 2 2 0.80000000000000004 0.29999999999999993 1  1 0.80000000000000016 0.27756005247435822 1  1.0000000000000018 0.80839229020556369 0.25509768680477851 1  0.99999999999998868 0.81959628741043067 0.22116497167784233 1  1.0000000000000207 0.81758905392473002 0.17246747074976895 1  0.99999999999998102 0.78973704629981256 0.12601695617105646 1  1.0000000000000102 0.7448798950512826 0.0999999999999997 1  0.99999999999999722 0.70000000000000007 0.09999999999999995 1  1 
1 0.29999999999999993 1  0.70710678118654757 0.99999999999999956 0.23268015742307507 1  0.70710678118654891 0.98237533403450994 0.1653606405049676 0.99999999999999922  0.70710678118653936 0.94712881666065984 0.10357591775311065 1.0000000000000011  0.70710678118656356 0.89642408224688652 0.052871183339339323 0.99999999999999933  0.70710678118653181 0.83463935949503609 0.017624665965492753 0.99999999999999989  0.70710678118655712 0.76731984257692365 -6.3837823915946501e-016 1.0000000000000002  0.70710678118654446 0.70000000000000007 -2.7755575615628914e-017 0.99999999999999989  0.70710678118654757 
1 0.29999999999999993 0.80000000000000004  1 0.99999999999999967 0.23268015742307535 0.80000000000000016  1.0000000000000018 0.98237533403450961 0.16536064050496699 0.81428571428571372  0.99999999999998868 0.94712881666066018 0.10357591775311095 0.83714285714285741  1.0000000000000207 0.89642408224688619 0.052871183339339586 0.86285714285714343  0.99999999999998102 0.83463935949503643 0.017624665965492031 0.8857142857142849  1.0000000000000102 0.76731984257692354 -4.163336342344337e-016 0.90000000000000024  0.99999999999999722 0.70000000000000007 -5.5511151231257827e-017 0.90000000000000002  1 

0 3
1.5707963267948963 3

0 8
1.5707963267948963 8

1 1 0 0 1 0 -0 0 0 1 0 -1 0 
2 0.80000000000000004 0 0.80000000000000004 0 1 0 1 0 -0 0 -0 1 0.20000000000000001
Triangulations 0

TShapes 59
Ve
1e-007
0 -1.38777878078145e-017 0.9
0 0

0101101
*
Ve
1e-007
0 0 0
0 0

0101101
*
Ed
 1e-007 1 1 0
1  1 0 0 0.9
2  1 1 0 0 0.9
2  2 2 0 0 0.9
0

0101000
-59 0 +58 0 *
Ve
1e-007
0 0.1 1
0 0

0101101
*
Ed
 1e-007 1 1 0
1  2 0 4.71238898038469 6.28318530717959
2  3 3 0 4.71238898038469 6.28318530717959
2  4 1 0 4.71238898038469 6.28318530717959
0

0101000
+59 0 -56 0 *
Ve
1e-007
0 1 0
0 0

0101101
*
Ed
 1e-007 1 1 0
1  3 0 0 1
2  5 1 0 0 1
2  6 4 0 0 1
0

0101000
-54 0 +58 0 *
Ve
1e-007
0 1 1
0 0

0101101
*
Ed
 1e-007 1 1 0
1  4 0 0.1 1
2  7 1 0 0.1 1
2  8 5 0 0.1 1
0

0101000
+56 0 -52 0 *
Ed
 1e-007 1 1 0
1  5 0 0 1
2  9 1 0 0 1
2  10 6 0 0 1
0

0101000
-52 0 +54 0 *
Wi

0101100
-57 0 -55 0 +53 0 -51 0 +50 0 *
Fa
0  1e-007 1 0

0101000
+49 0 *
Ve
1e-007
0.7 -5.55111512312578e-017 0
0 0

0101101
*
Ed
 1e-007 1 1 0
1  6 0 0 0.7
2  11 2 0 0 0.7
2  12 4 0 0 0.7
0

0101000
-47 0 +58 0 *
Ve
3.08548352652629e-006
0.7 -5.55111512312578e-017 0.9
0 0

0101101
*
Ed
 1e-007 1 1 0
1  7 0 0 0.9
2  13 7 0 0 0.9
2  14 2 0 0 0.9
4 G1 7 0 2 0
0

0101000
+47 0 -45 0 *
Ed
 1e-007 1 1 0
1  8 0 0 0.7
2  15 3 0 0 0.7
2  16 2 0 0 0.7
4 G1 3 0 2 0
0

0101000
+59 0 -45 0 *
Wi

0101100
-46 0 -44 0 +57 0 +43 0 *
Fa
0  1e-007 2 0

0101000
+42 0 *
Ve
1.45874635821745e-005
0.7 0.1 1
0 0

0101101
*
Ed
 1e-007 1 1 0
1  9 0 0 0.7
2  17 3 0 0 0.7
2  18 5 0 0 0.7
4 G1 3 0 5 0
0

0101000
+56 0 -40 0 *
Ed
 1.45874635809309e-006 1 1 0
1  10 0 0 1.5707963267949
2  19 3 0 0 1.5707963267949
2  20 8 0 0 1.5707963267949
4 G1 8 0 3 0
0

0101000
+40 0 -45 0 *
Wi

0101100
+55 0 -43 0 +39 0 +38 0 *
Fa
0  0 3 0

0101000
+37 0 *
Ve
1e-007
1 0.3 0
0 0

0101101
*
Ve
1e-007
1 1 0
0 0

0101101
*
Ed
 1e-007 1 1 0
1  11 0 0.3 1
2  21 9 0 0.3 1
2  22 4 0 0.3 1
0

0101000
+35 0 -34 0 *
Ed
 1e-007 1 1 0
1  12 0 4.71238898038469 6.28318530717959
2  23 7 0 4.71238898038469 6.28318530717959
2  24 4 0 4.71238898038469 6.28318530717959
0

0101000
+35 0 -47 0 *
Ed
 1e-007 1 1 0
1  13 0 0 1
2  25 6 0 0 1
2  26 4 0 0 1
0

0101000
-34 0 +54 0 *
Wi

0101100
+33 0 -32 0 -31 0 +46 0 -53 0 *
Fa
0  1e-007 4 0

0101000
+30 0 *
Ve
1e-007
0.8 1 1
0 0

0101101
*
Ed
 1e-007 1 1 0
1  14 0 0 0.8
2  27 6 0 0 0.8
2  28 5 0 0 0.8
0

0101000
-28 0 +52 0 *
Ve
1.45874635821745e-005
0.8 0.3 1
0 0

0101101
*
Ed
 1.45874635809309e-006 1 1 0
1  15 0 0 1.5707963267949
2  29 8 0 0 1.5707963267949
2  30 5 0 0 1.5707963267949
4 G1 8 0 5 0
0

0101000
+26 0 -40 0 *
Ed
 1e-007 1 1 0
1  16 0 0.3 1
2  31 10 0 0.3 1
2  32 5 0 0.3 1
4 G1 10 0 5 0
0

0101000
+26 0 -28 0 *
Wi

0101100
-51 0 +39 0 -27 0 -25 0 +24 0 *
Fa
0  1e-007 5 0

0101000
+23 0 *
Ve
1e-007
1 1 0.8
0 0

0101101
*
Ed
 1e-007 1 1 0
1  17 0 0 0.8
2  33 9 0 0 0.8
2  34 6 0 0 0.8
0

0101000
-21 0 +34 0 *
Ed
 1e-007 1 1 0
1  18 0 4.71238898038469 6.28318530717959
2  35 10 0 4.71238898038469 6.28318530717959
2  36 6 0 4.71238898038469 6.28318530717959
0

0101000
+21 0 -28 0 *
Wi

0101100
-20 0 -19 0 -31 0 +27 0 +50 0 *
Fa
0  1e-007 6 0

0101000
+18 0 *
Ve
6.17096705341987e-006
1 0.3 0.8
0 0

0101101
*
Ed
 1e-007 1 1 0
1  19 0 0 0.8
2  37 7 0 0 0.8
2  38 9 0 0 0.8
4 G1 7 0 9 0
0

0101000
+35 0 -16 0 *
Ed
 1.45874635809309e-006 1 1 0
1  20 0 0 1.5707963267949
2  39 7 0 0 1.5707963267949
2  40 8 0 0 1.5707963267949
4 G1 8 0 7 0
0

0101000
+16 0 -45 0 *
Wi

0101100
+32 0 -15 0 +44 0 -14 0 *
Fa
0  0 7 0

0101000
+13 0 *
Ed
 1.45874635809309e-006 1 1 0
1  21 0 0 1.5707963267949
2  41 10 0 0 1.5707963267949
2  42 8 0 0 1.5707963267949
4 G1 8 0 10 0
0

0101000
+26 0 -16 0 *
Wi

0101100
+11 0 -25 0 +14 0 -38 0 *
Fa
0  1.45874635809309e-006 8 0

0101000
+10 0 *
Ed
 1e-007 1 1 0
1  22 0 0.3 1
2  43 10 0 0.3 1
2  44 9 0 0.3 1
4 G1 10 0 9 0
0

0101000
+16 0 -21 0 *
Wi

0101100
+20 0 -8 0 +33 0 -15 0 *
Fa
0  1e-007 9 0

0101000
+7 0 *
Wi

0101100
-11 0 +24 0 -8 0 -19 0 *
Fa
0  0 10 0

0101000
+5 0 *
Sh

0101100
-48 0 -41 0 -36 0 -29 0 +22 0 +17 0 -12 0 -9 0 +6 0 -4 0 
*
So

0100000
+3 0 *
Co

1100000
+2 0 *

+1 0 
0

