DBRep_DrawableShape

CASCADE Topology V1, (c) Matra-Datavision
Locations 0
Curve2ds 66
2 30.860226189797686 23.779219453596397 1 -1.2529047266548839e-051 1.2529047266548839e-051 1 25
8 0 1.5707963267949001
1 -3.5527136788005009e-015 10 1 -0 
1 30.860226189797686 48.779219453595942 -1 1.2529047266548839e-051 
8 0 39.990000000005203
1 -19.995000000002584 10 1 -0 
1 -9.1297738102075527 48.779219453595942 -0.00018018017724859389 -0.99999998376755173 
8 0 55.500000900900403
1 10 27.750000450449956 1.2813375897106932e-029 -1 
1 6.2831853071795862 10 -1 0 
2 -9.139773810205952 -16.220780546404058 -4.5650617788863342e-017 1 -1 -4.5650617788863342e-017 9.5
1 6.283185307179652 10 -1 0 
7 0 0  8 9 2  -9.1597737658851646 -6.7208015989656573  -12.887908282069318 -6.7286503032102098  -16.612525124520612 -8.408930232322863  -19.45843922053124 -11.756810007584725  -20.553934871656534 -16.232777506612855  -19.449015118447242 -20.706442745582915  -16.596100197192325 -24.048338159568527  -12.867916588174866 -25.720780546403862  -9.1397738102059467 -25.720780546404058 
 3.1437001343694999 9 6.2831853071795898 9
1 -9.1597738102063886 -6.7207805464036028 0.00018018017724859389 0.99999998376755173 
8 0 55.500000900900403
1 -10 -27.750000450449956 1.2813375897106932e-029 1 
1 -9.1497738102043513 48.779219453595942 -1 1.2529047266548839e-051 
8 0 34.990000000001601
1 -17.495000000002619 10 1 -0 
2 -44.139773810205952 23.779219453596397 0 1 -1 0 25
8 0 2.3561944901924901
1 -3.5527136788005009e-015 10 1 -0 
1 10 -53.033008588987208 6.2744995407213651e-026 1 
8 0 106.066017177982
1 13.182556660132306 -68.898450076067903 -0.70710678118654335 0.70710678118655168 
1 6.2831853071795862 10 -1 0 
2 30.860226189797686 -51.220780546404058 -0.70710678118654757 -0.70710678118654757 -0.70710678118654757 0.70710678118654757 25.000000000000686
1 55.860226189794048 -51.220780546404058 0 1 
8 0 75.000000000000497
1 -10 -37.500000000000043 0 1 
1 0 10 0 -1 
8 0 10
1 17.494999999998981 10 -0 -1 
1 0 0 1 0 
2 -44.139773810205952 -23.779219453596397 0 -1 -1 -0 25
1 2.3561944901924221 0 0 1 
8 0 10
1 0 53.033008588994925 1 -6.2744995407214007e-026 
1 -17.495000000002619 10 0 -1 
8 0 10
1 -10 27.750000450450447 1 -1.2813375897592025e-029 
1 -17.495000000002619 0 1 0 
8 0 34.990000000001601
1 -9.1497738102043513 -48.779219453595942 -1 -1.2529047266548839e-051 
1 -10 -27.750000450449992 1 -1.2813375897592025e-029 
8 0 10
1 3.1394851728101507 10 -0 -1 
1 -3.5557118700240802e-028 -27.750000450449992 1.2813375897106932e-029 1 
8 0 55.500000900900403
1 -9.1597738102039727 6.7207805464035673 0.00018018017724859389 -0.99999998376755173 
1 0 10 0 -1 
8 0 10
1 10 -53.033008588987208 -1 6.2744995407214007e-026 
2 30.860226189797686 51.220780546404058 -0.70710678118654757 0.70710678118654757 -0.70710678118654757 -0.70710678118654757 25.000000000000686
8 3.9269908169872401 6.2831853071795898
1 6.28318530717958 0 -1 -0 
1 2.3561944901923448 0 0 1 
8 0 10
1 0 -37.5 -1 -0 
1 0 10 0 -1 
8 0 10
1 -10 37.500000000000455 1 -0 
1 0 0 1 0 
2 30.860226189797686 -23.779219453596397 1 1.2529047266548839e-051 1.2529047266548839e-051 -1 25
1 1.5707963267948966 0 0 1 
8 0 10
1 -19.995000000002619 0 -0 1 
1 3.3275558803473085e-024 53.033008588994925 -6.2744995407213651e-026 -1 
8 0 106.066017177982
1 -61.817443339866642 -6.1015499239328079 0.70710678118654335 0.70710678118655168 
1 10 27.750000450449992 -1 -1.2813375897592025e-029 
8 0 10
1 19.995000000002619 10 -0 -1 
1 -3.5557118700240802e-028 27.750000450449992 1.2813375897106932e-029 -1 
8 0 55.500000900900403
1 -9.1297738102063306 -48.779219453595907 -0.00018018017724859389 0.99999998376755173 
1 3.5557118700240802e-028 -27.750000450450447 1 1.2813375897592025e-029 
8 0 10
1 0 0 -0 1 
1 -19.995000000002619 0 1 0 
8 0 39.990000000005203
1 30.86022618979765 -48.779219453595942 -1 -1.2529047266548839e-051 
1 -0 -37.5 0 1 
8 0 75.000000000000497
1 55.860226189794048 51.2207805464041 -0 -1 
2 -9.1397632727966993 16.220770008996169 -1.1091995905048152e-006 0.99999999999938483 0.99999999999938483 1.1091995905048152e-006 9.5000105374137327
7 0 0  1 2 2  3.14159265358979 0  0 0 
 6.2831853071798163 2 9.4247801791711705 2
1 3.1415926535897931 0 0 1 
8 0 10
1 0 0 -0 1 
2 -9.1397632727966993 16.220770008996169 -1.1091995905048152e-006 0.99999999999938483 0.99999999999938483 1.1091995905048152e-006 9.5000105374137327
8 3.1437001343694999 6.2831853071798163
1 6.28318530717958 0 -1 -0 
Curves 32
2 12982.699999999997 3665.0021798790335 17230 1 0 0 0 0 -1 -0 1 0 25
1 12982.699999999997 3690.0021798790331 17230 0 0 1 
1 12982.699999999997 3690.0021798790331 17269.990000000005 0 -0.99999998376755173 0.00018018017724859389 
2 12982.699999999997 3625.0021798790331 17270.000000000004 1 0 0 -0 1 4.5650617788863342e-017 0 -4.5650617788863342e-017 1 9.5
2 12982.699999999997 3625.002190416441 17269.999989462594 1 0 0 0 -0.99999999999938483 1.1091995905048152e-006 0 -1.1091995905048152e-006 -0.99999999999938483 9.5000105374136421
1 12982.699999999997 3634.5021798790335 17270.020000000004 0 0.99999998376755173 -0.00018018017724859389 
1 12982.699999999997 3690.0021798790331 17270.010000000002 0 0 1 
2 12982.699999999997 3665.0021798790335 17305.000000000004 1 0 0 -0 1 0 0 -0 1 25
1 12982.699999999997 3572.3245103493696 17247.677669529665 0 0.70710678118655168 0.70710678118654335 
2 12982.699999999997 3590.0021798790331 17230 -1 -0 -0 0 -0.70710678118654757 0.70710678118654757 -0 0.70710678118654757 0.70710678118654757 25
1 12982.699999999997 3590.0021798790331 17205.000000000004 0 1 0 
1 12982.699999999997 3690.0021798790331 17305.000000000004 -1 0 0 
2 12972.699999999997 3665.0021798790335 17305.000000000004 1 0 0 -0 1 0 0 -0 1 25
1 12972.699999999997 3647.3245103493696 17322.677669529665 1 0 0 
1 12982.699999999997 3690.0021798790331 17270.010000000002 -1 0 0 
1 12972.699999999997 3690.0021798790331 17270.010000000002 0 0 1 
1 12982.699999999997 3634.5021798790335 17270.020000000004 -1 0 0 
1 12972.699999999997 3634.5021798790335 17270.020000000004 0 0.99999998376755173 -0.00018018017724859389 
1 12982.699999999997 3572.3245103493696 17247.677669529665 -1 0 0 
2 12972.699999999997 3590.0021798790331 17230 -1 -0 -0 0 -0.70710678118654757 0.70710678118654757 -0 0.70710678118654757 0.70710678118654757 25
1 12972.699999999997 3590.0021798790331 17205.000000000004 1 0 0 
1 12982.699999999997 3665.0021798790335 17205.000000000004 -1 0 0 
2 12972.699999999997 3665.0021798790335 17230 1 0 0 0 0 -1 -0 1 0 25
1 12972.699999999997 3690.0021798790331 17230 1 0 0 
1 12972.699999999997 3647.3245103493696 17322.677669529665 0 -0.70710678118655168 -0.70710678118654335 
1 12982.699999999997 3690.0021798790331 17269.990000000005 -1 0 0 
1 12972.699999999997 3690.0021798790331 17269.990000000005 0 -0.99999998376755173 0.00018018017724859389 
1 12972.699999999997 3634.5021798790335 17270.000000000004 1 0 0 
1 12972.699999999997 3690.0021798790331 17230 0 0 1 
1 12972.699999999997 3590.0021798790331 17205.000000000004 0 1 0 
2 12972.699999999997 3625.002190416441 17269.999989462594 1 0 0 0 -0.99999999999938483 1.1091995905048152e-006 0 -1.1091995905048152e-006 -0.99999999999938483 9.5000105374136421
1 12972.699999999997 3615.5021798790331 17270.000000000004 1 0 0 
Polygon3D 0
PolygonOnTriangulations 26
11 1 3 4 5 6 7 8 9 10 11 2 
p 0.177059312389948 1 0 0.15707963267949 0.31415926535898 0.47123889803847 0.62831853071796 0.78539816339745 0.94247779607694 1.09955742875643 1.25663706143592 1.41371669411541 1.5707963267949 
2 2 12 
p 0.177059312389948 1 0 39.9900000000052 
2 12 13 
p 0.177059312389948 1 0 55.5000009009004 
14 1 3 4 5 6 7 8 9 10 11 12 13 14 2 
p 0.177059312389948 1 3.14159265358979 3.38325362694285 3.62491460029591 3.86657557364898 4.10823654700204 4.3498975203551 4.59155849370816 4.83321946706122 5.07488044041428 5.31654141376734 5.55820238712041 5.79986336047347 6.04152433382653 6.28318530717959 
14 14 15 16 17 18 19 20 21 22 23 24 25 26 13 
p 0.177059312389948 1 3.14159265358979 3.38325362694285 3.62491460029591 3.86657557364898 4.10823654700204 4.3498975203551 4.59155849370816 4.83321946706122 5.07488044041428 5.31654141376734 5.55820238712041 5.79986336047347 6.04152433382653 6.28318530717959 
2 27 40 
p 0.177059312389948 1 0 55.5000009009004 
2 40 41 
p 0.177059312389948 1 0 34.9900000000016 
15 41 43 44 45 46 47 48 49 50 51 52 53 54 55 42 
p 0.177059312389948 1 0 0.168299606442321 0.336599212884641 0.504898819326962 0.673198425769283 0.841498032211604 1.00979763865392 1.17809724509625 1.34639685153857 1.51469645798089 1.68299606442321 1.85129567086553 2.01959527730785 2.18789488375017 2.35619449019249 
2 56 42 
p 0.177059312389948 1 0 106.066017177982 
15 57 58 59 60 61 62 63 64 65 66 67 68 69 70 56 
p 0.177059312389948 1 3.92699081698724 4.09529042342955 4.26359002987186 4.43188963631417 4.60018924275648 4.76848884919879 4.9367884556411 5.10508806208342 5.27338766852573 5.44168727496804 5.60998688141035 5.77828648785266 5.94658609429497 6.11488570073728 6.28318530717959 
2 57 1 
p 0.177059312389948 1 0 75.0000000000005 
15 28 29 30 31 32 33 34 35 36 37 38 39 40 41 27 
p 0.177059312389948 1 0 0.168299606442321 0.336599212884641 0.504898819326962 0.673198425769283 0.841498032211604 1.00979763865392 1.17809724509625 1.34639685153857 1.51469645798089 1.68299606442321 1.85129567086553 2.01959527730785 2.18789488375017 2.35619449019249 
2 42 28 
p 0.177059312389948 1 0 34.9900000000016 
2 1 16 
p 0.177059312389948 1 0 10 
2 43 42 
p 0.177059312389948 1 0 55.5000009009004 
15 12 14 15 16 17 18 19 20 21 22 23 24 25 26 13 
p 0.177059312389948 1 3.92699081698724 4.09529042342955 4.26359002987186 4.43188963631417 4.60018924275648 4.76848884919879 4.9367884556411 5.10508806208342 5.27338766852573 5.44168727496804 5.60998688141035 5.77828648785266 5.94658609429497 6.11488570073728 6.28318530717959 
11 1 3 4 5 6 7 8 9 10 11 2 
p 0.177059312389948 1 0 0.15707963267949 0.31415926535898 0.47123889803847 0.62831853071796 0.78539816339745 0.94247779607694 1.09955742875643 1.25663706143592 1.41371669411541 1.5707963267949 
2 27 13 
p 0.177059312389948 1 0 106.066017177982 
2 70 57 
p 0.177059312389948 1 0 55.5000009009004 
2 15 2 
p 0.177059312389948 1 0 10 
2 2 70 
p 0.177059312389948 1 0 39.9900000000052 
2 12 1 
p 0.177059312389948 1 0 75.0000000000005 
2 16 1 
p 0.177059312389948 1 0 10 
2 15 2 
p 0.177059312389948 1 0 10 
14 16 17 18 19 20 21 22 23 24 25 26 27 28 15 
p 0.177059312389948 1 3.1437001343695 3.38519899381645 3.62669785326339 3.86819671271034 4.10969557215729 4.35119443160424 4.59269329105118 4.83419215049813 5.07569100994508 5.31718986939203 5.55868872883897 5.80018758828592 6.04168644773287 6.28318530717982 
14 43 45 46 47 48 49 50 51 52 53 54 55 56 44 
p 0.177059312389948 1 3.1437001343695 3.38519899381645 3.62669785326339 3.86819671271034 4.10969557215729 4.35119443160424 4.59269329105118 4.83419215049813 5.07569100994508 5.31718986939203 5.55868872883897 5.80018758828592 6.04168644773287 6.28318530717982 
Surfaces 13
1 12982.700000000003 3641.2229604254371 17260.860226189798 1 -1.7617411781496812e-026 7.1117411694422824e-026 7.1117411694422824e-026 0 -1 1.7617411781496812e-026 1 1.2529047266548839e-051 
2 12972.699999999997 3665.0021798790335 17230 1 0 0 0 0 -1 -0 1 0 25
1 12972.699999999997 3690.0021798790331 17249.995000000003 1.7617411781496812e-026 1 0 0 -0 1 1 -1.7617411781496812e-026 -0 
1 12972.699999999997 3662.2521798790335 17269.995000000006 -7.1114236231635546e-026 0.00018018017725541518 0.99999998376755173 1 0 7.1114237385993728e-026 1.2813375897592023e-029 0.99999998376755173 -0.00018018017725541518 
2 12972.699999999997 3625.0021798790331 17270.000000000004 1 -0 -0 0 1 4.5650617788863342e-017 -0 4.5650617788863342e-017 -1 9.5
2 12972.699999999997 3625.002190416441 17269.999989462594 1 -0 -0 0 -0.99999999999938483 1.1091995905048152e-006 0 1.1091995905048152e-006 0.99999999999938483 9.5000105374136421
1 12972.699999999997 3662.2521798790331 17270.014999999999 7.1114236231635546e-026 -0.00018018017725541518 -0.99999998376755173 -1 0 -7.1114237385993728e-026 1.2813375897592023e-029 0.99999998376755173 -0.00018018017725541518 
1 12972.699999999997 3690.0021798790331 17287.505000000005 1.7617411781496812e-026 1 0 0 -0 1 1 -1.7617411781496812e-026 -0 
2 12972.699999999997 3665.0021798790335 17305.000000000004 1 0 0 -0 1 0 0 -0 1 25
1 12972.699999999997 3609.8245103493696 17285.177669529661 -6.274499540721403e-026 -0.70710678118654757 0.70710678118654757 1 0 8.8734823475919625e-026 -6.2744995407214018e-026 0.70710678118654757 0.70710678118654757 
2 12972.699999999997 3590.0021798790331 17230 1 0 0 0 -0.70710678118654757 0.70710678118654757 0 -0.70710678118654757 -0.70710678118654757 25
1 12972.699999999997 3627.5021798790331 17205.000000000004 7.1117411694422824e-026 0 -1 -1 0 -7.1117411694422824e-026 0 1 0 
1 12972.700000000003 3641.2229604254371 17260.860226189798 1 -1.7617411781496812e-026 7.1117411694422824e-026 7.1117411694422824e-026 0 -1 -1.7617411781496812e-026 -1 -1.2529047266548839e-051 
Triangulations 4
70 68 1 1.76357270848809e-011
12982.7 3665.00217987903 17205 12982.7 3690.00217987903 17230 12982.7 3668.91304150504 17205.3077914851 12982.7 3672.72760473841 17206.2235870926 12982.7 3676.35194237252 17207.7248368953 12982.7 3679.69681118635 17209.7745751406 12982.7 3682.6798494087 17212.3223304703 12982.7 3685.22760473841 17215.3053686927 12982.7 3687.27734298374 17218.6502375065 12982.7 3688.77859278641 17222.2745751406 12982.7 3689.69438839391 17226.089138374 12982.7 3690.00217987903 17269.99 12982.7 3634.50217987903 17270 12982.7 3615.50217987903 17270 12982.7 3615.77823261349 17267.7265011893 12982.7 3616.59034763533 17265.5851298656 12982.7 3617.89132777141 17263.7003347467 12982.7 3619.60556478509 17262.181653274 12982.7 3621.63343345213 17261.1173456945 12982.7 3623.85708141661 17260.5692656961 12982.7 3626.14727834146 17260.5692656961 12982.7 3628.37092630594 17261.1173456945 12982.7 3630.39879497298 17262.181653274 12982.7 3632.11303198666 17263.7003347467 12982.7 3633.41401212274 17265.5851298656 12982.7 3634.22612714458 17267.7265011893 12982.7 3634.50217987903 17270.02 12982.7 3615.77786455704 17272.2720050265 12982.7 3616.58891816122 17274.4121454269 12982.7 3617.88826804912 17276.2962098501 12982.7 3619.60050140906 17277.814849308 12982.7 3621.62624213525 17278.879923668 12982.7 3623.84791850561 17279.4296172076 12982.7 3626.13658691283 17279.4320263296 12982.7 3628.35941560683 17278.8870112112 12982.7 3630.38739410069 17277.8262039193 12982.7 3632.10282079484 17276.3111725206 12982.7 3633.40613424593 17274.42984774 12982.7 3634.22169160152 17272.2914195598 12982.7 3690.00217987903 17270.01 12982.7 3690.00217987903 17305 12982.7 3647.32451034937 17322.6776695297 12982.7 3689.64895534199 17309.1876555826 12982.7 3688.59926313674 17313.2569765489 12982.7 3686.88276542675 17317.0929721776 12982.7 3684.54796694073 17320.5872450465 12982.7 3681.66084432783 17323.6410541221 12982.7 3678.30298179192 17326.1681049807 12982.7 3674.56926568816 17328.0969883128 12982.7 3670.56520322794 17329.3731978046 12982.7 3666.40394105996 17329.9606703755 12982.7 3662.20306797645 17329.8428052473 12982.7 3658.08129209341 17329.0229330486 12982.7 3654.15508640109 17327.5242216976 12982.7 3650.53539747454 17325.389021724 12982.7 3572.32451034937 17247.6776695297 12982.7 3590.00217987903 17205 12982.7 3585.81452429641 17205.353224537 12982.7 3581.74520333015 17206.4029167423 12982.7 3577.9092077014 17208.1194144523 12982.7 3574.41493483256 17210.4542129383 12982.7 3571.36112575695 17213.3413355512 12982.7 3568.83407489833 17216.6991980871 12982.7 3566.90519156625 17220.4329141909 12982.7 3565.62898207449 17224.4369766511 12982.7 3565.04150950359 17228.5982388191 12982.7 3565.1593746317 17232.7991119026 12982.7 3565.97924683041 17236.9208877856 12982.7 3567.47795818147 17240.8470934779 12982.7 3569.61315815505 17244.4667824045 55.8602261897977 23.7792194535964 30.8602261897976 48.7792194535964 55.5524347046761 27.6900810796022 54.6366390971765 31.5046443129701 53.1353892945069 35.1289819470851 51.0856510491713 38.4738507609082 48.5378957194613 41.4568889832601 45.5548574971095 44.0046443129701 42.2099886832863 46.0543825583056 38.5856510491713 47.5556323609753 34.7710878158034 48.4714279684749 -9.12977381020752 48.7792194535959 -9.13977381020717 -6.72078054640356 -9.13977381020598 -25.7207805464041 -6.86627499947418 -25.4447278119516 -4.72490367579016 -24.6326127901096 -2.84010855691841 -23.3316326540295 -1.32142708421623 -21.61739564035 -0.257119504694515 -19.5895269733081 0.290960493725564 -17.3658790088296 0.290960493725564 -15.0756820839785 -0.257119504694515 -12.8520341195 -1.32142708421623 -10.8241654524581 -2.84010855691842 -9.10992843877858 -4.72490367579019 -7.80894830269855 -6.86627499947419 -6.99683328085655 -9.15977376588517 -6.72080159896565 -11.411778836697 -25.4450958683995 -13.5519192370506 -24.6340422642145 -15.4359836602865 -23.3346923763152 -16.9546231182237 -21.6224590163775 -18.0196974782377 -19.5967182901917 -18.569391017804 -17.3750419198249 -18.5718001397738 -15.0863735126024 -18.0267850214073 -12.8635448186093 -16.9659777295285 -10.8355663247431 -15.4509463308084 -9.12013963059987 -13.5696215501569 -7.81682617950919 -11.4311933699691 -7.00126882391383 -9.14977381020677 48.7792194535959 -44.139773810206 48.7792194535959 -61.8174433398671 6.10154992393014 -48.3274293928246 48.4259949165523 -52.3967503590856 47.3763027113054 -56.2327459878376 45.6598050013149 -59.7270188566751 43.3250065152965 -62.780827932286 40.4378839023955 -65.3078787909139 37.0800213664785 -67.2367621229888 33.346305262722 -68.512971614752 29.3422428025022 -69.1004441856515 25.1809806345239 -68.9825790575367 20.9801075510111 -68.1627068588326 16.8583316679724 -66.6639955077651 12.9321259756546 -64.5287955341855 9.31243704909851 13.1825566601323 -68.8984500760679 55.8602261897984 -51.220780546404 55.5070016527543 -55.4084361290225 54.4573094475075 -59.4777570952834 52.7408117375171 -63.3137527240354 50.406013251499 -66.8080255928728 47.5188906385982 -69.8618346684837 44.1610281026815 -72.3888855271118 40.4273119989252 -74.3177688591869 36.4232495387057 -75.5939783509503 32.2619873707275 -76.1814509218502 28.0611142872148 -76.0635857937358 23.9393384041762 -75.2437135950322 20.0131327118584 -73.7450022439651 16.3934437853021 -71.6098022703861 37 42 36 18 17 56 41 43 44 41 44 45 41 45 46 41 46 47 41 47 48 41 42 38 41 48 49 41 49 50 41 50 51 62 64 63 41 51 52 41 54 55 41 55 42 41 52 54 57 19 18 57 20 19 57 21 20 57 64 62 68 70 69 57 62 60 38 42 37 57 18 56 57 59 58 52 53 54 57 60 59 57 65 64 57 66 65 57 56 70 57 70 68 57 68 66 40 38 39 40 39 27 40 41 38 66 68 67 12 26 25 12 13 26 2 12 25 2 25 24 1 21 57 1 22 21 1 23 22 1 24 23 30 42 56 1 2 24 31 42 30 10 11 2 29 30 56 10 2 1 32 42 31 28 29 56 33 42 32 5 3 4 6 1 3 6 3 5 14 28 56 6 9 10 6 10 1 7 8 9 7 9 6 34 42 33 15 14 56 35 42 34 60 62 61 16 15 56 36 42 35 17 16 56 
28 26 1 0.0692656960697162
12982.7 3615.50217987903 17270 12982.7 3634.50217987903 17270 12982.7 3615.77823261349 17267.7265011893 12982.7 3616.59034763533 17265.5851298656 12982.7 3617.89132777141 17263.7003347467 12982.7 3619.60556478509 17262.181653274 12982.7 3621.63343345213 17261.1173456945 12982.7 3623.85708141661 17260.5692656961 12982.7 3626.14727834146 17260.5692656961 12982.7 3628.37092630594 17261.1173456945 12982.7 3630.39879497298 17262.181653274 12982.7 3632.11303198666 17263.7003347467 12982.7 3633.41401212274 17265.5851298656 12982.7 3634.22612714458 17267.7265011893 12972.7 3634.50217987903 17270 12972.7 3615.50217987903 17270 12972.7 3634.22612714458 17267.7265011893 12972.7 3633.41401212274 17265.5851298656 12972.7 3632.11303198666 17263.7003347467 12972.7 3630.39879497298 17262.181653274 12972.7 3628.37092630594 17261.1173456945 12972.7 3626.14727834146 17260.5692656961 12972.7 3623.85708141661 17260.5692656961 12972.7 3621.63343345213 17261.1173456945 12972.7 3619.60556478509 17262.181653274 12972.7 3617.89132777141 17263.7003347467 12972.7 3616.59034763533 17265.5851298656 12972.7 3615.77823261349 17267.7265011893 3.1415926535898 10 -3.5527136788005e-015 10 2.89993168023673 10 2.65827070688367 10 2.41660973353061 10 2.17494876017755 10 1.93328778682449 10 1.69162681347143 10 1.44996584011836 10 1.2083048667653 10 0.966643893412241 10 0.72498292005918 10 0.483321946706118 10 0.241660973353056 10 0 0 3.14159265358979 0 0.241660973353061 0 0.483321946706122 0 0.724982920059182 0 0.966643893412243 0 1.2083048667653 0 1.44996584011836 0 1.69162681347143 0 1.93328778682449 0 2.17494876017755 0 2.41660973353061 0 2.65827070688367 0 2.89993168023673 0 14 2 15 14 15 17 13 17 18 13 14 17 12 18 19 12 13 18 11 19 20 11 12 19 10 20 21 10 11 20 9 21 22 9 22 23 9 10 21 8 23 24 8 9 23 7 24 25 7 8 24 6 25 26 6 7 25 5 26 27 5 6 26 4 27 28 4 5 27 3 28 16 3 4 28 1 3 16 
70 68 1 2.02381824684568e-011
12972.7 3665.00217987903 17205 12972.7 3690.00217987903 17230 12972.7 3668.91304150504 17205.3077914851 12972.7 3672.72760473841 17206.2235870926 12972.7 3676.35194237252 17207.7248368953 12972.7 3679.69681118635 17209.7745751406 12972.7 3682.6798494087 17212.3223304703 12972.7 3685.22760473841 17215.3053686927 12972.7 3687.27734298374 17218.6502375065 12972.7 3688.77859278641 17222.2745751406 12972.7 3689.69438839391 17226.089138374 12972.7 3590.00217987903 17205 12972.7 3572.32451034937 17247.6776695297 12972.7 3585.81452429641 17205.353224537 12972.7 3581.74520333015 17206.4029167423 12972.7 3577.9092077014 17208.1194144523 12972.7 3574.41493483256 17210.4542129383 12972.7 3571.36112575695 17213.3413355512 12972.7 3568.83407489833 17216.6991980871 12972.7 3566.90519156625 17220.4329141909 12972.7 3565.62898207449 17224.4369766511 12972.7 3565.04150950359 17228.5982388191 12972.7 3565.1593746317 17232.7991119026 12972.7 3565.97924683041 17236.9208877856 12972.7 3567.47795818147 17240.8470934779 12972.7 3569.61315815505 17244.4667824045 12972.7 3647.32451034937 17322.6776695297 12972.7 3690.00217987903 17305 12972.7 3689.64895534199 17309.1876555826 12972.7 3688.59926313674 17313.2569765489 12972.7 3686.88276542675 17317.0929721776 12972.7 3684.54796694073 17320.5872450465 12972.7 3681.66084432783 17323.6410541221 12972.7 3678.30298179192 17326.1681049807 12972.7 3674.56926568816 17328.0969883128 12972.7 3670.56520322794 17329.3731978046 12972.7 3666.40394105996 17329.9606703755 12972.7 3662.20306797645 17329.8428052473 12972.7 3658.08129209341 17329.0229330486 12972.7 3654.15508640109 17327.5242216976 12972.7 3650.53539747454 17325.389021724 12972.7 3690.00217987903 17270.01 12972.7 3634.50217987903 17270.02 12972.7 3615.50217987903 17270 12972.7 3634.22171020967 17272.2914202369 12972.7 3633.40615069455 17274.4298485862 12972.7 3632.10283542754 17276.3111732372 12972.7 3630.38740725997 17277.8262043689 12972.7 3628.35942758052 17278.8870113955 12972.7 3626.13659789191 17279.4320263524 12972.7 3623.84792855712 17279.4296172268 12972.7 3621.62625119308 17278.8799238414 12972.7 3619.60050928325 17277.8148497394 12972.7 3617.88827445287 17276.2962105415 12972.7 3616.58892275317 17274.412146241 12972.7 3615.77786699482 17272.2720056651 12972.7 3634.50217987903 17270 12972.7 3615.77823078588 17267.7264967873 12972.7 3616.59034545211 17265.5851208907 12972.7 3617.8913266589 17263.7003214687 12972.7 3619.60556600114 17262.1816363668 12972.7 3621.63343797924 17261.1173261667 12972.7 3623.85708987922 17260.5692447958 12972.7 3626.14729095369 17260.5692447958 12972.7 3628.37094285367 17261.1173261667 12972.7 3630.39881483176 17262.1816363668 12972.7 3632.113054174 17263.7003214688 12972.7 3633.41403538079 17265.5851208907 12972.7 3634.22615004701 17267.7264967873 12972.7 3690.00217987903 17269.99 55.8602261897977 -23.7792194535964 30.8602261897976 -48.7792194535964 55.5524347046761 -27.6900810796022 54.6366390971765 -31.5046443129701 53.1353892945069 -35.1289819470851 51.0856510491713 -38.4738507609082 48.5378957194613 -41.4568889832601 45.5548574971095 -44.0046443129701 42.2099886832863 -46.0543825583056 38.5856510491713 -47.5556323609753 34.7710878158034 -48.4714279684749 55.860226189794 51.2207805464041 13.1825566601335 68.8984500760682 55.5070016527543 55.4084361290225 54.4573094475075 59.4777570952834 52.7408117375171 63.3137527240354 50.406013251499 66.8080255928728 47.5188906385982 69.8618346684837 44.1610281026815 72.3888855271118 40.4273119989252 74.3177688591869 36.4232495387057 75.5939783509503 32.2619873707275 76.1814509218502 28.0611142872148 76.0635857937358 23.9393384041762 75.2437135950322 20.0131327118584 73.7450022439651 16.3934437853021 71.6098022703861 -61.8174433398666 -6.10154992393281 -44.139773810206 -48.7792194535964 -48.3274293928246 -48.4259949165522 -52.3967503590856 -47.3763027113054 -56.2327459878376 -45.6598050013149 -59.7270188566751 -43.3250065152965 -62.780827932286 -40.4378839023955 -65.3078787909139 -37.0800213664785 -67.2367621229888 -33.346305262722 -68.512971614752 -29.3422428025022 -69.1004441856515 -25.1809806345239 -68.9825790575367 -20.9801075510111 -68.1627068588326 -16.8583316679724 -66.6639955077651 -12.9321259756546 -64.5287955341855 -9.31243704909851 -9.14977381020435 -48.7792194535959 -9.15977381020397 6.72078054640357 -9.13977381020231 25.7207805464041 -11.4311940470728 7.00125021577091 -13.5696223963952 7.81680973088661 -15.450947047445 9.12012499790123 -16.96597817907 10.83555316547 -18.0267852056531 12.8635328449129 -18.571800162598 15.0863625335278 -18.569391036982 17.3750318683149 -18.0196976515596 19.5967092323586 -16.9546235496185 21.6224511421921 -15.4359843516792 23.3346859725712 -13.5519200511901 24.6340376722676 -11.4117794752638 25.445093430619 -9.13977381022929 6.72075947158828 -6.86627059747152 25.4447296395569 -4.72489470091232 24.6326149733283 -2.84009527894854 23.3316337665334 -1.32141017696172 21.6173944242969 -0.257099976924764 19.5895224461963 0.290981394017024 17.365870546214 0.290981394013784 15.0756694717516 -0.257099976934327 12.8520175717709 -1.32141017697705 10.8241455936733 -2.84009527896873 9.109906251441 -4.72489470093622 7.80892504465151 -6.86627059749773 6.99681037842894 -9.12977381020633 -48.7792194535959 1 9 6 51 27 50 1 64 65 1 65 66 1 66 67 13 27 54 13 54 55 69 57 70 13 55 56 13 56 44 13 44 58 13 58 59 13 59 60 13 60 61 52 27 51 68 69 70 68 70 2 53 27 52 67 68 2 12 23 24 12 24 25 12 25 26 12 26 13 12 13 61 12 64 1 12 61 62 12 62 63 12 63 64 54 27 53 22 23 12 21 22 12 15 12 14 20 21 12 16 12 15 19 20 12 6 8 7 6 9 8 17 12 16 18 19 12 18 12 17 27 29 28 27 30 29 27 31 30 27 32 31 27 33 32 27 34 33 27 35 34 27 36 35 27 37 36 27 38 37 27 39 38 27 40 39 27 41 40 10 2 11 48 27 47 46 47 27 46 28 42 46 27 28 49 27 48 45 46 42 50 27 49 43 45 42 1 4 3 1 5 4 1 6 5 1 10 9 1 2 10 1 67 2 
28 26 1 0.0691729855860528
12982.7 3634.50217987903 17270.02 12982.7 3615.50217987903 17270 12982.7 3634.22171020967 17272.2914202369 12982.7 3633.40615069455 17274.4298485862 12982.7 3632.10283542754 17276.3111732372 12982.7 3630.38740725997 17277.8262043689 12982.7 3628.35942758052 17278.8870113955 12982.7 3626.13659789191 17279.4320263524 12982.7 3623.84792855712 17279.4296172268 12982.7 3621.62625119308 17278.8799238414 12982.7 3619.60050928325 17277.8148497394 12982.7 3617.88827445287 17276.2962105415 12982.7 3616.58892275317 17274.412146241 12982.7 3615.77786699482 17272.2720056651 12972.7 3615.50217987903 17270 12972.7 3634.50217987903 17270.02 12972.7 3634.22171020967 17272.2914202369 12972.7 3633.40615069455 17274.4298485862 12972.7 3632.10283542754 17276.3111732372 12972.7 3630.38740725997 17277.8262043689 12972.7 3628.35942758052 17278.8870113955 12972.7 3626.13659789191 17279.4320263524 12972.7 3623.84792855712 17279.4296172268 12972.7 3621.62625119308 17278.8799238414 12972.7 3619.60050928325 17277.8148497394 12972.7 3617.88827445287 17276.2962105415 12972.7 3616.58892275317 17274.412146241 12972.7 3615.77786699482 17272.2720056651 3.13948517281015 10 6.21724893790088e-014 10 2.89798631336322 10 2.65648745391629 10 2.41498859446936 10 2.17348973502243 10 1.9319908755755 10 1.69049201612857 10 1.44899315668164 10 1.20749429723471 10 0.965995437787784 10 0.724496578340855 10 0.482997718893925 10 0.241498859446995 10 0 0 3.13948517281008 0 2.89798631336313 0 2.65648745391618 0 2.41498859446924 0 2.17348973502229 0 1.93199087557534 0 1.6904920161284 0 1.44899315668145 0 1.2074942972345 0 0.965995437787553 0 0.724496578340606 0 0.482997718893659 0 0.241498859446711 0 2 15 28 14 28 27 14 2 28 13 27 26 13 14 27 12 26 25 12 13 26 11 25 24 11 12 25 10 24 23 10 11 24 9 23 22 9 10 23 8 22 21 8 9 22 7 21 20 7 8 21 6 20 19 6 7 20 5 19 18 5 6 19 4 18 17 4 5 18 3 17 16 3 4 17 1 3 16 

TShapes 82
Ve
1e-007
12982.7 3665.00217987903 17205
0 0

0101101
*
Ve
1e-007
12982.7 3690.00217987903 17230
0 0

0101101
*
Ed
 1e-007 1 1 0
1  1 0 0 1.5707963267949
2  1 1 0 0 1.5707963267949
2  2 2 0 0 1.5707963267949
4 C0 1 0 2 0
6  1 1 0
0

0101000
+82 0 -81 0 *
Ve
1e-007
12982.7 3690.00217987903 17269.99
0 0

0101101
*
Ed
 1e-007 1 1 0
1  2 0 0 39.9900000000052
2  3 1 0 0 39.9900000000052
2  4 3 0 0 39.9900000000052
4 C0 1 0 3 0
6  2 1 0
0

0101000
+81 0 -79 0 *
Ve
1e-007
12982.7 3634.50217987903 17270
0 0

0101101
*
Ed
 1e-007 1 1 0
1  3 0 0 55.5000009009004
2  5 1 0 0 55.5000009009004
2  6 4 0 0 55.5000009009004
4 C0 1 0 4 0
6  3 1 0
0

0101000
+79 0 -77 0 *
Ve
4.71418606621631e-005
12982.7 3615.50217987903 17270
0 0

0101101
*
Ed
 1e-007 1 1 0
1  4 0 3.14159265358979 6.28318530717959
2  7 5 0 3.14159265358979 6.28318530717959
2  8 1 0 3.14159265358979 6.28318530717959
4 C0 1 0 5 0
6  4 2 0
6  5 1 0
0

0101000
+75 0 -77 0 *
Ve
4.71418606621631e-005
12982.7 3634.50217987903 17270.02
0 0

0101101
*
Ed
 4.71418606621631e-005 1 1 0
1  5 0 3.1437001343695 6.28318530717959
2  9 6 0 3.1437001343695 6.28318530717959
2  10 1 0 3.1437001343695 6.28318530717959
4 C0 1 0 6 0
0

0101000
+73 0 -75 0 *
Ve
1e-007
12982.7 3690.00217987903 17270.01
0 0

0101101
*
Ed
 1e-007 1 1 0
1  6 0 0 55.5000009009004
2  11 1 0 0 55.5000009009004
2  12 7 0 0 55.5000009009004
4 C0 1 0 7 0
6  6 1 0
0

0101000
+73 0 -71 0 *
Ve
1e-007
12982.7 3690.00217987903 17305
0 0

0101101
*
Ed
 1e-007 1 1 0
1  7 0 0 34.9900000000016
2  13 1 0 0 34.9900000000016
2  14 8 0 0 34.9900000000016
4 C0 1 0 8 0
6  7 1 0
0

0101000
+71 0 -69 0 *
Ve
1e-007
12982.7 3647.32451034937 17322.6776695297
0 0

0101101
*
Ed
 1e-007 1 1 0
1  8 0 0 2.35619449019249
2  15 1 0 0 2.35619449019249
2  16 9 0 0 2.35619449019249
4 C0 1 0 9 0
6  8 1 0
0

0101000
+69 0 -67 0 *
Ve
1e-007
12982.7 3572.32451034937 17247.6776695297
0 0

0101101
*
Ed
 1e-007 1 1 0
1  9 0 0 106.066017177982
2  17 10 0 0 106.066017177982
2  18 1 0 0 106.066017177982
4 C0 1 0 10 0
6  9 1 0
0

0101000
+65 0 -67 0 *
Ve
1e-007
12982.7 3590.00217987903 17205
0 0

0101101
*
Ed
 1e-007 1 1 0
1  10 0 3.92699081698724 6.28318530717959
2  19 11 0 3.92699081698724 6.28318530717959
2  20 1 0 3.92699081698724 6.28318530717959
4 C0 1 0 11 0
6  10 1 0
0

0101000
+63 0 -65 0 *
Ed
 1e-007 1 1 0
1  11 0 0 75.0000000000005
2  21 1 0 0 75.0000000000005
2  22 12 0 0 75.0000000000005
4 C0 1 0 12 0
6  11 1 0
0

0101000
+63 0 -82 0 *
Wi

0101100
+80 0 +78 0 +76 0 -74 0 -72 0 +70 0 +68 0 +66 0 -64 0 -62 0 
+61 0 *
Fa
0  1e-007 1 0

0101000
+60 0 *
Ve
1e-007
12972.7 3690.00217987903 17305
0 0

0101101
*
Ed
 1e-007 1 1 0
1  12 0 0 10
2  23 9 0 0 10
2  24 8 0 0 10
4 G1 9 0 8 0
0

0101000
+69 0 -58 0 *
Ve
1e-007
12972.7 3647.32451034937 17322.6776695297
0 0

0101101
*
Ed
 1e-007 1 1 0
1  13 0 0 2.35619449019249
2  25 9 0 0 2.35619449019249
2  26 13 0 0 2.35619449019249
4 C0 9 0 13 0
6  12 3 0
0

0101000
+58 0 -56 0 *
Ed
 1e-007 1 1 0
1  14 0 0 10
2  27 9 0 0 10
2  28 10 0 0 10
4 G1 9 0 10 0
0

0101000
+56 0 -67 0 *
Wi

0101100
-66 0 +57 0 +55 0 +54 0 *
Fa
0  1e-007 9 0

0101000
+53 0 *
Ve
1e-007
12972.7 3690.00217987903 17270.01
0 0

0101101
*
Ed
 1e-007 1 1 0
1  15 0 0 10
2  29 8 0 0 10
2  30 7 0 0 10
4 C0 8 0 7 0
0

0101000
+71 0 -51 0 *
Ed
 1e-007 1 1 0
1  16 0 0 34.9900000000016
2  31 8 0 0 34.9900000000016
2  32 13 0 0 34.9900000000016
4 C0 8 0 13 0
6  13 3 0
0

0101000
+51 0 -58 0 *
Wi

0101100
-68 0 +50 0 +49 0 -57 0 *
Fa
0  1e-007 8 0

0101000
+48 0 *
Ve
1e-007
12972.7 3634.50217987903 17270.02
0 0

0101101
*
Ed
 1e-007 1 1 0
1  17 0 0 10
2  33 7 0 0 10
2  34 6 0 0 10
4 C0 7 0 6 0
6  14 4 0
0

0101000
+73 0 -46 0 *
Ed
 1e-007 1 1 0
1  18 0 0 55.5000009009004
2  35 7 0 0 55.5000009009004
2  36 13 0 0 55.5000009009004
4 C0 7 0 13 0
6  15 3 0
0

0101000
+46 0 -51 0 *
Wi

0101100
-70 0 +45 0 +44 0 -50 0 *
Fa
0  1e-007 7 0

0101000
+43 0 *
Ve
1e-007
12972.7 3572.32451034937 17247.6776695297
0 0

0101101
*
Ed
 1e-007 1 1 0
1  19 0 0 10
2  37 11 0 0 10
2  38 10 0 0 10
4 G1 11 0 10 0
0

0101000
+65 0 -41 0 *
Ve
1e-007
12972.7 3590.00217987903 17205
0 0

0101101
*
Ed
 1e-007 1 1 0
1  20 0 3.92699081698724 6.28318530717959
2  39 13 0 3.92699081698724 6.28318530717959
2  40 11 0 3.92699081698724 6.28318530717959
4 C0 11 0 13 0
6  16 3 0
0

0101000
+39 0 -41 0 *
Ed
 1e-007 1 1 0
1  21 0 0 10
2  41 11 0 0 10
2  42 12 0 0 10
4 G1 11 0 12 0
0

0101000
+39 0 -63 0 *
Wi

0101100
+62 0 +40 0 -38 0 +37 0 *
Fa
0  1e-007 11 0

0101000
+36 0 *
Ve
1e-007
12972.7 3665.00217987903 17205
0 0

0101101
*
Ed
 1e-007 1 1 0
1  22 0 0 10
2  43 2 0 0 10
2  44 12 0 0 10
4 G1 2 0 12 0
0

0101000
+82 0 -34 0 *
Ve
1e-007
12972.7 3690.00217987903 17230
0 0

0101101
*
Ed
 1e-007 1 1 0
1  23 0 0 1.5707963267949
2  45 2 0 0 1.5707963267949
2  46 13 0 0 1.5707963267949
4 C0 2 0 13 0
6  17 3 0
0

0101000
+34 0 -32 0 *
Ed
 1e-007 1 1 0
1  24 0 0 10
2  47 2 0 0 10
2  48 3 0 0 10
4 G1 2 0 3 0
0

0101000
+32 0 -81 0 *
Wi

0101100
-80 0 +33 0 +31 0 +30 0 *
Fa
0  1e-007 2 0

0101000
+29 0 *
Ed
 1e-007 1 1 0
1  25 0 0 106.066017177982
2  49 10 0 0 106.066017177982
2  50 13 0 0 106.066017177982
4 C0 10 0 13 0
6  18 3 0
0

0101000
+56 0 -41 0 *
Wi

0101100
+64 0 -54 0 +27 0 -40 0 *
Fa
0  1e-007 10 0

0101000
+26 0 *
Ve
1e-007
12972.7 3690.00217987903 17269.99
0 0

0101101
*
Ed
 1e-007 1 1 0
1  26 0 0 10
2  51 4 0 0 10
2  52 3 0 0 10
4 C0 4 0 3 0
0

0101000
+79 0 -24 0 *
Ve
3.91007357260486e-005
12972.7 3634.50217987903 17270
0 0

0101101
*
Ed
 1e-007 1 1 0
1  27 0 0 55.5000009009004
2  53 4 0 0 55.5000009009004
2  54 13 0 0 55.5000009009004
4 C0 4 0 13 0
6  19 3 0
0

0101000
+24 0 -22 0 *
Ed
 1e-007 1 1 0
1  28 0 0 10
2  55 4 0 0 10
2  56 5 0 0 10
4 C0 4 0 5 0
6  20 2 0
0

0101000
+22 0 -77 0 *
Wi

0101100
-76 0 +23 0 +21 0 +20 0 *
Fa
0  1e-007 4 0

0101000
+19 0 *
Ed
 1e-007 1 1 0
1  29 0 0 39.9900000000052
2  57 3 0 0 39.9900000000052
2  58 13 0 0 39.9900000000052
4 C0 3 0 13 0
6  21 3 0
0

0101000
+32 0 -24 0 *
Wi

0101100
-78 0 -30 0 +17 0 -23 0 *
Fa
0  1e-007 3 0

0101000
+16 0 *
Ed
 1e-007 1 1 0
1  30 0 0 75.0000000000005
2  59 12 0 0 75.0000000000005
2  60 13 0 0 75.0000000000005
4 C0 12 0 13 0
6  22 3 0
0

0101000
+39 0 -34 0 *
Wi

0101100
-61 0 -37 0 +14 0 -33 0 *
Fa
0  1e-007 12 0

0101000
+13 0 *
Ve
3.91007357260486e-005
12972.7 3615.50217987903 17270
0 0

0101101
*
Ed
 3.91007357260486e-005 1 1 0
1  31 0 6.28318530717982 9.42478017917117
2  61 13 0 6.28318530717982 9.42478017917117
2  62 5 0 6.28318530717982 9.42478017917117
4 C0 5 0 13 0
0

0101000
+11 0 -22 0 *
Ed
 1e-007 1 1 0
1  32 0 0 10
2  63 5 0 0 10
2  64 6 0 0 10
4 C0 5 0 6 0
6  23 2 0
6  24 4 0
0

0101000
+11 0 -75 0 *
Wi

0101100
+74 0 -20 0 -10 0 +9 0 *
Fa
0  1e-007 5 0

0101000
+8 0 *
Ed
 1e-007 1 1 0
1  31 0 3.1437001343695 6.28318530717982
2  65 13 0 3.1437001343695 6.28318530717982
2  66 6 0 3.1437001343695 6.28318530717982
4 C0 6 0 13 0
6  25 4 0
6  26 3 0
0

0101000
+46 0 -11 0 *
Wi

0101100
+72 0 -9 0 -6 0 -45 0 *
Fa
0  1e-007 6 0

0101000
+5 0 *
Wi

0101100
-31 0 -14 0 +38 0 -27 0 -55 0 -49 0 -44 0 +6 0 +10 0 -21 0 
-17 0 *
Fa
0  1e-007 13 0

0101000
+3 0 *
Sh

0101100
+59 0 +52 0 +47 0 +42 0 +35 0 +28 0 +25 0 +18 0 +15 0 +12 0 
+7 0 +4 0 +2 0 *

+1 0 