DBRep_DrawableShape

CASCADE Topology V1, (c) Matra-Datavision
Locations 3
1
              1 -1.110223024625e-016               0               0 
1.110223024625e-016               1               0               0 
              0               0               1               0 
1
             -1 1.110223024625e-016               0 -1.145061126907e-014 
1.110223024625e-016               1               0  1888.908979097 
              0               0              -1  10244.81452825 
2  1 1 2 1 0
Curve2ds 16
1 -8.8817841970012523e-016 0 1 0 
1 6.2831853071795862 0 0 1 
1 0 0 0 1 
1 6.2831853071795862 10 -1 0 
1 5.384339876880702 0 0 -1 
1 4.0404380838903009 23.036000000000001 0 1 
1 6.2831853071795862 23.036000000000001 -1 0 
1 6.2831853071796058 23.036000000000001 -1 0 
1 0 0 1 0 
1 0.8988454302990746 0 0 1 
1 2.2427472232886561 23.036000000000001 0 -1 
1 6.2831853071795818 10 -1 0 
1 4.7123889803846897 0 0 1 
1 -2.6645352591003757e-015 13.036000000000001 1 0 
1 1.5707963267948966 23.036000000000001 0 1 
1 0 13.036000000000001 1 0 
Curves 21
2 -427.95154928080001 48.671572875300001 589.70000000000005 0 -1 0 -1 0 0 -0 -0 -1 33
1 -460.95154928080001 48.671572875300001 589.70000000000005 0 -1 0 
2 -427.95154928080001 38.671572875300001 589.70000000000005 0 1 -0 -1 0 0 0 0 1 33
1 -448.4945099368 48.671572875300001 615.52608695650997 -0 1 -0 
2 -442.26937034410003 48.671572875300001 607.70000000000005 -0 -1 0 1 0 0 -0 0 1 10
1 -427.95154928080001 48.671572875300001 617.70000000000005 -1 0 0 
1 -345.95154928080001 48.671572875300001 589.70000000000005 -0 -0 1 
1 -427.95154928080001 48.671572875300001 561.70000000000005 1 -0 -0 
2 -442.26937034410003 48.671572875300001 571.70000000000005 0 -1 -0 1 0 -2.2204460492500001e-014 2.2204460492500001e-014 0 1 10
2 -427.95154928080001 48.671572875300001 589.70000000000005 0 -1 0 -1 0 0 -0 -0 -1 33
1 -448.4945099368 48.671572875300001 563.87391304348 0 -1 0 
2 -427.95154928080001 38.671572875300001 589.70000000000005 0 1 -0 -1 0 3.364312195834e-015 3.364312195834e-015 0 1 33
1 -442.26937034410003 25.635572875299999 617.70000000000005 0 1 0 
2 -442.26937034410003 38.671572875300001 607.70000000000005 -0 1 0 1 0 0 0 0 -1 10
1 -345.95154928080001 38.671572875300001 617.70000000000005 1 -0 -0 
1 -345.95154928080001 48.671572875300001 617.70000000000005 -0 1 -0 
1 -345.95154928080001 48.671572875300001 561.70000000000005 -0 1 -0 
1 -345.95154928080001 38.671572875300001 561.70000000000005 -0 0 -1 
1 -445.41579847740002 38.671572875300001 561.70000000000005 -1 -0 -0 
1 -442.26937034410003 48.671572875300001 561.70000000000005 -0 1 -0 
2 -442.26937034410003 38.671572875300001 571.70000000000005 -0 1 0 1 0 0 0 0 -1 10
Polygon3D 0
PolygonOnTriangulations 42
4 1 3 4 2 
p 21.749873165918 1 5.3843398768807 5.68395502031366 5.98357016374663 6.28318530717959 
4 2 14 15 11 
p 21.749873165918 1 5.3843398768807 5.68395502031366 5.98357016374663 6.28318530717959 
2 2 5 
p 21.749873165918 1 0 10 
2 1 2 
p 21.749873165918 1 0 10 
4 5 7 8 6 
p 21.749873165918 1 0 0.299615143432961 0.599230286865923 0.898845430298884 
4 2 14 15 11 
p 21.749873165918 1 0 0.299615143432961 0.599230286865923 0.898845430298884 
2 6 1 
p 21.749873165918 1 -10 0 
2 6 3 
p 21.749873165918 1 -10 0 
4 2 4 5 3 
p 21.749873165918 1 1.5707963267949 1.79477995895969 2.01876359112449 2.24274722328929 
4 1 3 4 2 
p 21.749873165918 1 1.5707963267949 1.79477995895969 2.01876359112449 2.24274722328929 
2 5 1 
p 21.749873165918 1 -82 14.3178210633 
2 1 2 
p 21.749873165918 1 -82 14.3178210633 
2 6 5 
p 21.749873165918 1 -28 28 
2 2 3 
p 21.749873165918 1 -28 28 
2 7 6 
p 21.749873165918 1 -14.3178210633 82 
2 3 4 
p 21.749873165918 1 -14.3178210633 82 
4 1 4 5 3 
p 21.749873165918 1 4.04043808389095 4.26442171605554 4.48840534822012 4.71238898038471 
4 8 9 10 7 
p 21.749873165918 1 4.04043808389095 4.26442171605554 4.48840534822012 4.71238898038471 
4 1 4 5 3 
p 21.749873165918 1 0 0.299615143433025 0.59923028686605 0.898845430299075 
4 11 12 13 8 
p 21.749873165918 1 0 0.299615143433025 0.59923028686605 0.898845430299075 
2 3 6 
p 21.749873165918 1 0 10 
2 1 2 
p 21.749873165918 1 0 10 
4 6 7 8 2 
p 21.749873165918 1 5.38433987688051 5.68395502031353 5.98357016374656 6.28318530717959 
4 1 3 4 2 
p 21.749873165918 1 5.38433987688051 5.68395502031353 5.98357016374656 6.28318530717959 
2 1 2 
p 21.749873165918 1 13.036 23.036 
2 3 2 
p 21.749873165918 1 13.036 23.036 
4 6 7 8 1 
p 21.749873165918 1 4.0404380838903 4.2644217160551 4.48840534821989 4.71238898038469 
4 11 12 13 10 
p 21.749873165918 1 4.0404380838903 4.2644217160551 4.48840534821989 4.71238898038469 
2 3 4 
p 21.749873165918 1 -96.3178210633 0 
2 10 9 
p 21.749873165918 1 -96.3178210633 0 
2 4 1 
p 21.749873165918 1 -10 0 
2 4 3 
p 21.749873165918 1 -10 0 
2 1 2 
p 21.749873165918 1 -10 0 
2 1 4 
p 21.749873165918 1 -10 0 
2 4 1 
p 21.749873165918 1 -56 0 
2 9 8 
p 21.749873165918 1 -56 0 
2 1 2 
p 21.749873165918 1 -99.4642491966 -3.14642813329999 
2 8 5 
p 21.749873165918 1 -99.4642491966 -3.14642813329999 
2 6 3 
p 21.749873165918 1 -10 0 
2 2 3 
p 21.749873165918 1 -10 0 
4 6 7 8 2 
p 21.749873165918 1 1.5707963267949 1.79477995895948 2.01876359112407 2.24274722328866 
4 5 6 7 1 
p 21.749873165918 1 1.5707963267949 1.79477995895948 2.01876359112407 2.24274722328866 
Surfaces 9
2 -427.95154928080001 48.671572875300001 589.70000000000005 0 -1 0 -1 0 0 -0 -0 -1 33
1 -427.95154928080001 48.671572875300001 589.70000000000005 0 -1 0 -1 0 0 -0 -0 -1 
2 -427.95154928080001 48.671572875300001 589.70000000000005 0 -1 0 -1 0 0 -0 -0 -1 33
1 -427.95154928080001 38.671572875300001 589.70000000000005 0 -1 0 -1 0 0 -0 -0 -1 
2 -442.26937034410003 25.635572875299999 607.70000000000005 0 1 0 1 0 0 0 0 -1 10
1 -345.95154928080001 48.671572875300001 617.70000000000005 0 0 1 -1 0 0 0 -1 0 
1 -345.95154928080001 48.671572875300001 561.70000000000005 1 0 0 0 -0 1 0 -1 -0 
1 -445.41579847740002 48.671572875300001 561.70000000000005 0 0 -1 1 0 0 0 -1 0 
2 -442.26937034410003 25.635572875299999 571.70000000000005 0 1 0 1 0 0 0 0 -1 10
Triangulations 9
8 6 1 0.369606080164973
-448.4945099368 48.6715728753 615.52608695651 -460.9515492808 48.6715728753 589.7 -455.201958723302 48.6715728753 608.312232139536 -459.481404272558 48.6715728753 599.440033069693 -460.9515492808 38.6715728753 589.7 -448.4945099368 38.6715728753 615.52608695651 -459.481404272558 38.6715728753 599.440033069693 -455.201958723302 38.6715728753 608.312232139536 5.3843398768807 0 6.28318530717959 0 5.68395502031366 0 5.98357016374662 0 6.28318530717959 10 5.3843398768807 10 5.98357016374663 10 5.68395502031366 10 6 1 3 8 3 4 8 6 3 7 4 2 7 8 4 5 7 2 
15 13 1 6.36157793110215e-014
-442.2693703441 48.6715728753 617.7 -448.4945099368 48.6715728753 615.52608695651 -444.490525321011 48.6715728753 617.450203616773 -446.600713001959 48.6715728753 616.713294113709 -345.9515492808 48.6715728753 617.7 -345.9515492808 48.6715728753 561.7 -442.2693703441 48.6715728753 561.7 -448.4945099368 48.6715728753 563.87391304348 -446.600713001955 48.6715728753 562.68670588629 -444.490525321009 48.6715728753 561.949796383226 -460.9515492808 48.6715728753 589.7 -459.481404272557 48.6715728753 579.959966930305 -455.2019587233 48.6715728753 571.087767860461 -455.201958723302 48.6715728753 608.312232139536 -459.481404272558 48.6715728753 599.440033069693 14.3178210633 -28 20.542960656 -25.8260869565099 16.5389760402113 -27.7502036167735 18.6491637211589 -27.0132941137085 -82 -28 -82 28 14.3178210633 28 20.542960656 25.82608695652 18.6491637211551 27.0132941137103 16.5389760402092 27.7502036167739 33 0 31.5298549917574 9.74003306969483 27.2504094425001 18.6122321395394 27.2504094425024 -18.6122321395359 31.5298549917581 -9.74003306969282 2 1 3 2 3 4 14 1 2 15 1 14 11 1 15 7 5 1 7 6 5 7 11 12 7 1 11 13 7 12 8 9 10 8 10 7 8 7 13 
8 6 1 0.369606080161229
-460.9515492808 48.6715728753 589.7 -460.9515492808 38.6715728753 589.7 -448.4945099368 48.6715728753 563.87391304348 -459.481404272557 48.6715728753 579.959966930305 -455.2019587233 48.6715728753 571.087767860461 -448.4945099368 38.6715728753 563.87391304348 -455.2019587233 38.6715728753 571.087767860461 -459.481404272557 38.6715728753 579.959966930305 0 0 0 10 0.898845430299075 0 0.299615143433025 0 0.59923028686605 0 0.898845430299075 10 0.599230286866048 10 0.299615143433022 10 8 2 1 8 1 4 7 4 5 7 8 4 6 5 3 6 7 5 
15 13 1 5.95079541199084e-014
-448.4945099368 38.6715728753 563.87391304348 -460.9515492808 38.6715728753 589.7 -455.2019587233 38.6715728753 571.087767860461 -459.481404272557 38.6715728753 579.959966930305 -442.2693703441 38.6715728753 561.7 -444.490525321009 38.6715728753 561.949796383226 -446.600713001955 38.6715728753 562.68670588629 -345.9515492808 38.6715728753 561.7 -345.9515492808 38.6715728753 617.7 -442.2693703441 38.6715728753 617.7 -448.4945099368 38.6715728753 615.52608695651 -446.600713001959 38.6715728753 616.713294113709 -444.490525321011 38.6715728753 617.450203616773 -459.481404272558 38.6715728753 599.440033069693 -455.201958723302 38.6715728753 608.312232139536 20.542960656 25.82608695652 33 0 27.2504094425001 18.6122321395394 31.5298549917574 9.74003306969479 14.3178210633 28 16.5389760402092 27.7502036167739 18.6491637211551 27.0132941137103 -82 28 -82 -28 14.3178210633 -28 20.542960656 -25.8260869565099 18.6491637211589 -27.0132941137085 16.5389760402113 -27.7502036167735 31.529854991758 -9.74003306969283 27.2504094425024 -18.6122321395359 11 13 12 11 10 13 15 10 11 14 10 15 2 10 14 5 2 4 5 8 9 5 9 10 5 10 2 3 5 4 1 6 5 1 7 6 1 5 3 
8 6 1 0.0626453176109451
-442.2693703441 38.6715728753 617.7 -442.2693703441 48.6715728753 617.7 -448.4945099368 48.6715728753 615.52608695651 -444.490525321011 48.6715728753 617.450203616773 -446.600713001959 48.6715728753 616.713294113709 -448.4945099368 38.6715728753 615.52608695651 -446.600713001959 38.6715728753 616.713294113709 -444.490525321011 38.6715728753 617.450203616773 4.71238898038469 13.036 4.71238898038469 23.036 4.0404380838903 23.036 4.48840534821989 23.036 4.2644217160551 23.036 4.0404380838903 13.036 4.26442171605509 13.036 4.48840534821989 13.036 3 6 7 5 7 8 5 3 7 4 8 1 4 5 8 2 4 1 
4 2 1 0
-345.9515492808 48.6715728753 617.7 -442.2693703441 48.6715728753 617.7 -442.2693703441 38.6715728753 617.7 -345.9515492808 38.6715728753 617.7 0 0 96.3178210633 0 96.3178210633 10 0 10 3 1 2 3 4 1 
4 2 1 8.88178419700125e-016
-345.9515492808 38.6715728753 561.7 -345.9515492808 48.6715728753 561.7 -345.9515492808 48.6715728753 617.7 -345.9515492808 38.6715728753 617.7 0 10 0 0 56 0 56 10 4 1 2 4 2 3 
4 2 1 0
-345.9515492808 38.6715728753 561.7 -442.2693703441 38.6715728753 561.7 -442.2693703441 48.6715728753 561.7 -345.9515492808 48.6715728753 561.7 99.4642491966 10 3.14642813329999 10 3.14642813329999 0 99.4642491966 0 1 2 3 1 3 4 
8 6 1 0.0626453176069224
-448.4945099368 48.6715728753 563.87391304348 -448.4945099368 38.6715728753 563.87391304348 -442.2693703441 48.6715728753 561.7 -446.600713001955 48.6715728753 562.68670588629 -444.490525321009 48.6715728753 561.949796383226 -442.2693703441 38.6715728753 561.7 -444.490525321009 38.6715728753 561.949796383226 -446.600713001955 38.6715728753 562.68670588629 2.24274722328866 23.036 2.24274722328866 13.036 1.57079632679489 23.036 2.01876359112407 23.036 1.79477995895948 23.036 1.5707963267949 13.036 1.79477995895948 13.036 2.01876359112407 13.036 5 3 6 5 6 7 4 7 8 4 5 7 1 8 2 1 4 8 

TShapes 56
Ve
1e-007
-448.4945099368 48.6715728753 615.52608695651
0 0

0101101
*
Ve
1e-007
-460.9515492808 48.6715728753 589.7
0 0

0101101
*
Ed
 1e-007 1 1 0
1  1 0 5.3843398768807 6.28318530717959
2  1 1 0 5.3843398768807 6.28318530717959
4 C0 1 0 2 0
6  1 1 0
6  2 2 0
0

0101000
+56 0 -55 0 *
Ve
1e-007
-460.9515492808 38.6715728753 589.7
0 0

0101101
*
Ed
 1e-007 1 1 0
1  2 0 0 10
2  2 1 0 0 10
2  3 3 0 0 10
4 CN 1 0 3 0
6  3 1 0
6  4 3 0
0

0101000
+55 0 -53 0 *
Ve
1e-007
-448.4945099368 38.6715728753 615.52608695651
0 0

0101101
*
Ed
 1e-007 1 1 0
1  3 0 0 0.898845430298884
2  4 1 0 0 0.898845430298884
4 C0 1 0 4 0
6  5 1 0
6  6 4 0
0

0101000
+53 0 -51 0 *
Ed
 1e-007 1 1 0
1  4 0 -10 0
2  5 1 0 -10 0
2  6 5 0 -10 0
4 G1 1 0 5 0
6  7 1 0
6  8 5 0
0

0101000
+51 0 -56 0 *
Wi

0101100
+54 0 +52 0 +50 0 +49 0 *
Fa
0  1e-007 1 0
2  1
0101000
+48 0 *
Ve
1e-007
-442.2693703441 48.6715728753 617.7
0 0

0101101
*
Ed
 1e-007 1 1 0
1  5 0 1.5707963267949 2.24274722328929
2  7 5 0 1.5707963267949 2.24274722328929
4 C0 2 0 5 0
6  9 5 0
6  10 2 0
0

0101000
+46 0 -56 0 *
Ve
1e-007
-345.9515492808 48.6715728753 617.7
0 0

0101101
*
Ed
 1e-007 1 1 0
1  6 0 -82 14.3178210633
4 C0 2 0 6 0
6  11 2 0
6  12 6 0
0

0101000
+44 0 -46 0 *
Ve
1e-007
-345.9515492808 48.6715728753 561.7
0 0

0101101
*
Ed
 1e-007 1 1 0
1  7 0 -28 28
4 C0 2 0 7 0
6  13 2 0
6  14 7 0
0

0101000
+42 0 -44 0 *
Ve
1e-007
-442.2693703441 48.6715728753 561.7
0 0

0101101
*
Ed
 1e-007 1 1 0
1  8 0 -14.3178210633 82
4 C0 2 0 8 0
6  15 2 0
6  16 8 0
0

0101000
+40 0 -42 0 *
Ve
1e-007
-448.4945099368 48.6715728753 563.87391304348
0 0

0101101
*
Ed
 1e-007 1 1 0
1  9 0 4.04043808389095 4.71238898038471
2  8 9 0 4.04043808389095 4.71238898038471
4 C0 2 0 9 0
6  17 9 0
6  18 2 0
0

0101000
+38 0 -40 0 *
Ed
 1e-007 1 1 0
1  10 0 0 0.898845430299075
2  9 3 0 0 0.898845430299075
4 C0 2 0 3 0
6  19 3 0
6  20 2 0
0

0101000
+55 0 -38 0 *
Wi

0101100
-45 0 -43 0 -41 0 -39 0 -37 0 -36 0 -54 0 *
Fa
0  1e-007 2 0
2  2
0101000
-35 0 *
Ve
1e-007
-448.4945099368 38.6715728753 563.87391304348
0 0

0101101
*
Ed
 1e-007 1 1 0
1  11 0 0 10
2  10 3 0 0 10
2  11 9 0 0 10
4 G1 3 0 9 0
6  21 3 0
6  22 9 0
0

0101000
+38 0 -33 0 *
Ed
 1e-007 1 1 0
1  12 0 5.38433987688051 6.28318530717959
2  12 3 0 5.38433987688051 6.28318530717959
4 C0 3 0 4 0
6  23 3 0
6  24 4 0
0

0101000
+33 0 -53 0 *
Wi

0101100
-52 0 +36 0 +32 0 +31 0 *
Fa
0  1e-007 3 0
2  3
0101000
+30 0 *
Ve
1e-007
-442.2693703441 38.6715728753 617.7
0 0

0101101
*
Ed
 1e-007 1 1 0
1  13 0 13.036 23.036
2  13 5 0 13.036 23.036
4 G1 5 0 6 0
6  25 5 0
6  26 6 0
0

0101000
+28 0 -46 0 *
Ed
 1e-007 1 1 0
1  14 0 4.0404380838903 4.71238898038469
2  14 5 0 4.0404380838903 4.71238898038469
4 C0 5 0 4 0
6  27 5 0
6  28 4 0
0

0101000
+51 0 -28 0 *
Wi

0101100
+27 0 +45 0 -49 0 +26 0 *
Fa
0  1e-007 5 0
2  5
0101000
+25 0 *
Ve
1e-007
-345.9515492808 38.6715728753 617.7
0 0

0101101
*
Ed
 1e-007 1 1 0
1  15 0 -96.3178210633 0
4 C0 6 0 4 0
6  29 6 0
6  30 4 0
0

0101000
+28 0 -23 0 *
Ed
 1e-007 1 1 0
1  16 0 -10 0
4 C0 6 0 7 0
6  31 6 0
6  32 7 0
0

0101000
+23 0 -44 0 *
Wi

0101100
+43 0 -27 0 +22 0 +21 0 *
Fa
0  1e-007 6 0
2  6
0101000
+20 0 *
Ve
1e-007
-345.9515492808 38.6715728753 561.7
0 0

0101101
*
Ed
 1e-007 1 1 0
1  17 0 -10 0
4 C0 7 0 8 0
6  33 7 0
6  34 8 0
0

0101000
+18 0 -42 0 *
Ed
 1e-007 1 1 0
1  18 0 -56 0
4 C0 7 0 4 0
6  35 7 0
6  36 4 0
0

0101000
+23 0 -18 0 *
Wi

0101100
+17 0 +41 0 -21 0 +16 0 *
Fa
0  1e-007 7 0
2  7
0101000
+15 0 *
Ve
1e-007
-442.2693703441 38.6715728753 561.7
0 0

0101101
*
Ed
 1e-007 1 1 0
1  19 0 -99.4642491966 -3.14642813329999
4 C0 8 0 4 0
6  37 8 0
6  38 4 0
0

0101000
+18 0 -13 0 *
Ed
 1e-007 1 1 0
1  20 0 -10 0
2  15 9 0 -10 0
4 G1 8 0 9 0
6  39 9 0
6  40 8 0
0

0101000
+13 0 -40 0 *
Wi

0101100
+12 0 +11 0 +39 0 -17 0 *
Fa
0  1e-007 8 0
2  8
0101000
+10 0 *
Ed
 1e-007 1 1 0
1  21 0 1.5707963267949 2.24274722328866
2  16 9 0 1.5707963267949 2.24274722328866
4 C0 9 0 4 0
6  41 9 0
6  42 4 0
0

0101000
+13 0 -33 0 *
Wi

0101100
-32 0 +37 0 -11 0 +8 0 *
Fa
0  1e-007 9 0
2  9
0101000
+7 0 *
Wi

0101100
-31 0 -8 0 -12 0 -16 0 -22 0 -26 0 -50 0 *
Fa
0  1e-007 4 0
2  4
0101000
+5 0 *
Sh

0101100
+47 0 -34 0 +29 0 +24 0 +19 0 +14 0 +9 0 +6 0 +4 0 *
So

0100000
+3 0 *
Co

1100000
+2 3 *

+1 0 