DBRep_DrawableShape

CASCADE Topology V1, (c) Matra-Datavision
Locations 5
1
              1 1.232595164408e-032 1.68675167091688e-080               0 
-1.232595164408e-032               1 3.08148791102e-033               0 
3.79822709830496e-065 -3.08148791102e-033               1               0 
1
              0              -1               0              32 
0.999847695156391               0 -0.0174524064372868 -0.983268578676 
0.0174524064372868               0 0.999847695156391 56.331419145111 
1
              1               0               0               0 
              0               1               0               0 
              0               0               1               0 
2  1 1 2 1 3 1 0
2  3 -1 2 -1 1 -1 0
Curve2ds 181
1 6.2831853071800001 -0.070710678118623055 -1 0 
1 3.1415926535900001 0 0 1 
1 3.1415926535900001 0 0 1 
1 0 0 1 0 
1 3.1415926535900001 2.0750000000000002 -1 0 
1 0 0 0 1 
1 6.2831853071800001 0 0 1 
1 6.2831853071800001 -0.070710678118623055 -1 0 
1 0 -13.032137876489999 1 0 
1 0 -13.032137876489999 1 0 
1 9.4247779607689992 2.0750000000000002 -1 0 
1 0 0 1 0 
1 3.1415926535900001 0 -1 0 
1 0 1.414213562372461 1 0 
1 3.1415926535900001 0 0 1 
1 3.1415926535900001 0 0 1 
1 0 0 0 1 
1 6.2831853071800001 0 0 1 
1 3.1415926535900001 0 0 1 
1 3.1415926535900001 0 0 1 
1 0 -12.282137876489999 1 0 
1 0 0 0 1 
1 6.2831853071800001 0 0 1 
1 0 -12.282137876489999 1 0 
1 0 1.414213562372461 1 0 
1 9.4247779607689992 0 -1 0 
1 6.2831853071800001 0 0 1 
1 0 0 0 1 
1 0 9 1 0 
1 0 0 1 0 
1 3.1415926535900001 0 0 1 
1 3.1415926535900001 0 0 1 
1 9.4247779607689992 0 -1 0 
1 3.1415926535900001 0 -1 0 
1 0 0 1 0 
1 0 9 1 0 
1 6.2831853071800001 0 0 1 
1 0 0 0 1 
1 6.2831853071800001 -4.4000000000000004 -1 0 
1 -3.1415926535900001 -0.14142135623724611 1 0 
1 3.1415926535900001 0 0 1 
1 3.1415926535900001 0 0 1 
1 3.1415926535900001 -2.6512257811760116e-034 0 1 
1 3.1415926535900001 -2.6512257811760116e-034 0 1 
1 0 0 0 1 
1 6.2831853071800001 0 0 1 
1 3.1415926535900001 2.9249999999999998 1 0 
1 3.1415926535900001 0.070710678118623055 1 0 
1 -3.1415926535900001 0.070710678118623055 1 0 
1 -3.1415926535900001 2.9249999999999998 1 0 
1 3.1415926535900001 -0.14142135623724611 1 0 
1 6.2831853071800001 -4.4000000000000004 -1 0 
1 3.1415926535900001 0 -1 0 
1 6.2831853071800001 3.3306690738744535e-016 0 1 
1 0 3.3306690738744535e-016 0 1 
1 3.1415926535900001 3.3306690738744535e-016 0 1 
1 3.1415926535900001 3.3306690738744535e-016 0 1 
1 3.1415926535900001 0 0 1 
1 3.1415926535900001 0 0 1 
1 0 0 0 1 
1 6.2831853071800001 0 0 1 
1 3.1415926535900001 5 1 0 
1 -3.1415926535900001 5 1 0 
1 9.4247779607689992 0 -1 0 
1 6.2831853071800001 -0.14142135623724611 -1 0 
1 6.2831853071800001 -0.14142135623724611 -1 0 
1 9.4247779607689992 0 -1 0 
1 3.1415926535900001 0 -1 0 
1 3.1415926535900001 3.3306690738744535e-016 0 1 
1 3.1415926535900001 3.3306690738744535e-016 0 1 
1 0 3.3306690738744535e-016 0 1 
1 6.2831853071800001 3.3306690738744535e-016 0 1 
1 0 0.10000000000000001 1 0 
1 0 0 1 0 
1 0 0 1 0 
1 0 0.10000000000000001 1 0 
1 3.1415926535900001 -5.302451562353437e-034 0 1 
1 3.1415926535900001 -5.302451562353437e-034 0 1 
1 0 0 0 1 
1 6.2831853071800001 0 0 1 
1 3.1415926535900001 0.14142135623724611 1 0 
1 3.1415926535900001 0.10000000000000001 1 0 
1 -3.1415926535900001 0.14142135623724611 1 0 
1 -3.1415926535900001 0.10000000000000001 1 0 
1 3.1415926535900001 0 0 1 
1 3.1415926535900001 0 0 1 
1 0 0 0 1 
1 6.2831853071800001 0 0 1 
1 0 4.5 1 0 
1 0 4.5 1 0 
1 3.1415926535900001 0 0 1 
1 3.1415926535900001 0 0 1 
1 0 0 0 1 
1 6.2831853071800001 0 0 1 
1 6.2831853071795862 3 -1 0 
1 3.1415926535897931 3 -1 0 
1 9.4247779607689992 0.14142135623723195 -1 0 
1 3.1415926535900001 0.14142135623723195 -1 0 
1 9.4247779607689992 -3.1401849173656995e-016 -1 0 
1 3.1415926535900001 -3.1401849173656995e-016 -1 0 
1 6.2831853071800001 0 -1 0 
8 5.1936072349917346 6.2831853071795862
1 6.2831853071795871 0 -1 0 
1 6.2831853071800001 0 -1 0 
8 0 1.0895780721878523
1 6.2831853071795862 0 -1 0 
1 6.2831853071800001 0 -1 0 
8 1.0895780721876207 2.0520145814021724
1 6.2831853071795871 0 -1 0 
1 0 0 1 0 
8 2.052014581401941 4.2311707257776447
1 0 0 1 0 
1 2.22044604925e-016 0 1 0 
8 1.0895780721876207 2.0520145814021724
1 0 0 1 0 
2 -5.5 0 1 0 -0 1 2
1 0 2 1 0 
8 -22.986827267778686 19.962890590257174
1 -2.1040324623586497 -4.0294763358386616 0.88643170009614869 -0.4628594182520776 
8 -22.986827267778686 19.962890590257174
1 -7.3254666952349217e-013 2 1 0 
2 0 -4 1 0 -0 1 1
1 0 2 1 0 
8 -22.986827267778686 19.962890590257174
1 2.1040324623586497 -4.0294763358386616 -0.88643170009614869 -0.4628594182520776 
8 -22.986827267778686 19.962890590257174
1 -7.3254666952349217e-013 2 1 0 
2 5.5 0 1 0 -0 1 2
1 0 2 1 0 
1 0 2 1 0 
1 0 2 1 0 
8 -22.986827267778686 19.962890590257174
1 2.1040324623586497 4.0294763358386616 -0.88643170009614869 0.4628594182520776 
8 -22.986827267778686 19.962890590257174
1 -7.3254666952349217e-013 2 1 0 
2 0 4 1 0 -0 1 1
1 0 2 1 0 
8 -22.986827267778686 19.962890590257174
1 -2.1040324623586497 4.0294763358386616 0.88643170009614869 0.4628594182520776 
8 -22.986827267778686 19.962890590257174
1 -7.3254666952349217e-013 2 1 0 
1 6.2831853071800001 0.14142135623724611 -1 0 
1 6.2831853071800001 0.14142135623724611 -1 0 
1 6.2831853071800001 1.5700924586828497e-016 -1 0 
1 6.2831853071800001 1.5700924586828497e-016 -1 0 
1 6.2831853071800001 0 0 1 
1 0 0 0 1 
1 3.1415926535900001 1.0604903124705461e-032 0 1 
1 3.1415926535900001 1.0604903124705461e-032 0 1 
1 3.1415926535900001 0 1 0 
1 6.2831853071800001 0.09999999999999 -1 0 
1 6.2831853071800001 0.09999999999999 -1 0 
1 -3.1415926535900001 0 1 0 
1 6.2831853071800001 3.3306690738744535e-016 0 1 
1 0 3.3306690738744535e-016 0 1 
1 3.1415926535900001 3.3306690738744535e-016 0 1 
1 3.1415926535900001 3.3306690738744535e-016 0 1 
1 3.1415926535900001 -0.14142135623724611 1 0 
1 6.2831853071800001 0.10000000000000001 -1 0 
1 6.2831853071800001 0.10000000000000001 -1 0 
1 -3.1415926535900001 -0.14142135623724611 1 0 
1 6.2831853071795862 2 0 -1 
1 1.0895780721878523 0 1.2195141640969264e-007 0.99999999999999267 
1 5.1936069910292133 2 1.2198126020379528e-007 -0.99999999999999267 
1 5.1936072362446231 2 -6.2632876662860326e-010 -1 
1 4.231170722907529 2 1.4349423871351519e-009 -1 
1 4.231171051035286 2 -1.6262882063244676e-007 -0.9999999999999869 
1 2.0520142562757986 2 1.6256307122652701e-007 -0.9999999999999869 
1 2.0520145741716935 2 3.6152394411459454e-009 -1 
1 1.0895780771518979 2 -2.4821384947415481e-009 -1 
1 6.2831853071800001 0 0 1 
1 0 0 0 1 
1 0 1.8999999999999999 1 0 
1 0 0 1 0 
1 3.1415926535900001 2.1347464950107607e-048 0 1 
1 3.1415926535900001 2.1347464950107607e-048 0 1 
1 0 0 1 0 
1 0 1.8999999999999999 1 0 
1 6.2831853071800001 -3.6082248300299513e-016 0 1 
1 0 -3.6082248300299513e-016 0 1 
1 0 1.8999999999999999 1 0 
1 0 -0.14142135623724611 1 0 
1 3.1415926535900001 -3.6082248300299513e-016 0 1 
1 3.1415926535900001 -3.6082248300299513e-016 0 1 
1 0 -0.14142135623724611 1 0 
1 0 1.8999999999999999 1 0 
1 6.2831853071800001 0 0 1 
1 0 0 0 1 
1 3.1415926535900001 0 0 1 
1 3.1415926535900001 0 0 1 
1 6.2831853071800001 0 0 1 
1 0 0 0 1 
1 3.1415926535900001 0 0 1 
1 3.1415926535900001 0 0 1 
Curves 112
2 0 0 5.875 0 0 -1 1 0 0 0 -1 0 3.4500000000000002
1 -3.5 4.2862637970160004e-016 5.9249999999999998 -0.70710678118654757 8.6595605623434599e-017 0.70710678118654757 
2 0 0 5.9249999999999998 0 -0 1 1 0 0 -0 1 0 3.5
1 3.5 0 5.9249999999999998 0.70710678118654757 0 0.70710678118654757 
2 0 0 5.875 0 0 -1 1 0 0 0 -1 0 3.4500000000000002
2 0 0 5.875 0 0 -1 -1 0 0 0 1 0 2.75
2 0 0 5.875 0 0 -1 -1 0 0 0 1 0 2.75
2 0 0 5.9249999999999998 0 -0 1 1 0 0 -0 1 0 3.5
2 0 0 8 0 0 1 1 0 -0 -0 1 0 3.5
1 3.5 4.2862637970160004e-016 8 -0 -0 -1 
1 -3.5 0 8 -0 -0 -1 
1 2.75 3.3677786976550001e-016 -7.1571378764939997 -0 -0 -1 
2 0 0 5.125 0 0 -1 -1 0 0 0 1 0 2.75
1 -2.75 0 -7.1571378764939997 -0 -0 -1 
2 0 0 5.125 0 0 -1 -1 0 0 0 1 0 2.75
2 0 0 8 0 0 1 1 0 -0 -0 1 0 3.5
1 2.5 0 7 0.70710678118654757 0 0.70710678118654757 
2 0 0 7 0 0 1 1 0 -0 -0 1 0 2.5
1 -2.5 3.0616169978680001e-016 7 -0.70710678118654757 8.6595605623434599e-017 0.70710678118654757 
2 0 0 5.125 0 0 1 1 0 -0 -0 1 0 3.4500000000000002
2 0 0 5.125 0 0 1 1 0 -0 -0 1 0 3.4500000000000002
2 0 0 7 0 0 1 1 0 -0 -0 1 0 2.5
1 2.5 0 -2 0 0 1 
2 0 0 -6.4000000000000004 0 0 -1 1 0 0 0 -1 0 2.5
1 -2.5 3.0616169978680001e-016 -2 0 0 1 
1 3.4500000000000002 4.225031457058e-016 5.125 0.70710678118654757 8.6595605623434599e-017 -0.70710678118654757 
1 -3.4500000000000002 0 5.125 -0.70710678118654757 0 -0.70710678118654757 
2 0 0 5.0750000000000002 0 0 -1 1 0 0 0 -1 0 3.5
2 0 0 5.0750000000000002 0 0 -1 1 0 0 0 -1 0 3.5
2 0 0 -6.4000000000000004 0 0 -1 1 0 0 0 -1 0 2.5
2 0 0 -6.5 -0 0 1 1 0 0 0 1 -0 2.6000000000000001
1 -2.6000000000000001 0 -6.5 -0.70710678118654757 0 -0.70710678118654757 
1 2.6000000000000001 3.1840816777830004e-016 -6.5 0.70710678118654757 8.6595605623434599e-017 -0.70710678118654757 
1 3.5 4.2862637970160004e-016 8 -0 -0 -1 
1 -3.5 0 8 -0 -0 -1 
2 0 0 3 0 0 -1 1 0 0 0 -1 0 3.5
2 0 0 3 0 0 -1 1 0 0 0 -1 0 3.5
2 0 0 -6.5 -0 0 1 1 0 0 0 1 -0 2.6000000000000001
2 0 0 -6.5 0 0 -1 1 0 0 0 -1 0 3.3999999999999999
2 0 0 -6.5 0 0 -1 1 0 0 0 -1 0 3.3999999999999999
2 0 0 3 0 0 1 1 0 -0 -0 1 0 3.8999999999999999
2 0 0 3 0 0 1 1 0 -0 -0 1 0 3.8999999999999999
1 -3.5 4.2862637970160004e-016 -6.4000000000000004 -0.70710678118654757 8.6595605623434599e-017 0.70710678118654757 
1 3.5 0 -6.4000000000000004 0.70710678118654757 0 0.70710678118654757 
2 0 0 -6.4000000000000004 0 -0 1 1 0 0 -0 1 0 3.5
2 0 0 -6.4000000000000004 0 -0 1 1 0 0 -0 1 0 3.5
1 3.8999999999999999 4.7761225166749997e-016 3 0.70710678118654757 8.6595605623434599e-017 -0.70710678118654757 
1 -3.8999999999999999 0 3 -0.70710678118654757 0 -0.70710678118654757 
2 0 0 2.8999999999999999 0 0 -1 1 0 0 0 -1 0 4
2 0 0 2.8999999999999999 0 0 -1 1 0 0 0 -1 0 4
1 -3.5 4.2862637970160004e-016 -6.5 0 0 1 
1 3.5 0 -6.5 0 0 1 
2 0 0 -2 -0 0 1 1 0 0 0 1 -0 3.5
2 0 0 -2 -0 0 1 1 0 0 0 1 -0 3.5
1 4 4.8985871965890006e-016 3 -0 -0 -1 
1 -4 0 3 -0 -0 -1 
8 0 3.1415926535898282
2 0 -7.0055072853847378e-014 0 -0 0 1 -1 1.7513768213461844e-014 -0 -1.7513768213461844e-014 -1 0 4
8 0 3.141592653589719
2 0 -1.4832579608992091e-013 0 0 0 1 1 3.7203913702394951e-014 -0 -3.7203913702394951e-014 1 0 4
2 5.5 0 -2 -0 0 1 1 0 0 0 1 -0 1.1000000000000001
2 5.5 0 -2 -0 0 1 1 0 0 0 1 -0 1.1000000000000001
2 -5.5 0 -2 -0 0 1 1 0 0 0 1 -0 1.1000000000000001
2 -5.5 0 -2 -0 0 1 1 0 0 0 1 -0 1.1000000000000001
2 5.5 0 -2 0 0 -1 1 8.8817841970009999e-016 0 8.8817841970009999e-016 -1 0 2
2 5.5 0 -2 0 0 -1 1 0 0 0 -1 0 2
1 2.104032462358 -4.029476335839 -2 -0.88643170009614869 -0.4628594182520776 0 
2 0 -4 -2 0 0 -1 1 0 0 0 -1 0 1
1 -2.104032462358 -4.029476335839 -2 0.88643170009614869 -0.4628594182520776 0 
2 -5.5 0 -2 -0 0 1 1 0 0 0 1 -0 2
1 -2.104032462358 4.029476335839 -2 0.88643170009614869 0.4628594182520776 0 
2 0 4 -2 -0 0 1 1 0 0 0 1 -0 1
1 2.104032462358 4.029476335839 -2 -0.88643170009614869 0.4628594182520776 0 
2 -5.5 0 0 0 0 1 1 0 -0 -0 1 0 2
1 -2.1040324623586497 -4.0294763358386616 2.2204460492503131e-016 0.88643170009614869 -0.4628594182520776 0 
2 0 -4 0 0 0 1 1 0 -0 -0 1 0 1
1 2.1040324623586497 -4.0294763358386616 2.2204460492503131e-016 -0.88643170009614869 -0.4628594182520776 0 
2 5.5 0 0 0 0 1 1 0 -0 -0 1 0 2
1 2.1040324623586497 4.0294763358386616 2.2204460492503131e-016 -0.88643170009614869 0.4628594182520776 -0 
2 0 4 0 0 0 1 1 0 -0 -0 1 0 1
1 -2.1040324623586497 4.0294763358386616 2.2204460492503131e-016 0.88643170009614869 0.4628594182520776 0 
2 -5.5 0 0 0 0 -1 1 0 0 0 -1 0 1.1000000000000001
2 -5.5 0 0 0 0 -1 1 0 0 0 -1 0 1.1000000000000001
2 5.5 0 0 0 0 -1 1 0 0 0 -1 0 1.1000000000000001
2 5.5 0 0 0 0 -1 1 0 0 0 -1 0 1.1000000000000001
1 4.5 0 -1.8999999999999999 -0.70710678118654757 0 -0.70710678118654757 
1 6.5 1.2246467991469999e-016 -1.8999999999999999 0.70710678118654757 8.6595605623434599e-017 -0.70710678118654757 
2 5.5 0 -1.8999999999999999 0 0 -1 1 0 0 0 -1 0 1
2 5.5 0 -1.8999999999999999 0 0 -1 1 0 0 0 -1 0 1
1 -6.5999999999999996 0 -2 -0.70710678118654757 0 -0.70710678118654757 
1 -4.4000000000000004 1.347111479062e-016 -2 0.70710678118654757 8.6595605623434599e-017 -0.70710678118654757 
2 -5.5 0 -1.8999999999999999 0 0 -1 1 0 0 0 -1 0 1
2 -5.5 0 -1.8999999999999999 0 0 -1 1 0 0 0 -1 0 1
8 0 2
1 7.5 0 0 0 0 -1 
8 0 2.0000000000000595
1 6.4257188365040001 1.7728634001929999 -2 -2.1620349555106411e-007 1.1289216261811338e-007 0.99999999999997025 
8 0 2.0000000000000595
1 6.4257184039911905 -1.7728636260325812 5.5511151231257827e-017 2.1625640478361486e-007 1.1291979062910348e-007 -0.99999999999997025 
8 0 2
1 0.46285941936274505 -4.8864316995168648 7.4014868308343765e-017 -5.5537252574566764e-010 -2.8956748110431363e-010 -1 
8 0 2
1 -0.46285942079630643 -4.8864316987683161 7.4014868308343765e-017 1.272153216103078e-009 -6.6384187036305775e-010 -1 
8 0 2.0000000000001057
1 -6.4257182598660121 -1.7728637012889334 7.4014868308343765e-017 -2.8831899401281088e-007 1.5054796675960971e-007 -0.99999999999994715 
8 0 2.0000000000001057
1 -6.4257182600991394 1.7728637011672028 7.4014868308343765e-017 -2.8820243036518785e-007 -1.5048710144681992e-007 -0.99999999999994715 
8 0 2
1 -0.46285941184302376 4.886431703443364 7.4014868308343765e-017 -3.2044881193016295e-009 -1.6736820818152864e-009 -1 
8 0 2
1 0.46285941385185692 4.8864317023944315 7.4014868308343765e-017 2.200071541613724e-009 -1.1492158336068314e-009 -1 
1 -4.5 0 -0.10000000000000001 0.70710678118654757 0 0.70710678118654757 
2 -5.5 0 -0.10000000000000001 0 0 1 1 0 -0 -0 1 0 1
1 -6.5 1.2246467991469999e-016 -0.10000000000000001 -0.70710678118654757 8.6595605623434599e-017 0.70710678118654757 
2 -5.5 0 -0.10000000000000001 0 0 1 1 0 -0 -0 1 0 1
1 6.5999999999999996 0 0 0.70710678118654757 0 0.70710678118654757 
2 5.5 0 -0.10000000000000001 0 -0 1 1 0 0 -0 1 0 1
1 4.4000000000000004 1.347111479062e-016 0 -0.70710678118654757 8.6595605623434599e-017 0.70710678118654757 
2 5.5 0 -0.10000000000000001 0 -0 1 1 0 0 -0 1 0 1
1 6.5 0 -2 0 0 1 
1 4.5 1.2246467991469999e-016 -2 0 0 1 
1 -4.5 0 -2 0 0 1 
1 -6.5 1.2246467991469999e-016 -2 0 0 1 
Polygon3D 0
PolygonOnTriangulations 0
Surfaces 61
3 0 0 5.9249999999999998 -0 -0 1 1 0 0 -0 1 0 3.5
0.78539816339699997
1 0 -4.25 5.875 0 0 1 1 0 -0 -0 1 0 
3 0 0 5.9249999999999998 -0 -0 1 1 0 0 -0 1 0 3.5
0.78539816339699997
2 0 0 8 -0 -0 -1 -1 0 0 0 1 -0 3.5
2 0 0 -7.1571378764939997 -0 -0 -1 -1 0 0 0 1 -0 2.75
2 0 0 -7.1571378764939997 -0 -0 -1 -1 0 0 0 1 -0 2.75
2 0 0 8 -0 -0 -1 -1 0 0 0 1 -0 3.5
3 0 0 7 0 0 1 1 0 -0 -0 1 0 2.5
0.78539816339699997
1 0 -4.25 5.125 0 0 1 1 0 -0 -0 1 0 
3 0 0 7 0 0 1 1 0 -0 -0 1 0 2.5
0.78539816339699997
2 0 0 -2 0 0 1 1 0 -0 -0 1 0 2.5
3 0 0 5.125 0 0 -1 -1 0 0 0 1 0 3.4500000000000002
0.78539816339699997
3 0 0 5.125 0 0 -1 -1 0 0 0 1 0 3.4500000000000002
0.78539816339699997
2 0 0 -2 0 0 1 1 0 -0 -0 1 0 2.5
3 0 0 -6.5 -0 -0 -1 -1 0 0 0 1 -0 2.6000000000000001
0.78539816339699997
2 0 0 8 -0 -0 -1 -1 0 0 0 1 -0 3.5
2 0 0 8 -0 -0 -1 -1 0 0 0 1 -0 3.5
3 0 0 -6.5 -0 -0 -1 -1 0 0 0 1 -0 2.6000000000000001
0.78539816339699997
1 0 0 -6.5 -0 0 1 1 0 0 0 1 -0 
1 0 0 3 0 0 1 1 0 -0 -0 1 0 
3 0 0 -6.4000000000000004 -0 -0 1 1 0 0 -0 1 0 3.5
0.78539816339699997
3 0 0 -6.4000000000000004 -0 -0 1 1 0 0 -0 1 0 3.5
0.78539816339699997
3 0 0 3 0 0 -1 -1 0 0 0 1 0 3.8999999999999999
0.78539816339699997
3 0 0 3 0 0 -1 -1 0 0 0 1 0 3.8999999999999999
0.78539816339699997
2 0 0 -6.5 0 0 1 1 0 -0 -0 1 0 3.5
2 0 0 -6.5 0 0 1 1 0 -0 -0 1 0 3.5
2 0 0 3 -0 -0 -1 -1 0 0 0 1 -0 4
2 0 0 3 -0 -0 -1 -1 0 0 0 1 -0 4
1 0 0 -2 -0 0 1 1 0 0 0 1 -0 
3 5.5 0 -1.8999999999999999 0 0 -1 -1 0 0 0 1 0 1
0.78539816339699997
3 5.5 0 -1.8999999999999999 0 0 -1 -1 0 0 0 1 0 1
0.78539816339699997
3 -5.5 0 -2 -0 -0 -1 -1 0 0 0 1 -0 1.1000000000000001
0.78539816339699997
3 -5.5 0 -2 -0 -0 -1 -1 0 0 0 1 -0 1.1000000000000001
0.78539816339699997
2 5.5 0 -2 0 0 1 1 0 -0 -0 1 0 2
2 5.5 0 -2 0 0 1 1 0 -0 -0 1 0 2
2 5.5 0 -2 0 0 1 1 0 -0 -0 1 0 2
1 2.104032462358 -4.029476335839 -2 -0.4628594182520776 0.88643170009614869 0 -0.88643170009614869 -0.4628594182520776 0 0 0 1 
2 0 -4 -2 0 0 1 1 0 -0 -0 1 0 1
2 0 -4 -2 0 0 1 1 0 -0 -0 1 0 1
1 -2.104032462358 -4.029476335839 -2 -0.4628594182520776 -0.88643170009614869 0 0.88643170009614869 -0.4628594182520776 0 0 0 1 
2 -5.5 0 -2 0 0 1 1 0 -0 -0 1 0 2
2 -5.5 0 -2 0 0 1 1 0 -0 -0 1 0 2
1 -2.104032462358 4.029476335839 -2 0.4628594182520776 -0.88643170009614869 0 0.88643170009614869 0.4628594182520776 0 -0 0 1 
2 0 4 -2 0 0 1 1 0 -0 -0 1 0 1
2 0 4 -2 0 0 1 1 0 -0 -0 1 0 1
1 2.104032462358 4.029476335839 -2 0.4628594182520776 0.88643170009614869 -0 -0.88643170009614869 0.4628594182520776 0 0 0 1 
1 0 0 0 -0 0 1 1 0 0 0 1 -0 
1 -2.104032462358 -4.029476335839 -2 -0.4628594182520776 -0.88643170009614869 0 0.88643170009614869 -0.4628594182520776 0 0 0 1 
1 2.104032462358 -4.029476335839 -2 -0.4628594182520776 0.88643170009614869 0 -0.88643170009614869 -0.4628594182520776 0 0 0 1 
2 5.5 0 -2 0 0 1 1 0 -0 -0 1 0 2
1 2.104032462358 4.029476335839 -2 0.4628594182520776 0.88643170009614869 -0 -0.88643170009614869 0.4628594182520776 0 0 0 1 
1 -2.104032462358 4.029476335839 -2 0.4628594182520776 -0.88643170009614869 0 0.88643170009614869 0.4628594182520776 0 -0 0 1 
3 -5.5 0 -0.10000000000000001 0 0 1 1 0 -0 -0 1 0 1
0.78539816339699997
1 0 0 0 -0 0 1 1 0 0 0 1 -0 
3 -5.5 0 -0.10000000000000001 0 0 1 1 0 -0 -0 1 0 1
0.78539816339699997
3 5.5 0 0 -0 -0 1 1 0 0 -0 1 0 1.1000000000000001
0.78539816339699997
3 5.5 0 0 -0 -0 1 1 0 0 -0 1 0 1.1000000000000001
0.78539816339699997
2 5.5 0 -2 0 0 1 1 0 -0 -0 1 0 1
2 5.5 0 -2 0 0 1 1 0 -0 -0 1 0 1
2 -5.5 0 -2 0 0 1 1 0 -0 -0 1 0 1
2 -5.5 0 -2 0 0 1 1 0 -0 -0 1 0 1
Triangulations 0

TShapes 296
Ve
1e-007
-3.45 4.255647627037e-016 5.875
0 0

0101101
*
Ve
1e-007
3.45 0 5.875
0 0

0101101
*
Ed
 1e-007 1 1 0
1  1 0 3.14159265358979 6.28318530717959
2  1 1 0 3.14159265358979 6.28318530717959
4 C0 1 0 2 0
0

0101000
+296 0 -295 0 *
Ve
1e-007
-3.5 0 5.925
0 0

0101101
*
Ed
 1e-007 1 1 0
1  2 0 -0.0707106781186545 -3.71171609364403e-032
2  2 1 0 -0.0707106781186545 -3.71171609364403e-032
2  3 3 0 -0.0707106781186545 -3.71171609364403e-032
4 CN 1 0 3 0
0

0101000
+296 0 -293 0 *
Ve
1e-007
3.5 4.286263797016e-016 5.925
0 0

0101101
*
Ed
 1e-007 1 1 0
1  3 0 0 3.14159265358979
2  4 1 0 0 3.14159265358979
2  5 4 0 0 3.14159265358979
4 C0 1 0 4 0
0

0101000
+291 0 -293 0 *
Ed
 1e-007 1 1 0
1  4 0 -0.0707106781186545 0
2  6 1 0 -0.0707106781186545 0
2  7 3 0 -0.0707106781186545 0
4 CN 1 0 3 0
0

0101000
+295 0 -291 0 *
Wi

0101100
-294 0 +292 0 -290 0 -289 0 *
Fa
0  1e-007 1 0

0111000
+288 0 *
Ed
 1e-007 1 1 0
1  5 0 0 3.14159265358979
2  8 3 0 0 3.14159265358979
4 C0 2 0 3 0
0

0101000
+295 0 -296 0 *
Wi

0101100
+286 0 +294 0 *
Ve
1e-007
-2.75 0 5.875
0 0

0101101
*
Ve
1e-007
2.75 3.367778697655e-016 5.875
0 0

0101101
*
Ed
 1e-007 1 1 0
1  6 0 0 3.14159265358979
2  9 5 0 0 3.14159265358979
4 C0 5 0 2 0
0

0101000
+284 0 -283 0 *
Ed
 1e-007 1 1 0
1  7 0 3.14159265358979 6.28318530717959
2  10 6 0 3.14159265358979 6.28318530717959
4 C0 2 0 6 0
0

0101000
+283 0 -284 0 *
Wi

0101100
-282 0 -281 0 *
Fa
0  1e-007 2 0

0111000
-285 0 -280 0 *
Ed
 1e-007 1 1 0
1  8 0 3.14159265358979 6.28318530717959
2  11 7 0 3.14159265358979 6.28318530717959
2  12 3 0 3.14159265358979 6.28318530717959
4 C0 7 0 3 0
0

0101000
+293 0 -291 0 *
Wi

0101100
-292 0 -286 0 +289 0 -278 0 *
Fa
0  1e-007 3 0

0111000
+277 0 *
Ve
1e-007
3.5 4.286263797016e-016 8
0 0

0101101
*
Ve
1e-007
-3.5 0 8
0 0

0101101
*
Ed
 1e-007 1 1 0
1  9 0 0 3.14159265358979
2  13 4 0 0 3.14159265358979
2  14 8 0 0 3.14159265358979
4 C0 4 0 8 0
0

0101000
+275 0 -274 0 *
Ed
 1e-007 1 1 0
1  10 0 -0 2.075
2  15 4 0 -0 2.075
2  16 7 0 -0 2.075
4 CN 4 0 7 0
0

0101000
+275 0 -291 0 *
Ed
 1e-007 1 1 0
1  11 0 -0 2.075
2  17 4 0 -0 2.075
2  18 7 0 -0 2.075
4 CN 4 0 7 0
0

0101000
+274 0 -293 0 *
Wi

0101100
-273 0 +272 0 +290 0 -271 0 *
Fa
0  1e-007 4 0

0111000
+270 0 *
Ve
1e-007
2.75 3.367778697655e-016 5.125
0 0

0101101
*
Ed
 1e-007 1 1 0
1  12 0 -13.032137876494 -12.282137876494
2  19 5 0 -13.032137876494 -12.282137876494
2  20 6 0 -13.032137876494 -12.282137876494
4 CN 5 0 6 0
0

0101000
+283 0 -268 0 *
Ve
1e-007
-2.75 0 5.125
0 0

0101101
*
Ed
 1e-007 1 1 0
1  13 0 0 3.14159265358979
2  21 5 0 0 3.14159265358979
4 C0 5 0 9 0
0

0101000
+266 0 -268 0 *
Ed
 1e-007 1 1 0
1  14 0 -13.032137876494 -12.282137876494
2  22 5 0 -13.032137876494 -12.282137876494
2  23 6 0 -13.032137876494 -12.282137876494
4 CN 5 0 6 0
0

0101000
+284 0 -266 0 *
Wi

0101100
+282 0 +267 0 -265 0 -264 0 *
Fa
0  1e-007 5 0

0111000
+263 0 *
Ed
 1e-007 1 1 0
1  15 0 3.14159265358979 6.28318530717959
2  24 6 0 3.14159265358979 6.28318530717959
4 C0 9 0 6 0
0

0101000
+268 0 -266 0 *
Wi

0101100
-267 0 +281 0 +264 0 -261 0 *
Fa
0  1e-007 6 0

0111000
+260 0 *
Ed
 1e-007 1 1 0
1  16 0 3.14159265358979 6.28318530717959
2  25 10 0 3.14159265358979 6.28318530717959
2  26 7 0 3.14159265358979 6.28318530717959
4 C0 10 0 7 0
0

0101000
+274 0 -275 0 *
Wi

0101100
-272 0 -258 0 +271 0 +278 0 *
Fa
0  1e-007 7 0

0111000
+257 0 *
Ve
1e-007
2.5 0 7
0 0

0101101
*
Ed
 1e-007 1 1 0
1  17 0 0 1.4142135623731
2  27 10 0 0 1.4142135623731
2  28 8 0 0 1.4142135623731
4 CN 10 0 8 0
0

0101000
+255 0 -275 0 *
Ve
1e-007
-2.5 3.061616997868e-016 7
0 0

0101101
*
Ed
 1e-007 1 1 0
1  18 0 0 3.14159265358979
2  29 11 0 0 3.14159265358979
2  30 8 0 0 3.14159265358979
4 C0 11 0 8 0
0

0101000
+255 0 -253 0 *
Ed
 1e-007 1 1 0
1  19 0 0 1.4142135623731
2  31 10 0 0 1.4142135623731
2  32 8 0 0 1.4142135623731
4 CN 10 0 8 0
0

0101000
+253 0 -274 0 *
Wi

0101100
-273 0 -254 0 +252 0 +251 0 *
Fa
0  1e-007 8 0

0111000
+250 0 *
Ve
1e-007
-3.45 0 5.125
0 0

0101101
*
Ve
1e-007
3.45 4.255647627037e-016 5.125
0 0

0101101
*
Ed
 1e-007 1 1 0
1  20 0 3.14159265358979 6.28318530717959
2  33 12 0 3.14159265358979 6.28318530717959
4 C0 9 0 12 0
0

0101000
+248 0 -247 0 *
Ed
 1e-007 1 1 0
1  21 0 0 3.14159265358979
2  34 13 0 0 3.14159265358979
4 C0 13 0 9 0
0

0101000
+247 0 -248 0 *
Wi

0101100
+246 0 +245 0 *
Wi

0101100
+265 0 +261 0 *
Fa
0  1e-007 9 0

0111000
+244 0 +243 0 *
Ed
 1e-007 1 1 0
1  22 0 3.14159265358979 6.28318530717959
2  35 10 0 3.14159265358979 6.28318530717959
2  36 14 0 3.14159265358979 6.28318530717959
4 C0 10 0 14 0
0

0101000
+253 0 -255 0 *
Wi

0101100
+254 0 -258 0 -251 0 +241 0 *
Fa
0  1e-007 10 0

0111000
+240 0 *
Ve
1e-007
2.5 0 -6.4
0 0

0101101
*
Ed
 1e-007 1 1 0
1  23 0 -4.4 9
2  37 14 0 -4.4 9
2  38 11 0 -4.4 9
4 CN 14 0 11 0
0

0101000
+238 0 -255 0 *
Ve
1e-007
-2.5 3.061616997868e-016 -6.4
0 0

0101101
*
Ed
 1e-007 1 1 0
1  24 0 3.14159265358979 6.28318530717959
2  39 11 0 3.14159265358979 6.28318530717959
2  40 15 0 3.14159265358979 6.28318530717959
4 C0 11 0 15 0
0

0101000
+236 0 -238 0 *
Ed
 1e-007 1 1 0
1  25 0 -4.4 9
2  41 14 0 -4.4 9
2  42 11 0 -4.4 9
4 CN 14 0 11 0
0

0101000
+236 0 -253 0 *
Wi

0101100
-252 0 -237 0 -235 0 +234 0 *
Fa
0  1e-007 11 0

0111000
+233 0 *
Ve
1e-007
3.5 4.286263797016e-016 5.075
0 0

0101101
*
Ed
 1e-007 1 1 0
1  26 0 2.65122578120152e-034 0.0707106781186545
2  43 13 0 2.65122578120152e-034 0.0707106781186545
2  44 12 0 2.65122578120152e-034 0.0707106781186545
4 CN 13 0 12 0
0

0101000
+247 0 -231 0 *
Ve
1e-007
-3.5 0 5.075
0 0

0101101
*
Ed
 1e-007 1 1 0
1  27 0 0 0.0707106781186545
2  45 13 0 0 0.0707106781186545
2  46 12 0 0 0.0707106781186545
4 CN 13 0 12 0
0

0101000
+248 0 -229 0 *
Ed
 1e-007 1 1 0
1  28 0 0 3.14159265358979
2  47 16 0 0 3.14159265358979
2  48 12 0 0 3.14159265358979
4 C0 16 0 12 0
0

0101000
+231 0 -229 0 *
Wi

0101100
-230 0 -246 0 +228 0 -227 0 *
Fa
0  1e-007 12 0

0111000
+226 0 *
Ed
 1e-007 1 1 0
1  29 0 3.14159265358979 6.28318530717959
2  49 13 0 3.14159265358979 6.28318530717959
2  50 17 0 3.14159265358979 6.28318530717959
4 C0 13 0 17 0
0

0101000
+229 0 -231 0 *
Wi

0101100
-245 0 +230 0 -224 0 -228 0 *
Fa
0  1e-007 13 0

0111000
+223 0 *
Ed
 1e-007 1 1 0
1  30 0 0 3.14159265358979
2  51 18 0 0 3.14159265358979
2  52 14 0 0 3.14159265358979
4 C0 18 0 14 0
0

0101000
+238 0 -236 0 *
Wi

0101100
+237 0 -241 0 -234 0 -221 0 *
Fa
0  1e-007 14 0

0111000
+220 0 *
Ve
1e-007
2.6 3.184081677783e-016 -6.5
0 0

0101101
*
Ve
1e-007
-2.6 0 -6.5
0 0

0101101
*
Ed
 1e-007 1 1 0
1  31 0 0 3.14159265358979
2  53 15 0 0 3.14159265358979
4 C0 19 0 15 0
0

0101000
+218 0 -217 0 *
Ed
 1e-007 1 1 0
1  32 0 -0.141421356237309 0
2  54 18 0 -0.141421356237309 0
2  55 15 0 -0.141421356237309 0
4 CN 18 0 15 0
0

0101000
+236 0 -217 0 *
Ed
 1e-007 1 1 0
1  33 0 -0.141421356237309 0
2  56 18 0 -0.141421356237309 0
2  57 15 0 -0.141421356237309 0
4 CN 18 0 15 0
0

0101000
+238 0 -218 0 *
Wi

0101100
+216 0 -215 0 +235 0 +214 0 *
Fa
0  1e-007 15 0

0111000
+213 0 *
Ve
1e-007
3.5 4.286263797016e-016 3
0 0

0101101
*
Ed
 1e-007 1 1 0
1  34 0 2.925 5
2  58 17 0 2.925 5
2  59 16 0 2.925 5
4 CN 17 0 16 0
0

0101000
+231 0 -211 0 *
Ve
1e-007
-3.5 0 3
0 0

0101101
*
Ed
 1e-007 1 1 0
1  35 0 2.925 5
2  60 17 0 2.925 5
2  61 16 0 2.925 5
4 CN 17 0 16 0
0

0101000
+229 0 -209 0 *
Ed
 1e-007 1 1 0
1  36 0 0 3.14159265358979
2  62 16 0 0 3.14159265358979
4 C0 16 0 20 0
0

0101000
+211 0 -209 0 *
Wi

0101100
-210 0 +227 0 +208 0 -207 0 *
Fa
0  1e-007 16 0

0111000
+206 0 *
Ed
 1e-007 1 1 0
1  37 0 3.14159265358979 6.28318530717959
2  63 17 0 3.14159265358979 6.28318530717959
4 C0 17 0 20 0
0

0101000
+209 0 -211 0 *
Wi

0101100
+224 0 +210 0 -204 0 -208 0 *
Fa
0  1e-007 17 0

0111000
+203 0 *
Ed
 1e-007 1 1 0
1  38 0 3.14159265358979 6.28318530717959
2  64 18 0 3.14159265358979 6.28318530717959
4 C0 18 0 19 0
0

0101000
+217 0 -218 0 *
Wi

0101100
+215 0 +201 0 -214 0 +221 0 *
Fa
0  1e-007 18 0

0111000
+200 0 *
Ve
1e-007
3.4 0 -6.5
0 0

0101101
*
Ve
1e-007
-3.4 4.225031457058e-016 -6.5
0 0

0101101
*
Ed
 1e-007 1 1 0
1  39 0 0 3.14159265358979
2  65 21 0 0 3.14159265358979
4 C0 19 0 21 0
0

0101000
+198 0 -197 0 *
Ed
 1e-007 1 1 0
1  40 0 3.14159265358979 6.28318530717959
2  66 22 0 3.14159265358979 6.28318530717959
4 C0 22 0 19 0
0

0101000
+197 0 -198 0 *
Wi

0101100
+196 0 +195 0 *
Wi

0101100
+201 0 +216 0 *
Fa
0  1e-007 19 0

0111000
-194 0 -193 0 *
Ve
1e-007
-3.9 0 3
0 0

0101101
*
Ve
1e-007
3.9 4.837354856632e-016 3
0 0

0101101
*
Ed
 1e-007 1 1 0
1  41 0 3.14159265358979 6.28318530717959
2  67 23 0 3.14159265358979 6.28318530717959
4 C0 20 0 23 0
0

0101000
+191 0 -190 0 *
Ed
 1e-007 1 1 0
1  42 0 0 3.14159265358979
2  68 24 0 0 3.14159265358979
4 C0 24 0 20 0
0

0101000
+190 0 -191 0 *
Wi

0101100
+189 0 +188 0 *
Wi

0101100
+204 0 +207 0 *
Fa
0  1e-007 20 0

0111000
+187 0 +186 0 *
Ve
1e-007
-3.5 4.286263797016e-016 -6.4
0 0

0101101
*
Ed
 1e-007 1 1 0
1  43 0 -0.141421356237309 0
2  69 22 0 -0.141421356237309 0
2  70 21 0 -0.141421356237309 0
4 CN 22 0 21 0
0

0101000
+197 0 -184 0 *
Ve
1e-007
3.5 0 -6.4
0 0

0101101
*
Ed
 1e-007 1 1 0
1  44 0 -0.141421356237309 0
2  71 22 0 -0.141421356237309 0
2  72 21 0 -0.141421356237309 0
4 CN 22 0 21 0
0

0101000
+198 0 -182 0 *
Ed
 1e-007 1 1 0
1  45 0 3.14159265358979 6.28318530717959
2  73 25 0 3.14159265358979 6.28318530717959
2  74 21 0 3.14159265358979 6.28318530717959
4 C0 25 0 21 0
0

0101000
+184 0 -182 0 *
Wi

0101100
-183 0 -196 0 +181 0 -180 0 *
Fa
0  1e-007 21 0

0111000
+179 0 *
Ed
 1e-007 1 1 0
1  46 0 0 3.14159265358979
2  75 22 0 0 3.14159265358979
2  76 26 0 0 3.14159265358979
4 C0 22 0 26 0
0

0101000
+182 0 -184 0 *
Wi

0101100
-195 0 +183 0 -177 0 -181 0 *
Fa
0  1e-007 22 0

0111000
+176 0 *
Ve
1e-007
4 4.898587196589e-016 2.9
0 0

0101101
*
Ed
 1e-007 1 1 0
1  47 0 5.30245156231653e-034 0.14142135623731
2  77 24 0 5.30245156231653e-034 0.14142135623731
2  78 23 0 5.30245156231653e-034 0.14142135623731
4 CN 24 0 23 0
0

0101000
+190 0 -174 0 *
Ve
1e-007
-4 0 2.9
0 0

0101101
*
Ed
 1e-007 1 1 0
1  48 0 0 0.14142135623731
2  79 24 0 0 0.14142135623731
2  80 23 0 0 0.14142135623731
4 CN 24 0 23 0
0

0101000
+191 0 -172 0 *
Ed
 1e-007 1 1 0
1  49 0 0 3.14159265358979
2  81 23 0 0 3.14159265358979
4 C0 27 0 23 0
2  82 27 0 0 3.14159265358979
0

0101000
+174 0 -172 0 *
Wi

0101100
-173 0 -189 0 +171 0 -170 0 *
Fa
0  1e-007 23 0

0111000
+169 0 *
Ed
 1e-007 1 1 0
1  50 0 3.14159265358979 6.28318530717959
2  83 24 0 3.14159265358979 6.28318530717959
2  84 28 0 3.14159265358979 6.28318530717959
4 C0 24 0 28 0
0

0101000
+172 0 -174 0 *
Wi

0101100
-188 0 +173 0 -167 0 -171 0 *
Fa
0  1e-007 24 0

0111000
+166 0 *
Ve
1e-007
-3.5 4.286263797016e-016 -2
0 0

0101101
*
Ed
 1e-007 1 1 0
1  51 0 0.0999999999999996 4.5
2  85 26 0 0.0999999999999996 4.5
2  86 25 0 0.0999999999999996 4.5
4 CN 26 0 25 0
0

0101000
+184 0 -164 0 *
Ve
1e-007
3.5 0 -2
0 0

0101101
*
Ed
 1e-007 1 1 0
1  52 0 0.0999999999999996 4.5
2  87 26 0 0.0999999999999996 4.5
2  88 25 0 0.0999999999999996 4.5
4 CN 26 0 25 0
0

0101000
+182 0 -162 0 *
Ed
 1e-007 1 1 0
1  53 0 3.14159265358979 6.28318530717959
2  89 25 0 3.14159265358979 6.28318530717959
4 C0 29 0 25 0
0

0101000
+164 0 -162 0 *
Wi

0101100
-163 0 +180 0 +161 0 -160 0 *
Fa
0  1e-007 25 0

0111000
+159 0 *
Ed
 1e-007 1 1 0
1  54 0 0 3.14159265358979
2  90 26 0 0 3.14159265358979
4 C0 26 0 29 0
0

0101000
+162 0 -164 0 *
Wi

0101100
+177 0 +163 0 -157 0 -161 0 *
Fa
0  1e-007 26 0

0111000
+156 0 *
Ve
1.00000000222045e-007
4 4.898587196589e-016 0
0 0

0101101
*
Ed
 1e-007 1 1 0
1  55 0 0.1 3
2  91 28 0 0.1 3
4 CN 28 0 27 0
2  92 27 0 0.1 3
0

0101000
+174 0 -154 0 *
Ve
1e-007
-4 0 0
0 0

0101101
*
Ed
 1e-007 1 1 0
1  56 0 0.1 3
2  93 28 0 0.1 3
4 CN 28 0 27 0
2  94 27 0 0.1 3
0

0101000
+172 0 -152 0 *
Ed
 1e-007 1 1 0
1  57 0 0 3.14159265358983
2  95 27 0 0 3.14159265358983
0

0101000
+152 0 -154 0 *
Wi

0101100
-153 0 +170 0 +151 0 +150 0 *
Fa
0  1e-007 27 0

0111000
+149 0 *
Ed
 1e-007 1 1 0
1  58 0 0 3.14159265358972
2  96 28 0 0 3.14159265358972
0

0101000
+154 0 -152 0 *
Wi

0101100
+167 0 +153 0 +147 0 -151 0 *
Fa
0  1e-007 28 0

0111000
+146 0 *
Ve
1e-007
4.4 0 -2
0 0

0101101
*
Ve
1e-007
6.6 1.347111479062e-016 -2
0 0

0101101
*
Ed
 1e-007 1 1 0
1  59 0 3.14159265358979 6.28318530717959
2  97 30 0 3.14159265358979 6.28318530717959
4 C0 30 0 29 0
0

0101000
+144 0 -143 0 *
Ed
 1e-007 1 1 0
1  60 0 0 3.14159265358979
2  98 31 0 0 3.14159265358979
4 C0 29 0 31 0
0

0101000
+143 0 -144 0 *
Wi

0101100
+142 0 +141 0 *
Ve
1e-007
-6.6 0 -2
0 0

0101101
*
Ve
1e-007
-4.4 1.347111479062e-016 -2
0 0

0101101
*
Ed
 1e-007 1 1 0
1  61 0 3.14159265358979 6.28318530717959
2  99 32 0 3.14159265358979 6.28318530717959
4 C0 32 0 29 0
0

0101000
+139 0 -138 0 *
Ed
 1e-007 1 1 0
1  62 0 0 3.14159265358979
2  100 33 0 0 3.14159265358979
4 C0 29 0 33 0
0

0101000
+138 0 -139 0 *
Wi

0101100
+137 0 +136 0 *
Wi

0101100
+157 0 +160 0 *
Ve
1.50001571727283e-007
6.425718836504 1.772863400193 -2
0 0

0101101
*
Ve
1.00000001269427e-007
7.5 0 -2
0 0

0101101
*
Ed
 1.00000000222045e-007 1 1 0
1  63 0 5.19360723499173 6.28318530717959
2  101 34 0 5.19360723499173 6.28318530717959
4 C0 34 0 29 0
2  102 35 0 5.19360723499173 6.28318530717959
0

0101000
+133 0 -132 0 *
Ve
1.50001571727283e-007
6.425718836504 -1.772863400193 -2
0 0

0101101
*
Ed
 1.00000001269427e-007 1 1 0
1  64 0 0 1.08957807218785
2  103 36 0 0 1.08957807218785
4 C0 36 0 29 0
2  104 35 0 0 1.08957807218785
0

0101000
+132 0 -130 0 *
Ve
1.00001048903121e-007
0.462859418252 -4.886431700096 -2
0 0

0101101
*
Ed
 1.00000001700163e-007 1 1 0
1  65 0 -4.87537435052982 1.85143767300684
4 C0 37 0 29 0
0

0101000
+130 0 -128 0 *
Ve
1.00001048903121e-007
-0.462859418252 -4.886431700096 -2
0 0

0101101
*
Ed
 1.00000001159547e-007 1 1 0
1  66 0 1.08957807218762 2.05201458140217
2  105 38 0 1.08957807218762 2.05201458140217
4 C0 38 0 29 0
2  106 39 0 1.08957807218762 2.05201458140217
0

0101000
+128 0 -126 0 *
Ve
1.00001571727283e-007
-6.425718836504 -1.772863400193 -2
0 0

0101101
*
Ed
 1.00000001700163e-007 1 1 0
1  67 0 -4.87537435052982 1.85143767300684
4 C0 40 0 29 0
0

0101000
+124 0 -126 0 *
Ve
1.00001571727283e-007
-6.425718836504 1.772863400193 -2
0 0

0101101
*
Ed
 1.00000002220446e-007 1 1 0
1  68 0 2.05201458140194 4.23117072577764
2  107 41 0 2.05201458140194 4.23117072577764
4 C0 41 0 29 0
2  108 42 0 2.05201458140194 4.23117072577764
0

0101000
+122 0 -124 0 *
Ve
1.00001048903121e-007
-0.462859418252 4.886431700096 -2
0 0

0101101
*
Ed
 1.00000001700163e-007 1 1 0
1  69 0 -4.87537435052982 1.85143767300684
4 C0 43 0 29 0
0

0101000
+122 0 -120 0 *
Ve
1.00001048903121e-007
0.462859418252 4.886431700096 -2
0 0

0101101
*
Ed
 1.00000000333067e-007 1 1 0
1  70 0 1.08957807218762 2.05201458140217
2  109 44 0 1.08957807218762 2.05201458140217
4 C0 44 0 29 0
2  110 45 0 1.08957807218762 2.05201458140217
0

0101000
+118 0 -120 0 *
Ed
 1.00000001700163e-007 1 1 0
1  71 0 -4.87537435052982 1.85143767300684
4 C0 46 0 29 0
0

0101000
+133 0 -118 0 *
Wi

0101100
+131 0 +129 0 +127 0 +125 0 -123 0 -121 0 +119 0 -117 0 -116 0 *
Fa
0  1e-007 29 0

0111000
-140 0 -135 0 -134 0 -115 0 *
Wi

0101100
-147 0 -150 0 *
Ve
1.30037698465752e-006
-6.42571826009914 1.7728637011672 7.40148683083438e-017
0 0

0101101
*
Ve
1.30011398817623e-006
-6.42571825986601 -1.77286370128893 7.40148683083438e-017
0 0

0101101
*
Ed
 1e-007 1 1 0
1  72 0 2.0520142562758 4.23117105103529
2  111 47 0 2.0520142562758 4.23117105103529
2  112 42 0 2.0520142562758 4.23117105103529
0

0101000
+112 0 -111 0 *
Ve
1.50000293246956e-007
-0.462859420796306 -4.88643169876832 7.40148683083438e-017
0 0

0101101
*
Ed
 1.5e-007 1 1 0
1  73 0 -4.87537370001381 1.85143767013769
2  113 47 0 -4.87537370001381 1.85143767013769
2  114 48 0 -4.87537370001381 1.85143767013769
0

0101000
+111 0 -109 0 *
Ve
1.50000293298147e-007
0.462859419362745 -4.88643169951686 7.40148683083438e-017
0 0

0101101
*
Ed
 1e-007 1 1 0
1  74 0 4.23117072290753 5.19360723624462
2  115 47 0 4.23117072290753 5.19360723624462
2  116 39 0 4.23117072290753 5.19360723624462
0

0101000
+109 0 -107 0 *
Ve
1.46270422756396e-006
6.42571840399119 -1.77286362603258 5.55111512312578e-017
0 0

0101101
*
Ed
 1.5e-007 1 1 0
1  75 0 -4.87537386260405 1.85143767175492
2  117 47 0 -4.87537386260405 1.85143767175492
2  118 49 0 -4.87537386260405 1.85143767175492
0

0101000
+105 0 -107 0 *
Ve
2.00001e-007
7.5 0 0
0 0

0101101
*
Ed
 1.50000001601186e-007 1 1 0
1  76 0 5.19360699102921 6.28318530717959
2  119 47 0 5.19360699102921 6.28318530717959
2  120 50 0 5.19360699102921 6.28318530717959
2  121 35 0 5.19360699102921 6.28318530717959
0

0101000
+105 0 -103 0 *
Ve
1.46282360328599e-006
6.42571840409701 1.77286362597733 5.55111512312578e-017
0 0

0101101
*
Ed
 1.50000000222045e-007 1 1 0
1  76 0 0 1.08957831609069
2  119 47 0 0 1.08957831609069
2  120 50 0 0 1.08957831609069
2  122 35 0 0 1.08957831609069
0

0101000
+103 0 -101 0 *
Ve
1.50000293374996e-007
0.462859413851857 4.88643170239443 7.40148683083438e-017
0 0

0101101
*
Ed
 1.5e-007 1 1 0
1  77 0 -4.87537386272342 1.85143767797186
2  123 47 0 -4.87537386272342 1.85143767797186
2  124 51 0 -4.87537386272342 1.85143767797186
0

0101000
+101 0 -99 0 *
Ve
1.50000294188698e-007
-0.462859411843024 4.88643170344336 7.40148683083438e-017
0 0

0101101
*
Ed
 1e-007 1 1 0
1  78 0 1.0895780771519 2.05201457417169
2  125 47 0 1.0895780771519 2.05201457417169
2  126 45 0 1.0895780771519 2.05201457417169
0

0101000
+99 0 -97 0 *
Ed
 1.5e-007 1 1 0
1  79 0 -4.8753737002768 1.85143768023806
2  127 47 0 -4.8753737002768 1.85143768023806
2  128 52 0 -4.8753737002768 1.85143768023806
0

0101000
+112 0 -97 0 *
Wi

0101100
+110 0 +108 0 +106 0 -104 0 +102 0 +100 0 +98 0 +96 0 -95 0 *
Ve
1.00000001387779e-007
-6.6 1.347111479062e-016 -1.355252715607e-017
0 0

0101101
*
Ve
1.000000004996e-007
-4.4 0 -1.355252715607e-017
0 0

0101101
*
Ed
 1.000000004996e-007 1 1 0
1  80 0 3.14159265358979 6.28318530717959
2  129 53 0 3.14159265358979 6.28318530717959
4 C0 54 0 53 0
0

0101000
+93 0 -92 0 *
Ed
 1.00000000111022e-007 1 1 0
1  81 0 0 3.14159265358979
2  130 55 0 0 3.14159265358979
4 C0 55 0 54 0
0

0101000
+92 0 -93 0 *
Wi

0101100
+91 0 +90 0 *
Ve
1.00000001387779e-007
6.6 0 0
0 0

0101101
*
Ve
1.000000004996e-007
4.4 1.347111479062e-016 0
0 0

0101101
*
Ed
 1.00000000111022e-007 1 1 0
1  82 0 0 3.14159265358979
2  131 56 0 0 3.14159265358979
4 C0 56 0 54 0
0

0101000
+88 0 -87 0 *
Ed
 1.000000004996e-007 1 1 0
1  83 0 3.14159265358979 6.28318530717959
2  132 57 0 3.14159265358979 6.28318530717959
4 C0 54 0 57 0
0

0101000
+87 0 -88 0 *
Wi

0101100
+86 0 +85 0 *
Fa
0  0 47 0

0111000
+113 0 +94 0 +89 0 +84 0 *
Ve
1e-007
4.5 1.224646799147e-016 -1.9
0 0

0101101
*
Ed
 1e-007 1 1 0
1  84 0 0 0.141421356237309
2  133 30 0 0 0.141421356237309
2  134 31 0 0 0.141421356237309
4 CN 30 0 31 0
0

0101000
+82 0 -144 0 *
Ve
1e-007
6.5 0 -1.9
0 0

0101101
*
Ed
 1e-007 1 1 0
1  85 0 -1.06049031246935e-032 0.141421356237309
2  135 30 0 -1.06049031246935e-032 0.141421356237309
2  136 31 0 -1.06049031246935e-032 0.141421356237309
4 CN 30 0 31 0
0

0101000
+80 0 -143 0 *
Ed
 1e-007 1 1 0
1  86 0 0 3.14159265358979
2  137 30 0 0 3.14159265358979
2  138 58 0 0 3.14159265358979
4 C0 30 0 58 0
0

0101000
+80 0 -82 0 *
Wi

0101100
+81 0 +142 0 -79 0 +78 0 *
Fa
0  1e-007 30 0

0111000
+77 0 *
Ed
 1e-007 1 1 0
1  87 0 3.14159265358979 6.28318530717959
2  139 59 0 3.14159265358979 6.28318530717959
2  140 31 0 3.14159265358979 6.28318530717959
4 C0 59 0 31 0
0

0101000
+82 0 -80 0 *
Wi

0101100
+141 0 -81 0 +75 0 +79 0 *
Fa
0  1e-007 31 0

0111000
+74 0 *
Ve
1e-007
-6.5 1.224646799147e-016 -1.9
0 0

0101101
*
Ed
 1e-007 1 1 0
1  88 0 -0.141421356237309 0
2  141 32 0 -0.141421356237309 0
2  142 33 0 -0.141421356237309 0
4 CN 32 0 33 0
0

0101000
+72 0 -139 0 *
Ve
1e-007
-4.5 0 -1.9
0 0

0101101
*
Ed
 1e-007 1 1 0
1  89 0 -0.141421356237309 0
2  143 32 0 -0.141421356237309 0
2  144 33 0 -0.141421356237309 0
4 CN 32 0 33 0
0

0101000
+70 0 -138 0 *
Ed
 1e-007 1 1 0
1  90 0 0 3.14159265358979
2  145 32 0 0 3.14159265358979
2  146 60 0 0 3.14159265358979
4 C0 32 0 60 0
0

0101000
+70 0 -72 0 *
Wi

0101100
+71 0 +137 0 -69 0 +68 0 *
Fa
0  1e-007 32 0

0111000
+67 0 *
Ed
 1e-007 1 1 0
1  91 0 3.14159265358979 6.28318530717959
2  147 61 0 3.14159265358979 6.28318530717959
2  148 33 0 3.14159265358979 6.28318530717959
4 C0 61 0 33 0
0

0101000
+72 0 -70 0 *
Wi

0101100
+136 0 -71 0 +65 0 +69 0 *
Fa
0  1e-007 33 0

0111000
+64 0 *
Ed
 1e-007 1 1 0
1  92 0 0 2
2  149 35 0 0 2
0

0101000
+103 0 -132 0 *
Ed
 1e-007 1 1 0
1  93 0 0 2.00000000000006
2  150 35 0 0 2.00000000000006
0

0101000
+133 0 -101 0 *
Wi

0101100
-100 4 +62 4 -131 4 +61 4 *
Fa
0  1e-007 35 0

0111000
+60 5 *
Ed
 1e-007 1 1 0
1  94 0 0 2.00000000000006
2  151 35 0 0 2.00000000000006
0

0101000
+105 0 -130 0 *
Wi

0101100
+58 4 -129 4 -62 4 -102 4 *
Fa
0  1e-007 35 0

0111000
+57 5 *
Ed
 1e-007 1 1 0
1  95 0 0 2
2  152 39 0 0 2
0

0101000
+107 0 -128 0 *
Wi

0101100
+58 0 +127 0 -55 0 -104 0 *
Fa
0  1e-007 49 0

0111000
+54 0 *
Ed
 1e-007 1 1 0
1  96 0 0 2
2  153 39 0 0 2
0

0101000
+109 0 -126 0 *
Wi

0101100
+52 0 -125 0 -55 0 -106 0 *
Fa
0  1e-007 39 0

0111000
+51 0 *
Ed
 1e-007 1 1 0
1  97 0 0 2.00000000000011
2  154 42 0 0 2.00000000000011
0

0101000
+111 0 -124 0 *
Wi

0101100
+49 0 +123 0 -52 0 -108 0 *
Fa
0  1e-007 48 0

0111000
+48 0 *
Ed
 1e-007 1 1 0
1  98 0 0 2.00000000000011
2  155 42 0 0 2.00000000000011
0

0101000
+112 0 -122 0 *
Wi

0101100
+46 0 +121 0 -49 0 -110 0 *
Fa
0  1e-007 42 0

0111000
+45 0 *
Ed
 1e-007 1 1 0
1  99 0 0 2
2  156 45 0 0 2
0

0101000
+97 0 -120 0 *
Wi

0101100
+46 0 +119 0 -43 0 -95 0 *
Fa
0  1e-007 52 0

0111000
+42 0 *
Ed
 1e-007 1 1 0
1  100 0 0 2
2  157 45 0 0 2
0

0101000
+99 0 -118 0 *
Wi

0101100
+40 0 +117 0 -43 0 -96 0 *
Fa
0  1e-007 45 0

0111000
+39 0 *
Wi

0101100
-61 0 +116 0 -40 0 -98 0 *
Fa
0  1e-007 51 0

0111000
+37 0 *
Ve
1e-007
-4.5 0 -0.1
0 0

0101101
*
Ed
 1e-007 1 1 0
1  101 0 0 0.141421356237309
2  158 55 0 0 0.141421356237309
2  159 53 0 0 0.141421356237309
4 CN 55 0 53 0
0

0101000
+35 0 -92 0 *
Ve
1e-007
-6.5 1.224646799147e-016 -0.1
0 0

0101101
*
Ed
 1e-007 1 1 0
1  102 0 0 3.14159265358979
2  160 61 0 0 3.14159265358979
2  161 53 0 0 3.14159265358979
4 C0 61 0 53 0
0

0101000
+35 0 -33 0 *
Ed
 1e-007 1 1 0
1  103 0 0 0.141421356237309
2  162 55 0 0 0.141421356237309
2  163 53 0 0 0.141421356237309
4 CN 55 0 53 0
0

0101000
+33 0 -93 0 *
Wi

0101100
+91 0 -34 0 +32 0 +31 0 *
Fa
0  1e-007 53 0

0111000
+30 0 *
Ed
 1e-007 1 1 0
1  104 0 3.14159265358979 6.28318530717959
2  164 55 0 3.14159265358979 6.28318530717959
2  165 60 0 3.14159265358979 6.28318530717959
4 C0 55 0 60 0
0

0101000
+33 0 -35 0 *
Wi

0101100
+34 0 +90 0 -31 0 +28 0 *
Fa
0  1e-007 55 0

0111000
+27 0 *
Ve
1e-007
6.5 0 -0.1
0 0

0101101
*
Ed
 1e-007 1 1 0
1  105 0 -0.141421356237309 0
2  166 56 0 -0.141421356237309 0
2  167 57 0 -0.141421356237309 0
4 CN 56 0 57 0
0

0101000
+25 0 -88 0 *
Ve
1e-007
4.5 1.224646799147e-016 -0.1
0 0

0101101
*
Ed
 1e-007 1 1 0
1  106 0 0 3.14159265358979
2  168 59 0 0 3.14159265358979
2  169 57 0 0 3.14159265358979
4 C0 59 0 57 0
0

0101000
+25 0 -23 0 *
Ed
 1e-007 1 1 0
1  107 0 -0.141421356237309 0
2  170 56 0 -0.141421356237309 0
2  171 57 0 -0.141421356237309 0
4 CN 56 0 57 0
0

0101000
+23 0 -87 0 *
Wi

0101100
+85 0 -24 0 +22 0 +21 0 *
Fa
0  1e-007 57 0

0111000
+20 0 *
Ed
 1e-007 1 1 0
1  108 0 3.14159265358979 6.28318530717959
2  172 56 0 3.14159265358979 6.28318530717959
2  173 58 0 3.14159265358979 6.28318530717959
4 C0 56 0 58 0
0

0101000
+23 0 -25 0 *
Wi

0101100
+24 0 +86 0 -21 0 +18 0 *
Fa
0  1e-007 56 0

0111000
+17 0 *
Ed
 1e-007 1 1 0
1  109 0 0.1 1.9
2  174 58 0 0.1 1.9
2  175 59 0 0.1 1.9
4 CN 58 0 59 0
0

0101000
+80 0 -25 0 *
Ed
 1e-007 1 1 0
1  110 0 0.1 1.9
2  176 58 0 0.1 1.9
2  177 59 0 0.1 1.9
4 CN 58 0 59 0
0

0101000
+82 0 -23 0 *
Wi

0101100
+15 0 -18 0 -14 0 -78 0 *
Fa
0  1e-007 58 0

0111000
+13 0 *
Wi

0101100
-22 0 -15 0 -75 0 +14 0 *
Fa
0  1e-007 59 0

0111000
+11 0 *
Ed
 1e-007 1 1 0
1  111 0 0.1 1.9
2  178 60 0 0.1 1.9
2  179 61 0 0.1 1.9
4 CN 60 0 61 0
0

0101000
+70 0 -35 0 *
Ed
 1e-007 1 1 0
1  112 0 0.1 1.9
2  180 60 0 0.1 1.9
2  181 61 0 0.1 1.9
4 CN 60 0 61 0
0

0101000
+72 0 -33 0 *
Wi

0101100
+9 0 -28 0 -8 0 -68 0 *
Fa
0  1e-007 60 0

0111000
+7 0 *
Wi

0101100
-32 0 -9 0 -65 0 +8 0 *
Fa
0  1e-007 61 0

0111000
+5 0 *
Sh

0101100
+287 0 -279 0 +276 0 +269 0 +262 0 +259 0 +256 0 -249 0 +242 0 -239 0 
-232 0 +225 0 +222 0 -219 0 -212 0 +205 0 +202 0 -199 0 -192 0 +185 0 
+178 0 +175 0 +168 0 +165 0 +158 0 +155 0 +148 0 +145 0 -114 0 +83 0 
-76 0 -73 0 -66 0 -63 0 +59 0 +56 0 -53 0 +50 0 +47 0 +44 0 
-41 0 +38 0 +36 0 -29 0 -26 0 -19 0 -16 0 -12 0 -10 0 -6 0 
-4 0 *
So

0100000
+3 0 *
Co

1100000
+2 4 *

+1 0 