DBRep_DrawableShape

CASCADE Topology V1, (c) Matra-Datavision
Locations 0
Curve2ds 28
1 -4.1389114358025836e-013 -156.00000019999999 1 -0 
1 3.1415926535895862 0 -0 -1 
1 -4.1389114358025836e-013 -156.00000019999999 1 -0 
1 -4.1389114358025836e-013 -1.0000002000000001 1 -0 
1 1.5707963267945866 -1.0000002000000001 -1 0 
1 1.5707963267945866 0 -0 -1 
1 0 0 1 0 
1 0 0 1 0 
1 0 0 1 0 
7 0 0  1 2 2  1.5707963267945866 -1.0000002000000001  1.5707963267945866 -156.00000019999999 
 1.0000001999999999 2 156.00000019999999 2
1 0 -10 1 0 
1 0 -10 1 0 
1 0 -10 1 0 
1 -4.1389114358025836e-013 0 -0 -1 
1 4.1389114358025836e-013 0 0 -1 
1 6.2831853071795862 0 0 -1 
1 0 0 0 -1 
1 6.2831853071800001 0 0 -1 
1 3.1415926535900001 0 0 -1 
1 3.1415926535900001 0 0 -1 
7 0 0  1 2 2  -4.1389114358025836e-013 -1.0000002000000001  -4.1389114358025836e-013 -156.00000019999999 
 1.0000001999999999 2 156.00000019999999 2
1 6.2831853071795862 -10 -1 0 
1 6.2831853071795862 -10 -1 0 
1 6.2831853071795862 0 -1 0 
1 6.2831853071795862 0 -1 0 
1 1.5707963267945866 0 -0 -1 
1 -4.1389114358025836e-013 0 -0 -1 
1 6.2831853071795862 0 -0 -1 
Curves 48
1 20 155 80 -0 1 -0 
1 20 165 80 1 0 0 
1 175 155 80 -0 1 -0 
1 20 155 80 1 0 0 
1 20 165 0 0 0 1 
1 20 155 0 0 0 1 
2 20 145 20 1 -0 0 0 0 -1 0 1 0 10
1 20 50 10 0 1 0 
1 20 50 0 0 0 1 
1 20 50 0 0 1 0 
2 20 145 20 1 0 0 0 -8.526512829121e-015 -1 0 1 -8.526512829121e-015 20
2 175 145 20 1 -0 0 0 0 -1 0 1 0 10
1 175 155 80 0 0 -1 
1 175 165 80 0 0 -1 
2 175 145 20 -1 0 0 0 1 1.8651746813700001e-014 0 1.8651746813700001e-014 -1 20
1 175 165 0 0 -1 0 
1 175 120 0 0 0 1 
1 175 165 10 0 -1 0 
1 176.00000020000002 155 20 -1 0 0 
2 41.5 155 50 0 -1 0 0 0 -1 1 0 0 6.5
1 153.5 155 43.5 -1 0 0 
2 146.5 155 50 0 -1 0 0 0 -1 1 0 0 6.5
1 146.5 155 56.5 1 0 0 
2 153.5 155 50 0 -1 0 0 0 -1 1 0 0 6.5
1 176.00000020000002 165 20 -1 0 0 
2 41.5 165 50 0 -1 0 0 0 -1 1 0 0 6.5
1 153.5 165 43.5 -1 0 0 
2 146.5 165 50 0 -1 0 0 0 -1 1 0 0 6.5
1 146.5 165 56.5 1 0 0 
2 153.5 165 50 0 -1 0 0 0 -1 1 0 0 6.5
1 176.00000020000002 145 10 -1 0 0 
1 41.5 155 43.5 -0 1 -0 
1 153.5 155 43.5 -0 1 -0 
1 146.5 155 43.5 -0 1 -0 
1 153.5 155 56.5 -0 1 -0 
1 146.5 155 56.5 -0 1 -0 
1 176.00000020000002 145 0 -1 0 0 
2 50 50 10 0 0 1 1 0 -0 -0 1 0 30
1 80 20 10 -1 3.5527136788000002e-016 0 
1 175 120 10 -0.68874946191506103 -0.72499943359406427 0 
2 50 50 10 0 0 1 1 0 -0 -0 1 0 17.5
2 50 50 0 0 0 1 1 0 -0 -0 1 0 30
1 80 20 0 -1 3.5527136788000002e-016 0 
1 175 120 0 -0.68874946191506103 -0.72499943359406427 0 
2 50 50 0 0 0 1 1 0 -0 -0 1 0 17.5
1 80 20 0 0 0 1 
1 50 20 0 0 0 1 
1 67.5 50 0 0 0 1 
Polygon3D 0
PolygonOnTriangulations 0
Surfaces 18
1 20 155 80 0 0 -1 1 0 0 0 -1 0 
1 20 155 0 1 0 -0 0 0 1 0 -1 0 
1 0 165 0 0 -1 0 0 0 -1 1 0 0 
1 175 155 80 -1 -0 -0 0 0 -1 0 -1 0 
1 0 155 0 0 -1 0 0 0 -1 1 0 0 
2 176.00000020000002 145 20 1 -0 -0 0 0 -1 0 1 0 10
1 0 0 10 0 0 1 1 0 -0 -0 1 0 
2 50 50 0 -0 -0 -1 1 0 -0 0 -1 0 30
1 0 0 0 0 0 1 1 0 -0 -0 1 0 
2 176.00000020000002 145 20 1 -0 -0 0 0 -1 0 1 0 20
1 175 120 0 0.72499943359406427 -0.68874946191506103 0 -0.68874946191506103 -0.72499943359406427 0 0 -0 -1 
2 41.5 155 50 0 -1 0 0 -0 -1 1 0 0 6.5
1 153.5 155 43.5 0 0 1 -1 0 0 0 -1 0 
2 146.5 155 50 0 -1 0 0 -0 -1 1 0 0 6.5
1 153.5 155 56.5 0 0 1 -1 0 0 0 -1 0 
2 153.5 155 50 0 -1 0 0 -0 -1 1 0 0 6.5
1 80 20 0 -3.5527136788000002e-016 -1 0 -1 3.5527136788000002e-016 0 -0 0 -1 
2 50 50 0 -0 -0 -1 1 0 -0 0 -1 0 17.5
Triangulations 0

TShapes 124
Ve
1e-007
20 155 80
0 0

0101101
*
Ve
1e-007
20 165 80
0 0

0101101
*
Ed
 1e-007 1 1 0
1  1 0 0 10
4 C0 1 0 2 0
0

0101000
+124 0 -123 0 *
Ve
1e-007
175 165 80
0 0

0101101
*
Ed
 1e-007 1 1 0
1  2 0 0 155
4 C0 1 0 3 0
0

0101000
+123 0 -121 0 *
Ve
1e-007
175 155 80
0 0

0101101
*
Ed
 1e-007 1 1 0
1  3 0 0 10
4 C0 1 0 4 0
0

0101000
+119 0 -121 0 *
Ed
 1e-007 1 1 0
1  4 0 0 155
4 C0 1 0 5 0
0

0101000
+124 0 -119 0 *
Wi

0101100
+122 0 +120 0 -118 0 -117 0 *
Fa
0  1e-007 1 0

0101000
+116 0 *
Ve
1e-007
20 165 20
0 0

0101101
*
Ed
 1e-007 1 1 0
1  5 0 20 80
4 C0 2 0 3 0
0

0101000
+114 0 -123 0 *
Ve
1e-007
20 155 20
0 0

0101101
*
Ed
 1e-007 1 1 0
1  6 0 20 80
4 C0 2 0 5 0
0

0101000
+112 0 -124 0 *
Ve
1e-007
20 145 10
0 0

0101101
*
Ed
 1e-007 1 1 0
1  7 0 0 1.5707963267949
2  1 6 0 0 1.5707963267949
4 C0 2 0 6 0
0

0101000
+110 0 -112 0 *
Ve
1e-007
20 50 10
0 0

0101101
*
Ed
 1e-007 1 1 0
1  8 0 0 95
4 C0 2 0 7 0
0

0101000
+108 0 -110 0 *
Ve
1e-007
20 50 0
0 0

0101101
*
Ed
 1e-007 1 1 0
1  9 0 0 10
2  2 8 0 0 10
4 G1 2 0 8 0
0

0101000
+106 0 -108 0 *
Ve
1e-007
20 145 0
0 0

0101101
*
Ed
 1e-007 1 1 0
1  10 0 0 95
4 C0 2 0 9 0
0

0101000
+106 0 -104 0 *
Ed
 1e-007 1 1 0
1  11 0 0 1.57079632679491
2  3 10 0 0 1.57079632679491
4 C0 2 0 10 0
0

0101000
+104 0 -114 0 *
Wi

0101100
+113 0 -122 0 -111 0 -109 0 -107 0 -105 0 +103 0 +102 0 *
Fa
0  1e-007 2 0

0101000
+101 0 *
Ve
1e-007
175 145 10
0 0

0101101
*
Ve
1e-007
175 155 20
0 0

0101101
*
Ed
 1e-007 1 1 0
1  12 0 0 1.5707963267949
2  4 6 0 0 1.5707963267949
4 C0 4 0 6 0
0

0101000
+99 0 -98 0 *
Ed
 1e-007 1 1 0
1  13 0 0 60
4 C0 4 0 5 0
0

0101000
+119 0 -98 0 *
Ve
1e-007
175 165 20
0 0

0101101
*
Ed
 1e-007 1 1 0
1  14 0 0 60
4 C0 4 0 3 0
0

0101000
+121 0 -95 0 *
Ve
1e-007
175 145 0
0 0

0101101
*
Ed
 1e-007 1 1 0
1  15 0 0 1.57079632679492
2  5 10 0 0 1.57079632679492
4 C0 4 0 10 0
0

0101000
+95 0 -93 0 *
Ve
1e-007
175 120 0
0 0

0101101
*
Ed
 1e-007 1 1 0
1  16 0 20 45
4 C0 4 0 9 0
0

0101000
+93 0 -91 0 *
Ve
1e-007
175 120 10
0 0

0101101
*
Ed
 1e-007 1 1 0
1  17 0 0 10
4 C0 4 0 11 0
0

0101000
+91 0 -89 0 *
Ed
 1e-007 1 1 0
1  18 0 20 45
4 C0 4 0 7 0
0

0101000
+99 0 -89 0 *
Wi

0101100
+97 0 -96 0 +118 0 +94 0 +92 0 +90 0 +88 0 -87 0 *
Fa
0  1e-007 4 0

0101000
+86 0 *
Ed
 1e-007 1 1 0
1  19 0 1.00000020000002 156.0000002
2  6 6 0 1.00000020000002 156.0000002
4 G1 5 0 6 0
0

0101000
+98 0 -112 0 *
Wi

0101100
-96 0 -117 0 -111 0 -84 0 *
Ve
1e-007
41.5 155 43.5
0 0

0101101
*
Ed
 1e-007 1 1 0
1  20 0 0 6.28318530717959
2  7 12 0 0 6.28318530717959
4 C0 5 0 12 0
0

0101000
+82 0 -82 0 *
Wi

0101100
-81 0 *
Ve
1e-007
153.5 155 43.5
0 0

0101101
*
Ve
1e-007
146.5 155 43.5
0 0

0101101
*
Ed
 1e-007 1 1 0
1  21 0 0 7
4 C0 5 0 13 0
0

0101000
+79 0 -78 0 *
Ve
1e-007
146.5 155 56.5
0 0

0101101
*
Ed
 1e-007 1 1 0
1  22 0 3.14159265358979 6.28318530717959
2  8 14 0 3.14159265358979 6.28318530717959
4 C0 5 0 14 0
0

0101000
+76 0 -78 0 *
Ve
1e-007
153.5 155 56.5
0 0

0101101
*
Ed
 1e-007 1 1 0
1  23 0 0 7
4 C0 5 0 15 0
0

0101000
+76 0 -74 0 *
Ed
 1e-007 1 1 0
1  24 0 0 3.14159265358979
2  9 16 0 0 3.14159265358979
4 C0 5 0 16 0
0

0101000
+79 0 -74 0 *
Wi

0101100
+77 0 -75 0 +73 0 -72 0 *
Fa
0  1e-007 5 0

0101000
+83 0 +80 0 +71 0 *
Ed
 1e-007 1 1 0
1  25 0 1.00000020000002 156.0000002
2  10 10 0 1.00000020000002 156.0000002
4 G1 3 0 10 0
0

0101000
+95 0 -114 0 *
Wi

0101100
-94 0 -120 0 -113 0 -69 0 *
Ve
1e-007
41.5 165 43.5
0 0

0101101
*
Ed
 1e-007 1 1 0
1  26 0 0 6.28318530717959
2  11 12 0 0 6.28318530717959
4 C0 3 0 12 0
0

0101000
+67 0 -67 0 *
Wi

0101100
-66 0 *
Ve
1e-007
153.5 165 43.5
0 0

0101101
*
Ve
1e-007
146.5 165 43.5
0 0

0101101
*
Ed
 1e-007 1 1 0
1  27 0 0 7
4 C0 3 0 13 0
0

0101000
+64 0 -63 0 *
Ve
1e-007
146.5 165 56.5
0 0

0101101
*
Ed
 1e-007 1 1 0
1  28 0 3.14159265358979 6.28318530717959
2  12 14 0 3.14159265358979 6.28318530717959
4 C0 3 0 14 0
0

0101000
+61 0 -63 0 *
Ve
1e-007
153.5 165 56.5
0 0

0101101
*
Ed
 1e-007 1 1 0
1  29 0 0 7
4 C0 3 0 15 0
0

0101000
+61 0 -59 0 *
Ed
 1e-007 1 1 0
1  30 0 0 3.14159265358979
2  13 16 0 0 3.14159265358979
4 C0 3 0 16 0
0

0101000
+64 0 -59 0 *
Wi

0101100
+62 0 -60 0 +58 0 -57 0 *
Fa
0  1e-007 3 0

0101000
+68 0 +65 0 +56 0 *
Ed
 1e-007 1 1 0
1  31 0 1.00000020000002 156.0000002
2  14 6 0 1.00000020000002 156.0000002
4 G1 6 0 7 0
0

0101000
+99 0 -110 0 *
Wi

0101100
+109 0 -84 0 -97 0 +54 0 *
Fa
0  1e-007 6 0

0101000
+53 0 *
Ed
 1e-007 1 1 0
1  32 0 0 10
3  15 16CN 12 0 0 10
0

0101000
+82 0 -67 0 *
Wi

0101100
+51 0 +66 0 -51 0 -81 0 *
Fa
0  1e-007 12 0

0101000
+50 0 *
Ed
 1e-007 1 1 0
1  33 0 0 10
2  17 16 0 0 10
4 G1 13 0 16 0
0

0101000
+79 0 -64 0 *
Ed
 1e-007 1 1 0
1  34 0 0 10
2  18 14 0 0 10
4 G1 13 0 14 0
0

0101000
+78 0 -63 0 *
Wi

0101100
-77 0 +48 0 +62 0 -47 0 *
Fa
0  1e-007 13 0

0101000
+46 0 *
Ed
 1e-007 1 1 0
1  35 0 0 10
2  19 16 0 0 10
4 G1 16 0 15 0
0

0101000
+74 0 -59 0 *
Wi

0101100
+48 0 +57 0 -44 0 -72 0 *
Fa
0  1e-007 16 0

0101000
+43 0 *
Ed
 1e-007 1 1 0
1  36 0 0 10
2  20 14 0 0 10
4 G1 15 0 14 0
0

0101000
+76 0 -61 0 *
Wi

0101100
+44 0 -58 0 -41 0 +73 0 *
Fa
0  1e-007 15 0

0101000
+40 0 *
Wi

0101100
+41 0 +60 0 -47 0 -75 0 *
Fa
0  1e-007 14 0

0101000
+38 0 *
Ed
 1e-007 1 1 0
1  37 0 1.00000020000002 156.0000002
2  21 10 0 1.00000020000002 156.0000002
4 G1 10 0 9 0
0

0101000
+93 0 -104 0 *
Wi

0101100
+102 0 -69 0 +92 0 +36 0 *
Fa
0  1e-007 10 0

0101000
+35 0 *
Ve
1e-007
50 20 10
0 0

0101101
*
Ed
 1e-007 1 1 0
1  38 0 3.14159265358979 4.71238898038469
2  22 8 0 3.14159265358979 4.71238898038469
4 C0 7 0 8 0
0

0101000
+108 0 -33 0 *
Ve
1e-007
80 20 10
0 0

0101101
*
Ed
 1e-007 1 1 0
1  39 0 0 30
4 C0 7 0 17 0
0

0101000
+31 0 -33 0 *
Ed
 1e-007 1 1 0
1  40 0 0 137.931142241337
4 C0 7 0 11 0
0

0101000
+89 0 -31 0 *
Wi

0101100
-107 0 +32 0 -30 0 -29 0 -87 0 +54 0 *
Ve
1e-007
67.5 50 10
0 0

0101101
*
Ed
 1e-007 1 1 0
1  41 0 0 6.28318530717959
2  23 18 0 0 6.28318530717959
4 C0 7 0 18 0
0

0101000
+27 0 -27 0 *
Wi

0101100
-26 0 *
Fa
0  1e-007 7 0

0101000
+28 0 +25 0 *
Ve
1e-007
50 20 0
0 0

0101101
*
Ed
 1e-007 1 1 0
1  42 0 3.14159265358979 4.71238898038469
2  24 8 0 3.14159265358979 4.71238898038469
4 C0 9 0 8 0
0

0101000
+106 0 -23 0 *
Ve
1e-007
80 20 0
0 0

0101101
*
Ed
 1e-007 1 1 0
1  43 0 0 30
4 C0 9 0 17 0
0

0101000
+21 0 -23 0 *
Ed
 1e-007 1 1 0
1  44 0 0 137.931142241337
4 C0 9 0 11 0
0

0101000
+91 0 -21 0 *
Wi

0101100
-103 0 +22 0 -20 0 -19 0 -90 0 +36 0 *
Ve
1e-007
67.5 50 0
0 0

0101101
*
Ed
 1e-007 1 1 0
1  45 0 0 6.28318530717959
2  25 18 0 0 6.28318530717959
4 C0 9 0 18 0
0

0101000
+17 0 -17 0 *
Wi

0101100
-16 0 *
Fa
0  1e-007 9 0

0101000
+18 0 +15 0 *
Ed
 1e-007 1 1 0
1  46 0 0 10
4 C0 11 0 17 0
0

0101000
+21 0 -31 0 *
Wi

0101100
+88 0 +29 0 -13 0 -19 0 *
Fa
0  1e-007 11 0

0101000
+12 0 *
Ed
 1e-007 1 1 0
1  47 0 0 10
2  26 8 0 0 10
4 G1 17 0 8 0
0

0101000
+23 0 -33 0 *
Wi

0101100
+13 0 +30 0 -10 0 -20 0 *
Fa
0  1e-007 17 0

0101000
+9 0 *
Wi

0101100
+22 0 +10 0 -32 0 -105 0 *
Fa
0  1e-007 8 0

0101000
+7 0 *
Ed
 1e-007 1 1 0
1  48 0 0 10
3  27 28CN 18 0 0 10
0

0101000
+17 0 -27 0 *
Wi

0101100
+16 0 +5 0 -26 0 -5 0 *
Fa
0  1e-007 18 0

0101000
+4 0 *
Sh

0101100
-115 0 -100 0 -85 0 +70 0 -55 0 -52 0 -49 0 +45 0 -42 0 -39 0 
-37 0 +34 0 +24 0 -14 0 +11 0 +8 0 +6 0 -3 0 *
So

0100000
+2 0 *

+1 0 