DBRep_DrawableShape

CASCADE Topology V1, (c) Matra-Datavision
Locations 0
Curve2ds 148
1 4.80239433717 0 -1 0 
1 -27.999707109577042 4.1975999428299993 0 1 
1 4.7999943399999996 7.3473227501915206e-011 0 1 
1 2.1213203104608609 -1.1198183466472267 0.70710678142698924 0.7071067809461058 
1 4.80239433717 1.1999999900023999 -1 0 
1 -27.99970710005644 4.1975999428299993 0 1 
1 0 0 0 1 
7 0 0  1 2 2  4.7124097105996707 -0.0010994576505378717  4.7123890959403498 1.1989005096880514 
 0 2 1.1999999900024001 2
7 0 0  1 2 2  4.7124097105996707 -0.0010994576505378717  3.1415719076705924 -0.0010993886126846597 
 0 2 1.5705714153900301 2
2 -19.998807300181024 8.9990945957677937 -0.99999999367773706 0.00011244788060724639 0.00011244788060724639 0.99999999367773706 8.0008998599798176
7 0 0  1 2 2  4.7123890959403498 1.1989005096880505  3.1415926098281148 1.1989005787255933 
 0 2 1.5705301228453963 2
2 -19.998642482856219 8.9989296821701288 -0.99999999114791471 0.00013305702070671063 0.00013305702070671063 0.99999999114791471 8.0010646880263288
7 0 0  1 2 2  3.1415719076688577 -0.0010993876532774394  3.1415925223279606 1.1989005696853119 
 0 2 1.1999999800024002 2
1 11.999708210024181 4.6203048387327542e-009 -7.9338169791974214e-009 1 
1 0 0 1 3.8503476566797212e-010 
1 -7.9999988995367213 16.999994300000001 -1 0 
1 4.7941972282681362e-010 1.1999999800024195 1 3.8503316668660814e-010 
1 -7.9999989000161404 16.999994300000001 -1 0 
1 0 0 3.9951644234640797e-010 1 
7 0 0  1 2 2  1.5708170735481115 -0.0010998555790253661  1.5707964461648896 1.1989001017360739 
 0 2 1.1999999800024195 2
2 -8.0008984198166377 8.9990947854377339 0.99999999368040215 0.00011242417855247239 -0.00011242417855247239 0.99999999368040215 8.0008995738004867
7 0 0  1 2 2  -2.0762991199241299e-005 -0.0011000692982809923  1.5708169860461325 -0.0010998547313945117 
 0 2 1.5705713877326843 2
2 -8.0010633255311472 8.9989297963477544 0.99999999114981286 0.00013304275353315126 -0.00013304275353315126 0.99999999114981286 8.0010644997634461
7 0 0  1 2 2  -1.3967770762235432e-007 1.1988998880167534  1.570796446166014 1.1989001086815652 
 0 2 1.5705302485544752 2
1 4.7999943399999996 2.8013147357342099e-012 0 1 
7 0 0  1 2 2  -2.0762991199241299e-005 -0.0011000692957390257  -1.3967770762235432e-007 1.1988998880167534 
 -2.664535259105209e-015 2 1.1999999799998742 2
1 -0.0023999971700003897 -0 1 0 
1 -1.4278872489971217e-006 4.1975999428299993 0 1 
1 0 1.1999999800000061 1 0 
1 1.1034213799977765e-006 4.1999999399999997 0 1 
1 0 -5.3290705182007893e-015 2.2204460862582153e-015 1 
1 -2.1213203158391174 -1.1198183379683102 -0.7071067812470283 0.70710678112606695 
1 -0.023898883500001349 -2.0085423535015024e-021 1 1.3837001846554948e-017 
1 0.023898883600848703 5.0224440014052794e-005 -1 2.3774008308600609e-015 
1 47.797767000004491 -2.1020922597701364e-012 4.7840618874642744e-019 1 
1 2.121320314704465 -1.1198183376012485 0.70710678112606851 0.70710678124702664 
1 -0.023898883399153994 1.1999999810530482 1 -8.4039465599064358e-011 
1 0.023898883500001352 -6.379334674528177e-017 -1 2.6682600864859257e-015 
1 8.8593758859765436e-020 1.0541922899417056e-009 8.4039462328404715e-011 1 
7 0 0  1 2 2  3.1416365306312031 0.00033024110225365888  3.1415925325063569 1.2003302110502212 
 -3.153033392697147e-012 2 1.1999999799968475 2
7 0 0  1 2 2  4.7120491663977688 0.00033012157284284527  3.1416366302577474 0.00033024560298788863 
 0 2 1.5701464535516698 2
2 -0.00052479887323630047 3.0005311010207252 0.99999988724881683 -0.00047487088118524273 -0.00047487088118524273 -0.99999988724881683 3.0005310591996417
7 0 0  1 2 2  4.7120931803270336 1.2003300870435352  3.1415925325034268 1.2003302110429492 
 0 2 1.5702345597114695 2
2 -0.00039276032802063829 3.0003990012054773 0.9999999071779424 -0.00043086437161494844 -0.00043086437161494844 -0.9999999071779424 3.0003989608442039
7 0 0  1 2 2  4.7120491663977688 0.00033012157284284527  4.7120931803270336 1.2003300870435349 
 0 2 1.1999999800000001 2
1 0.40049593241740838 -0.59999988589592579 -6.8972259981329032e-008 0.99999999999999767 
1 0.40089636445191412 -0.59999999820772776 -0.99999999999999967 -3.0210529068668535e-008 
1 3.0004375220088075 2.9987057398665224 1.041005665637175e-008 1 
1 0.4008963455102581 0.60000005350918251 -0.99999999999999434 -1.0773398750015139e-007 
1 3.0000058027088117 2.9987057403463893 0.00029789113288248556 0.99999995563043553 
1 -0.40049583212042106 -0.60000002241821015 -4.5338952075842057e-008 0.999999999999999 
1 2.1213305480258038 -0.92042038783271451 0.70710737809661672 0.70710618427597449 
1 11.357296680452899 -5.7731602051022803e-014 -1 5.0750485973444983e-015 
1 23.000264530388321 3.8057737574279655 5.8988925669640682e-010 -1 
1 11.351620870022899 -1.4632740885535674e-013 -1.7234765748415799e-011 1 
1 -2.1213203128580083 -1.1198183362985223 -0.70710678125759396 0.70710678111550107 
1 11.357296680432217 1.199999979932094 -1 9.8711859433942505e-012 
1 23.000274830388321 3.8057737574072839 5.8989113990264087e-010 -1 
1 -0 4.3482772936254754e-011 -1.7234765746487324e-011 1 
7 0 0  1 2 2  3.1415755384226287 0.0014926827680965538  3.1415958764102978 1.2014926327289419 
 -1.3211653992552687e-013 2 1.1999999800007115 2
7 0 0  1 2 2  3.1415755384335222 0.001492684646511977  1.8851017355237558 0.0014930736250884369 
 0 2 1.2563348860925372 2
2 14.999286514850235 -7.5508140756438351 0.99999999607546386 -8.8594990998452108e-005 -8.8594990998452108e-005 -0.99999999607546386 8.0009883536378048
7 0 0  1 2 2  3.1415958764102978 1.2014926327289257  1.8850818266486995 1.2014930221947806 
 0 2 1.2563750249302965 2
2 14.999509796736387 -7.5509764639021313 0.99999999766749625 -6.8300861161615914e-005 -6.8300861161615914e-005 -0.99999999766749625 8.0007650590132968
7 0 0  1 2 2  1.8851017355241004 0.0014930736324776372  1.8850814075983495 1.2014930217149298 
 0 2 1.1999999800000001 2
1 40.268404506194365 1.0097419586828951e-028 -3.1554436208840472e-030 1 
1 40.288538708394356 3.0292258760486853e-028 -1 2.3743884734064179e-024 
1 17.49250105390194 -15.153453803231935 -0.95101823787625661 -0.30913477841669629 
1 40.288538708394363 1.1999999800000309 -1 -7.6465263478840712e-016 
1 17.49250105390194 -15.153453803231935 -0.95101823787625661 -0.30913477841669612 
1 0 -0 -3.1554436208840472e-030 1 
7 0 0  1 2 2  3.4558626281559524 0.0050968483878595094  3.4558777577728597 1.2050965787878329 
 0 2 1.1999999800000001 2
7 0 0  1 2 2  3.4558626281559524 0.0050968483878595094  3.1416097766813902 0.0050966889112842306 
 0 2 0.31368069275436716 2
2 -23.298126550353153 -19.984659516390899 0.30884831470487917 -0.95111130710551228 -0.95111130710551228 -0.30884831470487917 8.015237245357774
7 0 0  1 2 2  3.4558777577728597 1.2050965787878314  3.1415947156152781 1.2050964193741032 
 0 2 0.3137107949346401 2
2 -23.298005305672085 -19.985424472443825 0.30886266691733205 -0.95110664648330234 -0.95110664648330234 -0.30886266691733205 8.0144722417034604
7 0 0  1 2 2  3.1416097766034934 0.0050966889275785299  3.1415946281166276 1.2050964193275517 
 0 2 1.1999999799999999 2
1 24.502054777916811 4.4976751385904999e-009 -3.6619365782279763e-019 1 
1 24.514305805390418 -9.1473313048832753e-014 -1 3.7332904082867269e-015 
1 -23.283461194513183 -27.999822923806558 -1 -6.1007355889695895e-011 
1 24.514305805316813 1.1999999822508445 -1 3.733317397171623e-015 
1 -23.283461194586788 -27.999896423806558 -1 -6.1007796927046036e-011 
1 -1.9917858309257921e-020 -4.4947390337424006e-009 -1.5261496703706974e-013 1 
1 -2.1213203109890966 -1.1198183355313347 -0.70710678029079044 0.70710678208230482 
1 -0.003899995870000339 8.003999774694581e-008 1 -1.0256420787515152e-008 
1 -11.99906500002402 -7.9961000041299979 -2.0594215166309968e-014 -1 
1 7.7999917600000011 -8.0410584876827415e-008 -0 1 
1 -2.121310005530229 -0.92041683155424714 -0.70710617713709578 0.70710738523548322 
1 -0.00389999585999945 1.199996201946796 0.99999999999988076 -4.8846203828314787e-007 
1 -11.998752600031853 -7.9961000041399988 -9.8079949383744237e-013 -1 
1 -0 8.0420459644168105e-008 -0 1 
7 0 0  1 2 2  4.7124096962443884 -0.0010992635250897109  4.7123890932605335 1.1988968357918708 
 -8.1679554792101121e-011 2 1.1999961196213349 2
7 0 0  1 2 2  3.1415719103915181 -0.0010988041878112753  4.7124096216482672 -0.0010993107154293469 
 0 2 1.5705713512511768 2
2 -3.9978529571268759 -8.0008997606622092 -0.00011244271299663408 0.99999999367831827 -0.99999999367831827 -0.00011244271299663408 8.0008998112413554
7 0 0  1 2 2  3.1415925223875831 1.1988973431655747  4.7123890932602839 1.1988968366536596 
 0 2 1.5705302121724904 2
2 -3.9976880069356482 -8.0010646072174119 -0.00013305642722670046 0.99999999114799365 -0.99999999114799365 -0.00013305642722670046 8.0010646780428836
7 0 0  1 2 2  3.1415719103915181 -0.0010988041878112753  3.1415925223875831 1.1988973431655747 
 0 2 1.1999961700023993 2
1 3.998752600008066 -7.6929673220287455e-010 -7.927466958824632e-009 1 
1 0 0 1 -1.9238417805640651e-010 
1 0 0 -1 0 
1 -0.0019993858211848218 1.2000009414327837 0.9999999999997442 -7.1541542657613467e-007 
1 0.0019993763006067931 0 -1 0 
1 0 0 -7.935416339173272e-009 1 
7 0 0  1 2 2  4.712409752876102 -0.0011008594807107031  4.7123890929973449 1.198899577777345 
 0 2 1.200000460002399 2
7 0 0  1 2 2  3.1415718794007965 -0.0011017193245619339  4.7124096653764145 -0.0011008686156257497 
 0 2 1.5705714199489418 2
2 -0.00089931907019472957 -8.0008994379419853 0.99999999368119685 0.00011241710960349237 -0.00011241710960349237 0.99999999368119685 8.0008993696424238
7 0 0  1 2 2  3.1415925220355763 1.1988991979334918  4.712389092989298 1.1989000587621064 
 0 2 1.570530221793029 2
2 -0.0010645546203584078 -8.0010645686903992 0.99999999114839899 0.00013305337979814882 -0.00013305337979814882 0.99999999114839899 8.0010646254606286
7 0 0  1 2 2  3.1415718793958742 -0.0011017193245566048  3.1415925220355763 1.1988991979334918 
 0 2 1.2000009400023997 2
1 7.7999917600000011 1.9710455489720042e-011 0 1 
1 7.8038917558600005 0 -1 -0 
1 8.0000038000161222 -7.9961000041399988 0 -1 
1 7.8038917558597714 1.2000018909660155 -0.99999999999997036 -2.4359000103119906e-007 
1 8.0000000000199574 -7.9961000041402279 -4.8911260859768733e-013 -1 
1 0 -1.2434497875634488e-014 0 1 
1 2.1213203106461762 -1.1198183429923638 0.70710678112777725 0.70710678124531778 
2 -3.8861966977776774e-009 -3.2419290243744143 0.70701269597870753 0.70720085387739728 -0.70720085387739728 0.70701269597870753 4.2005588565706278
7 0 0  1 2 2  1.5707962041797425 -2.1638771708693054e-010  3.1415927766382241 1.6182463869674526e-010 
 0 2 1.5705302303350652 2
2 9.8601704578982208e-009 -3.2417031846616147 0.70701269707632175 0.70720085278007516 -0.70720085278007516 0.70701269707632175 3.0003991634350413
7 0 0  1 2 2  1.5707962059006064 1.6757806075040377e-009  3.1415927739761043 5.4855241355047251e-010 
 0 2 1.5705302394481044 2
7 0 0  8 9 2  -2.9698484374771881 -0.27129021257221009  -2.3866636815699693 0.31173938162948789  -1.672669290408457 0.76392480498192672  -0.86211676810570825 1.0510258858594952  -2.0385915178167124e-010 1.1495614111123715  0.86211676754704714 1.051025884549617  1.6726692894198472 0.76392480243383409  2.3866636798939673 0.31173937799297402  2.9698484349128123 -0.27129021709731171 
 0 9 1.5705302344064112 9
7 0 0  1 2 2  1.5707962039672989 27.999849973966207  3.1415927762507381 27.999849939878221 
 0 2 1.5705302344064112 2
7 0 0  8 9 2  -2.1213203141648327 -1.1198183380272217  -1.7047597746644292 -0.70336862719762894  -1.1947637809312079 -0.38037903863336475  -0.61579769319177124 -0.17530683797711322  -1.3471161963707345e-009 -0.10492432052236622  0.61579769017161556 -0.17530684063921442  1.1947637770378954 -0.38037904379661525  1.7047597693778158 -0.70336863456457444  2.1213203070790847 -1.119818347194292 
 0 9 1.5705302398904428 9
7 0 0  1 2 2  1.5707962042819772 27.99977657585838  3.1415927791019769 27.999776480724268 
 0 2 1.5705302398904428 2
7 0 0  8 9 2  2.1213305589989639 -0.92042035086391749  1.7047415611546559 -0.50402084625826005  1.1947396960837455 -0.18107650620665838  0.61578606108582612 0.023964282076825771  1.1172744324383643e-005 0.094335830041710089  -0.61576382819095699 0.023965297019986842  -1.1947177910854094 -0.18107453699437004  -1.7047201726255761 -0.50401803643600207  -2.1213098363809619 -0.92041685439839194 
 0 9 1.5703398123338692 9
7 0 0  1 2 2  4.7123891017839634 -1.1109386832686141e-007  3.1415925843598789 -0.00035708117194133138 
 0 2 1.5703398123338692 2
7 0 0  8 9 2  2.9698593901430459 -0.071892940680005957  2.3866347723145607 0.51106637164659929  1.6726321493770215 0.96318844711545015  0.86209705559230798 1.2502455464793512  1.2210194761941295e-005 1.3487657083473552  -0.86207279437029882 1.2502469566768148  -1.6726083522488429 0.96319118317395036  -2.3866117060648602 0.51107027566956109  -2.9698372662873567 -0.07188808262119073 
 0 9 1.5703397377344375 9
7 0 0  1 2 2  4.712389102822395 -7.073231955700976e-008  3.141592555682009 -0.00035700251322623444 
 0 2 1.5703397377344375 2
2 -7.8934105918193609e-009 -3.24170318324318 -0.70701269711076153 0.70720085274564437 0.70720085274564437 0.70701269711076153 3.0003991634362084
7 0 0  1 2 2  4.7123891018940052 19.999384988946453  3.1415925288271271 19.999384940133986 
 0 2 1.5705302393273441 2
2 -7.1348444929952848e-009 -3.2419290054647592 -0.70701269657302679 0.70720085328323601 0.70720085328323601 0.70701269657302679 4.200558835019419
7 0 0  1 2 2  4.7123891028223932 19.999385029308016  3.1415925308466326 19.999385084549559 
 0 2 1.5705302361371642 2
1 1.570796204179721 5.0276264949293751e-005 -7.5865571120005629e-012 1 
1 -47.797766999903644 5.0172399140728688e-005 -2.7600335652220874e-015 -1 
1 3.1415927766383809 1.9785636413391226e-009 -1.3854123740135996e-011 1 
1 -3.9610126256920177e-006 4.1999999399999997 -1 0 
1 -12.010751352624188 -15.799991759999999 1 0 
1 3.1415925308470074 -0.01137398947308842 3.0422008295325351e-015 1 
1 3.0038699994213438 3.8000979444613523 1 1.2788786702149537e-010 
1 4.712389102822395 0.0030007983376794658 -8.8820572758342914e-017 1 
1 0.013997157992793217 4.1999999399999997 -1 0 
1 3.1415927739728979 -0.014001116640153938 1.8308362539851354e-010 1 
1 3.0036539836313429 3.8000979453279689 1 8.3513882152226523e-011 
1 4.7123891014950976 0.0027847421861214011 2.029358913481545e-011 1 
1 -47.797766999903658 0.014050161040127641 1.6939773795656122e-015 -1 
1 1.5707962059013991 -0.013949710483869291 -5.7835103043305129e-011 1 
1 -12.011064065024186 -15.799991759999999 1 0 
1 3.1415925323515448 -0.011686753444240616 -1.7611264194425574e-010 1 
Curves 74
1 -2.99994373 27.999704699999999 4.1975999428299993 0 0 1 
1 -2.9999437300734733 27.999704699999999 4.1999999399999997 -0.99999999999800004 2.000000049805771e-006 0 
1 -4.1999437200000003 27.999707099999998 4.1975999428299993 0 0 1 
1 -2.99994373 27.999704699999999 8.9999942799999992 -0.99999999999800004 2.0000000163501037e-006 0 
2 -2.9999597919420777 19.9988048906201 8.9990945957677937 0.99999999999798495 -2.0075170872367818e-006 1.114793341093022e-009 2.0075169491885824e-006 0.99999999367572201 0.0001124478806072464 -1.3405343757853677e-009 -0.00011244788060478185 0.99999999367773706 8.0008998599798158
2 -4.1999598099888322 19.998642482815956 8.9989296821701288 0.99999999999797795 -2.0109806773113663e-006 -2.3386285763339865e-009 2.0109809706809447e-006 0.99999999114589255 0.00013305702070671063 2.0710534580057043e-009 -0.00013305702071114453 0.9999999911479146 8.0010646880263288
1 -2.9999598000000001 19.999704699999999 16.999994300000001 -0.99999999999800004 2.0000000330167708e-006 0 
1 -2.9999838900000002 7.99999649 16.999994300000001 2.007548815230285e-006 0.99999999999798495 0 
1 -4.1999838699999996 7.9999988999999996 16.999994300000001 2.0075488168292663e-006 0.99999999999798495 0 
1 -2.9999838900000002 7.99999649 16.999994300000001 -0.99999999999798328 2.0083333664382981e-006 0 
2 -2.9999838980590225 8.000896010279936 8.9990947854377339 -0.99999999999798495 2.0075170214592202e-006 1.1148436518906431e-009 -2.0075168834371382e-006 -0.9999999936783871 0.00011242417855247237 1.3405370969106919e-009 0.00011242417855000777 0.99999999368040215 8.0008995738004867
2 -4.1999838856410321 8.001063325515041 8.9989297963477544 -0.99999999999798694 2.0065280754045045e-006 1.3550210819593065e-009 -2.0065278773706197e-006 -0.9999999911477998 0.00013304275353315126 1.6219750901577784e-009 0.00013304275353016455 0.99999999114981286 8.0010644997634461
1 -2.9999999600025444 -3.5129419599948924e-006 8.9999942799999992 -0.99999999999798417 2.0079338501281849e-006 0 
1 -2.9999999599999998 -9.8163333099999994e-007 4.1975999428299993 0 0 1 
1 -4.1999999399999997 -1.1034213799999999e-006 4.1999999399999997 0 0 1 
1 -2.9999999599999945 -9.8163333099999931e-007 4.1999999399999997 -0.99999999999999489 -1.0149004252483317e-007 2.2204460862582153e-015 
1 47.821665883499954 -5.0272427377099946e-005 1.1999999800000001 -0.99999999999798417 2.0079338476185517e-006 -1.3936504916119417e-017 
1 9.186401619982335e-011 4.5750314099912015e-005 1.1999999800021022 8.4039462288146299e-011 4.1853700890869723e-005 -0.99999999912413384 
1 47.821665883499954 -4.7987362882114399e-008 -2.0088830777134832e-012 -0.99999999999798417 2.0079338473276924e-006 8.403946556099509e-011 
1 47.797767 -5.0224439955878158e-005 1.1999999789458078 0 4.1853700672745824e-005 -0.99999999912413384 
2 47.797236176258799 -3.0005310999609005 1.1999999800000001 0 0 1 0.99999988820031016 0.00047286294756068638 -0 -0.00047286294756068638 0.99999988820031016 0 3.0005310591996426
2 47.797368215069262 -3.0003990004107779 -1.7538294237945112e-016 -2.2496778854745283e-017 4.1700742978895463e-016 1 0.99999990804107364 0.00042885643795046439 2.2317940465027485e-017 -0.00042885643795046439 0.99999990804107364 -4.1701703932984408e-016 3.0003989608442034
1 50.797766899999999 -2.99911226 1.1999999800000001 0 0 -1 
1 50.798198500799998 -2.9987117645405283 1.1999999800000001 -1.9975237933396015e-006 -0.99999999999800493 0 
1 50.797766781500002 -2.9987117641535312 0 0.00029588319912098022 -0.99999995622656535 0 
1 50.798196900000001 -3.8001039699999999 1.1999999800000001 -0.00016083333392501959 0 -0.99999998706631932 
1 70.7980238886 -3.8058199404299886 1.1999999800000001 2.0085237392526476e-006 0.99999999999798295 0 
1 70.798023900000004 -3.8001441300000001 1.1999999800000889 8.5833334769887334e-006 0 -0.99999999996316324 
1 70.798034188599999 -3.8058199404299886 1.1205256517503035e-010 2.0085237411358539e-006 0.99999999999798295 -9.866110878960344e-012 
1 70.7980467 7.55147674 1.1999999799565173 8.5833334760283065e-006 0 -0.99999999996316324 
2 62.797068676355174 7.5507839580535077 1.1999999800000014 1.6057504382466516e-016 3.4137407652447003e-017 1 0.99999999625134084 8.6587057156157753e-005 -1.6057799908039162e-016 -8.6587057156157753e-005 0.99999999625134084 -3.412350380398e-017 8.000988353637803
2 62.797291958567392 7.5509463458634691 1.2251818778241905e-013 1.2033260224802819e-014 9.818059809816044e-015 1 0.99999999780262405 6.6292927316165785e-005 -1.2033911066286581e-014 -6.6292927316165785e-005 0.99999999780262405 -9.8172620681966168e-015 8.0007650590132968
1 65.271150500000005 15.1596429 1.1999999800000001 0 0 -1 
1 65.29029848099951 15.153418679416413 1.1999999800000001 -0.9510176171521536 0.30913668799778488 0 
1 65.29029848099951 15.153418679416413 -3.0806737370809399e-014 -0.9510176171521536 0.30913668799778471 7.6465263716280252e-016 
1 26.9751884 27.608084099999999 1.1999999800000001 0 0 -1 
2 24.499680577568142 19.984706297447566 1.1999999800000001 0 0 1 0.30885022447284521 0.95111068695660927 -0 -0.95111068695660927 0.30885022447284521 0 8.015237245357774
2 24.499801823785191 19.985471253257039 -2.2882496842947012e-014 -9.840330536157966e-016 -2.8672710907538248e-015 1 0.30886457667593981 0.95110602630558105 3.031011766007915e-015 -0.95110602630558105 0.30886457667593981 -5.0321295717026798e-017 8.0144722417034604
1 24.502110999999999 27.999943200000001 1.1999999800000001 0 0 -1 
1 24.514362027325998 27.999869675400003 1.1999999800000001 -0.99999999999798406 2.0079948573518422e-006 0 
1 24.514362027399976 27.999943175400002 -2.5783891692682719e-042 -0.99999999999798406 2.0079948577928795e-006 2.1046309710059685e-040 
1 5.6221985000000668e-005 27.999918900000342 1.1999999844947391 1.2283333505329891e-010 6.125000085071064e-005 -0.9999999981242188 
1 50.798934899999999 -6.8001040100400001 12.003891695870001 0 1.0256421129785466e-008 -1 
1 50.798934900002472 -6.8001038495894113 4.1999999399999997 0.00025833498666881863 -0.9999999666315168 0 
1 50.799244899999998 -8.0001000919050007 12.00389169586 0 4.8846205458377146e-007 -0.99999999999988076 
1 50.798934900000106 -6.800104010420462 11.999991700000001 0.00025833416860579408 -0.99999996663172819 0 
2 58.800146942881199 -6.8001199854692986 11.99909193933779 -2.007839819938896e-006 -0.99999999999798439 -7.9204095409940783e-010 -0.00011244271299799778 -5.6627399247417749e-010 0.99999999367831816 -0.99999999367630255 2.007839896305205e-006 -0.00011244271299663415 8.0008998112413536
2 58.800309493080078 -8.0001161558801108 11.998927092782587 -2.0078599575735359e-006 -0.99999999999798428 -7.8207609687519718e-010 -0.00013305642722800262 -5.1491741762438877e-010 0.99999999114799365 -0.99999999114597771 2.0078600438601974e-006 -0.00013305642722670049 8.0010646780428871
1 58.799247299999998 -6.8001199899999998 19.999991699999999 -2.000006383037144e-006 -0.99999999999800004 0 
1 62.797999900000001 -6.8001280199999998 19.999991699999999 -0.99999999999798372 2.0081262341740085e-006 0 
1 62.799996876298671 -8.0001289654449987 19.999991699999999 -0.99999999999629174 2.723349276570131e-006 0 
1 62.797999900000001 -6.8001280199999998 19.999991699999999 -1.9999984336567949e-006 -0.99999999999800004 0 
2 62.797100580929865 -6.8001279907286634 11.999092262058014 -2.0109325995933676e-006 -0.99999999999797817 -2.3007396988629074e-009 0.9999999936791748 -2.0109328455291869e-006 0.00011241710960349234 -0.00011241710960789168 -2.0746764538666105e-009 0.99999999368119685 8.0008993696424167
2 62.796932945377705 -8.0001289630729993 11.9989271313096 -2.0068488953425719e-006 -0.99999999999798628 5.2825027735692025e-010 0.99999999114638527 -2.0068488072932611e-006 0.0001330533797981488 -0.00013305337979682076 7.9526830094950632e-010 0.99999999114839899 8.0010646254606339
1 70.797999899999994 -6.8001440799999999 11.999991700000001 -1.9999984330179982e-006 -0.99999999999800004 0 
1 70.798003699999995 -6.8001440799999999 12.00389169586 0 0 -1 
1 70.797997499999994 -8.0001459709499994 12.003891695859771 0 2.4359000103447575e-007 -0.99999999999997036 
1 70.798003699999995 -6.8001440799999875 4.1999999399999997 -5.1666667109054221e-006 -0.99999999998665279 0 
2 0.00055887443585889152 -4.4752483334376228e-006 4.2005588193921612 2.0079338470708945e-006 0.99999999999798417 1.2459882611142749e-016 -0.00013304764056675631 2.6715098536627614e-010 -0.99999999114916271 -0.99999999114714688 2.0079338292989824e-006 0.00013304764056702452 4.2005588565706278
2 0.00039919136364058305 -4.4749276697498279e-006 4.2003991168796162 2.0079338444514167e-006 0.99999999999798417 -1.0037922475824711e-014 -0.00013304608851245206 2.6713770607418288e-010 -0.99999999114936922 -0.99999999114735338 2.0079338266812711e-006 0.00013304608851272024 3.0003991634350413
2 0.0006150935453734796 27.999845395476555 4.2005588050250484 2.0243414996433924e-006 0.99999999999795075 2.4613890948278884e-008 -0.00013304698942875833 2.4883223272581704e-008 -0.99999999114924898 -0.9999999911472004 2.024338206922361e-006 0.00013304698947885782 4.200558842203149
2 0.00045541173184171502 27.999772023081583 4.2003991168797885 2.0019679345650154e-006 0.99999999999799571 2.5369708349391477e-008 -0.0001330456456379994 2.5636061241307195e-008 -0.99999999114942772 -0.99999999114742411 2.0019645415172268e-006 0.00013304564568905532 3.0003991634350382
2 50.797399903504967 -3.7994191399985944 4.2006844556364964 -0.99999987462675211 -0.0002883753169177704 -0.00040937288239032045 0.00040943870308083686 -0.0002282245706698605 -0.99999989013674095 0.00028828185628559081 -0.99999993237660867 0.00022834261407236411 3.0006848053015087
2 50.797399980167739 -3.7991449377845363 4.200958663004009 -0.99999993615930483 -0.00020539925179983173 -0.0002923910630565079 0.00029243795196942781 -0.00022828888032409486 -0.99999993118211328 0.00020533248803628735 -0.99999995284766618 0.00022834893228650642 4.2009589521051254
2 70.798013614941425 -3.7997449382674295 4.2003991168807353 -0.99999999999794253 2.0285306480687587e-006 4.7099217924621028e-009 -4.979810062262886e-009 -0.00013304620846292691 -0.99999999114935312 -2.0285300034777137e-006 -0.99999999114729576 0.0001330462084727549 3.0003991634362084
2 70.798013813163692 -3.7995852583799827 4.2005587978413317 -0.99999999999790701 2.0453833758039053e-006 5.047437600816146e-008 -5.0746507619595465e-008 -0.00013304696874094548 -0.99999999114925087 -2.0453766422380028e-006 -0.99999999114716021 0.00013304696884446304 4.2005588350194243
1 9.1971159593604321e-011 4.580235518690931e-005 1.0842021700000001e-015 2.0079338472359189e-006 0.99999999999798417 0 
1 -4.1999999399999961 3.9610126256999959e-006 4.1999999399999997 2.0078679035213335e-006 0.99999999999798428 0 
1 50.787246147400019 -8.000103885905002 4.1999999399999997 0.99999999999798372 -2.008125246732073e-006 0 
1 50.801629369069992 -3.8001039760259303 0 0.99999999999798383 -2.0080617378629736e-006 0 
1 -2.9999999881124553 -0.013999567513344984 4.1999999399999997 2.0082353949993396e-006 0.9999999999979835 0 
1 50.80141335327999 -3.8001039764588014 1.1999999800000001 0.99999999999798395 -2.0080173638781047e-006 0 
1 -2.8019087012452816e-008 -0.013954186285771778 1.1999999800000001 2.0079338516899299e-006 0.99999999999798417 0 
1 50.786935835000023 -6.8001039059107553 4.1999999399999997 0.99999999999798483 -2.0075934735600141e-006 0 
Polygon3D 0
PolygonOnTriangulations 0
Surfaces 32
1 -2.99994373 27.999704699999999 8.9999942799999992 2.0079338699959526e-006 0.99999999999798417 0 0 0 -1 -0.99999999999798417 2.0079338699959526e-006 0 
1 -2.9999999599999998 -2.4095205800000001e-006 0 -0.99999999999798417 2.0079338499959525e-006 0 -2.0079338499959525e-006 -0.99999999999798417 0 0 0 1 
1 -2.2917748975295247 27.99981338125 1.9081688191874999 -2.9342457358614812e-005 -0.99999999919567895 -2.7343414944545116e-005 -0.70710678116125647 1.4135364466101231e-006 0.70710678121042592 -0.70710678060303411 4.0082964703048179e-005 -0.70710678063399213 
1 -4.1999999399999997 0 0 -0.99999999999798417 2.0079338499959525e-006 0 -2.0079338499959525e-006 -0.99999999999798417 0 0 0 1 
2 -2.9999598073263156 19.999870515036321 9.0001601160730154 -0.99999998138634716 -0.00013542819638819568 -0.00013742819634962274 0.00013742819760989401 0 -0.99999999055674516 0.0001354281951093127 -0.99999999082960189 1.861165293518849e-008 7.9998341856454358
1 -2.9999838900000002 7.99999649 16.999994300000001 1.0658141000000001e-014 -2.1400842100000001e-020 1 2.0079338499959525e-006 0.99999999999798417 8.0271466097878605e-030 -0.99999999999798417 2.0079338499959525e-006 1.0658141000021486e-014 
2 -2.9999839044493966 7.999830519418718 9.0001602292364868 -0.99999998081571129 0.00013952135253541073 -0.00013748588737475743 -0.00013952135385405281 -0.9999999902668959 0 -0.00013748588603659299 1.9182217142351982e-008 0.99999999054881539 7.9998340340980221
1 -2.9999999599999998 -9.8163333099999994e-007 4.1999999399999997 1.0149004499999948e-007 -0.99999999999999489 0 0 0 1 -0.99999999999999489 -1.0149004499999948e-007 0 
1 -2.291831119876131 1.2771912793749997e-007 1.9081688191874999 2.0079338493119073e-006 0.99999999999798417 3.3834193212151525e-015 0.70710678124560122 -1.4198236387514562e-006 -0.70710678112606851 -0.70710678112464298 1.4198236432934578e-006 -0.70710678124702664 
1 47.797767 -5.0224440100000001e-005 1.1999999800000001 -2.0079338502452051e-006 -0.99999999912211801 -4.1853700705111088e-005 -0.99999999999798406 2.007933852003886e-006 8.4039443509764992e-020 8.403946239339203e-011 4.185370070502671e-005 -0.99999999912413384 
1 47.797767 1.4210854699999999e-014 1.1999999800000001 0 0 -1 0.99999999999798417 -2.0079338499959525e-006 0 -2.0079338499959525e-006 -0.99999999999798417 -0 
1 47.797767 1.4210854699999999e-014 0 0 0 -1 0.99999999999798417 -2.0079338499959525e-006 0 -2.0079338499959525e-006 -0.99999999999798417 -0 
2 47.797635328974366 -3.0001317467096835 1.1999999800000001 0.00010999829437051253 0.00011007219809695124 -0.9999999878922432 1.654361225106055e-024 -0.99999999394205552 -0.00011007219876286737 -0.99999999395018768 1.2107754121527449e-008 -0.00010999829370414897 3.0001317442435571
1 50.798041549999994 -3.3996081149999999 0.59999999000000004 -0.99999995533886976 -0.00014694284083777186 0.00026024999528744263 -0.00014694282786396535 0.99999998920390021 6.8972257645581338e-008 -0.00026025000261273724 3.0730384306081895e-008 -0.99999996613496711 
1 50.798735257142845 -5.9509459514285705 2.0491735364973573 -0.99999999600839162 -4.2589710167498791e-005 -7.8545104632534219e-005 2.5424374823083384e-005 0.70710619084367154 -0.70710737107185817 8.5655227737381341e-005 -0.70710737024632253 -0.70710618693836369 
1 70.7980467 7.55147674 1.1999999800000001 0.99999999996097622 -2.0079338399216429e-006 8.6032462996642699e-006 -2.0079338399959527e-006 -0.99999999999798417 0 8.6032462996469277e-006 -1.7274749378915849e-011 -0.99999999996299216 
1 70.798008956250001 -6.0919752474999997 1.9081688191874999 0.99999999999795808 -2.0209167463057306e-006 4.7725324807589954e-009 -1.4323786254882955e-006 -0.70710678112631586 0.70710678124532833 -1.4256292455647366e-006 -0.70710678124389137 -0.7071067811277667 
2 62.797833558844417 7.5513396126260677 1.1999999800000014 0.00018657804552939188 0.00013558962526280741 -0.99999997340204294 -0.99999998259431599 3.3087224502121107e-024 -0.00018657804724446828 -2.5298047508143828e-008 0.99999999080772672 0.00013558962290277724 8.0002234721332766
1 26.9751884 27.608084099999999 1.1999999800000001 0.3091366880445206 0.95101761713696176 -4.8316109406958298e-014 0.95101761713696176 -0.3091366880445206 3.1554436208840472e-030 -1.4936282041263791e-014 -4.5949471237534226e-014 -1 
2 24.501973488040633 19.999177657086065 1.1999999800000203 0.00010100083596631748 0.00063702342124617262 -0.99999979199997435 0 -0.99999979710055786 -0.00063702342449536444 -0.99999999489941571 6.4339898404158137e-008 -0.0001010008154733042 8.0007655440956693
1 5.6221984999999997e-005 27.999918900000001 1.1999999800000001 2.0079338402522466e-006 0.99999999812562501 6.1194102807687504e-005 0.99999999999798417 -2.0079338440118202e-006 3.661936843578379e-019 1.2287371044768816e-010 6.1194102807564149e-005 -0.99999999812764095 
1 50.798934899999999 -6.8001039299999997 11.999991700000001 -0.99999996662867974 -0.0002583459689040709 0 -0 0 -1 0.0002583459689040709 -0.99999996662867974 -0 
1 62.797999900000001 -6.8001280199999998 19.999991699999999 -2.0079338499959525e-006 -0.99999999999798417 0 0.99999999999798417 -2.0079338499959525e-006 0 0 0 1 
1 62.797997500000001 -8.0001280000000001 19.999991699999999 -2.0079338499959525e-006 -0.99999999999798417 0 0.99999999999798417 -2.0079338499959525e-006 0 0 0 1 
2 58.799081506644612 -6.8001199897786782 12.000157427719822 0.00013541087463597067 -0.99999998139858415 -0.00013735620288580166 6.6174449004242214e-024 0.00013735620414509055 -0.99999999056663669 0.99999999083194746 0.00013541087335859067 1.8599523739963656e-008 7.9998342739981796
1 62.797999900000001 -6.8001280199999998 19.999991699999999 0 0 1 -0.99999999999798417 2.0079338499959525e-006 0 -2.0079338499959525e-006 -0.99999999999798417 0 
2 62.798166076483938 -6.8001280086416935 12.000157738483363 -0.00013972959395595989 -0.99999998076892926 -0.00013761461351387963 -0.99999999023782005 0.00013972959527904419 0 1.9228834250776485e-008 0.00013761461217046101 -0.99999999053110911 7.9998338252552843
1 70.798003699999995 -6.8001440799999999 4.1999999399999997 0.99999999998654832 -5.1868471799302279e-006 0 0 0 1 -5.1868471799302279e-006 -0.99999999998654832 0 
2 -5.1499264608345641e-007 -4.4741531149680784e-006 4.1999994231960009 2.0079019837068299e-006 0.99999999999798417 5.8187322683593167e-011 0.99999999999798417 -2.0079019837068299e-006 0 1.1683444064297615e-016 5.8187322683475869e-011 -1 4.199999423196032
2 -3.6269185266224468e-007 -4.4741534504133036e-006 4.1999995788430429 2.0077603464800458e-006 0.9999999999979845 -5.4925074478271222e-010 0.9999999999979845 -2.0077603464800458e-006 1.9721522630525295e-031 -1.1027638656493612e-015 -5.4925074478160524e-010 -1 2.9999995988430648
2 50.798628612678158 -3.8001043341979992 4.1999995762791293 0.99999999999798383 -2.0080782445093871e-006 -5.2833776608894246e-010 2.0080782445093871e-006 0.99999999999798383 0 5.2833776608787726e-010 -1.0609435738358947e-015 1 2.9999995962791535
2 50.798628570731225 -3.8001044842384339 4.1999994244803691 0.99999999999798395 -2.0080617375141917e-006 1.2790162519389993e-014 2.0080617375141917e-006 0.99999999999798395 0 -1.2790162519364204e-014 2.5683435971775156e-020 1 4.1999994244804002
Triangulations 0

TShapes 183
Ve
0.000182277095546811
-2.99994373 27.9997414 4.19999994
0 0

0101101
*
Ve
0.000634186873768534
-2.99994373 27.9997047 8.99999428
0 0

0101101
*
Ed
 1e-007 1 1 0
1  1 0 0.00239999717000039 4.80239433717
2  1 1 0 0.00239999717000039 4.80239433717
2  2 2 0 0.00239999717000039 4.80239433717
0

0101000
+183 0 -182 0 *
Ve
0.000255190253889678
-4.19994371 27.9997805 4.19999994
0 0

0101101
*
Ed
 0.000146801466445 1 1 0
1  2 0 -7.32747196251138e-014 1.19999996992893
2  3 1 0 -7.32747196251138e-014 1.19999996992893
2  4 3 0 -7.32747196251138e-014 1.19999996992893
4 G1 1 0 3 0
0

0101000
+183 0 -180 0 *
Ve
0.000532726626121075
-4.19994372 27.9997071 8.99999428
0 0

0101101
*
Ed
 1e-007 1 1 0
1  3 0 0.00239999717000039 4.80239433717
2  5 1 0 0.00239999717000039 4.80239433717
2  6 4 0 0.00239999717000039 4.80239433717
0

0101000
+180 0 -178 0 *
Ed
 0.000164839263522951 1 1 0
1  4 0 0 1.1999999900024
2  7 1 0 0 1.1999999900024
2  8 5 0 0 1.1999999900024
4 G1 1 0 5 0
0

0101000
+182 0 -178 0 *
Wi

0101100
-181 0 +179 0 +177 0 -176 0 *
Fa
0  1e-007 1 0

0101000
+175 0 *
Ve
0.000634186873768534
-2.9999598 19.9997047 16.9999943
0 0

0101101
*
Ed
 0.000634186873768534 1 1 0
1  5 0 0 1.57057141539003
2  9 5 0 0 1.57057141539003
2  10 2 0 0 1.57057141539003
0

0101000
+182 0 -173 0 *
Ve
0.000532726626121075
-4.19995978 19.9997078 16.9999943
0 0

0101101
*
Ed
 0.000532726626121075 1 1 0
1  6 0 0 1.5705301228454
2  11 5 0 0 1.5705301228454
2  12 4 0 0 1.5705301228454
0

0101000
+178 0 -171 0 *
Ed
 0.00016483821888912 1 1 0
1  7 0 0 1.1999999800024
2  13 5 0 0 1.1999999800024
2  14 6 0 0 1.1999999800024
4 G1 5 0 6 0
0

0101000
+173 0 -171 0 *
Wi

0101100
-172 0 +176 0 +170 0 -169 0 *
Fa
0  1e-007 5 0

0101000
+168 0 *
Ve
0.000634341491086808
-2.99998389 7.99999579 16.9999943
0 0

0101101
*
Ed
 1e-007 1 1 0
1  8 0 0 11.9997082100242
2  15 6 0 0 11.9997082100242
2  16 2 0 0 11.9997082100242
0

0101000
+166 0 -173 0 *
Ve
0.000532856853407813
-4.19998387 7.9999989 16.9999943
0 0

0101101
*
Ed
 1e-007 1 1 0
1  9 0 0 11.9997082000242
2  17 6 0 0 11.9997082000242
2  18 4 0 0 11.9997082000242
0

0101000
+164 0 -171 0 *
Ed
 0.000164945768816758 1 1 0
1  10 0 0 1.19999998000242
2  19 6 0 0 1.19999998000242
4 G1 6 0 7 0
2  20 7 0 0 1.19999998000242
0

0101000
+166 0 -164 0 *
Wi

0101100
+165 0 +169 0 -163 0 -162 0 *
Fa
0  1e-007 6 0

0101000
+161 0 *
Ve
0.000634341491086808
-2.99999996 -2.24728765e-006 8.99999428
0 0

0101101
*
Ed
 0.000634341491086808 1 1 0
1  11 0 0 1.57057138773268
2  21 2 0 0 1.57057138773268
2  22 7 0 0 1.57057138773268
0

0101000
+159 0 -166 0 *
Ve
0.000532856853407813
-4.19999994 -1.10342138e-006 8.99999428
0 0

0101101
*
Ed
 0.000532856853407813 1 1 0
1  12 0 0 1.57053024855448
2  23 4 0 0 1.57053024855448
2  24 7 0 0 1.57053024855448
0

0101000
+157 0 -164 0 *
Ed
 0.000164940390274426 1 1 0
1  13 0 -2.66453525910521e-015 1.19999997999987
2  25 8 0 -2.66453525910521e-015 1.19999997999987
4 G1 7 0 8 0
2  26 7 0 -2.66453525910521e-015 1.19999997999987
0

0101000
+159 0 -157 0 *
Wi

0101100
+158 0 +162 0 -156 0 -155 0 *
Fa
0  1e-007 7 0

0101000
+154 0 *
Ve
0.000182280508012707
-2.99999996 2.84020988e-007 4.19999994
0 0

0101101
*
Ed
 1e-007 1 1 0
1  14 0 0.00239999717000039 4.80239433717
2  27 8 0 0.00239999717000039 4.80239433717
2  28 2 0 0.00239999717000039 4.80239433717
0

0101000
+152 0 -159 0 *
Ve
0.00025518839483264
-4.19999994 1.42788725e-006 4.19999994
0 0

0101101
*
Ed
 1e-007 1 1 0
1  15 0 0 4.79999434
2  29 8 0 0 4.79999434
2  30 4 0 0 4.79999434
0

0101000
+150 0 -157 0 *
Ed
 5.06266789616195e-006 1 1 0
1  16 0 5.32907051820079e-015 1.19999997999975
2  31 8 0 5.32907051820079e-015 1.19999997999975
2  32 9 0 5.32907051820079e-015 1.19999997999975
4 G1 8 0 9 0
0

0101000
+152 0 -150 0 *
Wi

0101100
+151 0 +155 0 -149 0 -148 0 *
Fa
0  1e-007 8 0

0101000
+147 0 *
Ve
0.000214511583822664
47.7977673 -2.51122199e-005 1.19999998
0 0

0101101
*
Ve
0.000182280508012707
4.14167668e-011 2.0638094e-005 1.19999998
0 0

0101101
*
Ed
 1e-007 1 1 0
1  17 0 0.0238988835000013 47.8216658835046
2  33 10 0 0.0238988835000013 47.8216658835046
2  34 11 0 0.0238988835000013 47.8216658835046
0

0101000
+145 0 -144 0 *
Ve
0.00025518839483264
9.18208736e-011 4.5750314e-005 2.10207676e-009
0 0

0101101
*
Ed
 0.000100449884842608 1 1 0
1  18 0 2.10209627666653e-012 1.19999997684898
2  35 10 0 2.10209627666653e-012 1.19999997684898
2  36 9 0 2.10209627666653e-012 1.19999997684898
4 G1 10 0 9 0
0

0101000
+144 0 -142 0 *
Ve
0.00032730895673684
47.797767 1.29164035e-013 2.65629532e-015
0 0

0101101
*
Ed
 1e-007 1 1 0
1  19 0 0.0238988835000013 47.8216658834036
2  37 10 0 0.0238988835000013 47.8216658834036
2  38 12 0 0.0238988835000013 47.8216658834036
0

0101000
+140 0 -142 0 *
Ed
 0.000132103665806138 1 1 0
1  20 0 -3.15303339269715e-012 1.19999997999685
2  39 10 0 -3.15303339269715e-012 1.19999997999685
2  40 13 0 -3.15303339269715e-012 1.19999997999685
4 G1 10 0 13 0
0

0101000
+145 0 -140 0 *
Wi

0101100
+143 0 +141 0 -139 0 -138 0 *
Fa
0  1e-007 10 0

0101000
+137 0 *
Ve
0.000431604288080908
50.7979827 -2.99911226 1.19999998
0 0

0101101
*
Ed
 0.000214511583822664 1 1 0
1  21 0 0 1.57014645355167
2  41 13 0 0 1.57014645355167
2  42 11 0 0 1.57014645355167
0

0101000
+135 0 -145 0 *
Ve
0.000431604288080908
50.7977669 -2.99911226 -1.08420217e-016
0 0

0101101
*
Ed
 0.00032730895673684 1 1 0
1  22 0 0 1.57023455971147
2  43 13 0 0 1.57023455971147
2  44 12 0 0 1.57023455971147
0

0101000
+133 0 -140 0 *
Ed
 0.000431604288080908 1 1 0
1  23 0 0 1.19999998
2  45 13 0 0 1.19999998
2  46 14 0 0 1.19999998
4 G1 13 0 14 0
0

0101000
+135 0 -133 0 *
Wi

0101100
+134 0 +138 0 -132 0 -131 0 *
Fa
0  1e-007 13 0

0101000
-130 0 *
Ve
0.000800713948905733
50.7984127 -3.80010397 1.19999998
0 0

0101101
*
Ed
 5.96505972810318e-005 1 1 0
1  24 0 0.000400495863595829 0.801392205056947
2  47 14 0 0.000400495863595829 0.801392205056947
2  48 11 0 0.000400495863595829 0.801392205056947
0

0101000
+135 0 -128 0 *
Ve
0.000800713948905733
50.7983162 -3.80010397 4.33680869e-016
0 0

0101101
*
Ed
 5.9650594741843e-005 1 1 0
1  25 0 0.000400495863999809 0.80139224092616
2  49 14 0 0.000400495863999809 0.80139224092616
2  50 12 0 0.000400495863999809 0.80139224092616
0

0101000
+133 0 -126 0 *
Ed
 0.000800713948905733 1 1 0
1  26 0 0 1.19999994524012
2  51 14 0 0 1.19999994524012
2  52 15 0 0 1.19999994524012
4 G1 14 0 15 0
0

0101000
+128 0 -126 0 *
Wi

0101100
-127 0 +131 0 +125 0 -124 0 *
Fa
0  1e-007 14 0

0101000
+123 0 *
Ve
0.000182277062542705
70.7980187 -3.80014413 1.19999998
0 0

0101101
*
Ve
0.000395934431976991
70.7980518 7.55147674 1.19999998
0 0

0101101
*
Ed
 1e-007 1 1 0
1  27 0 0.00567581043 11.3572966804529
2  53 16 0 0.00567581043 11.3572966804529
2  54 11 0 0.00567581043 11.3572966804529
0

0101000
+121 0 -120 0 *
Ve
0.000255193073971756
70.7980239 -3.80014413 8.88169746e-011
0 0

0101101
*
Ed
 2.06032493410525e-005 1 1 0
1  28 0 8.88178419667408e-014 1.19999997986666
2  55 16 0 8.88178419667408e-014 1.19999997986666
2  56 17 0 8.88178419667408e-014 1.19999997986666
4 G1 16 0 17 0
0

0101000
+121 0 -118 0 *
Ve
0.000536566954558294
70.798057 7.55147397 1.31188463e-014
0 0

0101101
*
Ed
 1e-007 1 1 0
1  29 0 0.00567581043 11.3572939104529
2  57 16 0 0.00567581043 11.3572939104529
2  58 12 0 0.00567581043 11.3572939104529
0

0101000
+118 0 -116 0 *
Ed
 0.000224066079104928 1 1 0
1  30 0 -1.32116539925527e-013 1.19999998000071
2  59 16 0 -1.32116539925527e-013 1.19999998000071
2  60 18 0 -1.32116539925527e-013 1.19999998000071
4 G1 16 0 18 0
0

0101000
+120 0 -116 0 *
Wi

0101100
-119 0 +117 0 +115 0 -114 0 *
Fa
0  1e-007 16 0

0101000
+113 0 *
Ve
0.000395934431976991
65.2711505 15.1596429 1.19999998
0 0

0101101
*
Ed
 0.000395934431976991 1 1 0
1  31 0 0 1.25633488609254
2  61 18 0 0 1.25633488609254
2  62 11 0 0 1.25633488609254
0

0101000
+120 0 -111 0 *
Ve
0.000536566954558294
65.2711537 15.1596419 -1.53956708e-014
0 0

0101101
*
Ed
 0.000536566954558294 1 1 0
1  32 0 0 1.2563750249303
2  63 18 0 0 1.2563750249303
2  64 12 0 0 1.2563750249303
0

0101000
+116 0 -109 0 *
Ed
 0.00022409469656676 1 1 0
1  33 0 0 1.19999998
2  65 18 0 0 1.19999998
2  66 19 0 0 1.19999998
4 G1 18 0 19 0
0

0101000
+111 0 -109 0 *
Wi

0101100
-110 0 +114 0 +108 0 -107 0 *
Fa
0  1e-007 18 0

0101000
+106 0 *
Ve
0.000766086409645578
26.9751884 27.6080841 1.19999998
0 0

0101101
*
Ed
 1e-007 1 1 0
1  34 0 0.0201342022000024 40.2885387083944
2  67 19 0 0.0201342022000024 40.2885387083944
2  68 11 0 0.0201342022000024 40.2885387083944
0

0101000
+111 0 -104 0 *
Ve
0.000948456560275549
26.975189 27.6080839 6.50521303e-016
0 0

0101101
*
Ed
 1e-007 1 1 0
1  35 0 0.0201342022000024 40.2885380759565
2  69 19 0 0.0201342022000024 40.2885380759565
2  70 12 0 0.0201342022000024 40.2885380759565
0

0101000
+109 0 -102 0 *
Ed
 0.000766086409645578 1 1 0
1  36 0 0 1.19999998
2  71 19 0 0 1.19999998
2  72 20 0 0 1.19999998
4 G1 19 0 20 0
0

0101000
+104 0 -102 0 *
Wi

0101100
-103 0 +107 0 +101 0 -100 0 *
Fa
0  1e-007 19 0

0101000
+99 0 *
Ve
0.000766060274187848
24.502111 27.9999065 1.19999998
0 0

0101101
*
Ed
 0.00020283757836999 1 1 0
1  37 0 0 0.313680692754367
2  73 20 0 0 0.313680692754367
2  74 11 0 0 0.313680692754367
0

0101000
+104 0 -97 0 *
Ve
0.000948456560275549
24.5021117 27.9999432 5.42101086e-017
0 0

0101101
*
Ed
 0.000948456560275549 1 1 0
1  38 0 0 0.31371079493464
2  75 20 0 0 0.31371079493464
2  76 12 0 0 0.31371079493464
0

0101000
+102 0 -95 0 *
Ed
 0.000766060274187848 1 1 0
1  39 0 0 1.19999998
2  77 20 0 0 1.19999998
2  78 21 0 0 1.19999998
4 G1 20 0 21 0
0

0101000
+97 0 -95 0 *
Wi

0101100
-96 0 +100 0 +94 0 -93 0 *
Fa
0  1e-007 20 0

0101000
+92 0 *
Ve
0.000194092796106506
5.62218375e-005 27.9998455 1.19999998
0 0

0101101
*
Ed
 1e-007 1 1 0
1  40 0 0.0122510273999266 24.5143058053905
2  79 21 0 0.0122510273999266 24.5143058053905
2  80 11 0 0.0122510273999266 24.5143058053905
0

0101000
+97 0 -90 0 *
Ve
0.000255190253889678
5.6221985e-005 27.9999189 4.49366152e-009
0 0

0101101
*
Ed
 1e-007 1 1 0
1  41 0 0.0122510274000012 24.5143058053168
2  81 21 0 0.0122510274000012 24.5143058053168
2  82 12 0 0.0122510274000012 24.5143058053168
0

0101000
+95 0 -88 0 *
Ed
 0.000194092796106506 1 1 0
1  42 0 -1.01052499511829e-012 1.19999997775014
2  83 21 0 -1.01052499511829e-012 1.19999997775014
2  84 3 0 -1.01052499511829e-012 1.19999997775014
4 G1 21 0 3 0
0

0101000
+90 0 -88 0 *
Wi

0101100
-89 0 +93 0 +87 0 -86 0 *
Fa
0  1e-007 21 0

0101000
+85 0 *
Ve
0.000634068408464745
50.7990911 -6.80010397 11.9999923
0 0

0101101
*
Ve
0.000624806232415986
50.7987787 -6.80010389 4.19999993
0 0

0101101
*
Ed
 1e-007 1 1 0
1  43 0 0.00389999587000034 7.80389176587
2  85 22 0 0.00389999587000034 7.80389176587
2  86 23 0 0.00389999587000034 7.80389176587
0

0101000
+83 0 -82 0 *
Ve
0.000669377064926313
50.7989325 -8.00010001 4.19999994
0 0

0101101
*
Ed
 0.000624806232415986 1 1 0
1  44 0 7.16795542983824e-011 1.19999231045251
2  87 22 0 7.16795542983824e-011 1.19999231045251
2  88 15 0 7.16795542983824e-011 1.19999231045251
4 G1 22 0 15 0
0

0101000
+82 0 -80 0 *
Ve
0.000532628970264218
50.7992449 -8.000102 11.9999917
0 0

0101101
*
Ed
 7.62737477068149e-006 1 1 0
1  45 0 0.00389999585999992 7.80389175585911
2  89 22 0 0.00389999585999992 7.80389175585911
2  90 24 0 0.00389999585999992 7.80389175585911
0

0101000
+78 0 -80 0 *
Ed
 0.000312403123696959 1 1 0
1  46 0 -8.16795547921011e-011 1.19999611962133
2  91 22 0 -8.16795547921011e-011 1.19999611962133
2  92 25 0 -8.16795547921011e-011 1.19999611962133
4 G1 22 0 25 0
0

0101000
+83 0 -78 0 *
Wi

0101100
+81 0 +79 0 -77 0 -76 0 *
Fa
0  1e-007 22 0

0101000
+75 0 *
Ve
0.000634068408464745
58.7992473 -6.80011999 19.9999917
0 0

0101101
*
Ed
 0.000634068408464745 1 1 0
1  47 0 0 1.57057135125118
2  93 25 0 0 1.57057135125118
2  94 23 0 0 1.57057135125118
0

0101000
+73 0 -83 0 *
Ve
0.000532628970264218
58.7992449 -8.00011807 19.9999917
0 0

0101101
*
Ed
 0.000532628970264218 1 1 0
1  48 0 0 1.57053021217249
2  95 25 0 0 1.57053021217249
2  96 24 0 0 1.57053021217249
0

0101000
+71 0 -78 0 *
Ed
 0.000164751383151913 1 1 0
1  49 0 0 1.1999961700024
2  97 25 0 0 1.1999961700024
2  98 26 0 0 1.1999961700024
4 G1 25 0 26 0
0

0101000
+73 0 -71 0 *
Wi

0101100
+72 0 +76 0 -70 0 -69 0 *
Fa
0  1e-007 25 0

0101000
+68 0 *
Ve
0.000634749732472288
62.7980006 -6.80012802 19.9999917
0 0

0101101
*
Ed
 1e-007 1 1 0
1  50 0 0 3.99875260000807
2  99 26 0 0 3.99875260000807
2  100 23 0 0 3.99875260000807
0

0101000
+66 0 -73 0 *
Ve
0.00053319407665164
62.7979975 -8.00012848 19.9999917
0 0

0101101
*
Ed
 1.90078830610103e-006 1 1 0
1  51 0 0.00199937629999911 4.00075197631351
2  101 26 0 0.00199937629999911 4.00075197631351
2  102 24 0 0.00199937629999911 4.00075197631351
0

0101000
+64 0 -71 0 *
Ed
 0.00016519976653715 1 1 0
1  52 0 0 1.2000004600024
2  103 26 0 0 1.2000004600024
2  104 27 0 0 1.2000004600024
4 G1 26 0 27 0
0

0101000
+66 0 -64 0 *
Wi

0101100
+65 0 +69 0 -63 0 -62 0 *
Fa
0  1e-007 26 0

0101000
+61 0 *
Ve
0.000634749732472288
70.7980018 -6.80014408 11.9999917
0 0

0101101
*
Ed
 0.000634749732472288 1 1 0
1  53 0 0 1.57057141994894
2  105 27 0 0 1.57057141994894
2  106 23 0 0 1.57057141994894
0

0101000
+59 0 -66 0 *
Ve
0.00053319407665164
70.7979975 -8.00014502 11.9999917
0 0

0101101
*
Ed
 0.00053319407665164 1 1 0
1  54 0 0 1.57053022179303
2  107 27 0 0 1.57053022179303
2  108 24 0 0 1.57053022179303
0

0101000
+57 0 -64 0 *
Ed
 0.000165199708352488 1 1 0
1  55 0 0 1.2000009400024
2  109 27 0 0 1.2000009400024
2  110 28 0 0 1.2000009400024
4 G1 27 0 28 0
0

0101000
+59 0 -57 0 *
Wi

0101100
+58 0 +62 0 -56 0 -55 0 *
Fa
0  1e-007 27 0

0101000
+54 0 *
Ve
0.000182277062542705
70.7980056 -6.80014408 4.19999994
0 0

0101101
*
Ed
 1e-007 1 1 0
1  56 0 0.00389999585999945 7.80389175586
2  111 28 0 0.00389999585999945 7.80389175586
2  112 23 0 0.00389999585999945 7.80389175586
0

0101000
+59 0 -52 0 *
Ve
0.000255193073971756
70.7980013 -8.00014407 4.19999994
0 0

0101101
*
Ed
 1.90654826469834e-006 1 1 0
1  57 0 0.00389999585999957 7.80389175586
2  113 28 0 0.00389999585999957 7.80389175586
2  114 24 0 0.00389999585999957 7.80389175586
0

0101000
+57 0 -50 0 *
Ed
 7.60007598935345e-006 1 1 0
1  58 0 1.24344978756358e-014 1.19999998999608
2  115 28 0 1.24344978756358e-014 1.19999998999608
2  116 17 0 1.24344978756358e-014 1.19999998999608
4 G1 28 0 17 0
0

0101000
+52 0 -50 0 *
Wi

0101100
-51 0 +55 0 +49 0 -48 0 *
Fa
0  1e-007 28 0

0101000
+47 0 *
Ed
 0.00025518839483264 1 1 0
1  59 0 0 1.57053023033507
2  117 9 0 0 1.57053023033507
2  118 29 0 0 1.57053023033507
0

0101000
+142 0 -150 0 *
Ed
 0.000182280508012707 1 1 0
1  60 0 0 1.5705302394481
2  119 9 0 0 1.5705302394481
2  120 30 0 0 1.5705302394481
0

0101000
+144 0 -152 0 *
Wi

0101100
+141 0 +45 0 -148 0 -44 0 *
Fa
0  1e-007 9 0

0101000
+43 0 *
Ed
 0.000255190253889678 1 1 0
1  61 0 0 1.57053023440641
2  121 3 0 0 1.57053023440641
2  122 29 0 0 1.57053023440641
0

0101000
+88 0 -180 0 *
Ed
 0.000182277095546811 1 1 0
1  62 0 0 1.57053023989044
2  123 3 0 0 1.57053023989044
2  124 30 0 0 1.57053023989044
0

0101000
+90 0 -183 0 *
Wi

0101100
+179 0 -41 0 -86 0 +40 0 *
Fa
0  1e-007 3 0

0101000
+39 0 *
Ed
 0.000519168295577407 1 1 0
1  63 0 0 1.57033981233387
2  125 15 0 0 1.57033981233387
2  126 31 0 0 1.57033981233387
0

0101000
+128 0 -82 0 *
Ed
 0.000588992957265048 1 1 0
1  64 0 0 1.57033973773444
2  127 15 0 0 1.57033973773444
2  128 32 0 0 1.57033973773444
0

0101000
+126 0 -80 0 *
Wi

0101100
-37 0 +124 0 +36 0 -79 0 *
Fa
0  1e-007 15 0

0101000
+35 0 *
Ed
 0.000182277062542705 1 1 0
1  65 0 0 1.57053023932734
2  129 17 0 0 1.57053023932734
2  130 31 0 0 1.57053023932734
0

0101000
+121 0 -52 0 *
Ed
 0.000255193073971756 1 1 0
1  66 0 0 1.57053023613716
2  131 17 0 0 1.57053023613716
2  132 32 0 0 1.57053023613716
0

0101000
+118 0 -50 0 *
Wi

0101100
+33 0 +48 0 -32 0 -117 0 *
Fa
0  1e-007 17 0

0101000
+31 0 *
Ed
 1e-007 1 1 0
1  67 0 -5.20411858795109e-008 27.9997996977013
2  133 29 0 -5.20411858795109e-008 27.9997996977013
2  134 12 0 -5.20411858795109e-008 27.9997996977013
4 G1 29 0 12 0
0

0101000
+142 0 -88 0 *
Ed
 1e-007 1 1 0
1  68 0 -1.81674569999975e-009 27.9997765390438
2  135 29 0 -1.81674569999975e-009 27.9997765390438
2  136 4 0 -1.81674569999975e-009 27.9997765390438
4 G1 29 0 4 0
0

0101000
+150 0 -180 0 *
Wi

0101100
-29 0 +45 0 +28 0 -41 0 *
Fa
0  1e-007 29 0

0101000
+27 0 *
Ed
 1e-007 1 1 0
1  69 0 0.0119987526000031 20.0107513526403
2  137 24 0 0.0119987526000031 20.0107513526403
2  138 32 0 0.0119987526000031 20.0107513526403
4 G1 24 0 32 0
0

0101000
+80 0 -50 0 *
Wi

0101100
-49 0 +56 0 +63 0 +70 0 +77 0 +25 0 *
Fa
0  1e-007 24 0

0101000
+24 0 *
Ed
 1e-007 1 1 0
1  70 0 -0.00300086906999902 19.9963842309703
2  139 12 0 -0.00300086906999902 19.9963842309703
2  140 32 0 -0.00300086906999902 19.9963842309703
4 G1 12 0 32 0
0

0101000
+126 0 -118 0 *
Wi

0101100
-87 0 -94 0 -101 0 -108 0 -115 0 -22 0 -125 0 +132 0 +139 0 +29 0 
*
Fa
0  1e-007 12 0

0101000
+21 0 *
Wi

0101100
-28 0 +149 0 +156 0 +163 0 -170 0 -177 0 *
Fa
0  1e-007 4 0

0101000
+19 0 *
Wi

0101100
+36 0 +25 0 -32 0 -22 0 *
Fa
0  1e-007 32 0

0101000
-17 0 *
Ed
 1.14564085301151e-007 1 1 0
1  71 0 0.0139998515343457 28.0137042675698
2  141 2 0 0.0139998515343457 28.0137042675698
2  142 30 0 0.0139998515343457 28.0137042675698
4 G1 2 0 30 0
0

0101000
+152 0 -183 0 *
Wi

0101100
+151 0 +158 0 +165 0 -172 0 -181 0 -15 0 *
Fa
0  1e-007 2 0

0101000
+14 0 *
Ed
 1e-007 1 1 0
1  72 0 -0.00300065328000337 19.9966053467603
2  143 11 0 -0.00300065328000337 19.9966053467603
2  144 31 0 -0.00300065328000337 19.9966053467603
4 G1 11 0 31 0
0

0101000
+128 0 -121 0 *
Ed
 1e-007 1 1 0
1  73 0 0.0139999366 28.0137996863423
2  145 11 0 0.0139999366 28.0137996863423
2  146 30 0 0.0139999366 28.0137996863423
4 G1 11 0 30 0
0

0101000
+144 0 -90 0 *
Wi

0101100
-96 0 -103 0 -110 0 -119 0 -12 0 -127 0 +134 0 +143 0 +11 0 -89 0 
*
Fa
0  1e-007 11 0

0101000
+10 0 *
Ed
 1e-007 1 1 0
1  74 0 0.0119990650000006 20.0110678650403
2  147 23 0 0.0119990650000006 20.0110678650403
2  148 31 0 0.0119990650000006 20.0110678650403
4 G1 23 0 31 0
0

0101000
+82 0 -52 0 *
Wi

0101100
+58 0 +65 0 +72 0 +81 0 +8 0 -51 0 *
Fa
0  1e-007 23 0

0101000
+7 0 *
Wi

0101100
+44 0 +15 0 -40 0 -11 0 *
Fa
0  1e-007 30 0

0101000
+5 0 *
Wi

0101100
-12 0 +37 0 +8 0 -33 0 *
Fa
0  1e-007 31 0

0101000
-3 0 *
Sh

0101100
+174 0 +167 0 +160 0 +153 0 +146 0 +136 0 -129 0 +122 0 +112 0 +105 0 
+98 0 +91 0 +84 0 +74 0 +67 0 +60 0 +53 0 +46 0 -42 0 -38 0 
+34 0 +30 0 +26 0 +23 0 +20 0 +18 0 +16 0 -13 0 -9 0 -6 0 
-4 0 -2 0 *

+1 0 