DBRep_DrawableShape

CASCADE Topology V1, (c) Matra-Datavision
Locations 0
Curve2ds 106
1 4.4999971399999996 8.4403044553669233e-009 -1 0 
1 -27.999707109577049 4.4999971399999996 0 1 
1 4.7999943399999996 7.3473227501915206e-011 0 1 
1 2.1213203104608609 -1.1198183466472267 0.70710678142698924 0.7071067809461058 
1 4.4999971399999996 1.1999999884427239 -1 0 
1 -27.999707109577074 4.4999971399999996 0 1 
1 -8.0000000200000052 9.5420471524742284e-010 -1.0658141000021485e-014 1 
1 19.999708210040321 -9.5469048066857722e-010 2.0000000072549871e-014 1 
1 -3.9999994497683606 6.5314094579057685e-009 1 8.5554460394963451e-044 
1 -3.9999994497683602 16.999994300000004 -1 8.0271466097878591e-030 
1 -3.9999994497683602 1.1999999865338289 1 8.5554460394963451e-044 
1 -3.9999994497683602 16.999994300000019 -1 8.0271466097878591e-030 
1 -7.9999974716316666 -8.4344258433576037e-006 -2.1094238949957374e-006 0.99999999999777522 
1 12.799994360000001 -8.4409601197599656e-006 1.0658140999997775e-014 1 
1 -2.0999999699999998 -2.8674840280018693e-012 1 0 
1 -1.4278872490031704e-006 2.0999999699999998 0 1 
1 -2.0999999699999998 1.1999999800022221 1 0 
1 1.1034213829726502e-006 2.0999999699999998 0 1 
1 0 -5.3290705182007893e-015 2.2204460862582153e-015 1 
1 -2.1213203158391174 -1.1198183379683102 -0.7071067812470283 0.70710678112606695 
1 5.0427217956995969e-011 1.334609710512788e-025 1 8.4039430585067945e-020 
1 5.0420135445422607e-011 5.0224440114109625e-005 -1 -2.0079339531136813e-015 
1 47.797767000004491 -2.1020922597701364e-012 4.7840618874642744e-019 1 
1 2.121320314704465 -1.1198183376012485 0.70710678112606851 0.70710678124702664 
1 5.0420135322817315e-011 1.1999999810510396 1 8.4039430585067945e-020 
1 5.0427218079601248e-011 6.1060416253999361e-014 -1 -2.0079339531136813e-015 
1 -2.9998530002401229 0.30031916231287697 0.00026025623208728179 0.9999999661333463 
1 3.399564482433183 -0.29968060362321869 4.1823491932131921e-005 0.99999999912539772 
1 1.7000245149724054 -0.59999989306448742 -0.99999999999999767 -6.8972259981329072e-008 
1 3.000184306209531 1.6995776126512721 0.00014895077964201774 0.99999998890683262 
1 1.7000244322056919 0.60000012757354737 -0.99999999999999767 -6.8972259981329072e-008 
1 2.9998720062132791 1.6995776591686005 0.00014895077964201774 0.99999998890683262 
1 -0.40049583212042106 -0.60000002241821015 -4.5338952075842057e-008 0.999999999999999 
1 2.1213305480258038 -0.92042038783271451 0.70710737809661672 0.70710618427597449 
1 3.7757614615123511 4.8308510995833219e-021 -1 -3.6436165344447968e-027 
1 23.000264537087912 -3.7757614615125812 -1.0000000248033172e-014 -1 
1 11.351620870022899 -1.4632740885535674e-013 -1.7234765748415799e-011 1 
1 -2.1213203128580083 -1.1198183362985223 -0.70710678125759396 0.70710678111550107 
1 3.7757614615123511 1.1999999800444097 -1 -3.6436165344447968e-027 
1 23.000274860983289 -3.7757614615125812 -1.0000000248033172e-014 -1 
1 -5.8115958709854825 -0.0002003016735164529 2.7965422547526307e-006 0.99999999999608968 
1 46.079977045541497 -0.00020030167350904016 9.0463526061460273e-006 0.99999999995908173 
1 14.168655382373839 2.5243548967072378e-029 -1 -3.1554436208840472e-030 
1 -7.3479843605587636 -23.228018146829061 -0.95101823786106487 -0.30913477846343207 
1 14.168655382373842 1.1999999800000001 -1 -3.1554436208840472e-030 
1 -7.3479843605587778 -23.228018146829005 -0.95101823786106487 -0.30913477846343207 
1 -1.2673461667002499 0.0023002379768251036 -0.00019795282198083932 0.99999998040733995 
1 25.769863646523731 0.0023002379811319848 -0.00018825674395477908 0.99999998227969911 
1 23.898883499951719 8.821676092086127e-018 -1 -3.6619368435783781e-019 
1 -23.898883499951889 -27.999822925302265 -1 5.9841323418058092e-015 
1 23.898883499951719 1.1999999822468312 -1 -3.6619368435783781e-019 
1 -23.898883499951889 -27.999896358224547 -1 5.9841323418058092e-015 
1 -1.9917858309257921e-020 -4.4947390337424006e-009 -1.5261496703706974e-013 1 
1 -2.1213203109890966 -1.1198183355313347 -0.70710678029079044 0.70710678208230482 
1 -3.9999999999999982 -3.3287818057624474e-009 1 0 
1 -11.99906500002505 -4 0 -1 
1 7.7999917600000011 -8.0410584876827415e-008 -0 1 
1 -2.121310005530229 -0.92041683155424714 -0.70710617713709578 0.70710738523548322 
1 -3.9999999999999982 1.2000000173441128 1 0 
1 -11.998752584857026 -4 0 -1 
1 -8.0000000000000018 0.0015620000362816301 -0 1 
1 11.999064593351379 0.0015620033121239104 -0.00026035390268653859 0.99999996610792208 
1 0 0 1 0 
1 0 0 -1 0 
1 -4.7602920527162582e-009 1.1999999800023993 1 0 
1 -4.7602881636603867e-009 0 -1 0 
1 -8.0000037999756834 1.2713920145166429e-005 3.1789133299508298e-006 0.99999999999494738 
1 15.799991759999999 1.271739857528387e-005 0 1 
1 7.8999958800000005 3.4784299885173802e-009 -1 0 
1 8.000003800016108 -7.8999958799999987 0 -1 
1 7.8999958800000005 1.1999999834868931 -1 0 
1 7.9999999757995877 -7.8999958799999987 0 -1 
1 0 -1.2434497875634488e-014 0 1 
1 2.1213203106461762 -1.1198183429923638 0.70710678112777725 0.70710678124531778 
2 -3.8861966977776774e-009 -3.2419290243744143 0.70701269597870753 0.70720085387739728 -0.70720085387739728 0.70701269597870753 4.2005588565706278
7 0 0  1 2 2  1.5707962041797425 -2.1638771708693054e-010  3.1415927766382241 1.6182463869674526e-010 
 0 2 1.5705302303350652 2
2 9.8601704578982208e-009 -3.2417031846616147 0.70701269707632175 0.70720085278007516 -0.70720085278007516 0.70701269707632175 3.0003991634350413
7 0 0  1 2 2  1.5707962059006064 1.6757806075040377e-009  3.1415927739761043 5.4855241355047251e-010 
 0 2 1.5705302394481044 2
7 0 0  8 9 2  -2.9698484374771881 -0.27129021257221009  -2.3866636815699693 0.31173938162948789  -1.672669290408457 0.76392480498192672  -0.86211676810570825 1.0510258858594952  -2.0385915178167124e-010 1.1495614111123715  0.86211676754704714 1.051025884549617  1.6726692894198472 0.76392480243383409  2.3866636798939673 0.31173937799297402  2.9698484349128123 -0.27129021709731171 
 0 9 1.5705302344064112 9
7 0 0  1 2 2  1.5707962039672989 27.999849973966207  3.1415927762507381 27.999849939878221 
 0 2 1.5705302344064112 2
7 0 0  8 9 2  -2.1213203141648327 -1.1198183380272217  -1.7047597746644292 -0.70336862719762894  -1.1947637809312079 -0.38037903863336475  -0.61579769319177124 -0.17530683797711322  -1.3471161963707345e-009 -0.10492432052236622  0.61579769017161556 -0.17530684063921442  1.1947637770378954 -0.38037904379661525  1.7047597693778158 -0.70336863456457444  2.1213203070790847 -1.119818347194292 
 0 9 1.5705302398904428 9
7 0 0  1 2 2  1.5707962042819772 27.99977657585838  3.1415927791019769 27.999776480724268 
 0 2 1.5705302398904428 2
7 0 0  8 9 2  2.1213305589989639 -0.92042035086391749  1.7047415611546559 -0.50402084625826005  1.1947396960837455 -0.18107650620665838  0.61578606108582612 0.023964282076825771  1.1172744324383643e-005 0.094335830041710089  -0.61576382819095699 0.023965297019986842  -1.1947177910854094 -0.18107453699437004  -1.7047201726255761 -0.50401803643600207  -2.1213098363809619 -0.92041685439839194 
 0 9 1.5703398123338692 9
7 0 0  1 2 2  4.7123891017839634 -1.1109386832686141e-007  3.1415925843598789 -0.00035708117194133138 
 0 2 1.5703398123338692 2
7 0 0  8 9 2  2.9698593901430459 -0.071892940680005957  2.3866347723145607 0.51106637164659929  1.6726321493770215 0.96318844711545015  0.86209705559230798 1.2502455464793512  1.2210194761941295e-005 1.3487657083473552  -0.86207279437029882 1.2502469566768148  -1.6726083522488429 0.96319118317395036  -2.3866117060648602 0.51107027566956109  -2.9698372662873567 -0.07188808262119073 
 0 9 1.5703397377344375 9
7 0 0  1 2 2  4.712389102822395 -7.073231955700976e-008  3.141592555682009 -0.00035700251322623444 
 0 2 1.5703397377344375 2
2 -7.8934105918193609e-009 -3.24170318324318 -0.70701269711076153 0.70720085274564437 0.70720085274564437 0.70701269711076153 3.0003991634362084
7 0 0  1 2 2  4.7123891018940052 19.999384988946453  3.1415925288271271 19.999384940133986 
 0 2 1.5705302393273441 2
2 -7.1348444929952848e-009 -3.2419290054647592 -0.70701269657302679 0.70720085328323601 0.70720085328323601 0.70701269657302679 4.200558835019419
7 0 0  1 2 2  4.7123891028223932 19.999385029308016  3.1415925308466326 19.999385084549559 
 0 2 1.5705302361371642 2
1 1.570796204179721 5.0276264949293751e-005 -7.5865571120005629e-012 1 
1 -47.797766999903644 5.0172399140728688e-005 -2.7600335652220874e-015 -1 
1 3.1415927766383809 1.9785636413391226e-009 -1.3854123740135996e-011 1 
1 -3.9610126256920177e-006 4.1999999399999997 -1 0 
1 -12.010751352624188 -15.799991759999999 1 0 
1 3.1415925308470074 -0.01137398947308842 3.0422008295325351e-015 1 
1 3.0038699994213438 3.8000979444613523 1 1.2788786702149537e-010 
1 4.712389102822395 0.0030007983376794658 -8.8820572758342914e-017 1 
1 0.013997157992793217 4.1999999399999997 -1 0 
1 3.1415927739728979 -0.014001116640153938 1.8308362539851354e-010 1 
1 3.0036539836313429 3.8000979453279689 1 8.3513882152226523e-011 
1 4.7123891014950976 0.0027847421861214011 2.029358913481545e-011 1 
1 -47.797766999903658 0.014050161040127641 1.6939773795656122e-015 -1 
1 1.5707962059013991 -0.013949710483869291 -5.7835103043305129e-011 1 
1 -12.011064065024186 -15.799991759999999 1 0 
1 3.1415925323515448 -0.011686753444240616 -1.7611264194425574e-010 1 
Curves 53
1 -2.9999437384403045 27.999704700000024 4.4999971399999996 -0 -0 1 
1 -2.9999437300734733 27.999704699999999 4.1999999399999997 -0.99999999999800004 2.000000049805771e-006 0 
1 -4.1999437184403048 27.999707109520628 4.4999971399999996 -0 -0 1 
1 -2.9999437309542047 27.999704700000002 16.999994300000004 -0.99999999999798417 2.0079338699959526e-006 1.0658141000021486e-014 
1 -2.9999919282657048 3.9999970402397165 16.999994300000004 2.0079338499959525e-006 0.99999999999798417 8.0271466097878605e-030 
1 -4.1999919082657051 3.9999994497602964 16.999994300000019 2.0079338499959525e-006 0.99999999999798417 8.0271466097878605e-030 
1 -2.99999151903988 -9.8163247482863064e-007 16.999994300000001 -0.99999999999999489 -1.0149004499999948e-007 1.0658140999997775e-014 
1 -2.9999999599971323 -9.8163333099970899e-007 2.0999999699999998 0 0 1 
1 -4.1999999400022157 -1.103421382970424e-006 2.0999999699999998 0 0 1 
1 -2.9999999599999945 -9.8163333099999931e-007 4.1999999399999997 -0.99999999999999489 -1.0149004252483317e-007 2.2204460862582153e-015 
1 47.797766999949573 -5.0224440099898757e-005 1.1999999800000001 -0.99999999999798417 2.0079338520038865e-006 0 
1 9.186401619982335e-011 4.5750314099912015e-005 1.1999999800021022 8.4039462288146299e-011 4.1853700890869723e-005 -0.99999999912413384 
1 47.797767000050428 -4.6950816072019419e-014 -1.1102230246251565e-016 -0.99999999999798417 2.0079338520038865e-006 0 
1 50.797620000259315 -4.3678478154700348e-005 0.89968081795016253 -0.00026025614804729762 4.1854221864880535e-005 -0.99999996525748025 
1 50.797947893564064 -1.6995836368194563 1.1999999800000001 0.00014694284581399583 -0.99999998920389999 -0 
1 50.797635593567719 -1.6995836827097071 0 0.00014694284581399583 -0.99999998920389999 -0 
1 50.798196900000001 -3.8001039699999999 1.1999999800000001 -0.00016083333392501959 0 -0.99999998706631932 
1 70.798039118520791 3.7757152784952606 1.1999999800000001 2.0079338399959523e-006 0.99999999999798417 0 
1 70.798023900000004 -3.8001441300000001 1.1999999800000889 8.5833334769887334e-006 0 -0.99999999996316324 
1 70.798049442416172 3.7757152784745309 0 2.0079338399959523e-006 0.99999999999798417 0 
1 70.798058367576772 13.36307261097377 1.2002002816735091 8.6032406843414575e-006 -2.796559529496372e-006 -0.99999999995908173 
1 40.449829279779955 23.228032901048778 1.1999999800000001 -0.95101761713696176 0.3091366880445206 -0 
1 40.449829279779941 23.228032901048721 0 -0.95101761713696176 0.3091366880445206 -0 
1 25.769919868457066 27.99986729657963 1.197699742023175 -0.00018825662108069125 6.1194479730273773e-005 -0.99999998040733984 
1 23.898939721888539 27.999870912622988 1.1999999800000001 -0.99999999999798417 2.0079338440118202e-006 -0 
1 23.898939722035987 27.99994434554527 0 -0.99999999999798417 2.0079338440118202e-006 -0 
1 5.6221985000000668e-005 27.999918900000342 1.1999999844947391 1.2283333505329891e-010 6.125000085071064e-005 -0.9999999981242188 
1 50.798934899999139 -6.800103926671218 15.999991699999999 0 0 -1 
1 50.798934900002472 -6.8001038495894113 4.1999999399999997 0.00025833498666881863 -0.9999999666315168 0 
1 50.799244915167165 -8.0001039072985272 15.999991699999999 0 0 -1 
1 50.79893530353641 -6.8016659299841553 19.999991700000002 0.0002583459689040709 -0.99999996662867974 0 
1 62.797999900000001 -6.8001280199999998 19.999991699999999 -0.99999999999798417 2.0079338499959525e-006 0 
1 62.797997495239713 -8.0001279999999895 19.999991699999999 -0.99999999999798417 2.0079338499959525e-006 0 
1 70.798003699934029 -6.800156797398575 19.999991699999999 -5.1868471799302279e-006 -0.99999999998654832 0 
1 70.798003699999981 -6.8001440834784299 12.09999582 -0 -0 -1 
1 70.797997475783461 -8.000144063470751 12.09999582 -0 -0 -1 
1 70.798003699999995 -6.8001440799999875 4.1999999399999997 -5.1666667109054221e-006 -0.99999999998665279 0 
2 0.00055887443585889152 -4.4752483334376228e-006 4.2005588193921612 2.0079338470708945e-006 0.99999999999798417 1.2459882611142749e-016 -0.00013304764056675628 2.6715098536627609e-010 -0.9999999911491626 -0.99999999114714677 2.007933829298982e-006 0.00013304764056702449 4.2005588565706278
2 0.00039919136364058305 -4.4749276697498279e-006 4.2003991168796162 2.0079338444514167e-006 0.99999999999798417 -1.0037922475824711e-014 -0.00013304608851245203 2.6713770607418283e-010 -0.99999999114936911 -0.99999999114735327 2.0079338266812707e-006 0.00013304608851272021 3.0003991634350413
2 0.0006150935453734796 27.999845395476555 4.2005588050250484 2.0243414996433924e-006 0.99999999999795075 2.4613890948278884e-008 -0.00013304698942875833 2.4883223272581711e-008 -0.99999999114924909 -0.99999999114720028 2.024338206922361e-006 0.00013304698947885779 4.200558842203149
2 0.00045541173184171502 27.999772023081583 4.2003991168797885 2.0019679345650154e-006 0.99999999999799571 2.5369708349391477e-008 -0.0001330456456379994 2.5636061241307195e-008 -0.99999999114942772 -0.99999999114742411 2.0019645415172268e-006 0.00013304564568905532 3.0003991634350382
2 50.797399903504967 -3.7994191399985944 4.2006844556364964 -0.99999987462675211 -0.0002883753169177704 -0.00040937288239032045 0.0004094387030808368 -0.00022822457066986048 -0.99999989013674084 0.00028828185628559081 -0.99999993237660878 0.00022834261407236414 3.0006848053015087
2 50.797399980167739 -3.7991449377845363 4.200958663004009 -0.99999993615930483 -0.00020539925179983173 -0.0002923910630565079 0.00029243795196942787 -0.00022828888032409489 -0.99999993118211339 0.00020533248803628732 -0.99999995284766607 0.00022834893228650639 4.2009589521051254
2 70.798013614941425 -3.7997449382674295 4.2003991168807353 -0.99999999999794253 2.0285306480687587e-006 4.7099217924621028e-009 -4.979810062262886e-009 -0.00013304620846292693 -0.99999999114935312 -2.0285300034777137e-006 -0.99999999114729576 0.00013304620847275493 3.0003991634362084
2 70.798013813163692 -3.7995852583799827 4.2005587978413317 -0.99999999999790701 2.0453833758039053e-006 5.047437600816146e-008 -5.0746507619595458e-008 -0.00013304696874094545 -0.99999999114925076 -2.0453766422380032e-006 -0.99999999114716032 0.00013304696884446304 4.2005588350194243
1 9.1971159593604321e-011 4.580235518690931e-005 1.0842021700000001e-015 2.0079338472359189e-006 0.99999999999798417 0 
1 -4.1999999399999961 3.9610126256999959e-006 4.1999999399999997 2.0078679035213335e-006 0.99999999999798428 0 
1 50.787246147400019 -8.000103885905002 4.1999999399999997 0.99999999999798372 -2.008125246732073e-006 0 
1 50.801629369069992 -3.8001039760259303 0 0.99999999999798383 -2.0080617378629736e-006 0 
1 -2.9999999881124553 -0.013999567513344984 4.1999999399999997 2.0082353949993396e-006 0.9999999999979835 0 
1 50.80141335327999 -3.8001039764588014 1.1999999800000001 0.99999999999798395 -2.0080173638781047e-006 0 
1 -2.8019087012452816e-008 -0.013954186285771778 1.1999999800000001 2.0079338516899299e-006 0.99999999999798417 0 
1 50.786935835000023 -6.8001039059107553 4.1999999399999997 0.99999999999798483 -2.0075934735600141e-006 0 
Polygon3D 0
PolygonOnTriangulations 0
Surfaces 25
1 -2.99994373 27.999704699999999 8.9999942799999992 2.0079338699959526e-006 0.99999999999798417 0 0 0 -1 -0.99999999999798417 2.0079338699959526e-006 0 
1 -2.9999999599999998 -2.4095205800000001e-006 0 -0.99999999999798417 2.0079338499959525e-006 0 -2.0079338499959525e-006 -0.99999999999798417 0 0 0 1 
1 -2.2917748975295247 27.99981338125 1.9081688191874999 -2.9342457358614812e-005 -0.99999999919567895 -2.7343414944545116e-005 -0.70710678116125647 1.4135364466101231e-006 0.70710678121042592 -0.70710678060303411 4.0082964703048179e-005 -0.70710678063399213 
1 -4.1999999399999997 0 0 -0.99999999999798417 2.0079338499959525e-006 0 -2.0079338499959525e-006 -0.99999999999798417 0 0 0 1 
1 -2.9999838900000002 7.99999649 16.999994300000001 1.0658141000000001e-014 -2.1400842100000001e-020 1 2.0079338499959525e-006 0.99999999999798417 8.0271466097878605e-030 -0.99999999999798417 2.0079338499959525e-006 1.0658141000021486e-014 
1 -2.9999999599999998 -9.8163333099999994e-007 4.1999999399999997 1.0149004499999948e-007 -0.99999999999999489 0 0 0 1 -0.99999999999999489 -1.0149004499999948e-007 0 
1 -2.291831119876131 1.2771912793749997e-007 1.9081688191874999 2.0079338493119073e-006 0.99999999999798417 3.3834193212151525e-015 0.70710678124560122 -1.4198236387514562e-006 -0.70710678112606851 -0.70710678112464298 1.4198236432934578e-006 -0.70710678124702664 
1 47.797767 -5.0224440100000001e-005 1.1999999800000001 -2.0079338502452051e-006 -0.99999999912211801 -4.1853700705111088e-005 -0.99999999999798406 2.007933852003886e-006 8.4039443509764992e-020 8.403946239339203e-011 4.185370070502671e-005 -0.99999999912413384 
1 47.797767 1.4210854699999999e-014 1.1999999800000001 0 0 -1 0.99999999999798417 -2.0079338499959525e-006 0 -2.0079338499959525e-006 -0.99999999999798417 -0 
1 47.797767 1.4210854699999999e-014 0 0 0 -1 0.99999999999798417 -2.0079338499959525e-006 0 -2.0079338499959525e-006 -0.99999999999798417 -0 
1 50.798041549999994 -3.3996081149999999 0.59999999000000004 -0.99999995533886976 -0.00014694284083777186 0.00026024999528744263 -0.00014694282786396535 0.99999998920390032 6.8972257645581351e-008 -0.00026025000261273724 3.0730384306081901e-008 -0.99999996613496711 
1 50.798735257142845 -5.9509459514285705 2.0491735364973573 -0.99999999600839162 -4.2589710167498791e-005 -7.8545104632534219e-005 2.5424374823083384e-005 0.70710619084367154 -0.70710737107185817 8.5655227737381341e-005 -0.70710737024632253 -0.70710618693836369 
1 70.7980467 7.55147674 1.1999999800000001 0.99999999996097622 -2.0079338399216429e-006 8.6032462996642699e-006 -2.0079338399959527e-006 -0.99999999999798417 0 8.6032462996469277e-006 -1.7274749378915849e-011 -0.99999999996299216 
1 70.798008956250001 -6.0919752474999997 1.9081688191874999 0.99999999999795808 -2.0209167463057306e-006 4.7725324807589954e-009 -1.4323786254882955e-006 -0.70710678112631586 0.70710678124532833 -1.4256292455647366e-006 -0.70710678124389137 -0.7071067811277667 
1 26.9751884 27.608084099999999 1.1999999800000001 0.3091366880445206 0.95101761713696176 -4.8316109406958298e-014 0.95101761713696176 -0.3091366880445206 3.1554436208840472e-030 -1.4936282041263791e-014 -4.5949471237534226e-014 -1 
1 5.6221984999999997e-005 27.999918900000001 1.1999999800000001 2.0079338402522466e-006 0.99999999812562501 6.1194102807687504e-005 0.99999999999798417 -2.0079338440118202e-006 3.661936843578379e-019 1.2287371044768816e-010 6.1194102807564149e-005 -0.99999999812764095 
1 50.798934899999999 -6.8001039299999997 11.999991700000001 -0.99999996662867974 -0.0002583459689040709 0 -0 0 -1 0.0002583459689040709 -0.99999996662867974 -0 
1 62.797999900000001 -6.8001280199999998 19.999991699999999 -2.0079338499959525e-006 -0.99999999999798417 0 0.99999999999798417 -2.0079338499959525e-006 0 0 0 1 
1 62.797997500000001 -8.0001280000000001 19.999991699999999 -2.0079338499959525e-006 -0.99999999999798417 0 0.99999999999798417 -2.0079338499959525e-006 0 0 0 1 
1 62.797999900000001 -6.8001280199999998 19.999991699999999 0 0 1 -0.99999999999798417 2.0079338499959525e-006 0 -2.0079338499959525e-006 -0.99999999999798417 0 
1 70.798003699999995 -6.8001440799999999 4.1999999399999997 0.99999999998654832 -5.1868471799302279e-006 0 0 0 1 -5.1868471799302279e-006 -0.99999999998654832 0 
2 -5.1499264608345641e-007 -4.4741531149680784e-006 4.1999994231960009 2.0079019837068299e-006 0.99999999999798417 5.8187322683593167e-011 0.99999999999798417 -2.0079019837068299e-006 0 1.1683444064297615e-016 5.8187322683475869e-011 -1 4.199999423196032
2 -3.6269185266224468e-007 -4.4741534504133036e-006 4.1999995788430429 2.0077603464800458e-006 0.9999999999979845 -5.4925074478271222e-010 0.9999999999979845 -2.0077603464800458e-006 3.944304526105059e-031 -1.102763865649361e-015 -5.4925074478160524e-010 -1 2.9999995988430648
2 50.798628612678158 -3.8001043341979992 4.1999995762791293 0.99999999999798383 -2.0080782445093871e-006 -5.2833776608894246e-010 2.0080782445093871e-006 0.99999999999798383 0 5.2833776608787726e-010 -1.0609435738358947e-015 1 2.9999995962791535
2 50.798628570731225 -3.8001044842384339 4.1999994244803691 0.99999999999798395 -2.0080617375141917e-006 1.2790162519389993e-014 2.0080617375141917e-006 0.99999999999798395 0 -1.2790162519364204e-014 2.5683435971775156e-020 1 4.1999994244804002
Triangulations 0

TShapes 134
Ve
0.000182277095546811
-2.99994373 27.9997414 4.19999994
0 0

0101101
*
Ve
0.000634186873768534
-2.9999437384403 27.9997047 16.9999943
0 0

0101101
*
Ed
 1e-007 1 1 0
1  1 0 -0.2999972 12.49999716
2  1 1 0 -0.2999972 12.49999716
2  2 2 0 -0.2999972 12.49999716
0

0101000
+134 0 -133 0 *
Ve
0.000255190253889678
-4.19994371 27.9997805 4.19999994
0 0

0101101
*
Ed
 0.000146801466445 1 1 0
1  2 0 -7.32747196251138e-014 1.19999996992893
2  3 1 0 -7.32747196251138e-014 1.19999996992893
2  4 3 0 -7.32747196251138e-014 1.19999996992893
4 G1 1 0 3 0
0

0101000
+134 0 -131 0 *
Ve
0.000532726626121075
-4.1999437184403 27.9997071095206 16.9999943
0 0

0101101
*
Ed
 1e-007 1 1 0
1  3 0 -0.2999972 12.49999716
2  5 1 0 -0.2999972 12.49999716
2  6 4 0 -0.2999972 12.49999716
0

0101000
+131 0 -129 0 *
Ed
 1e-007 1 1 0
1  4 0 7.48609929603029e-009 1.19999998748852
2  7 1 0 7.48609929603029e-009 1.19999998748852
2  8 5 0 7.48609929603029e-009 1.19999998748852
0

0101000
+133 0 -129 0 *
Wi

0101000
-132 0 +130 0 +128 0 -127 0 *
Fa
0  1e-007 1 0

0101000
+126 0 *
Ve
0.000634341491086808
-2.99999995999713 -9.81633330999709e-007 16.9999943
0 0

0101101
*
Ed
 1e-007 1 1 0
1  5 0 -3.99999802188111 23.9997076598087
2  9 5 0 -3.99999802188111 23.9997076598087
2  10 2 0 -3.99999802188111 23.9997076598087
0

0101000
+124 0 -133 0 *
Ve
0.000532856853407813
-4.19999994000222 -1.10342138297042e-006 16.9999943
0 0

0101101
*
Ed
 1e-007 1 1 0
1  6 0 -4.00000055318974 23.9997076598087
2  11 5 0 -4.00000055318974 23.9997076598087
2  12 4 0 -4.00000055318974 23.9997076598087
0

0101000
+122 0 -129 0 *
Ed
 1e-007 1 1 0
1  7 0 8.44095725227594e-006 1.20000842096234
2  13 5 0 8.44095725227594e-006 1.20000842096234
2  14 6 0 8.44095725227594e-006 1.20000842096234
0

0101000
+124 0 -122 0 *
Wi

0101000
+123 0 +127 0 -121 0 -120 0 *
Fa
0  1e-007 5 0

0101000
+119 0 *
Ve
0.000182280508012707
-2.99999996 2.84020988e-007 4.19999994
0 0

0101101
*
Ed
 1e-007 1 1 0
1  8 0 2.09999997 14.89999433
2  15 6 0 2.09999997 14.89999433
2  16 2 0 2.09999997 14.89999433
0

0101000
+117 0 -124 0 *
Ve
0.00025518839483264
-4.19999994 1.42788725e-006 4.19999994
0 0

0101101
*
Ed
 1e-007 1 1 0
1  9 0 2.09999997 14.89999433
2  17 6 0 2.09999997 14.89999433
2  18 4 0 2.09999997 14.89999433
0

0101000
+115 0 -122 0 *
Ed
 5.06266789616195e-006 1 1 0
1  10 0 5.32907051820079e-015 1.19999997999975
2  19 6 0 5.32907051820079e-015 1.19999997999975
2  20 7 0 5.32907051820079e-015 1.19999997999975
4 G1 6 0 7 0
0

0101000
+117 0 -115 0 *
Wi

0101000
+116 0 +120 0 -114 0 -113 0 *
Fa
0  1e-007 6 0

0101000
+112 0 *
Ve
0.000431604288080908
50.7976981601703 -5.62481034300788e-005 1.19999998
0 0

0101101
*
Ve
0.000182280508012707
4.14167668e-011 2.0638094e-005 1.19999998
0 0

0101101
*
Ed
 1e-007 1 1 0
1  11 0 -2.99993116022682 47.7977669999541
2  21 8 0 -2.99993116022682 47.7977669999541
2  22 9 0 -2.99993116022682 47.7977669999541
0

0101000
+110 0 -109 0 *
Ve
0.00025518839483264
9.18208736e-011 4.5750314e-005 2.10207676e-009
0 0

0101101
*
Ed
 0.000100449884842608 1 1 0
1  12 0 2.10209627666653e-012 1.19999997684898
2  23 8 0 2.10209627666653e-012 1.19999997684898
2  24 7 0 2.10209627666653e-012 1.19999997684898
4 G1 8 0 7 0
0

0101000
+109 0 -107 0 *
Ve
0.000431604288080908
50.797385852787 -6.02303628438605e-006 0
0 0

0101101
*
Ed
 1e-007 1 1 0
1  13 0 -2.99961885274266 47.7977669999541
2  25 8 0 -2.99961885274266 47.7977669999541
2  26 10 0 -2.99961885274266 47.7977669999541
0

0101000
+105 0 -107 0 *
Ed
 1e-007 1 1 0
1  14 0 -0.300319172483682 0.899680849207342
2  27 8 0 -0.300319172483682 0.899680849207342
2  28 11 0 -0.300319172483682 0.899680849207342
0

0101000
+110 0 -105 0 *
Wi

0101000
+108 0 +106 0 -104 0 -103 0 *
Fa
0  1e-007 8 0

0101000
+102 0 *
Ve
0.000800713948905733
50.7984127 -3.80010397 1.19999998
0 0

0101101
*
Ed
 1e-007 1 1 0
1  15 0 -1.69952740706429 2.1005203788031
2  29 11 0 -1.69952740706429 2.1005203788031
2  30 9 0 -1.69952740706429 2.1005203788031
0

0101000
+110 0 -100 0 *
Ve
0.000800713948905733
50.7983162 -3.80010397 4.33680869e-016
0 0

0101101
*
Ed
 1e-007 1 1 0
1  16 0 -1.69957767802223 2.10052036462311
2  31 11 0 -1.69957767802223 2.10052036462311
2  32 10 0 -1.69957767802223 2.10052036462311
0

0101000
+105 0 -98 0 *
Ed
 0.000800713948905733 1 1 0
1  17 0 0 1.19999994524012
2  33 11 0 0 1.19999994524012
2  34 12 0 0 1.19999994524012
4 G1 11 0 12 0
0

0101000
+100 0 -98 0 *
Wi

0101000
-99 0 +103 0 +97 0 -96 0 *
Fa
0  1e-007 11 0

0101000
+95 0 *
Ve
0.000182277062542705
70.7980187 -3.80014413 1.19999998
0 0

0101101
*
Ve
0.000395934431976991
70.7980583693 13.3630726104136 1.19999998
0 0

0101101
*
Ed
 1e-007 1 1 0
1  18 0 -7.57585940852099 9.58735733193768
2  35 13 0 -7.57585940852099 9.58735733193768
2  36 9 0 -7.57585940852099 9.58735733193768
0

0101000
+93 0 -92 0 *
Ve
0.000255193073971756
70.7980239 -3.80014413 8.88169746e-011
0 0

0101101
*
Ed
 2.06032493410525e-005 1 1 0
1  19 0 8.88178419667408e-014 1.19999997986666
2  37 13 0 8.88178419667408e-014 1.19999997986666
2  38 14 0 8.88178419667408e-014 1.19999997986666
4 G1 13 0 14 0
0

0101000
+93 0 -90 0 *
Ve
0.000536566954558294
70.7980686931887 13.3630692545422 0
0 0

0101101
*
Ed
 1e-007 1 1 0
1  20 0 -7.57585940851055 9.58735397608703
2  39 13 0 -7.57585940851055 9.58735397608703
2  40 10 0 -7.57585940851055 9.58735397608703
0

0101000
+90 0 -88 0 *
Ed
 1e-007 1 1 0
1  21 0 0.000200301673517236 1.20020028172262
2  41 13 0 0.000200301673517236 1.20020028172262
2  42 15 0 0.000200301673517236 1.20020028172262
0

0101000
+92 0 -88 0 *
Wi

0101000
-91 0 +89 0 +87 0 -86 0 *
Fa
0  1e-007 13 0

0101000
+85 0 *
Ve
0.000766060274187848
25.7699203014921 27.9998671558178 1.19999998
0 0

0101101
*
Ed
 1e-007 1 1 0
1  22 0 -31.9113216649797 15.4360010937355
2  43 15 0 -31.9113216649797 15.4360010937355
2  44 9 0 -31.9113216649797 15.4360010937355
0

0101000
+92 0 -83 0 *
Ve
0.000948456560275549
25.7696943935462 27.9999405891937 0
0 0

0101101
*
Ed
 1e-007 1 1 0
1  23 0 -31.9113325206026 15.4362386371226
2  45 15 0 -31.9113325206026 15.4362386371226
2  46 10 0 -31.9113325206026 15.4362386371226
0

0101000
+88 0 -81 0 *
Ed
 1e-007 1 1 0
1  24 0 -0.00230023802189288 1.1976997654893
2  47 15 0 -0.00230023802189288 1.1976997654893
2  48 16 0 -0.00230023802189288 1.1976997654893
0

0101000
+83 0 -81 0 *
Wi

0101000
-82 0 +86 0 +80 0 -79 0 *
Fa
0  1e-007 15 0

0101000
+78 0 *
Ve
0.000194092796106506
5.62218375e-005 27.9998455 1.19999998
0 0

0101101
*
Ed
 1e-007 1 1 0
1  25 0 -1.87098057960734 23.8988834999518
2  49 16 0 -1.87098057960734 23.8988834999518
2  50 9 0 -1.87098057960734 23.8988834999518
0

0101000
+83 0 -76 0 *
Ve
0.000255190253889678
5.6221985e-005 27.9999189 4.49366152e-009
0 0

0101101
*
Ed
 1e-007 1 1 0
1  26 0 -1.87075467151394 23.8988834999517
2  51 16 0 -1.87075467151394 23.8988834999517
2  52 10 0 -1.87075467151394 23.8988834999517
0

0101000
+81 0 -74 0 *
Ed
 0.000194092796106506 1 1 0
1  27 0 -1.01052499511829e-012 1.19999997775014
2  53 16 0 -1.01052499511829e-012 1.19999997775014
2  54 3 0 -1.01052499511829e-012 1.19999997775014
4 G1 16 0 3 0
0

0101000
+76 0 -74 0 *
Wi

0101000
-75 0 +79 0 +73 0 -72 0 *
Fa
0  1e-007 16 0

0101000
+71 0 *
Ve
0.000634068408464745
50.7989348999991 -6.80010392667122 19.9999917
0 0

0101101
*
Ve
0.000624806232415986
50.7987787 -6.80010389 4.19999993
0 0

0101101
*
Ed
 1e-007 1 1 0
1  28 0 -4 11.79999177
2  55 17 0 -4 11.79999177
2  56 18 0 -4 11.79999177
0

0101000
+69 0 -68 0 *
Ve
0.000669377064926313
50.7989325 -8.00010001 4.19999994
0 0

0101101
*
Ed
 0.000624806232415986 1 1 0
1  29 0 7.16795542983824e-011 1.19999231045251
2  57 17 0 7.16795542983824e-011 1.19999231045251
2  58 12 0 7.16795542983824e-011 1.19999231045251
4 G1 17 0 12 0
0

0101000
+68 0 -66 0 *
Ve
0.000532628970264218
50.7992449151672 -8.00010390729853 19.9999917
0 0

0101101
*
Ed
 1e-007 1 1 0
1  30 0 -4 11.79999176
2  59 17 0 -4 11.79999176
2  60 19 0 -4 11.79999176
0

0101000
+64 0 -66 0 *
Ed
 1e-007 1 1 0
1  31 0 -0.00156200336506344 1.19843801730783
2  61 17 0 -0.00156200336506344 1.19843801730783
2  62 20 0 -0.00156200336506344 1.19843801730783
0

0101000
+69 0 -64 0 *
Wi

0101000
+67 0 +65 0 -63 0 -62 0 *
Fa
0  1e-007 17 0

0101000
+61 0 *
Ve
0.000634749732472288
70.7980037 -6.80014408347843 19.9999917
0 0

0101101
*
Ed
 1e-007 1 1 0
1  32 0 -8.00000380001611 11.9990650000251
2  63 20 0 -8.00000380001611 11.9990650000251
2  64 18 0 -8.00000380001611 11.9990650000251
0

0101000
+59 0 -69 0 *
Ve
0.00053319407665164
70.7979974757835 -8.00014406347075 19.9999917
0 0

0101101
*
Ed
 1e-007 1 1 0
1  33 0 -7.99999998055988 11.9987525800967
2  65 20 0 -7.99999998055988 11.9987525800967
2  66 19 0 -7.99999998055988 11.9987525800967
0

0101000
+57 0 -64 0 *
Ed
 1e-007 1 1 0
1  34 0 -1.27139201452953e-005 1.19998726608832
2  67 20 0 -1.27139201452953e-005 1.19998726608832
2  68 21 0 -1.27139201452953e-005 1.19998726608832
0

0101000
+59 0 -57 0 *
Wi

0101000
+58 0 +62 0 -56 0 -55 0 *
Fa
0  1e-007 20 0

0101000
+54 0 *
Ve
0.000182277062542705
70.7980056 -6.80014408 4.19999994
0 0

0101101
*
Ed
 1e-007 1 1 0
1  35 0 -7.89999588 7.89999588
2  69 21 0 -7.89999588 7.89999588
2  70 18 0 -7.89999588 7.89999588
0

0101000
+59 0 -52 0 *
Ve
0.000255193073971756
70.7980013 -8.00014407 4.19999994
0 0

0101101
*
Ed
 1e-007 1 1 0
1  36 0 -7.89999588 7.89999588
2  71 21 0 -7.89999588 7.89999588
2  72 19 0 -7.89999588 7.89999588
0

0101000
+57 0 -50 0 *
Ed
 7.60007598935345e-006 1 1 0
1  37 0 1.24344978756358e-014 1.19999998999608
2  73 21 0 1.24344978756358e-014 1.19999998999608
2  74 14 0 1.24344978756358e-014 1.19999998999608
4 G1 21 0 14 0
0

0101000
+52 0 -50 0 *
Wi

0101000
-51 0 +55 0 +49 0 -48 0 *
Fa
0  1e-007 21 0

0101000
+47 0 *
Ed
 0.00025518839483264 1 1 0
1  38 0 0 1.57053023033507
2  75 7 0 0 1.57053023033507
2  76 22 0 0 1.57053023033507
0

0101000
+107 0 -115 0 *
Ed
 0.000182280508012707 1 1 0
1  39 0 0 1.5705302394481
2  77 7 0 0 1.5705302394481
2  78 23 0 0 1.5705302394481
0

0101000
+109 0 -117 0 *
Wi

0101100
+106 0 +45 0 -113 0 -44 0 *
Fa
0  1e-007 7 0

0101000
+43 0 *
Ed
 0.000255190253889678 1 1 0
1  40 0 0 1.57053023440641
2  79 3 0 0 1.57053023440641
2  80 22 0 0 1.57053023440641
0

0101000
+74 0 -131 0 *
Ed
 0.000182277095546811 1 1 0
1  41 0 0 1.57053023989044
2  81 3 0 0 1.57053023989044
2  82 23 0 0 1.57053023989044
0

0101000
+76 0 -134 0 *
Wi

0101100
+130 0 -41 0 -72 0 +40 0 *
Fa
0  1e-007 3 0

0101000
+39 0 *
Ed
 0.000519168295577407 1 1 0
1  42 0 0 1.57033981233387
2  83 12 0 0 1.57033981233387
2  84 24 0 0 1.57033981233387
0

0101000
+100 0 -68 0 *
Ed
 0.000588992957265048 1 1 0
1  43 0 0 1.57033973773444
2  85 12 0 0 1.57033973773444
2  86 25 0 0 1.57033973773444
0

0101000
+98 0 -66 0 *
Wi

0101100
-37 0 +96 0 +36 0 -65 0 *
Fa
0  1e-007 12 0

0101000
+35 0 *
Ed
 0.000182277062542705 1 1 0
1  44 0 0 1.57053023932734
2  87 14 0 0 1.57053023932734
2  88 24 0 0 1.57053023932734
0

0101000
+93 0 -52 0 *
Ed
 0.000255193073971756 1 1 0
1  45 0 0 1.57053023613716
2  89 14 0 0 1.57053023613716
2  90 25 0 0 1.57053023613716
0

0101000
+90 0 -50 0 *
Wi

0101100
+33 0 +48 0 -32 0 -89 0 *
Fa
0  1e-007 14 0

0101000
+31 0 *
Ed
 1e-007 1 1 0
1  46 0 -5.20411858795109e-008 27.9997996977013
2  91 22 0 -5.20411858795109e-008 27.9997996977013
2  92 10 0 -5.20411858795109e-008 27.9997996977013
4 G1 22 0 10 0
0

0101000
+107 0 -74 0 *
Ed
 1e-007 1 1 0
1  47 0 -1.81674569999975e-009 27.9997765390438
2  93 22 0 -1.81674569999975e-009 27.9997765390438
2  94 4 0 -1.81674569999975e-009 27.9997765390438
4 G1 22 0 4 0
0

0101000
+115 0 -131 0 *
Wi

0101100
-29 0 +45 0 +28 0 -41 0 *
Fa
0  1e-007 22 0

0101000
+27 0 *
Ed
 1e-007 1 1 0
1  48 0 0.0119987526000031 20.0107513526403
2  95 19 0 0.0119987526000031 20.0107513526403
2  96 25 0 0.0119987526000031 20.0107513526403
4 G1 19 0 25 0
0

0101000
+66 0 -50 0 *
Wi

0101000
-49 0 +56 0 +63 0 +25 0 *
Fa
0  1e-007 19 0

0101000
+24 0 *
Ed
 1e-007 1 1 0
1  49 0 -0.00300086906999902 19.9963842309703
2  97 10 0 -0.00300086906999902 19.9963842309703
2  98 25 0 -0.00300086906999902 19.9963842309703
4 G1 10 0 25 0
0

0101000
+98 0 -90 0 *
Wi

0101000
-73 0 -80 0 -87 0 -22 0 -97 0 +104 0 +29 0 *
Fa
0  1e-007 10 0

0101000
+21 0 *
Wi

0101000
-28 0 +114 0 +121 0 -128 0 *
Fa
0  1e-007 4 0

0101000
+19 0 *
Wi

0101100
+36 0 +25 0 -32 0 -22 0 *
Fa
0  1e-007 25 0

0101000
-17 0 *
Ed
 1.14564085301151e-007 1 1 0
1  50 0 0.0139998515343457 28.0137042675698
2  99 2 0 0.0139998515343457 28.0137042675698
2  100 23 0 0.0139998515343457 28.0137042675698
4 G1 2 0 23 0
0

0101000
+117 0 -134 0 *
Wi

0101000
+116 0 +123 0 -132 0 -15 0 *
Fa
0  1e-007 2 0

0101000
+14 0 *
Ed
 1e-007 1 1 0
1  51 0 -0.00300065328000337 19.9966053467603
2  101 9 0 -0.00300065328000337 19.9966053467603
2  102 24 0 -0.00300065328000337 19.9966053467603
4 G1 9 0 24 0
0

0101000
+100 0 -93 0 *
Ed
 1e-007 1 1 0
1  52 0 0.0139999366 28.0137996863423
2  103 9 0 0.0139999366 28.0137996863423
2  104 23 0 0.0139999366 28.0137996863423
4 G1 9 0 23 0
0

0101000
+109 0 -76 0 *
Wi

0101000
-82 0 -91 0 -12 0 -99 0 +108 0 +11 0 -75 0 *
Fa
0  1e-007 9 0

0101000
+10 0 *
Ed
 1e-007 1 1 0
1  53 0 0.0119990650000006 20.0110678650403
2  105 18 0 0.0119990650000006 20.0110678650403
2  106 24 0 0.0119990650000006 20.0110678650403
4 G1 18 0 24 0
0

0101000
+68 0 -52 0 *
Wi

0101000
+58 0 +67 0 +8 0 -51 0 *
Fa
0  1e-007 18 0

0101000
+7 0 *
Wi

0101100
+44 0 +15 0 -40 0 -11 0 *
Fa
0  1e-007 23 0

0101000
+5 0 *
Wi

0101100
-12 0 +37 0 +8 0 -33 0 *
Fa
0  1e-007 24 0

0101000
-3 0 *
Sh

1101000
+125 0 +118 0 +111 0 +101 0 +94 0 +84 0 +77 0 +70 0 +60 0 +53 0 
+46 0 -42 0 -38 0 +34 0 +30 0 +26 0 +23 0 +20 0 +18 0 +16 0 
-13 0 -9 0 -6 0 -4 0 -2 0 *

+1 0 